<svg width="51" height="80" viewBox="0 0 51 80" fill="none" xmlns="http://www.w3.org/2000/svg">
<path d="M16.7245 58.1036C14.8279 57.0691 13.2762 55.6898 12.4141 53.7932L10.5176 61.207C11.5521 62.0691 12.759 62.9311 13.9659 63.6208C15.1728 64.3105 16.5521 64.6553 17.9314 65.0001L22.759 59.138C20.8624 59.3105 18.621 59.138 16.7245 58.1036Z" fill="#B3B3B3"/>
<path d="M11.3786 69.138C10.5165 68.7931 9.82684 68.2759 8.96478 67.7587L5.86133 80.1725L13.7924 70.1725C12.9303 69.8276 12.0682 69.4828 11.3786 69.138Z" fill="#B3B3B3"/>
<path d="M34.4823 37.4139L31.034 51.5518L35.8616 39.3104C39.1375 44.3104 39.8271 51.0346 36.8961 56.7242C32.5858 65.3449 22.0685 68.9656 13.4478 64.4828C4.82715 60.1725 1.20646 49.6553 5.68922 41.0346C8.62025 35.1725 14.3099 31.7242 20.3444 31.3794L13.4478 43.1035L23.9651 30.0001L25.6892 27.9311C16.5513 26.207 6.89612 30.5173 2.58577 39.3104C-2.93147 50.0001 1.20646 62.7587 11.7237 68.1035C22.2409 73.4484 34.9996 69.138 40.3444 58.6208C44.6547 49.8277 42.4134 39.4828 35.5168 33.2759L34.4823 37.4139Z" fill="#B3B3B3"/>
<path d="M17.9296 55.8621C21.7227 57.7587 26.3779 56.2069 28.2744 52.4138V52.2414C28.7917 51.3794 28.9641 50.3449 28.9641 49.3104L36.8951 17.7587L16.3779 43.1035C15.6882 43.7931 14.9986 44.4828 14.4813 45.3449C14.4813 45.3449 14.4813 45.3449 14.4813 45.5173C12.5848 49.4828 14.1365 53.9656 17.9296 55.8621Z" fill="#C9BC9C"/>
<path d="M42.759 15.1724L40.3452 1.72414L36.7245 8.96552C36.3797 9.65517 36.3797 10 36.2073 10.3448C36.0349 10.6897 36.2073 10.8621 36.3797 11.0345C36.5521 11.2069 36.897 11.5517 37.5866 11.8966L37.4142 12.2414L33.6211 10.3448L33.7935 10C34.3107 10.1724 34.6556 10.3448 35.0004 10.3448C35.3452 10.3448 35.5176 10.1724 35.6901 10.1724C35.8625 10 36.0349 9.65517 36.3797 8.96552L39.1383 3.44828C39.4832 2.58621 39.828 2.06897 39.828 1.72414C39.828 1.37931 39.828 1.2069 39.6556 1.03448C39.4832 0.862069 39.1383 0.689655 38.6211 0.344828L38.9659 0L42.0694 1.55172L44.1383 12.7586L47.2418 6.55172C47.4142 6.03448 47.5866 5.68965 47.5866 5.51724C47.5866 5.34483 47.4142 5 47.2418 4.82759C47.0694 4.65517 46.7245 4.31034 46.2073 4.13793L46.3797 3.7931L50.1728 5.68965L50.0004 6.03448C49.4832 5.86207 49.1383 5.68965 48.7935 5.68965C48.4487 5.68965 48.2763 5.68965 48.1039 5.86207C47.9314 6.03448 47.759 6.37931 47.5866 6.72414L43.2763 15.3448L42.759 15.1724Z" fill="#C9BC9C"/>
</svg>
