<svg width="16" height="20" viewBox="0 0 16 20" fill="none" xmlns="http://www.w3.org/2000/svg">
<g clip-path="url(#clip0)">
<path d="M15.3468 7.26531C15.3468 3.26531 11.9182 0 7.6733 0C3.4284 0 -0.000171033 3.26531 -0.000171033 7.26531C-0.000171033 7.26531 -0.571599 12 7.59167 20C15.1019 12.7347 15.3468 8.16327 15.3468 7.34694V7.26531ZM7.6733 11.8367C5.06105 11.8367 2.9386 9.71429 2.9386 7.10204C2.9386 4.4898 5.06105 2.44898 7.6733 2.44898C10.2855 2.44898 12.408 4.57143 12.408 7.18367C12.3264 9.71429 10.2855 11.8367 7.6733 11.8367Z" fill="#95413C"/>
<path d="M15.2657 7.26531C15.2657 3.26531 11.8371 0 7.67383 0V2.44898C10.2861 2.44898 12.4085 4.57143 12.4085 7.18367C12.4085 9.79592 10.2861 11.9184 7.67383 11.9184V20.0816C15.1024 12.7347 15.3473 8.16327 15.2657 7.34694V7.26531Z" fill="#C55A54"/>
</g>
<defs>
<clipPath id="clip0">
<rect width="15.3469" height="20" fill="white"/>
</clipPath>
</defs>
</svg>
