<svg width="19" height="23" viewBox="0 0 19 23" fill="none" xmlns="http://www.w3.org/2000/svg">
<path d="M18.9375 9.34375C18.9375 4.19161 14.7459 0 9.59375 0C4.44161 0 0.25 4.19161 0.25 9.34375C0.25 12.1137 1.46196 14.6055 3.38298 16.3181L0.611244 23H18.5763L15.8045 16.3181C17.7255 14.6055 18.9375 12.1137 18.9375 9.34375ZM9.59375 1.4375C13.711 1.4375 17.1026 4.60105 17.4669 8.625H14.5734C14.2236 6.19007 12.124 4.3125 9.59375 4.3125C7.06351 4.3125 4.9639 6.19007 4.61406 8.625H1.72052C2.08487 4.60105 5.47651 1.4375 9.59375 1.4375ZM13.1875 9.34375C13.1875 11.3253 11.5753 12.9375 9.59375 12.9375C7.61216 12.9375 6 11.3253 6 9.34375C6 7.36216 7.61216 5.75 9.59375 5.75C11.5753 5.75 13.1875 7.36216 13.1875 9.34375ZM1.72052 10.0625H4.61406C4.9639 12.4974 7.06351 14.375 9.59375 14.375C12.124 14.375 14.2236 12.4974 14.5734 10.0625H17.467C17.0889 14.2374 13.4623 17.4635 9.17218 17.2387C5.24709 17.0315 2.07237 13.9482 1.72052 10.0625ZM14.6228 17.2209L16.4237 21.5625H2.76376L4.56475 17.2209C6.17255 18.2534 8.00129 18.7353 9.85863 18.6835C11.5712 18.6367 13.1977 18.136 14.6228 17.2209Z" fill="#B48856"/>
<path d="M9.59375 7.1875C8.40475 7.1875 7.4375 8.15479 7.4375 9.34375C7.4375 10.5328 8.40475 11.5 9.59375 11.5C10.7828 11.5 11.75 10.5328 11.75 9.34375C11.75 8.15479 10.7828 7.1875 9.59375 7.1875ZM9.59375 10.0625C9.19743 10.0625 8.875 9.74007 8.875 9.34375C8.875 8.94743 9.19743 8.625 9.59375 8.625C9.99007 8.625 10.3125 8.94743 10.3125 9.34375C10.3125 9.74007 9.99007 10.0625 9.59375 10.0625Z" fill="#B48856"/>
</svg>
