<svg width="23" height="17" viewBox="0 0 23 17" fill="none" xmlns="http://www.w3.org/2000/svg">
<g clip-path="url(#clip0)">
<path fill-rule="evenodd" clip-rule="evenodd" d="M17.391 4.40986C17.4465 4.72014 17.475 5.0346 17.476 5.3498C17.476 9.1098 13.593 12.2 8.66101 12.52C10.4366 14.1378 12.7754 14.9957 15.176 14.9099C16.0293 14.909 16.8796 14.8116 17.711 14.6198C17.7796 14.6001 17.8506 14.5899 17.922 14.5898C18.1434 14.5906 18.3568 14.6724 18.522 14.8198C19.3814 15.5567 20.4084 16.0717 21.513 16.3198C21.1085 15.6668 20.7819 14.9689 20.54 14.2399C20.4777 14.0557 20.476 13.8564 20.535 13.6711C20.594 13.4858 20.7106 13.3242 20.868 13.2099C21.4879 12.8127 22.0044 12.2736 22.3746 11.6372C22.7449 11.0007 22.9582 10.285 22.997 9.54975C23 7.11975 20.629 5.06986 17.391 4.40986ZM15.648 5.3498C15.6471 4.95913 15.5847 4.57115 15.463 4.1999C15.234 3.51744 14.8492 2.89766 14.339 2.38984C12.5676 0.764666 10.2274 -0.0974428 7.82501 -0.0100641C3.51101 -0.0100641 0.000976562 2.3998 0.000976562 5.3498C0.0399678 6.08514 0.253511 6.80076 0.623901 7.4372C0.994292 8.07365 1.51089 8.61279 2.13098 9.00996C2.28803 9.12448 2.40444 9.28613 2.46326 9.47138C2.52207 9.65663 2.52024 9.85561 2.45801 10.0397C2.21607 10.7687 1.88949 11.4669 1.48499 12.1198C2.5896 11.8718 3.61659 11.3568 4.47601 10.6198C4.58486 10.5226 4.71587 10.4535 4.8576 10.4186C4.99934 10.3838 5.14746 10.3842 5.289 10.4199L5.60699 10.4799C6.24172 10.6133 6.88756 10.6869 7.53601 10.6999C7.63211 10.7082 7.72857 10.7116 7.82501 10.7099C12.138 10.7099 15.648 8.3098 15.648 5.3498Z" fill="white"/>
</g>
<defs>
<clipPath id="clip0">
<rect width="23" height="16.32" fill="white"/>
</clipPath>
</defs>
</svg>
