<svg width="17" height="13" viewBox="0 0 17 13" fill="none" xmlns="http://www.w3.org/2000/svg">
<g clip-path="url(#clip0)">
<path fill-rule="evenodd" clip-rule="evenodd" d="M15.982 -0.00976562H1.01699C0.882511 -0.00898 0.749504 0.0183687 0.625567 0.0705566C0.50163 0.122745 0.389195 0.198789 0.294665 0.294434C0.200134 0.390078 0.125365 0.50339 0.0746332 0.62793C0.0239011 0.75247 -0.00181016 0.885789 -0.00101992 1.02026V1.79028L7.89299 8.4502C8.06791 8.58155 8.28075 8.65259 8.4995 8.65259C8.71825 8.65259 8.93106 8.58155 9.10598 8.4502L16.999 1.79028V1.02026C16.9999 0.885837 16.9743 0.752464 16.9237 0.62793C16.8731 0.503396 16.7984 0.390092 16.704 0.294434C16.6095 0.198776 16.4971 0.122757 16.3732 0.0705566C16.2494 0.0183564 16.1164 -0.00898034 15.982 -0.00976562ZM8.49898 10.1902C7.92035 10.1943 7.35915 9.99242 6.91597 9.62036L-1.28396e-05 3.78027V11.1301C-0.000803083 11.2646 0.0249082 11.3979 0.0756402 11.5225C0.126372 11.647 0.201141 11.7606 0.295672 11.8562C0.390202 11.9518 0.502637 12.0279 0.626574 12.0801C0.750511 12.1323 0.883518 12.1594 1.01799 12.1602H15.983C16.1174 12.1594 16.2504 12.1323 16.3743 12.0801C16.4981 12.0279 16.6105 11.9516 16.705 11.856C16.7994 11.7603 16.8741 11.647 16.9247 11.5225C16.9753 11.3979 17.0009 11.2646 17 11.1301V3.78027L10.083 9.62036C9.63999 9.99272 9.07868 10.1947 8.49999 10.1902H8.49898Z" fill="white"/>
</g>
<defs>
<clipPath id="clip0">
<rect width="17" height="12.16" fill="white"/>
</clipPath>
</defs>
</svg>
