<svg width="23" height="20" viewBox="0 0 23 20" fill="none" xmlns="http://www.w3.org/2000/svg">
<g clip-path="url(#clip0)">
<path d="M8.43756 8.76297C5.85285 8.76297 3.75 6.89392 3.75 4.59641C3.75 2.29889 5.85285 0.429688 8.43756 0.429688C11.0223 0.429688 13.1251 2.29889 13.1251 4.59641C13.1251 6.89392 11.0223 8.76297 8.43756 8.76297ZM8.43756 1.67969C6.62825 1.67969 5.15625 2.98798 5.15625 4.59641C5.15625 6.20468 6.62825 7.51297 8.43756 7.51297C10.2469 7.51297 11.7189 6.20468 11.7189 4.59641C11.7189 2.98798 10.2469 1.67969 8.43756 1.67969Z" fill="black"/>
<path d="M20.8594 19.5964H15.7031C14.7984 19.5964 14.0625 18.9422 14.0625 18.1379V15.2214C14.0625 14.4171 14.7984 13.7629 15.7031 13.7629H20.8594C21.7641 13.7629 22.5 14.4171 22.5 15.2214V18.1379C22.5 18.9422 21.7641 19.5964 20.8594 19.5964ZM15.7031 15.0129C15.5738 15.0129 15.4688 15.1063 15.4688 15.2214V18.1379C15.4688 18.253 15.5738 18.3464 15.7031 18.3464H20.8594C20.9887 18.3464 21.0938 18.253 21.0938 18.1379V15.2214C21.0938 15.1063 20.9887 15.0129 20.8594 15.0129H15.7031Z" fill="black"/>
<path d="M19.9218 15.013H16.6406C16.2525 15.013 15.9375 14.733 15.9375 14.388V12.513C15.9375 11.3647 16.9893 10.4297 18.2812 10.4297C19.5731 10.4297 20.6249 11.3647 20.6249 12.513V14.388C20.6249 14.733 20.3099 15.013 19.9218 15.013ZM17.3438 13.763H19.2186V12.513C19.2186 12.0538 18.7977 11.6797 18.2812 11.6797C17.7647 11.6797 17.3438 12.0538 17.3438 12.513V13.763Z" fill="black"/>
<path d="M11.7188 17.9297H0.703125C0.314999 17.9297 0 17.6497 0 17.3047V14.388C0 12.2055 1.9978 10.4297 4.45307 10.4297H12.6562C13.4401 10.4297 14.2115 10.6139 14.8866 10.963C15.2222 11.1363 15.3355 11.5189 15.1407 11.8172C14.9457 12.1164 14.5153 12.2163 14.1787 12.043C13.7185 11.8056 13.1915 11.6797 12.6562 11.6797H4.45307C2.77319 11.6797 1.40625 12.8947 1.40625 14.388V16.6797H11.7188C12.1069 16.6797 12.4219 16.9597 12.4219 17.3047C12.4219 17.6497 12.1069 17.9297 11.7188 17.9297Z" fill="black"/>
</g>
<defs>
<clipPath id="clip0">
<rect width="22.5" height="20" fill="black"/>
</clipPath>
</defs>
</svg>
