<svg width="19" height="10" viewBox="0 0 19 10" fill="none" xmlns="http://www.w3.org/2000/svg">
<path fill-rule="evenodd" clip-rule="evenodd" d="M0.600098 0.64977C0.624363 0.445942 0.643775 0.246967 0.668041 0.0528444C0.668041 0.0334322 0.702012 0.01402 0.721424 0.00431383C0.740836 -0.00539229 0.765102 0.00431383 0.789367 0.00431383C2.99266 0.00431383 5.19595 0.00431383 7.39924 0.00431383C7.43321 0.00431383 7.46718 0.00431383 7.51571 0.00431383C7.4963 0.135346 7.47688 0.256673 7.45747 0.373146C7.45262 0.41197 7.43806 0.450795 7.43806 0.48962C7.43806 0.591534 7.37982 0.615799 7.29247 0.620652C6.89452 0.649771 6.49171 0.674036 6.09376 0.708008C5.83655 0.72742 5.57934 0.756538 5.29786 0.785656C6.24421 2.18334 7.30703 3.45969 8.2922 4.78943C9.07839 4.12456 9.86459 3.45969 10.6411 2.78997C10.8255 2.62982 10.9759 2.44055 11.1361 2.25613C11.1895 2.1979 11.2186 2.11539 11.2623 2.03289C10.9905 1.98922 10.743 1.94554 10.4906 1.91157C10.1606 1.86789 9.82577 1.82906 9.4909 1.78539C9.46664 1.78053 9.42781 1.74656 9.42296 1.71744C9.38414 1.52332 9.35017 1.3292 9.31134 1.13022C11.2817 1.13022 13.2423 1.13022 15.2127 1.13022C15.1981 1.15449 15.1884 1.17875 15.1738 1.19817C15.0574 1.37288 14.9457 1.54759 14.8244 1.71744C14.8002 1.74656 14.7662 1.77568 14.7274 1.78539C14.2032 1.89701 13.6791 1.99892 13.155 2.1154C13.0433 2.13966 12.9414 2.21731 12.8444 2.2804C12.1601 2.74144 11.5098 3.24616 10.8837 3.77514C10.3742 4.20706 9.884 4.6584 9.39384 5.10973C9.27252 5.22135 9.17546 5.35724 9.06869 5.47857C8.97163 5.58533 8.94251 5.71637 8.94251 5.85225C8.94251 6.41035 8.94251 6.97331 8.94251 7.53141C8.94251 7.78377 8.94251 8.03127 8.94251 8.28849C9.6365 8.33702 10.3111 8.3807 10.9905 8.42923C10.9662 8.65247 10.9468 8.86115 10.9226 9.07468C10.9177 9.13292 10.874 9.11836 10.8401 9.11836C10.5537 9.11351 10.2674 9.1038 9.98106 9.1038C9.04442 9.1038 8.10293 9.09895 7.16629 9.1038C6.66642 9.10865 6.16656 9.12807 5.66669 9.13777C5.29786 9.14748 4.92417 9.14748 4.55534 9.15233C4.54078 9.15233 4.52137 9.14748 4.49225 9.14748C4.51652 8.92909 4.54564 8.71556 4.5699 8.48261C4.77858 8.48261 4.98241 8.49232 5.18624 8.47776C5.50169 8.45835 5.82199 8.41467 6.11803 8.29334C6.34612 8.20599 6.52568 8.06525 6.52083 7.70612C6.51113 7.06552 6.51598 6.42006 6.52083 5.77946C6.52083 5.69695 6.50627 5.62416 6.45774 5.55621C6.21509 5.22135 5.98214 4.88164 5.73464 4.55163C4.98241 3.56646 4.20107 2.6007 3.3712 1.67862C3.19163 1.47479 2.99266 1.29037 2.80824 1.0914C2.70147 0.979779 2.57529 0.921542 2.42485 0.897277C1.96866 0.83904 1.50762 0.771097 1.05143 0.708008C0.910694 0.698301 0.760249 0.674036 0.600098 0.64977Z" fill="white"/>
<path fill-rule="evenodd" clip-rule="evenodd" d="M14.2227 6.76949C14.8244 4.79914 15.4262 2.83851 16.0328 0.863312C16.887 1.12538 17.7363 1.38744 18.6001 1.64951C18.5564 1.7223 18.5176 1.78539 18.4836 1.84848C17.78 3.03263 17.0763 4.21678 16.3774 5.40578C16.0523 5.95417 15.732 6.50257 15.4117 7.05096C15.3777 7.1092 15.3486 7.12376 15.2806 7.10435C14.9555 7.00243 14.6303 6.90052 14.3052 6.80346C14.276 6.7889 14.2566 6.77919 14.2227 6.76949Z" fill="white"/>
<path fill-rule="evenodd" clip-rule="evenodd" d="M15.0476 8.18658C15.0379 8.21084 15.033 8.2254 15.0282 8.24481C14.8583 8.63306 14.6836 9.0213 14.5137 9.4144C14.0139 9.26881 13.514 9.12321 13.0093 8.97277C13.0384 8.89997 13.0675 8.83203 13.1015 8.75924C13.2422 8.43408 13.3878 8.10893 13.5237 7.78377C13.5431 7.73524 13.5625 7.70612 13.6208 7.73039C14.077 7.90995 14.5428 8.05554 15.0233 8.16716C15.0282 8.17201 15.033 8.17687 15.0476 8.18658Z" fill="white"/>
</svg>
