<svg width="110" height="80" viewBox="0 0 110 80" fill="none" xmlns="http://www.w3.org/2000/svg">
<g clip-path="url(#clip0)">
<path d="M60.7912 23.4402C62.1198 23.2504 63.4484 22.9657 64.5872 22.681V16.6074C63.7331 16.8921 62.4045 17.3666 60.7912 17.6513V23.4402Z" fill="white"/>
<path d="M58.9882 10.7236C57.9443 11.0083 56.5208 11.3879 54.8126 11.3879C53.1044 11.3879 51.586 11.0083 50.637 10.7236V16.2278C51.9656 16.4176 53.3891 16.6074 54.8126 16.6074C56.331 16.6074 57.7545 16.4176 58.9882 16.2278V10.7236Z" fill="white"/>
<path d="M37.9205 20.2134L39.1542 20.7828C39.1542 20.7828 40.6726 21.4471 43.2349 22.2063V13.9501L44.4686 14.5195C44.4686 14.5195 46.1768 15.2786 48.739 15.848V7.97141L49.9727 8.5408C49.9727 8.5408 52.1554 9.48979 54.7177 9.48979C57.28 9.48979 59.4626 8.5408 59.4626 8.5408L60.6963 7.97141V9.39489V15.848C63.2586 15.2786 64.9668 14.5195 64.9668 14.5195L66.2005 13.9501V22.2063C68.6679 21.4471 70.1862 20.7828 70.2811 20.7828L71.5148 20.2134V41.5657C75.3108 37.485 77.6833 31.9809 77.6833 25.9074C77.7782 13.096 67.5291 2.75195 54.8126 2.75195C42.0961 2.75195 31.7521 13.096 31.7521 25.8125C31.7521 31.886 34.1246 37.3901 37.9205 41.4708V20.2134Z" fill="white"/>
<path d="M50.637 18.0308V23.6298C51.9656 23.8196 53.3891 23.9145 54.8126 23.9145C56.2361 23.9145 57.6596 23.8196 58.9882 23.6298V18.0308C57.6596 18.2206 56.331 18.4104 54.8126 18.4104C53.2942 18.4104 51.8707 18.2206 50.637 18.0308Z" fill="white"/>
<path d="M48.8339 23.44V17.746C47.2206 17.3664 45.987 16.9868 45.038 16.7021V22.7757C46.1768 22.9655 47.4104 23.2502 48.8339 23.44Z" fill="white"/>
<path d="M54.8126 51.6251C40.5777 51.6251 29 40.0474 29 25.8126C29 11.5777 40.5777 0 54.8126 0C69.0475 0 80.6252 11.5777 80.6252 25.8126C80.6252 40.0474 69.0475 51.6251 54.8126 51.6251ZM54.8126 0.948992C41.0522 0.948992 29.949 12.1471 29.949 25.8126C29.949 39.4781 41.0522 50.6762 54.8126 50.6762C68.4781 50.6762 79.6762 39.5729 79.6762 25.8126C79.6762 12.1471 68.4781 0.948992 54.8126 0.948992Z" fill="white"/>
<path d="M66.2954 24.0094V42.23H64.4923V24.4839C63.3535 24.7686 62.1198 25.0533 60.6964 25.2431V40.5219H58.9882V25.4329C57.6596 25.5278 56.2361 25.6227 54.8126 25.6227C53.3891 25.6227 51.9656 25.5278 50.637 25.4329V40.427H48.834V25.2431C47.5054 25.0533 46.1768 24.7686 45.038 24.4839V42.23H43.2349V24.0094C41.7165 23.6298 40.5777 23.1553 39.7236 22.8706V43.179C43.8043 46.6903 49.0238 48.7781 54.8126 48.7781C60.6015 48.7781 65.8209 46.6903 69.9016 43.179V22.8706C69.0475 23.1553 67.8138 23.6298 66.2954 24.0094Z" fill="white"/>
<path d="M58.4579 61.2102H62.3488V71.1746H63.3926V61.2102H67.1886V60.2612H58.4579V61.2102Z" fill="white"/>
<path d="M88.0664 60.2612H87.0225V71.1746H95.6583V70.1307H88.0664V60.2612Z" fill="white"/>
<path d="M106.097 61.2102H109.324V60.2612H106.097C103.25 60.2612 100.973 62.4439 100.688 65.196H99.4543V66.145H100.688C100.973 68.9919 103.25 71.0797 106.097 71.0797H109.324V70.1307H106.097C103.82 70.1307 101.922 68.4226 101.637 66.145H108.47V65.196H101.637C101.922 62.9184 103.82 61.2102 106.097 61.2102Z" fill="white"/>
<path d="M80 60.2612C79.9051 60.3561 79.5255 60.8306 76.7734 64.7215L76.6785 64.9113L76.5836 64.7215C73.8315 60.8306 73.452 60.3561 73.3571 60.2612H72.2183L76.2989 65.8603V71.1746H76.7734H77.3428V65.9552L81.3286 60.3561H80V60.2612Z" fill="white"/>
<path d="M9.67972 61.9694C9.30012 61.2102 8.63582 60.5459 7.78173 60.3561C7.68683 60.3561 7.59193 60.2612 7.49703 60.2612H7.40213C7.21234 60.2612 7.11744 60.2612 6.92764 60.2612H1.23369V65.2909H0V66.3348H1.23369V71.1746H2.27758V66.2399H6.92764H7.02254C7.02254 66.2399 7.02254 66.2399 7.11744 66.2399C8.35113 66.2399 9.30012 65.4807 9.77461 64.4368C9.96441 64.0572 10.0593 63.6776 10.0593 63.2031C9.96441 62.8235 9.86951 62.349 9.67972 61.9694ZM8.92052 63.298C8.92052 63.3929 8.92052 63.5827 8.92052 63.6776C8.73072 64.6266 7.97153 65.2909 7.02254 65.2909H6.92764H2.27758V61.3051H6.92764H7.02254C8.06643 61.2102 8.92052 62.1592 8.92052 63.298C8.92052 63.2031 8.92052 63.2031 8.92052 63.298Z" fill="white"/>
<path d="M21.637 66.2399C22.6809 66.0501 23.535 65.3858 23.9146 64.4368C24.1044 64.0572 24.1993 63.6776 24.1993 63.2031C24.1993 62.7286 24.1044 62.349 23.9146 61.9694C23.535 61.2102 22.8707 60.5459 22.0166 60.3561C21.9217 60.3561 21.8268 60.2612 21.7319 60.2612H21.637C21.4472 60.2612 21.3523 60.2612 21.1625 60.2612H21.0676H15.3737V65.2909H14.2349V66.3348H15.4686V71.1746H16.5124V66.2399H20.4982C20.688 66.5246 21.3523 67.6634 23.2503 71.0797L23.3452 71.2695L24.1993 70.795L21.637 66.2399ZM16.5124 61.2102H21.1625H21.2574C22.3013 61.2102 23.2503 62.0643 23.2503 63.2031C23.2503 63.298 23.2503 63.4878 23.2503 63.5827C23.0605 64.5317 22.3013 65.196 21.3523 65.196H21.2574H16.6073V61.2102H16.5124Z" fill="white"/>
<path d="M33.879 71.2694C31.5066 71.2694 29.5137 69.4663 29.5137 67.1887V64.152C29.5137 61.9693 31.4117 60.0713 33.879 60.0713C36.2515 60.0713 38.2444 61.8744 38.2444 64.152V67.1887C38.1495 69.4663 36.2515 71.2694 33.879 71.2694ZM33.879 61.1152C32.076 61.1152 30.5576 62.4438 30.5576 64.152V67.1887C30.5576 68.802 32.076 70.2255 33.879 70.2255C35.6821 70.2255 37.2005 68.8969 37.2005 67.1887V64.152C37.1056 62.4438 35.6821 61.1152 33.879 61.1152Z" fill="white"/>
<path d="M47.3547 61.2099H52.9538V60.166H47.3547C45.6465 60.166 44.3179 61.4946 44.3179 63.1079C44.3179 63.8671 44.6026 64.5314 45.0771 65.1008C45.6465 65.6702 46.4057 66.0498 47.2598 66.1447H49.917C51.0558 66.1447 51.9099 66.9988 51.9099 68.1375C51.9099 69.1814 50.9609 70.1304 49.917 70.1304H44.3179V71.1743H49.917C51.6252 71.1743 52.9538 69.8457 52.9538 68.1375C52.9538 67.3784 52.6691 66.7141 52.1946 66.1447C51.6252 65.5753 50.866 65.1957 50.0119 65.1008H47.3547C46.2159 65.1008 45.3618 64.1518 45.3618 63.1079C45.3618 62.1589 46.3108 61.2099 47.3547 61.2099Z" fill="white"/>
<path d="M16.847 76.4891C16.7521 76.4891 16.7521 76.4891 16.6572 76.2044C16.4674 75.7299 15.9929 75.4452 15.5184 75.4452C14.949 75.4452 14.5694 75.7299 14.5694 76.2044C14.5694 76.584 14.7592 76.8687 15.6133 77.1534C16.6572 77.533 17.4164 77.8176 17.4164 78.6717C17.4164 79.336 16.9419 80.0003 15.6133 80.0003C14.2847 80.0003 14 79.0513 14 78.9564C14 78.6717 14.1898 78.5768 14.3796 78.5768C14.5694 78.5768 14.5694 78.6717 14.5694 78.9564C14.5694 79.6207 15.3286 79.7156 15.6133 79.7156C15.9929 79.7156 16.7521 79.6207 16.7521 78.8615C16.7521 78.1972 16.0878 78.0074 15.4235 77.7227C14.6643 77.438 14.0949 77.2482 14.0949 76.4891C14.0949 75.635 14.8541 75.2554 15.5184 75.2554C15.8031 75.2554 15.9929 75.3503 16.2776 75.4452C16.3725 75.4452 16.3725 75.4452 16.4674 75.4452C16.4674 75.4452 16.6572 75.3503 16.7521 75.3503C16.847 75.3503 16.847 75.3503 16.847 75.4452C16.847 75.5401 16.9419 76.2044 16.9419 76.2993C16.9419 76.2993 17.0368 76.4891 16.847 76.4891Z" fill="white"/>
<path d="M18.9347 78.1971C18.8398 78.4818 18.2705 79.8104 18.2705 79.9053C18.2705 79.9053 18.1756 80.0002 17.9858 80.0002C17.796 80.0002 17.796 80.0002 17.796 79.9053C17.796 79.8104 17.796 79.8104 17.8909 79.6206C18.0807 79.3359 19.1245 76.9634 19.599 75.5399C19.6939 75.1603 19.7888 75.0654 20.0735 75.0654C20.2633 75.0654 20.2633 75.1603 20.3582 75.445C20.6429 76.2991 21.2123 77.6277 21.497 78.3869C21.5919 78.5767 21.9715 79.5257 21.9715 79.5257C22.0664 79.6206 22.0664 79.6206 22.2562 79.7155L22.3511 79.8104C22.3511 79.9053 22.2562 79.9053 22.1613 79.9053C22.0664 79.9053 21.5919 79.9053 21.5919 79.9053C21.4021 79.9053 21.4021 79.8104 21.4021 79.7155C21.2123 79.241 21.2123 79.1461 20.8327 78.1971H18.9347ZM19.9786 75.7297L19.1245 77.9124H20.7378L19.9786 75.7297Z" fill="white"/>
<path d="M23.8695 79.1461C23.8695 79.5257 23.8695 79.5257 23.9644 79.6206C24.0593 79.7155 24.1542 79.7155 24.1542 79.8104C24.1542 79.9053 24.0593 79.9053 24.0593 79.9053H23.4899C23.3001 79.9053 23.3001 79.9053 23.3001 79.7155C23.3001 79.6206 23.3001 79.3359 23.3001 79.241C23.3001 78.5767 23.3001 78.3869 23.3001 76.2042C23.3001 75.445 23.3001 75.445 23.1103 75.445C23.1103 75.445 23.0154 75.445 22.9205 75.445C22.8256 75.445 22.7307 75.445 22.7307 75.2552C22.7307 75.0654 22.9205 75.0654 22.9205 75.0654C23.0154 75.0654 23.4899 75.0654 23.5848 75.0654C23.7746 75.0654 24.5338 75.0654 24.7236 75.0654C25.293 75.0654 26.242 75.1603 26.242 76.2042C26.242 77.1532 25.5777 77.6277 24.4389 77.6277C24.4389 77.6277 23.7746 77.6277 23.6797 77.6277C23.8695 77.9124 23.8695 78.9563 23.8695 79.1461ZM23.8695 77.343C23.8695 77.4379 24.4389 77.5328 24.5338 77.5328C24.8185 77.5328 25.8624 77.5328 25.8624 76.4889C25.8624 75.5399 24.8185 75.5399 24.6287 75.5399C23.9644 75.5399 23.9644 75.5399 23.9644 75.7297L23.8695 77.343Z" fill="white"/>
<path d="M27.9502 79.1461C27.9502 79.5257 27.9502 79.5257 28.0451 79.6206C28.14 79.7155 28.2349 79.7155 28.2349 79.8104C28.2349 79.9053 28.2349 79.9053 28.14 79.9053H27.5706C27.3808 79.9053 27.3808 79.9053 27.3808 79.7155C27.3808 79.6206 27.3808 79.3359 27.3808 79.241C27.3808 78.5767 27.3808 78.3869 27.3808 76.2042C27.3808 75.445 27.3808 75.445 27.191 75.445C27.191 75.445 27.0961 75.445 27.0012 75.445C26.9063 75.445 26.8114 75.445 26.8114 75.2552C26.8114 75.0654 27.0012 75.0654 27.0012 75.0654C27.0961 75.0654 27.5706 75.0654 27.6655 75.0654C27.8553 75.0654 28.6145 75.0654 28.8043 75.0654C29.3737 75.0654 30.3227 75.1603 30.3227 76.2042C30.3227 77.1532 29.6584 77.6277 28.5196 77.6277C28.4247 77.6277 27.8553 77.6277 27.7604 77.6277C27.9502 77.9124 27.9502 78.9563 27.9502 79.1461ZM27.9502 77.343C27.9502 77.4379 28.5196 77.5328 28.6145 77.5328C28.8992 77.5328 29.9431 77.5328 29.9431 76.4889C29.9431 75.5399 28.8992 75.5399 28.7094 75.5399C28.0451 75.5399 28.0451 75.5399 28.0451 75.7297L27.9502 77.343Z" fill="white"/>
<path d="M33.5492 80C31.7462 80 31.1768 78.5765 31.1768 77.5326C31.1768 76.204 32.1257 75.1602 33.5492 75.1602C34.7829 75.1602 35.8268 76.0142 35.8268 77.5326C35.8268 78.8612 34.9727 80 33.5492 80ZM33.4543 75.4449C32.3155 75.4449 31.7462 76.5836 31.7462 77.5326C31.7462 78.4816 32.3155 79.6204 33.4543 79.6204C34.5931 79.6204 35.0676 78.5765 35.0676 77.5326C35.1625 76.4887 34.4982 75.4449 33.4543 75.4449Z" fill="white"/>
<path d="M37.4401 79.2411V79.336C37.4401 79.5258 37.4401 79.5258 37.535 79.6207C37.6299 79.7156 37.7248 79.7156 37.7248 79.8105C37.7248 80.0003 37.6299 80.0003 37.3452 80.0003C36.8707 80.0003 36.8707 80.0003 36.8707 79.8105V79.6207C36.9656 79.1462 36.9656 76.4891 36.9656 75.9197C36.9656 75.9197 36.9656 75.635 36.6809 75.635C36.586 75.635 36.4911 75.5401 36.4911 75.4452C36.4911 75.3503 36.586 75.2554 36.6809 75.2554C36.6809 75.2554 36.9656 75.2554 37.0605 75.2554C37.3452 75.2554 37.4401 75.2554 37.8197 75.2554C37.9146 75.2554 38.2942 75.2554 38.3891 75.2554C39.1483 75.2554 40.0024 75.4452 40.0024 76.3942C40.0024 76.7738 39.8126 77.438 38.7687 77.6278C39.1483 78.1023 39.433 78.6717 39.8126 79.1462C40.0024 79.4309 40.1922 79.6207 40.382 79.7156C40.6667 79.8105 40.6667 79.8105 40.6667 79.9054C40.6667 80.0952 40.0973 80.0952 40.0024 80.0952C39.7177 80.0952 39.7177 80.0003 39.5279 79.8105C39.2432 79.5258 38.5789 78.387 38.1044 77.7227C37.9146 77.7227 37.6299 77.7227 37.4401 77.7227V79.2411ZM37.4401 77.2483C37.4401 77.3431 37.6299 77.3431 37.8197 77.3431C38.3891 77.3431 39.3381 77.3431 39.3381 76.3942C39.3381 75.4452 38.5789 75.4452 38.0095 75.4452C37.535 75.4452 37.535 75.4452 37.535 75.635V77.2483H37.4401Z" fill="white"/>
<path d="M43.5137 80C41.7106 80 41.1412 78.5765 41.1412 77.5326C41.1412 76.204 42.0902 75.1602 43.5137 75.1602C44.7473 75.1602 45.7912 76.0142 45.7912 77.5326C45.7912 78.8612 44.9371 80 43.5137 80ZM43.4188 75.4449C42.28 75.4449 41.7106 76.5836 41.7106 77.5326C41.7106 78.4816 42.28 79.6204 43.4188 79.6204C44.5575 79.6204 45.032 78.5765 45.032 77.5326C45.1269 76.4887 44.5575 75.4449 43.4188 75.4449Z" fill="white"/>
<path d="M49.777 75.1603C49.9668 75.1603 50.0617 75.1603 50.1566 75.3501C50.1566 75.3501 51.4852 78.3869 51.675 78.7665C52.1495 77.6277 52.624 76.4889 53.0985 75.3501C53.1934 75.1603 53.1934 75.1603 53.478 75.1603H54.2372C54.3321 75.1603 54.427 75.1603 54.427 75.3501C54.427 75.5399 54.3321 75.5399 54.1423 75.5399C54.0474 75.5399 53.9525 75.6348 53.9525 75.7297C53.9525 76.2042 53.9525 78.7665 53.9525 79.3359C53.9525 79.5257 53.9525 79.6206 54.1423 79.6206C54.3321 79.7155 54.3321 79.7155 54.3321 79.8104C54.3321 80.0002 54.2372 80.0002 54.0474 80.0002H53.5729C53.478 80.0002 53.3831 80.0002 53.3831 79.8104V79.5257C53.3831 79.3359 53.3831 77.0583 53.3831 76.6787V75.8246C53.1933 76.2042 52.5291 77.8175 52.3393 78.1971L51.9597 79.0512C51.9597 79.1461 51.7699 79.4308 51.7699 79.5257C51.675 79.6206 51.5801 79.6206 51.4852 79.6206C51.3903 79.6206 51.2954 79.5257 51.2954 79.5257C51.2005 79.3359 50.2515 77.2481 50.0617 76.7736L49.9668 76.1093C49.777 75.7297 49.777 75.7297 49.777 75.7297V79.7155C49.777 79.9053 49.777 80.0002 49.3974 80.0002C49.3025 80.0002 49.2076 80.0002 49.2076 79.8104C49.2076 79.6206 49.2076 78.7665 49.2076 78.4818C49.2076 77.9124 49.3025 76.8685 49.3025 75.8246C49.3025 75.5399 49.3025 75.445 49.0178 75.445C48.828 75.445 48.7331 75.445 48.7331 75.2552C48.7331 75.1603 48.828 75.0654 48.9229 75.0654H49.777V75.1603Z" fill="white"/>
<path d="M55.9454 75.2554C56.0403 75.2554 56.2301 75.2554 56.2301 75.4452L56.1352 75.7299C56.1352 76.1095 56.1352 78.6717 56.1352 79.336C56.1352 79.5258 56.2301 79.6207 56.2301 79.6207C56.4199 79.7156 56.4199 79.7156 56.4199 79.8105C56.4199 79.9054 56.325 80.0003 56.2301 80.0003H55.9454C55.5658 80.0003 55.4709 80.0003 55.4709 79.9054C55.4709 79.8105 55.4709 79.6207 55.4709 79.5258C55.4709 79.2411 55.4709 77.9125 55.4709 77.6278V76.2044C55.4709 75.7299 55.4709 75.7299 55.376 75.635C55.376 75.635 55.2811 75.635 55.0913 75.635C54.9965 75.635 54.9016 75.635 54.9016 75.4452C54.9016 75.3503 54.9965 75.2554 55.0913 75.2554H55.9454Z" fill="white"/>
<path d="M58.6975 77.9124C58.223 76.9634 57.8434 76.2991 57.4638 75.8246C57.3689 75.6348 57.274 75.5399 56.9893 75.5399H56.8944C56.7995 75.5399 56.7995 75.445 56.7995 75.3501C56.7995 75.2552 56.7995 75.2552 56.8944 75.2552C56.9893 75.2552 57.3689 75.1603 57.5587 75.1603C57.7485 75.1603 57.8434 75.2552 57.8434 75.2552C58.1281 75.7297 58.7924 76.8685 59.0771 77.4379C59.5516 76.7736 59.9312 75.9195 60.4057 75.1603C60.4057 75.0654 60.5006 75.0654 60.5955 75.0654C60.9751 75.0654 61.07 75.0654 61.07 75.2552C61.07 75.3501 61.07 75.3501 60.8802 75.445C60.6904 75.5399 59.6465 77.2481 59.2669 77.7226V79.3359C59.2669 79.4308 59.2669 79.4308 59.3618 79.4308C59.4567 79.4308 59.5516 79.5257 59.5516 79.6206C59.5516 79.7155 59.4567 79.8104 59.2669 79.8104H58.7924C58.6975 79.8104 58.6026 79.8104 58.6026 79.7155C58.6026 79.7155 58.6026 79.5257 58.6026 79.4308C58.6026 79.4308 58.6026 79.241 58.6026 79.1461L58.6975 77.9124Z" fill="white"/>
<path d="M62.5884 78.1971C62.4935 78.4818 61.9241 79.8104 61.9241 79.9053C61.9241 79.9053 61.8292 80.0002 61.6394 80.0002C61.4496 80.0002 61.4496 80.0002 61.4496 79.9053C61.4496 79.8104 61.4496 79.8104 61.5445 79.6206C61.7343 79.3359 62.7782 76.9634 63.2527 75.5399C63.3476 75.1603 63.4425 75.0654 63.7272 75.0654C63.917 75.0654 63.917 75.1603 64.0119 75.445C64.2966 76.2991 64.866 77.6277 65.1507 78.3869C65.2456 78.5767 65.6251 79.5257 65.6251 79.5257C65.72 79.6206 65.72 79.6206 65.9098 79.7155L66.0047 79.8104C66.0047 79.9053 65.9098 79.9053 65.8149 79.9053C65.72 79.9053 65.2455 79.9053 65.2455 79.9053C65.0558 79.9053 65.0558 79.8104 65.0558 79.7155C64.866 79.241 64.866 79.1461 64.4864 78.1971H62.5884ZM63.6323 75.7297L62.7782 77.9124H64.4864L63.6323 75.7297Z" fill="white"/>
<path d="M66.669 75.5398C66.5741 75.5398 66.4792 75.4449 66.4792 75.35C66.4792 75.1602 66.669 75.1602 66.669 75.1602C66.7639 75.1602 67.5231 75.1602 67.5231 75.1602C67.618 75.1602 67.7129 75.1602 67.7129 75.2551C67.8078 75.35 69.8007 78.1969 70.1803 78.7663C70.1803 76.1092 70.1803 75.5398 70.1803 75.5398C70.1803 75.4449 70.1803 75.35 70.1803 75.35C70.1803 75.2551 70.1803 75.1602 70.3701 75.1602C71.0344 75.1602 71.0344 75.1602 71.0344 75.35C71.0344 75.4449 71.0344 75.4449 70.8446 75.5398C70.7497 75.5398 70.6548 75.6347 70.6548 75.9194C70.6548 76.1092 70.6548 77.153 70.6548 77.4377C70.6548 77.8173 70.6548 79.4306 70.6548 79.8102C70.6548 80 70.465 80.0949 70.3701 80.0949C70.2752 80.0949 70.1803 80 70.1803 79.9051C69.8956 79.3357 67.5231 75.9194 67.4282 75.8245C67.4282 76.299 67.4282 78.7663 67.4282 79.3357C67.4282 79.4306 67.4282 79.8102 67.4282 79.9051C67.4282 80.0949 67.3333 80.0949 67.0486 80.0949C66.8588 80.0949 66.8588 80 66.8588 79.9051C66.8588 79.8102 66.8588 79.4306 66.9537 79.3357C67.0486 78.8612 67.0486 77.0581 67.0486 76.0143C67.0486 75.9194 67.0486 75.5398 66.8588 75.5398H66.669Z" fill="white"/>
<path d="M74.1661 80C72.363 80 71.7936 78.5765 71.7936 77.5326C71.7936 76.204 72.7426 75.1602 74.1661 75.1602C75.3997 75.1602 76.4436 76.0142 76.4436 77.5326C76.4436 78.8612 75.5895 80 74.1661 80ZM74.0712 75.4449C72.9324 75.4449 72.363 76.5836 72.363 77.5326C72.363 78.4816 72.9324 79.6204 74.0712 79.6204C75.21 79.6204 75.6844 78.5765 75.6844 77.5326C75.7793 76.4887 75.1151 75.4449 74.0712 75.4449Z" fill="white"/>
<path d="M78.1518 75.1603C78.3416 75.1603 78.4365 75.1603 78.5314 75.3501C78.5314 75.3501 79.86 78.3869 80.0498 78.7665C80.5243 77.6277 80.9988 76.4889 81.4733 75.3501C81.5682 75.1603 81.5682 75.1603 81.8529 75.1603H82.6121C82.707 75.1603 82.8019 75.1603 82.8019 75.3501C82.8019 75.5399 82.707 75.5399 82.5172 75.5399C82.4223 75.5399 82.3274 75.6348 82.3274 75.7297C82.3274 76.2042 82.3274 78.7665 82.3274 79.3359C82.3274 79.5257 82.3274 79.6206 82.5172 79.6206C82.707 79.7155 82.707 79.7155 82.707 79.8104C82.707 80.0002 82.6121 80.0002 82.4223 80.0002H81.9478C81.8529 80.0002 81.758 80.0002 81.758 79.8104V79.5257C81.758 79.3359 81.758 77.0583 81.758 76.6787V75.8246C81.5682 76.2042 80.9039 77.8175 80.7141 78.1971L80.3345 79.0512C80.3345 79.1461 80.1447 79.4308 80.1447 79.5257C80.0498 79.6206 79.9549 79.6206 79.86 79.6206C79.7651 79.6206 79.6702 79.5257 79.6702 79.5257C79.5753 79.3359 78.6263 77.2481 78.4365 76.7736L78.1518 76.2042C77.962 75.8246 77.962 75.8246 77.962 75.8246V79.7155C77.962 79.9053 77.8671 80.0002 77.5824 80.0002C77.4875 80.0002 77.3926 80.0002 77.3926 79.8104C77.3926 79.6206 77.3926 78.7665 77.3926 78.4818C77.3926 77.9124 77.4875 76.8685 77.4875 75.8246C77.4875 75.5399 77.4875 75.445 77.2028 75.445C77.013 75.445 76.9182 75.445 76.9182 75.2552C76.9182 75.1603 77.013 75.0654 77.1079 75.0654H78.1518V75.1603Z" fill="white"/>
<path d="M85.8387 80C84.0356 80 83.4662 78.5765 83.4662 77.5326C83.4662 76.204 84.4152 75.1602 85.8387 75.1602C87.0724 75.1602 88.1162 76.0142 88.1162 77.5326C88.1162 78.8612 87.2622 80 85.8387 80ZM85.8387 75.4449C84.6999 75.4449 84.1305 76.5836 84.1305 77.5326C84.1305 78.4816 84.6999 79.6204 85.8387 79.6204C86.9775 79.6204 87.452 78.5765 87.452 77.5326C87.452 76.4887 86.8826 75.4449 85.8387 75.4449Z" fill="white"/>
<path d="M89.7295 79.2411V79.336C89.7295 79.5258 89.7295 79.5258 89.8244 79.6207C89.9193 79.7156 90.0142 79.7156 90.0142 79.8105C90.0142 80.0003 89.9193 80.0003 89.6346 80.0003C89.1601 80.0003 89.1601 80.0003 89.1601 79.8105V79.6207C89.255 79.1462 89.255 76.4891 89.255 75.9197C89.255 75.9197 89.255 75.635 88.9703 75.635C88.8754 75.635 88.7805 75.5401 88.7805 75.4452C88.7805 75.3503 88.8754 75.2554 88.9703 75.2554C89.0652 75.2554 89.255 75.2554 89.3499 75.2554C89.6346 75.2554 89.7295 75.2554 90.1091 75.2554C90.204 75.2554 90.5836 75.2554 90.6785 75.2554C91.4377 75.2554 92.2918 75.4452 92.2918 76.3942C92.2918 76.7738 92.102 77.438 91.0581 77.6278C91.4377 78.1023 91.7224 78.6717 92.102 79.1462C92.2918 79.4309 92.4816 79.6207 92.6714 79.7156C92.9561 79.8105 92.9561 79.8105 92.9561 79.9054C92.9561 80.0952 92.3867 80.0952 92.2918 80.0952C92.0071 80.0952 92.0071 80.0003 91.8173 79.8105C91.5326 79.5258 90.8683 78.387 90.3938 77.7227C90.204 77.7227 89.9193 77.7227 89.7295 77.7227V79.2411ZM89.8244 77.2483C89.8244 77.3431 90.0142 77.3431 90.204 77.3431C90.7734 77.3431 91.7224 77.3431 91.7224 76.3942C91.7224 75.4452 90.9632 75.4452 90.3938 75.4452C89.9193 75.4452 89.9193 75.4452 89.9193 75.635V77.2483H89.8244Z" fill="white"/>
<path d="M94.2847 75.2554C94.3796 75.2554 94.5694 75.2554 94.5694 75.4452C94.5694 75.4452 94.5694 75.7299 94.4745 75.7299C94.4745 76.1095 94.4745 78.6717 94.4745 79.336C94.4745 79.5258 94.5694 79.6207 94.5694 79.6207C94.7592 79.7156 94.7592 79.7156 94.7592 79.8105C94.7592 79.9054 94.6643 80.0003 94.5694 80.0003H94.2847C93.9051 80.0003 93.8102 80.0003 93.8102 79.9054C93.8102 79.8105 93.8102 79.6207 93.8102 79.5258C93.8102 79.2411 93.8102 77.9125 93.8102 77.6278V76.2044C93.8102 75.7299 93.8102 75.7299 93.7153 75.635C93.7153 75.635 93.6204 75.635 93.4306 75.635C93.3357 75.635 93.2408 75.635 93.2408 75.4452C93.2408 75.3503 93.3357 75.2554 93.4306 75.2554H94.2847Z" fill="white"/>
</g>
<defs>
<clipPath id="clip0">
<rect width="109.324" height="80" fill="white"/>
</clipPath>
</defs>
</svg>
