<svg width="120" height="20" viewBox="0 0 120 20" fill="none" xmlns="http://www.w3.org/2000/svg">
<g clip-path="url(#clip0)">
<path d="M101.596 5.49316H100.751V14.4603H107.887V13.6152H101.596V5.49316Z" fill="#BDBDBD"/>
<path d="M64.2723 14.5539C62.3005 14.5539 60.7042 13.0516 60.7042 11.2206V8.68538C60.7042 6.8544 62.3005 5.35205 64.2723 5.35205C66.2441 5.35205 67.8404 6.8544 67.8404 8.68538V11.2206C67.8404 13.0516 66.2441 14.5539 64.2723 14.5539ZM64.2723 6.24407C62.7699 6.24407 61.5493 7.37083 61.5493 8.73233V11.2675C61.5493 12.629 62.7699 13.7558 64.2723 13.7558C65.7746 13.7558 66.9953 12.629 66.9953 11.2675V8.73233C66.9953 7.32388 65.7746 6.24407 64.2723 6.24407Z" fill="#BDBDBD"/>
<path d="M115.681 6.29129H118.31V5.49316H115.681C113.333 5.49316 111.408 7.2772 111.221 9.57767H110.188V10.3758H111.221C111.408 12.6763 113.333 14.4603 115.681 14.4603H118.31V13.6622H115.681C113.803 13.6622 112.207 12.2537 112.019 10.3758H117.606V9.57767H112.019C112.207 7.69974 113.803 6.29129 115.681 6.29129Z" fill="#BDBDBD"/>
<path d="M54.4601 10.3754C55.3052 10.2345 56.0094 9.67115 56.338 8.91998C56.4789 8.59134 56.5728 8.2627 56.5728 7.93406C56.5728 7.55848 56.4789 7.22984 56.338 6.9012C56.0563 6.24392 55.446 5.72749 54.7887 5.5397C54.6948 5.5397 54.6479 5.49275 54.554 5.49275H54.507C54.3662 5.49275 54.2723 5.4458 54.1315 5.4458H54.0845H49.4366V9.57726H48.3568V10.4223H49.3897V14.4599H50.2347V10.4223H53.5211C53.662 10.6571 54.2254 11.596 55.8216 14.366L55.9155 14.5068L56.6667 14.1312L54.4601 10.3754ZM50.2347 6.29087H54.0845H54.1315C55.0235 6.29087 55.7747 7.04204 55.7747 7.93406C55.7747 7.93406 55.7747 7.93406 55.7747 7.98101C55.7747 8.07491 55.7747 8.16881 55.7277 8.2627C55.5869 9.01388 54.9296 9.57726 54.1315 9.57726H54.0845H50.2347V6.29087Z" fill="#BDBDBD"/>
<path d="M84.8357 5.49316H83.9906V14.5072H84.8357V5.49316Z" fill="#BDBDBD"/>
<path d="M43.7089 5.49316V9.57767H38.3568V5.49316H37.5587V9.57767H36.2911V10.3758H37.5587V14.4603H38.3568V10.3758H43.7089V14.4603H44.554V5.49316H43.7089Z" fill="#BDBDBD"/>
<path d="M32.77 14.4599H30.0939C27.6056 14.4599 25.5869 12.4411 25.5869 9.95284C25.5869 7.46458 27.6056 5.4458 30.0939 5.4458H32.77V6.24392H30.0939C28.0751 6.24392 26.4319 7.88712 26.4319 9.9059C26.4319 11.9247 28.0751 13.5679 30.0939 13.5679H32.77V14.4599Z" fill="#BDBDBD"/>
<path d="M96.2911 14.4599H93.615C91.1267 14.4599 89.108 12.4411 89.108 9.95284C89.108 7.46458 91.1267 5.4458 93.615 5.4458H96.2911V6.24392H93.615C91.5962 6.24392 89.953 7.88712 89.953 9.9059C89.953 11.9247 91.5962 13.5679 93.615 13.5679H96.2911V14.4599Z" fill="#BDBDBD"/>
<path d="M79.3897 14.4603V5.49316H78.5446V13.1927L73.0516 5.49316H72.1596V14.4603H72.9577V6.76077L78.4507 14.4603H79.3897Z" fill="#BDBDBD"/>
<path d="M10 20C4.46009 20 0 15.493 0 10C0 4.46009 4.46009 0 10 0C15.493 0 20 4.46009 20 10C20 15.493 15.493 20 10 20ZM10 0.375587C4.69484 0.375587 0.375587 4.69484 0.375587 10C0.375587 15.3052 4.69484 19.6244 10 19.6244C15.3052 19.6244 19.6244 15.3052 19.6244 10C19.6244 4.69484 15.3052 0.375587 10 0.375587Z" fill="#BDBDBD"/>
<path d="M10.7512 16.5264C10.5165 16.5264 10.2817 16.5733 10.2817 17.0897C10.2817 17.6062 10.5165 17.6531 10.7512 17.6531C10.986 17.6531 11.2207 17.6062 11.2207 17.0897C11.2207 16.5733 10.986 16.5264 10.7512 16.5264Z" fill="#BDBDBD"/>
<path d="M9.10803 16.5264C8.87329 16.5264 8.63855 16.5733 8.63855 17.0897C8.63855 17.6062 8.87329 17.6531 9.10803 17.6531C9.34278 17.6531 9.57752 17.6062 9.57752 17.0897C9.57752 16.5733 9.38972 16.5264 9.10803 16.5264Z" fill="#BDBDBD"/>
<path d="M10 1.08008C5.07044 1.08008 1.07983 5.07069 1.07983 10.0003C1.07983 14.9298 5.07044 18.9205 10 18.9205C14.9296 18.9205 18.9202 14.9298 18.9202 10.0003C18.9202 5.07069 14.9296 1.08008 10 1.08008ZM4.88265 12.5355C4.50706 11.9721 4.31927 11.3148 4.31927 10.6106C4.31927 10.0472 4.46012 9.43689 4.69486 8.87351C5.25824 7.55895 6.4789 6.33829 7.98124 5.68102L8.21598 5.58712L8.30988 6.47914L8.21598 6.52609C7.27702 7.04252 6.61974 7.84064 6.2911 8.68571C6.1972 9.01435 6.15026 9.34299 6.15026 9.62468C6.15026 10.1411 6.2911 10.6575 6.61974 11.0801C7.08922 11.7374 7.8404 12.1599 8.77937 12.2538H8.92021L9.108 14.0848L9.15495 14.2726H8.63852C6.94838 14.2726 5.63382 13.6622 4.88265 12.5355ZM8.12209 17.6059V17.7467H7.04228V17.3712C7.04228 17.0895 7.18312 16.9486 7.41786 16.9486H7.7465C7.79345 16.9486 7.8404 16.9017 7.88735 16.9017C7.93429 16.8547 7.93429 16.8078 7.93429 16.7608C7.93429 16.6669 7.88735 16.5261 7.7465 16.5261H7.04228V16.3852H7.7465C7.98124 16.3852 8.12209 16.573 8.12209 16.7608C8.12209 16.9486 7.98124 17.1364 7.7465 17.1364H7.41786C7.23007 17.1364 7.18312 17.2303 7.18312 17.3712V17.6059H8.12209ZM9.108 17.7937C8.82631 17.7937 8.45073 17.6998 8.45073 17.0895C8.45073 16.4791 8.77937 16.3852 9.108 16.3852C9.38969 16.3852 9.76528 16.4791 9.76528 17.0895C9.76528 17.6998 9.38969 17.7937 9.108 17.7937ZM9.2958 6.1505L9.108 5.30543L13.7089 4.13172L14.0376 4.03782L13.4742 5.54017L11.878 6.52609L9.2958 6.1505ZM10.7512 17.7937C10.4695 17.7937 10.0939 17.6998 10.0939 17.0895C10.0939 16.4791 10.4226 16.3852 10.7512 16.3852C11.0329 16.3852 11.4085 16.4791 11.4085 17.0895C11.4085 17.6998 11.0329 17.7937 10.7512 17.7937ZM12.3474 17.7937H11.7841V17.6528H12.3474C12.6761 17.6528 12.77 17.4651 12.77 17.2303H12.2066C11.831 17.2303 11.7841 16.9956 11.7841 16.8078C11.7841 16.6669 11.878 16.3852 12.3944 16.3852C12.8169 16.3852 13.0047 16.62 13.0047 17.0895C12.9578 17.559 12.77 17.7937 12.3474 17.7937ZM14.601 8.87351C14.601 10.7514 13.2864 12.5824 11.2676 13.6153L11.0329 13.7092L10.6104 11.9251L10.7512 11.8782C11.7371 11.4087 12.4883 10.5636 12.8169 9.67163V9.62468L14.2723 8.73266L14.554 8.54487V8.87351H14.601Z" fill="#BDBDBD"/>
<path d="M12.3475 16.5264C11.9249 16.5264 11.9249 16.7142 11.9249 16.7611C11.9249 16.902 11.9719 16.9958 12.2066 16.9958H12.8169C12.77 16.7142 12.723 16.5264 12.3475 16.5264Z" fill="#BDBDBD"/>
</g>
<defs>
<clipPath id="clip0">
<rect width="118.357" height="20" fill="white"/>
</clipPath>
</defs>
</svg>
