<svg id="Layer_1" data-name="Layer 1" xmlns="http://www.w3.org/2000/svg" viewBox="0 0 110 80"><defs><style>.cls-1{fill:#231f20;}</style></defs><title>logo_footer</title><path class="cls-1" d="M60.85,23.78c1.33-.21,2.58-.47,3.69-.75v-5.9a29.9,29.9,0,0,1-3.69,1.06Z"/><path class="cls-1" d="M59.1,11.32A14.26,14.26,0,0,1,55,12a14.2,14.2,0,0,1-4.1-.64v5.42a25,25,0,0,0,4.1.35,24.87,24.87,0,0,0,4.1-.35Z"/><path class="cls-1" d="M38.53,20.6l1.23.56a33.79,33.79,0,0,0,4,1.39V14.49l1.24.56a25.81,25.81,0,0,0,4.2,1.34V8.72l1.24.56a12.48,12.48,0,0,0,4.61.94,12.48,12.48,0,0,0,4.61-.94l1.24-.55v7.66a25.81,25.81,0,0,0,4.2-1.34l1.24-.56v8.07a34.8,34.8,0,0,0,3.95-1.4l1.23-.56V41.46a22.51,22.51,0,1,0-32.94,0Z"/><path class="cls-1" d="M50.9,18.51V24a36,36,0,0,0,4.1.24A36,36,0,0,0,59.1,24V18.51a26.19,26.19,0,0,1-4.1.33A26.19,26.19,0,0,1,50.9,18.51Z"/><path class="cls-1" d="M49.15,23.78V18.19a30.43,30.43,0,0,1-3.69-1.06V23C46.57,23.31,47.82,23.57,49.15,23.78Z"/><path class="cls-1" d="M55,51.36A25.24,25.24,0,1,1,80.24,26.12,25.27,25.27,0,0,1,55,51.36ZM55,1.83A24.29,24.29,0,1,0,79.29,26.12,24.32,24.32,0,0,0,55,1.83Z"/><path class="cls-1" d="M66.29,24.39v17.8H64.54V24.84c-1.12.27-2.36.52-3.69.72V40.45H59.1V25.78A38.58,38.58,0,0,1,55,26a38.58,38.58,0,0,1-4.1-.22V40.45H49.15V25.56c-1.33-.2-2.57-.45-3.69-.72V42.19H43.71V24.39c-1.45-.42-2.63-.83-3.43-1.13V43.13h0a22.49,22.49,0,0,0,29.46,0V23.26C68.92,23.56,67.74,24,66.29,24.39Z"/><polygon class="cls-1" points="58.77 60.74 62.53 60.74 62.53 70.42 63.51 70.42 63.51 60.74 67.25 60.74 67.25 59.76 58.77 59.76 58.77 60.74"/><polygon class="cls-1" points="87.63 59.76 86.62 59.76 86.62 70.42 95.1 70.42 95.1 69.44 87.63 69.44 87.63 59.76"/><path class="cls-1" d="M105.28,60.71h3.14v-1h-3.14A5.3,5.3,0,0,0,100,64.62H98.77v.95H100a5.3,5.3,0,0,0,5.29,4.85h3.14v-1h-3.14a4.37,4.37,0,0,1-4.34-3.9h6.64v-.95h-6.64A4.38,4.38,0,0,1,105.28,60.71Z"/><path class="cls-1" d="M79.75,59.76c-.09.08-.45.56-3.16,4.36l-.14.17-.13-.17c-2.71-3.8-3.08-4.28-3.16-4.36H72l3.94,5.51v5.15h1V65.27l4-5.51Z"/><path class="cls-1" d="M11,61.47a2.94,2.94,0,0,0-1.86-1.6,2.44,2.44,0,0,0-.26-.06H8.83a2.45,2.45,0,0,0-.46,0H2.79v4.88H1.58v1H2.79v4.81h1V65.62H8.42A2.92,2.92,0,0,0,11,63.89a2.84,2.84,0,0,0,.26-1.2A2.79,2.79,0,0,0,11,61.47Zm-.72,1.25a1.47,1.47,0,0,1,0,.36h0a1.93,1.93,0,0,1-1.89,1.54H3.77V60.75h4.6a1.94,1.94,0,0,1,1.93,1.94Z"/><path class="cls-1" d="M22.72,65.62h0l0,0a3,3,0,0,0,2.24-1.7,3,3,0,0,0,.25-1.2,2.93,2.93,0,0,0-.26-1.22,3,3,0,0,0-1.87-1.6,2,2,0,0,0-.26-.06h-.07a2.38,2.38,0,0,0-.46,0H16.69v4.88H15.48v1h1.21v4.81h1V65.62h3.91c.18.3.83,1.41,2.7,4.69l.11.18.87-.43Zm-5-4.87h4.59a1.93,1.93,0,0,1,1.93,1.94v0a2.19,2.19,0,0,1,0,.36h0a2,2,0,0,1-1.9,1.54H17.68Z"/><path class="cls-1" d="M34.67,70.53a4.1,4.1,0,0,1-4.24-4v-3a4.25,4.25,0,0,1,8.47,0v3A4.1,4.1,0,0,1,34.67,70.53Zm0-9.88a3.1,3.1,0,0,0-3.23,2.94v3a3.24,3.24,0,0,0,6.45,0v-3A3.1,3.1,0,0,0,34.67,60.65Z"/><path class="cls-1" d="M47.85,65.58h0Z"/><path class="cls-1" d="M50.51,64.6h0Z"/><path class="cls-1" d="M47.9,60.73h5.5v-1H47.9a2.91,2.91,0,0,0-2.21,4.85,3,3,0,0,0,2.16,1h2.63a1.94,1.94,0,0,1,1.94,1.91,2,2,0,0,1-2,2H45v1h5.51a3,3,0,0,0,2.94-2.93,2.89,2.89,0,0,0-.73-1.91,3,3,0,0,0-2.16-1H47.87a1.94,1.94,0,1,1,0-3.87Z"/><path class="cls-1" d="M18.33,75.64c-.12,0-.13,0-.2-.26A1.14,1.14,0,0,0,17,74.63c-.59,0-.92.31-.92.78s.22.62,1,.9c1.06.38,1.74.63,1.74,1.47,0,.64-.49,1.29-1.75,1.29a1.48,1.48,0,0,1-1.61-1,.33.33,0,0,1,.33-.35c.21,0,.22.08.23.36,0,.63.78.73,1,.73.41,0,1.15-.12,1.15-.85s-.64-.88-1.28-1.12-1.32-.5-1.32-1.23.73-1.2,1.43-1.2a2.22,2.22,0,0,1,.79.16.46.46,0,0,0,.19,0l.25,0a.15.15,0,0,1,.11.06,6.15,6.15,0,0,1,.12.86A.15.15,0,0,1,18.33,75.64Z"/><path class="cls-1" d="M20.44,77.36c-.11.28-.63,1.62-.64,1.63s-.05.07-.28.07-.22,0-.22-.09a.52.52,0,0,1,.11-.25,35.38,35.38,0,0,0,1.64-4c.1-.32.15-.49.47-.49s.2,0,.32.35c.32.8.8,2.09,1.13,2.88.07.17.45,1.07.49,1.13a.58.58,0,0,0,.24.18.14.14,0,0,1,.09.13c0,.11-.13.11-.17.11s-.52,0-.58,0-.18-.09-.21-.18c-.15-.48-.17-.53-.53-1.49Zm.95-2.42-.83,2.12h1.63Z"/><path class="cls-1" d="M25.24,78.25c0,.36,0,.4.12.49s.16.11.16.15a.13.13,0,0,1-.12.14h-.55c-.14,0-.19,0-.19-.15s0-.36,0-.44c0-.67,0-.86,0-3,0-.77,0-.77-.21-.77h-.14a.15.15,0,0,1-.16-.14c0-.15.16-.15.22-.15h.66l1.15,0c.55,0,1.49.13,1.49,1.11s-.64,1.39-1.78,1.39l-.7,0C25.25,77.07,25.24,78,25.24,78.25Zm0-1.78c0,.14.53.14.64.14.27,0,1.26,0,1.26-1,0-.88-1-.88-1.25-.88-.64,0-.65,0-.65.14Z"/><path class="cls-1" d="M29.26,78.25c0,.36,0,.4.12.49s.15.11.15.15a.13.13,0,0,1-.11.14h-.55c-.14,0-.2,0-.2-.15s0-.36,0-.44c0-.67,0-.86,0-3,0-.77,0-.77-.2-.77h-.14a.14.14,0,0,1-.16-.14c0-.15.16-.15.21-.15h.67l1.14,0c.56,0,1.49.13,1.49,1.11S31.1,76.91,30,76.91l-.7,0Zm0-1.78c0,.14.54.14.64.14.27,0,1.27,0,1.27-1,0-.88-1-.88-1.25-.88-.64,0-.65,0-.65.14Z"/><path class="cls-1" d="M34.68,79.07a2.35,2.35,0,0,1,0-4.69,2.15,2.15,0,0,1,2.24,2.35A2.26,2.26,0,0,1,34.68,79.07Zm-.07-4.41c-1.07,0-1.62,1.09-1.62,2a1.88,1.88,0,0,0,1.68,2.08c1.11,0,1.61-1.07,1.61-2S35.66,74.66,34.61,74.66Z"/><path class="cls-1" d="M38.51,78.36v.1c0,.15,0,.2.1.27s.16.1.16.15-.1.15-.38.15-.47,0-.47-.15,0-.18,0-.2c.05-.46.06-3.06.06-3.59a.28.28,0,0,0-.3-.3c-.11,0-.16-.07-.16-.16a.17.17,0,0,1,.16-.17H38l.74,0,.58,0c.77,0,1.55.21,1.55,1.09a1.21,1.21,0,0,1-1.16,1.23,16.43,16.43,0,0,0,1,1.47,1.58,1.58,0,0,0,.59.54c.25.11.29.13.29.18s-.54.17-.65.17c-.29,0-.32,0-.5-.28s-.94-1.37-1.36-2a3.49,3.49,0,0,1-.64,0Zm0-2c0,.11.18.11.33.11.57,0,1.46,0,1.46-.89s-.77-.94-1.31-.94-.48,0-.48.18Z"/><path class="cls-1" d="M44.46,79.07a2.35,2.35,0,0,1,0-4.69,2.14,2.14,0,0,1,2.23,2.35A2.25,2.25,0,0,1,44.46,79.07Zm-.07-4.41c-1.07,0-1.62,1.09-1.62,2a1.88,1.88,0,0,0,1.68,2.08c1.11,0,1.61-1.07,1.61-2S45.44,74.66,44.39,74.66Z"/><path class="cls-1" d="M50.57,74.4c.23,0,.32,0,.4.16s1.34,3,1.51,3.34c.48-1.1,1-2.2,1.43-3.3.08-.17.12-.2.33-.2H55c.1,0,.17,0,.17.14s-.07.14-.31.14-.15.08-.15.23c0,.49,0,3,0,3.5,0,.14,0,.26.14.32s.19.08.19.16-.13.15-.27.15h-.42c-.14,0-.22,0-.22-.2a2.85,2.85,0,0,1,0-.29c0-.23,0-2.38,0-2.79V75c-.14.34-.87,2-1,2.36l-.33.81a2.78,2.78,0,0,1-.2.42.55.55,0,0,1-.29.09.19.19,0,0,1-.18-.13c-.1-.16-1-2.25-1.2-2.67l-.25-.56c-.16-.35-.17-.39-.2-.41v4c0,.17,0,.24-.32.24-.12,0-.16,0-.16-.16s0-1.06,0-1.26c0-.55.06-1.6.06-2.62,0-.28,0-.35-.25-.36s-.26,0-.26-.14a.14.14,0,0,1,.15-.15Z"/><path class="cls-1" d="M56.56,74.41c.12,0,.28,0,.28.19s0,.23-.05.28c0,.36,0,2.92,0,3.55,0,.21.06.24.12.27s.16.1.16.16a.15.15,0,0,1-.15.17h-.28c-.4,0-.45,0-.45-.13s0-.29,0-.35c0-.27,0-1.6,0-1.9V75.24c0-.42,0-.46-.1-.52s-.06,0-.26,0-.17,0-.17-.14a.15.15,0,0,1,.16-.15Z"/><path class="cls-1" d="M59.32,77.05a13.71,13.71,0,0,0-1.17-2c-.12-.16-.21-.28-.42-.28l-.12,0a.13.13,0,0,1-.13-.15c0-.07,0-.11.12-.13s.48-.09.65-.09a.29.29,0,0,1,.25.13,21.09,21.09,0,0,1,1.18,2.17c.43-.66.87-1.47,1.28-2.22,0-.07.06-.07.23-.07.32,0,.42,0,.42.15s0,.1-.18.19A18.07,18.07,0,0,0,59.88,77V78.6s0,.12.09.13.18.06.18.16S60,79,59.92,79h-.5c-.1,0-.16,0-.16-.11s0-.22,0-.26,0-.21,0-.25Z"/><path class="cls-1" d="M63.12,77.36c-.1.28-.63,1.62-.63,1.63s-.06.07-.29.07S62,79,62,79a.52.52,0,0,1,.11-.25,31.89,31.89,0,0,0,1.64-4c.11-.32.15-.49.47-.49s.21,0,.33.35c.31.8.79,2.09,1.13,2.88.07.17.44,1.07.48,1.13a.7.7,0,0,0,.25.18.14.14,0,0,1,.08.13c0,.11-.13.11-.17.11s-.51,0-.58,0a.19.19,0,0,1-.2-.18c-.16-.48-.17-.53-.53-1.49Zm1-2.42-.83,2.12h1.62Z"/><path class="cls-1" d="M67.12,74.73a.15.15,0,0,1-.16-.16c0-.17.14-.17.22-.17H68a.36.36,0,0,1,.23.09c.1.1,2,2.92,2.39,3.46,0-2.62,0-3.17,0-3.18a1.39,1.39,0,0,1,0-.23c0-.06,0-.16.18-.16.62,0,.62,0,.62.16s0,.11-.18.15-.14.09-.14.38,0,1.23,0,1.47,0,1.91,0,2.28c0,.18-.16.24-.31.24s-.15,0-.2-.14c-.27-.53-2.61-3.94-2.66-4,0,.48,0,2.86,0,3.4,0,.08,0,.48,0,.57s-.11.23-.38.23a.13.13,0,0,1-.14-.15c0-.08,0-.48.06-.57,0-.5,0-2.18,0-3.24,0-.1,0-.43-.2-.43Z"/><path class="cls-1" d="M74.4,79.07a2.35,2.35,0,0,1,0-4.69,2.15,2.15,0,0,1,2.24,2.35A2.26,2.26,0,0,1,74.4,79.07Zm-.07-4.41c-1.07,0-1.62,1.09-1.62,2a1.88,1.88,0,0,0,1.68,2.08c1.11,0,1.61-1.07,1.61-2A1.87,1.87,0,0,0,74.33,74.66Z"/><path class="cls-1" d="M78.29,74.4c.22,0,.31,0,.4.16L80.2,77.9l1.43-3.3c.07-.17.11-.2.32-.2h.74c.1,0,.16,0,.16.14s-.07.14-.3.14-.15.08-.15.23c0,.49,0,3,0,3.5,0,.14,0,.26.14.32s.2.08.2.16-.14.15-.28.15h-.42c-.13,0-.22,0-.22-.2s0-.25,0-.29c0-.23,0-2.38,0-2.79V75c-.14.34-.86,2-1,2.36l-.34.81a4.5,4.5,0,0,1-.19.42.57.57,0,0,1-.29.09.22.22,0,0,1-.19-.13c-.09-.16-1-2.25-1.19-2.67l-.25-.56c-.16-.35-.17-.39-.2-.41v4c0,.17,0,.24-.33.24-.11,0-.15,0-.15-.16s0-1.06,0-1.26c0-.55.07-1.6.07-2.62,0-.28,0-.35-.25-.36s-.27,0-.27-.14a.14.14,0,0,1,.15-.15Z"/><path class="cls-1" d="M85.84,79.07a2.35,2.35,0,0,1,0-4.69,2.15,2.15,0,0,1,2.23,2.35A2.26,2.26,0,0,1,85.84,79.07Zm-.06-4.41c-1.08,0-1.63,1.09-1.63,2a1.88,1.88,0,0,0,1.69,2.08c1.1,0,1.6-1.07,1.6-2S86.82,74.66,85.78,74.66Z"/><path class="cls-1" d="M89.67,78.36v.1c0,.15,0,.2.11.27s.15.1.15.15-.1.15-.38.15-.47,0-.47-.15,0-.18,0-.2c.05-.46.06-3.06.06-3.59a.28.28,0,0,0-.3-.3c-.11,0-.16-.07-.16-.16a.17.17,0,0,1,.16-.17h.33l.74,0,.58,0c.77,0,1.55.21,1.55,1.09a1.21,1.21,0,0,1-1.16,1.23c.33.51.67,1,1,1.47a1.58,1.58,0,0,0,.59.54c.26.11.3.13.3.18s-.54.17-.66.17c-.29,0-.32,0-.5-.28s-.94-1.37-1.36-2a3.55,3.55,0,0,1-.64,0Zm0-2c0,.11.18.11.33.11.57,0,1.46,0,1.46-.89s-.77-.94-1.31-.94-.48,0-.48.18Z"/><path class="cls-1" d="M94.06,74.41c.12,0,.28,0,.28.19s0,.23,0,.28c0,.36,0,2.92,0,3.55,0,.21.06.24.12.27s.17.1.17.16a.15.15,0,0,1-.15.17H94.1c-.4,0-.44,0-.44-.13s0-.29,0-.35c0-.27,0-1.6,0-1.9V75.24c0-.42,0-.46-.1-.52s-.06,0-.25,0-.18,0-.18-.14a.15.15,0,0,1,.16-.15Z"/></svg>