<?xml version="1.0" encoding="utf-8"?>
<!-- Generator: Adobe Illustrator 25.0.0, SVG Export Plug-In . SVG Version: 6.00 Build 0)  -->
<svg version="1.1" id="Layer_1" xmlns="http://www.w3.org/2000/svg" xmlns:xlink="http://www.w3.org/1999/xlink" x="0px" y="0px"
	 viewBox="0 0 247 43" style="enable-background:new 0 0 247 43;" xml:space="preserve">
<style type="text/css">
	.st0{fill:none;}
	.st1{fill:#895820;}
</style>
<rect y="0" class="st0" width="246.3" height="42.7"/>
<path class="st1" d="M26.2,19.3c1.1-0.2,2.2-0.4,3.1-0.6v-5c-0.7,0.3-1.8,0.6-3.1,0.9V19.3z"/>
<path class="st1" d="M24.7,8.8c-0.8,0.3-2.1,0.5-3.5,0.5S18.6,9,17.7,8.8v4.6c1.1,0.2,2.2,0.3,3.5,0.3c1.2,0,2.4-0.1,3.5-0.3V8.8z"
	/>
<path class="st1" d="M7.4,16.6l1,0.5c0,0,1.3,0.6,3.3,1.2v-6.8l1,0.5c0,0,1.4,0.6,3.5,1.1V6.6l1,0.5c0,0,1.8,0.8,3.9,0.8
	S25,7.1,25,7.1l1-0.5v1.1V13c2.1-0.5,3.5-1.1,3.5-1.1l1-0.5v6.8c2-0.6,3.3-1.2,3.3-1.2l1-0.5v17.6c3.2-3.4,5.1-7.9,5.1-12.9
	c0-10.5-8.5-19-19-19s-19,8.5-19,19c0,5,1.9,9.5,5.1,12.9V16.6H7.4z"/>
<path class="st1" d="M17.8,14.9v4.6c1.1,0.1,2.3,0.2,3.5,0.2s2.4-0.1,3.5-0.2v-4.6c-1.1,0.2-2.2,0.3-3.5,0.3
	C20.1,15.1,18.9,15,17.8,14.9z"/>
<path class="st1" d="M16.4,19.3v-4.7C15,14.3,14,14,13.2,13.7v5C14.2,18.9,15.2,19.1,16.4,19.3z"/>
<path class="st1" d="M21.3,42.6C9.5,42.6,0,33,0,21.3C0,9.5,9.5,0,21.3,0C33,0,42.6,9.5,42.6,21.3C42.6,33,33,42.6,21.3,42.6z
	 M21.3,0.8C10,0.8,0.8,10,0.8,21.3S10,41.8,21.3,41.8s20.5-9.2,20.5-20.5S32.6,0.8,21.3,0.8z"/>
<path class="st1" d="M30.8,19.8v15h-1.5V20.2c-0.9,0.2-2,0.4-3.1,0.6v12.6h-1.5V21c-1.1,0.1-2.3,0.2-3.5,0.2s-2.4-0.1-3.5-0.2v12.4
	h-1.5V20.8c-1.1-0.2-2.2-0.4-3.1-0.6v14.6h-1.5v-15c-1.2-0.3-2.2-0.7-2.9-1v16.8c3.3,2.9,7.7,4.6,12.4,4.6c4.8,0,9.1-1.7,12.4-4.6
	V18.9C33,19.1,32,19.5,30.8,19.8z"/>
<path d="M157.1,9.8h6.8v17.4h1.7V9.8h6.7V8h-15.2V9.8z"/>
<path d="M209,8h-1.9v19.2h15.3v-1.8H209V8z"/>
<path d="M240.7,9.7h5.6V8h-5.6c-5,0-9.1,3.8-9.5,8.7H229v1.7h2.2c0.4,4.9,4.5,8.7,9.5,8.7h5.6v-1.7h-5.6c-4,0-7.4-3-7.8-7h11.9v-1.7
	h-11.9C233.3,12.8,236.6,9.7,240.7,9.7z"/>
<path d="M194.8,8c-0.2,0.2-0.8,1-5.7,7.8l-0.2,0.3l-0.2-0.3C183.8,9,183.2,8.1,183,8h-2.1l7.1,9.9v9.2h0.9h0.9v-9.2l7.1-9.9
	C196.9,8,194.8,8,194.8,8z"/>
<path d="M71.3,11.1c-0.6-1.4-1.9-2.5-3.3-2.9c-0.2,0-0.3-0.1-0.5-0.1h-0.1c-0.3,0-0.5-0.1-0.8-0.1h-0.1h-9.9v8.8h-2.2v1.8h2.2v8.6
	h1.8v-8.6h8.2h0.1h0.1c2.1,0,3.9-1.3,4.7-3.1c0.3-0.7,0.5-1.4,0.5-2.2C71.8,12.5,71.6,11.8,71.3,11.1z M70,13.4c0,0.2,0,0.4-0.1,0.6
	c-0.3,1.6-1.7,2.8-3.4,2.8h-0.1h-8.2v-7h8.2h0.1C68.5,9.8,70,11.4,70,13.4C70,13.3,70,13.3,70,13.4z"/>
<path d="M92.3,18.6c1.8-0.3,3.3-1.5,4-3.1c0.3-0.7,0.5-1.4,0.5-2.2s-0.2-1.5-0.5-2.2c-0.6-1.4-1.9-2.5-3.3-2.9
	c-0.2,0-0.3-0.1-0.5-0.1h-0.1c-0.3,0-0.5-0.1-0.8-0.1h-0.1h-9.9v8.8h-2.2v1.8h2.2v8.6h1.8v-8.6h7c0.3,0.5,1.5,2.5,4.9,8.4l0.2,0.3
	l1.6-0.8L92.3,18.6z M83.3,9.8h8.2h0.1c1.9,0,3.5,1.6,3.5,3.5c0,0,0,0,0,0.1c0,0.2,0,0.4-0.1,0.6c-0.3,1.6-1.7,2.8-3.4,2.8h-0.1
	h-8.2V9.8z"/>
<path d="M113.8,27.4c-4.2,0-7.6-3.2-7.6-7.1v-5.4c0-3.9,3.4-7.1,7.6-7.1s7.6,3.2,7.6,7.1v5.4C121.4,24.2,118,27.4,113.8,27.4z
	 M113.8,9.6c-3.2,0-5.8,2.4-5.8,5.3v5.4c0,2.9,2.6,5.3,5.8,5.3c3.2,0,5.8-2.4,5.8-5.3v-5.4C119.6,12,117,9.6,113.8,9.6z"/>
<path d="M137.6,9.8h9.9V8h-9.9c-2.9,0-5.3,2.4-5.3,5.2c0,1.3,0.5,2.5,1.3,3.5c1,1.1,2.3,1.7,3.9,1.8h4.7c1.9,0,3.5,1.6,3.5,3.4
	c0,1.9-1.6,3.5-3.5,3.5h-9.9v1.8h9.9c2.9,0,5.3-2.4,5.3-5.3c0-1.3-0.5-2.5-1.3-3.4c-1-1.1-2.3-1.7-3.9-1.8h-4.7
	c-1.9,0-3.5-1.6-3.5-3.5C134,11.4,135.6,9.8,137.6,9.8z"/>
<path d="M99,34.1c0.4,0,0.6,0.3,0.6,0.6c0,0.1-0.3,0.7-0.3,0.8c-0.5,2-1.5,3.9-4.2,5.3c-0.6,0.3-1.9,0.9-2.4,0.9c0,0-0.3,0-0.3-0.1
	c0,0,0.1-0.1,0.6-0.3c4-1.7,5.3-5.4,5.3-6.3c-1,0-4,0.3-4.4,0.5c-0.2,0-0.4,0.1-0.5,0.2c-0.2,0.1-0.4,0.2-0.5,0.2s-0.3-0.1-0.3-0.4
	c0-0.6,0.4-0.7,0.9-0.7c1.3,0,2.2,0,4.6-0.2C98.4,34.3,98.6,34.1,99,34.1z M100.7,34.3c-0.6,0-1.1-0.5-1.1-1.1s0.5-1.1,1.1-1.1
	s1.1,0.5,1.1,1.1C101.8,33.8,101.3,34.3,100.7,34.3z M100.7,32.5c-0.4,0-0.8,0.3-0.8,0.7s0.3,0.8,0.8,0.8c0.4,0,0.8-0.3,0.8-0.8
	C101.4,32.8,101.1,32.5,100.7,32.5z"/>
<path d="M103.6,39c0-1.2-0.2-2.6-0.2-2.7c0-0.2-0.3-0.8-0.3-0.9c0-0.2,0.1-0.3,0.3-0.3c0.2,0,0.5,0.1,0.7,0.4
	c0.9-0.1,1.1-0.1,3.2-0.5c0.4,0,0.4-0.1,0.9-0.3c0.3-0.1,0.5-0.2,0.7-0.2c0.4,0,0.7,0.3,0.7,0.6c0,0.2,0,0.3-0.2,0.5
	c0,0-0.6,1.2-0.9,2.9c0.3,0.1,0.7,0.2,0.7,0.6c0,0,0,0.3-0.3,0.3c0,0-0.7,0-0.8,0c-0.3,0-2.9,0.1-3.7,0.3c0,0.2,0,0.3,0,0.4
	c0,0.2-0.1,0.4-0.4,0.4s-0.6-0.3-0.6-0.5v-1H103.6z M108.3,36c0-0.1,0-0.1,0-0.2c0-0.3-0.1-0.3-0.4-0.3c-0.9,0-3.1,0.4-3.7,0.6
	c0.1,0.5,0.2,2,0.3,3.1c1.6-0.2,2.5-0.3,3.3-0.4C107.9,38.3,108.3,36.4,108.3,36z"/>
<path d="M120.3,40c0,0.1,0,0.8-0.5,0.8c-0.3,0-0.4-0.2-0.8-0.8c-0.5-0.9-1.2-1.7-2.1-2.1c-0.7,0.8-1.5,1.7-3.2,2.6
	c-1.2,0.6-2.1,0.8-2.1,0.8c-0.1,0-0.2,0-0.2-0.1s0-0.1,0.3-0.2c1.1-0.5,1.8-0.8,3-1.8c1.8-1.5,2.4-3.1,2.6-3.7
	c0-0.1,0.2-0.4,0.2-0.5s-0.3-0.1-0.3-0.1c-0.6,0-2.4,0.3-2.6,0.4c-0.6,0.2-0.7,0.3-0.9,0.3c-0.2,0-0.3-0.1-0.3-0.3
	c0-0.5,0.4-0.6,0.9-0.6h0.9c0.1,0,2-0.1,2.1-0.2c0.1,0,0.3-0.2,0.4-0.3s0.3-0.1,0.4-0.1c0.3,0,0.6,0.3,0.6,0.6c0,0.2,0,0.2-0.4,0.8
	c0,0.1-0.2,0.5-0.2,0.5c-0.5,1.1-0.9,1.6-1.1,1.9C118.7,38,120.3,39.1,120.3,40z"/>
<path d="M127.1,39c-1.9,2.1-5,2.7-5.2,2.7c-0.1,0-0.4-0.1-0.4-0.2c0,0,0.4-0.2,0.5-0.2c2.4-0.7,3.8-2.2,4.6-3
	c-0.7-0.5-0.8-0.6-1.2-0.8c-0.1,0-0.1-0.1-0.1-0.1c0-0.1,0.1-0.1,0.1-0.1c0.2,0,0.9,0.2,1.6,0.5c1.3-1.6,1.5-2.4,1.5-2.5
	s-0.1-0.1-0.2-0.1c-0.3,0-1.3,0.3-1.5,0.3c-0.1,0-0.3,0-0.5-0.2c-1,1.4-2.6,2.5-3.5,2.5c-0.1,0-0.3,0-0.3-0.1c0,0,0.6-0.3,0.7-0.5
	c1.6-1.2,2.6-2.8,2.8-3.3c0.1-0.3,0.1-0.5,0.4-0.5s0.6,0.2,0.6,0.6c0,0.2-0.2,0.4-0.2,0.5s-0.3,0.3-0.3,0.4c0,0.1,0.1,0.2,0.3,0.2
	c0.3,0,0.8-0.1,1.6-0.4c0.4-0.1,0.7-0.2,0.8-0.2c0.4,0,0.6,0.2,0.6,0.5c0,0.2,0,0.3-0.3,0.6c-0.2,0.2-0.5,0.8-0.6,1
	c-0.5,0.9-0.9,1.4-1.2,1.7c0.4,0.3,1.1,0.8,1.1,1.4c0,0.1,0,0.4-0.4,0.4c-0.3,0-0.3-0.1-0.7-0.6C127.4,39.1,127.3,39,127.1,39
	L127.1,39z"/>
<path d="M136.5,37.8c0,0.5,0,2.7,0,3.1c0,0.2,0,0.9-0.4,0.9s-0.7-0.6-0.7-1c0-0.1,0.2-0.7,0.2-0.8c0.1-0.7,0.2-3.1,0.2-3.6
	c0-0.4,0-0.5-0.1-0.7c-0.5,0.5-1.6,1.5-3.8,2.1c-0.3,0.1-0.6,0.1-0.6,0.1c-0.1,0-0.1,0-0.1-0.1c0,0,1.1-0.6,1.4-0.7
	c2.3-1.2,3.8-3.2,3.9-3.7c0.1-0.3,0.2-0.7,0.7-0.7c0.3,0,0.6,0.2,0.6,0.5c0,0.6-0.6,1.1-1.7,2.2c0.3,0.1,0.7,0.2,0.7,0.5
	c0,0.1-0.1,0.4-0.1,0.4v1.5H136.5z"/>
<path d="M139.4,41.5c0-0.1,0-0.1,0.2-0.2c2.3-1.5,2.5-3.9,2.5-5.5c0-0.1,0-0.4,0-0.5s0-0.3,0.3-0.3s0.7,0.2,0.7,0.6
	c0,0.1,0,0.3,0,0.4c0,1.2-0.5,2.6-0.5,2.6c-0.6,1.6-1.7,2.3-2.3,2.7c-0.1,0.1-0.6,0.3-0.7,0.3C139.6,41.6,139.4,41.6,139.4,41.5z
	 M144.5,36.1c0-0.1,0-1.3,0-1.3s-0.1-0.3-0.1-0.4c0-0.2,0.1-0.3,0.4-0.3s0.7,0.2,0.7,0.5c0,0.1-0.1,0.7-0.1,0.9
	c-0.1,1.3-0.2,2.4-0.2,2.9c0,0.3,0,0.5,0.4,0.5c0.3,0,1.8-0.6,3.6-3c0.1-0.1,0.5-0.8,0.6-0.8c0,0,0.3,0,0.3,0.2c0,0.4-1,1.9-1.7,2.7
	c-1.4,1.6-3,2.2-3.3,2.2c-0.2,0-0.6-0.1-0.6-0.6c0-0.1,0.1-0.6,0.1-0.7C144.4,38.9,144.5,36.7,144.5,36.1z"/>
<path d="M150.7,39.6C150.6,39.6,150.6,39.6,150.7,39.6c-0.1-0.1,0.1-0.3,0.2-0.5c1.2-1.6,1.5-2.4,1.5-2.7c0-0.2,0.1-0.6,0.5-0.6
	c0.2,0,0.4,0.2,0.4,0.4C153.3,36.8,151.4,39.6,150.7,39.6z M155.2,34.7c0.1-0.1,0.2-0.4,0.4-0.4c0.3,0,0.6,0.3,0.6,0.6
	s-0.2,0.3-0.5,0.3h-1.6c0,0.2,0,0.7,0,0.9c0.3,0.4,0.6,0.6,1.4,1.3c0.4,0.3,0.4,0.3,0.4,0.4c0,0.2-0.5,0.4-0.6,0.4
	c-0.3,0-1-1-1.2-1.3c0,1.6,0,3.8,0,4.5c0,0.2,0,0.8-0.7,0.8c-0.1,0-0.3,0-0.3-0.3c0-0.1,0.1-1.1,0.1-1.3l0.1-4.7c0-0.3,0-0.3,0-0.7
	H152c-0.1,0-0.5,0.1-0.6,0.1s-0.3-0.1-0.3-0.2c0-0.1,0.1-0.5,0.3-0.5c0.1,0,0.3,0.1,0.4,0.1h1.6c0-0.5,0-1.3,0-1.8l-0.2-0.3
	c0-0.3,0.5-0.7,0.8-0.7c0.2,0,0.2,0.1,0.2,0.3c0,0,0,0.1,0,0.3s0,1.2-0.1,2.1h1.1V34.7z M156.7,33c0-0.3,0.4-0.8,0.8-0.8
	c0.3,0,0.3,0.4,0.3,0.6s-0.1,1.5-0.1,1.8c0,0.9-0.1,4.4-0.1,5c0,0.7,0,1.2,1.7,1.2c0.8,0,1.7-0.2,2.3-0.8c0.1-0.1,0.3-0.3,0.3-0.3
	c0.1,0,0.1,0.1,0.1,0.1c0,0.1-0.2,0.9-0.6,1.5c-0.3,0.4-0.6,0.6-1.6,0.6c-2.8,0-2.8-1.2-2.8-2.6c0-0.7,0.1-4.9,0.1-5.3
	c0-0.3,0-0.4,0-0.6C156.8,33.3,156.7,33.2,156.7,33z"/>
<path d="M165.9,34.4c0.2-0.2,0.3-0.3,0.5-0.3s0.5,0.2,0.5,0.4v0.1c-0.1,0.2-0.1,0.2-0.1,0.4c0,0.1,0.1,2.5,0.1,3
	c0,0.4,0,1.2-0.7,1.2c-0.3,0-0.8-0.4-0.8-0.6c0,0,0,0,0.1,0c0,0,0.3,0,0.4,0c0.3,0,0.3-0.1,0.3-0.7v-2.3c0-0.4,0-0.5,0-0.7h-0.1
	h-0.7c0,0.6,0,1.1,0,1.6v1.9c0,0.5,0,2.8,0,3.3c0,0.3,0,0.9-0.6,0.9c-0.3,0-0.3-0.3-0.3-0.4c0-0.4,0.1-2.4,0.1-2.9
	c0-1.5,0-1.8,0.1-4.4h-0.8c0,0.6,0,3,0,3.9c0,0.8-0.4,0.9-0.6,0.9c-0.1,0-0.3-0.1-0.3-0.3s0.1-1.3,0.1-1.5c0-0.3,0-0.8,0-1.6
	c0-0.2,0-1.1,0-1.1L163,35c0-0.2,0.4-0.6,0.6-0.6c0.1,0,0.3,0.1,0.3,0.3h0.8c0-0.1,0-0.7,0-0.8s0-0.5,0-0.6c0,0-0.2-0.2-0.2-0.3
	c0-0.2,0.5-0.7,0.8-0.7c0,0,0.3,0,0.3,0.3c0,0,0,0.3,0,0.4c0,0.3-0.1,1.3-0.1,1.7h0.4L165.9,34.4L165.9,34.4z M168.9,39.1
	c0-0.2,0.3-0.4,0.5-0.4s0.3,0.1,0.3,0.3c0,1-0.8,2.1-1.7,2.6c-0.8,0.5-1.6,0.6-1.8,0.6c0,0-0.2,0-0.2-0.1c0,0,0.4-0.2,0.6-0.3
	C167.7,41.3,168.5,40.4,168.9,39.1C168.9,39.2,168.9,39.2,168.9,39.1z M170.9,38.7c0,0.2-0.1,2.1-0.1,2.3c0,0.3,0,0.6,1,0.6
	c0.7,0,1.3-0.2,1.8-0.5c0.1,0,0.3-0.3,0.4-0.3s0.1,0.1,0.1,0.1c0,0.1,0,0.2,0,0.4c-0.2,1-0.6,1.2-1.4,1.2c-0.5,0-1.3-0.1-1.8-0.2
	c-0.5-0.2-0.6-0.4-0.6-0.9c0-0.3,0-2,0-2.3c0,0-0.1-0.2,0-0.3h-2.4c-0.1,0-0.5,0.1-0.6,0.1s-0.2,0-0.2-0.2c0-0.1,0.1-0.5,0.3-0.5
	c0.1,0,0.3,0.1,0.4,0.1c0.1,0,1.7,0,2,0v-0.4c0-0.3,0-0.9,0-1.4c-0.1-0.1-0.1-0.1-0.1-0.3c0-0.3,0.4-0.5,0.7-0.5
	c0.2,0,0.3,0.1,0.3,0.3c0,0.1,0,0.5,0,0.6c0,0.2,0,1.4-0.1,1.7h1.9c0.1-0.2,0.3-0.3,0.4-0.3c0.3,0,0.6,0.3,0.6,0.6
	c0,0.2-0.2,0.3-0.5,0.3h-2.1L170.9,38.7L170.9,38.7z M169,36.8c0,0,0.2-0.1,0.3-0.1c0,0,0.1,0,0.1,0.1c0,0.2-0.6,0.9-1.2,0.9
	c-0.2,0-0.5-0.1-0.5-0.4c0-0.2,0.1-0.4,0.3-0.4c0,0,0.2,0,0.3,0C168.6,36.9,168.8,36.9,169,36.8z M171.5,32.5
	c0.1-0.2,0.3-0.3,0.5-0.3c0.3,0,0.4,0.2,0.4,0.5v0.2c0,0.2,0,0.3,0,0.8c0,0.2,0.1,1.4,0.1,1.6c0,0.5-0.5,0.5-0.6,0.5
	c-0.3,0-0.3-0.2-0.3-0.4h-3c0,0.4-0.3,0.5-0.5,0.5s-0.2-0.2-0.2-0.3c0-0.2,0-1,0.1-1.2c0-0.4,0-1,0-1.3c-0.1-0.1-0.1-0.3-0.1-0.3
	c0-0.2,0.3-0.6,0.6-0.6c0.1,0,0.2,0,0.3,0.2L171.5,32.5L171.5,32.5z M171.6,33.8V33c0-0.1-0.1-0.1-0.1-0.1h-2.8
	c-0.1,0-0.1,0.1-0.1,0.2v0.7C168.6,33.8,171.6,33.8,171.6,33.8z M171.6,35v-0.8h-3.1v0.5c0,0,0,0.2,0,0.3H171.6z M172.4,36.9
	c-0.2,0.2-1,0.8-1.3,0.8c0,0-0.1,0-0.1-0.1c0-0.2,0.7-1.2,0.8-1.3s0.2-0.2,0.3-0.2c0.2,0,0.4,0.2,0.4,0.4
	C172.5,36.8,172.5,36.8,172.4,36.9z"/>
<path d="M183.6,33.6c0.3-0.3,0.4-0.4,0.6-0.4c0.3,0,0.7,0.2,0.7,0.6c0,0.2-0.3,1.2-0.6,1.7c0,0.1-0.1,0.3-0.3,0.3s-0.2-0.1-0.2-0.5
	c0-0.2,0-1,0-1.2h-7.3c-0.3,1.5-0.3,1.7-0.5,1.7s-0.2-0.2-0.2-0.2c-0.1-0.2-0.3-1.5-0.3-1.7c0-0.4,0.2-0.6,0.5-0.6
	c0.2,0,0.5,0.1,0.6,0.3h3c0-0.1,0-0.7-0.1-0.8s-0.3-0.2-0.3-0.3c0-0.4,0.5-0.8,0.8-0.8s0.4,0.2,0.4,0.5v0.3c0,0.3-0.1,0.6-0.1,1.1
	C180.3,33.6,183.6,33.6,183.6,33.6z M182.3,39.1c0.2-0.3,0.6-0.3,0.6-0.3c0.2,0,0.4,0.2,0.4,0.4v0.2c0,0.1,0,0.2,0,0.6
	c0,0.3,0.1,1.7,0.1,2c0,0.4-0.5,0.5-0.7,0.5c-0.3,0-0.3-0.2-0.3-0.5c0-0.1,0-0.1,0-0.2h-4.6v0.3c0,0.3-0.3,0.5-0.6,0.5
	s-0.3-0.2-0.3-0.3c0-0.3,0.1-2,0.1-2.4c0-0.1,0-0.3,0-0.4l-0.1-0.3c0.2-0.4,0.5-0.5,0.7-0.5c0.3,0,0.3,0.3,0.4,0.4h1.5
	c0-0.2,0.1-1.2,0.1-1.4h-1.2c0,0.2,0,0.5-0.5,0.5c-0.3,0-0.3-0.2-0.3-0.3c0-0.3,0-1.5,0-1.8c0-0.1,0-0.3,0-0.3l-0.1-0.3
	c0-0.1,0.3-0.4,0.5-0.4s0.3,0.1,0.4,0.3h3c0.1-0.2,0.3-0.2,0.5-0.2s0.5,0.1,0.5,0.4c0,0.1,0,0.1,0,0.2c0,0.1,0,0.1,0,0.5
	c0,0.2,0.1,1.3,0.1,1.6c0,0.4-0.4,0.5-0.6,0.5c-0.3,0-0.3-0.2-0.3-0.5h-1.2c-0.1,0.5-0.3,1.1-0.5,1.4h2.4L182.3,39.1L182.3,39.1z
	 M182.5,41.4v-0.2c0-0.2,0-1.2,0-1.4c0-0.1,0-0.2-0.2-0.2H178c-0.1,0-0.1,0.2-0.1,0.3v0.8c0,0.1,0,0.6,0,0.8L182.5,41.4L182.5,41.4z
	 M181.7,37.2c0-0.2,0-1.3,0-1.4c0-0.1-0.1-0.1-0.2-0.1h-3c-0.1,0-0.1,0.1-0.1,0.2v1c0,0,0,0.3,0,0.4L181.7,37.2L181.7,37.2z"/>
<path d="M191.3,34.8c0.5,0,0.5,0.7,0.5,0.9c0,1.7-2.5,4.7-3.7,4.7c-0.4,0-0.5-0.3-0.6-0.6c-0.1-0.2-0.2-0.4-0.3-0.6
	c-0.1-0.2-0.2-0.5-0.2-0.7c0-2.1,2-4.7,5.1-4.7c2,0,3.7,1.3,3.7,3.6c0,3.2-3,4.1-4.1,4.1c0,0-0.2,0-0.2-0.1l0.3-0.2
	c2.9-1.2,2.9-3.5,2.9-4c0-1.8-1.1-3.1-3-3.1c-2.2,0-4.1,2.3-4.1,4.3c0,0.3,0.1,0.9,0.3,0.9c0.8,0,3.1-2.6,3.1-4.1
	c0-0.1-0.1-0.4-0.1-0.5C191.1,34.9,191.2,34.8,191.3,34.8z"/>
<path d="M200.8,38.5c0.4,0.4,0.6,0.5,1.5,0.9c0.1,0,0.1,0.1,0.1,0.2c0,0.2-0.4,0.4-0.6,0.4c-0.3,0-0.9-0.8-1.1-0.9v0.6
	c0,0.3,0,1.8,0,2.1c0,0.4-0.2,0.6-0.5,0.6c-0.1,0-0.3,0-0.3-0.3c0-0.1,0.1-0.8,0.1-1c0-0.5,0-0.7,0.1-2.1c-0.9,1.6-2.3,2.3-2.7,2.3
	c-0.1,0-0.2,0-0.2-0.1c0,0,0.3-0.3,0.4-0.3c1.1-0.8,1.6-1.6,1.7-2c0.2-0.4,0.2-0.6,0.5-0.6c0.2,0,0.2,0.1,0.3,0.2v-0.4h-1.4
	c-0.1,0-0.5,0.1-0.6,0.1c-0.2,0-0.2-0.2-0.2-0.3s0.1-0.3,0.3-0.3c0.1,0,0.4,0,0.4,0h1.4c0-0.4,0-0.5,0-0.6c0,0,0,0,0-0.2
	s0.3-0.6,0.6-0.6c0.2,0,0.3,0.2,0.3,0.4c0,0,0,0.2,0,0.3s0,0.2,0,0.8h0.7c0.1-0.1,0.2-0.3,0.4-0.3s0.5,0.3,0.5,0.5s-0.3,0.2-0.4,0.2
	c-0.1,0-0.9,0-1.2,0L200.8,38.5L200.8,38.5z M205.1,33.4c0.2-0.3,0.4-0.4,0.6-0.4s0.6,0.3,0.6,0.6s-0.3,0.3-0.7,0.3
	c-0.3,0-2,0-2.4,0c0.4,0.4,1.1,1,3.4,1.5c0.1,0,0.4,0.1,0.4,0.1c0,0.1-0.8,0.6-1.2,0.6S204,35.5,203,34v0.3c0,0.3,0.1,1.7,0.1,2
	c0,0.6-0.5,0.6-0.6,0.6c-0.2,0-0.3-0.1-0.3-0.4c0-0.2,0.1-2.3,0.1-2.7h-0.5c0.3,0.1,0.3,0.4,0.3,0.4c0,0.6-2.6,2-3.8,2
	c-0.1,0-0.2,0-0.2-0.1s0-0.1,0.5-0.3s1.7-0.7,2.5-1.6c0.3-0.3,0.3-0.3,0.4-0.4h-1.7c-0.1,0-0.5,0.1-0.6,0.1c-0.2,0-0.2-0.2-0.2-0.3
	c0-0.2,0.1-0.4,0.3-0.4c0.1,0,0.3,0,0.4,0c0,0,2.3,0,2.5,0c0-0.1,0-0.8,0-0.9c-0.1-0.1-0.2-0.1-0.2-0.3s0.4-0.5,0.7-0.5
	s0.3,0.2,0.3,0.3c0,0.1,0,0.1,0,0.2c0,0.3-0.1,0.9-0.1,1.2h2.2V33.4z M206.6,37.7c0.1-0.2,0.3-0.4,0.5-0.4s0.6,0.3,0.6,0.6
	c0,0.2-0.3,0.2-0.5,0.2c-0.3,0-1.7,0-2.1,0c0.6,1.3,1.8,2.1,3.2,2.7c0.2,0.1,0.2,0.1,0.2,0.1c0,0.1-0.8,0.5-1.2,0.5
	s-1.6-0.8-2.3-2.7c0,0.5,0.1,2.8,0.1,3s0,0.7-0.6,0.7c-0.2,0-0.3,0-0.3-0.3c0-0.2,0.1-1.1,0.1-1.3c0-0.3,0-1.5,0-1.8
	c-0.6,1-1.2,1.6-2.4,2.2c-0.2,0.1-0.5,0.2-0.6,0.2c0,0-0.1,0-0.1-0.1s0.1-0.1,0.2-0.2c0.5-0.3,1.7-1.3,2.1-2.3
	c0.2-0.5,0.2-0.5,0.4-0.5c0.3,0,0.3,0.1,0.4,0.1V38h-0.9c-0.1,0-0.6,0.1-0.7,0.1c-0.1,0-0.2-0.1-0.2-0.3s0.1-0.4,0.3-0.4
	c0.1,0,0.7,0,0.8,0h0.6v-0.1c0-0.1,0-0.4,0-0.5c-0.1-0.1-0.1-0.1-0.1-0.2c0-0.2,0.3-0.6,0.6-0.6c0,0,0.3,0,0.3,0.4c0,0,0,0.3,0,0.4
	c0,0.3,0,0.5,0,0.7h1.6L206.6,37.7L206.6,37.7z"/>
</svg>
