<svg width="247" height="43" viewBox="0 0 247 43" fill="none" xmlns="http://www.w3.org/2000/svg">
<g clip-path="url(#clip0)">
<path d="M26.2 19.3C27.3 19.1 28.4 18.9 29.3 18.7V13.7C28.6 14 27.5 14.3 26.2 14.6V19.3Z" fill="white"/>
<path d="M24.7 8.8C23.9 9.1 22.6 9.3 21.2 9.3C19.8 9.3 18.6 9 17.7 8.8V13.4C18.8 13.6 19.9 13.7 21.2 13.7C22.4 13.7 23.6 13.6 24.7 13.4V8.8Z" fill="white"/>
<path d="M7.4 16.6L8.4 17.1C8.4 17.1 9.7 17.7 11.7 18.3V11.5L12.7 12C12.7 12 14.1 12.6 16.2 13.1V6.6L17.2 7.1C17.2 7.1 19 7.9 21.1 7.9C23.2 7.9 25 7.1 25 7.1L26 6.6V7.7V13C28.1 12.5 29.5 11.9 29.5 11.9L30.5 11.4V18.2C32.5 17.6 33.8 17 33.8 17L34.8 16.5V34.1C38 30.7 39.9 26.2 39.9 21.2C39.9 10.7 31.4 2.2 20.9 2.2C10.4 2.2 1.9 10.7 1.9 21.2C1.9 26.2 3.8 30.7 7 34.1V16.6H7.4Z" fill="white"/>
<path d="M17.8 14.9V19.5C18.9 19.6 20.1 19.7 21.3 19.7C22.5 19.7 23.7 19.6 24.8 19.5V14.9C23.7 15.1 22.6 15.2 21.3 15.2C20.1 15.1 18.9 15 17.8 14.9Z" fill="white"/>
<path d="M16.4 19.3V14.6C15 14.3 14 14 13.2 13.7V18.7C14.2 18.9 15.2 19.1 16.4 19.3Z" fill="white"/>
<path d="M21.3 42.6C9.5 42.6 0 33 0 21.3C0 9.5 9.5 0 21.3 0C33 0 42.6 9.5 42.6 21.3C42.6 33 33 42.6 21.3 42.6ZM21.3 0.8C10 0.8 0.8 10 0.8 21.3C0.8 32.6 10 41.8 21.3 41.8C32.6 41.8 41.8 32.6 41.8 21.3C41.8 10 32.6 0.8 21.3 0.8Z" fill="white"/>
<path d="M30.8 19.8V34.8H29.3V20.2C28.4 20.4 27.3 20.6 26.2 20.8V33.4H24.7V21C23.6 21.1 22.4 21.2 21.2 21.2C20 21.2 18.8 21.1 17.7 21V33.4H16.2V20.8C15.1 20.6 14 20.4 13.1 20.2V34.8H11.6V19.8C10.4 19.5 9.4 19.1 8.7 18.8V35.6C12 38.5 16.4 40.2 21.1 40.2C25.9 40.2 30.2 38.5 33.5 35.6V18.9C33 19.1 32 19.5 30.8 19.8Z" fill="white"/>
<path d="M157.1 9.8H163.9V27.2H165.6V9.8H172.3V8H157.1V9.8Z" fill="white"/>
<path d="M209 8H207.1V27.2H222.4V25.4H209V8Z" fill="white"/>
<path d="M240.7 9.7H246.3V8H240.7C235.7 8 231.6 11.8 231.2 16.7H229V18.4H231.2C231.6 23.3 235.7 27.1 240.7 27.1H246.3V25.4H240.7C236.7 25.4 233.3 22.4 232.9 18.4H244.8V16.7H232.9C233.3 12.8 236.6 9.7 240.7 9.7Z" fill="white"/>
<path d="M194.8 8C194.6 8.2 194 9 189.1 15.8L188.9 16.1L188.7 15.8C183.8 9 183.2 8.1 183 8H180.9L188 17.9V27.1H188.9H189.8V17.9L196.9 8H194.8Z" fill="white"/>
<path d="M71.3 11.1C70.7 9.7 69.4 8.6 68 8.2C67.8 8.2 67.7 8.1 67.5 8.1H67.4C67.1 8.1 66.9 8 66.6 8H66.5H56.6V16.8H54.4V18.6H56.6V27.2H58.4V18.6H66.6H66.7H66.8C68.9 18.6 70.7 17.3 71.5 15.5C71.8 14.8 72 14.1 72 13.3C71.8 12.5 71.6 11.8 71.3 11.1ZM70 13.4C70 13.6 70 13.8 69.9 14C69.6 15.6 68.2 16.8 66.5 16.8H66.4H58.2V9.8H66.4H66.5C68.5 9.8 70 11.4 70 13.4C70 13.3 70 13.3 70 13.4Z" fill="white"/>
<path d="M92.3 18.6C94.1 18.3 95.6 17.1 96.3 15.5C96.6 14.8 96.8 14.1 96.8 13.3C96.8 12.5 96.6 11.8 96.3 11.1C95.7 9.7 94.4 8.6 93 8.2C92.8 8.2 92.7 8.1 92.5 8.1H92.4C92.1 8.1 91.9 8 91.6 8H91.5H81.6V16.8H79.4V18.6H81.6V27.2H83.4V18.6H90.4C90.7 19.1 91.9 21.1 95.3 27L95.5 27.3L97.1 26.5L92.3 18.6ZM83.3 9.8H91.5H91.6C93.5 9.8 95.1 11.4 95.1 13.3C95.1 13.3 95.1 13.3 95.1 13.4C95.1 13.6 95.1 13.8 95 14C94.7 15.6 93.3 16.8 91.6 16.8H91.5H83.3V9.8Z" fill="white"/>
<path d="M113.8 27.4C109.6 27.4 106.2 24.2 106.2 20.3V14.9C106.2 11 109.6 7.8 113.8 7.8C118 7.8 121.4 11 121.4 14.9V20.3C121.4 24.2 118 27.4 113.8 27.4ZM113.8 9.6C110.6 9.6 108 12 108 14.9V20.3C108 23.2 110.6 25.6 113.8 25.6C117 25.6 119.6 23.2 119.6 20.3V14.9C119.6 12 117 9.6 113.8 9.6Z" fill="white"/>
<path d="M137.6 9.8H147.5V8H137.6C134.7 8 132.3 10.4 132.3 13.2C132.3 14.5 132.8 15.7 133.6 16.7C134.6 17.8 135.9 18.4 137.5 18.5H142.2C144.1 18.5 145.7 20.1 145.7 21.9C145.7 23.8 144.1 25.4 142.2 25.4H132.3V27.2H142.2C145.1 27.2 147.5 24.8 147.5 21.9C147.5 20.6 147 19.4 146.2 18.5C145.2 17.4 143.9 16.8 142.3 16.7H137.6C135.7 16.7 134.1 15.1 134.1 13.2C134 11.4 135.6 9.8 137.6 9.8Z" fill="white"/>
<path d="M99 34.1C99.4 34.1 99.6 34.4 99.6 34.7C99.6 34.8 99.3 35.4 99.3 35.5C98.8 37.5 97.8 39.4 95.1 40.8C94.5 41.1 93.2 41.7 92.7 41.7C92.7 41.7 92.4 41.7 92.4 41.6C92.4 41.6 92.5 41.5 93 41.3C97 39.6 98.3 35.9 98.3 35C97.3 35 94.3 35.3 93.9 35.5C93.7 35.5 93.5 35.6 93.4 35.7C93.2 35.8 93 35.9 92.9 35.9C92.8 35.9 92.6 35.8 92.6 35.5C92.6 34.9 93 34.8 93.5 34.8C94.8 34.8 95.7 34.8 98.1 34.6C98.4 34.3 98.6 34.1 99 34.1ZM100.7 34.3C100.1 34.3 99.6 33.8 99.6 33.2C99.6 32.6 100.1 32.1 100.7 32.1C101.3 32.1 101.8 32.6 101.8 33.2C101.8 33.8 101.3 34.3 100.7 34.3ZM100.7 32.5C100.3 32.5 99.9 32.8 99.9 33.2C99.9 33.6 100.2 34 100.7 34C101.1 34 101.5 33.7 101.5 33.2C101.4 32.8 101.1 32.5 100.7 32.5Z" fill="white"/>
<path d="M103.6 39C103.6 37.8 103.4 36.4 103.4 36.3C103.4 36.1 103.1 35.5 103.1 35.4C103.1 35.2 103.2 35.1 103.4 35.1C103.6 35.1 103.9 35.2 104.1 35.5C105 35.4 105.2 35.4 107.3 35C107.7 35 107.7 34.9 108.2 34.7C108.5 34.6 108.7 34.5 108.9 34.5C109.3 34.5 109.6 34.8 109.6 35.1C109.6 35.3 109.6 35.4 109.4 35.6C109.4 35.6 108.8 36.8 108.5 38.5C108.8 38.6 109.2 38.7 109.2 39.1C109.2 39.1 109.2 39.4 108.9 39.4C108.9 39.4 108.2 39.4 108.1 39.4C107.8 39.4 105.2 39.5 104.4 39.7C104.4 39.9 104.4 40 104.4 40.1C104.4 40.3 104.3 40.5 104 40.5C103.7 40.5 103.4 40.2 103.4 40V39H103.6ZM108.3 36C108.3 35.9 108.3 35.9 108.3 35.8C108.3 35.5 108.2 35.5 107.9 35.5C107 35.5 104.8 35.9 104.2 36.1C104.3 36.6 104.4 38.1 104.5 39.2C106.1 39 107 38.9 107.8 38.8C107.9 38.3 108.3 36.4 108.3 36Z" fill="white"/>
<path d="M120.3 40C120.3 40.1 120.3 40.8 119.8 40.8C119.5 40.8 119.4 40.6 119 40C118.5 39.1 117.8 38.3 116.9 37.9C116.2 38.7 115.4 39.6 113.7 40.5C112.5 41.1 111.6 41.3 111.6 41.3C111.5 41.3 111.4 41.3 111.4 41.2C111.4 41.1 111.4 41.1 111.7 41C112.8 40.5 113.5 40.2 114.7 39.2C116.5 37.7 117.1 36.1 117.3 35.5C117.3 35.4 117.5 35.1 117.5 35C117.5 34.9 117.2 34.9 117.2 34.9C116.6 34.9 114.8 35.2 114.6 35.3C114 35.5 113.9 35.6 113.7 35.6C113.5 35.6 113.4 35.5 113.4 35.3C113.4 34.8 113.8 34.7 114.3 34.7H115.2C115.3 34.7 117.2 34.6 117.3 34.5C117.4 34.5 117.6 34.3 117.7 34.2C117.8 34.1 118 34.1 118.1 34.1C118.4 34.1 118.7 34.4 118.7 34.7C118.7 34.9 118.7 34.9 118.3 35.5C118.3 35.6 118.1 36 118.1 36C117.6 37.1 117.2 37.6 117 37.9C118.7 38 120.3 39.1 120.3 40Z" fill="white"/>
<path d="M127.1 39C125.2 41.1 122.1 41.7 121.9 41.7C121.8 41.7 121.5 41.6 121.5 41.5C121.5 41.5 121.9 41.3 122 41.3C124.4 40.6 125.8 39.1 126.6 38.3C125.9 37.8 125.8 37.7 125.4 37.5C125.3 37.5 125.3 37.4 125.3 37.4C125.3 37.3 125.4 37.3 125.4 37.3C125.6 37.3 126.3 37.5 127 37.8C128.3 36.2 128.5 35.4 128.5 35.3C128.5 35.2 128.4 35.2 128.3 35.2C128 35.2 127 35.5 126.8 35.5C126.7 35.5 126.5 35.5 126.3 35.3C125.3 36.7 123.7 37.8 122.8 37.8C122.7 37.8 122.5 37.8 122.5 37.7C122.5 37.7 123.1 37.4 123.2 37.2C124.8 36 125.8 34.4 126 33.9C126.1 33.6 126.1 33.4 126.4 33.4C126.7 33.4 127 33.6 127 34C127 34.2 126.8 34.4 126.8 34.5C126.8 34.6 126.5 34.8 126.5 34.9C126.5 35 126.6 35.1 126.8 35.1C127.1 35.1 127.6 35 128.4 34.7C128.8 34.6 129.1 34.5 129.2 34.5C129.6 34.5 129.8 34.7 129.8 35C129.8 35.2 129.8 35.3 129.5 35.6C129.3 35.8 129 36.4 128.9 36.6C128.4 37.5 128 38 127.7 38.3C128.1 38.6 128.8 39.1 128.8 39.7C128.8 39.8 128.8 40.1 128.4 40.1C128.1 40.1 128.1 40 127.7 39.5C127.4 39.1 127.3 39 127.2 38.9L127.1 39Z" fill="white"/>
<path d="M136.5 37.8C136.5 38.3 136.5 40.5 136.5 40.9C136.5 41.1 136.5 41.8 136.1 41.8C135.7 41.8 135.4 41.2 135.4 40.8C135.4 40.7 135.6 40.1 135.6 40C135.7 39.3 135.8 36.9 135.8 36.4C135.8 36 135.8 35.9 135.7 35.7C135.2 36.2 134.1 37.2 131.9 37.8C131.6 37.9 131.3 37.9 131.3 37.9C131.2 37.9 131.2 37.9 131.2 37.8C131.2 37.8 132.3 37.2 132.6 37.1C134.9 35.9 136.4 33.9 136.5 33.4C136.6 33.1 136.7 32.7 137.2 32.7C137.5 32.7 137.8 32.9 137.8 33.2C137.8 33.8 137.2 34.3 136.1 35.4C136.4 35.5 136.8 35.6 136.8 35.9C136.8 36 136.7 36.3 136.7 36.3V37.8H136.5Z" fill="white"/>
<path d="M139.4 41.5C139.4 41.4 139.4 41.4 139.6 41.3C141.9 39.8 142.1 37.4 142.1 35.8C142.1 35.7 142.1 35.4 142.1 35.3C142.1 35.2 142.1 35 142.4 35C142.7 35 143.1 35.2 143.1 35.6C143.1 35.7 143.1 35.9 143.1 36C143.1 37.2 142.6 38.6 142.6 38.6C142 40.2 140.9 40.9 140.3 41.3C140.2 41.4 139.7 41.6 139.6 41.6C139.6 41.6 139.4 41.6 139.4 41.5ZM144.5 36.1C144.5 36 144.5 34.8 144.5 34.8C144.5 34.8 144.4 34.5 144.4 34.4C144.4 34.2 144.5 34.1 144.8 34.1C145.1 34.1 145.5 34.3 145.5 34.6C145.5 34.7 145.4 35.3 145.4 35.5C145.3 36.8 145.2 37.9 145.2 38.4C145.2 38.7 145.2 38.9 145.6 38.9C145.9 38.9 147.4 38.3 149.2 35.9C149.3 35.8 149.7 35.1 149.8 35.1C149.8 35.1 150.1 35.1 150.1 35.3C150.1 35.7 149.1 37.2 148.4 38C147 39.6 145.4 40.2 145.1 40.2C144.9 40.2 144.5 40.1 144.5 39.6C144.5 39.5 144.6 39 144.6 38.9C144.4 38.9 144.5 36.7 144.5 36.1Z" fill="white"/>
<path d="M150.7 39.6C150.6 39.6 150.6 39.6 150.7 39.6C150.6 39.5 150.8 39.3 150.9 39.1C152.1 37.5 152.4 36.7 152.4 36.4C152.4 36.2 152.5 35.8 152.9 35.8C153.1 35.8 153.3 36 153.3 36.2C153.3 36.8 151.4 39.6 150.7 39.6ZM155.2 34.7C155.3 34.6 155.4 34.3 155.6 34.3C155.9 34.3 156.2 34.6 156.2 34.9C156.2 35.2 156 35.2 155.7 35.2H154.1C154.1 35.4 154.1 35.9 154.1 36.1C154.4 36.5 154.7 36.7 155.5 37.4C155.9 37.7 155.9 37.7 155.9 37.8C155.9 38 155.4 38.2 155.3 38.2C155 38.2 154.3 37.2 154.1 36.9C154.1 38.5 154.1 40.7 154.1 41.4C154.1 41.6 154.1 42.2 153.4 42.2C153.3 42.2 153.1 42.2 153.1 41.9C153.1 41.8 153.2 40.8 153.2 40.6L153.3 35.9C153.3 35.6 153.3 35.6 153.3 35.2H152C151.9 35.2 151.5 35.3 151.4 35.3C151.3 35.3 151.1 35.2 151.1 35.1C151.1 35 151.2 34.6 151.4 34.6C151.5 34.6 151.7 34.7 151.8 34.7H153.4C153.4 34.2 153.4 33.4 153.4 32.9L153.2 32.6C153.2 32.3 153.7 31.9 154 31.9C154.2 31.9 154.2 32 154.2 32.2C154.2 32.2 154.2 32.3 154.2 32.5C154.2 32.7 154.2 33.7 154.1 34.6H155.2V34.7ZM156.7 33C156.7 32.7 157.1 32.2 157.5 32.2C157.8 32.2 157.8 32.6 157.8 32.8C157.8 33 157.7 34.3 157.7 34.6C157.7 35.5 157.6 39 157.6 39.6C157.6 40.3 157.6 40.8 159.3 40.8C160.1 40.8 161 40.6 161.6 40C161.7 39.9 161.9 39.7 161.9 39.7C162 39.7 162 39.8 162 39.8C162 39.9 161.8 40.7 161.4 41.3C161.1 41.7 160.8 41.9 159.8 41.9C157 41.9 157 40.7 157 39.3C157 38.6 157.1 34.4 157.1 34C157.1 33.7 157.1 33.6 157.1 33.4C156.8 33.3 156.7 33.2 156.7 33Z" fill="white"/>
<path d="M165.9 34.4C166.1 34.2 166.2 34.1 166.4 34.1C166.6 34.1 166.9 34.3 166.9 34.5V34.6C166.8 34.8 166.8 34.8 166.8 35C166.8 35.1 166.9 37.5 166.9 38C166.9 38.4 166.9 39.2 166.2 39.2C165.9 39.2 165.4 38.8 165.4 38.6C165.4 38.6 165.4 38.6 165.5 38.6C165.5 38.6 165.8 38.6 165.9 38.6C166.2 38.6 166.2 38.5 166.2 37.9V35.6C166.2 35.2 166.2 35.1 166.2 34.9H166.1H165.4C165.4 35.5 165.4 36 165.4 36.5V38.4C165.4 38.9 165.4 41.2 165.4 41.7C165.4 42 165.4 42.6 164.8 42.6C164.5 42.6 164.5 42.3 164.5 42.2C164.5 41.8 164.6 39.8 164.6 39.3C164.6 37.8 164.6 37.5 164.7 34.9H163.9C163.9 35.5 163.9 37.9 163.9 38.8C163.9 39.6 163.5 39.7 163.3 39.7C163.2 39.7 163 39.6 163 39.4C163 39.2 163.1 38.1 163.1 37.9C163.1 37.6 163.1 37.1 163.1 36.3C163.1 36.1 163.1 35.2 163.1 35.2L163 35C163 34.8 163.4 34.4 163.6 34.4C163.7 34.4 163.9 34.5 163.9 34.7H164.7C164.7 34.6 164.7 34 164.7 33.9C164.7 33.8 164.7 33.4 164.7 33.3C164.7 33.3 164.5 33.1 164.5 33C164.5 32.8 165 32.3 165.3 32.3C165.3 32.3 165.6 32.3 165.6 32.6C165.6 32.6 165.6 32.9 165.6 33C165.6 33.3 165.5 34.3 165.5 34.7H165.9V34.4ZM168.9 39.1C168.9 38.9 169.2 38.7 169.4 38.7C169.6 38.7 169.7 38.8 169.7 39C169.7 40 168.9 41.1 168 41.6C167.2 42.1 166.4 42.2 166.2 42.2C166.2 42.2 166 42.2 166 42.1C166 42.1 166.4 41.9 166.6 41.8C167.7 41.3 168.5 40.4 168.8 39.2C168.9 39.2 168.9 39.2 168.9 39.1ZM170.9 38.7C170.9 38.9 170.8 40.8 170.8 41C170.8 41.3 170.8 41.6 171.8 41.6C172.5 41.6 173.1 41.4 173.6 41.1C173.7 41.1 173.9 40.8 174 40.8C174.1 40.8 174.1 40.9 174.1 40.9C174.1 41 174.1 41.1 174.1 41.3C173.9 42.3 173.5 42.5 172.7 42.5C172.2 42.5 171.4 42.4 170.9 42.3C170.4 42.1 170.3 41.9 170.3 41.4C170.3 41.1 170.3 39.4 170.3 39.1C170.3 39.1 170.2 38.9 170.3 38.8H167.9C167.8 38.8 167.4 38.9 167.3 38.9C167.2 38.9 167.1 38.9 167.1 38.7C167.1 38.6 167.2 38.2 167.4 38.2C167.5 38.2 167.7 38.3 167.8 38.3C167.9 38.3 169.5 38.3 169.8 38.3V37.9C169.8 37.6 169.8 37 169.8 36.5C169.7 36.4 169.7 36.4 169.7 36.2C169.7 35.9 170.1 35.7 170.4 35.7C170.6 35.7 170.7 35.8 170.7 36C170.7 36.1 170.7 36.5 170.7 36.6C170.7 36.8 170.7 38 170.6 38.3H172.5C172.6 38.1 172.8 38 172.9 38C173.2 38 173.5 38.3 173.5 38.6C173.5 38.8 173.3 38.9 173 38.9H170.9V38.7ZM169 36.8C169 36.8 169.2 36.7 169.3 36.7C169.3 36.7 169.4 36.7 169.4 36.8C169.4 37 168.8 37.7 168.2 37.7C168 37.7 167.7 37.6 167.7 37.3C167.7 37.1 167.8 36.9 168 36.9C168 36.9 168.2 36.9 168.3 36.9C168.6 36.9 168.8 36.9 169 36.8ZM171.5 32.5C171.6 32.3 171.8 32.2 172 32.2C172.3 32.2 172.4 32.4 172.4 32.7V32.9C172.4 33.1 172.4 33.2 172.4 33.7C172.4 33.9 172.5 35.1 172.5 35.3C172.5 35.8 172 35.8 171.9 35.8C171.6 35.8 171.6 35.6 171.6 35.4H168.6C168.6 35.8 168.3 35.9 168.1 35.9C167.9 35.9 167.9 35.7 167.9 35.6C167.9 35.4 167.9 34.6 168 34.4C168 34 168 33.4 168 33.1C167.9 33 167.9 32.8 167.9 32.8C167.9 32.6 168.2 32.2 168.5 32.2C168.6 32.2 168.7 32.2 168.8 32.4H171.5V32.5ZM171.6 33.8V33C171.6 32.9 171.5 32.9 171.5 32.9H168.7C168.6 32.9 168.6 33 168.6 33.1V33.8H171.6ZM171.6 35V34.2H168.5V34.7C168.5 34.7 168.5 34.9 168.5 35H171.6ZM172.4 36.9C172.2 37.1 171.4 37.7 171.1 37.7C171.1 37.7 171 37.7 171 37.6C171 37.4 171.7 36.4 171.8 36.3C171.9 36.2 172 36.1 172.1 36.1C172.3 36.1 172.5 36.3 172.5 36.5C172.5 36.8 172.5 36.8 172.4 36.9Z" fill="white"/>
<path d="M183.6 33.6C183.9 33.3 184 33.2 184.2 33.2C184.5 33.2 184.9 33.4 184.9 33.8C184.9 34 184.6 35 184.3 35.5C184.3 35.6 184.2 35.8 184 35.8C183.8 35.8 183.8 35.7 183.8 35.3C183.8 35.1 183.8 34.3 183.8 34.1H176.5C176.2 35.6 176.2 35.8 176 35.8C175.8 35.8 175.8 35.6 175.8 35.6C175.7 35.4 175.5 34.1 175.5 33.9C175.5 33.5 175.7 33.3 176 33.3C176.2 33.3 176.5 33.4 176.6 33.6H179.6C179.6 33.5 179.6 32.9 179.5 32.8C179.4 32.7 179.2 32.6 179.2 32.5C179.2 32.1 179.7 31.7 180 31.7C180.3 31.7 180.4 31.9 180.4 32.2V32.5C180.4 32.8 180.3 33.1 180.3 33.6H183.6ZM182.3 39.1C182.5 38.8 182.9 38.8 182.9 38.8C183.1 38.8 183.3 39 183.3 39.2V39.4C183.3 39.5 183.3 39.6 183.3 40C183.3 40.3 183.4 41.7 183.4 42C183.4 42.4 182.9 42.5 182.7 42.5C182.4 42.5 182.4 42.3 182.4 42C182.4 41.9 182.4 41.9 182.4 41.8H177.8V42.1C177.8 42.4 177.5 42.6 177.2 42.6C176.9 42.6 176.9 42.4 176.9 42.3C176.9 42 177 40.3 177 39.9C177 39.8 177 39.6 177 39.5L176.9 39.2C177.1 38.8 177.4 38.7 177.6 38.7C177.9 38.7 177.9 39 178 39.1H179.5C179.5 38.9 179.6 37.9 179.6 37.7H178.4C178.4 37.9 178.4 38.2 177.9 38.2C177.6 38.2 177.6 38 177.6 37.9C177.6 37.6 177.6 36.4 177.6 36.1C177.6 36 177.6 35.8 177.6 35.8L177.5 35.5C177.5 35.4 177.8 35.1 178 35.1C178.2 35.1 178.3 35.2 178.4 35.4H181.4C181.5 35.2 181.7 35.2 181.9 35.2C182.1 35.2 182.4 35.3 182.4 35.6C182.4 35.7 182.4 35.7 182.4 35.8C182.4 35.9 182.4 35.9 182.4 36.3C182.4 36.5 182.5 37.6 182.5 37.9C182.5 38.3 182.1 38.4 181.9 38.4C181.6 38.4 181.6 38.2 181.6 37.9H180.4C180.3 38.4 180.1 39 179.9 39.3H182.3V39.1ZM182.5 41.4V41.2C182.5 41 182.5 40 182.5 39.8C182.5 39.7 182.5 39.6 182.3 39.6H178C177.9 39.6 177.9 39.8 177.9 39.9V40.7C177.9 40.8 177.9 41.3 177.9 41.5H182.5V41.4ZM181.7 37.2C181.7 37 181.7 35.9 181.7 35.8C181.7 35.7 181.6 35.7 181.5 35.7H178.5C178.4 35.7 178.4 35.8 178.4 35.9V36.9C178.4 36.9 178.4 37.2 178.4 37.3H181.7V37.2Z" fill="white"/>
<path d="M191.3 34.8C191.8 34.8 191.8 35.5 191.8 35.7C191.8 37.4 189.3 40.4 188.1 40.4C187.7 40.4 187.6 40.1 187.5 39.8C187.4 39.6 187.3 39.4 187.2 39.2C187.1 39 187 38.7 187 38.5C187 36.4 189 33.8 192.1 33.8C194.1 33.8 195.8 35.1 195.8 37.4C195.8 40.6 192.8 41.5 191.7 41.5C191.7 41.5 191.5 41.5 191.5 41.4L191.8 41.2C194.7 40 194.7 37.7 194.7 37.2C194.7 35.4 193.6 34.1 191.7 34.1C189.5 34.1 187.6 36.4 187.6 38.4C187.6 38.7 187.7 39.3 187.9 39.3C188.7 39.3 191 36.7 191 35.2C191 35.1 190.9 34.8 190.9 34.7C191.1 34.9 191.2 34.8 191.3 34.8Z" fill="white"/>
<path d="M200.8 38.5C201.2 38.9 201.4 39 202.3 39.4C202.4 39.4 202.4 39.5 202.4 39.6C202.4 39.8 202 40 201.8 40C201.5 40 200.9 39.2 200.7 39.1V39.7C200.7 40 200.7 41.5 200.7 41.8C200.7 42.2 200.5 42.4 200.2 42.4C200.1 42.4 199.9 42.4 199.9 42.1C199.9 42 200 41.3 200 41.1C200 40.6 200 40.4 200.1 39C199.2 40.6 197.8 41.3 197.4 41.3C197.3 41.3 197.2 41.3 197.2 41.2C197.2 41.2 197.5 40.9 197.6 40.9C198.7 40.1 199.2 39.3 199.3 38.9C199.5 38.5 199.5 38.3 199.8 38.3C200 38.3 200 38.4 200.1 38.5V38.1H198.7C198.6 38.1 198.2 38.2 198.1 38.2C197.9 38.2 197.9 38 197.9 37.9C197.9 37.8 198 37.6 198.2 37.6C198.3 37.6 198.6 37.6 198.6 37.6H200C200 37.2 200 37.1 200 37C200 37 200 37 200 36.8C200 36.6 200.3 36.2 200.6 36.2C200.8 36.2 200.9 36.4 200.9 36.6C200.9 36.6 200.9 36.8 200.9 36.9C200.9 37 200.9 37.1 200.9 37.7H201.6C201.7 37.6 201.8 37.4 202 37.4C202.2 37.4 202.5 37.7 202.5 37.9C202.5 38.1 202.2 38.1 202.1 38.1C202 38.1 201.2 38.1 200.9 38.1V38.5H200.8ZM205.1 33.4C205.3 33.1 205.5 33 205.7 33C205.9 33 206.3 33.3 206.3 33.6C206.3 33.9 206 33.9 205.6 33.9C205.3 33.9 203.6 33.9 203.2 33.9C203.6 34.3 204.3 34.9 206.6 35.4C206.7 35.4 207 35.5 207 35.5C207 35.6 206.2 36.1 205.8 36.1C205.4 36.1 204 35.5 203 34V34.3C203 34.6 203.1 36 203.1 36.3C203.1 36.9 202.6 36.9 202.5 36.9C202.3 36.9 202.2 36.8 202.2 36.5C202.2 36.3 202.3 34.2 202.3 33.8H201.8C202.1 33.9 202.1 34.2 202.1 34.2C202.1 34.8 199.5 36.2 198.3 36.2C198.2 36.2 198.1 36.2 198.1 36.1C198.1 36 198.1 36 198.6 35.8C199.1 35.6 200.3 35.1 201.1 34.2C201.4 33.9 201.4 33.9 201.5 33.8H199.8C199.7 33.8 199.3 33.9 199.2 33.9C199 33.9 199 33.7 199 33.6C199 33.4 199.1 33.2 199.3 33.2C199.4 33.2 199.6 33.2 199.7 33.2C199.7 33.2 202 33.2 202.2 33.2C202.2 33.1 202.2 32.4 202.2 32.3C202.1 32.2 202 32.2 202 32C202 31.8 202.4 31.5 202.7 31.5C203 31.5 203 31.7 203 31.8C203 31.9 203 31.9 203 32C203 32.3 202.9 32.9 202.9 33.2H205.1V33.4ZM206.6 37.7C206.7 37.5 206.9 37.3 207.1 37.3C207.3 37.3 207.7 37.6 207.7 37.9C207.7 38.1 207.4 38.1 207.2 38.1C206.9 38.1 205.5 38.1 205.1 38.1C205.7 39.4 206.9 40.2 208.3 40.8C208.5 40.9 208.5 40.9 208.5 40.9C208.5 41 207.7 41.4 207.3 41.4C206.9 41.4 205.7 40.6 205 38.7C205 39.2 205.1 41.5 205.1 41.7C205.1 41.9 205.1 42.4 204.5 42.4C204.3 42.4 204.2 42.4 204.2 42.1C204.2 41.9 204.3 41 204.3 40.8C204.3 40.5 204.3 39.3 204.3 39C203.7 40 203.1 40.6 201.9 41.2C201.7 41.3 201.4 41.4 201.3 41.4C201.3 41.4 201.2 41.4 201.2 41.3C201.2 41.2 201.3 41.2 201.4 41.1C201.9 40.8 203.1 39.8 203.5 38.8C203.7 38.3 203.7 38.3 203.9 38.3C204.2 38.3 204.2 38.4 204.3 38.4V38H203.4C203.3 38 202.8 38.1 202.7 38.1C202.6 38.1 202.5 38 202.5 37.8C202.5 37.6 202.6 37.4 202.8 37.4C202.9 37.4 203.5 37.4 203.6 37.4H204.2V37.3C204.2 37.2 204.2 36.9 204.2 36.8C204.1 36.7 204.1 36.7 204.1 36.6C204.1 36.4 204.4 36 204.7 36C204.7 36 205 36 205 36.4C205 36.4 205 36.7 205 36.8C205 37.1 205 37.3 205 37.5H206.6V37.7Z" fill="white"/>
</g>
<defs>
<clipPath id="clip0">
<rect width="246.3" height="42.7" fill="white"/>
</clipPath>
</defs>
</svg>
