<svg width="24" height="24" viewBox="0 0 24 24" fill="none" xmlns="http://www.w3.org/2000/svg">
<g clip-path="url(#clip0)">
<path d="M20.9375 9.34375C20.9375 4.19161 16.7459 0 11.5938 0C6.44161 0 2.25 4.19161 2.25 9.34375C2.25 12.1137 3.46196 14.6055 5.38298 16.3181L2.61124 23H20.5763L17.8045 16.3181C19.7255 14.6055 20.9375 12.1137 20.9375 9.34375ZM11.5938 1.4375C15.711 1.4375 19.1026 4.60105 19.4669 8.625H16.5734C16.2236 6.19007 14.124 4.3125 11.5938 4.3125C9.06351 4.3125 6.9639 6.19007 6.61406 8.625H3.72052C4.08487 4.60105 7.47651 1.4375 11.5938 1.4375ZM15.1875 9.34375C15.1875 11.3253 13.5753 12.9375 11.5938 12.9375C9.61216 12.9375 8 11.3253 8 9.34375C8 7.36216 9.61216 5.75 11.5938 5.75C13.5753 5.75 15.1875 7.36216 15.1875 9.34375ZM3.72052 10.0625H6.61406C6.9639 12.4974 9.06351 14.375 11.5938 14.375C14.124 14.375 16.2236 12.4974 16.5734 10.0625H19.467C19.0889 14.2374 15.4623 17.4635 11.1722 17.2387C7.24709 17.0315 4.07237 13.9482 3.72052 10.0625ZM16.6228 17.2209L18.4237 21.5625H4.76376L6.56475 17.2209C8.17255 18.2534 10.0013 18.7353 11.8586 18.6835C13.5712 18.6367 15.1977 18.136 16.6228 17.2209Z" fill="white"/>
<path d="M11.5938 7.1875C10.4047 7.1875 9.4375 8.15479 9.4375 9.34375C9.4375 10.5328 10.4047 11.5 11.5938 11.5C12.7828 11.5 13.75 10.5328 13.75 9.34375C13.75 8.15479 12.7828 7.1875 11.5938 7.1875ZM11.5938 10.0625C11.1974 10.0625 10.875 9.74007 10.875 9.34375C10.875 8.94743 11.1974 8.625 11.5938 8.625C11.9901 8.625 12.3125 8.94743 12.3125 9.34375C12.3125 9.74007 11.9901 10.0625 11.5938 10.0625Z" fill="white"/>
</g>
<defs>
<clipPath id="clip0">
<rect width="24" height="24" fill="white"/>
</clipPath>
</defs>
</svg>
