<svg width="11" height="20" viewBox="0 0 11 20" fill="none" xmlns="http://www.w3.org/2000/svg">
<path d="M7.04297 19.8633C6.94531 19.8672 6.88281 19.875 6.82031 19.875C5.48438 19.875 4.15234 19.8711 2.81641 19.8789C2.62891 19.8789 2.57812 19.8281 2.57812 19.6406C2.58203 16.5313 2.58203 13.418 2.58203 10.3086C2.58203 10.2266 2.58203 10.1445 2.58203 10.0391C1.85547 10.0391 1.14844 10.0391 0.429688 10.0391C0.429688 8.9297 0.429688 7.83985 0.429688 6.71876C0.503906 6.71876 0.574219 6.71876 0.640625 6.71876C1.22656 6.71876 1.8125 6.71485 2.39844 6.72267C2.54687 6.72267 2.58594 6.6797 2.58594 6.53517C2.57812 5.66407 2.57812 4.78907 2.58594 3.91798C2.58984 3.3086 2.6875 2.71485 2.96875 2.16407C3.37109 1.38673 4.00781 0.882822 4.8125 0.570322C5.46875 0.31251 6.16016 0.21876 6.85547 0.207041C7.98828 0.191416 9.12109 0.199229 10.2539 0.195322C10.3594 0.195322 10.4453 0.191416 10.4453 0.339854C10.4414 1.41407 10.4414 2.48829 10.4414 3.56251C10.4414 3.57423 10.4375 3.58595 10.4219 3.63673C10.3555 3.63673 10.2812 3.63673 10.207 3.63673C9.50391 3.63673 8.80078 3.63282 8.09766 3.63673C7.69141 3.63673 7.36328 3.80079 7.15625 4.15626C7.09375 4.26173 7.05469 4.39845 7.05469 4.52345C7.04297 5.18751 7.05469 5.85157 7.04688 6.51564C7.04688 6.67189 7.09375 6.71485 7.24609 6.71485C8.22266 6.70704 9.19922 6.71095 10.1758 6.71095C10.2539 6.71095 10.3281 6.71095 10.4609 6.71095C10.3242 7.82814 10.1914 8.92189 10.0547 10.0274C9.03906 10.0274 8.05078 10.0274 7.04297 10.0274C7.04297 13.3125 7.04297 16.5781 7.04297 19.8633Z" fill="white"/>
</svg>
