<svg width="22" height="17" viewBox="0 0 22 17" fill="none" xmlns="http://www.w3.org/2000/svg">
<path d="M20.7411 1.62478C19.6139 0.714356 15.6386 0 11 0C6.36139 0 2.3861 0.714356 1.25886 1.62478C0.222922 2.45996 0 6.23584 0 8.37891C0 10.522 0.222922 14.2979 1.25886 15.1331C2.3861 16.0435 6.36139 16.7578 11 16.7578C15.6386 16.7578 19.6139 16.0435 20.7411 15.133C21.7771 14.2979 22 10.522 22 8.37891C22 6.23584 21.7771 2.45996 20.7411 1.62478ZM14.3006 8.48229L9.19398 11.5304C9.15638 11.5519 9.11071 11.5532 9.07311 11.5317C9.03551 11.5103 9.01201 11.4699 9.01201 11.427V8.37891V5.33079C9.01201 5.28713 9.03551 5.24752 9.07311 5.22603C9.11071 5.20455 9.15638 5.20588 9.19398 5.22736L14.3006 8.27548C14.3368 8.29696 14.359 8.33589 14.359 8.37886C14.359 8.42054 14.3368 8.4608 14.3006 8.48229Z" fill="white"/>
</svg>
