<svg xmlns="http://www.w3.org/2000/svg" viewBox="0 0 456.69 52.06"><defs><style>.cls-1{opacity:0.5;}</style></defs><g id="Layer_2" data-name="Layer 2"><g id="Layer_1-2" data-name="Layer 1"><path d="M3.39,23.38c0-5.47,0-6.44-.08-7.57s-.39-1.76-1.67-2a8.07,8.07,0,0,0-1.33-.1c-.15,0-.31-.08-.31-.22s.2-.28.62-.28c1.76,0,4.1.11,4.41.11.86,0,3.11-.11,4.91-.11,4.87,0,6.62,1.48,7.24,2a5.82,5.82,0,0,1,1.95,4.18c0,5-4.06,8.34-9.59,8.34a7.58,7.58,0,0,1-.82,0c-.18,0-.42-.08-.42-.25s.24-.32,1-.32c3.78,0,6.75-2.48,6.75-5.71A7,7,0,0,0,13.91,16a7.25,7.25,0,0,0-5.33-1.76,5.6,5.6,0,0,0-1.68.21c-.23.08-.32.32-.32.67V29.55c0,3.37,0,6.14.19,7.61.13,1,.36,1.79,1.53,1.93.55.07,1.4.13,1.75.13s.31.11.31.22-.19.28-.62.28c-2.14,0-4.6-.11-4.79-.11s-2.57.11-3.74.11c-.42,0-.61-.07-.61-.28s.07-.22.3-.22a6.65,6.65,0,0,0,1.17-.13c.78-.14,1-.92,1.13-1.93.19-1.47.19-4.24.19-7.61Z"/><path d="M27,23.38c0-5.47,0-6.44-.07-7.57s-.4-1.76-1.68-2a8,8,0,0,0-1.32-.1c-.15,0-.32-.08-.32-.22s.2-.28.63-.28c1.75,0,4.2.11,4.39.11.45,0,3.4-.11,4.61-.11,2.46,0,5.06.21,7.12,1.54A6,6,0,0,1,43,19.53c0,2.59-1.21,5.18-4.71,8.09,3.2,3.68,5.85,6.81,8.11,9a8.25,8.25,0,0,0,4.75,2.53,10.77,10.77,0,0,0,1.52.1c.2,0,.35.11.35.22s-.24.28-.94.28H49.34a8.67,8.67,0,0,1-4.17-.67c-1.68-.81-3-2.52-5.26-5.14-1.64-1.93-3.48-4.29-4.24-5.2a.69.69,0,0,0-.51-.2l-4.8-.08a.24.24,0,0,0-.28.28v.84a74.67,74.67,0,0,0,.2,7.61c.12,1,.35,1.79,1.53,1.93.54.07,1.4.13,1.75.13s.31.11.31.22-.2.28-.64.28c-2.13,0-4.58-.11-4.78-.11,0,0-2.49.11-3.66.11-.43,0-.62-.07-.62-.28s.08-.22.31-.22a6.54,6.54,0,0,0,1.16-.13c.79-.14,1-.92,1.14-1.93.19-1.47.19-4.24.19-7.61Zm3.11,3.05a.45.45,0,0,0,.28.42,11.71,11.71,0,0,0,4.09.56,5.46,5.46,0,0,0,2.92-.66c1.36-.84,2.38-2.74,2.38-5.41,0-4.37-2.57-7-6.74-7a12.82,12.82,0,0,0-2.61.21.42.42,0,0,0-.32.42Z"/><path d="M56.35,23.38c0-5.47,0-6.44-.08-7.57s-.39-1.76-1.68-2a8,8,0,0,0-1.32-.1c-.16,0-.31-.08-.31-.22s.2-.28.62-.28c.9,0,1.94,0,2.82,0l1.58.07c.27,0,8,0,8.93,0a12.55,12.55,0,0,0,1.67-.17c.19,0,.36-.18.55-.18s.15.14.15.32-.2.66-.31,1.65c0,.34-.11,1.89-.2,2.31,0,.17-.11.39-.27.39s-.31-.18-.31-.46A3.51,3.51,0,0,0,68,15.88c-.28-.57-.67-1-2.77-1.19-.66-.07-4.91-.11-5.34-.11-.15,0-.22.11-.22.36v9.67c0,.25,0,.35.22.35.51,0,5.31,0,6.19-.07s1.48-.14,1.84-.49.43-.46.57-.46.21.07.21.28-.21.81-.32,2c-.07.69-.15,2-.15,2.24s0,.66-.27.66-.28-.13-.28-.31a3.39,3.39,0,0,0-.15-1.16c-.16-.49-.5-1.08-2-1.22-1.06-.11-4.91-.18-5.58-.18-.19,0-.26.1-.26.25v3.08c0,1.2-.05,5.26,0,6,.1,2.41.69,2.87,4.52,2.87A12.5,12.5,0,0,0,67.88,38c1-.39,1.48-1.08,1.75-2.53.08-.39.16-.53.35-.53s.24.29.24.53a30.1,30.1,0,0,1-.51,3.4c-.27.91-.58.91-2.1.91-2.93,0-5.07-.06-6.59-.1s-2.45-.11-3-.11c-.08,0-.73,0-1.55,0s-1.68.07-2.27.07c-.43,0-.62-.07-.62-.28s.08-.22.31-.22A6.65,6.65,0,0,0,55,39.09c.78-.14,1-.92,1.14-1.93.19-1.47.19-4.24.19-7.61Z"/><path d="M103.35,29.55c0,3.37,0,6.14.19,7.61.11,1,.36,1.79,1.52,1.93.55.07,1.41.13,1.75.13s.31.11.31.22-.19.28-.62.28c-2.14,0-4.59-.11-4.79-.11s-2.65.11-3.82.11c-.43,0-.62-.07-.62-.28s.08-.22.31-.22a6.54,6.54,0,0,0,1.16-.13c.78-.14,1-.92,1.13-1.93a71.13,71.13,0,0,0,.21-7.61V23.38c0-5.47,0-6.44-.09-7.57s-.47-1.79-1.33-2a5.79,5.79,0,0,0-1.2-.13c-.15,0-.3-.08-.3-.22s.19-.28.62-.28c1.28,0,3.73.11,3.93.11s2.65-.11,3.81-.11c.43,0,.62.07.62.28s-.15.22-.31.22a6.42,6.42,0,0,0-1,.1c-1,.18-1.36.77-1.44,2s-.07,2.1-.07,7.57Z"/><path d="M114.11,39.27c-.55-.25-.59-.39-.59-1.34,0-1.75.17-3.15.2-3.71,0-.39.12-.57.32-.57s.27.11.27.39a6,6,0,0,0,.11,1.3c.58,2.59,3.15,3.57,5.77,3.57,3.73,0,5.56-2.41,5.56-4.66,0-2.42-1.13-3.82-4.47-6.31l-1.75-1.3c-4.14-3.05-5.06-5.22-5.06-7.61,0-3.74,3.1-6.31,8.06-6.31a16.65,16.65,0,0,1,3.61.35,7.26,7.26,0,0,0,1.37.18c.31,0,.39.07.39.24s-.16,1.33-.16,3.72c0,.56-.08.8-.27.8s-.27-.17-.32-.45a5.45,5.45,0,0,0-.49-1.75c-.24-.39-1.29-1.86-4.88-1.86C119.1,14,117,15.46,117,18c0,2,1,3.27,4.76,5.9l1.08.76c4.61,3.27,5.7,5.44,5.7,8.25a7,7,0,0,1-3.32,5.82,11.11,11.11,0,0,1-5.88,1.47A13,13,0,0,1,114.11,39.27Z"/><path class="cls-1" d="M78.73,52.06s12.83-7,3.43-25S87.39,0,87.39,0,75.12,9.46,86.08,26.83,78.73,52.06,78.73,52.06Z"/><path d="M78.73,51.69s12.09-6.61,4.18-24.64,4.4-27,4.4-27S77,9.46,86.21,26.83,78.73,51.69,78.73,51.69Z"/><path d="M148.83,35.48l.08,0A24.56,24.56,0,0,0,156,29.13a24.76,24.76,0,0,0,3.78-8.19,51.9,51.9,0,0,0-10.2,1.41l-.23.12a3.52,3.52,0,0,1-.95.39,3.49,3.49,0,0,1-2.11-2.9,2.13,2.13,0,0,1,.23-1l.1-.2.12.18a2.93,2.93,0,0,0,2.35,1.58c.47,0,9.37-.75,10.52-1.08a2.89,2.89,0,0,0,.45-.27c.34-.23.51-.33.63-.33.37,0,2.21,1.77,2.21,2.28,0,.33-.35.53-.86.8s-.42.25-.71,1.05c-1.61,4.34-3.14,6.87-5.46,9A17.28,17.28,0,0,1,149,35.84l-.13,0Zm15.48-15.22a2.47,2.47,0,1,1,2.48-2.48A2.47,2.47,0,0,1,164.31,20.26Zm0-3.8a1.3,1.3,0,0,0,0,2.6,1.3,1.3,0,1,0,0-2.6Z"/><path d="M164.31,15.45A2.34,2.34,0,1,1,162,17.78a2.33,2.33,0,0,1,2.33-2.33m0,3.74a1.43,1.43,0,1,0,0-2.85,1.43,1.43,0,0,0,0,2.85m-3.57-.25c.27,0,2.08,1.71,2.08,2.16,0,.25-.27.42-.79.69s-.47.3-.77,1.12c-1.64,4.43-3.2,6.91-5.43,9A16.78,16.78,0,0,1,149,35.72l0-.17a24.8,24.8,0,0,0,7.16-6.35A25.13,25.13,0,0,0,160,20.8a52.45,52.45,0,0,0-10.4,1.44,8.51,8.51,0,0,1-1.14.49,3.45,3.45,0,0,1-2-2.77,1.92,1.92,0,0,1,.23-1,3,3,0,0,0,2.45,1.64c.35,0,9.37-.75,10.56-1.09.2-.05.87-.6,1-.6m3.59-3.74a2.59,2.59,0,0,0,0,5.18,2.59,2.59,0,1,0,0-5.18Zm0,3.74a1.18,1.18,0,1,1,1.18-1.19,1.18,1.18,0,0,1-1.18,1.19Zm-17.65-.46-.2.4a2.23,2.23,0,0,0-.25,1.08,3.65,3.65,0,0,0,2.24,3,3.3,3.3,0,0,0,1-.4l.23-.11a52.19,52.19,0,0,1,10-1.4,24.24,24.24,0,0,1-3.71,8,24.56,24.56,0,0,1-7.08,6.28l-.15.08,0,.17,0,.18,0,.27.26-.07A17.4,17.4,0,0,0,156,32.07c2.34-2.17,3.88-4.71,5.49-9.08.29-.77.29-.77.66-1s.92-.48.92-.91c0-.58-1.89-2.41-2.33-2.41-.16,0-.33.11-.7.36a2.18,2.18,0,0,1-.41.24c-1.14.34-10,1.09-10.49,1.09a2.81,2.81,0,0,1-2.24-1.52l-.24-.38Z"/><path d="M175,34.88c-.73,0-1.86-2.28-1.86-2.5a3,3,0,0,1,.32-.84c.06-.14.12-.25.13-.29a43.41,43.41,0,0,0,.22-6.29c0-5-.13-5.89-.19-6.05-.15-.38-.55-.57-1.95-.91l-.28-.07.25-.16a3.43,3.43,0,0,1,1.8-.74c.68,0,3,.71,3,1.49a4.84,4.84,0,0,1-.3,1l-.13.38c-.21,1.1-.43,9.15-.39,11.67,3.17-1.1,8.76-4.68,12.82-8.91l.08-.08.35.29-.06.09c-3.58,5.8-7,7.74-12.11,10.69a4.15,4.15,0,0,0-1.14,1A.66.66,0,0,1,175,34.88Z"/><path d="M173.39,17.16c.74,0,2.82.72,2.82,1.36a11.94,11.94,0,0,1-.42,1.36c-.22,1.17-.44,9.59-.39,11.88,3.09-1,8.79-4.59,13-9l.18.15c-3.57,5.77-6.87,7.66-12.1,10.65a4.57,4.57,0,0,0-1.14,1c-.2.2-.3.23-.42.23-.62,0-1.74-2.16-1.74-2.38a8.18,8.18,0,0,1,.45-1.1,56,56,0,0,0,.22-6.32c0-.94,0-5.55-.19-6.09s-.62-.65-2-1a3.32,3.32,0,0,1,1.74-.72m0-.25a3.56,3.56,0,0,0-1.87.76L171,18l.56.14c1.33.33,1.73.51,1.86.84,0,.11.18.89.18,6a40.12,40.12,0,0,1-.21,6.25,2.76,2.76,0,0,1-.12.28,2.75,2.75,0,0,0-.34.89c0,.3,1.18,2.63,2,2.63a.79.79,0,0,0,.6-.3,4,4,0,0,1,1.09-.93c5.17-3,8.58-4.92,12.18-10.74l.11-.18-.16-.14-.17-.15-.18-.15-.17.17c-4,4.14-9.43,7.66-12.61,8.82,0-2.7.19-10.41.4-11.48,0-.05.06-.19.12-.36a4.67,4.67,0,0,0,.3-1.05c0-.89-2.32-1.61-3.07-1.61Z"/><path d="M198.7,35.23a3.79,3.79,0,0,1-2.53-3.48,2.49,2.49,0,0,1,.07-.59l.06-.26.16.21a4.45,4.45,0,0,0,1.86,1.39c1.47,0,9.16-6.13,13.26-11.36l.08-.09.32.22,0,.1c-.55,1.39-2.95,6.36-10.85,12a11.21,11.21,0,0,0-1.67,1.42A1.06,1.06,0,0,1,198.7,35.23Zm.91-9.32c-.37,0-.61-.17-1.18-.59l-.08-.06a15.51,15.51,0,0,0-4.68-2.43l-.49-.17.52-.07a12.91,12.91,0,0,1,2.12-.18c3.17,0,4.59,1.25,4.59,2.48C200.41,25.51,200.1,25.91,199.61,25.91Zm2-5.43a1.57,1.57,0,0,1-1-.55,11.05,11.05,0,0,0-4.45-2.8l-.54-.17.54-.08a11.15,11.15,0,0,1,1.58-.12c3.08,0,4.74,1.37,4.74,2.65A1,1,0,0,1,201.6,20.48Z"/><path d="M197.75,16.88c3.18,0,4.61,1.42,4.61,2.53,0,.37-.17.94-.76.94a1.45,1.45,0,0,1-.9-.52A10.94,10.94,0,0,0,196.19,17a9.85,9.85,0,0,1,1.56-.13m13.93,4.34.15.1c-.84,2.13-3.69,6.87-10.8,12a10.51,10.51,0,0,0-1.69,1.44,1,1,0,0,1-.64.37,3.69,3.69,0,0,1-2.41-3.34,2.37,2.37,0,0,1,.08-.57,4.37,4.37,0,0,0,1.95,1.43c1.59,0,9.35-6.29,13.36-11.4m-15.86,1.32c3,0,4.46,1.14,4.46,2.35,0,.57-.27.89-.67.89s-.57-.17-1.19-.62a15.83,15.83,0,0,0-4.71-2.45,12.87,12.87,0,0,1,2.11-.17m1.93-5.91a11.12,11.12,0,0,0-1.59.13l-1.12.15,1.08.34A10.73,10.73,0,0,1,200.54,20a1.63,1.63,0,0,0,1.06.58,1.06,1.06,0,0,0,1-1.19c0-1.34-1.7-2.78-4.86-2.78Zm13.88,4.26-.14.18c-4.1,5.2-11.72,11.3-13.17,11.3A4.42,4.42,0,0,1,196.56,31l-.32-.42-.12.52a2.79,2.79,0,0,0-.08.63,3.86,3.86,0,0,0,2.66,3.59,1.18,1.18,0,0,0,.83-.46,10.33,10.33,0,0,1,1.64-1.4c7.92-5.68,10.34-10.68,10.89-12.08l.08-.18-.17-.12-.15-.1-.19-.12Zm-15.81,1.4a13.16,13.16,0,0,0-2.14.17l-1,.16,1,.33a15.49,15.49,0,0,1,4.65,2.42l.08.06c.58.41.84.6,1.25.6s.92-.45.92-1.14c0-1.3-1.45-2.6-4.71-2.6Z"/><path d="M213.9,34.31l.09,0c5.6-2.46,11.54-9.73,13-14.46a46.07,46.07,0,0,0-6.17,1.38l-.29.14a4,4,0,0,1-1.09.46,3.07,3.07,0,0,1-1.86-2.62,2.48,2.48,0,0,1,.23-1.13l.1-.19.12.18c.92,1.46,1.31,1.46,1.75,1.46.73,0,6.05-.53,7-1.1l.26-.18a2.54,2.54,0,0,1,.94-.53c.31,0,2.23,1.58,2.23,2.1,0,.35-.21.43-.92.7l-.12,0c-.13.05-.14.07-.44.64l-.08.13a32.86,32.86,0,0,1-3.15,5.23c3,1.35,7,4.24,7,6.65,0,.81-.37,1.29-1,1.29s-.92-.52-1.13-.86c-2-3.26-3.31-4.85-5.42-6.43-4.2,5.24-8.27,7-10.95,7.53l-.13,0Z"/><path d="M228,17.8c.27,0,2.11,1.56,2.11,2s-.17.33-1,.62c-.17.08-.2.13-.52.72a33.55,33.55,0,0,1-3.29,5.46c3,1.31,7.08,4.26,7.08,6.59,0,.67-.27,1.16-.86,1.16s-.8-.42-1-.79c-2-3.27-3.35-4.91-5.55-6.54-4.41,5.55-8.63,7.11-11,7.58l0-.2c5.75-2.53,11.8-10.11,13.16-14.72a46.48,46.48,0,0,0-6.39,1.41,9.59,9.59,0,0,1-1.34.6,3.05,3.05,0,0,1-1.74-2.51A2.19,2.19,0,0,1,218,18.1c.94,1.49,1.36,1.51,1.85,1.51.7,0,6.08-.52,7.09-1.11a6.25,6.25,0,0,1,1.14-.7m0-.25c-.19,0-.45.17-1,.56l-.25.17c-.94.55-6.26,1.08-7,1.08-.41,0-.76,0-1.64-1.39l-.24-.38-.2.4a2.52,2.52,0,0,0-.25,1.17,3.19,3.19,0,0,0,2,2.76,4,4,0,0,0,1.15-.48l.29-.14A45.36,45.36,0,0,1,226.84,20c-1.57,4.62-7.5,11.81-12.9,14.18l-.17.08,0,.18,0,.2,0,.27.26-.05c2.69-.55,6.76-2.29,10.95-7.49a20,20,0,0,1,5.3,6.33,1.48,1.48,0,0,0,1.23.91c.69,0,1.11-.54,1.11-1.41,0-2.42-4-5.31-6.95-6.69a32.33,32.33,0,0,0,3.07-5.13l.06-.11c.31-.57.32-.57.4-.61l.11,0c.73-.27,1-.37,1-.81s-2-2.23-2.36-2.23Z"/><path d="M256.1,37.06c-.87,0-.87-.58-.87-.89,0-1.7.05-5.2.1-6.94h-2.06c0,.73,0,2.61.1,4.13,0,1,.06,1.84.06,2.19a1.12,1.12,0,0,1-1.19,1.06c-.7,0-.8-.42-.8-.84s0-1.34.07-2.29.06-1.71.06-2a23.52,23.52,0,0,0-.3-4l-.05-.26,2.27,1.22,1.85,0,0-2.84h-9.66c0,1.41-.11,2.36-.16,2.84h2l.61-.72c.22-.25.35-.37.49-.37a.8.8,0,0,1,.48.23l.79.64a.69.69,0,0,1,.32.5c0,.33-.29.52-.81.87,0,.42.06,1.78.09,3.11s.08,2.48.08,2.91a1.12,1.12,0,0,1-1.24,1.11c-.55,0-.85-.34-.85-1s.1-2,.15-2.62c0-.83,0-2.26,0-3.11v-.74h-2.24a10.67,10.67,0,0,1-4.05,7.66l-.06,0-.33-.14.08-.12c2.39-3.49,2.81-7.14,2.81-13.51,0-2.69-.13-6.07-.22-6.85a6.58,6.58,0,0,0-.27-1.12l-.09-.24,2.75.92a.48.48,0,0,1,.41.44c0,.26-.09.33-.76.83,0,.44,0,1.44,0,2.44V20.9h2.13v-.12a24.08,24.08,0,0,0-.29-5.42l-.06-.23,2.32.77c.18.06.46.15.46.41s-.05.3-.65.81v.2a26.74,26.74,0,0,0,0,2.83c0,.48.12,1.75.12,2.19a1.16,1.16,0,0,1-1.22,1.11.74.74,0,0,1-.56-.15c-.2-.21-.19-.61-.16-1.56h-2.1c0,.32,0,2.66,0,3h9.64l-.07-3h-2.08a3.29,3.29,0,0,1,0,1,1.1,1.1,0,0,1-1.11.7.7.7,0,0,1-.77-.79c0-.32,0-1.2,0-2.05s0-1.58,0-1.84a7.36,7.36,0,0,0-.39-3.26l-.08-.22,2.56.73c.13,0,.42.14.42.42s0,.31-.75.85V18c0,1.34,0,1.73.06,2.86h2.1c0-.25,0-.64,0-1.1,0-1.05,0-2.49-.08-2.87a6.11,6.11,0,0,0-.39-1.71l-.09-.24,2.8.82c.1,0,.41.14.41.44s-.12.39-.75.79c0,1.21,0,3.62,0,5.93,0,1.38.15,6.81.24,10,.05,1.48.08,2.54.08,2.66A1.24,1.24,0,0,1,256.1,37.06Zm-16.6-.25a1.17,1.17,0,0,1-1.17-1.31c0-.2.06-.73.13-1.29s.12-1,.12-1.19c0-1.43-.3-2.26-1.88-2.58l-.1,0V30h.12c1.55,0,1.77-.33,2-.71a72.15,72.15,0,0,0,3.11-8l0-.09h.37v.14a53.86,53.86,0,0,1-1.39,7.28,13.53,13.53,0,0,0-.59,2.87,16.51,16.51,0,0,0,.31,1.86,14.15,14.15,0,0,1,.31,1.78C240.89,36.3,240.19,36.81,239.5,36.81Zm-.57-11.72c-.79,0-1-.48-1.46-1.64a4.84,4.84,0,0,0-1.25-1.89l-.05,0,.05-.35.13,0c2.28.47,3.64,1.5,3.64,2.75A1.06,1.06,0,0,1,238.93,25.09Zm1.71-6c-.75,0-.91-.4-1.39-1.58a4.85,4.85,0,0,0-1.34-1.87l-.08-.06.13-.27h.09c.61.08,3.65.59,3.65,2.58A1.08,1.08,0,0,1,240.64,19.07Z"/><path d="M243.54,15.15,246,16c.17,0,.32.13.32.32s-.07.25-.77.77c0,.75,0,2.63,0,3.94H248a25.5,25.5,0,0,0-.29-5.7l2.1.7c.15.05.37.12.37.29s0,.2-.64.75c0,.87-.07,2.1,0,3.1.05.49.12,1.76.12,2.18a1,1,0,0,1-1.09,1c-.64,0-.64-.17-.59-1.71h-2.36c0,.49,0,2.75,0,3.2h9.89l-.08-3.2H253.1a5.18,5.18,0,0,1,0,1,1,1,0,0,1-1,.62.58.58,0,0,1-.64-.67c0-.62.05-3.35.05-3.89a7.56,7.56,0,0,0-.4-3.3l2.33.67c.15.05.32.13.32.3s0,.22-.74.79a34.56,34.56,0,0,0,.05,3.84h2.35c0-.64,0-3.52-.1-4.11a6.1,6.1,0,0,0-.39-1.74l2.55.75c.22.07.32.17.32.32s-.07.3-.74.72c0,1.19-.05,3.64-.05,6,0,2,.32,12.31.32,12.71a1.13,1.13,0,0,1-1.24,1.27c-.74,0-.74-.45-.74-.77,0-1.66,0-5.31.1-7.07h-2.31c-.05,1,.15,5.53.15,6.45a1,1,0,0,1-1.06.94c-.6,0-.67-.32-.67-.72,0-.69.12-3.69.12-4.29a22.3,22.3,0,0,0-.3-4.06l2,1.09h2l0-3.1h-9.92c0,1.59-.12,2.6-.17,3.1h2.18l.65-.77c.17-.2.29-.32.39-.32a.63.63,0,0,1,.4.2l.79.64c.18.15.27.25.27.4s-.27.44-.79.79c0,1,.15,5.23.15,6.1a1,1,0,0,1-1.12,1c-.44,0-.71-.25-.71-.84s.1-2,.14-2.61c.06-.84.06-2.25.06-3.12V29.1h-2.48a10.6,10.6,0,0,1-4,7.69l-.12,0C243.51,33.37,244,30,244,23.16c0-2.71-.12-6.08-.22-6.87a5.47,5.47,0,0,0-.27-1.14m-5.5.27c1.11.15,3.54.77,3.54,2.46a1,1,0,0,1-.94,1.06c-.67,0-.8-.32-1.29-1.53A5,5,0,0,0,238,15.52l0-.1m-1.71,5.9c2,.42,3.54,1.36,3.54,2.63a.94.94,0,0,1-.94,1c-.7,0-.87-.39-1.34-1.56a5,5,0,0,0-1.29-1.93l0-.15m5.79,0a49.88,49.88,0,0,1-1.38,7.26,13.67,13.67,0,0,0-.6,2.9c0,.59.62,3.1.62,3.64,0,1.09-.64,1.54-1.26,1.54a1.06,1.06,0,0,1-1-1.19c0-.37.24-2.13.24-2.48,0-1.54-.37-2.38-2-2.7v-.15c1.56,0,1.84-.32,2.13-.77a68.16,68.16,0,0,0,3.13-8h.14m1-6.6.18.49a5.14,5.14,0,0,1,.26,1.09c.1.77.22,4.14.22,6.83,0,6.35-.41,10-2.78,13.44l-.17.25.28.12.13.05.13,0,.12-.09a10.72,10.72,0,0,0,4.08-7.63h2V30c0,.85,0,2.27-.05,3.11-.05.57-.15,2.1-.15,2.62,0,.69.35,1.09,1,1.09a1.24,1.24,0,0,0,1.37-1.24c0-.43,0-1.64-.07-2.92s-.07-2.47-.08-3.05c.5-.33.79-.54.79-.92a.81.81,0,0,0-.35-.59l-.8-.65a.93.93,0,0,0-.56-.25c-.21,0-.38.18-.58.41l-.57.68H245.7c0-.51.11-1.38.14-2.6h9.41l0,2.6h-1.72l-2-1.06L251,27l.11.52a24,24,0,0,1,.29,4c0,.28,0,1.12-.06,2s-.06,1.93-.06,2.29a.83.83,0,0,0,.92,1,1.24,1.24,0,0,0,1.31-1.19c0-.35,0-1.2-.06-2.18-.05-1.45-.1-3.22-.09-4h1.8c0,1.8-.09,5.18-.09,6.82a.88.88,0,0,0,1,1,1.37,1.37,0,0,0,1.49-1.52c0-.12,0-1.13-.07-2.66-.09-3.24-.25-8.67-.25-10,0-2.26,0-4.62.05-5.86.6-.38.74-.49.74-.86s-.16-.45-.49-.56L255,14.93l-.48-.13.17.46a6,6,0,0,1,.39,1.67c0,.39.06,1.83.07,2.88,0,.38,0,.72,0,1h-1.87c-.06-1-.06-1.44,0-2.73v-.73c.64-.5.74-.67.74-.92s-.37-.49-.49-.54l-2.34-.67-.46-.13.15.45a7.23,7.23,0,0,1,.39,3.22c0,.26,0,1,0,1.83s0,1.74,0,2.06a.82.82,0,0,0,.89.92,1.23,1.23,0,0,0,1.23-.79,2.56,2.56,0,0,0,0-.87h1.83l.06,2.7h-9.38c0-.31,0-.79,0-1.28s0-1.08,0-1.42h1.84c0,.89,0,1.28.21,1.51a.84.84,0,0,0,.64.2,1.28,1.28,0,0,0,1.34-1.24c0-.44-.07-1.71-.12-2.21-.07-.87,0-1.94,0-2.79v-.16c.57-.49.64-.63.64-.87s-.36-.47-.54-.53l-2.11-.69-.44-.15.12.45a24.21,24.21,0,0,1,.3,5.38h-1.89V19.58c0-.91,0-1.85,0-2.37.65-.49.77-.58.77-.9s-.17-.46-.5-.56l-2.49-.84-.5-.16Zm-5.23.4-.08.16-.05.1-.09.18.16.12a4.59,4.59,0,0,1,1.27,1.76l.26,0-.23.1c.49,1.2.68,1.65,1.51,1.65a1.21,1.21,0,0,0,1.19-1.31c0-2.1-3.13-2.62-3.76-2.71l-.18,0ZM236.12,21l0,.26,0,.15,0,.13.1.09a4.72,4.72,0,0,1,1.23,1.85c.46,1.14.69,1.71,1.57,1.71A1.18,1.18,0,0,0,240.12,24c0-1.31-1.4-2.39-3.74-2.87l-.26-.06Zm6.28.08h-.61l0,.17a69.5,69.5,0,0,1-3.1,8c-.24.36-.43.65-1.92.65h-.25v.6l.2,0c1.51.3,1.78,1.07,1.78,2.46,0,.16-.06.7-.11,1.17s-.13,1.1-.13,1.31a1.31,1.31,0,0,0,1.29,1.44c.75,0,1.51-.55,1.51-1.79a14.61,14.61,0,0,0-.3-1.8,15.88,15.88,0,0,1-.32-1.84,14,14,0,0,1,.59-2.84,52,52,0,0,0,1.39-7.3l0-.27Z"/><path d="M274.89,37.17c-.13-.5-.39-1.56-2.84-2.55l-.08,0v-.42l.82.1c.88.1,2,.24,2.48.24s.84-.18.84-.77v-10h-1a18.1,18.1,0,0,0-2.91.22l-.09,0-.32-.64c0,.28,0,.56,0,.82,0,.71.05,1.28.05,1.39a1.2,1.2,0,0,1-1.36,1.31.64.64,0,0,1-.5-.18,1.15,1.15,0,0,1-.13-.88h-2.17V29.1h1.78l.7-.82c.25-.28.31-.34.49-.34s.31.08.56.3l.94.84a.69.69,0,0,1,.29.47c0,.15-.07.4-.5.4h-4.26v2.86A49.12,49.12,0,0,0,273,32l.24-.06.07.37-.09,0a36.07,36.07,0,0,1-5.06,1.79l-.84.23c-1.31.37-3.1.86-4.05,1.19l-.32.41a.5.5,0,0,1-.42.21q-.25,0-.45-.39l-1-2.64.23.06a4.46,4.46,0,0,0,1.21.17c.39,0,2.63-.22,3.47-.31V30h-1.09a16.7,16.7,0,0,0-2.9.22l-.1,0-.63-1.28.22,0c1.17.11,2.45.17,3.81.17H266V25.81h-2.1a1.43,1.43,0,0,1-.29,1.07,1.27,1.27,0,0,1-1,.34c-.22,0-.75-.08-.75-.87a3.5,3.5,0,0,1,.05-.41c0-.09,0-.18,0-.23.07-.9.07-3,.07-4,0-2.92,0-4.66-.09-5.16a7.16,7.16,0,0,0-.18-.9l-.06-.25,2.37,1h5.67l.67-.56a.52.52,0,0,1,.37-.18.57.57,0,0,1,.37.15l1.15,1a.61.61,0,0,1,.24.42c0,.2-.16.37-.79.78v3.11c0,.25,0,.89.05,1.59,1.35.11,2.68.17,3.74.17h4.74l.73-.74.09-.08a.51.51,0,0,1,.34-.17s.15,0,.45.25l1.69,1.44a.63.63,0,0,1,.19.44c0,.64-.86.67-1.43.69,0,.06-.33.28-.64.52l-1.18.9c-.74.52-1.28.91-1.53,1.11l-.08.06-.29-.23.06-.1a21.48,21.48,0,0,0,1.57-3.25H278c0,1.17,0,2.67,0,3.89,0,.87,0,1.6,0,2s0,1.21,0,2.14,0,2,0,2.35c0,1,0,2.53-3.05,3.19l-.12,0ZM270,25V21.5h-2.2V25Zm-4,0V21.5h-2.13V25Zm4-4.31V17.26h-2.2v3.39Zm-4,0V17.26h-2.13v3.39Zm11.4,2.23c-.47,0-.7-.22-1.06-.69l-.08-.1a7.19,7.19,0,0,0-2.66-2.49l-.07,0v-.35h.13a9.42,9.42,0,0,1,3,.57l.06-.1a18.31,18.31,0,0,0,1.47-2.62H276a16.8,16.8,0,0,0-2.88.22l-.09,0L272.43,16h.22c2,.15,3.49.17,3.78.17h1.94l.74-.64a.72.72,0,0,1,.42-.2.64.64,0,0,1,.39.16l1.58,1.36a.72.72,0,0,1,.21.47c0,.42-.39.49-1.37.64-.69.45-2.37,1.53-3.08,2a2,2,0,0,1,1.23,1.73A1,1,0,0,1,277.4,22.88Z"/><path d="M279.53,15.5a.46.46,0,0,1,.3.12L281.42,17a.63.63,0,0,1,.17.38c0,.29-.27.37-1.27.52-.79.49-2.7,1.73-3.29,2.18,1.24.64,1.34,1.43,1.34,1.71a.93.93,0,0,1-1,1c-.42,0-.62-.2-1-.65a7.54,7.54,0,0,0-2.77-2.62v-.15a9.34,9.34,0,0,1,3,.59,17.59,17.59,0,0,0,1.66-3H276a16.73,16.73,0,0,0-2.9.23l-.5-1c2.06.14,3.55.17,3.79.17h1.94l.82-.67a.65.65,0,0,1,.34-.17m-17.64.1,2.13.94h5.72l.75-.6c.12-.1.17-.15.29-.15a.53.53,0,0,1,.33.15l1.11,1a.51.51,0,0,1,.2.33c0,.15-.15.29-.79.72v3.17c0,.69.17,4.14.17,4.41a1.08,1.08,0,0,1-1.24,1.19c-.57,0-.57-.4-.5-1.07h-2.43v3.55h2l.75-.87c.24-.27.27-.3.39-.3s.23.05.47.27l.95.85c.17.15.24.27.24.37s-.22.27-.37.27h-4.39V33a50.42,50.42,0,0,0,5.48-.9l0,.15a39.19,39.19,0,0,1-5.33,1.86c-1.34.37-3.52,1-4.61,1.34a4.12,4.12,0,0,0-.37.44.37.37,0,0,1-.33.18c-.17,0-.29-.22-.34-.32l-.87-2.41a4.63,4.63,0,0,0,1.24.18c.42,0,2.92-.25,3.59-.33V29.82h-1.21a16.38,16.38,0,0,0-2.93.23l-.49-1a37.43,37.43,0,0,0,3.82.18h.81V25.68h-2.35c.05.72-.08,1.42-1.14,1.42-.32,0-.62-.18-.62-.75,0-.2.07-.52.07-.64.08-.89.08-3,.08-4s0-4.41-.1-5.18c-.05-.34-.1-.62-.17-.91m5.74,5.18h2.46V17.13h-2.46v3.65m-3.89,0h2.38V17.13h-2.38v3.65m3.89,4.31h2.46V21.37h-2.46v3.72m-3.89,0h2.38V21.37h-2.38v3.72M281.44,22a1,1,0,0,1,.37.22l1.69,1.44a.49.49,0,0,1,.15.35c0,.49-.67.54-1.32.57-.29.22-1.73,1.34-1.88,1.44-.74.52-1.29.91-1.54,1.11l-.12-.1a21.56,21.56,0,0,0,1.63-3.44H277.9c0,2,0,5.05,0,6,0,.65.05,3.77.05,4.49,0,1,0,2.43-3,3.07-.12-.49-.35-1.63-2.92-2.67v-.2c.86.1,2.5.32,3.17.32s1-.2,1-.89V23.63h-1.09a17.63,17.63,0,0,0-2.93.22l-.5-1c1.22.1,2.61.17,3.82.17h4.74l.81-.77c.15-.12.23-.22.35-.22m-19.92-6.88.12.5a7.46,7.46,0,0,1,.17.89c.07.49.1,2.23.1,5.14,0,1,0,3.12-.08,4,0,.06,0,.14,0,.23a2.37,2.37,0,0,0-.05.43c0,.62.32,1,.87,1A1.42,1.42,0,0,0,263.7,27a1.49,1.49,0,0,0,.33-1h1.84V29h-.56c-1.36,0-2.63-.06-3.8-.17l-.45,0,.21.41.49,1,.09.17.18,0a16.5,16.5,0,0,1,2.88-.22h1v2.85c-.9.09-3,.3-3.34.3a4.61,4.61,0,0,1-1.18-.17l-.46-.12.16.45.87,2.4c.2.41.43.49.58.49A.62.62,0,0,0,263,36l.07-.08a3.25,3.25,0,0,1,.23-.29c1-.33,2.75-.82,4.05-1.18l.5-.14.29-.08a37.47,37.47,0,0,0,5.07-1.79l.17-.08,0-.19,0-.15,0-.26-.26.06-.13,0a50.91,50.91,0,0,1-5.05.82V30.07H272c.58,0,.62-.4.62-.52a.78.78,0,0,0-.33-.56l-.94-.84c-.24-.22-.38-.34-.64-.34s-.32.1-.58.38l-.67.79h-1.6V25.93h1.91a1.09,1.09,0,0,0,.17.85.76.76,0,0,0,.6.22,1.34,1.34,0,0,0,1.49-1.44c0-.11,0-.69-.06-1.4v-.23l0,0,.08.17.18,0a16.8,16.8,0,0,1,2.89-.22H276v9.86c0,.53-.13.64-.72.64s-1.59-.13-2.46-.24l-.68-.08-.28,0v.65l.15.06c2.4,1,2.65,2,2.77,2.46l.06.24h.24c3.15-.69,3.15-2.27,3.15-3.32,0-.37,0-1.37,0-2.35s0-1.82,0-2.14,0-1.11,0-2c0-1.18,0-2.61,0-3.76h1.92a23.39,23.39,0,0,1-1.49,3.06l-.12.19.17.14.13.1.15.12.16-.12c.25-.2.8-.61,1.52-1.11l1.19-.9.64-.5c.59,0,1.48-.09,1.48-.81a.74.74,0,0,0-.23-.53L282,22.07c-.3-.25-.44-.28-.53-.28A.59.59,0,0,0,281,22l-.09.07-.75.71h-2a1.23,1.23,0,0,0,.48-1A2.09,2.09,0,0,0,277.49,20c.76-.54,2.22-1.48,2.92-1.92.89-.14,1.43-.23,1.43-.76a.82.82,0,0,0-.25-.55L280,15.43a.72.72,0,0,0-.46-.18.82.82,0,0,0-.48.21l-.77.63h-1.85c-.29,0-1.79,0-3.77-.17l-.44,0,.2.39.49,1,.09.17.18,0a16.55,16.55,0,0,1,2.86-.22h2a25.33,25.33,0,0,1-1.39,2.42v0a10,10,0,0,0-2.93-.53h-.26v.56l.13.07a7.15,7.15,0,0,1,2.62,2.46l.08.1a3,3,0,0,0,.47.51h-1.17c-1,0-2.31-.05-3.62-.16,0-.65,0-1.23,0-1.47v-3c.59-.39.79-.58.79-.85a.73.73,0,0,0-.27-.5l-1.13-1h0l0,0a.62.62,0,0,0-.44-.18.61.61,0,0,0-.42.18l-.71.57h-5.58L262,15.37l-.47-.21Zm6.36,2.22h2v3.15h-2V17.38Zm-3.89,0h1.88v3.15H264V17.38Zm3.89,4.24h2v3.22h-2V21.62Zm-3.89,0h1.88v3.22H264V21.62Z"/><path d="M288.14,36.91a.66.66,0,0,1-.47-.29L286,34.19h.23a5.22,5.22,0,0,0,1.92-.36,26.61,26.61,0,0,0,2.69-1c0-1.56,0-4.94,0-6.71H290a16.62,16.62,0,0,0-2.9.22H287l-.61-1.24h.22c1.52.12,3.17.15,3.9.15l.92-1c.13-.13.19-.19.32-.19s.31.1.5.28l1.24,1c.16.15.24.24.24.42s-.2.37-.41.54a1.56,1.56,0,0,0-.28.23l-.22.18c0,1,0,5.47.09,5.79.71,1.83,4.52,1.83,5.95,1.83,3.44,0,8-.19,10.27-1.1l.12,0,.12.37-.08.05c-.7.4-1.22.83-1.63,2.6l0,.09h-.1l-2.15,0-1.94,0c-8.17,0-9.82-1-11.4-3.38-.4.4-1.32,1.2-2.13,1.91-.58.51-1.08,1-1.28,1.14C288.57,36.51,288.52,36.91,288.14,36.91Zm5.47-4.28.05-.05c3.84-3.82,4.68-10.25,4.69-15h-1.06a17,17,0,0,0-2.9.22h-.1l-.63-1.27.22,0c1.52.13,3.15.17,3.8.17h6.7l.78-.81a.94.94,0,0,1,.51-.28.78.78,0,0,1,.42.2l1.35,1.27a.48.48,0,0,1,.21.37c0,.17-.09.31-.94,1,0,.54,0,5.1,0,5.34-.1,5.46-.59,8.12-4.66,8.88l-.11,0,0-.11A4.09,4.09,0,0,0,300,29.88l-.11-.06.22-.37.09,0a8.84,8.84,0,0,0,2.47.44c.7,0,1.37,0,1.71-2.35a69.45,69.45,0,0,0,.29-10h-4.21A28.72,28.72,0,0,1,299,26.67a10.87,10.87,0,0,1-5.21,6.21l-.14.08ZM292.28,20c-.69,0-.79-.2-1.44-1.55l-.11-.23a7.23,7.23,0,0,0-1.87-2.48l-.05,0v-.35l.14,0c2.49.32,4.6,1.89,4.6,3.42A1.23,1.23,0,0,1,292.28,20Z"/><path d="M288.94,15.47c2.47.32,4.48,1.86,4.48,3.3a1.11,1.11,0,0,1-1.14,1.09c-.64,0-.69-.17-1.44-1.71a7.77,7.77,0,0,0-1.9-2.53v-.15m16.73.27a.66.66,0,0,1,.34.18l1.34,1.26a.36.36,0,0,1,.17.28c0,.12-.09.27-.94,1,0,.87,0,4.86,0,5.4-.1,5.33-.57,8-4.56,8.75a4.25,4.25,0,0,0-1.94-2.8l.1-.17a9,9,0,0,0,2.51.45c.74,0,1.48,0,1.83-2.46a68.14,68.14,0,0,0,.3-10.16h-4.46a28.37,28.37,0,0,1-1.42,9.2,10.72,10.72,0,0,1-5.15,6.14l0-.1c4.14-4.11,4.74-11.13,4.74-15.24h-1.19a17.87,17.87,0,0,0-2.93.22l-.49-1c1.66.15,3.34.18,3.81.18h6.7l.86-.85a.83.83,0,0,1,.43-.25m-14,8.43c.13,0,.22.08.42.25l1.24,1c.13.12.2.17.2.32s-.15.27-.37.44l-.55.45c0,.67,0,5.53.1,5.9.75,1.91,4.64,1.91,6.07,1.91,2.76,0,7.86-.13,10.31-1.12l.05.15c-.76.45-1.28.94-1.68,2.68-.64,0-3.52.07-4.09.07-8.08,0-9.77-1-11.38-3.44-.52.54-3,2.67-3.52,3.14-.07.6-.12.85-.37.85a.5.5,0,0,1-.37-.25l-1.59-2.23a5.62,5.62,0,0,0,2-.37,26.93,26.93,0,0,0,2.78-1.09c0-1.57,0-5.16,0-6.92H290a18.44,18.44,0,0,0-2.92.22l-.47-1c1.61.12,3.29.15,3.91.15l.92-.92c.2-.2.22-.25.32-.25m-3-9v.56l.1.07a7.09,7.09,0,0,1,1.79,2.36l.05.1.1.2c.65,1.35.78,1.63,1.55,1.63a1.35,1.35,0,0,0,1.39-1.34c0-1.59-2.15-3.21-4.7-3.55l-.28,0Zm17,.3a1,1,0,0,0-.6.33l-.8.77h-6.59c-.64,0-2.27,0-3.79-.18l-.45,0,.2.4.5,1,.08.17.19,0a16.83,16.83,0,0,1,2.88-.22h.94c0,4.73-.88,11.05-4.66,14.82l-.1.1,0,.13,0,.1.07.31.28-.15a10.92,10.92,0,0,0,5.28-6.28,29.07,29.07,0,0,0,1.43-9h4a65.32,65.32,0,0,1-.3,9.88c-.32,2.24-.93,2.24-1.58,2.24a8.59,8.59,0,0,1-2.43-.44l-.19-.06-.1.17-.1.18-.13.22L300,30a4,4,0,0,1,1.8,2.63l.06.22.23,0c4.31-.8,4.67-3.93,4.77-9,0-.25,0-1.16,0-2.18,0-1.2,0-2.54,0-3.11.82-.68.94-.85.94-1.08a.57.57,0,0,0-.26-.47l-1.33-1.25a.85.85,0,0,0-.51-.25Zm-14,8.43a.56.56,0,0,0-.41.23l-.09.09-.84.85c-.78,0-2.34,0-3.79-.15l-.44,0,.19.39.47,1,.09.17.18,0a17.44,17.44,0,0,1,2.88-.22h.69c0,1.75,0,4.95,0,6.51a24.34,24.34,0,0,1-2.61,1,5.06,5.06,0,0,1-1.88.36h-.47l.27.38,1.59,2.23a.73.73,0,0,0,.57.36c.46,0,.54-.44.61-1L289.94,35c.76-.66,1.61-1.4,2.05-1.82,1.72,2.47,3.76,3.3,11.42,3.3l1.94,0,2.15,0h.2l0-.2c.4-1.72.9-2.12,1.57-2.51l.18-.11-.07-.19-.05-.15-.08-.25-.25.1c-2.24.91-6.79,1.1-10.22,1.1-1.27,0-5.15,0-5.83-1.75-.12-.37-.12-4.59-.09-5.69l.18-.15a2.39,2.39,0,0,1,.26-.21c.24-.19.48-.37.48-.65a.59.59,0,0,0-.23-.46l0,0-1.26-1a.86.86,0,0,0-.58-.31Z"/><path d="M324.83,37.43a.86.86,0,0,1-.92-1c0-.18,0-.69.07-1.17s.06-.87.06-1c.08-1.92.14-4.36.17-7.65a15.7,15.7,0,0,1-3.91,5.59l-.09.07-.28-.28.06-.08A30.85,30.85,0,0,0,324,21.22a16.84,16.84,0,0,0-3,.22l-.1,0-.63-1.27.22,0c.8.06,1.82.14,3.68.17,0-1.05-.05-3.19-.12-3.83a13.58,13.58,0,0,0-.37-1.76l-.06-.23,2.55.82c.26.08.51.19.51.46s-.24.47-.76.74l0,3.8h.45l.43-.69a.69.69,0,0,1,.5-.35.78.78,0,0,1,.48.23l.85.79c.16.14.29.25.29.47s-.19.39-.5.39h-2.5v1.13c1.09.34,3.39,1.25,3.39,2.74a1,1,0,0,1-1,1c-.85,0-1-.43-1.48-1.59a4.31,4.31,0,0,0-.89-1.44c0,.93,0,10.45,0,10.81,0,.17,0,.59,0,1s0,.8,0,1C326.12,37.22,325.31,37.43,324.83,37.43Zm2.3-.74.1,0c4.61-1.31,6.55-3.27,7.34-4.14a21.71,21.71,0,0,0-2.73-1.21c-.06.12-.44,1-.48,1a1.1,1.1,0,0,1-1.13.7c-.71,0-1.11-.3-1.11-.82a1.81,1.81,0,0,1,.41-1,34.87,34.87,0,0,0,1.75-3.13l0-.08h-.59a16.52,16.52,0,0,0-2.9.22l-.1,0-.6-1.27.21,0c1.79.16,3.35.17,3.79.17h.59c1.37-2.93,1.34-3.42,1.29-4l0-.2,2.24.87a.58.58,0,0,1,.48.53c0,.3-.12.36-.71.63l-.16.26c-.27.52-.75,1.48-1,1.94h6l.78-1c.2-.27.31-.37.5-.37s.28.08.51.31l1.16,1.06c.17.17.29.28.29.47s-.07.39-.52.39h-3.8l.46.24c.16.08.39.28.39.48s-.18.41-.92.71l0,0a14.79,14.79,0,0,1-1.44,2.71c3.7,1.48,4.47,2.49,4.47,3.56a1,1,0,0,1-1,1.06c-.54,0-.89-.29-1.82-1.2a19.47,19.47,0,0,0-2.69-2.08c-1.32,1.47-3.44,3-9,3.53h-.14Zm5-5.93a17.51,17.51,0,0,1,3.28.75,9,9,0,0,0,1.5-3.5h-3.43C333.19,28.53,332.55,29.84,332.11,30.76Zm4.7-7.62.05-.1c2-3.49,3-5.41,2.94-7.06l0-.25,2.49,1.59c.11.07.41.3.41.56,0,.41-.33.49-.92.63a26.09,26.09,0,0,1-4.56,4.82l-.08.06Zm-5.26-1.25c-1,0-1.13-.81-1.37-2a8,8,0,0,0-1.26-3.33l-.07-.09.3-.25.08,0c3.34,1.85,3.43,4.08,3.43,4.32C332.66,21.39,332.25,21.89,331.55,21.89Zm4.16-1.14c-1.07,0-1.17-.76-1.34-2.15a10.5,10.5,0,0,0-.85-3.21l0-.08.22-.28.09.06c1.9,1.18,3,2.75,3,4.3C336.78,20.39,336.2,20.75,335.71,20.75Z"/><path d="M323.89,14.75l2.33.75c.32.1.42.2.42.34s-.2.38-.72.65v4h.65l.47-.74c.1-.15.24-.3.39-.3s.3.13.45.25l.79.74c.18.15.25.23.25.38s-.2.27-.37.27h-2.63v1.34c.65.2,3.4,1.09,3.4,2.65a.83.83,0,0,1-.9.87c-.74,0-.89-.33-1.36-1.52a4.23,4.23,0,0,0-1.14-1.66c0,1,0,10.31,0,11.08,0,.33.05,1.66.05,2s0,1.49-1.17,1.49c-.42,0-.79-.2-.79-.87,0-.35.12-1.88.12-2.18.1-2.21.15-5,.18-8.3a16.25,16.25,0,0,1-4.12,6.14L320.1,32a31.44,31.44,0,0,0,4.09-10.88,17.23,17.23,0,0,0-3.13.22l-.49-1c.87.07,1.91.15,3.81.17,0-.94,0-3.27-.12-4a13,13,0,0,0-.37-1.79m9.84.45c2,1.26,2.92,2.85,2.92,4.19,0,1-.62,1.24-.94,1.24-1,0-1-.65-1.21-2.06a11,11,0,0,0-.87-3.25l.1-.12m6.19.77,2.28,1.46c.13.07.35.27.35.45s-.25.37-.87.52a25.6,25.6,0,0,1-4.56,4.83l-.15-.12c2-3.55,3-5.46,2.95-7.14m-10.75.37c2.72,1.51,3.37,3.37,3.37,4.21,0,.37-.1,1.22-1,1.22s-1-.62-1.24-1.94A8.23,8.23,0,0,0,329,16.46l.15-.12m4,6.79,2.06.79c.15,0,.4.15.4.42s-.08.25-.72.55c-.18.35-1,2-1.19,2.4h6.24l.82-1.06c.2-.27.27-.32.4-.32s.2.05.42.27l1.16,1.06c.13.13.25.23.25.38s-.25.27-.39.27h-4.32l.92.47c.15.07.32.25.32.37s-.1.3-.84.6a15.17,15.17,0,0,1-1.56,2.92c3.84,1.51,4.53,2.53,4.53,3.5a.91.91,0,0,1-.89.94c-.49,0-.82-.27-1.73-1.17a19.76,19.76,0,0,0-2.8-2.15c-1.24,1.41-3.27,3.05-8.95,3.57v-.15c4.63-1.32,6.57-3.25,7.51-4.29a22.85,22.85,0,0,0-3-1.34c-.07.17-.45,1-.52,1.17a1,1,0,0,1-1,.62c-.47,0-1-.15-1-.7,0-.22.05-.42.4-1a38.57,38.57,0,0,0,1.88-3.39h-.79a17,17,0,0,0-2.93.22l-.47-1c1.94.17,3.6.17,3.8.17h.66c1.42-3,1.39-3.51,1.34-4.16m3.92,4.76h-3.67c-.25.47-1,2-1.46,3a16.79,16.79,0,0,1,3.52.8,9.5,9.5,0,0,0,1.61-3.77M323.53,14.38l.12.44a12.06,12.06,0,0,1,.36,1.75c.07.61.12,2.6.12,3.68-1.77,0-2.75-.1-3.54-.17l-.45,0,.2.4.5,1,.08.17.19,0a15.56,15.56,0,0,1,2.78-.22,31,31,0,0,1-4,10.48l-.12.18.15.15.12.12.17.16.17-.15a15.31,15.31,0,0,0,3.69-5.08c0,3-.08,5.25-.16,7,0,.14,0,.58-.06,1s-.06,1-.06,1.18a1,1,0,0,0,1,1.12c.9,0,1.42-.64,1.42-1.74,0-.15,0-.54,0-1s0-.84,0-1c0-.36,0-2.56,0-4.91,0-2.17,0-4.46,0-5.57a4.66,4.66,0,0,1,.65,1.14c.46,1.16.67,1.69,1.6,1.69a1.07,1.07,0,0,0,1.15-1.12c0-1.49-2.05-2.4-3.4-2.84v-.9h2.38c.46,0,.62-.27.62-.52a.71.71,0,0,0-.34-.57l-.78-.73-.06-.05a.81.81,0,0,0-.56-.27.8.8,0,0,0-.6.41l-.4.63h-.26V16.64c.47-.25.72-.41.72-.8s-.4-.52-.6-.58L324,14.52l-.43-.14Zm10.14.49-.14.17-.1.13-.1.13.08.15a10.46,10.46,0,0,1,.84,3.13c.17,1.45.28,2.3,1.46,2.3.55,0,1.19-.39,1.19-1.49,0-1.6-1.11-3.2-3-4.4l-.19-.12Zm6,.62,0,.49c.1,1.62-1,3.53-2.91,7l-.11.19.16.13.15.12.16.13.16-.13a25.5,25.5,0,0,0,4.54-4.8c.59-.14,1-.24,1-.74a.91.91,0,0,0-.47-.66l-2.27-1.46-.41-.27ZM329.14,16l-.13.11-.15.12-.17.15.12.18a7.86,7.86,0,0,1,1.25,3.28c.24,1.24.41,2.14,1.49,2.14.77,0,1.24-.55,1.24-1.47,0-1.15-.92-3-3.5-4.43l-.15-.08Zm3.71,6.71,0,.4c.05.59.08,1.06-1.24,3.89h-.51c-.44,0-2,0-3.77-.17l-.44,0,.19.4.47,1,.08.17.19,0a16.26,16.26,0,0,1,2.88-.22h.38a34.06,34.06,0,0,1-1.68,3,1.93,1.93,0,0,0-.44,1.1c0,.59.47,1,1.24,1a1.22,1.22,0,0,0,1.24-.76c0-.1.15-.34.26-.58l.17-.38a21,21,0,0,1,2.47,1.09c-.85.9-2.79,2.73-7.18,4l-.18.05v.61l.27,0c5.46-.5,7.63-2,9-3.49a18.57,18.57,0,0,1,2.58,2c.91.88,1.3,1.24,1.91,1.24a1.17,1.17,0,0,0,1.14-1.19c0-1.1-.75-2.14-4.4-3.62a14.76,14.76,0,0,0,1.36-2.6h0c.67-.27.9-.38.9-.79a.79.79,0,0,0-.45-.59h3.28c.6,0,.64-.4.64-.52a.71.71,0,0,0-.27-.51l-.05,0L341.73,26a.88.88,0,0,0-.59-.33c-.27,0-.41.16-.6.42l-.74,1h-5.73c.24-.49.65-1.29.87-1.73l.11-.23c.61-.28.79-.36.79-.74s-.19-.53-.57-.65l-2-.79-.37-.15Zm.68,5.39h3.21a9.08,9.08,0,0,1-1.4,3.22,19.53,19.53,0,0,0-3-.71c.42-.87,1-2,1.23-2.51Z"/><path d="M351.25,34.88c-.73,0-1.86-2.28-1.86-2.5a3,3,0,0,1,.32-.84l.13-.29a46,46,0,0,0,.21-6.29c0-5-.13-5.89-.19-6.05-.14-.38-.54-.57-1.94-.91l-.28-.07.24-.16a3.47,3.47,0,0,1,1.8-.74c.68,0,2.95.71,2.95,1.49a4.6,4.6,0,0,1-.29,1l-.13.38c-.21,1.1-.43,9.15-.4,11.67,3.17-1.1,8.77-4.68,12.83-8.91l.08-.08.34.29L365,23c-3.58,5.8-7,7.74-12.12,10.69a4.13,4.13,0,0,0-1.13,1A.66.66,0,0,1,351.25,34.88Z"/><path d="M349.68,17.16c.75,0,2.83.72,2.83,1.36a11.94,11.94,0,0,1-.42,1.36c-.22,1.17-.45,9.59-.4,11.88,3.1-1,8.8-4.59,13-9l.17.15c-3.57,5.77-6.86,7.66-12.09,10.65a4.4,4.4,0,0,0-1.14,1c-.2.2-.3.23-.42.23-.62,0-1.74-2.16-1.74-2.38a8.18,8.18,0,0,1,.45-1.1,56,56,0,0,0,.22-6.32,58,58,0,0,0-.2-6.09c-.17-.45-.62-.65-2-1a3.29,3.29,0,0,1,1.73-.72m0-.25a3.56,3.56,0,0,0-1.87.76l-.48.31.56.14c1.33.33,1.73.51,1.86.84,0,.11.18.89.18,6a41.84,41.84,0,0,1-.21,6.25l-.13.28a2.89,2.89,0,0,0-.33.89c0,.3,1.17,2.63,2,2.63a.79.79,0,0,0,.59-.3,4.14,4.14,0,0,1,1.1-.93c5.17-3,8.58-4.92,12.17-10.74l.12-.18-.17-.14-.17-.15-.18-.16-.16.18c-4,4.14-9.43,7.66-12.61,8.82,0-2.7.19-10.41.39-11.48l.13-.36a4.67,4.67,0,0,0,.3-1.05c0-.89-2.32-1.61-3.08-1.61Z"/><path d="M374.83,35.37c-.76,0-2.48-1.75-2.48-3.42a3.57,3.57,0,0,1,.08-.64l0-.26.18.18.07.08c.29.33,1.18,1.34,1.77,1.34a1.53,1.53,0,0,0,.8-.26A48.27,48.27,0,0,0,388,21.32l.07-.09.36.25-.05.1c-3.17,5.92-7,9.28-11.82,12.51a3.58,3.58,0,0,0-.84.77A1.05,1.05,0,0,1,374.83,35.37Zm.95-9.36c-.3,0-.48-.12-2.11-1.21A18.56,18.56,0,0,0,369.86,23l-.45-.17.47-.07a12.39,12.39,0,0,1,1.88-.15,8.71,8.71,0,0,1,3.51.61,2.28,2.28,0,0,1,1.32,1.89A.88.88,0,0,1,375.78,26Zm10.92-5.28c-.35,0-.39,0-1.33-1.08a11.45,11.45,0,0,0-2.45-2.09l-.38-.24H383c1.45,0,4.43.67,4.43,2.5A.8.8,0,0,1,386.7,20.73Zm-8.77-.15c-.37,0-.52-.13-1.71-1.12a15.75,15.75,0,0,0-3.72-2.29l-.37-.17.4-.06a5.63,5.63,0,0,1,1.16-.11c.05,0,5,0,5,2.81A.84.84,0,0,1,377.93,20.58Zm10.88-2.13c-.3,0-.4-.1-1.05-.73l-.2-.2a9.4,9.4,0,0,0-2.67-1.81l-.44-.2.75-.06.46,0c.83,0,3.92.37,3.92,2.18A.8.8,0,0,1,388.81,18.45Z"/><path d="M385.66,15.55c1,0,3.8.42,3.8,2.05a.68.68,0,0,1-.65.72c-.27,0-.35-.1-1.16-.89a9.44,9.44,0,0,0-2.71-1.83c.33,0,.5,0,.72,0m-12,1.41c.15,0,4.91.05,4.91,2.68a.71.71,0,0,1-.67.81c-.32,0-.44-.1-1.63-1.09a15.38,15.38,0,0,0-3.75-2.3,5.49,5.49,0,0,1,1.14-.1m9.3.5c1.56,0,4.31.71,4.31,2.37,0,.55-.35.77-.6.77s-.32,0-1.23-1a11.72,11.72,0,0,0-2.48-2.1M388,21.4l.18.12c-3,5.55-6.62,9-11.78,12.47a3.57,3.57,0,0,0-.86.79,1,1,0,0,1-.75.47c-.67,0-2.35-1.66-2.35-3.3a3.6,3.6,0,0,1,.07-.64c.25.27,1.24,1.46,1.94,1.46a1.7,1.7,0,0,0,.86-.27A48.68,48.68,0,0,0,388,21.4m-16.28,1.28a8.75,8.75,0,0,1,3.44.6,2.17,2.17,0,0,1,1.27,1.78.76.76,0,0,1-.7.82c-.24,0-.44-.12-2-1.19a19.07,19.07,0,0,0-3.84-1.86,12.21,12.21,0,0,1,1.86-.15m13.9-7.38-.47,0-.26,0-1,.07.89.4a9.35,9.35,0,0,1,2.63,1.79l.21.2c.66.65.78.76,1.13.76a.93.93,0,0,0,.9-1c0-1.88-3-2.3-4-2.3Zm-12,1.41a6.64,6.64,0,0,0-1.18.1l-.81.13.75.35a15.14,15.14,0,0,1,3.69,2.27c1.22,1,1.37,1.14,1.79,1.14a1,1,0,0,0,.92-1.06c0-2.9-5-2.93-5.16-2.93Zm8.4.48.77.48a11.39,11.39,0,0,1,2.42,2.06c1,1.06,1,1.12,1.42,1.12a.92.92,0,0,0,.85-1c0-1.93-3.07-2.6-4.56-2.62l-.9,0ZM388,21.06l-.15.18a48.15,48.15,0,0,1-12.62,11,1.42,1.42,0,0,1-.74.24c-.35,0-.92-.43-1.68-1.29l-.07-.09-.35-.38-.08.51a4.07,4.07,0,0,0-.08.68c0,1.77,1.78,3.55,2.6,3.55a1.2,1.2,0,0,0,.94-.56,3.26,3.26,0,0,1,.82-.75c4.81-3.24,8.66-6.61,11.85-12.55l.1-.2-.18-.12-.17-.13-.19-.13Zm-16.24,1.37a11,11,0,0,0-1.89.16l-.95.13.89.35a18.34,18.34,0,0,1,3.79,1.83c1.66,1.11,1.85,1.23,2.17,1.23a1,1,0,0,0,1-1.07,2.41,2.41,0,0,0-1.39-2,8.92,8.92,0,0,0-3.57-.63Z"/><path d="M395.36,36l.06,0c4.14-3,6.1-9.22,6.1-10.41a1.53,1.53,0,0,0-.4-1.13,30.5,30.5,0,0,0-4.93.95l-.27.12c-.57.26-.68.31-.92.31a3,3,0,0,1-2.26-2.88,2.78,2.78,0,0,1,.16-.88l.08-.25.14.22c.7,1.09,1.22,1.6,2.3,1.6.25,0,2.2-.21,4.09-.42s3.77-.42,4.43-.47l.56-.05a27,27,0,0,0,3.47-.41c.62-.25.71-.28.88-.28s2.81.66,2.81,1.76a.79.79,0,0,1-.87.82,9,9,0,0,1-1.58-.21,15.51,15.51,0,0,0-3.18-.29c-1.13,0-2.15.09-2.76.14h-.2l.86.7a.54.54,0,0,1,.19.37,4.19,4.19,0,0,1-.6,1c-.23.65-.87,2.3-1.27,3.2-1.13,2.5-2.92,5.54-6.69,6.85l-.15,0Zm16.47-14.09c-.39,0-.52-.15-1.29-1.06a11.52,11.52,0,0,0-2.32-2l-.37-.24h.44c.17,0,4.21.14,4.21,2.41C412.5,21.54,412.22,21.92,411.83,21.92Zm1.91-1.64c-.26,0-.36-.1-1.15-.93l-.18-.2a8.79,8.79,0,0,0-2.51-2l-.46-.28.54.05c2.94.24,4.43,1,4.43,2.38C414.41,19.75,414.23,20.28,413.74,20.28ZM398.49,20a2.27,2.27,0,0,1-2-2,1.51,1.51,0,0,1,.06-.38l.05-.25.19.1a3.33,3.33,0,0,0,2.4.92,22.48,22.48,0,0,0,5.15-.64l.29-.09a4.36,4.36,0,0,1,.76-.19c.44,0,2.18.31,2.18,1.19s-.84.82-1.91.82a50.08,50.08,0,0,0-5.66.45C399.68,19.89,399,20,398.49,20Z"/><path d="M410,17c.89.08,4.31.35,4.31,2.26,0,.25-.07.87-.54.87-.23,0-.32-.13-1.24-1.09A9,9,0,0,0,410,17m-13.31.45a3.47,3.47,0,0,0,2.5,1,22.41,22.41,0,0,0,5.18-.65,7.58,7.58,0,0,1,1-.27c.42,0,2.06.3,2.06,1.06s-.75.7-1.79.7a50.2,50.2,0,0,0-5.67.45c-.47,0-1.07.09-1.47.09a2.15,2.15,0,0,1-1.9-1.9,2.84,2.84,0,0,1,.07-.45m11.62,1.24c1,0,4.09.37,4.09,2.28,0,.42-.19.79-.54.79s-.42-.1-1.19-1a11.53,11.53,0,0,0-2.36-2.06M393,22.09c.67,1,1.21,1.66,2.4,1.66.5,0,7.19-.79,8.53-.89a37.54,37.54,0,0,0,4.06-.47c.62-.25.7-.28.84-.28s2.68.65,2.68,1.64a.66.66,0,0,1-.74.69,10.08,10.08,0,0,1-1.64-.22A15.43,15.43,0,0,0,406,24c-1.51,0-2.8.15-3.27.17.2.18,1,.79,1.09.89a.42.42,0,0,1,.15.28,4.84,4.84,0,0,1-.57,1c-.25.67-.9,2.33-1.29,3.22-1.24,2.73-3.08,5.56-6.62,6.8l0-.2c4.21-3,6.14-9.3,6.14-10.51a1.68,1.68,0,0,0-.47-1.26,31.4,31.4,0,0,0-5,1c-.82.37-.89.42-1.14.42a2.87,2.87,0,0,1-2.13-2.75,2.62,2.62,0,0,1,.15-.84m15.92-5.39.9.55a8.42,8.42,0,0,1,2.47,2l.2.2c.79.84.91,1,1.23,1,.58,0,.79-.61.79-1.12,0-1.41-1.52-2.25-4.52-2.5l-1.07-.09Zm-12.42.21-.11.52,0,.09a2.55,2.55,0,0,0-.05.41,2.4,2.4,0,0,0,2.15,2.15c.46,0,1.13-.06,1.49-.1a51.83,51.83,0,0,1,5.65-.44c1,0,2,0,2-.93l.48.32a11.22,11.22,0,0,1,2.3,2c.76.91.92,1.1,1.38,1.1s.79-.44.79-1c0-1.91-2.72-2.49-4.33-2.53l-.64,0c-.16-.95-2-1.17-2.29-1.17a3.37,3.37,0,0,0-.8.2l-.29.08a22.13,22.13,0,0,1-5.11.64,3.23,3.23,0,0,1-2.31-.88l-.33-.41Zm-3.58,4.59-.16.52a2.86,2.86,0,0,0-.16.91,3.11,3.11,0,0,0,2.38,3c.27,0,.38-.05,1-.32l.26-.12a31.17,31.17,0,0,1,4.82-.93,1.41,1.41,0,0,1,.33,1c0,1.17-1.94,7.34-6,10.31l-.12.08,0,.15,0,.2,0,.3.29-.1c3.81-1.33,5.62-4.4,6.77-6.92.39-.89,1-2.51,1.28-3.21a3.82,3.82,0,0,0,.6-1.08.66.66,0,0,0-.23-.45l-.63-.52c.65-.05,1.58-.12,2.64-.12a14.71,14.71,0,0,1,3.08.27h.07a9.13,9.13,0,0,0,1.61.21.91.91,0,0,0,1-.94c0-1.27-2.9-1.89-2.93-1.89a2.66,2.66,0,0,0-.93.29,29.45,29.45,0,0,1-3.43.41l-.57.05c-.65.05-2.57.26-4.43.47s-3.83.42-4.07.42c-1,0-1.51-.48-2.19-1.55l-.29-.45Z"/><path d="M422.05,34.09c-1,0-2.63-2.15-2.63-3.38a3,3,0,0,1,.24-1.07l.1-.27.15.2c.59,1.15,1.28,1.56,1.69,1.56.66,0,3.82-2.23,5.65-3.64A46.69,46.69,0,0,0,435.14,20l.07-.07.3.18,0,.09c-.62,1.89-3.5,6.2-8.87,10.32-.12.1-.35.27-.63.47-.87.64-2.31,1.71-2.63,2l-.4.43c-.16.19-.33.37-.39.43A.79.79,0,0,1,422.05,34.09Zm2.33-12c-.47,0-.78-.31-1.6-1.13a12,12,0,0,0-4-2.8l-.46-.21.51,0c.23,0,.47,0,.72,0,2.86,0,5.9,1.07,5.9,3.07A1.1,1.1,0,0,1,424.38,22.07Z"/><path d="M419.52,18c2.79,0,5.78,1.05,5.78,2.95a1,1,0,0,1-.92,1c-.42,0-.72-.3-1.51-1.09A12.43,12.43,0,0,0,418.8,18l.72,0m15.72,2.11.12.07c-.6,1.81-3.37,6.07-8.82,10.26-.53.4-2.85,2.08-3.28,2.51-.12.12-.66.74-.79.86a.68.68,0,0,1-.42.15c-.87,0-2.5-2.08-2.5-3.25a3.39,3.39,0,0,1,.24-1.09c.57,1.12,1.29,1.64,1.81,1.64.82,0,4.66-2.85,5.73-3.67a47.73,47.73,0,0,0,7.91-7.48m-15.72-2.36h0c-.25,0-.49,0-.73,0l-1,.06.92.41a12,12,0,0,1,4,2.78c.82.82,1.16,1.16,1.69,1.16A1.21,1.21,0,0,0,425.55,21c0-2.08-3.11-3.2-6-3.2Zm15.66,2-.13.16a46.84,46.84,0,0,1-7.87,7.45c-2,1.51-5,3.62-5.58,3.62-.4,0-1.05-.46-1.58-1.5l-.26-.51-.2.54,0,.06a3.11,3.11,0,0,0-.24,1.11c0,1.31,1.72,3.5,2.75,3.5a1,1,0,0,0,.6-.22l.4-.44.39-.43c.31-.3,1.75-1.37,2.61-2l.64-.48c5.39-4.14,8.28-8.48,8.91-10.38l.06-.19-.17-.1-.13-.08-.18-.11Z"/><path d="M437.89,34.31l.09,0c5.59-2.46,11.53-9.73,13-14.46a46.07,46.07,0,0,0-6.17,1.38l-.29.14a4,4,0,0,1-1.09.46,3.07,3.07,0,0,1-1.86-2.62,2.48,2.48,0,0,1,.23-1.13l.1-.19.12.18c.92,1.46,1.31,1.46,1.75,1.46.73,0,6.05-.53,7-1.1l.25-.18a2.63,2.63,0,0,1,.95-.53c.31,0,2.23,1.58,2.23,2.1,0,.35-.21.43-.92.7l-.12,0c-.13.05-.14.07-.45.64l-.06.13a33.71,33.71,0,0,1-3.16,5.23c3,1.35,7,4.24,7,6.65,0,.81-.37,1.29-1,1.29s-.91-.52-1.12-.86c-2-3.26-3.31-4.85-5.42-6.43-4.2,5.24-8.27,7-10.95,7.53l-.14,0Z"/><path d="M452,17.8c.27,0,2.11,1.56,2.11,2s-.18.33-1,.62c-.17.08-.2.13-.52.72a32.94,32.94,0,0,1-3.3,5.46c3,1.31,7.09,4.26,7.09,6.59,0,.67-.27,1.16-.87,1.16s-.79-.42-1-.79c-2-3.27-3.35-4.91-5.55-6.54-4.41,5.55-8.63,7.11-11,7.58l0-.2c5.75-2.53,11.8-10.11,13.16-14.72a46.92,46.92,0,0,0-6.4,1.41,9,9,0,0,1-1.33.6,3.05,3.05,0,0,1-1.74-2.51,2.33,2.33,0,0,1,.22-1.06c.95,1.49,1.37,1.51,1.86,1.51.7,0,6.07-.52,7.09-1.11a5.93,5.93,0,0,1,1.14-.7m0-.25c-.19,0-.45.17-1,.56l-.24.17c-.94.55-6.26,1.08-7,1.08-.41,0-.76,0-1.65-1.39l-.23-.38-.2.4a2.52,2.52,0,0,0-.25,1.17,3.18,3.18,0,0,0,2,2.76,4,4,0,0,0,1.15-.48l.29-.14A45.36,45.36,0,0,1,450.83,20c-1.57,4.62-7.5,11.81-12.9,14.18l-.17.08,0,.18,0,.2,0,.27.26-.05c2.69-.55,6.75-2.29,10.95-7.49a20,20,0,0,1,5.29,6.33,1.51,1.51,0,0,0,1.23.91c.69,0,1.12-.54,1.12-1.41,0-2.43-4-5.31-6.95-6.69a32.33,32.33,0,0,0,3.07-5.13l.06-.11c.31-.57.32-.57.4-.61l.11,0c.73-.27,1-.37,1-.81s-2-2.23-2.36-2.23Z"/></g></g></svg>