<svg width="232" height="40" viewBox="0 0 232 40" fill="none" xmlns="http://www.w3.org/2000/svg">
<g clip-path="url(#clip0)">
<path d="M24.6753 18.1818C25.7143 18.0086 26.7532 17.8355 27.619 17.5757V12.9004C26.6666 13.2467 25.7143 13.5065 24.6753 13.7662V18.1818Z" fill="#BD8651"/>
<path d="M23.29 8.31165C21.2121 9.00429 18.8744 9.00429 16.7965 8.31165V12.6407C18.961 12.987 21.1255 12.987 23.29 12.6407V8.31165Z" fill="#BD8651"/>
<path d="M6.92641 15.671L7.87879 16.1039C8.91775 16.5368 9.95671 16.8831 10.9957 17.2294V10.8225L11.9481 11.2554C13.0736 11.6883 14.1126 12.0346 15.3247 12.2944V6.23377L16.2771 6.66667C17.4026 7.09957 18.7013 7.35931 19.9134 7.35931C21.1255 7.35931 22.4242 7.09957 23.5498 6.66667L24.5022 6.23377V12.2944C25.6277 12.0346 26.7532 11.6883 27.7922 11.2554L28.7446 10.8225V17.2294C29.7836 16.8831 30.8225 16.5368 31.8615 16.1039L32.8139 15.671V32.2078C39.5671 25.0216 39.1342 13.7662 31.9481 7.01299C24.7619 0.259739 13.6797 0.692639 6.92641 7.87879C0.519484 14.7186 0.519484 25.368 6.92641 32.2078V15.671Z" fill="#BD8651"/>
<path d="M16.7965 14.026V18.355C18.961 18.6147 21.1255 18.6147 23.29 18.355V14.026C21.1255 14.3723 18.8744 14.3723 16.7965 14.026Z" fill="#BD8651"/>
<path d="M31.6883 17.7489C31.0822 18.0086 30.1298 18.355 29.0043 18.6147V32.7273H27.619V19.0476C26.7532 19.2208 25.7142 19.4805 24.6753 19.6537V31.4286H23.29V19.7402C21.1255 20 18.961 20 16.7965 19.7402V31.342H15.4112V19.5671C14.3723 19.3939 13.4199 19.2208 12.4675 18.961V32.7273H11.0822V18.6147C9.95667 18.2684 9.00429 17.9221 8.31165 17.7489V33.4199C14.9783 39.2208 25.0216 39.2208 31.6883 33.4199V17.7489Z" fill="#BD8651"/>
<path d="M15.4113 18.1818V13.7662C14.4589 13.5065 13.4199 13.2467 12.4675 12.9004V17.5757C13.3333 17.7489 14.2857 18.0086 15.4113 18.1818Z" fill="#BD8651"/>
<path d="M20 40C8.91775 40 0 31.0823 0 20C0 8.91775 8.91775 0 20 0C31.0823 0 40 8.91775 40 20C40 31.0823 31.0823 40 20 40ZM20 0.779221C9.35065 0.779221 0.779221 9.35065 0.779221 20C0.779221 30.6494 9.35065 39.2208 20 39.2208C30.6494 39.2208 39.2208 30.6494 39.2208 20C39.2208 9.43723 30.6494 0.779221 20 0.779221Z" fill="#BD8651"/>
<path d="M17.4027 35.5843H15.2381V34.8051C15.1516 34.3722 15.4113 34.0259 15.8442 33.9393C15.9308 33.9393 16.0174 33.9393 16.0174 33.9393H16.71C16.7966 33.9393 16.9698 33.9393 17.0563 33.7662C17.1429 33.6796 17.1429 33.593 17.1429 33.4198C17.1429 33.1601 16.9697 32.9869 16.7966 32.9869C16.7966 32.9869 16.7966 32.9869 16.71 32.9869H15.3247V32.6406H16.71C17.1429 32.6406 17.4027 32.9869 17.4027 33.3333C17.4027 33.3333 17.4027 33.3333 17.4027 33.4198C17.4027 33.8527 17.1429 34.1991 16.71 34.1991C16.71 34.1991 16.71 34.1991 16.6234 34.1991H15.9308C15.5845 34.1991 15.4979 34.3722 15.4979 34.7185V35.1514H17.3161L17.4027 35.5843Z" fill="white"/>
<path d="M19.3939 35.671C18.7879 35.671 18.0952 35.4978 18.0952 34.2857C18.0952 33.0736 18.7879 32.8138 19.3939 32.8138C20 32.8138 20.6926 32.987 20.6926 34.2857C20.6926 35.5844 20 35.671 19.3939 35.671ZM19.3939 33.1602C18.8744 33.1602 18.4415 33.2467 18.4415 34.2857C18.4415 35.3247 18.8744 35.4112 19.3939 35.4112C19.9134 35.4112 20.3463 35.3247 20.3463 34.2857C20.3463 33.2467 19.9134 33.1602 19.3939 33.1602Z" fill="white"/>
<path d="M21.7316 32.8138H21.3853V35.5844H21.7316V32.8138Z" fill="white"/>
<path d="M24.2425 34.632V32.8138H23.723L22.5109 34.632V34.9783H23.8961V35.671H24.2425V34.9783H24.7619V34.632H24.2425ZM23.8961 34.632H22.8572L23.8961 33.0736V34.632Z" fill="white"/>
<path d="M147.619 12.7272H153.939V29.0043H155.584V12.7272H161.905V10.9956H147.619V12.7272Z" fill="#565757"/>
<path d="M196.277 10.9956H194.632V29.0043H208.918V27.3592H196.277V10.9956Z" fill="#565757"/>
<path d="M226.061 12.6406H231.342V10.9956H226.061C221.385 10.9956 217.576 14.5454 217.143 19.2207H215.065V20.8657H217.143C217.576 25.5411 221.385 29.0908 226.061 29.0908H231.342V27.5324H226.061C222.338 27.5324 219.134 24.6753 218.701 20.9523H229.957V19.3073H218.701C219.221 15.4978 222.338 12.6406 226.061 12.6406Z" fill="#565757"/>
<path d="M183.03 10.9956C182.857 11.1688 182.251 11.948 177.662 18.3549L177.403 18.6147L177.143 18.3549C172.554 11.948 171.948 11.1688 171.775 10.9956H169.784L176.45 20.3463V29.0043H178.182V20.3463L184.848 10.9956H183.03Z" fill="#565757"/>
<path d="M67.013 13.9394C66.4069 12.6407 65.2814 11.6018 63.8961 11.2554C63.723 11.2554 63.6364 11.1689 63.4632 11.1689H63.3766C63.1169 11.0823 62.8572 11.0823 62.5974 11.0823H53.1602V19.3074H51.0823V20.9524H53.1602V29.0909H54.8052V20.9524H62.684C65.368 20.8658 67.5325 18.7013 67.5325 16.0173C67.4459 15.3247 67.3593 14.5455 67.013 13.9394ZM65.8009 16.0173C65.8009 16.1905 65.8009 16.4502 65.7143 16.6234C65.368 18.0953 64.0693 19.2208 62.5108 19.2208H54.7186V12.7273H62.5108C64.329 12.7273 65.8009 14.1992 65.8009 16.0173Z" fill="#565757"/>
<path d="M86.7532 20.9524C89.1775 20.5195 90.9091 18.4416 90.9091 16.0173C90.9091 13.7663 89.4372 11.8615 87.2727 11.2554C87.0995 11.2554 87.013 11.1689 86.8398 11.1689H86.7532C86.4935 11.0823 86.2337 11.0823 85.974 11.0823H76.6233V19.3074H74.5454V20.9524H76.6233V29.0909H78.2684V20.9524H84.8484C85.1948 21.4719 86.2337 23.2901 89.4372 28.8312L89.6104 29.0909L91.0822 28.3983L86.7532 20.9524ZM78.2684 12.7273H86.0606C87.8788 12.7273 89.3506 14.1992 89.3506 16.0173V16.1039C89.3506 16.2771 89.3506 16.5368 89.264 16.71C88.9177 18.1818 87.619 19.3074 86.0606 19.3074H78.2684V12.7273Z" fill="#565757"/>
<path d="M106.926 29.1775C103.117 29.2641 99.9134 26.3204 99.7402 22.5109V17.4892C99.7402 13.8528 102.944 10.8225 106.926 10.8225C110.736 10.736 113.939 13.6797 114.113 17.4892V22.5109C113.939 26.3204 110.736 29.3507 106.926 29.1775ZM106.926 12.5541C104.069 12.381 101.645 14.6321 101.472 17.4892V22.5109C101.732 25.5412 104.416 27.7057 107.359 27.4459C109.957 27.1862 112.121 25.1083 112.294 22.5109V17.4892C112.208 14.6321 109.784 12.381 106.926 12.5541Z" fill="#565757"/>
<path d="M129.264 12.7273H138.528V11.0823H129.264C126.58 11.0823 124.329 13.2468 124.329 15.9308C124.329 17.1429 124.762 18.355 125.628 19.3074C126.58 20.3463 127.879 20.9524 129.264 20.9524H133.68C135.498 20.9524 136.883 22.4243 136.97 24.1559C136.97 25.9741 135.498 27.4459 133.68 27.4459H124.329V29.0909H133.593C136.364 29.0909 138.528 26.8399 138.528 24.1559C138.528 22.9437 138.095 21.8182 137.316 20.9524C136.364 19.9134 135.065 19.3074 133.68 19.3074H129.264C127.446 19.394 125.887 18.0087 125.801 16.1905C125.714 14.3723 127.1 12.8139 128.918 12.7273C129.004 12.7273 129.091 12.7273 129.264 12.7273Z" fill="#565757"/>
</g>
<defs>
<clipPath id="clip0">
<rect width="231.429" height="40" fill="white"/>
</clipPath>
</defs>
</svg>
