<svg xmlns="http://www.w3.org/2000/svg" viewBox="0 0 128.54 52.06"><defs><style>.cls-1{opacity:0.5;isolation:isolate;}</style></defs><g id="Layer_2" data-name="Layer 2"><g id="Layer_1-2" data-name="Layer 1"><path d="M3.39,23.38c0-5.47,0-6.44-.08-7.57s-.39-1.76-1.67-2a8.42,8.42,0,0,0-1.33-.1c-.15,0-.31-.08-.31-.22s.2-.28.62-.28c1.76,0,4.1.11,4.41.11.86,0,3.11-.11,4.91-.11,4.87,0,6.62,1.48,7.24,2a5.84,5.84,0,0,1,1.95,4.18c0,5-4.06,8.34-9.59,8.34H8.72c-.18,0-.42-.08-.42-.25s.24-.32,1-.32c3.78,0,6.75-2.48,6.75-5.71A7,7,0,0,0,13.91,16a7.26,7.26,0,0,0-5.33-1.76,5.61,5.61,0,0,0-1.68.21c-.23.08-.32.32-.32.67V29.55c0,3.37,0,6.14.19,7.61.13,1,.36,1.79,1.53,1.93.55.07,1.4.13,1.75.13s.31.11.31.22-.19.28-.62.28c-2.14,0-4.6-.11-4.79-.11s-2.57.11-3.74.11c-.42,0-.61-.07-.61-.28s.07-.22.3-.22a6.65,6.65,0,0,0,1.17-.13c.78-.14,1-.92,1.13-1.93.19-1.47.19-4.24.19-7.61Z"/><path d="M27,23.38c0-5.47,0-6.44-.07-7.57s-.4-1.76-1.68-2a8.38,8.38,0,0,0-1.32-.1c-.15,0-.32-.08-.32-.22s.2-.28.63-.28c1.75,0,4.2.11,4.39.11.45,0,3.4-.11,4.61-.11,2.46,0,5.06.21,7.12,1.54A6,6,0,0,1,43,19.53c0,2.59-1.21,5.18-4.71,8.09,3.2,3.68,5.85,6.81,8.11,9a8.28,8.28,0,0,0,4.75,2.53,11,11,0,0,0,1.52.1c.2,0,.35.11.35.22s-.24.28-.94.28H49.34a8.76,8.76,0,0,1-4.17-.67c-1.68-.81-3-2.52-5.26-5.14-1.64-1.93-3.48-4.29-4.24-5.2a.7.7,0,0,0-.51-.2l-4.8-.08a.24.24,0,0,0-.28.19.14.14,0,0,0,0,.09v.84a74.3,74.3,0,0,0,.2,7.61c.12,1,.35,1.79,1.53,1.93.54.07,1.4.13,1.75.13s.31.11.31.22-.2.28-.64.28c-2.13,0-4.58-.11-4.78-.11,0,0-2.49.11-3.66.11-.43,0-.62-.07-.62-.28s.08-.22.31-.22a6.44,6.44,0,0,0,1.16-.13c.79-.14,1-.92,1.14-1.93C27,35.72,27,33,27,29.58Zm3.11,3.05a.46.46,0,0,0,.28.42,11.57,11.57,0,0,0,4.09.56,5.39,5.39,0,0,0,2.92-.66c1.36-.84,2.38-2.74,2.38-5.41,0-4.37-2.57-7-6.74-7a12.71,12.71,0,0,0-2.61.21.42.42,0,0,0-.32.42Z"/><path d="M56.35,23.38c0-5.47,0-6.44-.08-7.57s-.39-1.76-1.68-2a8.38,8.38,0,0,0-1.32-.1c-.16,0-.31-.08-.31-.22s.2-.28.62-.28H56.4l1.58.07h8.93a13.31,13.31,0,0,0,1.67-.17c.19,0,.36-.18.55-.18s.15.14.15.32-.2.66-.31,1.65a21.65,21.65,0,0,1-.2,2.31c0,.17-.11.39-.27.39s-.31-.18-.31-.46A3.57,3.57,0,0,0,68,15.88c-.28-.57-.67-1-2.77-1.19-.66-.07-4.91-.11-5.34-.11-.15,0-.22.11-.22.36v9.67c0,.25,0,.35.22.35.51,0,5.31,0,6.19-.07a3,3,0,0,0,1.84-.49c.36-.35.43-.46.57-.46s.21.07.21.28-.21.81-.32,2c-.07.69-.15,2-.15,2.24s0,.66-.27.66-.28-.13-.28-.31a3.28,3.28,0,0,0-.15-1.16c-.16-.49-.5-1.08-2-1.22-1.06-.11-4.91-.18-5.58-.18-.19,0-.26.1-.26.25v3.08c0,1.2,0,5.26,0,6,.1,2.41.69,2.87,4.52,2.87A12.61,12.61,0,0,0,67.88,38c1-.39,1.48-1.08,1.75-2.53.08-.39.16-.53.35-.53s.24.29.24.53a32.41,32.41,0,0,1-.51,3.4c-.27.91-.58.91-2.1.91-2.93,0-5.07-.06-6.59-.1s-2.45-.11-3-.11H56.47c-.82,0-1.68.07-2.27.07-.43,0-.62-.07-.62-.28s.08-.22.31-.22a6.88,6.88,0,0,0,1.11,0c.78-.14,1-.92,1.14-1.93.19-1.47.19-4.24.19-7.61Z"/><path d="M103.35,29.55c0,3.37,0,6.14.19,7.61.11,1,.36,1.79,1.52,1.93.55.07,1.41.13,1.75.13s.31.11.31.22-.19.28-.62.28c-2.14,0-4.59-.11-4.79-.11s-2.65.11-3.82.11c-.43,0-.62-.07-.62-.28s.08-.22.31-.22a6.44,6.44,0,0,0,1.16-.13c.78-.14,1-.92,1.13-1.93a69,69,0,0,0,.21-7.61V23.38c0-5.47,0-6.44-.09-7.57s-.47-1.79-1.33-2a5.38,5.38,0,0,0-1.2-.13c-.15,0-.3-.08-.3-.22s.19-.28.62-.28c1.28,0,3.73.11,3.93.11s2.65-.11,3.81-.11c.43,0,.62.07.62.28s-.15.22-.31.22a6.64,6.64,0,0,0-1,.1c-1,.18-1.36.77-1.44,2s-.07,2.1-.07,7.57Z"/><path d="M114.11,39.27c-.55-.25-.59-.39-.59-1.34,0-1.75.17-3.15.2-3.71,0-.39.12-.57.32-.57s.27.11.27.39a6.28,6.28,0,0,0,.11,1.3c.58,2.59,3.15,3.57,5.77,3.57,3.73,0,5.56-2.41,5.56-4.66,0-2.42-1.13-3.82-4.47-6.31l-1.75-1.3c-4.14-3.05-5.06-5.22-5.06-7.61,0-3.74,3.1-6.31,8.06-6.31a16.25,16.25,0,0,1,3.61.35,7.91,7.91,0,0,0,1.37.18c.31,0,.39.07.39.24s-.16,1.33-.16,3.72c0,.56-.08.8-.27.8s-.27-.17-.32-.45a5.31,5.31,0,0,0-.49-1.75c-.24-.39-1.29-1.86-4.88-1.86C119.1,14,117,15.46,117,18c0,2,1,3.27,4.76,5.9l1.08.76c4.61,3.27,5.7,5.44,5.7,8.25a7,7,0,0,1-3.32,5.82,11.12,11.12,0,0,1-5.88,1.47A13,13,0,0,1,114.11,39.27Z"/><path class="cls-1" d="M78.73,52.06s12.83-7,3.43-25S87.39,0,87.39,0,75.12,9.46,86.08,26.83,78.73,52.06,78.73,52.06Z"/><path d="M78.73,51.69s12.09-6.61,4.18-24.64,4.4-27,4.4-27S77,9.46,86.21,26.83,78.73,51.69,78.73,51.69Z"/></g></g></svg>