<svg width="20" height="20" viewBox="0 0 20 20" fill="none" xmlns="http://www.w3.org/2000/svg">
<g clip-path="url(#clip0)">
<path d="M13.1175 2.14922L10.991 0.362969C10.7029 0.120977 10.3514 0 9.99999 0C9.64854 0 9.29706 0.120977 9.00901 0.362969L6.88249 2.14922H13.1175Z" fill="white"/>
<path d="M1.79688 7.84714L9.75949 14.0679C9.84711 14.1364 9.93863 14.1507 10 14.1507C10.0614 14.1507 10.1529 14.1364 10.2405 14.0679L18.2031 7.84714V4.10229C18.2031 3.67081 17.8534 3.32104 17.4219 3.32104H2.57812C2.14664 3.32104 1.79688 3.67081 1.79688 4.10229V7.84714ZM14.8633 8.78901C14.8633 9.11261 14.6009 9.37495 14.2773 9.37495H5.72266C5.39906 9.37495 5.13672 9.11261 5.13672 8.78901C5.13672 8.46542 5.39906 8.20308 5.72266 8.20308H14.2773C14.6009 8.20308 14.8633 8.46542 14.8633 8.78901ZM11.2695 5.85933C11.5931 5.85933 11.8555 6.12167 11.8555 6.44526C11.8555 6.76886 11.5931 7.0312 11.2695 7.0312H5.72266C5.39906 7.0312 5.13672 6.76886 5.13672 6.44526C5.13672 6.12167 5.39906 5.85933 5.72266 5.85933H11.2695Z" fill="white"/>
<path d="M18.4375 20C18.5978 20 18.7524 19.9758 18.898 19.931L11.5414 14.6567C11.5152 14.6379 11.4916 14.617 11.4694 14.595L10.9619 14.9915C10.6792 15.2123 10.3396 15.3227 9.99991 15.3227C9.66026 15.3227 9.32062 15.2123 9.03796 14.9915L8.53038 14.595C8.50827 14.617 8.48468 14.6379 8.45847 14.6567L1.10194 19.931C1.24753 19.9758 1.40214 20 1.56245 20H18.4375Z" fill="white"/>
<path d="M20 7.93042L12.4252 13.8483L19.8258 19.1541C19.9369 18.9394 20 18.6958 20 18.4375V7.93042Z" fill="white"/>
<path d="M7.57484 13.8483L0 7.93042V18.4375C0 18.6958 0.063125 18.9394 0.17418 19.1541L7.57484 13.8483Z" fill="white"/>
</g>
<defs>
<clipPath id="clip0">
<rect width="20" height="20" fill="white"/>
</clipPath>
</defs>
</svg>
