<?xml version="1.0" standalone="no"?>
<!DOCTYPE svg PUBLIC "-//W3C//DTD SVG 1.1//EN" "http://www.w3.org/Graphics/SVG/1.1/DTD/svg11.dtd" >
<svg>
<metadata>
Created by FontForge 20120731 at Tue Jun  7 12:29:58 2016
 By www
Copyright (c) 2011 by Aviation Partners. All rights reserved.
</metadata>
<defs>
<font id="CentralW00-Medium" horiz-adv-x="761" >
  <font-face 
    font-family="CentralW00-Medium"
    font-weight="550"
    font-stretch="normal"
    units-per-em="1000"
    panose-1="2 0 0 0 0 0 0 0 0 0"
    ascent="800"
    descent="-200"
    x-height="697.5"
    cap-height="700"
    bbox="-30.6552 -351.12 1281 969"
    underline-thickness="50"
    underline-position="-125"
    unicode-range="U+0020-FB02"
  />
<missing-glyph horiz-adv-x="494" 
d="M432 700v-700h-371v700h371zM105 44h283v612h-283v-612z" />
    <glyph glyph-name=".notdef" horiz-adv-x="494" 
d="M432 700v-700h-371v700h371zM105 44h283v612h-283v-612z" />
    <glyph glyph-name=".null" horiz-adv-x="0" 
 />
    <glyph glyph-name="nonmarkingreturn" horiz-adv-x="333" 
 />
    <glyph glyph-name="space" unicode=" " horiz-adv-x="360" 
 />
    <glyph glyph-name="exclam" unicode="!" horiz-adv-x="296" 
d="M104 662q0 21 14.5 35.5t35.5 14.5t35.5 -14.5t14.5 -35.5v-379q0 -20 -14.5 -35t-35.5 -15t-35.5 15t-14.5 35v379zM218 64q0 -26 -19 -45t-45 -19t-45 19t-19 45t19 45t45 19t45 -19t19 -45z" />
    <glyph glyph-name="quotedbl" unicode="&#x22;" horiz-adv-x="381" 
d="M293 755q21 0 35.5 -14.5t14.5 -35.5v-273q0 -21 -14.5 -35.5t-35.5 -14.5q-20 0 -35 14.5t-15 35.5v273q0 21 15 35.5t35 14.5zM54 705q0 21 15 35.5t35 14.5q21 0 35.5 -14.5t14.5 -35.5v-273q0 -21 -14.5 -35.5t-35.5 -14.5q-20 0 -35 14.5t-15 35.5v273z" />
    <glyph glyph-name="numbersign" unicode="#" horiz-adv-x="740" 
d="M610 263q20 0 35 -15t15 -35q0 -21 -15 -35.5t-35 -14.5h-104l-13 -75q-4 -20 -21 -32t-37 -8q-21 3 -33 20t-8 38l10 57h-172l-14 -75q-3 -20 -20 -32t-38 -8q-20 3 -32 20t-8 38l10 57h-26q-21 0 -35.5 14.5t-14.5 35.5q0 20 14.5 35t35.5 15h44l30 174h-74
q-21 0 -35.5 14.5t-14.5 35.5q0 20 14.5 35t35.5 15h92l13 74q4 21 21 33t37 8t32 -21t9 -37l-11 -57h173l13 74q4 21 21 33t37 8t32 -21t9 -37l-10 -57h38q20 0 35 -15t15 -35q0 -21 -15 -35.5t-35 -14.5h-56l-31 -174h87zM422 263l30 174h-172l-31 -174h173z" />
    <glyph glyph-name="dollar" unicode="$" horiz-adv-x="685" 
d="M534 358q42 -29 64 -68t22 -86q0 -51 -22.5 -93.5t-65.5 -71.5q-53 -36 -128 -47v-39q0 -21 -14.5 -35.5t-35.5 -14.5t-35.5 14.5t-14.5 35.5v36q-118 9 -205 76q-17 13 -19.5 33.5t10.5 36.5q13 17 33 19.5t37 -10.5q32 -24 66 -37q36 -14 78 -18v237q-39 8 -70.5 19.5
t-56.5 27.5q-81 52 -81 143q0 47 20.5 86t59.5 65q52 35 128 43v37q0 20 14.5 35t35.5 15t35.5 -15t14.5 -35v-38q40 -5 77 -14t66 -23q19 -8 26 -27.5t-1 -38.5q-9 -19 -28 -26t-38 1q-20 9 -46.5 16t-55.5 11v-198q39 -9 71.5 -22t58.5 -30zM231 457q29 -18 73 -28v180
q-46 -6 -72 -25q-36 -24 -36 -68q0 -13 6 -28.5t29 -30.5zM476 121q44 31 44 83q0 14 -6.5 32.5t-35.5 38.5t-74 32v-214q21 5 39.5 11.5t32.5 16.5z" />
    <glyph glyph-name="percent" unicode="%" horiz-adv-x="921" 
d="M54 561q0 30 11.5 56.5t31 46t46 31t56.5 11.5t56.5 -11.5t46 -31t31 -46t11.5 -56.5v-97q0 -30 -11.5 -56t-31 -45.5t-46 -31t-56.5 -11.5t-56.5 11.5t-46 31t-31 45.5t-11.5 56v97zM132 464q0 -28 19.5 -47.5t47.5 -19.5t47.5 19.5t19.5 47.5v97q0 29 -19.5 48.5
t-47.5 19.5t-47.5 -19.5t-19.5 -48.5v-97zM612 683q9 14 24.5 17t28.5 -6q14 -9 17 -25t-6 -29l-426 -623q-9 -14 -24.5 -17t-28.5 7q-14 9 -17 24.5t6 28.5zM519 236q0 30 11.5 56.5t31 46t46 31t56.5 11.5t56.5 -11.5t46 -31t31 -46t11.5 -56.5v-97q0 -30 -11.5 -56
t-31 -45.5t-46 -31t-56.5 -11.5t-56.5 11.5t-46 31t-31 45.5t-11.5 56v97zM597 139q0 -28 19.5 -47.5t47.5 -19.5t47.5 19.5t19.5 47.5v97q0 29 -19.5 48.5t-47.5 19.5t-47.5 -19.5t-19.5 -48.5v-97z" />
    <glyph glyph-name="ampersand" unicode="&#x26;" horiz-adv-x="663" 
d="M595 85q14 -14 14 -35t-14 -35q-15 -15 -35.5 -15t-35.5 14l-11 11q-5 5 -12 12.5t-16 16.5q-36 -32 -80.5 -49t-92.5 -17q-52 0 -98.5 19t-83.5 56t-56.5 83.5t-19.5 98.5q0 50 18 94.5t50 80.5q-27 45 -27 100q0 40 15 75t41 61t61 41t75 15t75 -15t61 -41t41 -61
t15 -75q0 -21 -14.5 -35.5t-35.5 -14.5q-20 0 -35 14.5t-15 35.5q0 19 -7 36t-19.5 29.5t-29.5 19.5t-36 7t-36 -7t-29.5 -19.5t-19.5 -29.5t-7 -36q0 -39 27 -66q40 -40 82 -81q36 -35 78.5 -78t83.5 -83q4 15 4 33q0 21 14.5 35.5t35.5 14.5t35.5 -14.5t14.5 -35.5
q0 -56 -25 -111q11 -11 20 -19.5t16 -15.5zM312 88q59 0 101 36l-59 59t-61 60.5t-57 55.5t-46 46q-36 -44 -36 -100q0 -33 12.5 -61.5t34 -49.5t50 -33.5t61.5 -12.5z" />
    <glyph glyph-name="quotesingle" unicode="'" horiz-adv-x="198" 
d="M54 705q0 21 15 35.5t35 14.5q21 0 35.5 -14.5t14.5 -35.5v-273q0 -21 -14.5 -35.5t-35.5 -14.5q-20 0 -35 14.5t-15 35.5v273v0z" />
    <glyph glyph-name="parenleft" unicode="(" horiz-adv-x="361" 
d="M248 818q15 14 35.5 14t35.5 -14q14 -15 14 -35.5t-14 -35.5q-39 -38 -69 -83t-52 -95q-44 -106 -44 -219q0 -114 44 -219q44 -102 121 -179q14 -14 14 -35t-14 -35q-15 -15 -35.5 -15t-35.5 15q-46 45 -81 97.5t-61 112.5q-52 125 -52 258t52 257q52 121 142 211z" />
    <glyph glyph-name="parenright" unicode=")" horiz-adv-x="361" 
d="M112 818q90 -90 142 -211q52 -124 52 -257t-52 -258q-26 -60 -61 -112.5t-81 -97.5q-15 -15 -35.5 -15t-35.5 15q-14 14 -14 35t14 35q77 77 121 179q44 105 44 219q0 113 -44 219q-22 50 -52 95t-69 83q-14 15 -14 35.5t14 35.5q15 14 35.5 14t35.5 -14z" />
    <glyph glyph-name="asterisk" unicode="*" horiz-adv-x="486" 
d="M418 475q18 -11 23.5 -31t-5.5 -38t-30.5 -23.5t-37.5 5.5l-69 40v-80q0 -20 -14.5 -35t-35.5 -15t-35.5 15t-14.5 35v80l-69 -40q-18 -11 -38 -5.5t-30 23.5q-11 18 -5.5 38t23.5 31l69 40l-69 39q-18 11 -23.5 31t5.5 38q10 18 30 23.5t38 -5.5l69 -40v80q0 20 14.5 35
t35.5 15t35.5 -15t14.5 -35v-80l69 40q18 11 37.5 5.5t30.5 -23.5t5.5 -38t-23.5 -31l-69 -39l69 -40v0z" />
    <glyph glyph-name="plus" unicode="+" horiz-adv-x="714" 
d="M610 400q20 0 35 -15t15 -35q0 -21 -15 -35.5t-35 -14.5h-203v-203q0 -21 -14.5 -35.5t-35.5 -14.5t-35.5 14.5t-14.5 35.5v203h-203q-21 0 -35.5 14.5t-14.5 35.5q0 20 14.5 35t35.5 15h203v203q0 20 14.5 35t35.5 15t35.5 -15t14.5 -35v-203h203v0z" />
    <glyph glyph-name="comma" unicode="," horiz-adv-x="260" 
d="M155 104q20 -8 28.5 -26.5t0.5 -38.5l-77 -198q-8 -20 -26.5 -29t-38.5 -1t-28.5 26.5t-0.5 38.5l76 199q8 19 27 28t39 1z" />
    <glyph glyph-name="hyphen" unicode="-" horiz-adv-x="404" 
d="M300 400q20 0 35 -15t15 -35q0 -21 -15 -35.5t-35 -14.5h-196q-20 0 -35 14.5t-15 35.5q0 20 15 35t35 15h196z" />
    <glyph glyph-name="period" unicode="." horiz-adv-x="260" 
d="M200 64q0 -26 -19 -45t-45 -19t-45 19t-19 45t19 45t45 19t45 -19t19 -45z" />
    <glyph glyph-name="slash" unicode="/" horiz-adv-x="488" 
d="M353 800q8 20 26.5 28.5t37.5 0.5q20 -7 29 -25.5t1 -38.5l-315 -865q-7 -20 -25.5 -28.5t-38.5 -1.5t-28.5 25.5t-1.5 38.5l315 866v0z" />
    <glyph glyph-name="zero" unicode="0" horiz-adv-x="655" 
d="M140 635q38 38 85.5 57.5t101.5 19.5q53 0 101 -19.5t86 -57.5t57.5 -86t19.5 -101v-196q0 -54 -19.5 -101.5t-57.5 -85.5t-86 -57.5t-101 -19.5q-54 0 -101.5 19.5t-85.5 57.5t-57.5 85.5t-19.5 101.5v196q0 53 19.5 101t57.5 86zM163 252q0 -34 13 -64t35 -52t52 -35
t64 -13t63.5 13t52 35t35.5 52t13 64v196q0 34 -13 63.5t-35.5 52t-52 35.5t-63.5 13t-64 -13t-52 -35.5t-35 -52t-13 -63.5v-196z" />
    <glyph glyph-name="one" unicode="1" horiz-adv-x="438" 
d="M251 684q11 11 26 14.5t29 -2.5t22.5 -18.5t8.5 -27.5v-600q0 -21 -14.5 -35.5t-35.5 -14.5t-35.5 14.5t-14.5 35.5v476q-23 -23 -45.5 -46.5t-39.5 -41.5q-21 -22 -39 -41q-14 -15 -35 -15t-36 14t-15 35t14 36l210 217v0z" />
    <glyph glyph-name="two" unicode="2" horiz-adv-x="592" 
d="M80 487q0 46 17.5 87t48.5 72t71.5 48.5t87.5 17.5q46 0 87 -17.5t72 -48.5t48.5 -72t17.5 -87q0 -45 -17 -86t-49 -73l-80 -80q-35 -35 -75 -74.5t-74 -73.5h243q21 0 35.5 -14.5t14.5 -35.5t-14.5 -35.5t-35.5 -14.5h-364q-15 0 -27.5 8.5t-18.5 22.5q-4 8 -4 19
q0 21 15 35l314 314q18 17 27.5 40t9.5 48q0 26 -10 48.5t-27 39.5t-39.5 27t-48.5 10t-48.5 -10t-39.5 -27t-27 -39.5t-10 -48.5q0 -21 -15 -35.5t-35 -14.5q-21 0 -35.5 14.5t-14.5 35.5z" />
    <glyph glyph-name="three" unicode="3" horiz-adv-x="550" 
d="M129 658q26 26 59.5 40t70.5 14q38 0 71.5 -14.5t58.5 -39.5t39.5 -58.5t14.5 -71.5t-13.5 -70.5t-37.5 -57.5q43 -31 69 -79.5t26 -105.5q0 -47 -18 -88.5t-49 -72t-72.5 -48.5t-88.5 -18q-46 0 -87.5 17t-73.5 49q-33 32 -49 73q-8 19 -0.5 38t27.5 27q19 8 38 0.5
t27 -26.5q10 -23 28 -41q37 -37 90 -37q26 0 49.5 10t41 27t27.5 40.5t10 49.5q0 27 -10 50t-27.5 40.5t-41 27.5t-49.5 10q-21 0 -35.5 15t-14.5 35q0 21 14.5 35.5t35.5 14.5q17 0 32.5 6.5t27 18t18 27t6.5 33.5q0 35 -24.5 59.5t-59.5 24.5t-60 -25q-11 -10 -18 -27
q-8 -19 -27 -26.5t-38 0.5q-20 8 -27.5 27t0.5 38q13 32 40 59z" />
    <glyph glyph-name="four" unicode="4" horiz-adv-x="662" 
d="M417 681q11 13 26 17t30 -1q15 -6 24 -18.5t9 -28.5v-396h89q21 0 35.5 -14.5t14.5 -35.5q0 -20 -14.5 -35t-35.5 -15h-89v-104q0 -21 -15 -35.5t-35 -14.5q-21 0 -35.5 14.5t-14.5 35.5v104h-319q-15 0 -27 8t-18 21q-7 14 -5 28t11 25zM406 511q-59 -71 -112 -135
t-101 -122h213v257z" />
    <glyph glyph-name="five" unicode="5" horiz-adv-x="609" 
d="M483 700q21 0 35.5 -15t14.5 -35q0 -21 -14.5 -35.5t-35.5 -14.5h-271q-4 -28 -7.5 -57t-8.5 -71q23 5 50 9t58 4q52 0 98 -19t81 -54q34 -35 52 -80t18 -96q0 -50 -19 -95.5t-54 -80.5t-80 -53.5t-96 -18.5q-50 0 -95.5 18.5t-80.5 53.5t-53 80q-8 19 -0.5 38t26.5 27
q20 8 39 0.5t27 -27.5q10 -26 32 -47q43 -43 105 -43q31 0 58 11.5t47 31.5t32 47t12 58q0 64 -42 106q-20 21 -47.5 32t-59.5 11q-31 0 -57 -5t-45.5 -10.5t-30.5 -10.5l-11 -5q-26 -15 -52 3q-11 8 -17 20.5t-4 26.5l31 252q2 19 16 31.5t34 12.5h315z" />
    <glyph glyph-name="six" unicode="6" horiz-adv-x="655" 
d="M514 439q38 -38 57.5 -86t19.5 -101q0 -54 -19.5 -101.5t-57.5 -85.5t-86 -57.5t-101 -19.5q-54 0 -101.5 19.5t-85.5 57.5t-57.5 85.5t-19.5 101.5q0 52 19.5 97t54.5 87l181 242q12 17 32.5 20t37.5 -10q17 -12 19.5 -32.5t-9.5 -37.5l-76 -102h5q53 0 101 -19.5
t86 -57.5zM327 88q34 0 63.5 13t52 35t35.5 52t13 64t-13 63.5t-35.5 52t-52 35.5t-63.5 13q-35 0 -65 -11t-52 -32t-34.5 -51.5t-12.5 -69.5q0 -34 13 -64t35 -52t52 -35t64 -13z" />
    <glyph glyph-name="seven" unicode="7" horiz-adv-x="579" 
d="M511 700q28 0 43 -26t-1 -50l-363 -600q-11 -18 -31 -23t-38 6q-24 16 -24 43q0 13 8 26q70 115 132 218q26 43 53.5 88.5t52 86.5t45.5 75t34 56h-327q-20 0 -35 14.5t-15 35.5q0 20 15 35t35 15h416z" />
    <glyph glyph-name="eight" unicode="8" horiz-adv-x="581" 
d="M424 400q43 -31 69 -79.5t26 -105.5q0 -47 -18 -88.5t-49 -72t-72.5 -48.5t-88.5 -18t-88.5 18t-72.5 48.5t-49 72t-18 88.5q0 57 25.5 105.5t69.5 79.5q-24 25 -38 57.5t-14 70.5t14.5 71.5t39.5 58.5t59 39.5t72 14.5t71.5 -14.5t58.5 -39.5t39.5 -58.5t14.5 -71.5
t-13.5 -70.5t-37.5 -57.5zM202 528q0 -37 26 -63t63 -26q18 0 34 7t28 19t19 28.5t7 34.5t-7 34t-19 28t-28 19t-34 7t-34.5 -7t-28.5 -19t-19 -28t-7 -34zM291 88q26 0 49.5 10t41 27t27.5 40.5t10 49.5q0 27 -10 50t-27.5 40.5t-41 27.5t-49.5 10q-27 0 -50 -10
t-40.5 -27.5t-27.5 -40.5t-10 -50q0 -26 10 -49.5t27.5 -40.5t40.5 -27t50 -10z" />
    <glyph glyph-name="nine" unicode="9" horiz-adv-x="655" 
d="M140 261q-38 38 -57.5 86t-19.5 101q0 54 19.5 101.5t57.5 85.5t86 57.5t101 19.5q54 0 101.5 -19.5t85.5 -57.5t57.5 -85.5t19.5 -101.5q0 -52 -19.5 -97t-54.5 -87l-181 -242q-12 -17 -32.5 -20t-37.5 10q-17 12 -19.5 32.5t9.5 37.5l76 102h-5q-53 0 -101 19.5
t-86 57.5zM327 612q-34 0 -63.5 -13t-52 -35t-35.5 -52t-13 -64t13 -63.5t35.5 -52t52 -35.5t63.5 -13q35 0 65 11t52 32t34.5 51.5t12.5 69.5q0 34 -13 64t-35 52t-52 35t-64 13z" />
    <glyph glyph-name="colon" unicode=":" horiz-adv-x="260" 
d="M200 64q0 -26 -19 -45t-45 -19t-45 19t-19 45t19 45t45 19t45 -19t19 -45zM200 349q0 -26 -19 -45t-45 -19t-45 19t-19 45t19 45t45 19t45 -19t19 -45z" />
    <glyph glyph-name="semicolon" unicode=";" horiz-adv-x="270" 
d="M155 104q20 -8 28.5 -26.5t0.5 -38.5l-77 -198q-8 -20 -26.5 -29t-38.5 -1t-28.5 26.5t-0.5 38.5l76 199q8 19 27 28t39 1zM194 349q0 -26 -19 -45t-45 -19t-45 19t-19 45t19 45t45 19t45 -19t19 -45z" />
    <glyph glyph-name="less" unicode="&#x3c;" horiz-adv-x="692" 
d="M566 627q19 9 38.5 2t28.5 -26q5 -12 5 -21q0 -14 -7.5 -26.5t-21.5 -19.5q-77 -37 -149 -71q-31 -15 -63.5 -30.5t-64 -30.5t-60.5 -29t-52 -25q23 -11 52 -25t60.5 -29.5t64 -31t63.5 -30.5q72 -34 149 -71q29 -15 29 -45q0 -10 -5 -22q-9 -19 -28.5 -25.5t-38.5 2.5
l-483 232q-14 6 -21.5 18.5t-7.5 26.5t7.5 26.5t21.5 18.5l483 232v0z" />
    <glyph glyph-name="equal" unicode="=" horiz-adv-x="714" 
d="M610 537q21 0 35.5 -15t14.5 -35q0 -21 -14.5 -35.5t-35.5 -14.5h-506q-20 0 -35 14.5t-15 35.5q0 20 15 35t35 15h506zM610 263q21 0 35.5 -15t14.5 -35q0 -21 -14.5 -35.5t-35.5 -14.5h-506q-20 0 -35 14.5t-15 35.5q0 20 15 35t35 15h506z" />
    <glyph glyph-name="greater" unicode="&#x3e;" horiz-adv-x="692" 
d="M609 395q14 -6 21.5 -18.5t7.5 -26.5t-7.5 -26.5t-21.5 -18.5l-483 -232q-19 -9 -38.5 -2.5t-28.5 25.5q-5 12 -5 22q0 30 29 45q77 37 149 71q31 15 63.5 30.5t64 31t60.5 29.5t52 25q-23 11 -52 25t-60.5 29t-64 30.5t-63.5 30.5q-72 34 -149 71q-14 7 -21.5 19.5
t-7.5 26.5q0 9 5 21q9 19 28.5 26t38.5 -2z" />
    <glyph glyph-name="question" unicode="?" horiz-adv-x="514" 
d="M56 642q34 34 77.5 52t91.5 18q49 0 93 -19t76.5 -51t51.5 -76t19 -93q0 -50 -19 -93.5t-51.5 -76t-76.5 -51.5t-93 -19q-20 0 -35 15t-15 35q0 21 15 35.5t35 14.5q29 0 54.5 11t44.5 30t30 44.5t11 54.5q0 28 -11 53.5t-30 44.5t-44.5 30t-54.5 11q-57 0 -98 -41
q-15 -14 -36 -14t-35 14q-15 15 -15 35.5t15 35.5zM287 64q0 -26 -19 -45t-45 -19t-45 19t-19 45t19 45t45 19t45 -19t19 -45z" />
    <glyph glyph-name="at" unicode="@" horiz-adv-x="1040" 
d="M404 473q36 3 64 5t43 2q80 0 130 -39q64 -51 68 -160q1 -10 1.5 -22t0.5 -23v-186q0 -21 -15 -35.5t-35 -14.5h-180q-63 0 -103 35q-16 14 -31 41t-15 73q0 45 15 72t31 41q40 35 103 35h127q-6 48 -30 66q-22 17 -67 17q-10 0 -34 -1.5t-63 -5.5q-21 -2 -37 11.5
t-18 33.5q-2 21 11.5 37t33.5 18zM444 110q13 -10 37 -10h130v97h-130q-26 0 -37 -10q-12 -11 -12 -38q0 -29 12 -39zM520 702q96 0 180 -37q83 -34 148 -99q64 -65 99 -147q37 -88 37 -181q0 -110 -52 -211q-9 -18 -28.5 -24.5t-38.5 3.5q-19 9 -25 28.5t3 38.5
q41 79 41 165q0 73 -27.5 139.5t-79.5 117.5q-52 52 -118 79.5t-139 27.5t-139 -27.5t-118 -79.5q-52 -51 -79.5 -117.5t-27.5 -139.5t27.5 -139t79.5 -118q52 -51 118 -78.5t139 -27.5q21 0 35.5 -15t14.5 -35q0 -21 -14.5 -35.5t-35.5 -14.5q-95 0 -180 36q-42 17 -79 42
t-69 57q-65 66 -99 148q-37 88 -37 180q0 93 37 181q17 42 42 78.5t57 68.5q65 65 148 99q84 37 180 37z" />
    <glyph glyph-name="A" unicode="A" 
d="M737 73q10 -18 3.5 -38t-24.5 -29q-19 -10 -38.5 -4t-29.5 25l-14 28q-7 14 -17 32t-21 41h-431q-24 -45 -38 -73l-14 -28q-10 -19 -29.5 -25t-38.5 4q-18 9 -24.5 29t3.5 38l312 600q7 12 19 19.5t26 7.5t25.5 -7.5t18.5 -19.5zM544 228q-23 43 -46.5 88.5t-45 87.5
t-40.5 77.5t-31 59.5q-13 -24 -31.5 -59.5t-40.5 -77.5t-46 -87.5t-46 -88.5h327z" />
    <glyph glyph-name="B" unicode="B" horiz-adv-x="713" 
d="M431 700q39 0 73.5 -15t60 -40.5t40.5 -60.5t15 -74q0 -40 -15.5 -75t-42.5 -61q36 -29 57.5 -71.5t21.5 -92.5q0 -44 -16.5 -82t-45 -66.5t-67 -45t-81.5 -16.5h-282q-21 0 -35.5 14.5t-14.5 35.5v600q0 20 14.5 35t35.5 15h282zM199 600v-180h232q37 0 63 26.5t26 63.5
t-26 63.5t-63 26.5h-232zM199 320v-220h232q23 0 43 8.5t35 23.5t23.5 35t8.5 43t-8.5 43t-23.5 35t-35 23.5t-43 8.5h-232z" />
    <glyph glyph-name="C" unicode="C" horiz-adv-x="759" 
d="M285 684q68 28 141 28q71 0 141 -28q66 -29 115 -78q14 -15 14 -35.5t-14 -35.5q-15 -14 -35.5 -14t-35.5 14q-37 38 -84.5 57.5t-100.5 19.5t-100.5 -19.5t-85.5 -57.5q-37 -37 -57 -84.5t-20 -100.5t20 -100.5t57 -85.5q38 -37 85.5 -56.5t100.5 -19.5t100.5 19.5
t84.5 56.5q15 15 35.5 15t35.5 -15q14 -14 14 -35t-14 -35q-49 -50 -115 -78q-34 -14 -69.5 -21t-71.5 -7q-76 0 -141 28q-64 26 -116 78q-50 50 -77 115q-29 67 -29 141q0 72 29 141q27 65 77 115q52 50 116 78z" />
    <glyph glyph-name="D" unicode="D" horiz-adv-x="831" 
d="M419 700q70 0 133.5 -26.5t113.5 -76.5t76 -113.5t26 -133.5q0 -71 -26 -134.5t-76 -113.5t-113.5 -76t-133.5 -26h-270q-20 0 -35 14.5t-15 35.5v600q0 20 15 35t35 15h270zM199 600v-500h220q50 0 95.5 19t80.5 54t54 80.5t19 96.5q0 50 -19 95.5t-54 80.5
q-35 36 -80.5 55t-95.5 19h-220z" />
    <glyph glyph-name="E" unicode="E" horiz-adv-x="693" 
d="M580 100q21 0 35.5 -14.5t14.5 -35.5t-14.5 -35.5t-35.5 -14.5h-431q-20 0 -35 14.5t-15 35.5v600q0 20 15 35t35 15h431q21 0 35.5 -15t14.5 -35q0 -21 -14.5 -35.5t-35.5 -14.5h-381v-200h329q21 0 35.5 -15t14.5 -35q0 -21 -14.5 -35.5t-35.5 -14.5h-329v-200h381v0z
" />
    <glyph glyph-name="F" unicode="F" horiz-adv-x="657" 
d="M580 700q21 0 35.5 -15t14.5 -35q0 -21 -14.5 -35.5t-35.5 -14.5h-381v-200h329q21 0 35.5 -15t14.5 -35q0 -21 -14.5 -35.5t-35.5 -14.5h-329v-250q0 -21 -14.5 -35.5t-35.5 -14.5q-20 0 -35 14.5t-15 35.5v600q0 20 15 35t35 15h431v0z" />
    <glyph glyph-name="G" unicode="G" horiz-adv-x="768" 
d="M285 684q68 28 141 28q71 0 141 -28q66 -29 115 -78q14 -15 14 -35.5t-14 -35.5q-15 -14 -35.5 -14t-35.5 14q-37 38 -84.5 57.5t-100.5 19.5t-100.5 -19.5t-85.5 -57.5q-37 -37 -57 -84.5t-20 -100.5t20 -100.5t57 -85.5q38 -37 85.5 -56.5t100.5 -19.5q48 0 91.5 16
t78.5 47v129q0 21 15 35.5t35 14.5q21 0 35.5 -14.5t14.5 -35.5v-151q0 -21 -14 -35q-49 -50 -115 -78q-34 -14 -69.5 -21t-71.5 -7q-76 0 -141 28q-64 26 -116 78q-50 50 -77 115q-29 67 -29 141q0 72 29 141q27 65 77 115q52 50 116 78z" />
    <glyph glyph-name="H" unicode="H" horiz-adv-x="832" 
d="M683 700q21 0 35.5 -15t14.5 -35v-600q0 -21 -14.5 -35.5t-35.5 -14.5q-20 0 -35 14.5t-15 35.5v250h-434v-250q0 -21 -15 -35.5t-35 -14.5q-21 0 -35.5 14.5t-14.5 35.5v600q0 20 14.5 35t35.5 15q20 0 35 -15t15 -35v-250h434v250q0 20 15 35t35 15z" />
    <glyph glyph-name="I" unicode="I" horiz-adv-x="299" 
d="M99 650q0 20 14.5 35t35.5 15t35.5 -15t14.5 -35v-600q0 -21 -14.5 -35.5t-35.5 -14.5t-35.5 14.5t-14.5 35.5v600v0z" />
    <glyph glyph-name="J" unicode="J" horiz-adv-x="558" 
d="M363 650q0 20 15 35t35 15q21 0 35.5 -15t14.5 -35v-423q0 -50 -19 -93.5t-51 -75.5t-76 -51t-93 -19q-48 0 -91.5 17.5t-77.5 52.5q-14 14 -14 35t14 35q15 15 35.5 15t35.5 -15q40 -40 98 -40q29 0 54.5 11t44 29.5t29.5 44t11 54.5v423v0z" />
    <glyph glyph-name="K" unicode="K" horiz-adv-x="692" 
d="M650 89q10 -8 14.5 -18t4.5 -21q0 -17 -12 -32q-13 -16 -33.5 -18t-36.5 11l-366 300h-22v-261q0 -21 -14.5 -35.5t-35.5 -14.5t-35.5 14.5t-14.5 35.5v600q0 20 14.5 35t35.5 15t35.5 -15t14.5 -35v-262h22l366 300q16 14 36.5 12t33.5 -19q12 -14 12 -31q0 -24 -19 -39
q-70 -58 -132 -109q-27 -22 -54.5 -44.5t-52 -42.5t-45.5 -37t-34 -28q13 -11 34 -28.5t45.5 -37.5t52 -42.5t54.5 -44.5q62 -51 132 -108z" />
    <glyph glyph-name="L" unicode="L" horiz-adv-x="639" 
d="M99 650q0 20 15 35t35 15q21 0 35.5 -15t14.5 -35v-550h381q21 0 35.5 -14.5t14.5 -35.5t-14.5 -35.5t-35.5 -14.5h-431q-20 0 -35 14.5t-15 35.5v600v0z" />
    <glyph glyph-name="M" unicode="M" horiz-adv-x="915" 
d="M727 681q11 12 26 16.5t30 -0.5t24.5 -18t9.5 -29v-600q0 -21 -15 -35.5t-35 -14.5q-21 0 -35.5 14.5t-14.5 35.5v456q-35 -43 -73 -91t-71 -90q-39 -48 -76 -96q-14 -19 -39 -19t-39 19q-37 48 -76 96q-33 42 -71.5 90t-72.5 91v-456q0 -21 -14.5 -35.5t-35.5 -14.5
q-20 0 -35 14.5t-15 35.5v600q0 16 9.5 29t24.5 18t30 0.5t25 -16.5q59 -75 112 -142q22 -29 45.5 -58t44.5 -55.5t39 -48.5t29 -36q11 14 28.5 36t38.5 48.5t44 55.5l46 58q53 67 112 142z" />
    <glyph glyph-name="N" unicode="N" horiz-adv-x="806" 
d="M131 696q15 6 30 2t26 -16q86 -103 165 -197q34 -40 69.5 -82.5t69 -82t63.5 -74.5t53 -61v465q0 20 14.5 35t35.5 15t35.5 -15t14.5 -35v-600q0 -16 -9 -28.5t-24 -17.5q-14 -6 -29 -2t-26 16q-86 103 -165 197q-34 40 -69.5 82t-69.5 82t-64 75t-52 61v-465
q0 -21 -15 -35.5t-35 -14.5q-21 0 -35.5 14.5t-14.5 35.5v600q0 15 9 28t23 18z" />
    <glyph glyph-name="O" unicode="O" horiz-adv-x="850" 
d="M284 684q70 28 141 28t141 -28q66 -29 115 -78t78 -115q28 -66 28 -141q0 -76 -28 -141q-29 -66 -78 -115q-49 -50 -115 -78t-141 -28t-141 28t-115 78q-51 51 -78 115q-28 65 -28 141q0 75 28 141q27 64 78 115q49 49 115 78zM239 164q38 -37 85.5 -56.5t100.5 -19.5
t100.5 19.5t84.5 56.5q38 38 57.5 85.5t19.5 100.5t-19.5 100.5t-57.5 84.5q-37 38 -84.5 57.5t-100.5 19.5t-100.5 -19.5t-85.5 -57.5q-37 -37 -56.5 -84.5t-19.5 -100.5t19.5 -100.5t56.5 -85.5z" />
    <glyph glyph-name="P" unicode="P" horiz-adv-x="712" 
d="M431 700q49 0 92 -18.5t75 -51t50.5 -75.5t18.5 -92t-18.5 -92t-50.5 -75t-75 -50.5t-92 -18.5h-232v-177q0 -21 -14.5 -35.5t-35.5 -14.5t-35.5 14.5t-14.5 35.5v600q0 20 14.5 35t35.5 15h282zM199 600v-273h232q28 0 53 10.5t43.5 29t29 43.5t10.5 53t-10.5 53t-29 44
t-43.5 29.5t-53 10.5h-232z" />
    <glyph glyph-name="Q" unicode="Q" horiz-adv-x="859" 
d="M759 85q14 -14 14 -35t-15 -36q-14 -14 -35 -14t-35 15l-45 45q-18 -14 -37.5 -24.5t-39.5 -19.5q-66 -28 -141 -28t-141 28t-115 78q-51 51 -78 115q-28 65 -28 141q0 75 28 141q27 64 78 115q49 49 115 78q70 28 141 28t141 -28q66 -29 115 -78t78 -115q28 -66 28 -141
q0 -76 -28 -141q-19 -43 -46 -78zM425 88q81 0 146 44l-93 94q-14 14 -14 35t14 35q15 15 36 15t35 -15l93 -93q22 32 33.5 69.5t11.5 77.5q0 53 -19.5 100.5t-57.5 84.5q-37 38 -84.5 57.5t-100.5 19.5t-100.5 -19.5t-85.5 -57.5q-37 -37 -56.5 -84.5t-19.5 -100.5
t19.5 -100.5t56.5 -85.5q38 -37 85.5 -56.5t100.5 -19.5z" />
    <glyph glyph-name="R" unicode="R" horiz-adv-x="745" 
d="M666 80q14 -15 13 -36t-16 -35q-16 -14 -36.5 -13t-34.5 16l-198 215h-195v-177q0 -21 -15 -35.5t-35 -14.5q-21 0 -35.5 14.5t-14.5 35.5v600q0 20 14.5 35t35.5 15h282q49 0 92 -18.5t75 -51t50.5 -75.5t18.5 -92q0 -38 -11 -72t-31.5 -62.5t-48 -50.5t-60.5 -35z
M199 327h232q28 0 53 10.5t43.5 29t29 43.5t10.5 53t-10.5 53t-29 44t-43.5 29.5t-53 10.5h-232v-273z" />
    <glyph glyph-name="S" unicode="S" horiz-adv-x="685" 
d="M175 667q32 22 75 33.5t93 11.5q53 0 108 -11t95 -29q19 -8 26 -27.5t-1 -38.5q-9 -19 -28 -26t-38 1q-30 14 -75 22.5t-87 8.5q-35 0 -63.5 -7t-48.5 -21q-36 -24 -36 -68q0 -13 6 -28.5t29 -30.5q39 -25 120 -37q115 -17 183 -62q42 -29 64 -68t22 -86
q0 -51 -22.5 -93.5t-65.5 -71.5q-37 -26 -84.5 -38.5t-103.5 -12.5q-146 0 -245 77q-17 13 -19.5 33.5t10.5 36.5q13 17 33 19.5t37 -10.5q32 -24 66 -37q50 -19 118 -19q82 0 132 33q44 31 44 83q0 14 -6.5 32.5t-35.5 38.5q-49 32 -141 46q-100 15 -160 52q-81 52 -81 143
q0 47 20.5 86t59.5 65z" />
    <glyph glyph-name="T" unicode="T" horiz-adv-x="624" 
d="M556 700q20 0 35 -15t15 -35q0 -21 -15 -35.5t-35 -14.5h-194v-550q0 -21 -14.5 -35.5t-35.5 -14.5t-35.5 14.5t-14.5 35.5v550h-194q-21 0 -35.5 14.5t-14.5 35.5q0 20 14.5 35t35.5 15h488v0z" />
    <glyph glyph-name="U" unicode="U" horiz-adv-x="845" 
d="M654 650q0 20 15 35t35 15q21 0 35.5 -15t14.5 -35v-330q0 -67 -24.5 -127t-72.5 -108t-108 -72.5t-127 -24.5t-127 24.5t-108 72.5t-72.5 108t-24.5 127v330q0 20 14.5 35t35.5 15q20 0 35 -15t15 -35v-330q0 -48 18 -90.5t49.5 -74t74 -49.5t90.5 -18t90 18t73.5 49.5
t50 74t18.5 90.5v330v0z" />
    <glyph glyph-name="V" unicode="V" horiz-adv-x="779" 
d="M657 673q10 18 29.5 24.5t38.5 -3.5q18 -10 24.5 -29.5t-3.5 -38.5l-312 -599q-7 -13 -18.5 -20t-25.5 -7q-31 0 -45 27l-312 599q-10 19 -3.5 38.5t24.5 29.5q19 10 38.5 3.5t29.5 -24.5q57 -111 109 -210q22 -42 45 -86.5t44 -85t39.5 -75t30.5 -58.5q12 24 30 58.5
t39 75t44 85t45 86.5q52 99 109 210z" />
    <glyph glyph-name="W" unicode="W" horiz-adv-x="972" 
d="M856 699q20 -2 32.5 -18.5t10.5 -37.5l-76 -599q-2 -16 -12.5 -27.5t-25.5 -15.5t-29.5 2t-23.5 19l-240 348l-240 -348q-9 -13 -23.5 -19t-29.5 -2t-25.5 15.5t-12.5 27.5l-76 599q-3 21 10 37.5t33 18.5q21 3 37.5 -10t18.5 -33q11 -90 22 -175q4 -37 9.5 -76.5
t10.5 -78t9.5 -74.5t8.5 -66q30 44 65.5 96t67.5 98q37 54 74 107q14 22 41 22q12 0 23 -5.5t18 -16.5q36 -53 73 -107q32 -46 68 -98t66 -96q4 30 8.5 66t9 74.5t9.5 78t10 76.5q11 85 23 175q2 20 18.5 33t37.5 10z" />
    <glyph glyph-name="X" unicode="X" horiz-adv-x="744" 
d="M703 86q14 -15 13.5 -35.5t-15.5 -34.5t-36 -14t-35 16l-256 270l-260 -275q-14 -15 -35 -15.5t-36 13.5t-15.5 35t13.5 36l264 278l-241 255q-14 15 -13.5 35.5t15.5 34.5t36 14t35 -16l237 -250l238 251q14 15 35 15.5t36 -13.5t15.5 -35t-13.5 -36l-242 -255l260 -274
v0z" />
    <glyph glyph-name="Y" unicode="Y" horiz-adv-x="672" 
d="M633 690q17 -12 20 -32.5t-9 -37.5l-258 -355v-215q0 -21 -14.5 -35.5t-35.5 -14.5t-35.5 14.5t-14.5 35.5v215l-258 355q-12 17 -9 37.5t20 32.5t37.5 9t32.5 -20q48 -67 92 -127q18 -26 37.5 -52.5t37.5 -51t33.5 -46t26.5 -36.5q11 15 26.5 36.5t33.5 46t37 51
t38 52.5q43 60 92 127q12 17 32.5 20t37.5 -9z" />
    <glyph glyph-name="Z" unicode="Z" horiz-adv-x="696" 
d="M601 700q15 0 27 -8t18 -21q5 -9 5 -21q0 -18 -12 -33q-96 -113 -180 -213q-36 -43 -73.5 -87t-71.5 -84.5t-63.5 -75t-48.5 -57.5h399q21 0 35.5 -14.5t14.5 -35.5t-14.5 -35.5t-35.5 -14.5h-506q-32 0 -46 29q-4 9 -4 21q0 18 12 32q95 113 179 213q36 43 73.5 87
t71.5 85t63 75.5t49 57.5h-398q-21 0 -35.5 14.5t-14.5 35.5q0 20 14.5 35t35.5 15h506z" />
    <glyph glyph-name="bracketleft" unicode="[" horiz-adv-x="326" 
d="M248 833q21 0 35.5 -15t14.5 -35q0 -21 -14.5 -35.5t-35.5 -14.5h-94v-766h94q21 0 35.5 -14.5t14.5 -35.5t-14.5 -35.5t-35.5 -14.5h-144q-20 0 -35 14.5t-15 35.5v866q0 20 15 35t35 15h144v0z" />
    <glyph glyph-name="backslash" unicode="\" horiz-adv-x="488" 
d="M448 -66q7 -20 -1.5 -38.5t-28.5 -25.5t-38.5 1.5t-25.5 28.5l-315 865q-8 20 1 38.5t29 25.5q19 8 37.5 -0.5t26.5 -28.5z" />
    <glyph glyph-name="bracketright" unicode="]" horiz-adv-x="326" 
d="M221 833q20 0 35 -15t15 -35v-866q0 -21 -15 -35.5t-35 -14.5h-144q-21 0 -35.5 14.5t-14.5 35.5t14.5 35.5t35.5 14.5h94v766h-94q-21 0 -35.5 14.5t-14.5 35.5q0 20 14.5 35t35.5 15h144z" />
    <glyph glyph-name="asciicircum" unicode="^" horiz-adv-x="698" 
d="M304 672q7 13 19 20.5t26 7.5q31 0 44 -28l245 -474q10 -19 3.5 -38.5t-25.5 -28.5q-18 -10 -37.5 -3.5t-29.5 24.5q-40 78 -78 151q-16 31 -33 64t-33 64t-30.5 59t-25.5 50q-11 -22 -26 -50t-31 -59t-33 -64t-33 -64q-38 -73 -77 -151q-10 -18 -29.5 -24.5t-38.5 3.5
q-18 9 -24.5 28.5t3.5 38.5l244 474v0z" />
    <glyph glyph-name="underscore" unicode="_" horiz-adv-x="637" 
d="M586 -44q21 0 36 -15t15 -36t-15 -35.5t-36 -14.5h-536q-21 0 -35.5 14.5t-14.5 35.5t14.5 36t35.5 15h536z" />
    <glyph glyph-name="grave" unicode="`" horiz-adv-x="290" 
d="M198 839q17 -14 18.5 -34t-11.5 -36q-14 -17 -34.5 -18.5t-36.5 11.5l-120 101q-16 14 -18 34.5t12 36.5q13 16 33.5 18t36.5 -12z" />
    <glyph glyph-name="a" unicode="a" 
d="M737 73q10 -18 3.5 -38t-24.5 -29q-19 -10 -38.5 -4t-29.5 25l-14 28q-7 14 -17 32t-21 41h-431q-24 -45 -38 -73l-14 -28q-10 -19 -29.5 -25t-38.5 4q-18 9 -24.5 29t3.5 38l312 600q7 12 19 19.5t26 7.5t25.5 -7.5t18.5 -19.5zM544 228q-23 43 -46.5 88.5t-45 87.5
t-40.5 77.5t-31 59.5q-13 -24 -31.5 -59.5t-40.5 -77.5t-46 -87.5t-46 -88.5h327z" />
    <glyph glyph-name="b" unicode="b" horiz-adv-x="713" 
d="M431 700q39 0 73.5 -15t60 -40.5t40.5 -60.5t15 -74q0 -40 -15.5 -75t-42.5 -61q36 -29 57.5 -71.5t21.5 -92.5q0 -44 -16.5 -82t-45 -66.5t-67 -45t-81.5 -16.5h-282q-21 0 -35.5 14.5t-14.5 35.5v600q0 20 14.5 35t35.5 15h282zM199 600v-180h232q37 0 63 26.5t26 63.5
t-26 63.5t-63 26.5h-232zM199 320v-220h232q23 0 43 8.5t35 23.5t23.5 35t8.5 43t-8.5 43t-23.5 35t-35 23.5t-43 8.5h-232z" />
    <glyph glyph-name="c" unicode="c" horiz-adv-x="759" 
d="M285 684q68 28 141 28q71 0 141 -28q66 -29 115 -78q14 -15 14 -35.5t-14 -35.5q-15 -14 -35.5 -14t-35.5 14q-37 38 -84.5 57.5t-100.5 19.5t-100.5 -19.5t-85.5 -57.5q-37 -37 -57 -84.5t-20 -100.5t20 -100.5t57 -85.5q38 -37 85.5 -56.5t100.5 -19.5t100.5 19.5
t84.5 56.5q15 15 35.5 15t35.5 -15q14 -14 14 -35t-14 -35q-49 -50 -115 -78q-34 -14 -69.5 -21t-71.5 -7q-76 0 -141 28q-64 26 -116 78q-50 50 -77 115q-29 67 -29 141q0 72 29 141q27 65 77 115q52 50 116 78z" />
    <glyph glyph-name="d" unicode="d" horiz-adv-x="831" 
d="M419 700q70 0 133.5 -26.5t113.5 -76.5t76 -113.5t26 -133.5q0 -71 -26 -134.5t-76 -113.5t-113.5 -76t-133.5 -26h-270q-20 0 -35 14.5t-15 35.5v600q0 20 15 35t35 15h270zM199 600v-500h220q50 0 95.5 19t80.5 54t54 80.5t19 96.5q0 50 -19 95.5t-54 80.5
q-35 36 -80.5 55t-95.5 19h-220z" />
    <glyph glyph-name="e" unicode="e" horiz-adv-x="693" 
d="M580 100q21 0 35.5 -14.5t14.5 -35.5t-14.5 -35.5t-35.5 -14.5h-431q-20 0 -35 14.5t-15 35.5v600q0 20 15 35t35 15h431q21 0 35.5 -15t14.5 -35q0 -21 -14.5 -35.5t-35.5 -14.5h-381v-200h329q21 0 35.5 -15t14.5 -35q0 -21 -14.5 -35.5t-35.5 -14.5h-329v-200h381v0z
" />
    <glyph glyph-name="f" unicode="f" horiz-adv-x="657" 
d="M580 700q21 0 35.5 -15t14.5 -35q0 -21 -14.5 -35.5t-35.5 -14.5h-381v-200h329q21 0 35.5 -15t14.5 -35q0 -21 -14.5 -35.5t-35.5 -14.5h-329v-250q0 -21 -14.5 -35.5t-35.5 -14.5q-20 0 -35 14.5t-15 35.5v600q0 20 15 35t35 15h431v0z" />
    <glyph glyph-name="g" unicode="g" horiz-adv-x="768" 
d="M285 684q68 28 141 28q71 0 141 -28q66 -29 115 -78q14 -15 14 -35.5t-14 -35.5q-15 -14 -35.5 -14t-35.5 14q-37 38 -84.5 57.5t-100.5 19.5t-100.5 -19.5t-85.5 -57.5q-37 -37 -57 -84.5t-20 -100.5t20 -100.5t57 -85.5q38 -37 85.5 -56.5t100.5 -19.5q48 0 91.5 16
t78.5 47v129q0 21 15 35.5t35 14.5q21 0 35.5 -14.5t14.5 -35.5v-151q0 -21 -14 -35q-49 -50 -115 -78q-34 -14 -69.5 -21t-71.5 -7q-76 0 -141 28q-64 26 -116 78q-50 50 -77 115q-29 67 -29 141q0 72 29 141q27 65 77 115q52 50 116 78z" />
    <glyph glyph-name="h" unicode="h" horiz-adv-x="832" 
d="M683 700q21 0 35.5 -15t14.5 -35v-600q0 -21 -14.5 -35.5t-35.5 -14.5q-20 0 -35 14.5t-15 35.5v250h-434v-250q0 -21 -15 -35.5t-35 -14.5q-21 0 -35.5 14.5t-14.5 35.5v600q0 20 14.5 35t35.5 15q20 0 35 -15t15 -35v-250h434v250q0 20 15 35t35 15z" />
    <glyph glyph-name="i" unicode="i" horiz-adv-x="299" 
d="M99 650q0 20 14.5 35t35.5 15t35.5 -15t14.5 -35v-600q0 -21 -14.5 -35.5t-35.5 -14.5t-35.5 14.5t-14.5 35.5v600v0z" />
    <glyph glyph-name="j" unicode="j" horiz-adv-x="558" 
d="M363 650q0 20 15 35t35 15q21 0 35.5 -15t14.5 -35v-423q0 -50 -19 -93.5t-51 -75.5t-76 -51t-93 -19q-48 0 -91.5 17.5t-77.5 52.5q-14 14 -14 35t14 35q15 15 35.5 15t35.5 -15q40 -40 98 -40q29 0 54.5 11t44 29.5t29.5 44t11 54.5v423v0z" />
    <glyph glyph-name="k" unicode="k" horiz-adv-x="692" 
d="M650 89q10 -8 14.5 -18t4.5 -21q0 -17 -12 -32q-13 -16 -33.5 -18t-36.5 11l-366 300h-22v-261q0 -21 -14.5 -35.5t-35.5 -14.5t-35.5 14.5t-14.5 35.5v600q0 20 14.5 35t35.5 15t35.5 -15t14.5 -35v-262h22l366 300q16 14 36.5 12t33.5 -19q12 -14 12 -31q0 -24 -19 -39
q-70 -58 -132 -109q-27 -22 -54.5 -44.5t-52 -42.5t-45.5 -37t-34 -28q13 -11 34 -28.5t45.5 -37.5t52 -42.5t54.5 -44.5q62 -51 132 -108z" />
    <glyph glyph-name="l" unicode="l" horiz-adv-x="639" 
d="M99 650q0 20 15 35t35 15q21 0 35.5 -15t14.5 -35v-550h381q21 0 35.5 -14.5t14.5 -35.5t-14.5 -35.5t-35.5 -14.5h-431q-20 0 -35 14.5t-15 35.5v600v0z" />
    <glyph glyph-name="m" unicode="m" horiz-adv-x="915" 
d="M727 681q11 12 26 16.5t30 -0.5t24.5 -18t9.5 -29v-600q0 -21 -15 -35.5t-35 -14.5q-21 0 -35.5 14.5t-14.5 35.5v456q-35 -43 -73 -91t-71 -90q-39 -48 -76 -96q-14 -19 -39 -19t-39 19q-37 48 -76 96q-33 42 -71.5 90t-72.5 91v-456q0 -21 -14.5 -35.5t-35.5 -14.5
q-20 0 -35 14.5t-15 35.5v600q0 16 9.5 29t24.5 18t30 0.5t25 -16.5q59 -75 112 -142q22 -29 45.5 -58t44.5 -55.5t39 -48.5t29 -36q11 14 28.5 36t38.5 48.5t44 55.5l46 58q53 67 112 142z" />
    <glyph glyph-name="n" unicode="n" horiz-adv-x="806" 
d="M131 696q15 6 30 2t26 -16q86 -103 165 -197q34 -40 69.5 -82.5t69 -82t63.5 -74.5t53 -61v465q0 20 14.5 35t35.5 15t35.5 -15t14.5 -35v-600q0 -16 -9 -28.5t-24 -17.5q-14 -6 -29 -2t-26 16q-86 103 -165 197q-34 40 -69.5 82t-69.5 82t-64 75t-52 61v-465
q0 -21 -15 -35.5t-35 -14.5q-21 0 -35.5 14.5t-14.5 35.5v600q0 15 9 28t23 18z" />
    <glyph glyph-name="o" unicode="o" horiz-adv-x="850" 
d="M284 684q70 28 141 28t141 -28q66 -29 115 -78t78 -115q28 -66 28 -141q0 -76 -28 -141q-29 -66 -78 -115q-49 -50 -115 -78t-141 -28t-141 28t-115 78q-51 51 -78 115q-28 65 -28 141q0 75 28 141q27 64 78 115q49 49 115 78zM239 164q38 -37 85.5 -56.5t100.5 -19.5
t100.5 19.5t84.5 56.5q38 38 57.5 85.5t19.5 100.5t-19.5 100.5t-57.5 84.5q-37 38 -84.5 57.5t-100.5 19.5t-100.5 -19.5t-85.5 -57.5q-37 -37 -56.5 -84.5t-19.5 -100.5t19.5 -100.5t56.5 -85.5z" />
    <glyph glyph-name="p" unicode="p" horiz-adv-x="712" 
d="M431 700q49 0 92 -18.5t75 -51t50.5 -75.5t18.5 -92t-18.5 -92t-50.5 -75t-75 -50.5t-92 -18.5h-232v-177q0 -21 -14.5 -35.5t-35.5 -14.5t-35.5 14.5t-14.5 35.5v600q0 20 14.5 35t35.5 15h282zM199 600v-273h232q28 0 53 10.5t43.5 29t29 43.5t10.5 53t-10.5 53t-29 44
t-43.5 29.5t-53 10.5h-232z" />
    <glyph glyph-name="q" unicode="q" horiz-adv-x="859" 
d="M759 85q14 -14 14 -35t-15 -36q-14 -14 -35 -14t-35 15l-45 45q-18 -14 -37.5 -24.5t-39.5 -19.5q-66 -28 -141 -28t-141 28t-115 78q-51 51 -78 115q-28 65 -28 141q0 75 28 141q27 64 78 115q49 49 115 78q70 28 141 28t141 -28q66 -29 115 -78t78 -115q28 -66 28 -141
q0 -76 -28 -141q-19 -43 -46 -78zM425 88q81 0 146 44l-93 94q-14 14 -14 35t14 35q15 15 36 15t35 -15l93 -93q22 32 33.5 69.5t11.5 77.5q0 53 -19.5 100.5t-57.5 84.5q-37 38 -84.5 57.5t-100.5 19.5t-100.5 -19.5t-85.5 -57.5q-37 -37 -56.5 -84.5t-19.5 -100.5
t19.5 -100.5t56.5 -85.5q38 -37 85.5 -56.5t100.5 -19.5z" />
    <glyph glyph-name="r" unicode="r" horiz-adv-x="743" 
d="M666 80q14 -15 13 -36t-16 -35q-16 -14 -36.5 -13t-34.5 16l-198 215h-195v-177q0 -21 -15 -35.5t-35 -14.5q-21 0 -35.5 14.5t-14.5 35.5v600q0 20 14.5 35t35.5 15h282q49 0 92 -18.5t75 -51t50.5 -75.5t18.5 -92q0 -38 -11 -72t-31.5 -62.5t-48 -50.5t-60.5 -35z
M199 327h232q28 0 53 10.5t43.5 29t29 43.5t10.5 53t-10.5 53t-29 44t-43.5 29.5t-53 10.5h-232v-273z" />
    <glyph glyph-name="s" unicode="s" horiz-adv-x="685" 
d="M175 667q32 22 75 33.5t93 11.5q53 0 108 -11t95 -29q19 -8 26 -27.5t-1 -38.5q-9 -19 -28 -26t-38 1q-30 14 -75 22.5t-87 8.5q-35 0 -63.5 -7t-48.5 -21q-36 -24 -36 -68q0 -13 6 -28.5t29 -30.5q39 -25 120 -37q115 -17 183 -62q42 -29 64 -68t22 -86
q0 -51 -22.5 -93.5t-65.5 -71.5q-37 -26 -84.5 -38.5t-103.5 -12.5q-146 0 -245 77q-17 13 -19.5 33.5t10.5 36.5q13 17 33 19.5t37 -10.5q32 -24 66 -37q50 -19 118 -19q82 0 132 33q44 31 44 83q0 14 -6.5 32.5t-35.5 38.5q-49 32 -141 46q-100 15 -160 52q-81 52 -81 143
q0 47 20.5 86t59.5 65z" />
    <glyph glyph-name="t" unicode="t" horiz-adv-x="624" 
d="M556 700q20 0 35 -15t15 -35q0 -21 -15 -35.5t-35 -14.5h-194v-550q0 -21 -14.5 -35.5t-35.5 -14.5t-35.5 14.5t-14.5 35.5v550h-194q-21 0 -35.5 14.5t-14.5 35.5q0 20 14.5 35t35.5 15h488v0z" />
    <glyph glyph-name="u" unicode="u" horiz-adv-x="845" 
d="M654 650q0 20 15 35t35 15q21 0 35.5 -15t14.5 -35v-330q0 -67 -24.5 -127t-72.5 -108t-108 -72.5t-127 -24.5t-127 24.5t-108 72.5t-72.5 108t-24.5 127v330q0 20 14.5 35t35.5 15q20 0 35 -15t15 -35v-330q0 -48 18 -90.5t49.5 -74t74 -49.5t90.5 -18t90 18t73.5 49.5
t50 74t18.5 90.5v330v0z" />
    <glyph glyph-name="v" unicode="v" horiz-adv-x="779" 
d="M657 673q10 18 29.5 24.5t38.5 -3.5q18 -10 24.5 -29.5t-3.5 -38.5l-312 -599q-7 -13 -18.5 -20t-25.5 -7q-31 0 -45 27l-312 599q-10 19 -3.5 38.5t24.5 29.5q19 10 38.5 3.5t29.5 -24.5q57 -111 109 -210q22 -42 45 -86.5t44 -85t39.5 -75t30.5 -58.5q12 24 30 58.5
t39 75t44 85t45 86.5q52 99 109 210z" />
    <glyph glyph-name="w" unicode="w" horiz-adv-x="972" 
d="M856 699q20 -2 32.5 -18.5t10.5 -37.5l-76 -599q-2 -16 -12.5 -27.5t-25.5 -15.5t-29.5 2t-23.5 19l-240 348l-240 -348q-9 -13 -23.5 -19t-29.5 -2t-25.5 15.5t-12.5 27.5l-76 599q-3 21 10 37.5t33 18.5q21 3 37.5 -10t18.5 -33q11 -90 22 -175q4 -37 9.5 -76.5
t10.5 -78t9.5 -74.5t8.5 -66q30 44 65.5 96t67.5 98q37 54 74 107q14 22 41 22q12 0 23 -5.5t18 -16.5q36 -53 73 -107q32 -46 68 -98t66 -96q4 30 8.5 66t9 74.5t9.5 78t10 76.5q11 85 23 175q2 20 18.5 33t37.5 10z" />
    <glyph glyph-name="x" unicode="x" horiz-adv-x="744" 
d="M703 86q14 -15 13.5 -35.5t-15.5 -34.5t-36 -14t-35 16l-256 270l-260 -275q-14 -15 -35 -15.5t-36 13.5t-15.5 35t13.5 36l264 278l-241 255q-14 15 -13.5 35.5t15.5 34.5t36 14t35 -16l237 -250l238 251q14 15 35 15.5t36 -13.5t15.5 -35t-13.5 -36l-242 -255l260 -274
v0z" />
    <glyph glyph-name="y" unicode="y" horiz-adv-x="672" 
d="M633 690q17 -12 20 -32.5t-9 -37.5l-258 -355v-215q0 -21 -14.5 -35.5t-35.5 -14.5t-35.5 14.5t-14.5 35.5v215l-258 355q-12 17 -9 37.5t20 32.5t37.5 9t32.5 -20q48 -67 92 -127q18 -26 37.5 -52.5t37.5 -51t33.5 -46t26.5 -36.5q11 15 26.5 36.5t33.5 46t37 51
t38 52.5q43 60 92 127q12 17 32.5 20t37.5 -9z" />
    <glyph glyph-name="z" unicode="z" horiz-adv-x="696" 
d="M601 700q15 0 27 -8t18 -21q5 -9 5 -21q0 -18 -12 -33q-96 -113 -180 -213q-36 -43 -73.5 -87t-71.5 -84.5t-63.5 -75t-48.5 -57.5h399q21 0 35.5 -14.5t14.5 -35.5t-14.5 -35.5t-35.5 -14.5h-506q-32 0 -46 29q-4 9 -4 21q0 18 12 32q95 113 179 213q36 43 73.5 87
t71.5 85t63 75.5t49 57.5h-398q-21 0 -35.5 14.5t-14.5 35.5q0 20 14.5 35t35.5 15h506z" />
    <glyph glyph-name="braceleft" unicode="{" horiz-adv-x="418" 
d="M173 662q0 35 13 65.5t36 53.5t53.5 36.5t65.5 13.5q21 0 35.5 -15t14.5 -35q0 -21 -14.5 -35.5t-35.5 -14.5q-28 0 -48 -20t-20 -49v-161q0 -35 -13 -65t-36 -53q23 -23 36 -53.5t13 -65.5v-226q0 -29 20 -49t48 -20q21 0 35.5 -14.5t14.5 -35.5t-14.5 -35.5
t-35.5 -14.5q-35 0 -65.5 13.5t-53.5 36.5t-36 53.5t-13 65.5v226q0 29 -20 49t-49 20q-20 0 -35 14.5t-15 35.5q0 20 15 35t35 15q29 0 49 20t20 48v161v0z" />
    <glyph glyph-name="bar" unicode="|" horiz-adv-x="209" 
d="M54 783q0 20 14.5 35t35.5 15t35.5 -15t14.5 -35v-866q0 -21 -14.5 -35.5t-35.5 -14.5t-35.5 14.5t-14.5 35.5v866v0z" />
    <glyph glyph-name="braceright" unicode="}" horiz-adv-x="418" 
d="M245 501q0 -28 20 -48t49 -20q20 0 35 -15t15 -35q0 -21 -15 -35.5t-35 -14.5q-29 0 -49 -20t-20 -49v-226q0 -35 -13 -65.5t-36 -53.5t-53.5 -36.5t-65.5 -13.5q-21 0 -35.5 14.5t-14.5 35.5t14.5 35.5t35.5 14.5q28 0 48 20t20 49v226q0 35 13 65.5t36 53.5
q-23 23 -36 53t-13 65v161q0 29 -20 49t-48 20q-21 0 -35.5 14.5t-14.5 35.5q0 20 14.5 35t35.5 15q35 0 65.5 -13.5t53.5 -36.5t36 -53.5t13 -65.5v-161z" />
    <glyph glyph-name="asciitilde" unicode="~" horiz-adv-x="665" 
d="M91 471q21 29 50.5 44t64.5 15q27 0 49.5 -7.5t42 -19.5t36 -26.5t31.5 -27.5q29 -26 49.5 -40.5t45.5 -14.5q13 0 22.5 7t16 17.5t9.5 23t3 23.5q0 20 15 35t35 15q21 0 35.5 -15t14.5 -35q0 -31 -9.5 -60.5t-26.5 -52.5q-22 -29 -51.5 -43.5t-63.5 -14.5q-28 0 -51 7.5
t-43 19.5t-36.5 26.5t-31.5 28.5q-28 25 -48.5 39.5t-43.5 14.5q-4 0 -14 -2.5t-21 -16.5q-8 -11 -12.5 -25t-4.5 -28q0 -21 -14.5 -35.5t-35.5 -14.5q-20 0 -35 14.5t-15 35.5q0 31 10 60.5t27 52.5z" />
    <glyph glyph-name="uni00A0" unicode="&#xa0;" horiz-adv-x="360" 
 />
    <glyph glyph-name="exclamdown" unicode="&#xa1;" horiz-adv-x="296" 
d="M204 37q0 -21 -14.5 -35.5t-35.5 -14.5t-35.5 14.5t-14.5 35.5v379q0 20 14.5 35t35.5 15t35.5 -15t14.5 -35v-379zM90 635q0 26 19 45t45 19t45 -19t19 -45t-19 -45t-45 -19t-45 19t-19 45z" />
    <glyph glyph-name="cent" unicode="&#xa2;" horiz-adv-x="614" 
d="M545 138q14 -14 14 -35t-14 -35q-32 -32 -70.5 -52t-81.5 -28v-35q0 -21 -15 -35.5t-35 -14.5q-21 0 -35.5 14.5t-14.5 35.5v35q-89 14 -155 80q-41 41 -62.5 93t-21.5 110t21.5 110t62.5 93q66 65 155 80v47q0 21 14.5 35.5t35.5 14.5q20 0 35 -14.5t15 -35.5v-47
q43 -8 81.5 -28t70.5 -52q14 -15 14 -35.5t-14 -35.5q-15 -14 -35.5 -14t-35.5 14q-36 36 -81 48v-361q47 14 81 48q15 15 35.5 15t35.5 -15zM154 271q0 -33 10.5 -62t29 -53t44 -41t55.5 -25v362q-30 -8 -55.5 -25.5t-44 -41t-29 -53t-10.5 -61.5z" />
    <glyph glyph-name="sterling" unicode="&#xa3;" horiz-adv-x="654" 
d="M532 100q21 0 35.5 -14.5t14.5 -35.5t-14.5 -35.5t-35.5 -14.5h-366q-21 0 -35.5 14.5t-14.5 35.5v250h-30q-21 0 -35.5 14.5t-14.5 35.5q0 20 14.5 35t35.5 15h30v67v1q0 49 18.5 93t53.5 79t79.5 53.5t93.5 18.5q50 0 94.5 -18.5t79.5 -53.5q14 -14 14 -35t-14 -36
q-15 -14 -36 -14t-35 14q-43 43 -103 43q-30 0 -56.5 -11.5t-46 -31t-31 -46t-11.5 -56.5v-1v-66h274q21 0 35.5 -15t14.5 -35q0 -21 -14.5 -35.5t-35.5 -14.5h-274v-200h316v0z" />
    <glyph glyph-name="currency" unicode="&#xa4;" horiz-adv-x="681" 
d="M611 149q15 -14 15 -35t-15 -35q-15 -15 -35.5 -15t-35.5 15l-51 51q-67 -46 -149 -46q-83 0 -149 46l-51 -51q-15 -15 -36 -15t-35 15q-15 14 -15 35t15 35l51 52q-46 66 -46 149q0 82 46 149l-51 51q-15 15 -15 35.5t15 35.5q14 14 35 14t36 -14l51 -51q32 22 70 33.5
t79 11.5q81 0 149 -45l51 51q15 14 35.5 14t35.5 -14q15 -15 15 -35.5t-15 -35.5l-51 -51q45 -68 45 -149q0 -41 -11.5 -79t-33.5 -70zM223 233q23 -24 53.5 -36.5t63.5 -12.5t63.5 12.5t53.5 36.5q23 23 35.5 53.5t12.5 63.5t-12.5 63.5t-35.5 53.5t-53.5 35.5t-63.5 12.5
t-63.5 -12.5t-53.5 -35.5t-36 -53.5t-13 -63.5t13 -63.5t36 -53.5z" />
    <glyph glyph-name="yen" unicode="&#xa5;" horiz-adv-x="659" 
d="M583 690q17 -12 20.5 -32.5t-9.5 -37.5l-158 -220h95q21 0 35.5 -15t14.5 -35q0 -21 -14.5 -35.5t-35.5 -14.5h-152v-250q0 -21 -14.5 -35.5t-35.5 -14.5t-35.5 14.5t-14.5 35.5v250h-152q-21 0 -35.5 14.5t-14.5 35.5q0 20 14.5 35t35.5 15h95l-159 220
q-12 17 -8.5 37.5t20.5 32.5t37 9t32 -20q38 -52 72 -100q29 -42 60.5 -84.5t52.5 -71.5q20 29 51.5 71.5t60.5 84.5q34 48 72 100q13 17 33 20t37 -9z" />
    <glyph glyph-name="brokenbar" unicode="&#xa6;" horiz-adv-x="209" 
d="M54 794q0 20 14.5 35t35.5 15t35.5 -15t14.5 -35v-290q0 -21 -14.5 -35.5t-35.5 -14.5t-35.5 14.5t-14.5 35.5v290zM54 195q0 20 14.5 35t35.5 15t35.5 -15t14.5 -35v-290q0 -21 -14.5 -35.5t-35.5 -14.5t-35.5 14.5t-14.5 35.5v290z" />
    <glyph glyph-name="section" unicode="&#xa7;" horiz-adv-x="555" 
d="M459 681q20 -6 30 -24t5 -38q-6 -20 -24 -30t-38 -5l-14 4q-32 9 -62.5 16.5t-62.5 7.5q-15 0 -32.5 -3t-30.5 -14q-5 -3 -13.5 -15.5t-8.5 -45.5q0 -10 3 -17.5t12.5 -14t27 -13.5t46.5 -16l5 -2q28 -8 56 -17.5t52 -26.5q64 -45 64 -125q0 -52 -30 -92q-12 -16 -31 -32
q61 -43 61 -122q0 -59 -19.5 -93.5t-40.5 -51.5q-51 -42 -133 -42q-40 0 -78 9t-79 20l-19 5q-20 5 -30 23t-5 38t23 30.5t38 5.5l20 -6q36 -10 68 -17.5t62 -7.5q16 0 35.5 4t33.5 15q24 20 24 68q0 13 -4 22.5t-15 17.5t-29.5 15.5t-48.5 16.5l-3 1q-27 8 -53.5 17.5
t-49.5 24.5q-30 19 -45 47q-18 30 -18 70q0 74 63 129q-2 2 -3 2q-27 19 -43 47q-17 31 -17 68q0 57 19 89.5t39 49.5q48 39 127 39q44 0 81.5 -9t71.5 -19zM374 302q0 13 -4 23t-14.5 17.5t-27.5 14.5t-43 15l-22.5 -12.5t-25.5 -18t-20.5 -24t-8.5 -29.5q0 -11 3.5 -18.5
t13 -14t26 -13t42.5 -14.5q8 2 19 6t23 12q26 15 32.5 30t6.5 26z" />
    <glyph glyph-name="dieresis" unicode="&#xa8;" horiz-adv-x="295" 
d="M96 847q0 -24 -16.5 -41t-40.5 -17t-41 17t-17 41t17 40.5t41 16.5t40.5 -16.5t16.5 -40.5zM314 847q0 -24 -17 -41t-41 -17t-40.5 17t-16.5 41t16.5 40.5t40.5 16.5t41 -16.5t17 -40.5z" />
    <glyph glyph-name="copyright" unicode="&#xa9;" horiz-adv-x="827" 
d="M410 548q40 0 76 -15t64 -43q14 -13 14 -31.5t-14 -32.5q-13 -13 -31.5 -13t-31.5 13q-32 32 -77 32q-22 0 -41.5 -8.5t-34.5 -23t-23.5 -34.5t-8.5 -42t8.5 -41.5t23.5 -34.5t34.5 -23.5t41.5 -8.5q45 0 77 32q13 13 31.5 13t31.5 -13q14 -14 14 -32t-14 -32
q-28 -28 -64 -43t-76 -15q-41 0 -77 15.5t-63 42.5t-42.5 63t-15.5 77t15.5 77t42.5 63t63 42.5t77 15.5zM408 704q72 0 136 -26.5t114 -77.5q51 -50 77.5 -114t26.5 -136t-26.5 -135.5t-77.5 -114.5q-50 -51 -114 -77.5t-136 -26.5t-135.5 26.5t-114.5 77.5t-77.5 114.5
t-26.5 135.5t26.5 136t77.5 114q51 51 114.5 77.5t135.5 26.5zM408 86q54 0 101.5 19.5t85.5 57.5t57.5 86t19.5 101q0 54 -19.5 101.5t-57.5 85.5t-85.5 57.5t-101.5 19.5t-101.5 -19.5t-85.5 -57.5t-57.5 -85.5t-19.5 -101.5q0 -53 19.5 -101t57.5 -86t85.5 -57.5
t101.5 -19.5z" />
    <glyph glyph-name="ordfeminine" unicode="&#xaa;" horiz-adv-x="464" 
d="M415 381q8 -14 2.5 -29t-19.5 -23t-29 -2.5t-23 19.5l-6 12q-3 6 -7.5 14t-9.5 18h-194q-5 -10 -9.5 -18t-7.5 -14l-6 -12q-8 -14 -23 -19.5t-29 2.5t-19.5 23t2.5 29l155 297q5 10 14 15.5t20 5.5t20 -5.5t14 -15.5zM283 468q-15 29 -30 57.5t-27 51.5
q-12 -23 -27 -51.5t-30 -57.5h114z" />
    <glyph glyph-name="guillemotleft" unicode="&#xab;" horiz-adv-x="656" 
d="M576 567q18 -15 18 -39q0 -18 -12 -31q-25 -31 -48 -59q-20 -24 -41 -49t-34 -41q12 -17 30.5 -42t36.5 -48q20 -27 43 -57q9 -14 9 -30q0 -25 -20 -40q-17 -12 -37 -9.5t-33 19.5l-132 179q-11 14 -10.5 31t11.5 31l148 178q14 17 34.5 19t36.5 -12zM213 560
q14 17 34.5 19t36.5 -12q18 -15 18 -39q0 -18 -12 -31q-25 -31 -48 -59q-20 -24 -41 -49t-34 -41q12 -17 30.5 -42t36.5 -48q20 -27 43 -57q9 -14 9 -30q0 -25 -20 -40q-17 -12 -37 -9.5t-33 19.5l-132 179q-11 14 -10.5 31t11.5 31z" />
    <glyph glyph-name="logicalnot" unicode="&#xac;" horiz-adv-x="689" 
d="M585 537q21 0 35.5 -15t14.5 -35v-274q0 -21 -14.5 -35.5t-35.5 -14.5q-20 0 -35 14.5t-15 35.5v224h-431q-20 0 -35 14.5t-15 35.5q0 20 15 35t35 15h481z" />
    <glyph glyph-name="uni00AD" unicode="&#xad;" horiz-adv-x="404" 
d="M300 400q20 0 35 -15t15 -35q0 -21 -15 -35.5t-35 -14.5h-196q-20 0 -35 14.5t-15 35.5q0 20 15 35t35 15h196z" />
    <glyph glyph-name="registered" unicode="&#xae;" horiz-adv-x="827" 
d="M158 600q51 51 114.5 77.5t135.5 26.5t136 -26.5t114 -77.5q51 -50 77.5 -114t26.5 -136t-26.5 -135.5t-77.5 -114.5q-50 -51 -114 -77.5t-136 -26.5t-135.5 26.5t-114.5 77.5t-77.5 114.5t-26.5 135.5t26.5 136t77.5 114zM221 163q38 -38 85.5 -57.5t101.5 -19.5
t101.5 19.5t85.5 57.5t57.5 86t19.5 101q0 54 -19.5 101.5t-57.5 85.5t-85.5 57.5t-101.5 19.5t-101.5 -19.5t-85.5 -57.5t-57.5 -85.5t-19.5 -101.5q0 -53 19.5 -101t57.5 -86zM572 236q13 -14 12 -32.5t-15 -31.5t-32.5 -12t-31.5 15l-90 99h-67v-67q0 -19 -13 -32
t-32 -13t-32 13t-13 32v294q0 19 13 32t32 13h138q28 0 53 -10.5t44 -29t29.5 -43.5t10.5 -53q0 -36 -17 -66t-45 -48zM348 364h93q20 0 33.5 13t13.5 33q0 19 -13.5 32.5t-33.5 13.5h-93v-92z" />
    <glyph glyph-name="macron" unicode="&#xaf;" horiz-adv-x="298" 
d="M264 908q21 0 35.5 -14.5t14.5 -35.5q0 -20 -14.5 -35t-35.5 -15h-210q-21 0 -35.5 15t-14.5 35q0 21 14.5 35.5t35.5 14.5h210z" />
    <glyph glyph-name="degree" unicode="&#xb0;" horiz-adv-x="450" 
d="M54 538q0 35 13.5 66t36.5 54.5t54 37t67 13.5q35 0 66 -13.5t54.5 -37t37 -54.5t13.5 -66q0 -36 -13.5 -67t-37 -54t-54.5 -36.5t-66 -13.5q-36 0 -67 13.5t-54 36.5t-36.5 54t-13.5 67zM121 538q0 -22 8 -41t22.5 -33t33.5 -22t40 -8t40 8t33.5 22t22.5 33t8 41
q0 21 -8 40t-22.5 33.5t-33.5 22.5t-40 8t-40 -8t-33.5 -22.5t-22.5 -33.5t-8 -40z" />
    <glyph glyph-name="plusminus" unicode="&#xb1;" horiz-adv-x="714" 
d="M660 439q0 -21 -15 -35.5t-35 -14.5h-203v-143q0 -21 -14.5 -35.5t-35.5 -14.5t-35.5 14.5t-14.5 35.5v143h-203q-21 0 -35.5 14.5t-14.5 35.5t14.5 35.5t35.5 14.5h203v144q0 20 14.5 35t35.5 15t35.5 -15t14.5 -35v-144h203q20 0 35 -14.5t15 -35.5zM610 117
q20 0 35 -14.5t15 -35.5t-15 -35.5t-35 -14.5h-506q-21 0 -35.5 14.5t-14.5 35.5t14.5 35.5t35.5 14.5h506z" />
    <glyph glyph-name="uni00B2" unicode="&#xb2;" horiz-adv-x="384" 
d="M62 582q0 26 10 48.5t27 39.5t39.5 27t48.5 10t48.5 -10t39.5 -27t27 -39.5t10 -48.5q0 -52 -37 -89l-89 -89h87q16 0 27 -11t11 -27q0 -17 -11 -28t-27 -11h-180q-26 0 -36 24q-3 7 -3 15q0 16 11 27l156 155q14 14 14 34t-14 34t-34 14t-34 -14t-14 -34q0 -17 -11 -28
t-28 -11q-16 0 -27 11t-11 28z" />
    <glyph glyph-name="uni00B3" unicode="&#xb3;" horiz-adv-x="371" 
d="M105 678q31 31 75 31q22 0 41 -8.5t33 -22.5t22.5 -33t8.5 -41q0 -17 -5.5 -32.5t-14.5 -28.5q19 -17 30 -41.5t11 -52.5q0 -26 -10 -49t-27 -40t-40 -27t-49 -10q-53 0 -90 37q-17 16 -27 40q-7 15 -0.5 29.5t20.5 21.5q15 6 30 0t21 -21q5 -10 11 -15q13 -15 35 -15
q20 0 34.5 14.5t14.5 34.5q0 21 -14.5 35.5t-34.5 14.5q-17 0 -28 11t-11 27q0 17 11 28t28 11q11 0 19 8.5t8 19.5t-8 19.5t-19 8.5q-12 0 -20 -8q-5 -5 -6 -9q-6 -15 -21 -21t-30 0q-15 7 -21 21.5t1 29.5q4 9 9 17.5t13 15.5z" />
    <glyph glyph-name="acute" unicode="&#xb4;" horiz-adv-x="290" 
d="M237 940q16 14 36.5 12t33.5 -18q14 -16 12 -36.5t-18 -34.5l-120 -101q-16 -13 -36.5 -11.5t-34.5 18.5q-13 16 -11.5 36t18.5 34l120 101v0z" />
    <glyph glyph-name="paragraph" unicode="&#xb6;" horiz-adv-x="618" 
d="M534 700q21 0 35.5 -15t14.5 -35v-743q0 -21 -14.5 -35.5t-35.5 -14.5t-35.5 14.5t-14.5 35.5v693h-102v-693q0 -21 -15 -35.5t-35 -14.5q-21 0 -35.5 14.5t-14.5 35.5v405h-34q-40 0 -75.5 15.5t-61.5 41.5t-41.5 61.5t-15.5 75.5t15.5 75.5t41.5 61.5t61.5 41.5
t75.5 15.5h286zM282 600h-34q-20 0 -37 -7.5t-29.5 -20.5t-20 -30t-7.5 -36q0 -20 7.5 -37t20 -29.5t29.5 -20t37 -7.5h34v188z" />
    <glyph glyph-name="periodcentered" unicode="&#xb7;" horiz-adv-x="260" 
d="M200 352q0 -26 -19 -45t-45 -19t-45 19t-19 45t19 45t45 19t45 -19t19 -45z" />
    <glyph glyph-name="cedilla" unicode="&#xb8;" horiz-adv-x="294" 
d="M134 34q6 20 24 30t38 5q17 -5 27 -18t10 -30q0 -5 -2 -13q-5 -16 -9 -33q-4 -14 -8.5 -31t-8.5 -32q24 -17 42 -46q19 -32 19 -72q0 -10 -1 -19t-4 -19q-8 -29 -25.5 -51.5t-41.5 -36t-52.5 -18t-57.5 3.5q-20 5 -30 23t-5 38t23 30.5t38 5.5q18 -5 34 4.5t21 26.5
q5 18 -5 34q-10 17 -27 21q-18 5 -30 23q-10 17 -5 38l36 136v0z" />
    <glyph glyph-name="uni00B9" unicode="&#xb9;" horiz-adv-x="297" 
d="M170 687q18 19 43 9q11 -5 17.5 -14.5t6.5 -21.5v-296q0 -17 -11.5 -28t-27.5 -11t-27.5 11t-11.5 28v201q-7 -7 -13.5 -14t-11.5 -12q-6 -7 -12 -13q-11 -12 -27.5 -12t-27.5 11t-11.5 27t10.5 28l104 107v0z" />
    <glyph glyph-name="ordmasculine" unicode="&#xba;" horiz-adv-x="500" 
d="M45 515q0 40 15 75t41.5 61t61.5 41.5t75 15.5t75 -15.5t61.5 -41.5t41.5 -61t15 -75t-15 -75t-41.5 -61.5t-61.5 -41.5t-75 -15t-75 15t-61.5 41.5t-41.5 61.5t-15 75zM122 515q0 -24 9 -45t25 -37t37 -25t45 -9t45 9t37 25t25 37t9 45t-9 45t-25 37t-37 25t-45 9
t-45 -9t-37 -25t-25 -37t-9 -45z" />
    <glyph glyph-name="guillemotright" unicode="&#xbb;" horiz-adv-x="656" 
d="M72 567q16 14 36.5 12t34.5 -19l148 -178q11 -14 11.5 -31t-10.5 -31l-132 -179q-13 -17 -33 -19.5t-37 9.5q-20 15 -20 40q0 16 9 30q22 30 43 57q17 23 36 48t31 42q-14 16 -34.5 41t-40.5 49q-23 28 -48 59q-12 13 -12 31q0 24 18 39zM583 382q11 -14 11.5 -31
t-10.5 -31l-132 -179q-13 -17 -33 -19.5t-37 9.5q-20 15 -20 40q0 16 9 30q22 30 43 57q17 23 36 48t31 42q-14 16 -34.5 41t-40.5 49q-23 28 -48 59q-12 13 -12 31q0 24 18 39q16 14 36.5 12t34.5 -19z" />
    <glyph glyph-name="onequarter" unicode="&#xbc;" horiz-adv-x="828" 
d="M596 360q8 10 20 13t23 -1q11 -5 18.5 -14.5t7.5 -22.5v-181h30q16 0 27.5 -11.5t11.5 -27.5t-11.5 -27.5t-27.5 -11.5h-30v-37q0 -17 -11.5 -28t-27.5 -11t-27.5 11t-11.5 28v37h-144q-24 0 -35 23q-10 21 5 41zM593 236q-13 -16 -22 -27t-16.5 -20.5t-15.5 -19.5
t-19 -23h73v90zM170 687q18 19 43 9q11 -5 17.5 -14.5t6.5 -21.5v-296q0 -17 -11.5 -28t-27.5 -11t-27.5 11t-11.5 28v201q-7 -7 -13.5 -14t-11.5 -12q-6 -7 -12 -13q-11 -12 -27.5 -12t-27.5 11t-11.5 27t10.5 28zM580 683q9 14 24.5 17t28.5 -6q14 -9 17 -25t-6 -29
l-426 -623q-9 -14 -24.5 -17t-28.5 7q-14 9 -17 24.5t6 28.5z" />
    <glyph glyph-name="onehalf" unicode="&#xbd;" horiz-adv-x="863" 
d="M173 687q18 19 43 9q11 -5 17.5 -14.5t6.5 -21.5v-296q0 -17 -11.5 -28t-27.5 -11t-27.5 11t-11.5 28v201q-7 -7 -13.5 -14t-11.5 -12q-6 -7 -12 -13q-11 -12 -27.5 -12t-27.5 11t-11.5 27t10.5 28zM583 683q9 14 24.5 17t28.5 -6q14 -9 17 -25t-6 -29l-426 -623
q-9 -14 -24.5 -17t-28.5 7q-14 9 -17 24.5t6 28.5zM518 255q0 26 10 48.5t27 39.5t39.5 27t48.5 10t48.5 -10t39.5 -27t27 -39.5t10 -48.5q0 -52 -37 -89l-89 -89h87q16 0 27 -11t11 -27q0 -17 -11 -28t-27 -11h-180q-26 0 -36 24q-3 7 -3 15q0 16 11 27l156 155
q14 14 14 34t-14 34t-34 14t-34 -14t-14 -34q0 -17 -11 -28t-28 -11q-16 0 -27 11t-11 28z" />
    <glyph glyph-name="threequarters" unicode="&#xbe;" horiz-adv-x="857" 
d="M588 683q9 14 24.5 17t28.5 -6q14 -9 17 -25t-6 -29l-426 -623q-9 -14 -24.5 -17t-28.5 7q-14 9 -17 24.5t6 28.5zM604 360q8 10 20 13t23 -1q11 -5 18.5 -14.5t7.5 -22.5v-181h30q16 0 27.5 -11.5t11.5 -27.5t-11.5 -27.5t-27.5 -11.5h-30v-37q0 -17 -11.5 -28
t-27.5 -11t-27.5 11t-11.5 28v37h-144q-24 0 -35 23q-10 21 5 41zM601 236q-13 -16 -22 -27t-16.5 -20.5t-15.5 -19.5t-19 -23h73v90zM105 678q31 31 75 31q22 0 41 -8.5t33 -22.5t22.5 -33t8.5 -41q0 -17 -5.5 -32.5t-14.5 -28.5q19 -17 30 -41.5t11 -52.5q0 -26 -10 -49
t-27 -40t-40 -27t-49 -10q-53 0 -90 37q-17 16 -27 40q-7 15 -0.5 29.5t20.5 21.5q15 6 30 0t21 -21q5 -10 11 -15q13 -15 35 -15q20 0 34.5 14.5t14.5 34.5q0 21 -14.5 35.5t-34.5 14.5q-17 0 -28 11t-11 27q0 17 11 28t28 11q11 0 19 8.5t8 19.5t-8 19.5t-19 8.5
q-12 0 -20 -8q-5 -5 -6 -9q-6 -15 -21 -21t-30 0q-15 7 -21 21.5t1 29.5q4 9 9 17.5t13 15.5z" />
    <glyph glyph-name="questiondown" unicode="&#xbf;" horiz-adv-x="514" 
d="M463 59q-34 -34 -77.5 -52t-91.5 -18q-50 0 -93.5 19t-76 51t-51.5 75.5t-19 93.5q0 49 19 93t51.5 76.5t76 51.5t93.5 19q20 0 35 -15t15 -35q0 -21 -15 -35.5t-35 -14.5q-29 0 -54.5 -11t-44.5 -30t-30 -44.5t-11 -54.5t11 -54t30 -44t44.5 -30t54.5 -11q28 0 53 10.5
t45 30.5q15 14 36 14t35 -14q15 -15 15 -35.5t-15 -35.5zM232 637q0 26 19 45t45 19t45 -19t19 -45t-19 -45t-45 -19t-45 19t-19 45z" />
    <glyph glyph-name="Agrave" unicode="&#xc0;" 
d="M737 73q10 -18 3.5 -38t-24.5 -29q-19 -10 -38.5 -4t-29.5 25l-14 28q-7 14 -17 32t-21 41h-431q-24 -45 -38 -73l-14 -28q-10 -19 -29.5 -25t-38.5 4q-18 9 -24.5 29t3.5 38l312 600q7 12 19 19.5t26 7.5t25.5 -7.5t18.5 -19.5zM544 228q-23 43 -46.5 88.5t-45 87.5
t-40.5 77.5t-31 59.5q-13 -24 -31.5 -59.5t-40.5 -77.5t-46 -87.5t-46 -88.5h327zM430 839q17 -14 18.5 -34t-11.5 -36q-14 -17 -34.5 -18.5t-36.5 11.5l-120 101q-16 14 -18 34.5t12 36.5q13 16 33.5 18t36.5 -12z" />
    <glyph glyph-name="Aacute" unicode="&#xc1;" 
d="M737 73q10 -18 3.5 -38t-24.5 -29q-19 -10 -38.5 -4t-29.5 25l-14 28q-7 14 -17 32t-21 41h-431q-24 -45 -38 -73l-14 -28q-10 -19 -29.5 -25t-38.5 4q-18 9 -24.5 29t3.5 38l312 600q7 12 19 19.5t26 7.5t25.5 -7.5t18.5 -19.5zM544 228q-23 43 -46.5 88.5t-45 87.5
t-40.5 77.5t-31 59.5q-13 -24 -31.5 -59.5t-40.5 -77.5t-46 -87.5t-46 -88.5h327zM475 940q16 14 36.5 12t33.5 -18q14 -16 12 -36.5t-18 -34.5l-120 -101q-16 -13 -36.5 -11.5t-34.5 18.5q-13 16 -11.5 36t18.5 34z" />
    <glyph glyph-name="Acircumflex" unicode="&#xc2;" 
d="M737 73q10 -18 3.5 -38t-24.5 -29q-19 -10 -38.5 -4t-29.5 25l-14 28q-7 14 -17 32t-21 41h-431q-24 -45 -38 -73l-14 -28q-10 -19 -29.5 -25t-38.5 4q-18 9 -24.5 29t3.5 38l312 600q7 12 19 19.5t26 7.5t25.5 -7.5t18.5 -19.5zM544 228q-23 43 -46.5 88.5t-45 87.5
t-40.5 77.5t-31 59.5q-13 -24 -31.5 -59.5t-40.5 -77.5t-46 -87.5t-46 -88.5h327zM348 940q14 12 32 12t32 -12l120 -101q17 -14 18.5 -34t-11.5 -36q-14 -17 -34.5 -18.5t-36.5 11.5q-15 13 -31 26q-14 11 -29 24t-28 24q-14 -11 -28.5 -24t-28.5 -24q-16 -13 -31 -26
q-16 -13 -36.5 -11.5t-34.5 18.5q-14 16 -12 36t18 34l121 101v0z" />
    <glyph glyph-name="Atilde" unicode="&#xc3;" 
d="M737 73q10 -18 3.5 -38t-24.5 -29q-19 -10 -38.5 -4t-29.5 25l-14 28q-7 14 -17 32t-21 41h-431q-24 -45 -38 -73l-14 -28q-10 -19 -29.5 -25t-38.5 4q-18 9 -24.5 29t3.5 38l312 600q7 12 19 19.5t26 7.5t25.5 -7.5t18.5 -19.5zM544 228q-23 43 -46.5 88.5t-45 87.5
t-40.5 77.5t-31 59.5q-13 -24 -31.5 -59.5t-40.5 -77.5t-46 -87.5t-46 -88.5h327zM354 888q29 26 64 35t73 -2q25 -8 41 -18.5t19 -12.5q16 -14 18 -34t-11 -36q-14 -17 -34 -19t-37 12l1 -1q-4 2 -8 5q-8 5 -19 8q-21 6 -41 -11q-60 -54 -137 -32q-25 7 -41 17.5t-19 13.5
q-17 13 -18.5 33.5t11.5 36.5q14 16 34 18t36 -11q4 -2 8 -5q9 -6 19 -8q23 -5 41 11z" />
    <glyph glyph-name="Adieresis" unicode="&#xc4;" 
d="M737 73q10 -18 3.5 -38t-24.5 -29q-19 -10 -38.5 -4t-29.5 25l-14 28q-7 14 -17 32t-21 41h-431q-24 -45 -38 -73l-14 -28q-10 -19 -29.5 -25t-38.5 4q-18 9 -24.5 29t3.5 38l312 600q7 12 19 19.5t26 7.5t25.5 -7.5t18.5 -19.5zM544 228q-23 43 -46.5 88.5t-45 87.5
t-40.5 77.5t-31 59.5q-13 -24 -31.5 -59.5t-40.5 -77.5t-46 -87.5t-46 -88.5h327zM326 847q0 -24 -16.5 -41t-40.5 -17t-41 17t-17 41t17 40.5t41 16.5t40.5 -16.5t16.5 -40.5zM544 847q0 -24 -17 -41t-41 -17t-40.5 17t-16.5 41t16.5 40.5t40.5 16.5t41 -16.5t17 -40.5z
" />
    <glyph glyph-name="Aring" unicode="&#xc5;" 
d="M236 817q0 31 12 59t32.5 48.5t48 32.5t59.5 12q31 0 59 -12t48.5 -32.5t32.5 -48.5t12 -59q0 -52 -30 -92t-78 -54l312 -598q10 -18 3.5 -38t-24.5 -29q-19 -10 -38.5 -4t-29.5 25l-14 28q-7 14 -17 32t-21 41h-431q-24 -45 -38 -73l-14 -28q-10 -19 -29.5 -25t-38.5 4
q-18 9 -24.5 29t3.5 38l311 599q-46 14 -76 54t-30 91zM551 228l-163 313l-164 -313h327zM322 817q0 -27 19.5 -46.5t46.5 -19.5t46.5 19.5t19.5 46.5t-19.5 46.5t-46.5 19.5t-46.5 -19.5t-19.5 -46.5z" />
    <glyph glyph-name="AE" unicode="&#xc6;" horiz-adv-x="1061" 
d="M970 100q21 0 35.5 -14.5t14.5 -35.5t-14.5 -35.5t-35.5 -14.5h-275q-17 0 -30.5 10t-17.5 27l-27 101h-417q-21 -26 -38 -48t-29 -38q-14 -18 -26 -33q-13 -17 -33 -19t-37 11t-19.5 33t10.5 37l468 599q17 20 40 20h431q21 0 35.5 -15t14.5 -35q0 -21 -14.5 -35.5
t-35.5 -14.5h-366q9 -35 22.5 -88t29.5 -112h262q20 0 35 -15t15 -35q0 -21 -15 -35.5t-35 -14.5h-236q9 -35 17.5 -67.5t15 -59t11.5 -45.5t8 -28h236zM594 238l-78 301q-21 -27 -48.5 -62t-58.5 -75t-64 -82t-64 -82h313z" />
    <glyph glyph-name="Ccedilla" unicode="&#xc7;" horiz-adv-x="759" 
d="M285 684q68 28 141 28q71 0 141 -28q66 -29 115 -78q14 -15 14 -35.5t-14 -35.5q-15 -14 -35.5 -14t-35.5 14q-37 38 -84.5 57.5t-100.5 19.5t-100.5 -19.5t-85.5 -57.5q-37 -37 -57 -84.5t-20 -100.5t20 -100.5t57 -85.5q38 -37 85.5 -56.5t100.5 -19.5t100.5 19.5
t84.5 56.5q15 15 35.5 15t35.5 -15q14 -14 14 -35t-14 -35q-49 -50 -115 -78q-43 -19 -93 -25q-5 -14 -9 -31.5t-9 -34.5q24 -17 42 -46q19 -32 19 -72q0 -10 -1 -19t-4 -19q-8 -29 -25.5 -51.5t-41.5 -36t-52.5 -18t-57.5 3.5q-20 5 -30 23t-5 38t23 30.5t38 5.5
q18 -5 34 4.5t21 26.5q5 18 -5 34q-10 17 -27 21q-18 5 -30 23q-10 17 -5 38l21 81q-22 4 -43.5 9.5t-41.5 14.5q-64 26 -116 78q-50 50 -77 115q-29 67 -29 141q0 72 29 141q27 65 77 115q52 50 116 78z" />
    <glyph glyph-name="Egrave" unicode="&#xc8;" horiz-adv-x="693" 
d="M580 100q21 0 35.5 -14.5t14.5 -35.5t-14.5 -35.5t-35.5 -14.5h-431q-20 0 -35 14.5t-15 35.5v600q0 20 15 35t35 15h431q21 0 35.5 -15t14.5 -35q0 -21 -14.5 -35.5t-35.5 -14.5h-381v-200h329q21 0 35.5 -15t14.5 -35q0 -21 -14.5 -35.5t-35.5 -14.5h-329v-200h381v0z
M413 839q17 -14 18.5 -34t-11.5 -36q-14 -17 -34.5 -18.5t-36.5 11.5l-120 101q-16 14 -18 34.5t12 36.5q13 16 33.5 18t36.5 -12z" />
    <glyph glyph-name="Eacute" unicode="&#xc9;" horiz-adv-x="693" 
d="M580 100q21 0 35.5 -14.5t14.5 -35.5t-14.5 -35.5t-35.5 -14.5h-431q-20 0 -35 14.5t-15 35.5v600q0 20 15 35t35 15h431q21 0 35.5 -15t14.5 -35q0 -21 -14.5 -35.5t-35.5 -14.5h-381v-200h329q21 0 35.5 -15t14.5 -35q0 -21 -14.5 -35.5t-35.5 -14.5h-329v-200h381z
M461 940q16 14 36.5 12t33.5 -18q14 -16 12 -36.5t-18 -34.5l-120 -101q-16 -13 -36.5 -11.5t-34.5 18.5q-13 16 -11.5 36t18.5 34z" />
    <glyph glyph-name="Ecircumflex" unicode="&#xca;" horiz-adv-x="682" 
d="M580 100q21 0 35.5 -14.5t14.5 -35.5t-14.5 -35.5t-35.5 -14.5h-431q-20 0 -35 14.5t-15 35.5v600q0 20 15 35t35 15h431q21 0 35.5 -15t14.5 -35q0 -21 -14.5 -35.5t-35.5 -14.5h-381v-200h329q21 0 35.5 -15t14.5 -35q0 -21 -14.5 -35.5t-35.5 -14.5h-329v-200h381z
M337 940q14 12 32 12t32 -12l120 -101q17 -14 18.5 -34t-11.5 -36q-14 -17 -34.5 -18.5t-36.5 11.5q-15 13 -31 26q-14 11 -29 24t-28 24q-14 -11 -28.5 -24t-28.5 -24q-16 -13 -31 -26q-16 -13 -36.5 -11.5t-34.5 18.5q-14 16 -12 36t18 34z" />
    <glyph glyph-name="Edieresis" unicode="&#xcb;" horiz-adv-x="693" 
d="M580 100q21 0 35.5 -14.5t14.5 -35.5t-14.5 -35.5t-35.5 -14.5h-431q-20 0 -35 14.5t-15 35.5v600q0 20 15 35t35 15h431q21 0 35.5 -15t14.5 -35q0 -21 -14.5 -35.5t-35.5 -14.5h-381v-200h329q21 0 35.5 -15t14.5 -35q0 -21 -14.5 -35.5t-35.5 -14.5h-329v-200h381z
M310 847q0 -24 -16.5 -41t-40.5 -17t-41 17t-17 41t17 40.5t41 16.5t40.5 -16.5t16.5 -40.5zM528 847q0 -24 -17 -41t-41 -17t-40.5 17t-16.5 41t16.5 40.5t40.5 16.5t41 -16.5t17 -40.5z" />
    <glyph glyph-name="Igrave" unicode="&#xcc;" horiz-adv-x="309" 
d="M109 650q0 20 14.5 35t35.5 15t35.5 -15t14.5 -35v-600q0 -21 -14.5 -35.5t-35.5 -14.5t-35.5 14.5t-14.5 35.5v600zM208 839q17 -14 18.5 -34t-11.5 -36q-14 -17 -34.5 -18.5t-36.5 11.5l-120 101q-16 14 -18 34.5t12 36.5q13 16 33.5 18t36.5 -12z" />
    <glyph glyph-name="Iacute" unicode="&#xcd;" horiz-adv-x="308" 
d="M99 650q0 20 14.5 35t35.5 15t35.5 -15t14.5 -35v-600q0 -21 -14.5 -35.5t-35.5 -14.5t-35.5 14.5t-14.5 35.5v600zM243 940q16 14 36.5 12t33.5 -18q14 -16 12 -36.5t-18 -34.5l-120 -101q-16 -13 -36.5 -11.5t-34.5 18.5q-13 16 -11.5 36t18.5 34z" />
    <glyph glyph-name="Icircumflex" unicode="&#xce;" horiz-adv-x="319" 
d="M109 650q0 20 14.5 35t35.5 15t35.5 -15t14.5 -35v-600q0 -21 -14.5 -35.5t-35.5 -14.5t-35.5 14.5t-14.5 35.5v600zM129 940q14 12 32 12t32 -12l120 -101q17 -14 18.5 -34t-11.5 -36q-14 -17 -34.5 -18.5t-36.5 11.5q-15 13 -31 26q-14 11 -29 24t-28 24
q-14 -11 -28.5 -24t-28.5 -24q-16 -13 -31 -26q-16 -13 -36.5 -11.5t-34.5 18.5q-14 16 -12 36t18 34z" />
    <glyph glyph-name="Idieresis" unicode="&#xcf;" horiz-adv-x="319" 
d="M124 650q0 20 14.5 35t35.5 15t35.5 -15t14.5 -35v-600q0 -21 -14.5 -35.5t-35.5 -14.5t-35.5 14.5t-14.5 35.5v600zM123 847q0 -24 -16.5 -41t-40.5 -17t-41 17t-17 41t17 40.5t41 16.5t40.5 -16.5t16.5 -40.5zM341 847q0 -24 -17 -41t-41 -17t-40.5 17t-16.5 41
t16.5 40.5t40.5 16.5t41 -16.5t17 -40.5z" />
    <glyph glyph-name="Eth" unicode="&#xd0;" horiz-adv-x="841" 
d="M680 597q50 -50 76.5 -113.5t26.5 -133.5q0 -71 -26.5 -134.5t-76.5 -113.5t-113.5 -76t-133.5 -26h-269q-21 0 -35.5 14.5t-14.5 35.5v250h-61q-20 0 -35 14.5t-15 35.5q0 20 15 35t35 15h61v250q0 20 14.5 35t35.5 15h269q70 0 133.5 -26.5t113.5 -76.5zM609 173
q36 35 55 80.5t19 96.5q0 50 -19 95.5t-55 80.5q-35 36 -80 55t-96 19h-219v-200h180q20 0 35 -15t15 -35q0 -21 -15 -35.5t-35 -14.5h-180v-200h219q51 0 96 19t80 54z" />
    <glyph glyph-name="Ntilde" unicode="&#xd1;" horiz-adv-x="806" 
d="M131 696q15 6 30 2t26 -16q86 -103 165 -197q34 -40 69.5 -82.5t69 -82t63.5 -74.5t53 -61v465q0 20 14.5 35t35.5 15t35.5 -15t14.5 -35v-600q0 -16 -9 -28.5t-24 -17.5q-14 -6 -29 -2t-26 16q-86 103 -165 197q-34 40 -69.5 82t-69.5 82t-64 75t-52 61v-465
q0 -21 -15 -35.5t-35 -14.5q-21 0 -35.5 14.5t-14.5 35.5v600q0 15 9 28t23 18zM379 888q29 26 64 35t73 -2q25 -8 41 -18.5t19 -12.5q16 -14 18 -34t-11 -36q-14 -17 -34 -19t-37 12l1 -1q-4 2 -8 5q-8 5 -19 8q-21 6 -41 -11q-60 -54 -137 -32q-25 7 -41 17.5t-19 13.5
q-17 13 -18.5 33.5t11.5 36.5q14 16 34 18t36 -11q4 -2 8 -5q9 -6 19 -8q23 -5 41 11z" />
    <glyph glyph-name="Ograve" unicode="&#xd2;" horiz-adv-x="850" 
d="M284 684q70 28 141 28t141 -28q66 -29 115 -78t78 -115q28 -66 28 -141q0 -76 -28 -141q-29 -66 -78 -115q-49 -50 -115 -78t-141 -28t-141 28t-115 78q-51 51 -78 115q-28 65 -28 141q0 75 28 141q27 64 78 115q49 49 115 78zM239 164q38 -37 85.5 -56.5t100.5 -19.5
t100.5 19.5t84.5 56.5q38 38 57.5 85.5t19.5 100.5t-19.5 100.5t-57.5 84.5q-37 38 -84.5 57.5t-100.5 19.5t-100.5 -19.5t-85.5 -57.5q-37 -37 -56.5 -84.5t-19.5 -100.5t19.5 -100.5t56.5 -85.5zM475 839q17 -14 18.5 -34t-11.5 -36q-14 -17 -34.5 -18.5t-36.5 11.5
l-120 101q-16 14 -18 34.5t12 36.5q13 16 33.5 18t36.5 -12z" />
    <glyph glyph-name="Oacute" unicode="&#xd3;" horiz-adv-x="850" 
d="M284 684q70 28 141 28t141 -28q66 -29 115 -78t78 -115q28 -66 28 -141q0 -76 -28 -141q-29 -66 -78 -115q-49 -50 -115 -78t-141 -28t-141 28t-115 78q-51 51 -78 115q-28 65 -28 141q0 75 28 141q27 64 78 115q49 49 115 78zM239 164q38 -37 85.5 -56.5t100.5 -19.5
t100.5 19.5t84.5 56.5q38 38 57.5 85.5t19.5 100.5t-19.5 100.5t-57.5 84.5q-37 38 -84.5 57.5t-100.5 19.5t-100.5 -19.5t-85.5 -57.5q-37 -37 -56.5 -84.5t-19.5 -100.5t19.5 -100.5t56.5 -85.5zM520 940q16 14 36.5 12t33.5 -18q14 -16 12 -36.5t-18 -34.5l-120 -101
q-16 -13 -36.5 -11.5t-34.5 18.5q-13 16 -11.5 36t18.5 34z" />
    <glyph glyph-name="Ocircumflex" unicode="&#xd4;" horiz-adv-x="850" 
d="M284 684q70 28 141 28t141 -28q66 -29 115 -78t78 -115q28 -66 28 -141q0 -76 -28 -141q-29 -66 -78 -115q-49 -50 -115 -78t-141 -28t-141 28t-115 78q-51 51 -78 115q-28 65 -28 141q0 75 28 141q27 64 78 115q49 49 115 78zM239 164q38 -37 85.5 -56.5t100.5 -19.5
t100.5 19.5t84.5 56.5q38 38 57.5 85.5t19.5 100.5t-19.5 100.5t-57.5 84.5q-37 38 -84.5 57.5t-100.5 19.5t-100.5 -19.5t-85.5 -57.5q-37 -37 -56.5 -84.5t-19.5 -100.5t19.5 -100.5t56.5 -85.5zM394 940q14 12 32 12t32 -12l120 -101q17 -14 18.5 -34t-11.5 -36
q-14 -17 -34.5 -18.5t-36.5 11.5q-15 13 -31 26q-14 11 -29 24t-28 24q-14 -11 -28.5 -24t-28.5 -24q-16 -13 -31 -26q-16 -13 -36.5 -11.5t-34.5 18.5q-14 16 -12 36t18 34l121 101v0z" />
    <glyph glyph-name="Otilde" unicode="&#xd5;" horiz-adv-x="850" 
d="M284 684q70 28 141 28t141 -28q66 -29 115 -78t78 -115q28 -66 28 -141q0 -76 -28 -141q-29 -66 -78 -115q-49 -50 -115 -78t-141 -28t-141 28t-115 78q-51 51 -78 115q-28 65 -28 141q0 75 28 141q27 64 78 115q49 49 115 78zM239 164q38 -37 85.5 -56.5t100.5 -19.5
t100.5 19.5t84.5 56.5q38 38 57.5 85.5t19.5 100.5t-19.5 100.5t-57.5 84.5q-37 38 -84.5 57.5t-100.5 19.5t-100.5 -19.5t-85.5 -57.5q-37 -37 -56.5 -84.5t-19.5 -100.5t19.5 -100.5t56.5 -85.5zM400 888q29 26 64 35t73 -2q25 -8 41 -18.5t19 -12.5q16 -14 18 -34
t-11 -36q-14 -17 -34 -19t-37 12l1 -1q-4 2 -8 5q-8 5 -19 8q-21 6 -41 -11q-60 -54 -137 -32q-25 7 -41 17.5t-19 13.5q-17 13 -18.5 33.5t11.5 36.5q14 16 34 18t36 -11q4 -2 8 -5q9 -6 19 -8q23 -5 41 11z" />
    <glyph glyph-name="Odieresis" unicode="&#xd6;" horiz-adv-x="850" 
d="M284 684q70 28 141 28t141 -28q66 -29 115 -78t78 -115q28 -66 28 -141q0 -76 -28 -141q-29 -66 -78 -115q-49 -50 -115 -78t-141 -28t-141 28t-115 78q-51 51 -78 115q-28 65 -28 141q0 75 28 141q27 64 78 115q49 49 115 78zM239 164q38 -37 85.5 -56.5t100.5 -19.5
t100.5 19.5t84.5 56.5q38 38 57.5 85.5t19.5 100.5t-19.5 100.5t-57.5 84.5q-37 38 -84.5 57.5t-100.5 19.5t-100.5 -19.5t-85.5 -57.5q-37 -37 -56.5 -84.5t-19.5 -100.5t19.5 -100.5t56.5 -85.5zM374 847q0 -24 -16.5 -41t-40.5 -17t-41 17t-17 41t17 40.5t41 16.5
t40.5 -16.5t16.5 -40.5zM592 847q0 -24 -17 -41t-41 -17t-40.5 17t-16.5 41t16.5 40.5t40.5 16.5t41 -16.5t17 -40.5z" />
    <glyph glyph-name="multiply" unicode="&#xd7;" horiz-adv-x="681" 
d="M611 149q15 -14 15 -35t-15 -35q-15 -15 -35.5 -15t-35.5 15l-200 200l-200 -200q-15 -15 -36 -15t-35 15q-15 14 -15 35t15 35l200 201l-200 200q-15 15 -15 35.5t15 35.5q14 14 35 14t36 -14q38 -39 75 -76l125 -125l200 201q15 14 35.5 14t35.5 -14q15 -15 15 -35.5
t-15 -35.5l-200 -200z" />
    <glyph glyph-name="Oslash" unicode="&#xd8;" horiz-adv-x="850" 
d="M759 491q28 -66 28 -141q0 -76 -28 -141q-29 -66 -78 -115q-49 -50 -115 -78t-141 -28q-41 0 -76 7l-35 -95q-7 -20 -25.5 -28.5t-38.5 -1.5t-28.5 25.5t-1.5 38.5l35 96q-50 27 -86 64q-51 51 -78 115q-28 65 -28 141q0 75 28 141q27 64 78 115q49 49 115 78
q70 28 141 28q20 0 38.5 -2t37.5 -6l34 96q8 20 26.5 28.5t37.5 0.5q20 -7 29 -25.5t1 -38.5l-34 -95q23 -13 44.5 -28.5t41.5 -35.5q49 -49 78 -115zM239 164q24 -23 51 -39l176 484q-20 3 -41 3q-53 0 -100.5 -19.5t-85.5 -57.5q-37 -37 -56.5 -84.5t-19.5 -100.5
t19.5 -100.5t56.5 -85.5zM610 164q38 38 57.5 85.5t19.5 100.5t-19.5 100.5t-57.5 84.5q-21 22 -50 40l-176 -484q19 -3 41 -3q53 0 100.5 19.5t84.5 56.5z" />
    <glyph glyph-name="Ugrave" unicode="&#xd9;" horiz-adv-x="845" 
d="M654 650q0 20 15 35t35 15q21 0 35.5 -15t14.5 -35v-330q0 -67 -24.5 -127t-72.5 -108t-108 -72.5t-127 -24.5t-127 24.5t-108 72.5t-72.5 108t-24.5 127v330q0 20 14.5 35t35.5 15q20 0 35 -15t15 -35v-330q0 -48 18 -90.5t49.5 -74t74 -49.5t90.5 -18t90 18t73.5 49.5
t50 74t18.5 90.5v330v0zM471 839q17 -14 18.5 -34t-11.5 -36q-14 -17 -34.5 -18.5t-36.5 11.5l-120 101q-16 14 -18 34.5t12 36.5q13 16 33.5 18t36.5 -12z" />
    <glyph glyph-name="Uacute" unicode="&#xda;" horiz-adv-x="845" 
d="M654 650q0 20 15 35t35 15q21 0 35.5 -15t14.5 -35v-330q0 -67 -24.5 -127t-72.5 -108t-108 -72.5t-127 -24.5t-127 24.5t-108 72.5t-72.5 108t-24.5 127v330q0 20 14.5 35t35.5 15q20 0 35 -15t15 -35v-330q0 -48 18 -90.5t49.5 -74t74 -49.5t90.5 -18t90 18t73.5 49.5
t50 74t18.5 90.5v330zM521 940q16 14 36.5 12t33.5 -18q14 -16 12 -36.5t-18 -34.5l-120 -101q-16 -13 -36.5 -11.5t-34.5 18.5q-13 16 -11.5 36t18.5 34z" />
    <glyph glyph-name="Ucircumflex" unicode="&#xdb;" horiz-adv-x="845" 
d="M654 650q0 20 15 35t35 15q21 0 35.5 -15t14.5 -35v-330q0 -67 -24.5 -127t-72.5 -108t-108 -72.5t-127 -24.5t-127 24.5t-108 72.5t-72.5 108t-24.5 127v330q0 20 14.5 35t35.5 15q20 0 35 -15t15 -35v-330q0 -48 18 -90.5t49.5 -74t74 -49.5t90.5 -18t90 18t73.5 49.5
t50 74t18.5 90.5v330v0zM396 940q14 12 32 12t32 -12l120 -101q17 -14 18.5 -34t-11.5 -36q-14 -17 -34.5 -18.5t-36.5 11.5q-15 13 -31 26q-14 11 -29 24t-28 24q-14 -11 -28.5 -24t-28.5 -24q-16 -13 -31 -26q-16 -13 -36.5 -11.5t-34.5 18.5q-14 16 -12 36t18 34l121 101
v0z" />
    <glyph glyph-name="Udieresis" unicode="&#xdc;" horiz-adv-x="845" 
d="M654 650q0 20 15 35t35 15q21 0 35.5 -15t14.5 -35v-330q0 -67 -24.5 -127t-72.5 -108t-108 -72.5t-127 -24.5t-127 24.5t-108 72.5t-72.5 108t-24.5 127v330q0 20 14.5 35t35.5 15q20 0 35 -15t15 -35v-330q0 -48 18 -90.5t49.5 -74t74 -49.5t90.5 -18t90 18t73.5 49.5
t50 74t18.5 90.5v330zM366 847q0 -24 -16.5 -41t-40.5 -17t-41 17t-17 41t17 40.5t41 16.5t40.5 -16.5t16.5 -40.5zM584 847q0 -24 -17 -41t-41 -17t-40.5 17t-16.5 41t16.5 40.5t40.5 16.5t41 -16.5t17 -40.5z" />
    <glyph glyph-name="Yacute" unicode="&#xdd;" horiz-adv-x="672" 
d="M633 690q17 -12 20 -32.5t-9 -37.5l-258 -355v-215q0 -21 -14.5 -35.5t-35.5 -14.5t-35.5 14.5t-14.5 35.5v215l-258 355q-12 17 -9 37.5t20 32.5t37.5 9t32.5 -20q48 -67 92 -127q18 -26 37.5 -52.5t37.5 -51t33.5 -46t26.5 -36.5q11 15 26.5 36.5t33.5 46t37 51
t38 52.5q43 60 92 127q12 17 32.5 20t37.5 -9zM430 940q16 14 36.5 12t33.5 -18q14 -16 12 -36.5t-18 -34.5l-120 -101q-16 -13 -36.5 -11.5t-34.5 18.5q-13 16 -11.5 36t18.5 34l120 101v0z" />
    <glyph glyph-name="Thorn" unicode="&#xde;" horiz-adv-x="712" 
d="M431 586q49 0 92 -18.5t75 -50.5t50.5 -75t18.5 -92t-18.5 -92t-50.5 -75t-75 -50.5t-92 -18.5h-232v-64q0 -21 -14.5 -35.5t-35.5 -14.5t-35.5 14.5t-14.5 35.5v600q0 20 14.5 35t35.5 15t35.5 -15t14.5 -35v-64h232zM431 214q28 0 53 10.5t43.5 29t29 43.5t10.5 53
t-10.5 53t-29 43.5t-43.5 29t-53 10.5h-232v-272h232z" />
    <glyph glyph-name="germandbls" unicode="&#xdf;" horiz-adv-x="1347" 
d="M175 667q32 22 75 33.5t93 11.5q53 0 108 -11t95 -29q19 -8 26 -27.5t-1 -38.5q-9 -19 -28 -26t-38 1q-30 14 -75 22.5t-87 8.5q-35 0 -63.5 -7t-48.5 -21q-36 -24 -36 -68q0 -13 6 -28.5t29 -30.5q39 -25 120 -37q115 -17 183 -62q42 -29 64 -68t22 -86
q0 -51 -22.5 -93.5t-65.5 -71.5q-37 -26 -84.5 -38.5t-103.5 -12.5q-146 0 -245 77q-17 13 -19.5 33.5t10.5 36.5q13 17 33 19.5t37 -10.5q32 -24 66 -37q50 -19 118 -19q82 0 132 33q44 31 44 83q0 14 -6.5 32.5t-35.5 38.5q-49 32 -141 46q-100 15 -160 52q-81 52 -81 143
q0 47 20.5 86t59.5 65zM837 667q32 22 75 33.5t93 11.5q53 0 108 -11t95 -29q19 -8 26 -27.5t-1 -38.5q-9 -19 -28 -26t-38 1q-30 14 -75 22.5t-87 8.5q-35 0 -63.5 -7t-48.5 -21q-36 -24 -36 -68q0 -13 6 -28.5t29 -30.5q39 -25 120 -37q115 -17 183 -62q42 -29 64 -68
t22 -86q0 -51 -22.5 -93.5t-65.5 -71.5q-37 -26 -84.5 -38.5t-103.5 -12.5q-146 0 -245 77q-17 13 -19.5 33.5t10.5 36.5q13 17 33 19.5t37 -10.5q32 -24 66 -37q50 -19 118 -19q82 0 132 33q44 31 44 83q0 14 -6.5 32.5t-35.5 38.5q-49 32 -141 46q-100 15 -160 52
q-81 52 -81 143q0 47 20.5 86t59.5 65z" />
    <glyph glyph-name="agrave" unicode="&#xe0;" 
d="M737 73q10 -18 3.5 -38t-24.5 -29q-19 -10 -38.5 -4t-29.5 25l-14 28q-7 14 -17 32t-21 41h-431q-24 -45 -38 -73l-14 -28q-10 -19 -29.5 -25t-38.5 4q-18 9 -24.5 29t3.5 38l312 600q7 12 19 19.5t26 7.5t25.5 -7.5t18.5 -19.5zM544 228q-23 43 -46.5 88.5t-45 87.5
t-40.5 77.5t-31 59.5q-13 -24 -31.5 -59.5t-40.5 -77.5t-46 -87.5t-46 -88.5h327zM432 839q17 -14 18.5 -34t-11.5 -36q-14 -17 -34.5 -18.5t-36.5 11.5l-120 101q-16 14 -18 34.5t12 36.5q13 16 33.5 18t36.5 -12z" />
    <glyph glyph-name="aacute" unicode="&#xe1;" 
d="M737 73q10 -18 3.5 -38t-24.5 -29q-19 -10 -38.5 -4t-29.5 25l-14 28q-7 14 -17 32t-21 41h-431q-24 -45 -38 -73l-14 -28q-10 -19 -29.5 -25t-38.5 4q-18 9 -24.5 29t3.5 38l312 600q7 12 19 19.5t26 7.5t25.5 -7.5t18.5 -19.5zM544 228q-23 43 -46.5 88.5t-45 87.5
t-40.5 77.5t-31 59.5q-13 -24 -31.5 -59.5t-40.5 -77.5t-46 -87.5t-46 -88.5h327zM475 940q16 14 36.5 12t33.5 -18q14 -16 12 -36.5t-18 -34.5l-120 -101q-16 -13 -36.5 -11.5t-34.5 18.5q-13 16 -11.5 36t18.5 34z" />
    <glyph glyph-name="acircumflex" unicode="&#xe2;" 
d="M737 73q10 -18 3.5 -38t-24.5 -29q-19 -10 -38.5 -4t-29.5 25l-14 28q-7 14 -17 32t-21 41h-431q-24 -45 -38 -73l-14 -28q-10 -19 -29.5 -25t-38.5 4q-18 9 -24.5 29t3.5 38l312 600q7 12 19 19.5t26 7.5t25.5 -7.5t18.5 -19.5zM544 228q-23 43 -46.5 88.5t-45 87.5
t-40.5 77.5t-31 59.5q-13 -24 -31.5 -59.5t-40.5 -77.5t-46 -87.5t-46 -88.5h327zM350 940q14 12 32 12t32 -12l120 -101q17 -14 18.5 -34t-11.5 -36q-14 -17 -34.5 -18.5t-36.5 11.5q-15 13 -31 26q-14 11 -29 24t-28 24q-14 -11 -28.5 -24t-28.5 -24q-16 -13 -31 -26
q-16 -13 -36.5 -11.5t-34.5 18.5q-14 16 -12 36t18 34l121 101v0z" />
    <glyph glyph-name="atilde" unicode="&#xe3;" 
d="M737 73q10 -18 3.5 -38t-24.5 -29q-19 -10 -38.5 -4t-29.5 25l-14 28q-7 14 -17 32t-21 41h-431q-24 -45 -38 -73l-14 -28q-10 -19 -29.5 -25t-38.5 4q-18 9 -24.5 29t3.5 38l312 600q7 12 19 19.5t26 7.5t25.5 -7.5t18.5 -19.5zM544 228q-23 43 -46.5 88.5t-45 87.5
t-40.5 77.5t-31 59.5q-13 -24 -31.5 -59.5t-40.5 -77.5t-46 -87.5t-46 -88.5h327zM355 888q29 26 64 35t73 -2q25 -8 41 -18.5t19 -12.5q16 -14 18 -34t-11 -36q-14 -17 -34 -19t-37 12l1 -1q-4 2 -8 5q-8 5 -19 8q-21 6 -41 -11q-60 -54 -137 -32q-25 7 -41 17.5t-19 13.5
q-17 13 -18.5 33.5t11.5 36.5q14 16 34 18t36 -11q4 -2 8 -5q9 -6 19 -8q23 -5 41 11z" />
    <glyph glyph-name="adieresis" unicode="&#xe4;" 
d="M737 73q10 -18 3.5 -38t-24.5 -29q-19 -10 -38.5 -4t-29.5 25l-14 28q-7 14 -17 32t-21 41h-431q-24 -45 -38 -73l-14 -28q-10 -19 -29.5 -25t-38.5 4q-18 9 -24.5 29t3.5 38l312 600q7 12 19 19.5t26 7.5t25.5 -7.5t18.5 -19.5zM544 228q-23 43 -46.5 88.5t-45 87.5
t-40.5 77.5t-31 59.5q-13 -24 -31.5 -59.5t-40.5 -77.5t-46 -87.5t-46 -88.5h327zM327 847q0 -24 -16.5 -41t-40.5 -17t-41 17t-17 41t17 40.5t41 16.5t40.5 -16.5t16.5 -40.5zM545 847q0 -24 -17 -41t-41 -17t-40.5 17t-16.5 41t16.5 40.5t40.5 16.5t41 -16.5t17 -40.5z
" />
    <glyph glyph-name="aring" unicode="&#xe5;" 
d="M236 817q0 31 12 59t32.5 48.5t48 32.5t59.5 12q31 0 59 -12t48.5 -32.5t32.5 -48.5t12 -59q0 -52 -30 -92t-78 -54l312 -598q10 -18 3.5 -38t-24.5 -29q-19 -10 -38.5 -4t-29.5 25l-14 28q-7 14 -17 32t-21 41h-431q-24 -45 -38 -73l-14 -28q-10 -19 -29.5 -25t-38.5 4
q-18 9 -24.5 29t3.5 38l311 599q-46 14 -76 54t-30 91zM551 228l-163 313l-164 -313h327zM322 817q0 -27 19.5 -46.5t46.5 -19.5t46.5 19.5t19.5 46.5t-19.5 46.5t-46.5 19.5t-46.5 -19.5t-19.5 -46.5z" />
    <glyph glyph-name="ae" unicode="&#xe6;" horiz-adv-x="1061" 
d="M970 100q21 0 35.5 -14.5t14.5 -35.5t-14.5 -35.5t-35.5 -14.5h-275q-17 0 -30.5 10t-17.5 27l-27 101h-417q-21 -26 -38 -48t-29 -38q-14 -18 -26 -33q-13 -17 -33 -19t-37 11t-19.5 33t10.5 37l468 599q17 20 40 20h431q21 0 35.5 -15t14.5 -35q0 -21 -14.5 -35.5
t-35.5 -14.5h-366q9 -35 22.5 -88t29.5 -112h262q20 0 35 -15t15 -35q0 -21 -15 -35.5t-35 -14.5h-236q9 -35 17.5 -67.5t15 -59t11.5 -45.5t8 -28h236zM594 238l-78 301q-21 -27 -48.5 -62t-58.5 -75t-64 -82t-64 -82h313z" />
    <glyph glyph-name="ccedilla" unicode="&#xe7;" horiz-adv-x="759" 
d="M285 684q68 28 141 28q71 0 141 -28q66 -29 115 -78q14 -15 14 -35.5t-14 -35.5q-15 -14 -35.5 -14t-35.5 14q-37 38 -84.5 57.5t-100.5 19.5t-100.5 -19.5t-85.5 -57.5q-37 -37 -57 -84.5t-20 -100.5t20 -100.5t57 -85.5q38 -37 85.5 -56.5t100.5 -19.5t100.5 19.5
t84.5 56.5q15 15 35.5 15t35.5 -15q14 -14 14 -35t-14 -35q-49 -50 -115 -78q-43 -19 -93 -25q-5 -14 -9 -31.5t-9 -34.5q24 -17 42 -46q19 -32 19 -72q0 -10 -1 -19t-4 -19q-8 -29 -25.5 -51.5t-41.5 -36t-52.5 -18t-57.5 3.5q-20 5 -30 23t-5 38t23 30.5t38 5.5
q18 -5 34 4.5t21 26.5q5 18 -5 34q-10 17 -27 21q-18 5 -30 23q-10 17 -5 38l21 81q-22 4 -43.5 9.5t-41.5 14.5q-64 26 -116 78q-50 50 -77 115q-29 67 -29 141q0 72 29 141q27 65 77 115q52 50 116 78z" />
    <glyph glyph-name="egrave" unicode="&#xe8;" horiz-adv-x="693" 
d="M580 100q21 0 35.5 -14.5t14.5 -35.5t-14.5 -35.5t-35.5 -14.5h-431q-20 0 -35 14.5t-15 35.5v600q0 20 15 35t35 15h431q21 0 35.5 -15t14.5 -35q0 -21 -14.5 -35.5t-35.5 -14.5h-381v-200h329q21 0 35.5 -15t14.5 -35q0 -21 -14.5 -35.5t-35.5 -14.5h-329v-200h381v0z
M412 839q17 -14 18.5 -34t-11.5 -36q-14 -17 -34.5 -18.5t-36.5 11.5l-120 101q-16 14 -18 34.5t12 36.5q13 16 33.5 18t36.5 -12z" />
    <glyph glyph-name="eacute" unicode="&#xe9;" horiz-adv-x="693" 
d="M580 100q21 0 35.5 -14.5t14.5 -35.5t-14.5 -35.5t-35.5 -14.5h-431q-20 0 -35 14.5t-15 35.5v600q0 20 15 35t35 15h431q21 0 35.5 -15t14.5 -35q0 -21 -14.5 -35.5t-35.5 -14.5h-381v-200h329q21 0 35.5 -15t14.5 -35q0 -21 -14.5 -35.5t-35.5 -14.5h-329v-200h381z
M461 940q16 14 36.5 12t33.5 -18q14 -16 12 -36.5t-18 -34.5l-120 -101q-16 -13 -36.5 -11.5t-34.5 18.5q-13 16 -11.5 36t18.5 34z" />
    <glyph glyph-name="ecircumflex" unicode="&#xea;" horiz-adv-x="693" 
d="M580 100q21 0 35.5 -14.5t14.5 -35.5t-14.5 -35.5t-35.5 -14.5h-431q-20 0 -35 14.5t-15 35.5v600q0 20 15 35t35 15h431q21 0 35.5 -15t14.5 -35q0 -21 -14.5 -35.5t-35.5 -14.5h-381v-200h329q21 0 35.5 -15t14.5 -35q0 -21 -14.5 -35.5t-35.5 -14.5h-329v-200h381v0z
M335 940q14 12 32 12t32 -12l120 -101q17 -14 18.5 -34t-11.5 -36q-14 -17 -34.5 -18.5t-36.5 11.5q-15 13 -31 26q-14 11 -29 24t-28 24q-14 -11 -28.5 -24t-28.5 -24q-16 -13 -31 -26q-16 -13 -36.5 -11.5t-34.5 18.5q-14 16 -12 36t18 34l121 101v0z" />
    <glyph glyph-name="edieresis" unicode="&#xeb;" horiz-adv-x="693" 
d="M580 100q21 0 35.5 -14.5t14.5 -35.5t-14.5 -35.5t-35.5 -14.5h-431q-20 0 -35 14.5t-15 35.5v600q0 20 15 35t35 15h431q21 0 35.5 -15t14.5 -35q0 -21 -14.5 -35.5t-35.5 -14.5h-381v-200h329q21 0 35.5 -15t14.5 -35q0 -21 -14.5 -35.5t-35.5 -14.5h-329v-200h381z
M305 847q0 -24 -16.5 -41t-40.5 -17t-41 17t-17 41t17 40.5t41 16.5t40.5 -16.5t16.5 -40.5zM523 847q0 -24 -17 -41t-41 -17t-40.5 17t-16.5 41t16.5 40.5t40.5 16.5t41 -16.5t17 -40.5z" />
    <glyph glyph-name="igrave" unicode="&#xec;" horiz-adv-x="308" 
d="M108 650q0 20 14.5 35t35.5 15t35.5 -15t14.5 -35v-600q0 -21 -14.5 -35.5t-35.5 -14.5t-35.5 14.5t-14.5 35.5v600zM209 839q17 -14 18.5 -34t-11.5 -36q-14 -17 -34.5 -18.5t-36.5 11.5l-120 101q-16 14 -18 34.5t12 36.5q13 16 33.5 18t36.5 -12z" />
    <glyph glyph-name="iacute" unicode="&#xed;" horiz-adv-x="308" 
d="M99 650q0 20 14.5 35t35.5 15t35.5 -15t14.5 -35v-600q0 -21 -14.5 -35.5t-35.5 -14.5t-35.5 14.5t-14.5 35.5v600zM244 940q16 14 36.5 12t33.5 -18q14 -16 12 -36.5t-18 -34.5l-120 -101q-16 -13 -36.5 -11.5t-34.5 18.5q-13 16 -11.5 36t18.5 34z" />
    <glyph glyph-name="icircumflex" unicode="&#xee;" horiz-adv-x="319" 
d="M109 650q0 20 14.5 35t35.5 15t35.5 -15t14.5 -35v-600q0 -21 -14.5 -35.5t-35.5 -14.5t-35.5 14.5t-14.5 35.5v600zM129 940q14 12 32 12t32 -12l120 -101q17 -14 18.5 -34t-11.5 -36q-14 -17 -34.5 -18.5t-36.5 11.5q-15 13 -31 26q-14 11 -29 24t-28 24
q-14 -11 -28.5 -24t-28.5 -24q-16 -13 -31 -26q-16 -13 -36.5 -11.5t-34.5 18.5q-14 16 -12 36t18 34z" />
    <glyph glyph-name="idieresis" unicode="&#xef;" horiz-adv-x="319" 
d="M124 650q0 20 14.5 35t35.5 15t35.5 -15t14.5 -35v-600q0 -21 -14.5 -35.5t-35.5 -14.5t-35.5 14.5t-14.5 35.5v600zM121 847q0 -24 -16.5 -41t-40.5 -17t-41 17t-17 41t17 40.5t41 16.5t40.5 -16.5t16.5 -40.5zM339 847q0 -24 -17 -41t-41 -17t-40.5 17t-16.5 41
t16.5 40.5t40.5 16.5t41 -16.5t17 -40.5z" />
    <glyph glyph-name="eth" unicode="&#xf0;" horiz-adv-x="841" 
d="M680 597q50 -50 76.5 -113.5t26.5 -133.5q0 -71 -26.5 -134.5t-76.5 -113.5t-113.5 -76t-133.5 -26h-269q-21 0 -35.5 14.5t-14.5 35.5v250h-61q-20 0 -35 14.5t-15 35.5q0 20 15 35t35 15h61v250q0 20 14.5 35t35.5 15h269q70 0 133.5 -26.5t113.5 -76.5zM609 173
q36 35 55 80.5t19 96.5q0 50 -19 95.5t-55 80.5q-35 36 -80 55t-96 19h-219v-200h180q20 0 35 -15t15 -35q0 -21 -15 -35.5t-35 -14.5h-180v-200h219q51 0 96 19t80 54z" />
    <glyph glyph-name="ntilde" unicode="&#xf1;" horiz-adv-x="806" 
d="M131 696q15 6 30 2t26 -16q86 -103 165 -197q34 -40 69.5 -82.5t69 -82t63.5 -74.5t53 -61v465q0 20 14.5 35t35.5 15t35.5 -15t14.5 -35v-600q0 -16 -9 -28.5t-24 -17.5q-14 -6 -29 -2t-26 16q-86 103 -165 197q-34 40 -69.5 82t-69.5 82t-64 75t-52 61v-465
q0 -21 -15 -35.5t-35 -14.5q-21 0 -35.5 14.5t-14.5 35.5v600q0 15 9 28t23 18zM378 888q29 26 64 35t73 -2q25 -8 41 -18.5t19 -12.5q16 -14 18 -34t-11 -36q-14 -17 -34 -19t-37 12l1 -1q-4 2 -8 5q-8 5 -19 8q-21 6 -41 -11q-60 -54 -137 -32q-25 7 -41 17.5t-19 13.5
q-17 13 -18.5 33.5t11.5 36.5q14 16 34 18t36 -11q4 -2 8 -5q9 -6 19 -8q23 -5 41 11z" />
    <glyph glyph-name="ograve" unicode="&#xf2;" horiz-adv-x="850" 
d="M284 684q70 28 141 28t141 -28q66 -29 115 -78t78 -115q28 -66 28 -141q0 -76 -28 -141q-29 -66 -78 -115q-49 -50 -115 -78t-141 -28t-141 28t-115 78q-51 51 -78 115q-28 65 -28 141q0 75 28 141q27 64 78 115q49 49 115 78zM239 164q38 -37 85.5 -56.5t100.5 -19.5
t100.5 19.5t84.5 56.5q38 38 57.5 85.5t19.5 100.5t-19.5 100.5t-57.5 84.5q-37 38 -84.5 57.5t-100.5 19.5t-100.5 -19.5t-85.5 -57.5q-37 -37 -56.5 -84.5t-19.5 -100.5t19.5 -100.5t56.5 -85.5zM478 839q17 -14 18.5 -34t-11.5 -36q-14 -17 -34.5 -18.5t-36.5 11.5
l-120 101q-16 14 -18 34.5t12 36.5q13 16 33.5 18t36.5 -12z" />
    <glyph glyph-name="oacute" unicode="&#xf3;" horiz-adv-x="850" 
d="M284 684q70 28 141 28t141 -28q66 -29 115 -78t78 -115q28 -66 28 -141q0 -76 -28 -141q-29 -66 -78 -115q-49 -50 -115 -78t-141 -28t-141 28t-115 78q-51 51 -78 115q-28 65 -28 141q0 75 28 141q27 64 78 115q49 49 115 78zM239 164q38 -37 85.5 -56.5t100.5 -19.5
t100.5 19.5t84.5 56.5q38 38 57.5 85.5t19.5 100.5t-19.5 100.5t-57.5 84.5q-37 38 -84.5 57.5t-100.5 19.5t-100.5 -19.5t-85.5 -57.5q-37 -37 -56.5 -84.5t-19.5 -100.5t19.5 -100.5t56.5 -85.5zM519 940q16 14 36.5 12t33.5 -18q14 -16 12 -36.5t-18 -34.5l-120 -101
q-16 -13 -36.5 -11.5t-34.5 18.5q-13 16 -11.5 36t18.5 34z" />
    <glyph glyph-name="ocircumflex" unicode="&#xf4;" horiz-adv-x="850" 
d="M284 684q70 28 141 28t141 -28q66 -29 115 -78t78 -115q28 -66 28 -141q0 -76 -28 -141q-29 -66 -78 -115q-49 -50 -115 -78t-141 -28t-141 28t-115 78q-51 51 -78 115q-28 65 -28 141q0 75 28 141q27 64 78 115q49 49 115 78zM239 164q38 -37 85.5 -56.5t100.5 -19.5
t100.5 19.5t84.5 56.5q38 38 57.5 85.5t19.5 100.5t-19.5 100.5t-57.5 84.5q-37 38 -84.5 57.5t-100.5 19.5t-100.5 -19.5t-85.5 -57.5q-37 -37 -56.5 -84.5t-19.5 -100.5t19.5 -100.5t56.5 -85.5zM395 940q14 12 32 12t32 -12l120 -101q17 -14 18.5 -34t-11.5 -36
q-14 -17 -34.5 -18.5t-36.5 11.5q-15 13 -31 26q-14 11 -29 24t-28 24q-14 -11 -28.5 -24t-28.5 -24q-16 -13 -31 -26q-16 -13 -36.5 -11.5t-34.5 18.5q-14 16 -12 36t18 34l121 101v0z" />
    <glyph glyph-name="otilde" unicode="&#xf5;" horiz-adv-x="850" 
d="M284 684q70 28 141 28t141 -28q66 -29 115 -78t78 -115q28 -66 28 -141q0 -76 -28 -141q-29 -66 -78 -115q-49 -50 -115 -78t-141 -28t-141 28t-115 78q-51 51 -78 115q-28 65 -28 141q0 75 28 141q27 64 78 115q49 49 115 78zM239 164q38 -37 85.5 -56.5t100.5 -19.5
t100.5 19.5t84.5 56.5q38 38 57.5 85.5t19.5 100.5t-19.5 100.5t-57.5 84.5q-37 38 -84.5 57.5t-100.5 19.5t-100.5 -19.5t-85.5 -57.5q-37 -37 -56.5 -84.5t-19.5 -100.5t19.5 -100.5t56.5 -85.5zM402 888q29 26 64 35t73 -2q25 -8 41 -18.5t19 -12.5q16 -14 18 -34
t-11 -36q-14 -17 -34 -19t-37 12l1 -1q-4 2 -8 5q-8 5 -19 8q-21 6 -41 -11q-60 -54 -137 -32q-25 7 -41 17.5t-19 13.5q-17 13 -18.5 33.5t11.5 36.5q14 16 34 18t36 -11q4 -2 8 -5q9 -6 19 -8q23 -5 41 11z" />
    <glyph glyph-name="odieresis" unicode="&#xf6;" horiz-adv-x="850" 
d="M284 684q70 28 141 28t141 -28q66 -29 115 -78t78 -115q28 -66 28 -141q0 -76 -28 -141q-29 -66 -78 -115q-49 -50 -115 -78t-141 -28t-141 28t-115 78q-51 51 -78 115q-28 65 -28 141q0 75 28 141q27 64 78 115q49 49 115 78zM239 164q38 -37 85.5 -56.5t100.5 -19.5
t100.5 19.5t84.5 56.5q38 38 57.5 85.5t19.5 100.5t-19.5 100.5t-57.5 84.5q-37 38 -84.5 57.5t-100.5 19.5t-100.5 -19.5t-85.5 -57.5q-37 -37 -56.5 -84.5t-19.5 -100.5t19.5 -100.5t56.5 -85.5zM374 847q0 -24 -16.5 -41t-40.5 -17t-41 17t-17 41t17 40.5t41 16.5
t40.5 -16.5t16.5 -40.5zM592 847q0 -24 -17 -41t-41 -17t-40.5 17t-16.5 41t16.5 40.5t40.5 16.5t41 -16.5t17 -40.5z" />
    <glyph glyph-name="divide" unicode="&#xf7;" horiz-adv-x="714" 
d="M412 133q0 -26 -19 -45t-45 -19t-45 19t-19 45t19 45t45 19t45 -19t19 -45zM412 566q0 -26 -19 -45t-45 -19t-45 19t-19 45t19 45t45 19t45 -19t19 -45zM610 400q20 0 35 -15t15 -35q0 -21 -15 -35.5t-35 -14.5h-506q-21 0 -35.5 14.5t-14.5 35.5q0 20 14.5 35t35.5 15
h506z" />
    <glyph glyph-name="oslash" unicode="&#xf8;" horiz-adv-x="850" 
d="M759 491q28 -66 28 -141q0 -76 -28 -141q-29 -66 -78 -115q-49 -50 -115 -78t-141 -28q-41 0 -76 7l-35 -95q-7 -20 -25.5 -28.5t-38.5 -1.5t-28.5 25.5t-1.5 38.5l35 96q-50 27 -86 64q-51 51 -78 115q-28 65 -28 141q0 75 28 141q27 64 78 115q49 49 115 78
q70 28 141 28q20 0 38.5 -2t37.5 -6l34 96q8 20 26.5 28.5t37.5 0.5q20 -7 29 -25.5t1 -38.5l-34 -95q23 -13 44.5 -28.5t41.5 -35.5q49 -49 78 -115zM239 164q24 -23 51 -39l176 484q-20 3 -41 3q-53 0 -100.5 -19.5t-85.5 -57.5q-37 -37 -56.5 -84.5t-19.5 -100.5
t19.5 -100.5t56.5 -85.5zM610 164q38 38 57.5 85.5t19.5 100.5t-19.5 100.5t-57.5 84.5q-21 22 -50 40l-176 -484q19 -3 41 -3q53 0 100.5 19.5t84.5 56.5z" />
    <glyph glyph-name="ugrave" unicode="&#xf9;" horiz-adv-x="845" 
d="M654 650q0 20 15 35t35 15q21 0 35.5 -15t14.5 -35v-330q0 -67 -24.5 -127t-72.5 -108t-108 -72.5t-127 -24.5t-127 24.5t-108 72.5t-72.5 108t-24.5 127v330q0 20 14.5 35t35.5 15q20 0 35 -15t15 -35v-330q0 -48 18 -90.5t49.5 -74t74 -49.5t90.5 -18t90 18t73.5 49.5
t50 74t18.5 90.5v330v0zM476 839q17 -14 18.5 -34t-11.5 -36q-14 -17 -34.5 -18.5t-36.5 11.5l-120 101q-16 14 -18 34.5t12 36.5q13 16 33.5 18t36.5 -12z" />
    <glyph glyph-name="uacute" unicode="&#xfa;" horiz-adv-x="845" 
d="M654 650q0 20 15 35t35 15q21 0 35.5 -15t14.5 -35v-330q0 -67 -24.5 -127t-72.5 -108t-108 -72.5t-127 -24.5t-127 24.5t-108 72.5t-72.5 108t-24.5 127v330q0 20 14.5 35t35.5 15q20 0 35 -15t15 -35v-330q0 -48 18 -90.5t49.5 -74t74 -49.5t90.5 -18t90 18t73.5 49.5
t50 74t18.5 90.5v330zM521 940q16 14 36.5 12t33.5 -18q14 -16 12 -36.5t-18 -34.5l-120 -101q-16 -13 -36.5 -11.5t-34.5 18.5q-13 16 -11.5 36t18.5 34z" />
    <glyph glyph-name="ucircumflex" unicode="&#xfb;" horiz-adv-x="845" 
d="M654 650q0 20 15 35t35 15q21 0 35.5 -15t14.5 -35v-330q0 -67 -24.5 -127t-72.5 -108t-108 -72.5t-127 -24.5t-127 24.5t-108 72.5t-72.5 108t-24.5 127v330q0 20 14.5 35t35.5 15q20 0 35 -15t15 -35v-330q0 -48 18 -90.5t49.5 -74t74 -49.5t90.5 -18t90 18t73.5 49.5
t50 74t18.5 90.5v330v0zM396 940q14 12 32 12t32 -12l120 -101q17 -14 18.5 -34t-11.5 -36q-14 -17 -34.5 -18.5t-36.5 11.5q-15 13 -31 26q-14 11 -29 24t-28 24q-14 -11 -28.5 -24t-28.5 -24q-16 -13 -31 -26q-16 -13 -36.5 -11.5t-34.5 18.5q-14 16 -12 36t18 34l121 101
v0z" />
    <glyph glyph-name="udieresis" unicode="&#xfc;" horiz-adv-x="845" 
d="M654 650q0 20 15 35t35 15q21 0 35.5 -15t14.5 -35v-330q0 -67 -24.5 -127t-72.5 -108t-108 -72.5t-127 -24.5t-127 24.5t-108 72.5t-72.5 108t-24.5 127v330q0 20 14.5 35t35.5 15q20 0 35 -15t15 -35v-330q0 -48 18 -90.5t49.5 -74t74 -49.5t90.5 -18t90 18t73.5 49.5
t50 74t18.5 90.5v330zM367 847q0 -24 -16.5 -41t-40.5 -17t-41 17t-17 41t17 40.5t41 16.5t40.5 -16.5t16.5 -40.5zM585 847q0 -24 -17 -41t-41 -17t-40.5 17t-16.5 41t16.5 40.5t40.5 16.5t41 -16.5t17 -40.5z" />
    <glyph glyph-name="yacute" unicode="&#xfd;" horiz-adv-x="672" 
d="M633 690q17 -12 20 -32.5t-9 -37.5l-258 -355v-215q0 -21 -14.5 -35.5t-35.5 -14.5t-35.5 14.5t-14.5 35.5v215l-258 355q-12 17 -9 37.5t20 32.5t37.5 9t32.5 -20q48 -67 92 -127q18 -26 37.5 -52.5t37.5 -51t33.5 -46t26.5 -36.5q11 15 26.5 36.5t33.5 46t37 51
t38 52.5q43 60 92 127q12 17 32.5 20t37.5 -9zM431 940q16 14 36.5 12t33.5 -18q14 -16 12 -36.5t-18 -34.5l-120 -101q-16 -13 -36.5 -11.5t-34.5 18.5q-13 16 -11.5 36t18.5 34l120 101v0z" />
    <glyph glyph-name="thorn" unicode="&#xfe;" horiz-adv-x="712" 
d="M431 586q49 0 92 -18.5t75 -50.5t50.5 -75t18.5 -92t-18.5 -92t-50.5 -75t-75 -50.5t-92 -18.5h-232v-64q0 -21 -14.5 -35.5t-35.5 -14.5t-35.5 14.5t-14.5 35.5v600q0 20 14.5 35t35.5 15t35.5 -15t14.5 -35v-64h232zM431 214q28 0 53 10.5t43.5 29t29 43.5t10.5 53
t-10.5 53t-29 43.5t-43.5 29t-53 10.5h-232v-272h232z" />
    <glyph glyph-name="ydieresis" unicode="&#xff;" horiz-adv-x="672" 
d="M633 690q17 -12 20 -32.5t-9 -37.5l-258 -355v-215q0 -21 -14.5 -35.5t-35.5 -14.5t-35.5 14.5t-14.5 35.5v215l-258 355q-12 17 -9 37.5t20 32.5t37.5 9t32.5 -20q48 -67 92 -127q18 -26 37.5 -52.5t37.5 -51t33.5 -46t26.5 -36.5q11 15 26.5 36.5t33.5 46t37 51
t38 52.5q43 60 92 127q12 17 32.5 20t37.5 -9zM284 847q0 -24 -16.5 -41t-40.5 -17t-41 17t-17 41t17 40.5t41 16.5t40.5 -16.5t16.5 -40.5zM502 847q0 -24 -17 -41t-41 -17t-40.5 17t-16.5 41t16.5 40.5t40.5 16.5t41 -16.5t17 -40.5z" />
    <glyph glyph-name="OE" unicode="&#x152;" horiz-adv-x="1115" 
d="M1035 100q21 0 35.5 -14.5t14.5 -35.5t-14.5 -35.5t-35.5 -14.5h-428q-7 -1 -27.5 -3t-47 -4.5t-55 -4t-52.5 -1.5q-75 0 -141 28q-66 29 -115 78q-51 51 -78 115q-28 66 -28 141t28 141q27 64 78 115q49 50 115 78t141 28q24 0 52.5 -1.5t55 -3.5t47 -4t26.5 -2h429
q21 0 35.5 -15t14.5 -35q0 -21 -14.5 -35.5t-35.5 -14.5h-381v-200h329q20 0 35 -15t15 -35q0 -21 -15 -35.5t-35 -14.5h-329v-200h381zM240 164q37 -38 84.5 -57.5t100.5 -19.5q28 0 64 2.5t65 5.5v509q-29 2 -65 4.5t-64 2.5q-53 0 -100.5 -19.5t-84.5 -56.5
q-38 -38 -57.5 -85.5t-19.5 -100.5t19.5 -100.5t57.5 -84.5z" />
    <glyph glyph-name="oe" unicode="&#x153;" horiz-adv-x="1115" 
d="M1035 100q21 0 35.5 -14.5t14.5 -35.5t-14.5 -35.5t-35.5 -14.5h-428q-7 -1 -27.5 -3t-47 -4.5t-55 -4t-52.5 -1.5q-75 0 -141 28q-66 29 -115 78q-51 51 -78 115q-28 66 -28 141t28 141q27 64 78 115q49 50 115 78t141 28q24 0 52.5 -1.5t55 -3.5t47 -4t26.5 -2h429
q21 0 35.5 -15t14.5 -35q0 -21 -14.5 -35.5t-35.5 -14.5h-381v-200h329q20 0 35 -15t15 -35q0 -21 -15 -35.5t-35 -14.5h-329v-200h381zM240 164q37 -38 84.5 -57.5t100.5 -19.5q28 0 64 2.5t65 5.5v509q-29 2 -65 4.5t-64 2.5q-53 0 -100.5 -19.5t-84.5 -56.5
q-38 -38 -57.5 -85.5t-19.5 -100.5t19.5 -100.5t57.5 -84.5z" />
    <glyph glyph-name="Ydieresis" unicode="&#x178;" horiz-adv-x="672" 
 />
    <glyph glyph-name="circumflex" unicode="&#x2c6;" horiz-adv-x="295" 
d="M116 940q14 12 32 12t32 -12l120 -101q17 -14 18.5 -34t-11.5 -36q-14 -17 -34.5 -18.5t-36.5 11.5q-15 13 -31 26q-14 11 -29 24t-28 24q-14 -11 -28.5 -24t-28.5 -24q-16 -13 -31 -26q-16 -13 -36.5 -11.5t-34.5 18.5q-14 16 -12 36t18 34l121 101v0z" />
    <glyph glyph-name="tilde" unicode="&#x2dc;" horiz-adv-x="293" 
d="M119 888q29 26 64 35t73 -2q25 -8 41 -18.5t19 -12.5q16 -14 18 -34t-11 -36q-14 -17 -34 -19t-37 12l1 -1q-4 2 -8 5q-8 5 -19 8q-21 6 -41 -11q-60 -54 -137 -32q-25 7 -41 17.5t-19 13.5q-17 13 -18.5 33.5t11.5 36.5q14 16 34 18t36 -11q4 -2 8 -5q9 -6 19 -8
q23 -5 41 11z" />
    <glyph glyph-name="endash" unicode="&#x2013;" horiz-adv-x="504" 
d="M400 400q20 0 35 -15t15 -35q0 -21 -15 -35.5t-35 -14.5h-296q-20 0 -35 14.5t-15 35.5q0 20 15 35t35 15h296z" />
    <glyph glyph-name="emdash" unicode="&#x2014;" horiz-adv-x="745" 
d="M641 400q21 0 35.5 -15t14.5 -35q0 -21 -14.5 -35.5t-35.5 -14.5h-537q-20 0 -35 14.5t-15 35.5q0 20 15 35t35 15h537z" />
    <glyph glyph-name="quoteleft" unicode="&#x2018;" horiz-adv-x="289" 
d="M85 748q20 8 39 0t27 -27l90 -213q8 -19 0.5 -38t-27.5 -27q-19 -8 -38 -0.5t-27 26.5l-90 213q-8 19 -0.5 38.5t26.5 27.5z" />
    <glyph glyph-name="quoteright" unicode="&#x2019;" horiz-adv-x="289" 
d="M215 748q19 -8 26.5 -27.5t-0.5 -38.5l-90 -213q-8 -19 -27 -26.5t-38 0.5q-20 8 -27.5 27t0.5 38l90 213q8 19 27 27t39 0z" />
    <glyph glyph-name="quotesinglbase" unicode="&#x201a;" horiz-adv-x="289" 
d="M149 83q8 19 27 27t39 0q19 -8 26.5 -27.5t-0.5 -38.5l-90 -213q-8 -19 -27 -26.5t-38 0.5q-20 8 -27.5 27t0.5 38l90 213v0z" />
    <glyph glyph-name="quotedblleft" unicode="&#x201c;" horiz-adv-x="498" 
d="M85 748q20 8 39 0t27 -27l90 -213q8 -19 0.5 -38t-27.5 -27q-19 -8 -38 -0.5t-27 26.5l-90 213q-8 19 -0.5 38.5t26.5 27.5zM443 508q8 -19 0.5 -38t-27.5 -27q-19 -8 -38 -0.5t-27 26.5l-90 213q-8 19 -0.5 38.5t26.5 27.5q20 8 39 0t27 -27z" />
    <glyph glyph-name="quotedblright" unicode="&#x201d;" horiz-adv-x="498" 
d="M417 748q19 -8 26.5 -27.5t-0.5 -38.5l-90 -213q-8 -19 -27 -26.5t-38 0.5q-20 8 -27.5 27t0.5 38l90 213q8 19 27 27t39 0zM149 721q8 19 27 27t39 0q19 -8 26.5 -27.5t-0.5 -38.5l-90 -213q-8 -19 -27 -26.5t-38 0.5q-20 8 -27.5 27t0.5 38z" />
    <glyph glyph-name="quotedblbase" unicode="&#x201e;" horiz-adv-x="498" 
d="M417 110q19 -8 26.5 -27.5t-0.5 -38.5l-90 -213q-8 -19 -27 -26.5t-38 0.5q-20 8 -27.5 27t0.5 38l90 213q8 19 27 27t39 0zM149 83q8 19 27 27t39 0q19 -8 26.5 -27.5t-0.5 -38.5l-90 -213q-8 -19 -27 -26.5t-38 0.5q-20 8 -27.5 27t0.5 38z" />
    <glyph glyph-name="bullet" unicode="&#x2022;" horiz-adv-x="261" 
d="M36 350q0 35 25 60t61 25q35 0 60 -25t25 -60q0 -36 -25 -61t-60 -25q-36 0 -61 25t-25 61z" />
    <glyph glyph-name="ellipsis" unicode="&#x2026;" horiz-adv-x="856" 
d="M218 58q0 -26 -19 -45t-45 -19t-45 19t-19 45t19 45t45 19t45 -19t19 -45zM498 58q0 -26 -19 -45t-45 -19t-45 19t-19 45t19 45t45 19t45 -19t19 -45zM778 58q0 -26 -19 -45t-45 -19t-45 19t-19 45t19 45t45 19t45 -19t19 -45z" />
    <glyph glyph-name="guilsinglleft" unicode="&#x2039;" horiz-adv-x="357" 
d="M213 560q14 17 34.5 19t36.5 -12q18 -15 18 -39q0 -18 -12 -31q-25 -31 -48 -59q-20 -24 -41 -49t-34 -41q12 -17 30.5 -42t36.5 -48q20 -27 43 -57q9 -14 9 -30q0 -25 -20 -40q-17 -12 -37 -9.5t-33 19.5l-132 179q-11 14 -10.5 31t11.5 31l148 178v0z" />
    <glyph glyph-name="guilsinglright" unicode="&#x203a;" horiz-adv-x="357" 
d="M291 382q11 -14 11.5 -31t-10.5 -31l-132 -179q-13 -17 -33 -19.5t-37 9.5q-20 15 -20 40q0 16 9 30q22 30 43 57q17 23 36 48t31 42q-14 16 -34.5 41t-40.5 49q-23 28 -48 59q-12 13 -12 31q0 24 18 39q16 14 36.5 12t34.5 -19z" />
    <glyph glyph-name="Euro" unicode="&#x20ac;" horiz-adv-x="690" 
d="M624 82q8 -20 0 -39t-27 -27q-66 -28 -141 -28t-141 28t-115 78q-51 51 -78 115q-9 22 -15.5 44.5t-9.5 46.5h-29q-20 0 -35 14.5t-15 35.5q0 20 15 35t35 15h29q3 23 9.5 45.5t15.5 45.5q27 64 78 115q49 49 115 78q70 28 141 28t141 -28q19 -8 27 -27.5t0 -38.5
t-27.5 -27t-38.5 0q-48 21 -102 21q-53 0 -100.5 -19.5t-84.5 -57.5q-58 -56 -73 -135h296q21 0 35.5 -15t14.5 -35q0 -21 -14.5 -35.5t-35.5 -14.5h-296q15 -78 73 -136q37 -37 84.5 -56.5t100.5 -19.5q26 0 52 4.5t50 15.5q19 8 38.5 0.5t27.5 -26.5z" />
    <glyph glyph-name="trademark" unicode="&#x2122;" horiz-adv-x="876" 
d="M768 697q26 -10 26 -37v-296q0 -17 -11 -28t-27 -11q-17 0 -28 11t-11 28v185q-16 -20 -31 -38.5t-27 -33.5q-14 -18 -26 -33q-11 -15 -30 -15t-31 15t-26 33q-12 15 -27 33.5t-30 38.5v-185q0 -17 -11.5 -28t-27.5 -11t-27.5 11t-11.5 28v296q0 13 7.5 22.5t18.5 14.5
q12 4 23.5 0.5t19.5 -13.5q24 -31 47 -59q20 -24 40.5 -50.5t35.5 -44.5q14 18 35 44.5t41 50.5q23 28 46 59q8 10 20 13.5t23 -0.5zM334 699q16 0 27.5 -11t11.5 -28q0 -16 -11.5 -27t-27.5 -11h-82v-258q0 -17 -11 -28t-28 -11q-16 0 -27 11t-11 28v258h-83q-16 0 -27 11
t-11 27q0 17 11 28t27 11h242z" />
    <glyph glyph-name="uniFB01" unicode="&#xfb01;" horiz-adv-x="954" 
d="M580 700q21 0 35.5 -15t14.5 -35q0 -21 -14.5 -35.5t-35.5 -14.5h-381v-200h329q21 0 35.5 -15t14.5 -35q0 -21 -14.5 -35.5t-35.5 -14.5h-329v-250q0 -21 -14.5 -35.5t-35.5 -14.5q-20 0 -35 14.5t-15 35.5v600q0 20 15 35t35 15h431zM754 650q0 20 14.5 35t35.5 15
t35.5 -15t14.5 -35v-600q0 -21 -14.5 -35.5t-35.5 -14.5t-35.5 14.5t-14.5 35.5v600z" />
    <glyph glyph-name="uniFB02" unicode="&#xfb02;" horiz-adv-x="1284" 
d="M580 700q21 0 35.5 -15t14.5 -35q0 -21 -14.5 -35.5t-35.5 -14.5h-381v-200h329q21 0 35.5 -15t14.5 -35q0 -21 -14.5 -35.5t-35.5 -14.5h-329v-250q0 -21 -14.5 -35.5t-35.5 -14.5q-20 0 -35 14.5t-15 35.5v600q0 20 15 35t35 15h431zM739 650q0 20 15 35t35 15
q21 0 35.5 -15t14.5 -35v-550h381q21 0 35.5 -14.5t14.5 -35.5t-14.5 -35.5t-35.5 -14.5h-431q-20 0 -35 14.5t-15 35.5v600z" />
    </font>
</defs>
</svg>
