<?xml version="1.0" standalone="no"?>
<!DOCTYPE svg PUBLIC "-//W3C//DTD SVG 1.1//EN" "http://www.w3.org/Graphics/SVG/1.1/DTD/svg11.dtd" >
<svg>
<metadata>
Created by FontForge 20120731 at Tue May 31 07:19:41 2016
 By www
Copyright (c) 2011 by Aviation Partners. All rights reserved.
</metadata>
<defs>
<font id="CentralW01-Bold" horiz-adv-x="755" >
  <font-face 
    font-family="CentralW01-Bold"
    font-weight="700"
    font-stretch="normal"
    units-per-em="1000"
    panose-1="2 0 0 0 0 0 0 0 0 0"
    ascent="800"
    descent="-200"
    x-height="696"
    cap-height="700"
    bbox="-42.8205 -325.12 1281 962.211"
    underline-thickness="50"
    underline-position="-125"
    unicode-range="U+0020-2122"
  />
<missing-glyph horiz-adv-x="481" 
d="M426 700v-700h-371v700h371zM99 44h283v612h-283v-612z" />
    <glyph glyph-name=".notdef" horiz-adv-x="481" 
d="M426 700v-700h-371v700h371zM99 44h283v612h-283v-612z" />
    <glyph glyph-name=".null" horiz-adv-x="0" 
 />
    <glyph glyph-name="nonmarkingreturn" horiz-adv-x="333" 
 />
    <glyph glyph-name="space" unicode=" " horiz-adv-x="360" 
 />
    <glyph glyph-name="exclam" unicode="!" horiz-adv-x="312" 
d="M80 635q0 32 22 54t54 22t54 -22t22 -54v-346q0 -32 -22 -54t-54 -22t-54 22t-22 54v346zM232 76q0 -32 -22 -54t-54 -22t-54 22t-22 54t22 54t54 22t54 -22t22 -54z" />
    <glyph glyph-name="quotedbl" unicode="&#x22;" horiz-adv-x="400" 
d="M113 760q27 0 46 -19t19 -46v-249q0 -27 -19 -46t-46 -19t-46 19t-19 46v249q0 27 19 46t46 19zM222 695q0 27 19 46t46 19t46 -19t19 -46v-249q0 -27 -19 -46t-46 -19t-46 19t-19 46v249z" />
    <glyph glyph-name="numbersign" unicode="#" horiz-adv-x="710" 
d="M586 301q32 0 54 -22t22 -54t-22 -54t-54 -22h-70l-7 -43q-6 -32 -31.5 -49.5t-56.5 -12.5q-32 5 -49.5 31t-12.5 57l3 17h-96l-8 -43q-5 -32 -30.5 -49.5t-57.5 -12.5q-31 5 -49 31t-12 57l3 18q-27 4 -45.5 25t-18.5 50q0 32 22 54t54 22h14l18 98h-32q-32 0 -54 22
t-22 54t22 54t54 22h59l7 43q5 31 31 49t57 13q32 -6 49.5 -31.5t12.5 -57.5l-3 -16h96l8 43q5 31 30.5 49t57.5 13q31 -6 49 -31.5t12 -57.5l-3 -16q32 -1 53.5 -23t21.5 -53q0 -32 -22 -54t-54 -22h-25l-18 -98h43zM389 301l17 98h-96l-17 -98h96z" />
    <glyph glyph-name="dollar" unicode="$" horiz-adv-x="683" 
d="M593 314q26 -42 26 -97t-24 -100t-69 -76q-51 -35 -120 -47v-7q0 -25 -17.5 -42.5t-42.5 -17.5t-42.5 17.5t-17.5 42.5v4q-27 3 -52 9t-48 14q-49 19 -92 52q-25 20 -29 51t16 56q19 25 50 29t56 -16q15 -11 38 -23.5t61 -18.5v156q-36 8 -65.5 19t-52.5 26
q-41 27 -63 64q-25 40 -25 93q0 51 22 92.5t64 69.5q25 17 55 28t65 16v4q0 25 17.5 42.5t42.5 17.5t42.5 -17.5t17.5 -42.5v-6q35 -5 69 -13.5t60 -20.5q29 -14 40 -43t-3 -58q-13 -29 -42 -40t-58 2q-27 13 -66 19v-119q71 -18 121 -51q41 -28 66 -68zM248 467l18 -9
t25 -11v116q-25 -6 -42 -17q-22 -17 -22 -45q0 -8 3 -16t18 -18zM440 161q30 21 30 56q0 10 -4.5 20.5t-22.5 22.5q-15 12 -40 20v-136q11 3 20 7.5t17 9.5z" />
    <glyph glyph-name="percent" unicode="%" horiz-adv-x="973" 
d="M48 549q0 33 12.5 61.5t34.5 50.5t50.5 34.5t61.5 12.5t62 -12.5t50.5 -34.5t34 -50.5t12.5 -61.5v-104q0 -33 -12.5 -62t-34 -50.5t-50.5 -34t-62 -12.5t-61.5 12.5t-50.5 34t-34.5 50.5t-12.5 62v104zM138 445q0 -29 20 -49.5t49 -20.5t49.5 20.5t20.5 49.5v104
q0 29 -20.5 49.5t-49.5 20.5t-49 -20.5t-20 -49.5v-104zM673 690q10 14 27 17.5t31 -6.5q15 -10 18.5 -27.5t-7.5 -31.5l-431 -632q-10 -14 -27 -17.5t-31 6.5q-15 10 -18 27t7 31zM607 251q0 33 12.5 61.5t34.5 50.5t50.5 34.5t61.5 12.5t62 -12.5t50.5 -34.5t34 -50.5
t12.5 -61.5v-104q0 -33 -12.5 -62t-34 -50.5t-50.5 -34t-62 -12.5t-61.5 12.5t-50.5 34t-34.5 50.5t-12.5 62v104zM697 147q0 -29 20 -49.5t49 -20.5t49.5 20.5t20.5 49.5v104q0 29 -20.5 49.5t-49.5 20.5t-49 -20.5t-20 -49.5v-104z" />
    <glyph glyph-name="ampersand" unicode="&#x26;" horiz-adv-x="664" 
d="M593 130q23 -23 23 -54t-22 -53q-23 -23 -54 -23.5t-54 22.5l-17 17q-68 -50 -155 -50q-54 0 -102 19.5t-86 57.5t-58 86t-20 102q0 45 14.5 87t41.5 77q-19 43 -19 87q0 42 16 79.5t44 65.5t65.5 44.5t80.5 16.5t80.5 -16.5t65.5 -44.5t44 -65.5t16 -79.5q0 -32 -22 -54
t-54 -22t-54 22t-22 54q0 23 -15.5 38.5t-38.5 15.5t-38.5 -15.5t-15.5 -38.5q0 -22 16 -38l16 -16l41.5 -41.5t58.5 -57.5t66 -65q9 19 27.5 31t41.5 12q32 0 54 -22t22 -54q0 -48 -17 -94zM321 129q25 0 53 10q-46 46 -94 93t-86 85q-5 -13 -7.5 -25.5t-2.5 -26.5
q0 -28 10.5 -52.5t29.5 -43t43.5 -29.5t53.5 -11z" />
    <glyph glyph-name="quotesingle" unicode="'" horiz-adv-x="226" 
d="M113 760q27 0 46 -19t19 -46v-249q0 -27 -19 -46t-46 -19t-46 19t-19 46v249q0 27 19 46t46 19z" />
    <glyph glyph-name="parenleft" unicode="(" horiz-adv-x="388" 
d="M234 799q23 22 54 22t54 -22q22 -23 22 -54t-22 -54q-67 -66 -104 -153q-38 -91 -38 -188q0 -98 38 -188q35 -85 104 -154q22 -22 22 -53t-22 -54q-23 -23 -54 -23t-54 23q-88 88 -136 202q-50 118 -50 247t50 247q24 57 58 107t78 95z" />
    <glyph glyph-name="parenright" unicode=")" horiz-adv-x="388" 
d="M154 799q44 -45 78 -95t58 -107q50 -118 50 -247t-50 -247q-48 -114 -136 -202q-23 -23 -54 -23t-54 23q-22 23 -22 54t22 53q69 69 104 154q38 90 38 188q0 97 -38 188q-37 87 -104 153q-22 23 -22 54t22 54q23 22 54 22t54 -22z" />
    <glyph glyph-name="asterisk" unicode="*" horiz-adv-x="490" 
d="M409 481q23 -14 30.5 -40t-6.5 -49t-40 -30.5t-49 6.5l-34 20v-40q0 -27 -19 -46t-46 -19t-46 19t-19 46v40l-34 -20q-23 -14 -49 -6.5t-40 30.5t-6.5 49t30.5 40l34 19l-34 20q-23 14 -30.5 40t6.5 49t40 30t49 -7l34 -19v39q0 27 19 46t46 19t46 -19t19 -46v-39l34 19
q23 14 49 7t40 -30t6.5 -49t-30.5 -40l-34 -20l34 -19v0z" />
    <glyph glyph-name="plus" unicode="+" horiz-adv-x="710" 
d="M586 426q32 0 54 -22t22 -54t-22 -54t-54 -22h-155v-155q0 -32 -22 -54t-54 -22t-54 22t-22 54v155h-155q-32 0 -54 22t-22 54t22 54t54 22h155v155q0 32 22 54t54 22t54 -22t22 -54v-155h155v0z" />
    <glyph glyph-name="comma" unicode="," horiz-adv-x="302" 
d="M90 101q11 29 39.5 42.5t58.5 2.5q15 -5 26 -15.5t17 -23.5t7 -28t-5 -30l-77 -214q-11 -30 -39.5 -43.5t-58.5 -2.5q-29 11 -42.5 39.5t-2.5 58.5l77 214v0z" />
    <glyph glyph-name="hyphen" unicode="-" horiz-adv-x="426" 
d="M302 426q32 0 54 -22t22 -54t-22 -54t-54 -22h-178q-32 0 -54 22t-22 54t22 54t54 22h178z" />
    <glyph glyph-name="period" unicode="." horiz-adv-x="280" 
d="M216 76q0 -32 -22 -54t-54 -22t-54 22t-22 54t22 54t54 22t54 -22t22 -54z" />
    <glyph glyph-name="slash" unicode="/" horiz-adv-x="504" 
d="M324 771q11 29 39.5 42.5t58.5 2.5q15 -5 26 -15.5t17 -23.5t7 -28t-5 -30l-287 -790q-11 -30 -39.5 -43.5t-58.5 -2.5q-29 11 -42.5 39.5t-2.5 58.5l287 790v0z" />
    <glyph glyph-name="zero" unicode="0" horiz-adv-x="656" 
d="M136 631q38 39 87.5 59.5t104.5 20.5t104.5 -20.5t87.5 -59.5q38 -38 59 -87.5t21 -104.5v-179q0 -54 -21 -103.5t-59 -88.5q-38 -38 -87.5 -58.5t-104.5 -20.5t-104.5 20.5t-87.5 58.5q-38 39 -59 88.5t-21 103.5v179q0 55 21 104.5t59 87.5zM208 260q0 -25 9.5 -46.5
t26 -37.5t38 -25.5t46.5 -9.5t46.5 9.5t38 25.5t26 37.5t9.5 46.5v179q0 25 -9.5 46.5t-26 38t-38 26t-46.5 9.5t-46.5 -9.5t-38 -26t-26 -38t-9.5 -46.5v-179z" />
    <glyph glyph-name="one" unicode="1" horiz-adv-x="457" 
d="M238 676q17 17 39.5 22t44.5 -4q21 -9 34 -28t13 -42v-548q0 -32 -22 -54t-54 -22t-54 22t-22 54v360q-11 -11 -21.5 -22.5t-19.5 -20.5q-11 -11 -20 -21q-22 -23 -53.5 -23.5t-54.5 21.5t-23.5 53.5t21.5 54.5l192 198v0z" />
    <glyph glyph-name="two" unicode="2" horiz-adv-x="598" 
d="M70 475q0 49 18.5 92t50.5 75t75 50.5t92 18.5t92 -18.5t75 -50.5t50.5 -75t18.5 -92q0 -48 -18 -90.5t-51 -76.5l-49 -49q-23 -22 -51 -50l-57 -57h149q32 0 54 -22t22 -54t-22 -54t-54 -22h-333q-23 0 -42 12.5t-28 34.5q-6 13 -6 29q0 30 22 54l287 286q25 25 25 59
q0 35 -24.5 59.5t-59.5 24.5t-59.5 -24.5t-24.5 -59.5q0 -32 -22 -54t-54 -22t-54 22t-22 54z" />
    <glyph glyph-name="three" unicode="3" horiz-adv-x="560" 
d="M125 653q29 28 65 43t76 15q41 0 77 -15.5t63 -42.5t42.5 -63.5t15.5 -77.5q0 -63 -34 -112q34 -33 54 -77.5t20 -95.5q0 -49 -19 -92.5t-51 -75.5t-75.5 -51t-92.5 -19q-48 0 -91.5 17.5t-77.5 51.5q-32 32 -51 76q-12 29 -0.5 58t40.5 42q29 12 58.5 0t41.5 -41
q5 -13 19 -27q25 -25 61 -25q18 0 33.5 6.5t27 18.5t18.5 27.5t7 33.5t-7 33.5t-18.5 27.5t-27 18.5t-33.5 6.5q-32 0 -54 22t-22 54t19 49.5t57 17.5q23 0 39 16.5t16 39.5t-16 39.5t-39 16.5q-24 0 -40 -16q-9 -8 -12 -18q-30 -69 -91 -44q-29 12 -41 41.5t1 58.5
q15 34 42 63z" />
    <glyph glyph-name="four" unicode="4" horiz-adv-x="664" 
d="M387 672q15 19 38 25t46 -2t36.5 -27.5t13.5 -43.5v-331h51q32 0 54 -22t22 -54t-22 -54t-54 -22h-51v-65q0 -32 -22 -54t-54 -22t-54 22t-22 54v65h-261q-22 0 -40.5 12t-28.5 32q-9 20 -6.5 42t16.5 39zM381 462l-145 -174h145v174z" />
    <glyph glyph-name="five" unicode="5" horiz-adv-x="614" 
d="M463 700q32 0 54 -22t22 -54t-22 -54t-54 -22h-220q-1 -10 -1.5 -16.5t-1.5 -13.5t-1.5 -14.5t-1.5 -19.5q14 3 30 5t33 2q27 0 54.5 -3.5t54 -12.5t50.5 -24.5t44 -39.5q18 -23 29 -41.5t16.5 -37.5t7.5 -39.5t2 -46.5q0 -52 -19.5 -98.5t-56.5 -83.5t-83.5 -56
t-98.5 -19t-99 19t-83 56q-36 35 -55 82q-13 29 -1 58t41 42q29 12 58 0t42 -41q8 -19 22 -33q31 -31 75 -31q22 0 41 8t33.5 22.5t23 33.5t8.5 41q0 46 -30 76t-76 30q-26 0 -47 -4t-37 -9q-18 -5 -33 -12q-19 -11 -40.5 -9.5t-38.5 13.5t-26 31.5t-6 40.5l28 230
q4 29 25 48t50 19h288z" />
    <glyph glyph-name="six" unicode="6" horiz-adv-x="656" 
d="M520 452q38 -38 59 -87.5t21 -104.5q0 -54 -21 -103.5t-59 -88.5q-38 -38 -87.5 -58.5t-104.5 -20.5t-104.5 20.5t-87.5 58.5q-38 39 -59 88.5t-21 103.5q0 53 19 100.5t54 85.5l166 222q19 25 50 29.5t57 -14.5q25 -19 29.5 -50t-14.5 -56l-37 -50q80 -15 140 -75z
M328 141q25 0 46.5 9.5t38 25.5t26 37.5t9.5 46.5t-9.5 46.5t-26 38t-38 26t-46.5 9.5q-50 0 -85 -35v-1q-17 -17 -26 -38.5t-9 -45.5q0 -25 9.5 -46.5t26 -37.5t38 -25.5t46.5 -9.5z" />
    <glyph glyph-name="seven" unicode="7" horiz-adv-x="588" 
d="M496 700q20 0 38 -10.5t28 -28.5t10 -38.5t-11 -38.5l-332 -547q-17 -27 -47 -35t-57 9q-18 11 -27.5 28t-9.5 37t11 39q50 83 98 162q21 34 43 70.5t43.5 72t41 68.5t36.5 60h-245q-32 0 -54 22t-22 54t22 54t54 22h380z" />
    <glyph glyph-name="eight" unicode="8" horiz-adv-x="588" 
d="M458 400q35 -33 54.5 -77.5t19.5 -95.5q0 -49 -18.5 -92.5t-51 -75.5t-76 -51t-92.5 -19t-92.5 19t-75.5 51t-51 75.5t-19 92.5q0 51 19.5 95.5t54.5 77.5q-17 24 -26 52.5t-9 59.5q0 41 15.5 77.5t42.5 63.5t63.5 42.5t77.5 15.5t77.5 -15.5t63.5 -42.5t42.5 -63.5
t15.5 -77.5q0 -31 -9 -59.5t-26 -52.5zM227 512q0 -28 19.5 -47.5t47.5 -19.5t47.5 19.5t19.5 47.5t-19.5 47.5t-47.5 19.5t-47.5 -19.5t-19.5 -47.5zM294 141q36 0 61 25t25 61t-25 61t-61 25t-61 -25t-25 -61t25 -61t61 -25z" />
    <glyph glyph-name="nine" unicode="9" horiz-adv-x="656" 
d="M136 249q-38 38 -59 87.5t-21 104.5q0 54 21 103.5t59 88.5q38 38 87.5 58.5t104.5 20.5t104.5 -20.5t87.5 -58.5q38 -39 59 -88.5t21 -103.5q0 -53 -19 -100.5t-54 -85.5l-166 -222q-19 -25 -50 -29.5t-57 14.5q-25 19 -29.5 50t14.5 56l37 50q-80 15 -140 75zM328 560
q-25 0 -46.5 -9.5t-38 -25.5t-26 -37.5t-9.5 -46.5t9.5 -46.5t26 -38t38 -26t46.5 -9.5q50 0 85 35v1q35 35 35 84q0 25 -9.5 46.5t-26 37.5t-38 25.5t-46.5 9.5z" />
    <glyph glyph-name="colon" unicode=":" horiz-adv-x="280" 
d="M216 376q0 -32 -22 -54t-54 -22t-54 22t-22 54t22 54t54 22t54 -22t22 -54zM216 76q0 -32 -22 -54t-54 -22t-54 22t-22 54t22 54t54 22t54 -22t22 -54z" />
    <glyph glyph-name="semicolon" unicode=";" horiz-adv-x="302" 
d="M238 376q0 -32 -22 -54t-54 -22t-54 22t-22 54t22 54t54 22t54 -22t22 -54zM90 101q11 29 39.5 42.5t58.5 2.5q15 -5 26 -15.5t17 -23.5t7 -28t-5 -30l-77 -214q-11 -30 -39.5 -43.5t-58.5 -2.5q-29 11 -42.5 39.5t-2.5 58.5z" />
    <glyph glyph-name="less" unicode="&#x3c;" horiz-adv-x="690" 
d="M533 630q29 14 58 3.5t43 -39.5q8 -16 8 -32q0 -22 -11.5 -40.5t-31.5 -28.5q-49 -23 -100 -48q-44 -21 -97 -46.5t-102 -48.5q49 -24 102 -49t97 -46q51 -25 100 -48q20 -10 31.5 -29t11.5 -40q0 -15 -8 -33q-14 -29 -43 -39t-58 4l-441 211q-20 10 -32 28.5t-12 40.5
t12 40.5t32 27.5l441 212v0z" />
    <glyph glyph-name="equal" unicode="=" horiz-adv-x="710" 
d="M586 551q32 0 54 -22t22 -54t-22 -54t-54 -22h-462q-32 0 -54 22t-22 54t22 54t54 22h462zM586 301q32 0 54 -22t22 -54t-22 -54t-54 -22h-462q-32 0 -54 22t-22 54t22 54t54 22h462z" />
    <glyph glyph-name="greater" unicode="&#x3e;" horiz-adv-x="690" 
d="M598 418q20 -9 32 -27.5t12 -40.5t-12 -40.5t-32 -28.5l-441 -211q-29 -14 -58 -4t-43 39q-8 18 -8 33q0 21 11.5 40t31.5 29q49 23 100 48q44 21 96.5 46t102.5 49q-50 23 -102.5 48.5t-96.5 46.5q-51 25 -100 48q-20 10 -31.5 28.5t-11.5 40.5q0 16 8 32q14 29 43 39.5
t58 -3.5z" />
    <glyph glyph-name="question" unicode="?" horiz-adv-x="528" 
d="M55 638q35 35 80 54t96 19q50 0 95.5 -19t80.5 -54t54 -80.5t19 -95.5q0 -51 -19 -96t-54 -80t-80.5 -54t-95.5 -19q-32 0 -54 22t-22 54t22 54t54 22q20 0 37.5 7.5t31 20.5t21 31t7.5 38t-7.5 37.5t-21 31t-31 21t-37.5 7.5t-37.5 -7.5t-31.5 -21.5q-23 -22 -54 -22
t-53 22q-23 23 -23 54t23 54zM307 76q0 -32 -22 -54t-54 -22t-54 22t-22 54t22 54t54 22t54 -22t22 -54z" />
    <glyph glyph-name="at" unicode="@" horiz-adv-x="1044" 
d="M407 486q36 4 63.5 5.5t42.5 1.5q84 0 134 -40q66 -52 72 -166q1 -9 1 -21.5v-23.5v-182q0 -25 -17.5 -42.5t-42.5 -17.5h-176q-66 0 -108 37q-17 15 -33 43.5t-16 76.5t16 74.5t33 41.5q42 37 108 37h111q-3 16 -8.5 33t-13.5 24q-18 14 -60 14q-19 0 -94 -6
q-25 -2 -44.5 11.5t-21.5 38.5t13.5 42t40.5 19zM455 124q4 -3 11.5 -5.5t17.5 -2.5h116v82h-116q-10 0 -17.5 -2.5t-11.5 -5.5q-5 -5 -6.5 -15.5t-1.5 -17.5t1.5 -17t6.5 -16zM522 711q95 0 182 -36q82 -36 148 -100q64 -66 100 -149q36 -86 36 -181q0 -113 -51 -212
q-11 -23 -35 -30t-46 4q-23 11 -30 34.5t4 46.5q38 74 38 157q0 69 -26 132t-75 113q-50 49 -112.5 75t-132.5 26q-69 0 -132 -26t-113 -75q-49 -50 -75 -113t-26 -132t26 -132t75 -113q50 -49 113 -75t132 -26q25 0 42.5 -17.5t17.5 -42.5t-17.5 -42.5t-42.5 -17.5
q-97 0 -181 37q-42 17 -79.5 42t-69.5 57t-57 69.5t-42 79.5q-37 84 -37 181t37 181q17 42 42 79.5t57 69.5q66 64 149 100q85 36 181 36z" />
    <glyph glyph-name="A" unicode="A" 
d="M730 111q14 -28 4.5 -58t-37.5 -44q-28 -15 -58 -5.5t-44 37.5q-5 10 -11 21q-10 18 -29 55h-356q-19 -37 -29 -55q-6 -11 -11 -21q-14 -28 -44 -37.5t-58 5.5q-28 14 -37.5 44t5.5 58l285 548q10 19 28 30t39 11t39 -11t28 -30zM486 259l-109 209l-109 -209h218z" />
    <glyph glyph-name="B" unicode="B" horiz-adv-x="708" 
d="M422 700q42 0 79 -16t64.5 -44t43.5 -65t16 -79q0 -35 -10.5 -65.5t-30.5 -56.5q28 -30 44 -68.5t16 -83.5q0 -46 -17.5 -86.5t-47.5 -70.5t-70.5 -47.5t-86.5 -17.5h-258q-32 0 -54 22t-22 54v548q0 32 22 54t54 22h258zM240 548v-113h182q21 0 36 16.5t15 39.5t-15 40
t-36 17h-182zM240 307v-155h182q29 0 49.5 22.5t20.5 54.5t-20.5 55t-49.5 23h-182z" />
    <glyph glyph-name="C" unicode="C" horiz-adv-x="751" 
d="M276 682q69 29 141 29q73 0 140 -29q65 -27 115 -77q23 -23 23 -54t-23 -53q-22 -23 -53.5 -23t-53.5 23q-30 29 -68 45t-80 16q-44 0 -82 -16.5t-66 -45t-44.5 -66.5t-16.5 -81q0 -44 16.5 -82t44.5 -66t66 -44.5t82 -16.5q42 0 80 15.5t68 45.5q22 23 53.5 23t53.5 -23
q23 -23 23 -54t-23 -54q-50 -50 -115 -77q-65 -28 -140 -28t-141 28q-63 26 -115 77q-51 52 -77 115q-28 66 -28 141q0 36 7 71.5t21 68.5q27 65 77 115q52 51 115 77z" />
    <glyph glyph-name="D" unicode="D" horiz-adv-x="816" 
d="M410 700q69 0 136 -28q63 -27 111 -75q24 -24 43 -51.5t32 -59.5q28 -63 28 -136t-28 -136q-13 -32 -32 -59.5t-43 -52.5q-48 -48 -111 -75q-65 -27 -136 -27h-246q-32 0 -54 22t-22 54v548q0 32 22 54t54 22h246zM240 548v-396h170q41 0 77 15.5t63 42.5t42.5 63
t15.5 77t-15.5 77t-42.5 63t-63 42.5t-77 15.5h-170z" />
    <glyph glyph-name="E" unicode="E" horiz-adv-x="690" 
d="M558 152q32 0 54 -22t22 -54t-22 -54t-54 -22h-394q-32 0 -54 22t-22 54v548q0 32 22 54t54 22h394q32 0 54 -22t22 -54t-22 -54t-54 -22h-318v-122h270q32 0 54 -22t22 -54t-22 -54t-54 -22h-270v-122h318v0z" />
    <glyph glyph-name="F" unicode="F" horiz-adv-x="658" 
d="M240 548v-122h270q32 0 54 -22t22 -54t-22 -54t-54 -22h-270v-198q0 -32 -22 -54t-54 -22t-54 22t-22 54v548q0 32 22 54t54 22h394q32 0 54 -22t22 -54t-22 -54t-54 -22h-318z" />
    <glyph glyph-name="G" unicode="G" horiz-adv-x="759" 
d="M276 682q69 29 141 29q73 0 140 -29q65 -27 115 -77q23 -23 23 -54t-23 -53q-22 -23 -53.5 -23t-53.5 23q-30 29 -68 45t-80 16q-44 0 -82 -16.5t-66 -45t-44.5 -66.5t-16.5 -81q0 -44 16.5 -82t44.5 -66t66 -44.5t82 -16.5q71 0 125 42v103q0 32 22 54t54 22t54 -22
t22 -54v-138q0 -30 -22 -54q-50 -50 -115 -77q-65 -28 -140 -28t-141 28q-63 26 -115 77q-51 52 -77 115q-28 66 -28 141q0 36 7 71.5t21 68.5q27 65 77 115q52 51 115 77z" />
    <glyph glyph-name="H" unicode="H" horiz-adv-x="816" 
d="M652 700q32 0 54 -22t22 -54v-548q0 -32 -22 -54t-54 -22t-54 22t-22 54v198h-336v-198q0 -32 -22 -54t-54 -22t-54 22t-22 54v548q0 32 22 54t54 22t54 -22t22 -54v-198h336v198q0 32 22 54t54 22z" />
    <glyph glyph-name="I" unicode="I" horiz-adv-x="328" 
d="M88 624q0 32 22 54t54 22t54 -22t22 -54v-548q0 -32 -22 -54t-54 -22t-54 22t-22 54v548v0z" />
    <glyph glyph-name="J" unicode="J" horiz-adv-x="567" 
d="M327 624q0 32 22 54t54 22t54 -22t22 -54v-387q0 -50 -18.5 -95.5t-53.5 -80.5t-80.5 -53.5t-95.5 -18.5q-51 0 -96 18.5t-80 53.5q-23 23 -23 54t23 54t54 23t53 -23q30 -28 69 -28q40 0 68 28t28 68v387v0z" />
    <glyph glyph-name="K" unicode="K" horiz-adv-x="694" 
d="M642 135q14 -11 21 -26.5t7 -32.5q0 -26 -17 -48q-20 -25 -51.5 -28t-55.5 17l-306 251v-192q0 -32 -22 -54t-54 -22t-54 22t-22 54v548q0 32 22 54t54 22t54 -22t22 -54v-192l306 250q24 20 55.5 17t51.5 -27q17 -22 17 -48q0 -17 -7 -32.5t-21 -26.5q-50 -41 -98 -81
q-41 -34 -86 -70.5t-78 -63.5q33 -28 77.5 -64.5t86.5 -70.5q48 -40 98 -80z" />
    <glyph glyph-name="L" unicode="L" horiz-adv-x="642" 
d="M88 624q0 32 22 54t54 22t54 -22t22 -54v-472h318q32 0 54 -22t22 -54t-22 -54t-54 -22h-394q-32 0 -54 22t-22 54v548v0z" />
    <glyph glyph-name="M" unicode="M" horiz-adv-x="892" 
d="M668 671q15 19 38.5 25.5t46.5 -1.5t37 -27.5t14 -43.5v-548q0 -32 -22 -54t-54 -22t-54 22t-22 54v329l-146 -184q-23 -29 -60 -29q-17 0 -32.5 7.5t-26.5 21.5q-21 26 -46 57q-21 26 -47.5 59t-53.5 68v-329q0 -32 -22 -54t-54 -22t-54 22t-22 54v548q0 24 14 43.5
t37 27.5t46.5 1.5t38.5 -25.5q43 -54 83 -105q17 -22 36 -45.5t37 -47t35 -44.5t31 -39q14 18 31 39t35 44.5t37 47t36 45.5q40 51 83 105z" />
    <glyph glyph-name="N" unicode="N" horiz-adv-x="792" 
d="M138 695q22 8 45 2t39 -24q56 -68 114 -138q25 -30 52 -62.5t55 -65.5t55.5 -65.5t53.5 -61.5v344q0 32 22 54t54 22t54 -22t22 -54v-548q0 -23 -13.5 -43t-35.5 -28q-23 -8 -46 -2t-38 24q-57 68 -115 138q-50 60 -107.5 127.5t-108.5 127.5v-344q0 -32 -22 -54t-54 -22
t-54 22t-22 54v548q0 23 13.5 43t36.5 28z" />
    <glyph glyph-name="O" unicode="O" horiz-adv-x="834" 
d="M276 682q69 29 141 29t141 -29q64 -27 114 -77q50 -49 78 -115q14 -33 21 -68.5t7 -71.5q0 -75 -28 -141q-27 -64 -78 -115q-50 -50 -114 -77q-66 -28 -141 -28t-141 28q-64 27 -114 77q-50 51 -78 115q-28 66 -28 141q0 36 7 71.5t21 68.5q29 66 78 115q50 50 114 77z
M208 350q0 -44 16.5 -82t45 -66t66.5 -44.5t81 -16.5t81 16.5t66.5 44.5t45 66t16.5 82q0 43 -16.5 81t-45 66.5t-66.5 45t-81 16.5t-81 -16.5t-66.5 -45t-45 -66.5t-16.5 -81z" />
    <glyph glyph-name="P" unicode="P" horiz-adv-x="708" 
d="M422 700q50 0 94.5 -18.5t79.5 -53.5t53.5 -80t18.5 -94q0 -50 -18.5 -94.5t-53.5 -79.5t-79.5 -53.5t-94.5 -18.5h-182v-132q0 -32 -22 -54t-54 -22t-54 22t-22 54v548q0 32 22 54t54 22h258zM240 548v-188h182q19 0 36.5 7.5t30 20t20 29.5t7.5 37q0 19 -7.5 36t-20 30
t-30 20.5t-36.5 7.5h-182z" />
    <glyph glyph-name="Q" unicode="Q" horiz-adv-x="842" 
d="M743 129q23 -22 23 -53t-23 -54t-54 -22.5t-53 22.5l-24 24q-13 -8 -26.5 -15.5t-27.5 -13.5q-66 -28 -141 -28t-141 28q-64 27 -114 77q-50 51 -78 115q-28 66 -28 141q0 36 7 71.5t21 68.5q29 66 78 115q50 50 114 77q69 29 141 29t141 -29q64 -27 114 -77
q50 -49 78 -115q14 -33 21 -68.5t7 -71.5q0 -75 -28 -141l-14 -28t-16 -28zM417 141q44 0 84 17l-57 57q-22 23 -22 54t23 54q22 22 53.5 22t53.5 -23l57 -57q17 42 17 85t-16.5 81t-45 66.5t-66.5 45t-81 16.5t-81 -16.5t-66.5 -45t-45 -66.5t-16.5 -81q0 -44 16.5 -82
t45 -66t66.5 -44.5t81 -16.5z" />
    <glyph glyph-name="R" unicode="R" horiz-adv-x="739" 
d="M658 124q22 -23 20.5 -54.5t-24.5 -52.5q-23 -22 -54.5 -20.5t-53.5 24.5l-171 187h-135v-132q0 -32 -22 -54t-54 -22t-54 22t-22 54v548q0 32 22 54t54 22h257q50 0 94.5 -18.5t79.5 -53.5t53.5 -80t18.5 -94q0 -50 -18.5 -94.5t-53.5 -79.5q-11 -11 -22.5 -20
t-23.5 -17zM240 360h181q19 0 36.5 7.5t30 20t20 29.5t7.5 37q0 19 -7.5 36t-20 30t-30 20.5t-36.5 7.5h-181v-188z" />
    <glyph glyph-name="S" unicode="S" horiz-adv-x="683" 
d="M166 664q68 47 171 47q51 0 105 -11t93 -28q29 -14 40 -43t-3 -58q-13 -29 -42 -40t-58 2q-25 11 -62.5 18.5t-72.5 7.5q-27 0 -49.5 -5t-36.5 -15q-19 -14 -19 -37q0 -7 2.5 -14t15.5 -15q11 -7 33.5 -15t63.5 -14q114 -17 180 -62q41 -28 66 -68q26 -42 26 -97
t-24 -100t-69 -76q-76 -52 -189 -52q-85 0 -151 25q-49 19 -92 52q-25 20 -29 51t16 56q19 25 50 29t56 -16q9 -7 22.5 -15t31.5 -14.5t41.5 -11t54.5 -4.5q65 0 103 25q27 18 27 51q0 8 -4 18t-21 21q-14 9 -41 19.5t-75 17.5q-98 15 -158 52q-41 27 -63 64q-25 40 -25 93
q0 51 22 92.5t64 69.5z" />
    <glyph glyph-name="T" unicode="T" horiz-adv-x="630" 
d="M538 700q32 0 54 -22t22 -54t-22 -54t-54 -22h-147v-472q0 -32 -22 -54t-54 -22t-54 22t-22 54v472h-147q-32 0 -54 22t-22 54t22 54t54 22h446v0z" />
    <glyph glyph-name="U" unicode="U" horiz-adv-x="828" 
d="M596 624q0 32 22 54t54 22t54 -22t22 -54v-302q0 -66 -26 -129q-26 -61 -72 -107q-45 -45 -106 -71q-31 -14 -63.5 -20t-66.5 -6t-66.5 6t-63.5 20q-58 25 -106 71q-46 46 -72 107q-26 63 -26 129v302q0 32 22 54t54 22t54 -22t22 -54v-302q0 -38 14.5 -70.5t39 -57.5
t57.5 -39t71 -14q37 0 70.5 14t58 39t39 57.5t14.5 70.5v302v0z" />
    <glyph glyph-name="V" unicode="V" horiz-adv-x="771" 
d="M603 659q14 28 44 37t58 -5q14 -7 23.5 -18.5t14 -25.5t3.5 -29.5t-8 -29.5l-286 -547q-10 -19 -28 -30t-39 -11t-39 11t-28 30l-285 547q-8 14 -9 29.5t3.5 29.5t14 25.5t23.5 18.5q28 14 58 5t44 -37q39 -76 79 -152q17 -32 35 -67l36 -70t35.5 -68t32.5 -61
q15 28 32 61t35 68t36.5 70t35.5 67q40 76 79 152z" />
    <glyph glyph-name="W" unicode="W" horiz-adv-x="950" 
d="M726 633q4 32 28.5 51t56.5 15t51 -28.5t15 -56.5l-70 -548q-3 -23 -18.5 -40.5t-38.5 -23.5q-23 -5 -45 3t-36 28q-36 51 -70 102q-30 43 -63.5 92t-60.5 88q-27 -39 -61 -88t-63 -92l-70 -102q-14 -20 -36 -28t-45 -3q-23 6 -38.5 23.5t-18.5 40.5l-70 548
q-4 32 15 56.5t51 28.5t56.5 -15t28.5 -51q7 -55 15 -114q7 -51 14.5 -113t15.5 -123l52 76t46 67q24 34 45 66q24 33 63 33t63 -33q21 -32 45 -66q20 -29 46 -67t53 -76q8 61 15 123t14 113q7 59 15 114z" />
    <glyph glyph-name="X" unicode="X" horiz-adv-x="740" 
d="M694 130q22 -23 21 -54.5t-24 -52.5q-23 -22 -54 -21.5t-53 23.5l-212 224l-216 -228q-22 -23 -53 -23.5t-54 20.5q-23 22 -24 53.5t21 54.5l221 233l-200 212q-22 23 -21 54t24 53t54 21t53 -24l195 -205l195 206q22 22 53.5 23.5t54.5 -20.5q22 -22 23.5 -53.5
t-20.5 -54.5l-201 -212l217 -229v0z" />
    <glyph glyph-name="Y" unicode="Y" horiz-adv-x="674" 
d="M626 685q26 -19 31 -49.5t-14 -56.5l-230 -317v-186q0 -32 -22 -54t-54 -22t-54 22t-22 54v186l-230 317q-18 26 -13.5 56.5t30.5 49.5t57 14t49 -31l66 -90q28 -38 59.5 -82.5t57.5 -79.5q26 35 57.5 79.5t59.5 82.5l66 90q18 26 49 31t57 -14z" />
    <glyph glyph-name="Z" unicode="Z" horiz-adv-x="694" 
d="M578 700q23 0 41.5 -12t27.5 -32q7 -15 7 -32q0 -28 -18 -49q-67 -79 -131 -156q-27 -33 -57 -68t-59.5 -70t-57.5 -68t-51 -61h298q32 0 54 -22t22 -54t-22 -54t-54 -22h-462q-23 0 -41.5 12t-27.5 32q-7 14 -7 32q0 28 18 49q66 79 131 156q27 33 57 68t59.5 70
t57.5 68t52 61h-299q-32 0 -54 22t-22 54t22 54t54 22h462z" />
    <glyph glyph-name="bracketleft" unicode="[" horiz-adv-x="356" 
d="M256 821q32 0 54 -22t22 -54t-22 -54t-54 -22h-56v-638h56q32 0 54 -22t22 -54t-22 -54t-54 -22h-132q-32 0 -54 22t-22 54v790q0 32 22 54t54 22h132v0z" />
    <glyph glyph-name="backslash" unicode="\" horiz-adv-x="504" 
d="M467 -19q11 -30 -2.5 -58.5t-42.5 -39.5q-30 -11 -58.5 2.5t-39.5 43.5l-287 790q-6 15 -5 30t7 28t17 23.5t26 15.5q30 11 58.5 -2.5t39.5 -42.5z" />
    <glyph glyph-name="bracketright" unicode="]" horiz-adv-x="356" 
d="M232 821q32 0 54 -22t22 -54v-790q0 -32 -22 -54t-54 -22h-132q-32 0 -54 22t-22 54t22 54t54 22h56v638h-56q-32 0 -54 22t-22 54t22 54t54 22h132z" />
    <glyph glyph-name="asciicircum" unicode="^" horiz-adv-x="696" 
d="M281 658q10 20 28 31t39 11q22 0 40 -11t28 -31l223 -433q14 -28 4.5 -58t-37.5 -44q-28 -15 -58 -5.5t-44 37.5q-26 50 -53 103q-23 45 -50.5 98.5t-52.5 101.5q-25 -48 -52.5 -101.5t-50.5 -98.5q-27 -53 -53 -103q-14 -28 -44 -37.5t-58 5.5q-28 14 -37.5 44t4.5 58
l224 433v0z" />
    <glyph glyph-name="underscore" unicode="_" horiz-adv-x="642" 
d="M566 -14q32 0 54 -22t22 -54t-22 -54t-54 -22h-490q-32 0 -54 22t-22 54t22 54t54 22h490z" />
    <glyph glyph-name="grave" unicode="`" horiz-adv-x="281" 
d="M193 855q20 -17 22.5 -44t-14.5 -48q-17 -20 -44 -22.5t-48 14.5l-110 92q-20 18 -22.5 45t14.5 47q17 21 44 23t48 -15z" />
    <glyph glyph-name="a" unicode="a" 
d="M730 111q14 -28 4.5 -58t-37.5 -44q-28 -15 -58 -5.5t-44 37.5q-5 10 -11 21q-10 18 -29 55h-356q-19 -37 -29 -55q-6 -11 -11 -21q-14 -28 -44 -37.5t-58 5.5q-28 14 -37.5 44t5.5 58l285 548q10 19 28 30t39 11t39 -11t28 -30zM486 259l-109 209l-109 -209h218z" />
    <glyph glyph-name="b" unicode="b" horiz-adv-x="708" 
d="M422 700q42 0 79 -16t64.5 -44t43.5 -65t16 -79q0 -35 -10.5 -65.5t-30.5 -56.5q28 -30 44 -68.5t16 -83.5q0 -46 -17.5 -86.5t-47.5 -70.5t-70.5 -47.5t-86.5 -17.5h-258q-32 0 -54 22t-22 54v548q0 32 22 54t54 22h258zM240 548v-113h182q21 0 36 16.5t15 39.5t-15 40
t-36 17h-182zM240 307v-155h182q29 0 49.5 22.5t20.5 54.5t-20.5 55t-49.5 23h-182z" />
    <glyph glyph-name="c" unicode="c" horiz-adv-x="751" 
d="M276 682q69 29 141 29q73 0 140 -29q65 -27 115 -77q23 -23 23 -54t-23 -53q-22 -23 -53.5 -23t-53.5 23q-30 29 -68 45t-80 16q-44 0 -82 -16.5t-66 -45t-44.5 -66.5t-16.5 -81q0 -44 16.5 -82t44.5 -66t66 -44.5t82 -16.5q42 0 80 15.5t68 45.5q22 23 53.5 23t53.5 -23
q23 -23 23 -54t-23 -54q-50 -50 -115 -77q-65 -28 -140 -28t-141 28q-63 26 -115 77q-51 52 -77 115q-28 66 -28 141q0 36 7 71.5t21 68.5q27 65 77 115q52 51 115 77z" />
    <glyph glyph-name="d" unicode="d" horiz-adv-x="816" 
d="M410 700q69 0 136 -28q63 -27 111 -75q24 -24 43 -51.5t32 -59.5q28 -63 28 -136t-28 -136q-13 -32 -32 -59.5t-43 -52.5q-48 -48 -111 -75q-65 -27 -136 -27h-246q-32 0 -54 22t-22 54v548q0 32 22 54t54 22h246zM240 548v-396h170q41 0 77 15.5t63 42.5t42.5 63
t15.5 77t-15.5 77t-42.5 63t-63 42.5t-77 15.5h-170z" />
    <glyph glyph-name="e" unicode="e" horiz-adv-x="690" 
d="M558 152q32 0 54 -22t22 -54t-22 -54t-54 -22h-394q-32 0 -54 22t-22 54v548q0 32 22 54t54 22h394q32 0 54 -22t22 -54t-22 -54t-54 -22h-318v-122h270q32 0 54 -22t22 -54t-22 -54t-54 -22h-270v-122h318v0z" />
    <glyph glyph-name="f" unicode="f" horiz-adv-x="658" 
d="M240 548v-122h270q32 0 54 -22t22 -54t-22 -54t-54 -22h-270v-198q0 -32 -22 -54t-54 -22t-54 22t-22 54v548q0 32 22 54t54 22h394q32 0 54 -22t22 -54t-22 -54t-54 -22h-318z" />
    <glyph glyph-name="g" unicode="g" horiz-adv-x="759" 
d="M276 682q69 29 141 29q73 0 140 -29q65 -27 115 -77q23 -23 23 -54t-23 -53q-22 -23 -53.5 -23t-53.5 23q-30 29 -68 45t-80 16q-44 0 -82 -16.5t-66 -45t-44.5 -66.5t-16.5 -81q0 -44 16.5 -82t44.5 -66t66 -44.5t82 -16.5q71 0 125 42v103q0 32 22 54t54 22t54 -22
t22 -54v-138q0 -30 -22 -54q-50 -50 -115 -77q-65 -28 -140 -28t-141 28q-63 26 -115 77q-51 52 -77 115q-28 66 -28 141q0 36 7 71.5t21 68.5q27 65 77 115q52 51 115 77z" />
    <glyph glyph-name="h" unicode="h" horiz-adv-x="816" 
d="M652 700q32 0 54 -22t22 -54v-548q0 -32 -22 -54t-54 -22t-54 22t-22 54v198h-336v-198q0 -32 -22 -54t-54 -22t-54 22t-22 54v548q0 32 22 54t54 22t54 -22t22 -54v-198h336v198q0 32 22 54t54 22z" />
    <glyph glyph-name="i" unicode="i" horiz-adv-x="328" 
d="M88 624q0 32 22 54t54 22t54 -22t22 -54v-548q0 -32 -22 -54t-54 -22t-54 22t-22 54v548v0z" />
    <glyph glyph-name="j" unicode="j" horiz-adv-x="567" 
d="M327 624q0 32 22 54t54 22t54 -22t22 -54v-387q0 -50 -18.5 -95.5t-53.5 -80.5t-80.5 -53.5t-95.5 -18.5q-51 0 -96 18.5t-80 53.5q-23 23 -23 54t23 54t54 23t53 -23q30 -28 69 -28q40 0 68 28t28 68v387v0z" />
    <glyph glyph-name="k" unicode="k" horiz-adv-x="694" 
d="M642 135q14 -11 21 -26.5t7 -32.5q0 -26 -17 -48q-20 -25 -51.5 -28t-55.5 17l-306 251v-192q0 -32 -22 -54t-54 -22t-54 22t-22 54v548q0 32 22 54t54 22t54 -22t22 -54v-192l306 250q24 20 55.5 17t51.5 -27q17 -22 17 -48q0 -17 -7 -32.5t-21 -26.5q-50 -41 -98 -81
q-41 -34 -86 -70.5t-78 -63.5q33 -28 77.5 -64.5t86.5 -70.5q48 -40 98 -80z" />
    <glyph glyph-name="l" unicode="l" horiz-adv-x="642" 
d="M88 624q0 32 22 54t54 22t54 -22t22 -54v-472h318q32 0 54 -22t22 -54t-22 -54t-54 -22h-394q-32 0 -54 22t-22 54v548v0z" />
    <glyph glyph-name="m" unicode="m" horiz-adv-x="892" 
d="M668 671q15 19 38.5 25.5t46.5 -1.5t37 -27.5t14 -43.5v-548q0 -32 -22 -54t-54 -22t-54 22t-22 54v329l-146 -184q-23 -29 -60 -29q-17 0 -32.5 7.5t-26.5 21.5q-21 26 -46 57q-21 26 -47.5 59t-53.5 68v-329q0 -32 -22 -54t-54 -22t-54 22t-22 54v548q0 24 14 43.5
t37 27.5t46.5 1.5t38.5 -25.5q43 -54 83 -105q17 -22 36 -45.5t37 -47t35 -44.5t31 -39q14 18 31 39t35 44.5t37 47t36 45.5q40 51 83 105z" />
    <glyph glyph-name="n" unicode="n" horiz-adv-x="792" 
d="M138 695q22 8 45 2t39 -24q56 -68 114 -138q25 -30 52 -62.5t55 -65.5t55.5 -65.5t53.5 -61.5v344q0 32 22 54t54 22t54 -22t22 -54v-548q0 -23 -13.5 -43t-35.5 -28q-23 -8 -46 -2t-38 24q-57 68 -115 138q-50 60 -107.5 127.5t-108.5 127.5v-344q0 -32 -22 -54t-54 -22
t-54 22t-22 54v548q0 23 13.5 43t36.5 28z" />
    <glyph glyph-name="o" unicode="o" horiz-adv-x="834" 
d="M276 682q69 29 141 29t141 -29q64 -27 114 -77q50 -49 78 -115q14 -33 21 -68.5t7 -71.5q0 -75 -28 -141q-27 -64 -78 -115q-50 -50 -114 -77q-66 -28 -141 -28t-141 28q-64 27 -114 77q-50 51 -78 115q-28 66 -28 141q0 36 7 71.5t21 68.5q29 66 78 115q50 50 114 77z
M208 350q0 -44 16.5 -82t45 -66t66.5 -44.5t81 -16.5t81 16.5t66.5 44.5t45 66t16.5 82q0 43 -16.5 81t-45 66.5t-66.5 45t-81 16.5t-81 -16.5t-66.5 -45t-45 -66.5t-16.5 -81z" />
    <glyph glyph-name="p" unicode="p" horiz-adv-x="708" 
d="M422 700q50 0 94.5 -18.5t79.5 -53.5t53.5 -80t18.5 -94q0 -50 -18.5 -94.5t-53.5 -79.5t-79.5 -53.5t-94.5 -18.5h-182v-132q0 -32 -22 -54t-54 -22t-54 22t-22 54v548q0 32 22 54t54 22h258zM240 548v-188h182q19 0 36.5 7.5t30 20t20 29.5t7.5 37q0 19 -7.5 36t-20 30
t-30 20.5t-36.5 7.5h-182z" />
    <glyph glyph-name="q" unicode="q" horiz-adv-x="842" 
d="M743 129q23 -22 23 -53t-23 -54t-54 -22.5t-53 22.5l-24 24q-13 -8 -26.5 -15.5t-27.5 -13.5q-66 -28 -141 -28t-141 28q-64 27 -114 77q-50 51 -78 115q-28 66 -28 141q0 36 7 71.5t21 68.5q29 66 78 115q50 50 114 77q69 29 141 29t141 -29q64 -27 114 -77
q50 -49 78 -115q14 -33 21 -68.5t7 -71.5q0 -75 -28 -141l-14 -28t-16 -28zM417 141q44 0 84 17l-57 57q-22 23 -22 54t23 54q22 22 53.5 22t53.5 -23l57 -57q17 42 17 85t-16.5 81t-45 66.5t-66.5 45t-81 16.5t-81 -16.5t-66.5 -45t-45 -66.5t-16.5 -81q0 -44 16.5 -82
t45 -66t66.5 -44.5t81 -16.5z" />
    <glyph glyph-name="r" unicode="r" horiz-adv-x="735" 
d="M658 124q22 -23 20.5 -54.5t-24.5 -52.5q-23 -22 -54.5 -20.5t-53.5 24.5l-171 187h-135v-132q0 -32 -22 -54t-54 -22t-54 22t-22 54v548q0 32 22 54t54 22h257q50 0 94.5 -18.5t79.5 -53.5t53.5 -80t18.5 -94q0 -50 -18.5 -94.5t-53.5 -79.5q-11 -11 -22.5 -20
t-23.5 -17zM240 360h181q19 0 36.5 7.5t30 20t20 29.5t7.5 37q0 19 -7.5 36t-20 30t-30 20.5t-36.5 7.5h-181v-188z" />
    <glyph glyph-name="s" unicode="s" horiz-adv-x="683" 
d="M166 664q68 47 171 47q51 0 105 -11t93 -28q29 -14 40 -43t-3 -58q-13 -29 -42 -40t-58 2q-25 11 -62.5 18.5t-72.5 7.5q-27 0 -49.5 -5t-36.5 -15q-19 -14 -19 -37q0 -7 2.5 -14t15.5 -15q11 -7 33.5 -15t63.5 -14q114 -17 180 -62q41 -28 66 -68q26 -42 26 -97
t-24 -100t-69 -76q-76 -52 -189 -52q-85 0 -151 25q-49 19 -92 52q-25 20 -29 51t16 56q19 25 50 29t56 -16q9 -7 22.5 -15t31.5 -14.5t41.5 -11t54.5 -4.5q65 0 103 25q27 18 27 51q0 8 -4 18t-21 21q-14 9 -41 19.5t-75 17.5q-98 15 -158 52q-41 27 -63 64q-25 40 -25 93
q0 51 22 92.5t64 69.5z" />
    <glyph glyph-name="t" unicode="t" horiz-adv-x="630" 
d="M538 700q32 0 54 -22t22 -54t-22 -54t-54 -22h-147v-472q0 -32 -22 -54t-54 -22t-54 22t-22 54v472h-147q-32 0 -54 22t-22 54t22 54t54 22h446v0z" />
    <glyph glyph-name="u" unicode="u" horiz-adv-x="828" 
d="M596 624q0 32 22 54t54 22t54 -22t22 -54v-302q0 -66 -26 -129q-26 -61 -72 -107q-45 -45 -106 -71q-31 -14 -63.5 -20t-66.5 -6t-66.5 6t-63.5 20q-58 25 -106 71q-46 46 -72 107q-26 63 -26 129v302q0 32 22 54t54 22t54 -22t22 -54v-302q0 -38 14.5 -70.5t39 -57.5
t57.5 -39t71 -14q37 0 70.5 14t58 39t39 57.5t14.5 70.5v302v0z" />
    <glyph glyph-name="v" unicode="v" horiz-adv-x="771" 
d="M603 659q14 28 44 37t58 -5q14 -7 23.5 -18.5t14 -25.5t3.5 -29.5t-8 -29.5l-286 -547q-10 -19 -28 -30t-39 -11t-39 11t-28 30l-285 547q-8 14 -9 29.5t3.5 29.5t14 25.5t23.5 18.5q28 14 58 5t44 -37q39 -76 79 -152q17 -32 35 -67l36 -70t35.5 -68t32.5 -61
q15 28 32 61t35 68t36.5 70t35.5 67q40 76 79 152z" />
    <glyph glyph-name="w" unicode="w" horiz-adv-x="950" 
d="M726 633q4 32 28.5 51t56.5 15t51 -28.5t15 -56.5l-70 -548q-3 -23 -18.5 -40.5t-38.5 -23.5q-23 -5 -45 3t-36 28q-36 51 -70 102q-30 43 -63.5 92t-60.5 88q-27 -39 -61 -88t-63 -92l-70 -102q-14 -20 -36 -28t-45 -3q-23 6 -38.5 23.5t-18.5 40.5l-70 548
q-4 32 15 56.5t51 28.5t56.5 -15t28.5 -51q7 -55 15 -114q7 -51 14.5 -113t15.5 -123l52 76t46 67q24 34 45 66q24 33 63 33t63 -33q21 -32 45 -66q20 -29 46 -67t53 -76q8 61 15 123t14 113q7 59 15 114z" />
    <glyph glyph-name="x" unicode="x" horiz-adv-x="740" 
d="M694 130q22 -23 21 -54.5t-24 -52.5q-23 -22 -54 -21.5t-53 23.5l-212 224l-216 -228q-22 -23 -53 -23.5t-54 20.5q-23 22 -24 53.5t21 54.5l221 233l-200 212q-22 23 -21 54t24 53t54 21t53 -24l195 -205l195 206q22 22 53.5 23.5t54.5 -20.5q22 -22 23.5 -53.5
t-20.5 -54.5l-201 -212l217 -229v0z" />
    <glyph glyph-name="y" unicode="y" horiz-adv-x="674" 
d="M626 685q26 -19 31 -49.5t-14 -56.5l-230 -317v-186q0 -32 -22 -54t-54 -22t-54 22t-22 54v186l-230 317q-18 26 -13.5 56.5t30.5 49.5t57 14t49 -31l66 -90q28 -38 59.5 -82.5t57.5 -79.5q26 35 57.5 79.5t59.5 82.5l66 90q18 26 49 31t57 -14z" />
    <glyph glyph-name="z" unicode="z" horiz-adv-x="694" 
d="M578 700q23 0 41.5 -12t27.5 -32q7 -15 7 -32q0 -28 -18 -49q-67 -79 -131 -156q-27 -33 -57 -68t-59.5 -70t-57.5 -68t-51 -61h298q32 0 54 -22t22 -54t-22 -54t-54 -22h-462q-23 0 -41.5 12t-27.5 32q-7 14 -7 32q0 28 18 49q66 79 131 156q27 33 57 68t59.5 70
t57.5 68t52 61h-299q-32 0 -54 22t-22 54t22 54t54 22h462z" />
    <glyph glyph-name="braceleft" unicode="{" horiz-adv-x="440" 
d="M156 635q0 38 14.5 71.5t39.5 58.5t58.5 39.5t71.5 14.5q32 0 54 -22t22 -54t-22 -54t-54 -22q-13 0 -22.5 -9t-9.5 -23v-147q0 -30 -9 -57.5t-26 -50.5q17 -23 26 -50.5t9 -57.5v-207q0 -14 9.5 -23.5t22.5 -9.5q32 0 54 -22t22 -54t-22 -54t-54 -22q-38 0 -71.5 14.5
t-58.5 39.5t-39.5 59t-14.5 72v207q0 13 -9 22.5t-23 9.5q-32 0 -54 22t-22 54t22 54t54 22q14 0 23 9t9 23v147v0z" />
    <glyph glyph-name="bar" unicode="|" horiz-adv-x="248" 
d="M48 768q0 32 22 54t54 22t54 -22t22 -54v-836q0 -32 -22 -54t-54 -22t-54 22t-22 54v836v0z" />
    <glyph glyph-name="braceright" unicode="}" horiz-adv-x="440" 
d="M284 488q0 -14 9 -23t23 -9q32 0 54 -22t22 -54t-22 -54t-54 -22q-14 0 -23 -9.5t-9 -22.5v-207q0 -38 -14.5 -72t-39.5 -59t-58.5 -39.5t-71.5 -14.5q-32 0 -54 22t-22 54t22 54t54 22q13 0 22.5 9.5t9.5 23.5v207q0 30 9 57.5t26 50.5q-17 23 -26 50.5t-9 57.5v147
q0 14 -9.5 23t-22.5 9q-32 0 -54 22t-22 54t22 54t54 22q38 0 71.5 -14.5t58.5 -39.5t39.5 -58.5t14.5 -71.5v-147z" />
    <glyph glyph-name="asciitilde" unicode="~" horiz-adv-x="666" 
d="M141 526q38 19 76 19q29 0 53.5 -8t45 -20t37 -26.5t30.5 -27.5q22 -20 37 -31.5t29 -11.5q2 0 3.5 0.5t4.5 4.5q9 14 9 30q0 32 22 54t54 22t54 -22t22 -54q0 -33 -10.5 -64.5t-29.5 -56.5q-23 -30 -53 -47q-38 -19 -76 -19q-30 0 -54.5 8t-45.5 20.5t-38 27t-31 27.5
q-21 20 -35.5 31t-27.5 11q-2 0 -3.5 -0.5t-3.5 -4.5q-10 -13 -10 -31q0 -32 -22 -54t-54 -22t-54 22t-22 54q0 70 40 122q21 28 53 47z" />
    <glyph glyph-name="uni00A0" unicode="&#xa0;" horiz-adv-x="360" 
 />
    <glyph glyph-name="exclamdown" unicode="&#xa1;" horiz-adv-x="312" 
d="M232 63q0 -32 -22 -54t-54 -22t-54 22t-22 54v346q0 32 22 54t54 22t54 -22t22 -54v-346zM80 622q0 32 22 54t54 22t54 -22t22 -54t-22 -54t-54 -22t-54 22t-22 54z" />
    <glyph glyph-name="cent" unicode="&#xa2;" horiz-adv-x="619" 
d="M440 178q23 23 54 23t54 -23t23 -54t-23 -53q-62 -62 -146 -80v-4q0 -25 -17.5 -42.5t-42.5 -17.5t-42.5 17.5t-17.5 42.5v4q-85 17 -148 80q-42 42 -64 94.5t-22 112.5q0 59 22 112t64 95q62 62 148 79v15q0 25 17.5 42.5t42.5 17.5t42.5 -17.5t17.5 -42.5v-15
q84 -18 146 -79q23 -23 23 -54t-23 -54t-54 -23t-54 23q-15 17 -38 28v-254q11 5 20.5 12t17.5 15zM189 278q0 -48 27.5 -85.5t70.5 -55.5v281q-43 -18 -70.5 -55.5t-27.5 -84.5z" />
    <glyph glyph-name="sterling" unicode="&#xa3;" horiz-adv-x="656" 
d="M516 152q32 0 54 -22t22 -54t-22 -54t-54 -22h-335q-32 0 -54 22t-22 54v198q-30 1 -51.5 23t-21.5 53t21.5 52.5t51.5 23.5v30v1q1 51 20 97.5t55 81.5q36 36 82.5 55.5t97.5 19.5t97.5 -19.5t82.5 -55.5q22 -22 22 -53t-22 -54q-23 -23 -54 -23t-54 23q-30 30 -72 30
q-21 0 -40 -8t-33 -22t-22 -33t-8 -40v-30h220q32 0 54 -22t22 -54t-22 -54t-54 -22h-220v-122h259v0z" />
    <glyph glyph-name="currency" unicode="&#xa4;" horiz-adv-x="680" 
d="M609 188q23 -22 23 -53.5t-23 -53.5q-23 -23 -54 -23t-53 23l-30 30q-62 -34 -132 -34t-132 34l-29 -30q-23 -23 -54 -23t-54 23q-23 22 -23 53.5t23 53.5l30 30q-34 62 -34 132q0 71 34 131l-30 30q-23 23 -23 54t23 54q23 22 54 22t54 -22l29 -30q62 34 132 34t132 -34
l30 30q22 22 53 22t54 -22q23 -23 23 -54t-23 -54l-30 -30q34 -60 34 -131q0 -70 -34 -132zM255 264q35 -35 85 -35q24 0 46 9t39 26q36 36 36 86q0 49 -36 85q-17 17 -39 26.5t-46 9.5t-46 -9.5t-39 -26.5q-36 -36 -36 -85q0 -50 36 -86z" />
    <glyph glyph-name="yen" unicode="&#xa5;" horiz-adv-x="660" 
d="M580 685q26 -18 31 -49t-14 -57l-110 -153h28q32 0 54 -22t22 -54t-22 -54t-54 -22h-109v-198q0 -32 -22 -54t-54 -22t-54 22t-22 54v198h-109q-31 0 -53.5 22t-22.5 54t22.5 54t53.5 22h28l-110 153q-19 26 -14 57t31 49q26 19 57 14t49 -31q23 -35 49 -69
q21 -30 46.5 -64.5t48.5 -66.5q23 32 47.5 66.5t46.5 64.5q25 34 50 69q18 26 49 31t57 -14z" />
    <glyph glyph-name="brokenbar" unicode="&#xa6;" horiz-adv-x="248" 
d="M48 768q0 32 22 54t54 22t54 -22t22 -54v-238q0 -32 -22 -54t-54 -22t-54 22t-22 54v238zM48 169q0 32 22 54t54 22t54 -22t22 -54v-238q0 -32 -22 -54t-54 -22t-54 22t-22 54v238z" />
    <glyph glyph-name="section" unicode="&#xa7;" horiz-adv-x="564" 
d="M292 559q-7 0 -15 -1t-15.5 -4t-12.5 -9t-5 -15q0 -7 3.5 -13.5t11.5 -9.5q18 -9 38 -15l40 -12t40 -14t39 -21q72 -51 72 -139q0 -64 -42 -112q42 -45 42 -113q0 -31 -6 -55.5t-15.5 -43.5t-21.5 -33t-23 -23q-54 -45 -140 -45q-40 0 -77 8t-75 19l-17 4q-31 9 -46.5 36
t-7.5 58q8 30 35.5 45.5t58.5 7.5l17 -5q32 -8 59.5 -14.5t52.5 -6.5q22 0 38.5 8.5t16.5 35.5q0 13 -7 17q-16 12 -36.5 19t-43 13.5t-45 14t-41.5 20.5q-71 48 -71 132q0 55 31 99q3 5 6 8.5t6 8.5q-43 45 -43 109q0 30 6 54t15 42.5t20.5 31.5t22.5 22q52 43 135 43
q43 0 79.5 -8.5t68.5 -18.5l12 -3q31 -9 46 -36.5t6 -57.5q-8 -30 -35.5 -45.5t-57.5 -6.5l-13 3q-27 8 -53 14.5t-53 6.5zM356 306q0 12 -7.5 19.5t-19 13t-23.5 8.5t-21 6q-8 -5 -18 -11.5t-19 -14t-15 -15.5t-6 -16q0 -10 7 -16.5t16.5 -11t21 -7.5t20.5 -6q7 3 18 7
t21.5 10t17.5 14.5t7 19.5z" />
    <glyph glyph-name="dieresis" unicode="&#xa8;" horiz-adv-x="291" 
d="M256 784q-27 0 -46 19t-19 46t19 46t46 19t46 -19t19 -46t-19 -46t-46 -19zM37 784q-27 0 -46 19t-19 46t19 46t46 19t46 -19t19 -46t-19 -46t-46 -19z" />
    <glyph glyph-name="copyright" unicode="&#xa9;" horiz-adv-x="808" 
d="M406 463q-23 0 -43.5 -9t-36 -24.5t-24.5 -36t-9 -43.5q0 -24 9 -44.5t24.5 -36t36 -24.5t43.5 -9q48 0 80 34q13 12 30 12t30 -12q12 -13 12 -30t-12 -30q-28 -28 -64 -43t-76 -15q-41 0 -76.5 15.5t-62.5 42.5t-42.5 63t-15.5 77t15.5 77t42.5 62.5t62.5 42t76.5 15.5
q40 0 76 -15t64 -43q12 -12 12 -29.5t-12 -29.5q-13 -13 -30 -13t-30 13q-33 33 -80 33zM656 601q51 -51 77.5 -115t26.5 -136t-26.5 -136.5t-77.5 -115.5t-115.5 -77.5t-136.5 -26.5t-136 26.5t-115 77.5t-78 115.5t-27 136.5t27 136t78 115t115 77.5t136 26.5t136.5 -26.5
t115.5 -77.5zM596 158q38 38 59 87.5t21 104.5q0 54 -21 104t-59 88t-87.5 58.5t-104.5 20.5t-104.5 -20.5t-87.5 -58.5t-59 -88t-21 -104q0 -55 21 -104.5t59 -87.5q38 -39 87.5 -59.5t104.5 -20.5t104.5 20.5t87.5 59.5z" />
    <glyph glyph-name="ordfeminine" unicode="&#xaa;" horiz-adv-x="446" 
d="M417 376q8 -16 3 -32.5t-21 -24.5q-15 -8 -31.5 -3t-24.5 21q-3 5 -7 12q-3 6 -7 13.5t-9 18.5h-194l-16 -32l-6 -12q-8 -16 -25 -21t-32 3q-16 8 -21 24.5t3 32.5l157 301q11 22 37 22t37 -22zM276 465q-14 27 -28 53t-25 49q-11 -23 -25 -49t-28 -53h106z" />
    <glyph glyph-name="guillemotleft" unicode="&#xab;" horiz-adv-x="665" 
d="M590 571q27 -23 27 -58q0 -28 -17 -49t-34 -41q-14 -17 -31.5 -37.5t-31.5 -38.5q13 -18 28 -38.5t28 -37.5q15 -20 29 -39q15 -21 15 -45q0 -18 -8 -34t-23 -27q-25 -19 -56 -14.5t-50 29.5l-121 163q-16 22 -15.5 48t17.5 46l136 163q20 25 51 27.5t56 -17.5zM202 561
q20 25 51 27.5t56 -17.5q27 -23 27 -58q0 -26 -17 -49q-17 -21 -34 -41q-15 -17 -32 -37.5t-32 -38.5q14 -18 28.5 -38.5t27.5 -37.5q15 -20 30 -39q15 -21 15 -45q0 -18 -8 -34t-23 -27q-26 -19 -56.5 -14.5t-49.5 29.5l-121 163q-16 22 -15.5 48t17.5 46z" />
    <glyph glyph-name="logicalnot" unicode="&#xac;" horiz-adv-x="688" 
d="M564 551q32 0 54 -22t22 -54v-250q0 -32 -22 -54t-54 -22t-54 22t-22 54v174h-364q-32 0 -54 22t-22 54t22 54t54 22h440z" />
    <glyph glyph-name="uni00AD" unicode="&#xad;" horiz-adv-x="426" 
d="M302 426q32 0 54 -22t22 -54t-22 -54t-54 -22h-178q-32 0 -54 22t-22 54t22 54t54 22h178z" />
    <glyph glyph-name="registered" unicode="&#xae;" horiz-adv-x="808" 
d="M656 601q51 -51 77.5 -115t26.5 -136t-26.5 -136.5t-77.5 -115.5t-115.5 -77.5t-136.5 -26.5t-136 26.5t-115 77.5t-78 115.5t-27 136.5t27 136t78 115t115 77.5t136 26.5t136.5 -26.5t115.5 -77.5zM596 158q38 38 59 87.5t21 104.5q0 54 -21 104t-59 88t-87.5 58.5
t-104.5 20.5t-104.5 -20.5t-87.5 -58.5t-59 -88t-21 -104q0 -55 21 -104.5t59 -87.5q38 -39 88 -59.5t104 -20.5q55 0 104.5 20.5t87.5 59.5zM567 231q12 -13 11.5 -30t-13.5 -29t-30.5 -11.5t-28.5 13.5l-94 102h-72v-71q0 -17 -12.5 -29.5t-29.5 -12.5t-29.5 12.5
t-12.5 29.5v298q0 17 12.5 29.5t29.5 12.5h140q28 0 52.5 -10.5t43 -29t29 -43t10.5 -52.5q0 -36 -18 -66.5t-47 -47.5zM438 360q21 0 36 15t15 35q0 21 -15 36t-36 15h-98v-101h98z" />
    <glyph glyph-name="macron" unicode="&#xaf;" horiz-adv-x="296" 
d="M244 914q27 0 46 -19t19 -46t-19 -46t-46 -19h-192q-27 0 -46 19t-19 46t19 46t46 19h192z" />
    <glyph glyph-name="degree" unicode="&#xb0;" horiz-adv-x="494" 
d="M48 507q0 41 15.5 77.5t42.5 63.5t63.5 42.5t77.5 15.5t77.5 -15.5t63.5 -42.5t42.5 -63.5t15.5 -77.5t-15.5 -77.5t-42.5 -63.5t-63.5 -42.5t-77.5 -15.5t-77.5 15.5t-63.5 42.5t-42.5 63.5t-15.5 77.5zM132 507q0 -24 9 -44.5t25 -36.5t36.5 -25t44.5 -9t44.5 9
t36.5 25t25 36.5t9 44.5t-9 44.5t-25 36.5t-36.5 25t-44.5 9t-44.5 -9t-36.5 -25t-25 -36.5t-9 -44.5z" />
    <glyph glyph-name="plusminus" unicode="&#xb1;" horiz-adv-x="710" 
d="M124 355q-32 0 -54 22t-22 54t22 54t54 22h155v101q0 32 22 54t54 22t54 -22t22 -54v-101h155q32 0 54 -22t22 -54t-22 -54t-54 -22h-155v-100q0 -32 -22 -54t-54 -22t-54 22t-22 54v100h-155zM586 168q32 0 54 -22t22 -54t-22 -54t-54 -22h-462q-32 0 -54 22t-22 54
t22 54t54 22h462z" />
    <glyph glyph-name="uni00B2" unicode="&#xb2;" horiz-adv-x="380" 
d="M57 570q0 28 10.5 53.5t29.5 44t43.5 29.5t53.5 11q28 0 53.5 -11t44 -29.5t29.5 -44t11 -53.5q0 -56 -40 -98l-92 -90h87q18 0 31 -13t13 -32q0 -18 -13 -31t-31 -13h-194q-14 0 -25 7.5t-16 19.5q-4 8 -4 17q0 17 13 32l168 167q14 14 14 34t-14.5 34.5t-34.5 14.5
t-34 -14.5t-14 -34.5q0 -19 -13 -32t-32 -13t-31.5 13t-12.5 32z" />
    <glyph glyph-name="uni00B3" unicode="&#xb3;" horiz-adv-x="368" 
d="M98 674q34 34 82 34q24 0 45 -9t37 -25t25 -37t9 -45q0 -37 -20 -66q20 -19 32 -45t12 -56q0 -29 -11 -54t-30 -44t-44.5 -30t-54.5 -11q-28 0 -53 10.5t-45 30.5q-19 19 -30 44q-7 17 0 34t24 24q17 8 34 1t24 -24q2 -5 4.5 -9t6.5 -7q13 -15 35 -15q21 0 36 15t15 35
q0 21 -15 35.5t-36 14.5q-18 0 -31 9t-13 28t9 30.5t35 11.5q16 0 27 10.5t11 27.5q0 15 -11 26.5t-27 11.5q-14 0 -22 -6.5t-14 -17.5q-10 -25 -20 -30t-27 2q-17 8 -24 25t0 34q5 11 11 20t14 17z" />
    <glyph glyph-name="acute" unicode="&#xb4;" horiz-adv-x="281" 
d="M198 947q21 17 48 15t44 -23q17 -20 14.5 -47t-22.5 -45l-110 -92q-21 -17 -48 -14.5t-44 22.5q-17 21 -14.5 48t22.5 44l110 92v0z" />
    <glyph glyph-name="paragraph" unicode="&#xb6;" horiz-adv-x="640" 
d="M516 700q32 0 54 -22t22 -54v-679q0 -32 -22 -54t-54 -22t-54 22t-22 54v603h-32v-603q0 -32 -22 -54t-54 -22t-54 22t-22 54v340h-1q-43 0 -80.5 16.5t-65.5 44.5t-44.5 65.5t-16.5 80.5t16.5 80.5t44.5 66t65.5 45t80.5 16.5h261zM256 548h-1q-23 0 -39 -16.5
t-16 -39.5t16 -39t39 -16h1v111z" />
    <glyph glyph-name="periodcentered" unicode="&#xb7;" horiz-adv-x="280" 
d="M216 350q0 -32 -22 -54t-54 -22t-54 22t-22 54t22 54t54 22t54 -22t22 -54z" />
    <glyph glyph-name="cedilla" unicode="&#xb8;" horiz-adv-x="288" 
d="M105 51q7 26 30 39.5t49 6.5q23 -6 36 -23.5t13 -39.5q0 -8 -3 -17q-2 -12 -6 -24q-3 -11 -6.5 -24t-7.5 -27q10 -8 18 -18.5t15 -21.5q11 -17 15.5 -36t4.5 -39q0 -10 -1 -20t-4 -20q-8 -30 -26.5 -53.5t-44 -38t-55 -19t-59.5 3.5q-26 8 -39.5 31t-6.5 49t30.5 39.5
t49.5 6.5q8 -2 16 2.5t10 12.5q2 5 0.5 9.5t-2.5 6.5l-5 5t-8 5q-27 8 -40 30q-14 23 -6 50l33 124v0z" />
    <glyph glyph-name="uni00B9" unicode="&#xb9;" horiz-adv-x="298" 
d="M173 687q10 11 23 13.5t26 -2.5t20.5 -16t7.5 -25v-320q0 -18 -13 -31t-32 -13t-31.5 13t-12.5 31v209l-24 -24l-12 -12q-13 -14 -31 -14t-32 13t-14 31t13 32l112 115v0z" />
    <glyph glyph-name="ordmasculine" unicode="&#xba;" horiz-adv-x="478" 
d="M40 507q0 41 15.5 77.5t42.5 63.5t63.5 42.5t77.5 15.5t77.5 -15.5t63.5 -42.5t42.5 -63.5t15.5 -77.5t-15.5 -77.5t-42.5 -63.5t-63.5 -42.5t-77.5 -15.5t-77.5 15.5t-63.5 42.5t-42.5 63.5t-15.5 77.5zM124 507q0 -24 9 -44.5t25 -36.5t36.5 -25t44.5 -9t44.5 9
t36.5 25t25 36.5t9 44.5t-9 44.5t-25 36.5t-36.5 25t-44.5 9t-44.5 -9t-36.5 -25t-25 -36.5t-9 -44.5z" />
    <glyph glyph-name="guillemotright" unicode="&#xbb;" horiz-adv-x="665" 
d="M75 571q25 20 56 17.5t51 -27.5l136 -163q17 -20 17.5 -46t-15.5 -48l-121 -163q-19 -25 -50 -29.5t-56 14.5q-15 11 -23 27t-8 34q0 24 15 45q14 19 29 39q13 17 27.5 37.5t28.5 38.5q-15 18 -32 38.5t-31 37.5q-17 20 -34 41t-17 49q0 35 27 58zM599 398
q17 -20 17.5 -46t-15.5 -48l-121 -163q-19 -25 -49.5 -29.5t-56.5 14.5q-15 11 -23 27t-8 34q0 24 15 45q14 19 29 39q13 17 28 37.5t29 38.5q-15 18 -32.5 38.5t-31.5 37.5q-18 20 -34 41q-17 23 -17 49q0 35 27 58q25 20 56 17.5t51 -27.5z" />
    <glyph glyph-name="onequarter" unicode="&#xbc;" horiz-adv-x="843" 
d="M592 690q10 14 27 17.5t31 -6.5q15 -10 18.5 -27.5t-7.5 -31.5l-431 -632q-10 -14 -27 -17.5t-31 6.5q-15 10 -18 27t7 31zM173 687q10 11 23 13.5t26 -2.5t20.5 -16t7.5 -25v-320q0 -18 -13 -31t-32 -13t-31.5 13t-12.5 31v209l-24 -24l-12 -12q-13 -14 -31 -14t-32 13
t-14 31t13 32zM636 387q9 11 22.5 14.5t26.5 -1.5q14 -5 22 -16t8 -25v-193h29q19 0 32 -13t13 -31q0 -19 -13 -32t-32 -13h-29v-38q0 -18 -13 -31t-32 -13q-18 0 -31 13t-13 31v38h-152q-28 0 -41 26q-5 11 -3.5 24t9.5 23zM634 267q-18 -21 -29.5 -35t-21.5 -25.5
t-20.5 -24t-26.5 -30.5h98v115z" />
    <glyph glyph-name="onehalf" unicode="&#xbd;" horiz-adv-x="867" 
d="M592 690q10 14 27 17.5t31 -6.5q15 -10 18.5 -27.5t-7.5 -31.5l-431 -632q-10 -14 -27 -17.5t-31 6.5q-15 10 -18 27t7 31zM173 687q10 11 23 13.5t26 -2.5t20.5 -16t7.5 -25v-320q0 -18 -13 -31t-32 -13t-31.5 13t-12.5 31v209l-24 -24l-12 -12q-13 -14 -31 -14t-32 13
t-14 31t13 32zM544 277q0 28 10.5 53.5t29.5 44t43.5 29.5t53.5 11q28 0 53.5 -11t44 -29.5t29.5 -44t11 -53.5q0 -56 -40 -98l-92 -90h87q18 0 31 -13t13 -32q0 -18 -13 -31t-31 -13h-194q-14 0 -25 7.5t-16 19.5q-4 8 -4 17q0 17 13 32l168 167q14 14 14 34t-14.5 34.5
t-34.5 14.5t-34 -14.5t-14 -34.5q0 -19 -13 -32t-32 -13t-31.5 13t-12.5 32z" />
    <glyph glyph-name="threequarters" unicode="&#xbe;" horiz-adv-x="878" 
d="M627 690q10 14 27 17.5t31 -6.5q15 -10 18.5 -27.5t-7.5 -31.5l-431 -632q-10 -14 -27 -17.5t-31 6.5q-15 10 -18 27t7 31zM677 387q9 11 22.5 14.5t26.5 -1.5q14 -5 22 -16t8 -25v-193h29q19 0 32 -13t13 -31q0 -19 -13 -32t-32 -13h-29v-38q0 -18 -13 -31t-32 -13
q-18 0 -31 13t-13 31v38h-152q-28 0 -41 26q-5 11 -3.5 24t9.5 23zM675 267q-18 -21 -29.5 -35t-21.5 -25.5t-20.5 -24t-26.5 -30.5h98v115zM98 674q34 34 82 34q24 0 45 -9t37 -25t25 -37t9 -45q0 -37 -20 -66q20 -19 32 -45t12 -56q0 -29 -11 -54t-30 -44t-44.5 -30
t-54.5 -11q-28 0 -53 10.5t-45 30.5q-19 19 -30 44q-7 17 0 34t24 24q17 8 34 1t24 -24q2 -5 4.5 -9t6.5 -7q13 -15 35 -15q21 0 36 15t15 35q0 21 -15 35.5t-36 14.5q-18 0 -31 9t-13 28t9 30.5t35 11.5q16 0 27 10.5t11 27.5q0 15 -11 26.5t-27 11.5q-14 0 -22 -6.5
t-14 -17.5q-10 -25 -20 -30t-27 2q-17 8 -24 25t0 34q5 11 11 20t14 17z" />
    <glyph glyph-name="questiondown" unicode="&#xbf;" horiz-adv-x="528" 
d="M473 63q-35 -35 -80 -54t-96 -19q-50 0 -95.5 19t-80.5 54t-54 80.5t-19 95.5q0 51 19 96t54 80t80.5 54t95.5 19q32 0 54 -22t22 -54t-22 -54t-54 -22q-20 0 -37.5 -7.5t-31 -20.5t-21 -31t-7.5 -38t7.5 -37.5t21 -31t31 -21t37.5 -7.5t37.5 7.5t31.5 21.5q23 22 54 22
t53 -22q23 -23 23 -54t-23 -54zM221 625q0 32 22 54t54 22t54 -22t22 -54t-22 -54t-54 -22t-54 22t-22 54z" />
    <glyph glyph-name="Agrave" unicode="&#xc0;" 
d="M730 111q14 -28 4.5 -58t-37.5 -44q-28 -15 -58 -5.5t-44 37.5q-5 10 -11 21q-10 18 -29 55h-356q-19 -37 -29 -55q-6 -11 -11 -21q-14 -28 -44 -37.5t-58 5.5q-28 14 -37.5 44t5.5 58l285 548q10 19 28 30t39 11t39 -11t28 -30zM486 259l-109 209l-109 -209h218z
M424 855q20 -17 22.5 -44t-14.5 -48q-17 -20 -44 -22.5t-48 14.5l-110 92q-20 18 -22.5 45t14.5 47q17 21 44 23t48 -15z" />
    <glyph glyph-name="Aacute" unicode="&#xc1;" 
d="M730 111q14 -28 4.5 -58t-37.5 -44q-28 -15 -58 -5.5t-44 37.5q-5 10 -11 21q-10 18 -29 55h-356q-19 -37 -29 -55q-6 -11 -11 -21q-14 -28 -44 -37.5t-58 5.5q-28 14 -37.5 44t5.5 58l285 548q10 19 28 30t39 11t39 -11t28 -30zM486 259l-109 209l-109 -209h218z
M440 947q21 17 48 15t44 -23q17 -20 14.5 -47t-22.5 -45l-110 -92q-21 -17 -48 -14.5t-44 22.5q-17 21 -14.5 48t22.5 44z" />
    <glyph glyph-name="Acircumflex" unicode="&#xc2;" 
d="M730 111q14 -28 4.5 -58t-37.5 -44q-28 -15 -58 -5.5t-44 37.5q-5 10 -11 21q-10 18 -29 55h-356q-19 -37 -29 -55q-6 -11 -11 -21q-14 -28 -44 -37.5t-58 5.5q-28 14 -37.5 44t5.5 58l285 548q10 19 28 30t39 11t39 -11t28 -30zM486 259l-109 209l-109 -209h218z
M334 947q18 15 42 15t42 -15l110 -92q20 -17 22.5 -44t-14.5 -48q-17 -20 -44 -22.5t-48 14.5q-11 8 -22 18q-10 8 -22 18t-24 21q-12 -11 -24 -21t-22 -18q-11 -10 -22 -18q-21 -17 -48 -14.5t-44 22.5q-17 21 -14.5 48t22.5 44l110 92v0z" />
    <glyph glyph-name="Atilde" unicode="&#xc3;" 
d="M730 111q14 -28 4.5 -58t-37.5 -44q-28 -15 -58 -5.5t-44 37.5q-5 10 -11 21q-10 18 -29 55h-356q-19 -37 -29 -55q-6 -11 -11 -21q-14 -28 -44 -37.5t-58 5.5q-28 14 -37.5 44t5.5 58l285 548q10 19 28 30t39 11t39 -11t28 -30zM486 259l-109 209l-109 -209h218z
M334 900q30 27 67 35.5t76 -2.5q26 -8 42.5 -18.5t19.5 -13.5q21 -17 23.5 -43.5t-14.5 -47.5q-17 -20 -44 -23t-48 14l1 -1q-2 2 -6.5 4.5t-10.5 4.5q-5 1 -9.5 0t-10.5 -6q-30 -28 -67 -36.5t-76 2.5q-26 8 -42.5 18.5t-19.5 13.5q-21 17 -23.5 43.5t14.5 47.5t44 23.5
t48 -14.5l-1 1q2 -2 6.5 -4.5t10.5 -3.5q10 -3 20 6z" />
    <glyph glyph-name="Adieresis" unicode="&#xc4;" 
d="M730 111q14 -28 4.5 -58t-37.5 -44q-28 -15 -58 -5.5t-44 37.5q-5 10 -11 21q-10 18 -29 55h-356q-19 -37 -29 -55q-6 -11 -11 -21q-14 -28 -44 -37.5t-58 5.5q-28 14 -37.5 44t5.5 58l285 548q10 19 28 30t39 11t39 -11t28 -30zM486 259l-109 209l-109 -209h218z
M485 784q-27 0 -46 19t-19 46t19 46t46 19t46 -19t19 -46t-19 -46t-46 -19zM266 784q-27 0 -46 19t-19 46t19 46t46 19t46 -19t19 -46t-19 -46t-46 -19z" />
    <glyph glyph-name="Aring" unicode="&#xc5;" 
d="M730 111q14 -28 4.5 -58t-37.5 -44q-28 -15 -58 -5.5t-44 37.5q-5 10 -11 21q-10 18 -29 55h-356q-19 -37 -29 -55q-6 -11 -11 -21q-14 -28 -44 -37.5t-58 5.5q-28 14 -37.5 44t5.5 58l284 547q-36 19 -58.5 54t-22.5 79q0 31 11.5 58.5t32 47.5t47.5 32t58 12t58 -12
t47 -32t32 -47.5t12 -58.5q0 -44 -22.5 -79t-58.5 -54zM377 845q-23 0 -38.5 -15.5t-15.5 -38.5t15.5 -38.5t38.5 -15.5t38.5 15.5t15.5 38.5t-15.5 38.5t-38.5 15.5zM486 259l-109 209l-109 -209h218z" />
    <glyph glyph-name="AE" unicode="&#xc6;" horiz-adv-x="1104" 
d="M972 152q32 0 54 -22t22 -54t-22 -54t-54 -22h-309q-26 0 -46.5 15.5t-27.5 41.5l-18 69h-343l-76 -97q-19 -25 -50 -29t-56 16t-29 51t16 56l427 547q11 14 27 21.5t33 8.5h452q32 0 54 -22t22 -54t-22 -54t-54 -22h-354q7 -26 15 -57t17 -65h274q32 0 54 -22t22 -54
t-22 -54t-54 -22h-234q10 -38 18 -70l13 -52h251zM541 269l-51 196l-152 -196h203z" />
    <glyph glyph-name="Ccedilla" unicode="&#xc7;" horiz-adv-x="751" 
d="M276 682q69 29 141 29q73 0 140 -29q65 -27 115 -77q23 -23 23 -54t-23 -53q-22 -23 -53.5 -23t-53.5 23q-30 29 -68 45t-80 16q-44 0 -82 -16.5t-66 -45t-44.5 -66.5t-16.5 -81q0 -44 16.5 -82t44.5 -66t66 -44.5t82 -16.5q42 0 80 15.5t68 45.5q22 23 53.5 23t53.5 -23
q23 -23 23 -54t-23 -54q-50 -50 -115 -77q-44 -19 -94 -25l-13 -50q10 -8 18 -18.5t15 -21.5q11 -17 15.5 -36t4.5 -39q0 -10 -1 -20t-4 -20q-8 -30 -26.5 -53.5t-44 -38t-55 -19t-59.5 3.5q-26 8 -39.5 31t-6.5 49t30.5 39.5t49.5 6.5q8 -2 16 2.5t10 12.5q2 5 0.5 9.5
t-2.5 6.5l-5 5t-8 5q-27 8 -40 30q-14 23 -6 50l19 72q-28 6 -55 18q-63 26 -115 77q-51 52 -77 115q-28 66 -28 141q0 36 7 71.5t21 68.5q27 65 77 115q52 51 115 77z" />
    <glyph glyph-name="Egrave" unicode="&#xc8;" horiz-adv-x="690" 
d="M558 152q32 0 54 -22t22 -54t-22 -54t-54 -22h-394q-32 0 -54 22t-22 54v548q0 32 22 54t54 22h394q32 0 54 -22t22 -54t-22 -54t-54 -22h-318v-122h270q32 0 54 -22t22 -54t-22 -54t-54 -22h-270v-122h318v0zM413 855q20 -17 22.5 -44t-14.5 -48q-17 -20 -44 -22.5
t-48 14.5l-110 92q-20 18 -22.5 45t14.5 47q17 21 44 23t48 -15z" />
    <glyph glyph-name="Eacute" unicode="&#xc9;" horiz-adv-x="690" 
d="M558 152q32 0 54 -22t22 -54t-22 -54t-54 -22h-394q-32 0 -54 22t-22 54v548q0 32 22 54t54 22h394q32 0 54 -22t22 -54t-22 -54t-54 -22h-318v-122h270q32 0 54 -22t22 -54t-22 -54t-54 -22h-270v-122h318zM433 947q21 17 48 15t44 -23q17 -20 14.5 -47t-22.5 -45
l-110 -92q-21 -17 -48 -14.5t-44 22.5q-17 21 -14.5 48t22.5 44z" />
    <glyph glyph-name="Ecircumflex" unicode="&#xca;" horiz-adv-x="667" 
d="M558 152q32 0 54 -22t22 -54t-22 -54t-54 -22h-394q-32 0 -54 22t-22 54v548q0 32 22 54t54 22h394q32 0 54 -22t22 -54t-22 -54t-54 -22h-318v-122h270q32 0 54 -22t22 -54t-22 -54t-54 -22h-270v-122h318zM335 947q18 15 42 15t42 -15l110 -92q20 -17 22.5 -44
t-14.5 -48q-17 -20 -44 -22.5t-48 14.5q-11 8 -22 18q-10 8 -22 18t-24 21q-12 -11 -24 -21t-22 -18q-11 -10 -22 -18q-21 -17 -48 -14.5t-44 22.5q-17 21 -14.5 48t22.5 44z" />
    <glyph glyph-name="Edieresis" unicode="&#xcb;" horiz-adv-x="690" 
d="M558 152q32 0 54 -22t22 -54t-22 -54t-54 -22h-394q-32 0 -54 22t-22 54v548q0 32 22 54t54 22h394q32 0 54 -22t22 -54t-22 -54t-54 -22h-318v-122h270q32 0 54 -22t22 -54t-22 -54t-54 -22h-270v-122h318zM469 784q-27 0 -46 19t-19 46t19 46t46 19t46 -19t19 -46
t-19 -46t-46 -19zM250 784q-27 0 -46 19t-19 46t19 46t46 19t46 -19t19 -46t-19 -46t-46 -19z" />
    <glyph glyph-name="Igrave" unicode="&#xcc;" horiz-adv-x="348" 
d="M108 624q0 32 22 54t54 22t54 -22t22 -54v-548q0 -32 -22 -54t-54 -22t-54 22t-22 54v548zM230 855q20 -17 22.5 -44t-14.5 -48q-17 -20 -44 -22.5t-48 14.5l-110 92q-20 18 -22.5 45t14.5 47q17 21 44 23t48 -15z" />
    <glyph glyph-name="Iacute" unicode="&#xcd;" horiz-adv-x="347" 
d="M88 624q0 32 22 54t54 22t54 -22t22 -54v-548q0 -32 -22 -54t-54 -22t-54 22t-22 54v548zM227 947q21 17 48 15t44 -23q17 -20 14.5 -47t-22.5 -45l-110 -92q-21 -17 -48 -14.5t-44 22.5q-17 21 -14.5 48t22.5 44z" />
    <glyph glyph-name="Icircumflex" unicode="&#xce;" horiz-adv-x="369" 
d="M108 624q0 32 22 54t54 22t54 -22t22 -54v-548q0 -32 -22 -54t-54 -22t-54 22t-22 54v548zM143 947q18 15 42 15t42 -15l110 -92q20 -17 22.5 -44t-14.5 -48q-17 -20 -44 -22.5t-48 14.5q-11 8 -22 18q-10 8 -22 18t-24 21q-12 -11 -24 -21t-22 -18q-11 -10 -22 -18
q-21 -17 -48 -14.5t-44 22.5q-17 21 -14.5 48t22.5 44z" />
    <glyph glyph-name="Idieresis" unicode="&#xcf;" horiz-adv-x="368" 
d="M108 624q0 32 22 54t54 22t54 -22t22 -54v-548q0 -32 -22 -54t-54 -22t-54 22t-22 54v548zM294 784q-27 0 -46 19t-19 46t19 46t46 19t46 -19t19 -46t-19 -46t-46 -19zM75 784q-27 0 -46 19t-19 46t19 46t46 19t46 -19t19 -46t-19 -46t-46 -19z" />
    <glyph glyph-name="Eth" unicode="&#xd0;" horiz-adv-x="836" 
d="M753 486q27 -65 27 -136q0 -72 -27 -136q-27 -62 -75 -112q-47 -47 -111 -75q-65 -27 -136 -27h-246q-32 0 -54 22t-22 54v198h-25q-32 0 -54 22t-22 54t22 54t54 22h25v198q0 32 22 54t54 22h246q69 0 136 -28q64 -28 111 -75q48 -48 75 -111zM431 152q41 0 77 15.5
t62.5 42.5t42 63t15.5 77t-15.5 77t-42 63t-62.5 42.5t-77 15.5h-170v-122h134q32 0 54 -22t22 -54t-22 -54t-54 -22h-134v-122h170z" />
    <glyph glyph-name="Ntilde" unicode="&#xd1;" horiz-adv-x="792" 
d="M138 695q22 8 45 2t39 -24q56 -68 114 -138q25 -30 52 -62.5t55 -65.5t55.5 -65.5t53.5 -61.5v344q0 32 22 54t54 22t54 -22t22 -54v-548q0 -23 -13.5 -43t-35.5 -28q-23 -8 -46 -2t-38 24q-57 68 -115 138q-50 60 -107.5 127.5t-108.5 127.5v-344q0 -32 -22 -54t-54 -22
t-54 22t-22 54v548q0 23 13.5 43t36.5 28zM354 900q30 27 67 35.5t76 -2.5q26 -8 42.5 -18.5t19.5 -13.5q21 -17 23.5 -43.5t-14.5 -47.5q-17 -20 -44 -23t-48 14l1 -1q-2 2 -6.5 4.5t-10.5 4.5q-5 1 -9.5 0t-10.5 -6q-30 -28 -67 -36.5t-76 2.5q-26 8 -42.5 18.5
t-19.5 13.5q-21 17 -23.5 43.5t14.5 47.5t44 23.5t48 -14.5l-1 1q2 -2 6.5 -4.5t10.5 -3.5q10 -3 20 6z" />
    <glyph glyph-name="Ograve" unicode="&#xd2;" horiz-adv-x="834" 
d="M276 682q69 29 141 29t141 -29q64 -27 114 -77q50 -49 78 -115q14 -33 21 -68.5t7 -71.5q0 -75 -28 -141q-27 -64 -78 -115q-50 -50 -114 -77q-66 -28 -141 -28t-141 28q-64 27 -114 77q-50 51 -78 115q-28 66 -28 141q0 36 7 71.5t21 68.5q29 66 78 115q50 50 114 77z
M208 350q0 -44 16.5 -82t45 -66t66.5 -44.5t81 -16.5t81 16.5t66.5 44.5t45 66t16.5 82q0 43 -16.5 81t-45 66.5t-66.5 45t-81 16.5t-81 -16.5t-66.5 -45t-45 -66.5t-16.5 -81zM461 855q20 -17 22.5 -44t-14.5 -48q-17 -20 -44 -22.5t-48 14.5l-110 92q-20 18 -22.5 45
t14.5 47q17 21 44 23t48 -15z" />
    <glyph glyph-name="Oacute" unicode="&#xd3;" horiz-adv-x="834" 
d="M276 682q69 29 141 29t141 -29q64 -27 114 -77q50 -49 78 -115q14 -33 21 -68.5t7 -71.5q0 -75 -28 -141q-27 -64 -78 -115q-50 -50 -114 -77q-66 -28 -141 -28t-141 28q-64 27 -114 77q-50 51 -78 115q-28 66 -28 141q0 36 7 71.5t21 68.5q29 66 78 115q50 50 114 77z
M208 350q0 -44 16.5 -82t45 -66t66.5 -44.5t81 -16.5t81 16.5t66.5 44.5t45 66t16.5 82q0 43 -16.5 81t-45 66.5t-66.5 45t-81 16.5t-81 -16.5t-66.5 -45t-45 -66.5t-16.5 -81zM483 947q21 17 48 15t44 -23q17 -20 14.5 -47t-22.5 -45l-110 -92q-21 -17 -48 -14.5t-44 22.5
q-17 21 -14.5 48t22.5 44z" />
    <glyph glyph-name="Ocircumflex" unicode="&#xd4;" horiz-adv-x="834" 
d="M276 682q69 29 141 29t141 -29q64 -27 114 -77q50 -49 78 -115q14 -33 21 -68.5t7 -71.5q0 -75 -28 -141q-27 -64 -78 -115q-50 -50 -114 -77q-66 -28 -141 -28t-141 28q-64 27 -114 77q-50 51 -78 115q-28 66 -28 141q0 36 7 71.5t21 68.5q29 66 78 115q50 50 114 77z
M208 350q0 -44 16.5 -82t45 -66t66.5 -44.5t81 -16.5t81 16.5t66.5 44.5t45 66t16.5 82q0 43 -16.5 81t-45 66.5t-66.5 45t-81 16.5t-81 -16.5t-66.5 -45t-45 -66.5t-16.5 -81zM376 947q18 15 42 15t42 -15l110 -92q20 -17 22.5 -44t-14.5 -48q-17 -20 -44 -22.5t-48 14.5
q-11 8 -22 18q-10 8 -22 18t-24 21q-12 -11 -24 -21t-22 -18q-11 -10 -22 -18q-21 -17 -48 -14.5t-44 22.5q-17 21 -14.5 48t22.5 44l110 92v0z" />
    <glyph glyph-name="Otilde" unicode="&#xd5;" horiz-adv-x="834" 
d="M276 682q69 29 141 29t141 -29q64 -27 114 -77q50 -49 78 -115q14 -33 21 -68.5t7 -71.5q0 -75 -28 -141q-27 -64 -78 -115q-50 -50 -114 -77q-66 -28 -141 -28t-141 28q-64 27 -114 77q-50 51 -78 115q-28 66 -28 141q0 36 7 71.5t21 68.5q29 66 78 115q50 50 114 77z
M208 350q0 -44 16.5 -82t45 -66t66.5 -44.5t81 -16.5t81 16.5t66.5 44.5t45 66t16.5 82q0 43 -16.5 81t-45 66.5t-66.5 45t-81 16.5t-81 -16.5t-66.5 -45t-45 -66.5t-16.5 -81zM374 900q30 27 67 35.5t76 -2.5q26 -8 42.5 -18.5t19.5 -13.5q21 -17 23.5 -43.5t-14.5 -47.5
q-17 -20 -44 -23t-48 14l1 -1q-2 2 -6.5 4.5t-10.5 4.5q-5 1 -9.5 0t-10.5 -6q-30 -28 -67 -36.5t-76 2.5q-26 8 -42.5 18.5t-19.5 13.5q-21 17 -23.5 43.5t14.5 47.5t44 23.5t48 -14.5l-1 1q2 -2 6.5 -4.5t10.5 -3.5q10 -3 20 6z" />
    <glyph glyph-name="Odieresis" unicode="&#xd6;" horiz-adv-x="834" 
d="M276 682q69 29 141 29t141 -29q64 -27 114 -77q50 -49 78 -115q14 -33 21 -68.5t7 -71.5q0 -75 -28 -141q-27 -64 -78 -115q-50 -50 -114 -77q-66 -28 -141 -28t-141 28q-64 27 -114 77q-50 51 -78 115q-28 66 -28 141q0 36 7 71.5t21 68.5q29 66 78 115q50 50 114 77z
M208 350q0 -44 16.5 -82t45 -66t66.5 -44.5t81 -16.5t81 16.5t66.5 44.5t45 66t16.5 82q0 43 -16.5 81t-45 66.5t-66.5 45t-81 16.5t-81 -16.5t-66.5 -45t-45 -66.5t-16.5 -81zM528 784q-27 0 -46 19t-19 46t19 46t46 19t46 -19t19 -46t-19 -46t-46 -19zM309 784
q-27 0 -46 19t-19 46t19 46t46 19t46 -19t19 -46t-19 -46t-46 -19z" />
    <glyph glyph-name="multiply" unicode="&#xd7;" horiz-adv-x="680" 
d="M609 188q23 -22 23 -53.5t-23 -53.5q-23 -23 -54 -23t-53 23l-162 161l-161 -161q-23 -23 -54 -23t-54 23q-23 22 -23 53.5t23 53.5l162 162l-162 161q-23 23 -23 54t23 54q23 22 54 22t54 -22l161 -162l162 162q22 22 53 22t54 -22q23 -23 23 -54t-23 -54l-161 -161z
" />
    <glyph glyph-name="Oslash" unicode="&#xd8;" horiz-adv-x="834" 
d="M750 490q14 -33 21 -68.5t7 -71.5q0 -75 -28 -141q-27 -64 -78 -115q-50 -50 -114 -77q-66 -28 -141 -28q-34 0 -65 6l-22 -61q-9 -23 -31.5 -33.5t-45.5 -2.5q-23 9 -33.5 31.5t-2.5 45.5l22 61q-44 25 -77 58q-50 51 -78 115q-28 66 -28 141q0 36 7 71.5t21 68.5
q29 66 78 115q50 50 114 77q69 29 141 29q33 0 65 -6l23 60q8 24 30.5 34.5t45.5 1.5q24 -8 34.5 -30.5t1.5 -46.5l-22 -60q42 -24 77 -59q50 -49 78 -115zM208 350q0 -52 23 -95.5t61 -72.5l137 377h-12q-43 0 -81 -16.5t-66.5 -45t-45 -66.5t-16.5 -81zM417 141
q43 0 81 16.5t66.5 44.5t45 66t16.5 82q0 51 -23 94.5t-61 72.5l-137 -376h12z" />
    <glyph glyph-name="Ugrave" unicode="&#xd9;" horiz-adv-x="828" 
d="M596 624q0 32 22 54t54 22t54 -22t22 -54v-302q0 -66 -26 -129q-26 -61 -72 -107q-45 -45 -106 -71q-31 -14 -63.5 -20t-66.5 -6t-66.5 6t-63.5 20q-58 25 -106 71q-46 46 -72 107q-26 63 -26 129v302q0 32 22 54t54 22t54 -22t22 -54v-302q0 -38 14.5 -70.5t39 -57.5
t57.5 -39t71 -14q37 0 70.5 14t58 39t39 57.5t14.5 70.5v302v0zM461 855q20 -17 22.5 -44t-14.5 -48q-17 -20 -44 -22.5t-48 14.5l-110 92q-20 18 -22.5 45t14.5 47q17 21 44 23t48 -15z" />
    <glyph glyph-name="Uacute" unicode="&#xda;" horiz-adv-x="828" 
d="M596 624q0 32 22 54t54 22t54 -22t22 -54v-302q0 -66 -26 -129q-26 -61 -72 -107q-45 -45 -106 -71q-31 -14 -63.5 -20t-66.5 -6t-66.5 6t-63.5 20q-58 25 -106 71q-46 46 -72 107q-26 63 -26 129v302q0 32 22 54t54 22t54 -22t22 -54v-302q0 -38 14.5 -70.5t39 -57.5
t57.5 -39t71 -14q37 0 70.5 14t58 39t39 57.5t14.5 70.5v302zM476 947q21 17 48 15t44 -23q17 -20 14.5 -47t-22.5 -45l-110 -92q-21 -17 -48 -14.5t-44 22.5q-17 21 -14.5 48t22.5 44z" />
    <glyph glyph-name="Ucircumflex" unicode="&#xdb;" horiz-adv-x="828" 
d="M596 624q0 32 22 54t54 22t54 -22t22 -54v-302q0 -66 -26 -129q-26 -61 -72 -107q-45 -45 -106 -71q-31 -14 -63.5 -20t-66.5 -6t-66.5 6t-63.5 20q-58 25 -106 71q-46 46 -72 107q-26 63 -26 129v302q0 32 22 54t54 22t54 -22t22 -54v-302q0 -38 14.5 -70.5t39 -57.5
t57.5 -39t71 -14q37 0 70.5 14t58 39t39 57.5t14.5 70.5v302v0zM373 947q18 15 42 15t42 -15l110 -92q20 -17 22.5 -44t-14.5 -48q-17 -20 -44 -22.5t-48 14.5q-11 8 -22 18q-10 8 -22 18t-24 21q-12 -11 -24 -21t-22 -18q-11 -10 -22 -18q-21 -17 -48 -14.5t-44 22.5
q-17 21 -14.5 48t22.5 44l110 92v0z" />
    <glyph glyph-name="Udieresis" unicode="&#xdc;" horiz-adv-x="828" 
d="M596 624q0 32 22 54t54 22t54 -22t22 -54v-302q0 -66 -26 -129q-26 -61 -72 -107q-45 -45 -106 -71q-31 -14 -63.5 -20t-66.5 -6t-66.5 6t-63.5 20q-58 25 -106 71q-46 46 -72 107q-26 63 -26 129v302q0 32 22 54t54 22t54 -22t22 -54v-302q0 -38 14.5 -70.5t39 -57.5
t57.5 -39t71 -14q37 0 70.5 14t58 39t39 57.5t14.5 70.5v302zM518 784q-27 0 -46 19t-19 46t19 46t46 19t46 -19t19 -46t-19 -46t-46 -19zM299 784q-27 0 -46 19t-19 46t19 46t46 19t46 -19t19 -46t-19 -46t-46 -19z" />
    <glyph glyph-name="Yacute" unicode="&#xdd;" horiz-adv-x="674" 
d="M626 685q26 -19 31 -49.5t-14 -56.5l-230 -317v-186q0 -32 -22 -54t-54 -22t-54 22t-22 54v186l-230 317q-18 26 -13.5 56.5t30.5 49.5t57 14t49 -31l66 -90q28 -38 59.5 -82.5t57.5 -79.5q26 35 57.5 79.5t59.5 82.5l66 90q18 26 49 31t57 -14zM400 947q21 17 48 15
t44 -23q17 -20 14.5 -47t-22.5 -45l-110 -92q-21 -17 -48 -14.5t-44 22.5q-17 21 -14.5 48t22.5 44l110 92v0z" />
    <glyph glyph-name="Thorn" unicode="&#xde;" horiz-adv-x="708" 
d="M596 524q35 -35 53.5 -80t18.5 -94q0 -50 -18.5 -94.5t-53.5 -79.5t-79.5 -53.5t-94.5 -18.5h-182v-28q0 -32 -22 -54t-54 -22t-54 22t-22 54v548q0 32 22 54t54 22t54 -22t22 -54v-28h182q50 0 94.5 -18.5t79.5 -53.5zM422 256q19 0 36.5 7.5t30 20t20 29.5t7.5 37
q0 19 -7.5 36.5t-20 30t-30 20t-36.5 7.5h-182v-188h182z" />
    <glyph glyph-name="germandbls" unicode="&#xdf;" horiz-adv-x="1345" 
d="M828 664q68 47 171 47q51 0 105 -11t93 -28q29 -14 40 -43t-3 -58q-13 -29 -42 -40t-58 2q-25 11 -62.5 18.5t-72.5 7.5q-27 0 -49.5 -5t-36.5 -15q-19 -14 -19 -37q0 -7 2.5 -14t15.5 -15q11 -7 33.5 -15t63.5 -14q114 -17 180 -62q41 -28 66 -68q26 -42 26 -97
t-24 -100t-69 -76q-76 -52 -189 -52q-85 0 -151 25q-49 19 -92 52q-25 20 -29 51t16 56q19 25 50 29t56 -16q9 -7 22.5 -15t31.5 -14.5t41.5 -11t54.5 -4.5q65 0 103 25q27 18 27 51q0 8 -4 18t-21 21q-14 9 -41 19.5t-75 17.5q-98 15 -158 52q-41 27 -63 64q-25 40 -25 93
q0 51 22 92.5t64 69.5zM166 664q68 47 171 47q51 0 105 -11t93 -28q29 -14 40 -43t-3 -58q-13 -29 -42 -40t-58 2q-25 11 -62.5 18.5t-72.5 7.5q-27 0 -49.5 -5t-36.5 -15q-19 -14 -19 -37q0 -7 2.5 -14t15.5 -15q11 -7 33.5 -15t63.5 -14q114 -17 180 -62q41 -28 66 -68
q26 -42 26 -97t-24 -100t-69 -76q-76 -52 -189 -52q-85 0 -151 25q-49 19 -92 52q-25 20 -29 51t16 56q19 25 50 29t56 -16q9 -7 22.5 -15t31.5 -14.5t41.5 -11t54.5 -4.5q65 0 103 25q27 18 27 51q0 8 -4 18t-21 21q-14 9 -41 19.5t-75 17.5q-98 15 -158 52q-41 27 -63 64
q-25 40 -25 93q0 51 22 92.5t64 69.5z" />
    <glyph glyph-name="agrave" unicode="&#xe0;" 
d="M730 111q14 -28 4.5 -58t-37.5 -44q-28 -15 -58 -5.5t-44 37.5q-5 10 -11 21q-10 18 -29 55h-356q-19 -37 -29 -55q-6 -11 -11 -21q-14 -28 -44 -37.5t-58 5.5q-28 14 -37.5 44t5.5 58l285 548q10 19 28 30t39 11t39 -11t28 -30zM486 259l-109 209l-109 -209h218z
M427 855q20 -17 22.5 -44t-14.5 -48q-17 -20 -44 -22.5t-48 14.5l-110 92q-20 18 -22.5 45t14.5 47q17 21 44 23t48 -15z" />
    <glyph glyph-name="aacute" unicode="&#xe1;" 
d="M730 111q14 -28 4.5 -58t-37.5 -44q-28 -15 -58 -5.5t-44 37.5q-5 10 -11 21q-10 18 -29 55h-356q-19 -37 -29 -55q-6 -11 -11 -21q-14 -28 -44 -37.5t-58 5.5q-28 14 -37.5 44t5.5 58l285 548q10 19 28 30t39 11t39 -11t28 -30zM486 259l-109 209l-109 -209h218z
M441 947q21 17 48 15t44 -23q17 -20 14.5 -47t-22.5 -45l-110 -92q-21 -17 -48 -14.5t-44 22.5q-17 21 -14.5 48t22.5 44z" />
    <glyph glyph-name="acircumflex" unicode="&#xe2;" 
d="M730 111q14 -28 4.5 -58t-37.5 -44q-28 -15 -58 -5.5t-44 37.5q-5 10 -11 21q-10 18 -29 55h-356q-19 -37 -29 -55q-6 -11 -11 -21q-14 -28 -44 -37.5t-58 5.5q-28 14 -37.5 44t5.5 58l285 548q10 19 28 30t39 11t39 -11t28 -30zM486 259l-109 209l-109 -209h218z
M335 947q18 15 42 15t42 -15l110 -92q20 -17 22.5 -44t-14.5 -48q-17 -20 -44 -22.5t-48 14.5q-11 8 -22 18q-10 8 -22 18t-24 21q-12 -11 -24 -21t-22 -18q-11 -10 -22 -18q-21 -17 -48 -14.5t-44 22.5q-17 21 -14.5 48t22.5 44l110 92v0z" />
    <glyph glyph-name="atilde" unicode="&#xe3;" 
d="M730 111q14 -28 4.5 -58t-37.5 -44q-28 -15 -58 -5.5t-44 37.5q-5 10 -11 21q-10 18 -29 55h-356q-19 -37 -29 -55q-6 -11 -11 -21q-14 -28 -44 -37.5t-58 5.5q-28 14 -37.5 44t5.5 58l285 548q10 19 28 30t39 11t39 -11t28 -30zM486 259l-109 209l-109 -209h218z
M335 900q30 27 67 35.5t76 -2.5q26 -8 42.5 -18.5t19.5 -13.5q21 -17 23.5 -43.5t-14.5 -47.5q-17 -20 -44 -23t-48 14l1 -1q-2 2 -6.5 4.5t-10.5 4.5q-5 1 -9.5 0t-10.5 -6q-30 -28 -67 -36.5t-76 2.5q-26 8 -42.5 18.5t-19.5 13.5q-21 17 -23.5 43.5t14.5 47.5t44 23.5
t48 -14.5l-1 1q2 -2 6.5 -4.5t10.5 -3.5q10 -3 20 6z" />
    <glyph glyph-name="adieresis" unicode="&#xe4;" 
d="M730 111q14 -28 4.5 -58t-37.5 -44q-28 -15 -58 -5.5t-44 37.5q-5 10 -11 21q-10 18 -29 55h-356q-19 -37 -29 -55q-6 -11 -11 -21q-14 -28 -44 -37.5t-58 5.5q-28 14 -37.5 44t5.5 58l285 548q10 19 28 30t39 11t39 -11t28 -30zM486 259l-109 209l-109 -209h218z
M487 784q-27 0 -46 19t-19 46t19 46t46 19t46 -19t19 -46t-19 -46t-46 -19zM268 784q-27 0 -46 19t-19 46t19 46t46 19t46 -19t19 -46t-19 -46t-46 -19z" />
    <glyph glyph-name="aring" unicode="&#xe5;" 
d="M730 111q14 -28 4.5 -58t-37.5 -44q-28 -15 -58 -5.5t-44 37.5q-5 10 -11 21q-10 18 -29 55h-356q-19 -37 -29 -55q-6 -11 -11 -21q-14 -28 -44 -37.5t-58 5.5q-28 14 -37.5 44t5.5 58l284 547q-36 19 -58.5 54t-22.5 79q0 31 11.5 58.5t32 47.5t47.5 32t58 12t58 -12
t47 -32t32 -47.5t12 -58.5q0 -44 -22.5 -79t-58.5 -54zM377 845q-23 0 -38.5 -15.5t-15.5 -38.5t15.5 -38.5t38.5 -15.5t38.5 15.5t15.5 38.5t-15.5 38.5t-38.5 15.5zM486 259l-109 209l-109 -209h218z" />
    <glyph glyph-name="ae" unicode="&#xe6;" horiz-adv-x="1104" 
d="M972 152q32 0 54 -22t22 -54t-22 -54t-54 -22h-309q-26 0 -46.5 15.5t-27.5 41.5l-18 69h-343l-76 -97q-19 -25 -50 -29t-56 16t-29 51t16 56l427 547q11 14 27 21.5t33 8.5h452q32 0 54 -22t22 -54t-22 -54t-54 -22h-354q7 -26 15 -57t17 -65h274q32 0 54 -22t22 -54
t-22 -54t-54 -22h-234q10 -38 18 -70l13 -52h251zM541 269l-51 196l-152 -196h203z" />
    <glyph glyph-name="ccedilla" unicode="&#xe7;" horiz-adv-x="751" 
d="M276 682q69 29 141 29q73 0 140 -29q65 -27 115 -77q23 -23 23 -54t-23 -53q-22 -23 -53.5 -23t-53.5 23q-30 29 -68 45t-80 16q-44 0 -82 -16.5t-66 -45t-44.5 -66.5t-16.5 -81q0 -44 16.5 -82t44.5 -66t66 -44.5t82 -16.5q42 0 80 15.5t68 45.5q22 23 53.5 23t53.5 -23
q23 -23 23 -54t-23 -54q-50 -50 -115 -77q-44 -19 -94 -25l-13 -50q10 -8 18 -18.5t15 -21.5q11 -17 15.5 -36t4.5 -39q0 -10 -1 -20t-4 -20q-8 -30 -26.5 -53.5t-44 -38t-55 -19t-59.5 3.5q-26 8 -39.5 31t-6.5 49t30.5 39.5t49.5 6.5q8 -2 16 2.5t10 12.5q2 5 0.5 9.5
t-2.5 6.5l-5 5t-8 5q-27 8 -40 30q-14 23 -6 50l19 72q-28 6 -55 18q-63 26 -115 77q-51 52 -77 115q-28 66 -28 141q0 36 7 71.5t21 68.5q27 65 77 115q52 51 115 77z" />
    <glyph glyph-name="egrave" unicode="&#xe8;" horiz-adv-x="690" 
d="M558 152q32 0 54 -22t22 -54t-22 -54t-54 -22h-394q-32 0 -54 22t-22 54v548q0 32 22 54t54 22h394q32 0 54 -22t22 -54t-22 -54t-54 -22h-318v-122h270q32 0 54 -22t22 -54t-22 -54t-54 -22h-270v-122h318v0zM409 855q20 -17 22.5 -44t-14.5 -48q-17 -20 -44 -22.5
t-48 14.5l-110 92q-20 18 -22.5 45t14.5 47q17 21 44 23t48 -15z" />
    <glyph glyph-name="eacute" unicode="&#xe9;" horiz-adv-x="690" 
d="M558 152q32 0 54 -22t22 -54t-22 -54t-54 -22h-394q-32 0 -54 22t-22 54v548q0 32 22 54t54 22h394q32 0 54 -22t22 -54t-22 -54t-54 -22h-318v-122h270q32 0 54 -22t22 -54t-22 -54t-54 -22h-270v-122h318zM430 947q21 17 48 15t44 -23q17 -20 14.5 -47t-22.5 -45
l-110 -92q-21 -17 -48 -14.5t-44 22.5q-17 21 -14.5 48t22.5 44z" />
    <glyph glyph-name="ecircumflex" unicode="&#xea;" horiz-adv-x="690" 
d="M558 152q32 0 54 -22t22 -54t-22 -54t-54 -22h-394q-32 0 -54 22t-22 54v548q0 32 22 54t54 22h394q32 0 54 -22t22 -54t-22 -54t-54 -22h-318v-122h270q32 0 54 -22t22 -54t-22 -54t-54 -22h-270v-122h318v0zM329 947q18 15 42 15t42 -15l110 -92q20 -17 22.5 -44
t-14.5 -48q-17 -20 -44 -22.5t-48 14.5q-11 8 -22 18q-10 8 -22 18t-24 21q-12 -11 -24 -21t-22 -18q-11 -10 -22 -18q-21 -17 -48 -14.5t-44 22.5q-17 21 -14.5 48t22.5 44l110 92v0z" />
    <glyph glyph-name="edieresis" unicode="&#xeb;" horiz-adv-x="690" 
d="M558 152q32 0 54 -22t22 -54t-22 -54t-54 -22h-394q-32 0 -54 22t-22 54v548q0 32 22 54t54 22h394q32 0 54 -22t22 -54t-22 -54t-54 -22h-318v-122h270q32 0 54 -22t22 -54t-22 -54t-54 -22h-270v-122h318zM460 784q-27 0 -46 19t-19 46t19 46t46 19t46 -19t19 -46
t-19 -46t-46 -19zM241 784q-27 0 -46 19t-19 46t19 46t46 19t46 -19t19 -46t-19 -46t-46 -19z" />
    <glyph glyph-name="igrave" unicode="&#xec;" horiz-adv-x="347" 
d="M107 624q0 32 22 54t54 22t54 -22t22 -54v-548q0 -32 -22 -54t-54 -22t-54 22t-22 54v548zM230 855q20 -17 22.5 -44t-14.5 -48q-17 -20 -44 -22.5t-48 14.5l-110 92q-20 18 -22.5 45t14.5 47q17 21 44 23t48 -15z" />
    <glyph glyph-name="iacute" unicode="&#xed;" horiz-adv-x="347" 
d="M88 624q0 32 22 54t54 22t54 -22t22 -54v-548q0 -32 -22 -54t-54 -22t-54 22t-22 54v548zM227 947q21 17 48 15t44 -23q17 -20 14.5 -47t-22.5 -45l-110 -92q-21 -17 -48 -14.5t-44 22.5q-17 21 -14.5 48t22.5 44z" />
    <glyph glyph-name="icircumflex" unicode="&#xee;" horiz-adv-x="369" 
d="M108 624q0 32 22 54t54 22t54 -22t22 -54v-548q0 -32 -22 -54t-54 -22t-54 22t-22 54v548zM144 947q18 15 42 15t42 -15l110 -92q20 -17 22.5 -44t-14.5 -48q-17 -20 -44 -22.5t-48 14.5q-11 8 -22 18q-10 8 -22 18t-24 21q-12 -11 -24 -21t-22 -18q-11 -10 -22 -18
q-21 -17 -48 -14.5t-44 22.5q-17 21 -14.5 48t22.5 44z" />
    <glyph glyph-name="idieresis" unicode="&#xef;" horiz-adv-x="368" 
d="M108 624q0 32 22 54t54 22t54 -22t22 -54v-548q0 -32 -22 -54t-54 -22t-54 22t-22 54v548zM293 784q-27 0 -46 19t-19 46t19 46t46 19t46 -19t19 -46t-19 -46t-46 -19zM74 784q-27 0 -46 19t-19 46t19 46t46 19t46 -19t19 -46t-19 -46t-46 -19z" />
    <glyph glyph-name="eth" unicode="&#xf0;" horiz-adv-x="836" 
d="M753 486q27 -65 27 -136q0 -72 -27 -136q-27 -62 -75 -112q-47 -47 -111 -75q-65 -27 -136 -27h-246q-32 0 -54 22t-22 54v198h-25q-32 0 -54 22t-22 54t22 54t54 22h25v198q0 32 22 54t54 22h246q69 0 136 -28q64 -28 111 -75q48 -48 75 -111zM431 152q41 0 77 15.5
t62.5 42.5t42 63t15.5 77t-15.5 77t-42 63t-62.5 42.5t-77 15.5h-170v-122h134q32 0 54 -22t22 -54t-22 -54t-54 -22h-134v-122h170z" />
    <glyph glyph-name="ntilde" unicode="&#xf1;" horiz-adv-x="792" 
d="M138 695q22 8 45 2t39 -24q56 -68 114 -138q25 -30 52 -62.5t55 -65.5t55.5 -65.5t53.5 -61.5v344q0 32 22 54t54 22t54 -22t22 -54v-548q0 -23 -13.5 -43t-35.5 -28q-23 -8 -46 -2t-38 24q-57 68 -115 138q-50 60 -107.5 127.5t-108.5 127.5v-344q0 -32 -22 -54t-54 -22
t-54 22t-22 54v548q0 23 13.5 43t36.5 28zM358 900q30 27 67 35.5t76 -2.5q26 -8 42.5 -18.5t19.5 -13.5q21 -17 23.5 -43.5t-14.5 -47.5q-17 -20 -44 -23t-48 14l1 -1q-2 2 -6.5 4.5t-10.5 4.5q-5 1 -9.5 0t-10.5 -6q-30 -28 -67 -36.5t-76 2.5q-26 8 -42.5 18.5
t-19.5 13.5q-21 17 -23.5 43.5t14.5 47.5t44 23.5t48 -14.5l-1 1q2 -2 6.5 -4.5t10.5 -3.5q10 -3 20 6z" />
    <glyph glyph-name="ograve" unicode="&#xf2;" horiz-adv-x="834" 
d="M276 682q69 29 141 29t141 -29q64 -27 114 -77q50 -49 78 -115q14 -33 21 -68.5t7 -71.5q0 -75 -28 -141q-27 -64 -78 -115q-50 -50 -114 -77q-66 -28 -141 -28t-141 28q-64 27 -114 77q-50 51 -78 115q-28 66 -28 141q0 36 7 71.5t21 68.5q29 66 78 115q50 50 114 77z
M208 350q0 -44 16.5 -82t45 -66t66.5 -44.5t81 -16.5t81 16.5t66.5 44.5t45 66t16.5 82q0 43 -16.5 81t-45 66.5t-66.5 45t-81 16.5t-81 -16.5t-66.5 -45t-45 -66.5t-16.5 -81zM465 855q20 -17 22.5 -44t-14.5 -48q-17 -20 -44 -22.5t-48 14.5l-110 92q-20 18 -22.5 45
t14.5 47q17 21 44 23t48 -15z" />
    <glyph glyph-name="oacute" unicode="&#xf3;" horiz-adv-x="834" 
d="M276 682q69 29 141 29t141 -29q64 -27 114 -77q50 -49 78 -115q14 -33 21 -68.5t7 -71.5q0 -75 -28 -141q-27 -64 -78 -115q-50 -50 -114 -77q-66 -28 -141 -28t-141 28q-64 27 -114 77q-50 51 -78 115q-28 66 -28 141q0 36 7 71.5t21 68.5q29 66 78 115q50 50 114 77z
M208 350q0 -44 16.5 -82t45 -66t66.5 -44.5t81 -16.5t81 16.5t66.5 44.5t45 66t16.5 82q0 43 -16.5 81t-45 66.5t-66.5 45t-81 16.5t-81 -16.5t-66.5 -45t-45 -66.5t-16.5 -81zM476 947q21 17 48 15t44 -23q17 -20 14.5 -47t-22.5 -45l-110 -92q-21 -17 -48 -14.5t-44 22.5
q-17 21 -14.5 48t22.5 44z" />
    <glyph glyph-name="ocircumflex" unicode="&#xf4;" horiz-adv-x="834" 
d="M276 682q69 29 141 29t141 -29q64 -27 114 -77q50 -49 78 -115q14 -33 21 -68.5t7 -71.5q0 -75 -28 -141q-27 -64 -78 -115q-50 -50 -114 -77q-66 -28 -141 -28t-141 28q-64 27 -114 77q-50 51 -78 115q-28 66 -28 141q0 36 7 71.5t21 68.5q29 66 78 115q50 50 114 77z
M208 350q0 -44 16.5 -82t45 -66t66.5 -44.5t81 -16.5t81 16.5t66.5 44.5t45 66t16.5 82q0 43 -16.5 81t-45 66.5t-66.5 45t-81 16.5t-81 -16.5t-66.5 -45t-45 -66.5t-16.5 -81zM372 947q18 15 42 15t42 -15l110 -92q20 -17 22.5 -44t-14.5 -48q-17 -20 -44 -22.5t-48 14.5
q-11 8 -22 18q-10 8 -22 18t-24 21q-12 -11 -24 -21t-22 -18q-11 -10 -22 -18q-21 -17 -48 -14.5t-44 22.5q-17 21 -14.5 48t22.5 44l110 92v0z" />
    <glyph glyph-name="otilde" unicode="&#xf5;" horiz-adv-x="834" 
d="M276 682q69 29 141 29t141 -29q64 -27 114 -77q50 -49 78 -115q14 -33 21 -68.5t7 -71.5q0 -75 -28 -141q-27 -64 -78 -115q-50 -50 -114 -77q-66 -28 -141 -28t-141 28q-64 27 -114 77q-50 51 -78 115q-28 66 -28 141q0 36 7 71.5t21 68.5q29 66 78 115q50 50 114 77z
M208 350q0 -44 16.5 -82t45 -66t66.5 -44.5t81 -16.5t81 16.5t66.5 44.5t45 66t16.5 82q0 43 -16.5 81t-45 66.5t-66.5 45t-81 16.5t-81 -16.5t-66.5 -45t-45 -66.5t-16.5 -81zM376 900q30 27 67 35.5t76 -2.5q26 -8 42.5 -18.5t19.5 -13.5q21 -17 23.5 -43.5t-14.5 -47.5
q-17 -20 -44 -23t-48 14l1 -1q-2 2 -6.5 4.5t-10.5 4.5q-5 1 -9.5 0t-10.5 -6q-30 -28 -67 -36.5t-76 2.5q-26 8 -42.5 18.5t-19.5 13.5q-21 17 -23.5 43.5t14.5 47.5t44 23.5t48 -14.5l-1 1q2 -2 6.5 -4.5t10.5 -3.5q10 -3 20 6z" />
    <glyph glyph-name="odieresis" unicode="&#xf6;" horiz-adv-x="834" 
d="M276 682q69 29 141 29t141 -29q64 -27 114 -77q50 -49 78 -115q14 -33 21 -68.5t7 -71.5q0 -75 -28 -141q-27 -64 -78 -115q-50 -50 -114 -77q-66 -28 -141 -28t-141 28q-64 27 -114 77q-50 51 -78 115q-28 66 -28 141q0 36 7 71.5t21 68.5q29 66 78 115q50 50 114 77z
M208 350q0 -44 16.5 -82t45 -66t66.5 -44.5t81 -16.5t81 16.5t66.5 44.5t45 66t16.5 82q0 43 -16.5 81t-45 66.5t-66.5 45t-81 16.5t-81 -16.5t-66.5 -45t-45 -66.5t-16.5 -81zM530 784q-27 0 -46 19t-19 46t19 46t46 19t46 -19t19 -46t-19 -46t-46 -19zM311 784
q-27 0 -46 19t-19 46t19 46t46 19t46 -19t19 -46t-19 -46t-46 -19z" />
    <glyph glyph-name="divide" unicode="&#xf7;" horiz-adv-x="710" 
d="M586 426q32 0 54 -22t22 -54t-22 -54t-54 -22h-462q-32 0 -54 22t-22 54t22 54t54 22h462zM417 127q0 -32 -22 -54t-54 -22t-54 22t-22 54t22 54t54 22t54 -22t22 -54zM417 575q0 -32 -22 -54t-54 -22t-54 22t-22 54t22 54t54 22t54 -22t22 -54z" />
    <glyph glyph-name="oslash" unicode="&#xf8;" horiz-adv-x="834" 
d="M750 490q14 -33 21 -68.5t7 -71.5q0 -75 -28 -141q-27 -64 -78 -115q-50 -50 -114 -77q-66 -28 -141 -28q-34 0 -65 6l-22 -61q-9 -23 -31.5 -33.5t-45.5 -2.5q-23 9 -33.5 31.5t-2.5 45.5l22 61q-44 25 -77 58q-50 51 -78 115q-28 66 -28 141q0 36 7 71.5t21 68.5
q29 66 78 115q50 50 114 77q69 29 141 29q33 0 65 -6l23 60q8 24 30.5 34.5t45.5 1.5q24 -8 34.5 -30.5t1.5 -46.5l-22 -60q42 -24 77 -59q50 -49 78 -115zM208 350q0 -52 23 -95.5t61 -72.5l137 377h-12q-43 0 -81 -16.5t-66.5 -45t-45 -66.5t-16.5 -81zM417 141
q43 0 81 16.5t66.5 44.5t45 66t16.5 82q0 51 -23 94.5t-61 72.5l-137 -376h12z" />
    <glyph glyph-name="ugrave" unicode="&#xf9;" horiz-adv-x="828" 
d="M596 624q0 32 22 54t54 22t54 -22t22 -54v-302q0 -66 -26 -129q-26 -61 -72 -107q-45 -45 -106 -71q-31 -14 -63.5 -20t-66.5 -6t-66.5 6t-63.5 20q-58 25 -106 71q-46 46 -72 107q-26 63 -26 129v302q0 32 22 54t54 22t54 -22t22 -54v-302q0 -38 14.5 -70.5t39 -57.5
t57.5 -39t71 -14q37 0 70.5 14t58 39t39 57.5t14.5 70.5v302v0zM462 855q20 -17 22.5 -44t-14.5 -48q-17 -20 -44 -22.5t-48 14.5l-110 92q-20 18 -22.5 45t14.5 47q17 21 44 23t48 -15z" />
    <glyph glyph-name="uacute" unicode="&#xfa;" horiz-adv-x="828" 
d="M596 624q0 32 22 54t54 22t54 -22t22 -54v-302q0 -66 -26 -129q-26 -61 -72 -107q-45 -45 -106 -71q-31 -14 -63.5 -20t-66.5 -6t-66.5 6t-63.5 20q-58 25 -106 71q-46 46 -72 107q-26 63 -26 129v302q0 32 22 54t54 22t54 -22t22 -54v-302q0 -38 14.5 -70.5t39 -57.5
t57.5 -39t71 -14q37 0 70.5 14t58 39t39 57.5t14.5 70.5v302zM479 947q21 17 48 15t44 -23q17 -20 14.5 -47t-22.5 -45l-110 -92q-21 -17 -48 -14.5t-44 22.5q-17 21 -14.5 48t22.5 44z" />
    <glyph glyph-name="ucircumflex" unicode="&#xfb;" horiz-adv-x="828" 
d="M596 624q0 32 22 54t54 22t54 -22t22 -54v-302q0 -66 -26 -129q-26 -61 -72 -107q-45 -45 -106 -71q-31 -14 -63.5 -20t-66.5 -6t-66.5 6t-63.5 20q-58 25 -106 71q-46 46 -72 107q-26 63 -26 129v302q0 32 22 54t54 22t54 -22t22 -54v-302q0 -38 14.5 -70.5t39 -57.5
t57.5 -39t71 -14q37 0 70.5 14t58 39t39 57.5t14.5 70.5v302v0zM370 947q18 15 42 15t42 -15l110 -92q20 -17 22.5 -44t-14.5 -48q-17 -20 -44 -22.5t-48 14.5q-11 8 -22 18q-10 8 -22 18t-24 21q-12 -11 -24 -21t-22 -18q-11 -10 -22 -18q-21 -17 -48 -14.5t-44 22.5
q-17 21 -14.5 48t22.5 44l110 92v0z" />
    <glyph glyph-name="udieresis" unicode="&#xfc;" horiz-adv-x="828" 
d="M596 624q0 32 22 54t54 22t54 -22t22 -54v-302q0 -66 -26 -129q-26 -61 -72 -107q-45 -45 -106 -71q-31 -14 -63.5 -20t-66.5 -6t-66.5 6t-63.5 20q-58 25 -106 71q-46 46 -72 107q-26 63 -26 129v302q0 32 22 54t54 22t54 -22t22 -54v-302q0 -38 14.5 -70.5t39 -57.5
t57.5 -39t71 -14q37 0 70.5 14t58 39t39 57.5t14.5 70.5v302zM520 784q-27 0 -46 19t-19 46t19 46t46 19t46 -19t19 -46t-19 -46t-46 -19zM301 784q-27 0 -46 19t-19 46t19 46t46 19t46 -19t19 -46t-19 -46t-46 -19z" />
    <glyph glyph-name="yacute" unicode="&#xfd;" horiz-adv-x="674" 
d="M626 685q26 -19 31 -49.5t-14 -56.5l-230 -317v-186q0 -32 -22 -54t-54 -22t-54 22t-22 54v186l-230 317q-18 26 -13.5 56.5t30.5 49.5t57 14t49 -31l66 -90q28 -38 59.5 -82.5t57.5 -79.5q26 35 57.5 79.5t59.5 82.5l66 90q18 26 49 31t57 -14zM401 947q21 17 48 15
t44 -23q17 -20 14.5 -47t-22.5 -45l-110 -92q-21 -17 -48 -14.5t-44 22.5q-17 21 -14.5 48t22.5 44l110 92v0z" />
    <glyph glyph-name="thorn" unicode="&#xfe;" horiz-adv-x="708" 
d="M596 524q35 -35 53.5 -80t18.5 -94q0 -50 -18.5 -94.5t-53.5 -79.5t-79.5 -53.5t-94.5 -18.5h-182v-28q0 -32 -22 -54t-54 -22t-54 22t-22 54v548q0 32 22 54t54 22t54 -22t22 -54v-28h182q50 0 94.5 -18.5t79.5 -53.5zM422 256q19 0 36.5 7.5t30 20t20 29.5t7.5 37
q0 19 -7.5 36.5t-20 30t-30 20t-36.5 7.5h-182v-188h182z" />
    <glyph glyph-name="ydieresis" unicode="&#xff;" horiz-adv-x="674" 
d="M626 685q26 -19 31 -49.5t-14 -56.5l-230 -317v-186q0 -32 -22 -54t-54 -22t-54 22t-22 54v186l-230 317q-18 26 -13.5 56.5t30.5 49.5t57 14t49 -31l66 -90q28 -38 59.5 -82.5t57.5 -79.5q26 35 57.5 79.5t59.5 82.5l66 90q18 26 49 31t57 -14zM448 784q-27 0 -46 19
t-19 46t19 46t46 19t46 -19t19 -46t-19 -46t-46 -19zM229 784q-27 0 -46 19t-19 46t19 46t46 19t46 -19t19 -46t-19 -46t-46 -19z" />
    <glyph glyph-name="OE" unicode="&#x152;" horiz-adv-x="1106" 
d="M974 152q32 0 54 -22t22 -54t-22 -54t-54 -22h-389q-8 -1 -27 -3t-43 -4t-50 -3.5t-48 -1.5q-71 0 -141 28q-65 28 -114 78q-49 49 -78 115q-28 65 -28 140t28 141q28 64 78 115q50 50 114 77q66 28 141 28q22 0 48 -1.5t50 -3t42.5 -3t26.5 -2.5h390q32 0 54 -22t22 -54
t-22 -54t-54 -22h-318v-122h270q32 0 54 -22t22 -54t-22 -54t-54 -22h-270v-122h318zM208 349q0 -43 16.5 -81t45 -66.5t66.5 -45t81 -16.5q19 0 42 1.5t45 3.5v409q-22 2 -45 3t-42 1q-43 0 -81 -16.5t-66.5 -45t-45 -66.5t-16.5 -81z" />
    <glyph glyph-name="oe" unicode="&#x153;" horiz-adv-x="1106" 
d="M974 152q32 0 54 -22t22 -54t-22 -54t-54 -22h-389q-8 -1 -27 -3t-43 -4t-50 -3.5t-48 -1.5q-71 0 -141 28q-65 28 -114 78q-49 49 -78 115q-28 65 -28 140t28 141q28 64 78 115q50 50 114 77q66 28 141 28q22 0 48 -1.5t50 -3t42.5 -3t26.5 -2.5h390q32 0 54 -22t22 -54
t-22 -54t-54 -22h-318v-122h270q32 0 54 -22t22 -54t-22 -54t-54 -22h-270v-122h318zM208 349q0 -43 16.5 -81t45 -66.5t66.5 -45t81 -16.5q19 0 42 1.5t45 3.5v409q-22 2 -45 3t-42 1q-43 0 -81 -16.5t-66.5 -45t-45 -66.5t-16.5 -81z" />
    <glyph glyph-name="Ydieresis" unicode="&#x178;" horiz-adv-x="674" 
d="M626 685q26 -19 31 -49.5t-14 -56.5l-230 -317v-186q0 -32 -22 -54t-54 -22t-54 22t-22 54v186l-230 317q-18 26 -13.5 56.5t30.5 49.5t57 14t49 -31l66 -90q28 -38 59.5 -82.5t57.5 -79.5q26 35 57.5 79.5t59.5 82.5l66 90q18 26 49 31t57 -14zM447 784q-27 0 -46 19
t-19 46t19 46t46 19t46 -19t19 -46t-19 -46t-46 -19zM228 784q-27 0 -46 19t-19 46t19 46t46 19t46 -19t19 -46t-19 -46t-46 -19z" />
    <glyph glyph-name="circumflex" unicode="&#x2c6;" horiz-adv-x="290" 
d="M103 947q18 15 42 15t42 -15l110 -92q20 -17 22.5 -44t-14.5 -48q-17 -20 -44 -22.5t-48 14.5q-11 8 -22 18q-10 8 -22 18t-24 21q-12 -11 -24 -21t-22 -18q-11 -10 -22 -18q-21 -17 -48 -14.5t-44 22.5q-17 21 -14.5 48t22.5 44l110 92v0z" />
    <glyph glyph-name="tilde" unicode="&#x2dc;" horiz-adv-x="286" 
d="M100 900q30 27 67 35.5t76 -2.5q26 -8 42.5 -18.5t19.5 -13.5q21 -17 23.5 -43.5t-14.5 -47.5q-17 -20 -44 -23t-48 14l1 -1q-2 2 -6.5 4.5t-10.5 4.5q-5 1 -9.5 0t-10.5 -6q-30 -28 -67 -36.5t-76 2.5q-26 8 -42.5 18.5t-19.5 13.5q-21 17 -23.5 43.5t14.5 47.5t44 23.5
t48 -14.5l-1 1q2 -2 6.5 -4.5t10.5 -3.5q10 -3 20 6z" />
    <glyph glyph-name="endash" unicode="&#x2013;" horiz-adv-x="518" 
d="M394 426q32 0 54 -22t22 -54t-22 -54t-54 -22h-270q-32 0 -54 22t-22 54t22 54t54 22h270z" />
    <glyph glyph-name="emdash" unicode="&#x2014;" horiz-adv-x="738" 
d="M614 426q32 0 54 -22t22 -54t-22 -54t-54 -22h-490q-32 0 -54 22t-22 54t22 54t54 22h490z" />
    <glyph glyph-name="quoteleft" unicode="&#x2018;" horiz-adv-x="310" 
d="M256 518q11 -25 0.5 -49.5t-35.5 -35.5t-49.5 -1t-35.5 36l-82 194q-11 25 -1 49.5t35 35.5t50 1t36 -36z" />
    <glyph glyph-name="quoteright" unicode="&#x2019;" horiz-adv-x="310" 
d="M221 747q25 -11 35.5 -35.5t-0.5 -49.5l-82 -194q-11 -26 -35.5 -36t-49.5 1q-26 11 -36 35.5t1 49.5l82 194q11 26 35.5 36t49.5 -1z" />
    <glyph glyph-name="quotesinglbase" unicode="&#x201a;" horiz-adv-x="310" 
d="M221 104q25 -11 35.5 -35.5t-0.5 -49.5l-82 -194q-11 -26 -35.5 -36t-49.5 1q-26 11 -36 35.5t1 49.5l82 194q11 26 35.5 36t49.5 -1z" />
    <glyph glyph-name="quotedblleft" unicode="&#x201c;" horiz-adv-x="508" 
d="M287 747q25 11 49.5 1t35.5 -36l82 -194q11 -25 1 -49.5t-36 -35.5q-25 -11 -49.5 -1t-35.5 36l-82 194q-11 25 -0.5 49.5t35.5 35.5zM256 518q11 -25 0.5 -49.5t-35.5 -35.5t-49.5 -1t-35.5 36l-82 194q-11 25 -1 49.5t35 35.5t50 1t36 -36z" />
    <glyph glyph-name="quotedblright" unicode="&#x201d;" horiz-adv-x="508" 
d="M221 747q25 -11 35.5 -35.5t-0.5 -49.5l-82 -194q-11 -26 -35.5 -36t-49.5 1q-26 11 -36 35.5t1 49.5l82 194q11 26 35.5 36t49.5 -1zM334 712q11 26 36 36t50 -1t35 -35.5t-1 -49.5l-82 -194q-11 -26 -35.5 -36t-49.5 1t-35.5 35.5t0.5 49.5z" />
    <glyph glyph-name="quotedblbase" unicode="&#x201e;" horiz-adv-x="508" 
d="M221 104q25 -11 35.5 -35.5t-0.5 -49.5l-82 -194q-11 -26 -35.5 -36t-49.5 1q-26 11 -36 35.5t1 49.5l82 194q11 26 35.5 36t49.5 -1zM334 69q11 26 36 36t50 -1t35 -35.5t-1 -49.5l-82 -194q-11 -26 -35.5 -36t-49.5 1t-35.5 35.5t0.5 49.5z" />
    <glyph glyph-name="bullet" unicode="&#x2022;" horiz-adv-x="251" 
d="M32 350q0 35 25 60t61 25q35 0 60 -25t25 -60q0 -36 -25 -61t-60 -25q-36 0 -61 25t-25 61z" />
    <glyph glyph-name="ellipsis" unicode="&#x2026;" horiz-adv-x="872" 
d="M232 76q0 -32 -22 -54t-54 -22t-54 22t-22 54t22 54t54 22t54 -22t22 -54zM512 76q0 -32 -22 -54t-54 -22t-54 22t-22 54t22 54t54 22t54 -22t22 -54zM792 76q0 -32 -22 -54t-54 -22t-54 22t-22 54t22 54t54 22t54 -22t22 -54z" />
    <glyph glyph-name="guilsinglleft" unicode="&#x2039;" horiz-adv-x="384" 
d="M202 561q20 25 51 27.5t56 -17.5q27 -23 27 -58q0 -26 -17 -49q-17 -21 -34 -41q-15 -17 -32 -37.5t-32 -38.5q14 -18 28.5 -38.5t27.5 -37.5q15 -20 30 -39q15 -21 15 -45q0 -18 -8 -34t-23 -27q-26 -19 -56.5 -14.5t-49.5 29.5l-121 163q-16 22 -15.5 48t17.5 46
l136 163v0z" />
    <glyph glyph-name="guilsinglright" unicode="&#x203a;" horiz-adv-x="384" 
d="M75 571q25 20 56 17.5t51 -27.5l136 -163q17 -20 17.5 -46t-15.5 -48l-121 -163q-19 -25 -50 -29.5t-56 14.5q-15 11 -23 27t-8 34q0 24 15 45q14 19 29 39q13 17 27.5 37.5t28.5 38.5q-15 18 -32 38.5t-31 37.5q-17 20 -34 41t-17 49q0 35 27 58z" />
    <glyph glyph-name="Euro" unicode="&#x20ac;" horiz-adv-x="689" 
d="M627 117q12 -29 0 -58.5t-41 -41.5q-33 -14 -68.5 -21t-71.5 -7q-75 0 -141 28q-65 27 -115 77q-51 52 -77 115q-13 31 -21 65q-32 0 -54 22t-22 54t22 54t54 22q7 32 21 64q27 65 77 115t115 77q69 29 141 29q73 0 140 -29q29 -12 41 -41t0 -58q-13 -29 -42 -41t-58 0
q-40 17 -81 17q-33 0 -63.5 -10t-56 -27.5t-45 -42t-30.5 -53.5h230q31 0 53.5 -22t22.5 -54t-22.5 -54t-53.5 -22h-230q11 -29 30.5 -53.5t45 -42t56 -27.5t63.5 -10q43 0 81 16q29 12 58 0.5t42 -40.5z" />
    <glyph glyph-name="trademark" unicode="&#x2122;" horiz-adv-x="852" 
d="M776 697q13 -5 20.5 -15.5t7.5 -24.5v-301q0 -17 -12 -29.5t-30 -12.5q-17 0 -29.5 12.5t-12.5 29.5v181q-15 -20 -29.5 -38t-25.5 -32q-13 -17 -25 -31q-13 -16 -33 -16t-33 16q-12 14 -25 31q-11 14 -25.5 32t-29.5 38v-181q0 -17 -12 -29.5t-30 -12.5
q-17 0 -29.5 12.5t-12.5 29.5v301q0 14 8 24.5t21 15.5q12 5 25 1.5t21 -14.5q23 -30 46 -58q19 -24 40 -50.5t36 -46.5q15 20 36 46.5t41 50.5q23 28 46 58q18 23 46 13zM335 699q17 0 29.5 -12t12.5 -30q0 -17 -12.5 -29.5t-29.5 -12.5h-81v-259q0 -17 -12.5 -29.5
t-29.5 -12.5t-29.5 12.5t-12.5 29.5v259h-80q-18 0 -30 12.5t-12 29.5q0 18 12 30t30 12h245z" />
    </font>
</defs>
</svg>
