<svg width="102" height="106" viewBox="0 0 102 106" fill="none" xmlns="http://www.w3.org/2000/svg">
<g clip-path="url(#clip0)">
<circle cx="51" cy="54" r="35" fill="#1F91B3"/>
<circle cx="14.5" cy="27.5" r="14.5" fill="white"/>
<circle cx="84.5" cy="80.5" r="14.5" fill="white"/>
<path d="M6.36205 39.5063C6.56728 39.7115 6.77251 39.8141 6.97774 39.9168C9.64569 41.7638 12.8267 42.8926 16.3156 42.8926C15.0842 46.6893 14.3659 50.5886 14.3659 54.5905C14.3659 74.6002 30.5789 90.8132 50.5886 90.8132C58.0794 90.8132 65.365 87.4269 69.0591 85.272C70.7009 92.5576 77.2682 98.0987 85.0668 98.0987C94.0968 98.0987 101.485 90.7106 101.485 81.6805C101.485 72.6505 94.0968 65.2623 85.0668 65.2623C86.0929 61.8761 86.7086 58.2846 86.7086 54.6931C86.7086 34.6835 70.4956 18.4705 50.486 18.4705C42.8925 18.4705 37.454 19.8045 32.4259 22.8829C30.7841 15.5973 24.2168 10.0562 16.4182 10.0562C7.38819 10.0562 0 17.4443 0 26.4743C0 31.7077 2.46273 36.4279 6.36205 39.5063ZM68.6486 81.6805C68.6486 81.7832 68.6486 81.8858 68.6486 81.9884C66.0833 83.5276 63.3127 84.8616 60.6447 85.7851C63.0048 83.1171 65.0571 79.6283 66.5963 75.4211C67.6225 75.9342 68.4434 76.4472 69.2643 76.9603C68.9564 78.3969 68.6486 80.0387 68.6486 81.6805ZM67.6225 72.4453C69.0591 67.6225 69.88 62.0813 70.0852 56.1297H83.6302C83.5276 59.1055 83.0145 62.0813 82.091 64.8519C81.9884 65.0571 81.9884 65.2623 81.9884 65.4676C76.9603 66.3911 72.7531 69.6747 70.4956 73.9845C69.6747 73.4714 68.7512 72.9584 67.6225 72.4453ZM92.455 92.7628C90.3001 94.1994 87.8374 95.0203 85.0668 95.0203C82.3988 95.0203 79.8335 94.1994 77.6786 92.7628V90.8132C77.6786 87.8374 80.1413 85.3746 83.1171 85.3746H86.8112C89.787 85.3746 92.2498 87.8374 92.2498 90.8132V92.7628H92.455ZM82.2962 76.9603C82.2962 75.4211 83.5276 74.1898 85.0668 74.1898C86.606 74.1898 87.8374 75.4211 87.8374 76.9603C87.8374 78.4995 86.606 79.7309 85.0668 79.7309C83.5276 79.7309 82.2962 78.4995 82.2962 76.9603ZM98.5092 81.6805C98.5092 84.8616 97.3804 87.8374 95.5334 90.0949C95.1229 85.8877 91.7367 82.6041 87.4269 82.2962C89.4792 81.3727 91.0184 79.3204 91.0184 76.8577C91.0184 73.5741 88.3504 71.0087 85.1694 71.0087C81.9884 71.0087 79.3204 73.6767 79.3204 76.8577C79.3204 79.3204 80.757 81.3727 82.9119 82.2962C78.7048 82.5014 75.2159 85.8877 74.8054 90.0949C72.9584 87.8374 71.8296 84.8616 71.8296 81.6805C71.8296 74.2924 77.7812 68.3408 85.1694 68.3408C92.5576 68.3408 98.5092 74.2924 98.5092 81.6805ZM83.7328 53.0513H70.0852C69.9826 47.3049 69.1617 42.0716 67.7251 37.3514C71.2139 35.607 73.6767 33.6573 75.1133 32.4259C80.1413 37.9671 83.3224 45.1501 83.7328 53.0513ZM73.061 30.1684C71.8296 31.2972 69.6747 32.939 66.9042 34.3756C65.1597 29.4502 62.697 25.4482 59.8238 22.6776C64.7493 24.2168 69.2643 26.7822 73.061 30.1684ZM52.1278 21.8567C56.9506 22.7803 61.1578 28.1162 63.9284 35.7096C60.7473 37.0436 56.7454 37.9671 52.1278 38.1723V21.8567ZM52.1278 41.2507C57.1559 41.0455 61.363 40.0194 64.8519 38.6854C66.0833 42.9952 66.9042 47.9206 67.0068 53.0513H52.1278V41.2507ZM52.1278 56.1297H67.0068C66.9042 61.5683 66.0833 66.5963 64.7493 71.1113C61.1578 69.6747 56.9506 68.546 52.1278 68.3408V56.1297ZM52.1278 71.4192C56.6428 71.6244 60.5421 72.6505 63.8258 73.9845C61.0552 81.3727 56.848 86.606 52.1278 87.5295V71.4192ZM9.13262 37.6593V35.7096C9.13262 32.7338 11.5954 30.2711 14.5712 30.2711H18.2652C21.241 30.2711 23.7038 32.7338 23.7038 35.7096V37.6593C21.5489 39.0958 19.0862 39.9168 16.3156 39.9168C13.545 39.9168 11.1849 38.9932 9.13262 37.6593ZM13.6476 21.7541C13.6476 20.2149 14.879 18.9835 16.4182 18.9835C17.9574 18.9835 19.1888 20.2149 19.1888 21.7541C19.1888 23.2933 17.9574 24.5247 16.4182 24.5247C14.879 24.5247 13.6476 23.2933 13.6476 21.7541ZM17.547 56.1297H31.1946C31.2972 61.9787 32.1181 67.5199 33.5547 72.3427C30.1684 73.9845 27.8083 75.8316 26.3717 77.1655C21.1384 71.5218 17.8548 64.2362 17.547 56.1297ZM28.5266 79.2178C29.758 78.0891 31.8103 76.5499 34.4782 75.2159C36.12 79.8335 38.3775 83.6302 41.0455 86.2982C36.3253 84.8616 32.1181 82.5014 28.5266 79.2178ZM49.0494 87.5295C44.3291 86.606 40.0194 81.3727 37.3514 73.8819C40.5324 72.6505 44.4318 71.6244 49.0494 71.4192V87.5295ZM49.0494 68.3408C44.0213 68.546 39.8141 69.5721 36.3253 70.9061C34.9913 66.4937 34.273 61.363 34.1704 56.0271H49.0494V68.3408ZM49.0494 53.0513H34.1704C34.273 47.818 35.0939 42.7899 36.4279 38.3775C39.9167 39.8141 44.2265 40.9429 49.0494 41.1481V53.0513ZM49.0494 21.8567V38.1723C44.5344 37.9671 40.635 36.8383 37.3514 35.5044C40.122 28.0136 44.3291 22.7803 49.0494 21.8567ZM32.939 26.4743C32.939 26.3717 32.939 26.2691 32.939 26.1665C35.7096 24.2168 38.5828 22.9855 41.969 22.2672C38.9932 24.9351 36.4279 29.0397 34.4782 34.1704C33.4521 33.6573 32.5286 33.1442 31.7076 32.5286C32.5286 30.6815 32.939 28.6292 32.939 26.4743ZM33.4521 37.0436C32.0155 41.7638 31.1946 47.2023 31.092 53.0513H17.547C17.7522 49.4598 18.4705 45.971 19.8045 42.5847C22.062 42.1743 24.2168 41.1481 26.0639 39.9168C26.2691 39.8141 26.4743 39.7115 26.6796 39.5063C28.2188 38.3775 29.4501 36.941 30.4763 35.2991C31.2972 35.9148 32.3233 36.5305 33.4521 37.0436ZM16.4182 13.1346C23.8064 13.1346 29.758 19.0862 29.758 26.4743C29.758 29.6554 28.6292 32.6312 26.7822 34.8887C26.3717 30.6815 22.9855 27.3979 18.6757 27.09C20.728 26.1665 22.2672 24.1142 22.2672 21.6515C22.2672 18.3679 19.5992 15.8025 16.4182 15.8025C13.2372 15.8025 10.5692 18.4705 10.5692 21.6515C10.5692 24.1142 12.0058 26.1665 14.1607 27.09C9.95353 27.2953 6.46467 30.6815 6.05421 34.8887C4.20716 32.6312 3.07841 29.6554 3.07841 26.4743C3.07841 19.0862 9.03001 13.1346 16.4182 13.1346Z" fill="black"/>
<path d="M70.4958 95.1229C69.7775 95.5334 68.9566 95.8412 68.2383 96.149C67.4174 96.4569 67.1095 97.3804 67.4174 98.2013C67.6226 98.817 68.2383 99.1248 68.854 99.1248C69.0592 99.1248 69.2644 99.1248 69.4697 99.0222C70.2906 98.7144 71.1115 98.3039 71.8298 97.8935C72.5481 97.483 72.9585 96.5595 72.5481 95.8412C72.1376 95.0203 71.2141 94.7125 70.4958 95.1229Z" fill="black"/>
<path d="M14.2635 86.093C14.5714 86.4008 14.9818 86.6061 15.3923 86.6061C15.7001 86.6061 16.1106 86.5035 16.4184 86.1956C17.0341 85.6825 17.1367 84.6564 16.6237 84.0407C15.4949 82.7068 14.4688 81.3728 13.4426 79.9362C12.9296 79.2179 12.006 79.0127 11.2877 79.5257C10.5694 80.0388 10.3642 80.9623 10.8773 81.6806C11.9034 83.2198 13.0322 84.6564 14.2635 86.093Z" fill="black"/>
<path d="M63.4154 97.8939C61.7736 98.4069 60.1318 98.7148 58.3874 99.0226C57.5664 99.1252 56.9508 99.9461 57.156 100.767C57.2586 101.485 57.9769 101.998 58.6952 101.998C58.7978 101.998 58.9004 101.998 59.003 101.998C60.8501 101.691 62.5945 101.28 64.3389 100.767C65.1599 100.562 65.6729 99.6383 65.3651 98.8174C65.0572 98.0991 64.2363 97.586 63.4154 97.8939Z" fill="black"/>
<path d="M20.1125 87.7349C19.4968 87.1193 18.4707 87.2219 17.9576 87.8375C17.3419 88.4532 17.4445 89.4794 18.0602 89.9924C19.3942 91.2238 20.8308 92.4552 22.2674 93.4813C22.5752 93.6865 22.883 93.7892 23.1909 93.7892C23.704 93.7892 24.1144 93.5839 24.4223 93.1735C24.9353 92.4552 24.7301 91.5317 24.1144 91.0186C22.7804 89.9924 21.4465 88.8637 20.1125 87.7349Z" fill="black"/>
<path d="M4.10471 66.699C4.30994 67.4173 4.92562 67.8277 5.64391 67.8277C5.74653 67.8277 5.95176 67.8277 6.05437 67.8277C6.87528 67.6225 7.38835 66.8016 7.18312 65.9807C6.77267 64.3389 6.46482 62.5944 6.15698 60.9526C6.05437 60.1317 5.23346 59.516 4.41255 59.6186C3.59164 59.7212 2.97596 60.5421 3.07857 61.363C3.2838 63.1075 3.59164 64.9545 4.10471 66.699Z" fill="black"/>
<path d="M8.00383 76.9604C8.31167 77.4734 8.82474 77.7813 9.33781 77.7813C9.54304 77.7813 9.85088 77.6787 10.0561 77.5761C10.7744 77.1656 11.0822 76.2421 10.6718 75.5238C9.85088 73.9846 9.13258 72.4454 8.5169 70.8036C8.20906 69.9827 7.28553 69.5722 6.56724 69.88C5.74633 70.1879 5.33587 71.1114 5.64371 71.8297C6.46462 73.6767 7.18292 75.3186 8.00383 76.9604Z" fill="black"/>
<path d="M42.4822 101.998C42.5848 101.998 42.6875 101.998 42.7901 101.998C43.5084 101.998 44.2267 101.485 44.3293 100.767C44.4319 99.9459 43.9188 99.125 43.0979 99.0224C41.4561 98.7145 39.7116 98.3041 38.0698 97.8936C37.2489 97.6884 36.428 98.0988 36.1202 98.9197C35.9149 99.7407 36.3254 100.562 37.1463 100.869C38.7881 101.28 40.6352 101.69 42.4822 101.998Z" fill="black"/>
<path d="M32.5285 99.0225C33.1442 99.0225 33.6572 98.7147 33.9651 98.099C34.2729 97.2781 33.9651 96.4572 33.1442 96.0467C31.605 95.3284 29.9631 94.6101 28.5265 93.7892C27.8082 93.3788 26.8847 93.584 26.4743 94.4049C26.0638 95.1232 26.269 96.0467 27.09 96.4572C28.7318 97.3807 30.3736 98.2016 32.0154 98.9199C32.118 99.0225 32.3233 99.0225 32.5285 99.0225Z" fill="black"/>
<path d="M50.6911 102.717C51.6146 102.717 52.5382 102.717 53.3591 102.614C54.18 102.614 54.8983 101.793 54.7957 100.972C54.7957 100.151 54.0774 99.4331 53.1538 99.5357C51.4094 99.6383 49.665 99.6383 48.0232 99.5357C47.2023 99.4331 46.484 100.151 46.3813 100.972C46.3813 101.793 46.997 102.511 47.8179 102.614C48.8441 102.717 49.7676 102.717 50.6911 102.717Z" fill="black"/>
<path d="M2.77066 50.2809C2.56543 51.7175 2.56543 53.1541 2.56543 54.5907C2.56543 55.0011 2.56543 55.4116 2.56543 55.822C2.56543 56.643 3.28373 57.3613 4.10464 57.3613C4.92555 57.3613 5.64384 56.643 5.64384 55.822C5.64384 55.4116 5.64384 55.1037 5.64384 54.6933C5.64384 53.3593 5.74646 52.0253 5.84907 50.6914C5.95168 49.8705 5.336 49.0495 4.41248 49.0495C3.59157 48.8443 2.77066 49.46 2.77066 50.2809Z" fill="black"/>
<path d="M5.02813 46.6894C5.74642 46.6894 6.36211 46.1764 6.56733 45.4581C6.77256 44.6372 6.87517 43.8162 7.18302 42.9953C7.38824 42.1744 6.87517 41.3535 6.05426 41.1483C5.23335 40.9431 4.41244 41.4561 4.20722 42.277C4.00199 43.0979 3.79676 44.0215 3.59153 44.8424C3.38631 45.6633 4.00199 46.4842 4.8229 46.6894C4.8229 46.6894 4.92551 46.6894 5.02813 46.6894Z" fill="black"/>
<path d="M31.1943 10.5692C30.3734 10.877 29.5525 11.2875 28.8342 11.6979C28.1159 12.1084 27.8081 13.0319 28.1159 13.7502C28.4238 14.2633 28.9368 14.5711 29.4499 14.5711C29.6551 14.5711 29.963 14.4685 30.1682 14.3659C30.8865 13.9555 31.6048 13.6476 32.4257 13.3398C33.2466 13.0319 33.5545 12.1084 33.2466 11.2875C32.9388 10.4666 31.9126 10.1587 31.1943 10.5692Z" fill="black"/>
<path d="M92.3524 37.3519C92.5576 37.9675 93.1733 38.2754 93.789 38.2754C93.9942 38.2754 94.1994 38.2754 94.4047 38.1728C95.2256 37.8649 95.5334 36.9414 95.2256 36.1205C94.5073 34.4787 93.6864 32.7342 92.8655 31.195C92.455 30.4767 91.5315 30.1689 90.8132 30.5794C90.0949 30.9898 89.7871 31.9133 90.1975 32.6316C90.9158 34.1708 91.7367 35.71 92.3524 37.3519Z" fill="black"/>
<path d="M86.4006 22.2672C85.785 21.6516 84.8614 21.5489 84.2458 22.1646C83.6301 22.7803 83.5275 23.7038 84.1431 24.3195C85.2719 25.5509 86.4006 26.8849 87.3242 28.3214C87.632 28.7319 88.1451 28.9371 88.5555 28.9371C88.8634 28.9371 89.1712 28.8345 89.479 28.6293C90.1973 28.1162 90.3 27.1927 89.7869 26.4744C88.7608 25.0378 87.632 23.6012 86.4006 22.2672Z" fill="black"/>
<path d="M95.1229 47.2027C95.2255 47.9209 95.9438 48.5366 96.6621 48.5366C96.7647 48.5366 96.8674 48.5366 96.8674 48.5366C97.6883 48.434 98.304 47.6131 98.0987 46.7922C97.7909 44.9451 97.3804 43.2007 96.8674 41.4563C96.6621 40.6354 95.7386 40.1223 94.9177 40.4301C94.0968 40.6354 93.5837 41.5589 93.8916 42.3798C94.5073 43.8164 94.9177 45.4582 95.1229 47.2027Z" fill="black"/>
<path d="M76.037 15.3921C75.5239 16.1104 75.7291 17.0339 76.4474 17.547C77.884 18.5731 79.218 19.5993 80.4494 20.728C80.7572 21.0358 81.065 21.1385 81.4755 21.1385C81.8859 21.1385 82.2964 20.9332 82.6042 20.6254C83.1173 20.0097 83.1173 18.9836 82.5016 18.4705C81.1676 17.2391 79.7311 16.1104 78.1918 15.0842C77.4735 14.5712 76.55 14.7764 76.037 15.3921Z" fill="black"/>
<path d="M52.5382 6.46487C50.6912 6.36225 48.8441 6.46487 47.0997 6.56748C46.2788 6.67009 45.6631 7.38839 45.6631 8.2093C45.7657 9.03021 46.3814 9.64589 47.2023 9.64589H47.3049C49.0493 9.54328 50.7938 9.44067 52.4356 9.54328C53.2565 9.54328 53.9748 8.9276 54.0774 8.10669C54.0774 7.18316 53.3591 6.46487 52.5382 6.46487Z" fill="black"/>
<path d="M41.6609 7.28587C39.9165 7.59371 38.0695 8.10678 36.325 8.61985C35.5041 8.82508 35.0937 9.7486 35.2989 10.5695C35.5041 11.1852 36.1198 11.6983 36.7355 11.6983C36.8381 11.6983 37.0433 11.6983 37.1459 11.5956C38.7877 11.0826 40.4296 10.6721 42.174 10.3643C42.9949 10.1591 43.508 9.44076 43.4054 8.51724C43.3027 7.69633 42.4818 7.08064 41.6609 7.28587Z" fill="black"/>
<path d="M57.9766 6.97779C57.1557 6.87518 56.3348 7.38825 56.2322 8.31177C56.1296 9.13268 56.6426 9.95359 57.5662 10.0562C59.208 10.364 60.9524 10.6719 62.5942 11.0823C62.6969 11.0823 62.9021 11.185 63.0047 11.185C63.723 11.185 64.3387 10.7745 64.4413 10.0562C64.6465 9.23529 64.1334 8.41438 63.3125 8.20916C61.5681 7.59347 59.8237 7.28563 57.9766 6.97779Z" fill="black"/>
<path d="M98.8172 57.5666C98.9198 56.5404 98.9198 55.6169 98.9198 54.5908C98.9198 53.7699 98.9198 52.9489 98.8172 52.128C98.8172 51.3071 98.0989 50.5888 97.1754 50.6914C96.3545 50.6914 95.6362 51.4097 95.7388 52.3333C95.7388 53.1542 95.8414 53.8725 95.8414 54.6934C95.8414 55.6169 95.8414 56.5404 95.7388 57.4639C95.6362 58.2849 96.3545 59.0032 97.1754 59.1058H97.278C97.9963 59.0032 98.7146 58.3875 98.8172 57.5666Z" fill="black"/>
<path d="M68.5459 9.85097C67.725 9.54313 66.9041 9.95358 66.4936 10.6719C66.0831 11.3902 66.5962 12.3137 67.3145 12.6215C68.8537 13.2372 70.4955 13.9555 71.9321 14.7764C72.1374 14.879 72.4452 14.9817 72.6504 14.9817C73.1635 14.9817 73.6766 14.6738 73.9844 14.1607C74.3949 13.4425 74.087 12.5189 73.3687 12.1085C71.9321 11.2876 70.2903 10.5693 68.5459 9.85097Z" fill="black"/>
<path d="M95.7385 66.8017C95.8411 66.8017 95.9437 66.8017 96.0463 66.8017C96.7646 66.8017 97.3803 66.2887 97.5855 65.5704C97.7907 64.7494 97.996 63.8259 98.0986 63.005C98.2012 62.1841 97.6881 61.3632 96.8672 61.2606C96.0463 61.158 95.2254 61.671 95.1228 62.4919C95.0202 63.3128 94.8149 64.1338 94.6097 64.9547C94.4045 65.7756 94.9176 66.5965 95.7385 66.8017Z" fill="black"/>
<path d="M73.6768 84.4512H45.9711C45.6632 84.4512 45.458 84.6564 45.458 84.9642V103.845C45.458 104.153 45.6632 104.358 45.9711 104.358H73.6768C73.7794 104.153 73.7794 104.05 73.7794 103.845V85.0669C73.7794 84.8616 73.7794 84.6564 73.6768 84.4512Z" fill="#F4F4F4"/>
<path d="M73.7794 103.948C73.7794 104.153 73.7794 104.358 73.6768 104.461H74.2924C74.6003 104.461 74.8055 104.256 74.8055 103.948V85.0668C74.8055 84.7589 74.6003 84.5537 74.2924 84.5537H73.6768C73.7794 84.7589 73.7794 84.8616 73.7794 85.0668V103.948Z" fill="#BDBDBD"/>
<path d="M65.3648 94.507C65.3648 92.2495 63.9283 90.2998 61.876 89.5815C63.3126 90.6077 64.2361 92.4547 64.2361 94.507C64.2361 96.5593 63.3126 98.4063 61.876 99.4325C63.9283 98.6116 65.3648 96.7645 65.3648 94.507Z" fill="#BDBDBD"/>
<path d="M74.2922 83.4248H45.9708C45.1499 83.4248 44.4316 84.1431 44.4316 84.964V103.845C44.4316 104.666 45.1499 105.384 45.9708 105.384H74.2922C75.1131 105.384 75.8314 104.666 75.8314 103.845V85.0666C75.9341 84.1431 75.2158 83.4248 74.2922 83.4248ZM74.8053 103.948C74.8053 104.255 74.6001 104.461 74.2922 104.461H45.9708C45.663 104.461 45.4578 104.255 45.4578 103.948V85.0666C45.4578 84.7588 45.663 84.5536 45.9708 84.5536H74.2922C74.6001 84.5536 74.8053 84.7588 74.8053 85.0666V103.948Z" fill="black" stroke="black" stroke-width="2" stroke-miterlimit="10"/>
<path d="M60.1315 88.145C56.6426 88.145 53.8721 91.0182 53.8721 94.4045C53.8721 97.8933 56.7453 100.664 60.1315 100.664C63.5178 100.664 66.391 97.7907 66.391 94.4045C66.4936 91.0182 63.6204 88.145 60.1315 88.145ZM61.9786 99.4325C61.3629 99.6378 60.8498 99.7404 60.1315 99.7404C57.2583 99.7404 54.8982 97.3803 54.8982 94.5071C54.8982 91.6339 57.2583 89.2738 60.1315 89.2738C60.7472 89.2738 61.3629 89.3764 61.9786 89.5816C64.0308 90.2999 65.4674 92.2496 65.4674 94.5071C65.3648 96.7646 63.9282 98.6116 61.9786 99.4325Z" fill="black" stroke="black" stroke-width="2" stroke-miterlimit="10"/>
<path d="M25.5513 2.05262V20.9335C25.5513 21.2414 25.7565 21.4466 26.0643 21.4466H53.7701C53.8727 21.2414 53.8727 21.1388 53.8727 20.9335V2.05262C53.8727 1.84739 53.8727 1.64216 53.7701 1.53955H26.0643C25.8591 1.53955 25.5513 1.84739 25.5513 2.05262ZM33.7604 10.0565C33.863 9.85126 33.9656 9.74865 34.1708 9.74865L38.0701 9.13297L39.8146 5.54149C39.9172 5.33626 40.1224 5.23365 40.3276 5.23365C40.5329 5.23365 40.7381 5.33626 40.8407 5.54149L42.5852 9.13297L46.4845 9.74865C46.6897 9.74865 46.8949 9.95388 46.8949 10.0565C46.9975 10.2617 46.8949 10.4669 46.7923 10.5696L43.9191 13.3401L44.6374 17.2395C44.6374 17.4447 44.6374 17.6499 44.4322 17.7525C44.227 17.8551 44.0217 17.8551 43.9191 17.7525L40.4303 15.9055L36.9414 17.7525C36.7362 17.8551 36.5309 17.8551 36.4283 17.7525C36.2231 17.6499 36.2231 17.4447 36.2231 17.2395L36.9414 13.3401L33.863 10.5696C33.6578 10.4669 33.6578 10.1591 33.7604 10.0565Z" fill="#F4F4F4"/>
<path d="M53.9752 21.0362C53.9752 21.2414 53.9752 21.4466 53.8726 21.5492H54.4882C54.7961 21.5492 55.0013 21.344 55.0013 21.0362V2.05262C55.0013 1.74478 54.7961 1.53955 54.4882 1.53955H53.8726C53.9752 1.74478 53.9752 1.84739 53.9752 2.05262V21.0362Z" fill="#BDBDBD"/>
<path d="M37.7621 13.2371L37.2491 16.4181L40.0196 14.9815C40.1222 14.8789 40.3275 14.8789 40.5327 14.9815L43.3033 16.4181L42.7902 13.2371C42.7902 13.0318 42.7902 12.9292 42.8928 12.724L45.1503 10.4665L42.0719 10.056C41.8667 10.056 41.7641 9.95341 41.6614 9.74818L40.2249 6.875L38.7883 9.74818C38.6856 9.95341 38.583 10.056 38.3778 10.056L35.1968 10.4665L37.4543 12.724C37.7621 12.9292 37.7621 13.0318 37.7621 13.2371Z" fill="#F4F4F4"/>
<path d="M54.4881 0.513184H26.0641C25.2432 0.513184 24.5249 1.23148 24.5249 2.05239V20.9333C24.5249 21.7542 25.2432 22.4725 26.0641 22.4725H54.3855C55.2064 22.4725 55.9247 21.7542 55.9247 20.9333V2.05239C56.0273 1.23148 55.309 0.513184 54.4881 0.513184ZM25.551 21.0359V2.05239C25.551 1.74455 25.7563 1.53932 26.0641 1.53932H54.3855C54.6933 1.53932 54.8986 1.74455 54.8986 2.05239V20.9333C54.8986 21.2412 54.6933 21.4464 54.3855 21.4464H26.0641C25.8589 21.549 25.551 21.2412 25.551 21.0359Z" fill="black" stroke="black" stroke-width="2" stroke-miterlimit="10"/>
<path d="M46.8948 10.0562C46.7922 9.85102 46.6896 9.7484 46.4844 9.7484L42.5851 9.13272L40.8406 5.54124C40.738 5.33601 40.5328 5.2334 40.3276 5.2334C40.1223 5.2334 39.9171 5.33601 39.8145 5.54124L38.0701 9.13272L34.1707 9.7484C33.9655 9.7484 33.7603 9.95363 33.7603 10.0562C33.6577 10.2615 33.7603 10.4667 33.8629 10.5693L36.7361 13.3399L36.0178 17.2392C36.0178 17.4444 36.0178 17.6497 36.223 17.7523C36.4282 17.8549 36.6335 17.8549 36.7361 17.7523L40.2249 15.9052L43.7138 17.7523C43.919 17.8549 44.1243 17.8549 44.2269 17.7523C44.4321 17.6497 44.4321 17.4444 44.4321 17.2392L43.919 13.3399L46.7922 10.5693C46.8948 10.4667 46.8948 10.1589 46.8948 10.0562ZM42.9955 12.7242C42.8929 12.8268 42.7903 13.032 42.8929 13.2373L43.406 16.4183L40.6354 14.9817C40.5328 14.8791 40.3276 14.8791 40.1223 14.9817L37.3518 16.4183L37.8648 13.2373C37.8648 13.032 37.8648 12.9294 37.7622 12.7242L35.5047 10.4667L38.6857 10.0562C38.891 10.0562 38.9936 9.95363 39.0962 9.7484L40.5328 6.87522L41.9694 9.7484C42.072 9.95363 42.1746 10.0562 42.3798 10.0562L45.5609 10.4667L42.9955 12.7242Z" fill="black" stroke="black" stroke-width="2" stroke-miterlimit="10"/>
</g>
<defs>
<clipPath id="clip0">
<rect width="101.485" height="106" fill="white"/>
</clipPath>
</defs>
</svg>
