<svg width="450" height="140" viewBox="0 0 450 140" fill="none" xmlns="http://www.w3.org/2000/svg">
<path d="M115.417 8.1676C115.417 8.28264 115.417 8.39767 115.417 8.39767C115.417 8.51271 115.531 8.51271 115.646 8.51271H131.889C132.804 8.51271 133.49 8.85782 134.176 9.43301C134.748 10.0082 135.092 10.8134 135.092 11.7337V49.4659C135.092 49.926 134.863 50.3862 134.52 50.8463C134.176 51.1914 133.719 51.4215 133.147 51.4215C132.689 51.4215 132.232 51.1914 131.774 50.8463C131.431 50.5012 131.202 50.0411 131.202 49.4659V48.7757C131.202 48.5456 131.088 48.4305 130.859 48.4305H101.805C101.576 48.4305 101.462 48.5456 101.462 48.7757V49.6959C101.462 50.1561 101.233 50.6162 100.89 50.9614C100.547 51.3065 100.089 51.5365 99.517 51.5365C98.9451 51.5365 98.6019 51.3065 98.1444 50.9614C97.8012 50.6162 97.5724 50.1561 97.5724 49.6959V11.7337C97.5724 10.8134 97.9156 10.1232 98.4875 9.43301C99.0595 8.85782 99.8602 8.51271 100.775 8.51271H110.956C111.185 8.51271 111.413 8.39767 111.528 8.1676C112.214 6.44204 112.786 4.71649 113.244 2.99094C113.358 2.41575 113.701 1.9556 114.159 1.61049C114.502 1.38042 114.959 1.26538 115.417 1.26538C115.531 1.26538 115.646 1.26538 115.76 1.26538C116.332 1.38042 116.675 1.61049 117.018 2.07064C117.361 2.53079 117.361 2.99094 117.133 3.56612C116.675 5.0616 115.989 6.55708 115.417 8.1676ZM131.317 12.424C131.317 12.1939 131.202 12.0789 130.974 12.0789H101.805C101.462 12.0789 101.347 12.1939 101.347 12.424V20.4766C101.347 20.7066 101.462 20.8217 101.805 20.8217H130.859C131.088 20.8217 131.202 20.7066 131.202 20.4766V12.424H131.317ZM131.317 24.7329C131.317 24.3878 131.202 24.2728 130.974 24.2728H101.805C101.462 24.2728 101.347 24.3878 101.347 24.7329V32.4404C101.347 32.7855 101.462 32.9005 101.805 32.9005H130.859C131.088 32.9005 131.202 32.7855 131.202 32.4404V24.7329H131.317ZM101.462 44.5193C101.462 44.7494 101.576 44.8644 101.919 44.8644H130.974C131.202 44.8644 131.317 44.7494 131.317 44.5193V36.5817C131.317 36.3517 131.202 36.2366 130.974 36.2366H101.805C101.462 36.2366 101.347 36.3517 101.347 36.5817V44.5193H101.462Z" fill="#AE8148" stroke="#AE8148" stroke-width="2" stroke-miterlimit="10" stroke-linecap="round" stroke-linejoin="round"/>
<path d="M171.124 48.8908H183.363C184.85 48.8908 185.765 48.4307 186.223 47.6254C186.68 46.8201 187.023 44.9795 187.252 42.3337C187.252 41.8735 187.481 41.5284 187.938 41.4134C188.282 41.1833 188.739 41.1833 189.197 41.4134C189.769 41.6435 190.112 41.9886 190.455 42.4487C190.798 42.9089 190.913 43.369 190.798 43.9442C190.455 47.2803 189.769 49.581 188.854 50.7314C187.824 51.8818 186.108 52.572 183.477 52.572H170.78C167.692 52.572 165.633 52.1118 164.603 51.3066C163.46 50.3863 163.002 48.7758 163.002 46.245V35.7766C163.002 35.4315 162.888 35.3164 162.659 35.4315L145.272 37.157C144.814 37.2721 144.357 37.157 144.014 36.8119C143.556 36.4668 143.327 36.0067 143.327 35.3164C143.327 34.9713 143.442 34.6262 143.671 34.2811C144.014 33.936 144.357 33.7059 144.814 33.5909L162.773 31.5202C163.002 31.5202 163.116 31.2901 163.116 31.0601V23.1225C163.116 22.8924 163.002 22.7774 162.773 22.7774C158.884 23.5827 154.995 24.2729 151.106 24.8481C150.648 24.9631 150.305 24.8481 149.847 24.618C149.504 24.3879 149.161 24.0428 148.932 23.5827C148.818 23.2376 148.818 22.7774 149.047 22.4323C149.276 22.0872 149.504 21.8571 149.962 21.7421C161.858 19.6714 170.895 17.4857 176.843 15.185C177.3 14.9549 177.758 14.9549 178.216 14.9549C179.016 14.9549 179.703 15.3 180.275 15.8752C180.618 16.2203 180.732 16.5654 180.732 17.1406C180.618 17.6007 180.389 17.9459 179.931 18.1759C176.729 19.4413 172.611 20.5917 167.463 21.8571C167.234 21.9722 167.12 22.0872 167.12 22.3173V30.5999C167.12 30.83 167.234 30.945 167.463 30.945L189.654 28.2992C190.112 28.1841 190.569 28.2992 190.913 28.6443C191.37 28.9894 191.599 29.4496 191.599 30.0247C191.599 30.3699 191.484 30.715 191.256 31.0601C190.913 31.4052 190.569 31.6353 190.112 31.6353L167.463 34.3961C167.234 34.3961 167.12 34.6262 167.12 34.8563V46.0149C167.12 47.1652 167.349 47.9705 167.921 48.3156C168.264 48.6607 169.408 48.8908 171.124 48.8908ZM148.704 11.6188C148.475 11.6188 148.36 11.7339 148.36 12.079V17.9459C148.36 18.406 148.132 18.8662 147.788 19.3263C147.445 19.6714 146.988 19.9015 146.416 19.9015C145.844 19.9015 145.501 19.6714 145.043 19.3263C144.7 18.9812 144.471 18.521 144.471 17.9459V11.3887C144.471 10.4685 144.814 9.77823 145.386 9.08801C145.958 8.51282 146.759 8.16771 147.674 8.16771H165.061C165.29 8.16771 165.404 8.05268 165.404 7.70757V4.14142C165.404 3.56623 165.633 3.10609 165.976 2.76098C166.319 2.41587 166.777 2.18579 167.349 2.18579C167.806 2.18579 168.264 2.41587 168.721 2.76098C169.065 3.10609 169.293 3.56623 169.293 4.14142V7.8226C169.293 8.16771 169.408 8.28275 169.636 8.28275H187.367C188.282 8.28275 188.968 8.62786 189.654 9.20305C190.226 9.77823 190.569 10.5835 190.569 11.5038V17.9459C190.569 18.406 190.341 18.8662 189.997 19.3263C189.654 19.6714 189.197 19.9015 188.625 19.9015C188.053 19.9015 187.71 19.6714 187.252 19.3263C186.909 18.9812 186.68 18.521 186.68 17.9459V12.079C186.68 11.7339 186.566 11.6188 186.337 11.6188H148.704Z" fill="#AE8148" stroke="#AE8148" stroke-width="2" stroke-miterlimit="10" stroke-linecap="round" stroke-linejoin="round"/>
<path d="M202.237 8.97277C202.351 8.39758 202.58 7.8224 203.038 7.47728C203.495 7.13217 203.953 6.9021 204.41 6.9021C204.525 6.9021 204.525 6.9021 204.639 6.9021C205.211 7.01714 205.669 7.24721 206.012 7.70736C206.355 8.16751 206.469 8.74269 206.24 9.31788C206.126 9.77802 206.012 10.2382 205.897 10.5833C204.067 19.3261 203.152 26.4584 203.152 31.7501C203.152 34.511 203.266 37.1568 203.61 39.5726C203.61 39.5726 203.61 39.6876 203.724 39.6876C203.724 39.6876 203.838 39.6876 203.838 39.5726C204.753 36.9268 205.669 34.626 206.355 32.9005C206.469 32.5553 206.698 32.3253 207.041 32.3253C207.384 32.2102 207.613 32.3253 207.956 32.5553C208.414 32.9005 208.757 33.3606 208.757 33.9358C208.757 34.1659 208.757 34.3959 208.643 34.626C206.698 40.2628 205.554 43.829 205.211 45.5545C204.982 46.2447 204.982 46.8199 204.982 47.3951C204.982 47.5102 204.982 47.7402 204.982 47.8553C204.982 48.3154 204.868 48.7756 204.525 49.2357C204.181 49.6959 203.838 49.8109 203.266 49.8109H203.152C202.694 49.8109 202.237 49.6959 201.894 49.4658C201.436 49.1207 201.207 48.7756 201.093 48.2004C200.064 43.5989 199.492 38.4222 199.492 32.3253C199.492 30.8298 199.606 29.2193 199.72 27.4937C199.835 25.7682 200.064 24.0426 200.292 22.3171C200.521 20.5915 200.75 19.096 200.864 17.8306C201.093 16.5652 201.322 15.1848 201.551 13.4592C201.779 11.7337 202.008 10.6983 202.008 10.2382C202.123 9.77802 202.123 9.31788 202.237 8.97277ZM215.277 35.0862C215.391 34.626 215.62 34.1659 216.078 33.8208C216.535 33.4756 216.993 33.3606 217.45 33.3606C217.908 33.4756 218.251 33.7057 218.594 34.0508C218.823 34.3959 218.937 34.8561 218.937 35.3162C218.594 36.5816 218.48 37.617 218.48 38.6523C218.48 41.9884 221.683 43.7139 227.974 43.7139C232.092 43.7139 235.867 43.3688 239.413 42.6786C239.985 42.5636 240.442 42.6786 240.9 43.0237C241.357 43.3688 241.586 43.829 241.586 44.4042C241.586 44.9793 241.357 45.5545 241.014 45.8996C240.671 46.3598 240.214 46.7049 239.527 46.8199C236.21 47.2801 232.321 47.6252 228.088 47.6252C223.627 47.6252 220.31 46.935 218.137 45.5545C215.963 44.1741 214.934 42.1034 214.934 39.5726C214.82 38.3072 215.048 36.8117 215.277 35.0862ZM219.509 15.6449C218.937 15.6449 218.48 15.4148 218.137 14.9547C217.794 14.4945 217.565 14.0344 217.565 13.4592C217.565 12.9991 217.794 12.5389 218.137 12.1938C218.48 11.8487 219.052 11.7337 219.509 11.7337C222.026 11.9637 224.771 12.0788 227.86 12.0788C228.203 12.0788 228.432 12.0788 228.66 12.0788C231.978 12.0788 235.066 11.8487 237.697 11.6186C238.269 11.5036 238.726 11.7337 239.07 12.0788C239.527 12.4239 239.642 12.884 239.642 13.4592C239.642 14.0344 239.413 14.4945 239.07 14.9547C238.726 15.4148 238.155 15.6449 237.583 15.6449C234.609 15.875 231.52 15.99 228.546 15.99C225.572 15.99 222.598 15.875 219.509 15.6449Z" fill="#AE8148" stroke="#AE8148" stroke-width="2" stroke-miterlimit="10" stroke-linecap="round" stroke-linejoin="round"/>
<path d="M249.593 12.194C249.593 11.6188 249.822 11.1587 250.165 10.6985C250.508 10.2384 251.08 10.0083 251.652 10.0083C252.224 10.0083 252.796 10.3534 253.254 10.8136C253.597 11.2737 253.826 11.7339 253.826 12.309C253.826 12.4241 253.826 12.4241 253.826 12.5391C253.711 13.4594 253.711 14.3797 253.711 15.3C253.711 16.1053 253.711 16.9105 253.711 17.8308C253.711 21.7421 253.826 25.3082 254.169 28.5293C254.626 33.3608 255.541 37.157 256.914 39.9179C258.287 42.6788 259.888 44.0592 261.947 44.0592C263.091 44.0592 264.235 43.254 265.264 41.5284C266.408 39.8029 267.323 37.7322 268.124 35.0864C268.238 34.6262 268.582 34.2811 269.039 34.1661C269.497 34.051 269.954 34.1661 270.297 34.5112C270.755 35.0864 271.098 35.6615 271.212 36.3518C271.212 36.5818 271.212 36.8119 271.212 37.157C271.212 37.6172 271.098 38.0773 270.984 38.5375C269.497 42.1036 268.01 44.7495 266.523 46.36C265.036 47.9705 263.32 48.7758 261.604 48.7758C258.859 48.7758 256.457 47.1652 254.283 44.0592C252.224 40.9532 250.852 36.1217 250.165 29.4495C249.708 25.5383 249.479 20.7067 249.479 14.8399L249.593 12.194ZM280.135 14.6098C279.906 14.2647 279.906 14.0346 279.906 13.6895C279.906 13.5744 279.906 13.3444 279.906 13.2293C280.02 12.7692 280.363 12.4241 280.821 12.309C281.164 12.194 281.393 12.194 281.736 12.194C282.079 12.194 282.308 12.194 282.537 12.309C283.109 12.5391 283.566 12.7692 283.909 13.2293C285.854 16.2203 287.57 19.7864 289.057 23.9278C290.544 28.0691 291.573 32.0954 292.031 36.2367C292.031 36.3518 292.031 36.4668 292.031 36.5818C292.031 37.042 291.917 37.5021 291.688 37.9623C291.345 38.5375 290.887 38.8826 290.315 39.1127C290.086 39.2277 289.858 39.2277 289.743 39.2277C289.4 39.2277 289.171 39.1127 288.828 38.9976C288.371 38.6525 288.142 38.3074 288.027 37.7322C287.455 33.3608 286.426 29.1044 285.053 24.9631C283.795 21.0519 282.079 17.4857 280.135 14.6098Z" fill="#AE8148" stroke="#AE8148" stroke-width="2" stroke-miterlimit="10" stroke-linecap="round" stroke-linejoin="round"/>
<path d="M323.144 11.9639C323.602 11.8488 324.059 11.9639 324.403 12.194C324.746 12.424 324.975 12.8842 324.975 13.3443C324.975 13.9195 324.86 14.3797 324.517 14.8398C324.174 15.3 323.716 15.53 323.259 15.6451C320.857 16.2203 318.34 16.6804 315.595 17.1405C315.252 17.1405 315.137 17.3706 315.023 17.6007C313.765 21.0518 312.163 24.733 310.333 28.6442C308.388 32.4405 306.444 35.7765 304.499 38.7675C304.156 39.2276 303.699 39.5728 303.012 39.6878C302.783 39.6878 302.555 39.6878 302.44 39.6878C302.097 39.6878 301.64 39.5728 301.296 39.4577C300.839 39.2276 300.496 38.7675 300.381 38.3074C300.267 37.7322 300.381 37.272 300.724 36.8119C302.669 34.2811 304.614 31.2901 306.444 27.839C308.274 24.3879 309.875 21.1668 311.019 18.1759C311.019 18.0608 311.019 17.9458 311.019 17.9458C311.019 17.8308 310.905 17.8308 310.791 17.8308C309.189 17.9458 307.588 17.9458 306.101 17.9458C304.614 17.9458 303.127 17.9458 301.64 17.8308C301.068 17.8308 300.61 17.6007 300.267 17.2556C299.809 16.9105 299.581 16.3353 299.581 15.7601C299.581 15.3 299.695 14.9548 300.038 14.7248C300.381 14.3797 300.839 14.1496 301.296 14.2646C302.783 14.3797 304.27 14.3797 305.986 14.3797C307.702 14.3797 309.647 14.2646 311.934 14.1496C312.163 14.1496 312.392 13.9195 312.392 13.6894C313.078 11.1586 313.65 8.85788 313.879 6.78722C313.993 6.21203 314.222 5.63685 314.68 5.29174C315.137 4.94663 315.595 4.71655 316.052 4.71655C316.167 4.71655 316.167 4.71655 316.281 4.71655C316.853 4.83159 317.311 5.06166 317.654 5.52181C317.997 5.98196 318.111 6.55714 317.997 7.13233C317.425 9.77818 316.853 11.8488 316.51 13.2293C316.51 13.3443 316.51 13.3443 316.51 13.4594C316.624 13.5744 316.624 13.5744 316.739 13.5744C318.912 12.9992 321.085 12.5391 323.144 11.9639ZM327.377 23.6977C327.377 23.1225 327.491 22.6623 327.834 22.3172C328.177 21.9721 328.635 21.742 329.207 21.742C329.779 21.742 330.236 21.9721 330.58 22.3172C330.923 22.6623 331.152 23.2375 331.152 23.8127C331.152 24.2728 331.152 25.5382 331.152 27.4939C331.152 28.1841 331.266 29.4495 331.38 31.6352C331.495 33.7059 331.495 35.3164 331.609 36.4668C331.609 36.8119 331.838 36.9269 332.067 37.0419C335.269 38.1923 338.358 40.0329 341.446 42.4487C341.904 42.7938 342.133 43.2539 342.247 43.8291C342.247 43.9442 342.247 44.0592 342.247 44.1742C342.247 44.6344 342.133 44.9795 341.904 45.3246C341.675 45.7848 341.218 46.0148 340.76 46.1299C340.188 46.2449 339.731 46.1299 339.387 45.7848C336.985 43.7141 334.583 42.1036 332.181 40.9532C332.067 40.9532 332.067 40.9532 331.952 40.9532C331.838 40.9532 331.838 41.0682 331.838 41.1833C331.838 41.6434 331.838 42.4487 331.838 43.2539C331.838 45.5547 331.037 47.3953 329.436 48.7757C327.834 50.2712 325.547 50.9614 322.344 50.9614C319.141 50.9614 316.624 50.2712 314.565 49.0058C312.506 47.7404 311.591 45.7848 311.591 43.2539C311.591 40.8382 312.621 38.8825 314.68 37.3871C316.739 35.8916 319.255 35.2014 322.344 35.2014C323.945 35.2014 325.661 35.3164 327.491 35.6615C327.605 35.6615 327.605 35.6615 327.72 35.6615C327.834 35.5465 327.834 35.5465 327.834 35.4314C327.606 29.6796 327.491 25.7683 327.377 23.6977ZM328.063 42.1036C328.063 41.0682 328.063 40.263 328.063 39.6878C328.063 39.3427 327.949 39.2276 327.72 39.1126C325.89 38.6525 324.059 38.4224 322.344 38.4224C320.285 38.4224 318.683 38.8825 317.311 39.6878C316.052 40.4931 315.366 41.6434 315.366 43.0239C315.366 44.4043 315.938 45.4396 317.082 46.2449C318.226 47.0502 319.827 47.3953 322.001 47.3953C324.174 47.3953 325.775 46.9351 326.69 45.8998C327.606 44.8645 328.063 43.5991 328.063 42.1036ZM343.048 18.521C343.505 18.8661 343.849 19.3263 343.963 19.7864C343.963 19.9014 343.963 20.0165 343.963 20.1315C343.963 20.4766 343.849 20.9368 343.62 21.2819C343.277 21.742 342.933 21.9721 342.361 22.0871C341.79 22.2022 341.332 22.0871 340.874 21.742C338.358 19.9014 335.269 18.0608 331.723 16.2203C331.266 15.9902 331.037 15.6451 330.923 15.1849C330.808 14.7248 330.808 14.2646 331.152 13.9195C331.495 13.4594 331.838 13.1143 332.295 12.9992C332.753 12.8842 333.325 12.8842 333.782 13.1143C337.1 14.9548 340.302 16.6804 343.048 18.521Z" fill="#AE8148" stroke="#AE8148" stroke-width="2" stroke-miterlimit="10" stroke-linecap="round" stroke-linejoin="round"/>
<path d="M365.125 7.59253C365.125 7.01734 365.468 6.44216 365.925 5.98201C366.268 5.6369 366.726 5.40683 367.298 5.40683C367.412 5.40683 367.412 5.40683 367.527 5.40683C368.099 5.52186 368.671 5.75194 369.014 6.32712C369.243 6.67223 369.471 7.13238 369.471 7.47749C369.471 7.59253 369.471 7.8226 369.471 7.93764C369.357 8.16771 369.357 8.39779 369.357 8.7429C369.014 11.1587 368.556 13.8045 367.984 16.5654C367.984 16.6805 367.984 16.7955 367.984 16.7955C368.099 16.9105 368.099 16.9105 368.213 16.9105C371.073 16.6805 373.132 16.5654 374.161 16.5654C375.419 16.5654 376.563 16.6805 377.478 17.0256C378.508 17.2556 379.423 17.7158 380.224 18.406C381.024 19.0962 381.711 20.0165 382.168 21.1669C382.626 22.4323 382.855 23.9278 382.855 25.6533C382.855 29.3345 382.626 33.0157 382.054 36.6969C381.482 40.3781 380.681 43.254 379.652 45.4397C378.851 47.1652 377.822 48.3156 376.563 49.0058C375.305 49.6961 373.704 49.9261 371.873 49.9261C370.615 49.9261 369.128 49.8111 367.527 49.466C366.84 49.3509 366.383 49.1209 365.925 48.6607C365.468 48.2006 365.239 47.6254 365.125 46.9352C365.01 46.475 365.239 46.0149 365.582 45.7848C365.925 45.4397 366.383 45.3247 366.84 45.4397C368.671 45.8998 370.272 46.1299 371.53 46.1299C372.674 46.1299 373.589 45.8998 374.39 45.5547C375.191 45.2096 375.877 44.4044 376.449 43.254C377.364 41.4134 377.936 38.9976 378.393 35.8916C378.851 32.7856 379.08 29.5646 379.08 26.2285C379.08 23.8127 378.622 22.2022 377.707 21.397C376.792 20.5917 375.305 20.1316 373.36 20.1316C372.217 20.1316 370.272 20.2466 367.527 20.4767C367.298 20.4767 367.069 20.7067 367.069 20.9368C364.324 31.8653 360.778 40.9533 356.774 48.2006C356.431 48.7758 356.088 49.1209 355.402 49.351C355.173 49.466 354.83 49.466 354.601 49.466C354.258 49.466 353.915 49.466 353.686 49.351C353.228 49.1209 352.885 48.7758 352.771 48.2006C352.656 47.6254 352.656 47.1652 352.999 46.7051C355.173 43.369 357.117 39.3427 358.948 34.6262C360.778 30.0247 362.15 25.5383 363.18 21.397C363.18 21.2819 363.18 21.2819 363.18 21.1669C363.066 21.0519 363.066 21.0519 362.951 21.0519C362.15 21.1669 360.892 21.2819 359.291 21.397C357.689 21.512 356.545 21.627 356.088 21.7421C355.173 21.8571 354.372 21.9722 353.571 22.0872C352.999 22.2022 352.428 21.9722 351.97 21.627C351.398 21.1669 351.169 20.5917 351.169 19.9015C351.169 19.4413 351.284 18.9812 351.627 18.6361C351.97 18.1759 352.542 17.9459 353.114 17.9459C353.571 17.9459 354.372 17.9459 355.63 17.9459C356.66 17.9459 359.405 17.7158 363.752 17.3707C363.981 17.3707 364.209 17.1406 364.209 16.9105C364.553 13.2293 365.01 10.1233 365.125 7.59253ZM386.172 15.3C385.943 14.9549 385.829 14.7248 385.829 14.3797C385.829 14.2647 385.829 14.1496 385.829 14.0346C385.943 13.5745 386.172 13.2293 386.744 12.9993C387.087 12.7692 387.43 12.7692 387.773 12.7692C388.002 12.7692 388.116 12.7692 388.345 12.8842C388.917 12.9993 389.375 13.3444 389.718 13.8045C391.091 15.7602 392.463 18.291 393.95 21.2819C395.437 24.2729 396.81 27.0338 397.839 29.5646C397.954 29.9097 397.954 30.1398 397.954 30.3699C397.954 30.5999 397.954 30.945 397.839 31.1751C397.611 31.7503 397.267 32.0954 396.695 32.4405C396.467 32.5556 396.238 32.5556 395.895 32.5556C395.666 32.5556 395.437 32.5556 395.094 32.4405C394.637 32.2104 394.293 31.8653 394.065 31.2901C393.149 28.6443 391.891 25.8834 390.404 22.8924C389.146 19.9015 387.659 17.3707 386.172 15.3ZM393.493 10.2384C393.721 10.5835 393.721 10.9286 393.607 11.3887C393.493 11.7339 393.264 12.079 392.806 12.194C392.463 12.4241 392.006 12.4241 391.662 12.194C391.319 12.079 390.976 11.8489 390.747 11.3887C389.718 9.43312 388.688 7.70757 387.773 6.21209C387.544 5.86697 387.544 5.52186 387.659 5.17675C387.773 4.83164 388.002 4.60157 388.345 4.37149C388.574 4.25646 388.803 4.25646 389.032 4.25646C389.146 4.25646 389.375 4.25646 389.489 4.25646C389.832 4.37149 390.175 4.60157 390.404 4.94668C391.548 6.90231 392.578 8.51282 393.493 10.2384ZM399.555 8.05268C399.67 8.28275 399.67 8.51282 399.67 8.7429C399.67 8.85794 399.67 9.08801 399.67 9.20305C399.555 9.54816 399.326 9.89327 398.869 10.0083C398.526 10.2384 398.068 10.2384 397.725 10.0083C397.382 9.89327 397.039 9.66319 396.81 9.20305C395.78 7.13238 394.751 5.52186 393.836 4.02638C393.607 3.68127 393.607 3.4512 393.607 3.10609C393.721 2.76098 393.95 2.5309 394.179 2.30083C394.408 2.18579 394.637 2.18579 394.865 2.18579C395.094 2.18579 395.208 2.18579 395.437 2.18579C395.78 2.30083 396.124 2.5309 396.352 2.87601C397.496 4.60157 398.526 6.32712 399.555 8.05268Z" fill="#AE8148" stroke="#AE8148" stroke-width="2" stroke-miterlimit="10" stroke-linecap="round" stroke-linejoin="round"/>
<path d="M409.392 16.7955C409.392 16.2203 409.736 15.7601 410.193 15.415C410.536 15.0699 410.994 14.9549 411.451 14.9549C411.566 14.9549 411.566 14.9549 411.68 14.9549C412.252 15.0699 412.71 15.3 413.053 15.8752C413.396 16.3353 413.51 16.9105 413.51 17.4857C413.282 18.8661 412.938 21.0518 412.595 24.2729C412.138 27.4939 411.909 29.5646 411.68 30.5999C411.68 30.7149 411.68 30.7149 411.68 30.7149C411.795 30.7149 411.795 30.7149 411.795 30.7149C416.828 26.3435 422.661 24.1578 429.41 24.1578C433.414 24.1578 436.731 25.1932 439.362 27.3789C441.993 29.5646 443.251 32.2104 443.251 35.5465C443.251 40.4931 441.078 44.2893 436.617 47.0502C432.842 49.3509 427.58 50.5013 420.717 50.5013C419.459 50.5013 418.086 50.5013 416.713 50.3862C416.027 50.3862 415.455 50.1562 414.997 49.696C414.54 49.3509 414.197 48.7757 413.968 48.2006C413.854 47.7404 413.854 47.2803 414.197 46.9351C414.54 46.59 414.883 46.36 415.455 46.475C417.4 46.7051 419.23 46.7051 420.946 46.7051C425.979 46.7051 429.982 45.8998 433.071 44.4043C437.074 42.3337 439.133 39.3427 439.133 35.5465C439.133 33.3608 438.218 31.5202 436.388 30.0247C434.558 28.6443 432.156 27.839 429.296 27.839C421.975 27.839 416.256 30.2548 412.138 35.2014C411.795 35.5465 411.566 35.8916 411.337 36.1217C410.994 36.5818 410.651 37.042 410.193 37.272C409.736 37.5021 409.164 37.6171 408.706 37.3871C408.249 37.157 407.791 36.9269 407.448 36.4668C407.219 36.1217 407.105 35.7766 407.105 35.4314C407.105 35.3164 407.105 35.2014 407.105 35.0863C408.134 29.2194 408.821 23.2375 409.392 16.7955ZM416.141 9.66316C415.569 9.54813 415.226 9.20302 414.883 8.74287C414.654 8.28272 414.54 7.82257 414.654 7.24739C414.769 6.78724 415.112 6.32709 415.569 6.09702C415.798 5.86694 416.141 5.86694 416.484 5.86694C416.713 5.86694 416.828 5.86694 417.056 5.86694C422.433 7.36242 428.152 8.51279 434.215 9.31805C434.672 9.43309 435.13 9.66316 435.473 10.0083C435.816 10.4684 435.93 10.9286 435.816 11.3887C435.702 11.9639 435.358 12.309 434.901 12.6541C434.443 12.9992 433.986 13.1143 433.414 12.9992C427.58 12.309 421.861 11.1586 416.141 9.66316Z" fill="#AE8148" stroke="#AE8148" stroke-width="2" stroke-miterlimit="10" stroke-linecap="round" stroke-linejoin="round"/>
<path d="M30.999 101.232C30.999 101.578 31.1134 101.693 31.3421 101.693H40.0356C40.6075 101.693 41.4082 101.693 42.4377 101.578C43.0096 101.578 43.4672 101.693 43.9247 102.038C44.3823 102.383 44.6111 102.843 44.6111 103.418C44.6111 103.993 44.3823 104.453 44.0391 104.914C43.5816 105.259 43.124 105.489 42.5521 105.489C41.5226 105.374 40.7219 105.374 40.2644 105.374H31.5709C31.3421 105.374 31.2277 105.489 31.2277 105.834C31.4565 120.674 31.5709 129.301 31.5709 131.947C31.5709 134.708 29.9695 136.204 26.7666 136.204C24.4789 136.204 22.3055 136.089 20.1322 135.974C19.5602 135.974 18.9883 135.744 18.6451 135.283C18.1876 134.823 17.9588 134.363 17.9588 133.788C17.9588 133.213 18.0732 132.753 18.4164 132.407C18.7595 132.062 19.2171 131.947 19.789 131.947C21.848 132.177 23.7926 132.292 25.6228 132.292C26.4235 132.292 26.9954 132.177 27.2242 131.832C27.5673 131.487 27.6817 130.912 27.6817 130.107C27.6817 124.01 27.6817 117.108 27.5673 109.515C27.5673 109.515 27.5673 109.4 27.453 109.4H27.3386C25.0508 112.621 21.848 116.072 17.73 119.753C13.6121 123.435 9.37975 126.541 4.91864 129.071C4.57548 129.301 4.11793 129.417 3.66038 129.417C3.43161 129.417 3.31722 129.417 3.20283 129.417C2.6309 129.301 2.05896 129.071 1.60141 128.496C1.25825 128.496 1.14386 128.151 1.14386 127.691C1.14386 127.576 1.14386 127.461 1.14386 127.346C1.25825 126.886 1.48702 126.426 2.05896 126.195C6.97762 123.55 11.5531 120.329 15.7854 116.532C20.0178 112.736 23.335 109.17 25.6228 105.719C25.7371 105.719 25.7371 105.604 25.6228 105.489C25.6228 105.374 25.5084 105.374 25.394 105.374H6.97762C5.94813 105.374 4.91864 105.374 4.11793 105.374C3.54599 105.374 3.08845 105.259 2.6309 104.799C2.17335 104.453 2.05896 103.878 2.05896 103.418C2.05896 102.958 2.28773 102.383 2.6309 102.038C3.08845 101.693 3.54599 101.463 4.11793 101.578C5.03303 101.693 6.06252 101.693 6.86323 101.693H26.881C27.2242 101.693 27.3386 101.578 27.3386 101.232C27.2242 98.8167 27.2242 97.0911 27.2242 96.0558C27.2242 95.2505 27.1098 94.5603 27.1098 93.8701C27.1098 93.2949 27.2242 92.7197 27.6817 92.2596C28.0249 91.7994 28.5968 91.5693 29.1688 91.5693C29.7407 91.5693 30.1983 91.7994 30.6558 92.2596C30.999 92.6047 31.2277 93.1799 31.2277 93.755V95.2505C31.2277 95.4806 31.2277 95.7107 31.2277 96.0558L30.999 101.232Z" fill="#AE8148" stroke="#AE8148" stroke-width="2" stroke-miterlimit="10" stroke-linecap="round" stroke-linejoin="round"/>
<path d="M55.4779 135.283C55.2491 135.283 55.0203 135.283 54.6771 135.283C54.2196 135.283 53.762 135.168 53.4189 135.053C52.7326 134.708 52.275 134.363 51.8175 133.673C51.5887 133.443 51.5887 133.098 51.5887 132.868C51.5887 132.638 51.5887 132.407 51.7031 132.177C51.9318 131.717 52.3894 131.372 52.8469 131.257C60.0534 129.877 66.6878 127.231 72.636 123.435C76.182 121.134 79.4992 118.373 82.4733 115.152C85.4474 111.931 87.8495 108.595 89.6797 105.374C89.9085 104.914 90.2516 104.684 90.8236 104.684C91.2811 104.684 91.6243 104.914 91.8531 105.374C92.1962 106.064 92.425 106.754 92.425 107.444C92.425 108.135 92.1962 108.825 91.8531 109.515C89.7941 112.851 87.3919 115.957 84.4179 119.063C81.5582 122.169 78.3553 124.7 74.8093 127.001C68.8612 130.912 62.3411 133.673 55.4779 135.283ZM53.762 98.5866C53.3045 98.2415 53.0757 97.7813 53.0757 97.3212C53.0757 96.746 53.1901 96.2859 53.5333 95.9408C53.9908 95.4806 54.4484 95.2505 55.0203 95.1355C55.1347 95.1355 55.1347 95.1355 55.2491 95.1355C55.7066 95.1355 56.1642 95.2505 56.6217 95.5956C60.3965 98.3565 63.9425 101.347 67.2598 104.338C67.7173 104.684 67.9461 105.259 67.9461 105.834C67.9461 106.409 67.7173 106.984 67.3741 107.329C66.9166 107.79 66.459 108.02 65.8871 108.02C65.3152 108.02 64.7432 107.79 64.2857 107.444C60.7397 104.108 57.3081 101.117 53.762 98.5866Z" fill="#AE8148" stroke="#AE8148" stroke-width="2" stroke-miterlimit="10" stroke-linecap="round" stroke-linejoin="round"/>
<path d="M137.265 106.639C137.494 106.639 137.722 106.639 137.951 106.639C138.866 106.639 139.667 106.869 140.353 107.214C140.925 107.56 141.268 108.135 141.268 108.825C141.268 109.055 141.268 109.4 141.154 109.745C139.438 116.302 136.693 121.594 133.033 125.505C130.63 128.151 127.885 130.337 125.025 132.062C122.166 133.788 118.963 135.168 115.531 136.319C115.188 136.434 114.845 136.434 114.502 136.434C114.159 136.434 113.815 136.434 113.472 136.319C112.786 136.089 112.214 135.744 111.756 135.168C111.413 134.823 111.299 134.363 111.528 133.788C111.756 133.213 111.985 132.983 112.557 132.868C119.649 131.027 125.369 127.806 129.715 123.205C131.317 121.594 132.689 119.638 133.833 117.453C134.977 115.267 135.778 113.081 136.35 110.896C136.35 110.781 136.35 110.666 136.35 110.55C136.235 110.435 136.235 110.435 136.121 110.435H106.723C105.808 110.435 104.779 110.435 103.521 110.55C102.949 110.55 102.491 110.32 102.034 109.975C101.576 109.63 101.462 109.17 101.462 108.595C101.462 108.02 101.69 107.56 102.034 107.214C102.491 106.869 102.949 106.639 103.521 106.754C104.779 106.869 105.808 106.869 106.723 106.869H136.007C136.464 106.754 136.807 106.639 137.265 106.639ZM108.439 97.7814C107.867 97.7814 107.41 97.5513 107.067 97.2062C106.723 96.8611 106.495 96.2859 106.495 95.8258C106.495 95.3656 106.723 94.7904 107.067 94.4453C107.41 94.1002 107.867 93.8701 108.325 93.8701H108.439C109.24 93.8701 110.155 93.8701 111.185 93.8701H133.033C134.062 93.8701 134.977 93.8701 135.778 93.8701C136.35 93.8701 136.807 94.1002 137.15 94.4453C137.494 94.7904 137.722 95.2506 137.722 95.8258C137.722 96.4009 137.494 96.8611 137.15 97.2062C136.807 97.5513 136.235 97.7814 135.778 97.7814C134.863 97.7814 133.948 97.7814 132.918 97.7814H111.185C110.155 97.6663 109.24 97.7814 108.439 97.7814Z" fill="#AE8148" stroke="#AE8148" stroke-width="2" stroke-miterlimit="10" stroke-linecap="round" stroke-linejoin="round"/>
<path d="M185.994 93.41C186.451 92.9498 186.909 92.7198 187.595 92.6047H187.71C188.167 92.6047 188.625 92.8348 189.082 93.1799C189.54 93.525 189.769 94.1002 189.769 94.7904C189.769 95.3656 189.54 95.8258 189.082 96.2859C184.964 100.197 180.618 103.648 176.271 106.409C176.042 106.524 175.928 106.754 175.928 106.984V130.567L176.042 134.018C176.042 134.593 175.813 135.053 175.47 135.514C175.013 135.974 174.555 136.319 173.869 136.319C173.183 136.319 172.725 136.089 172.267 135.514C171.924 135.053 171.695 134.593 171.695 134.018L171.81 130.567V109.63C171.81 109.515 171.81 109.515 171.695 109.4C171.581 109.4 171.581 109.4 171.467 109.4C165.519 112.621 159.342 115.267 152.822 117.338C152.593 117.453 152.25 117.453 152.021 117.453C151.678 117.453 151.335 117.453 150.991 117.338C150.419 117.108 149.962 116.647 149.619 116.072C149.504 115.842 149.39 115.497 149.39 115.267C149.39 115.037 149.39 114.807 149.504 114.577C149.733 114.117 150.076 113.772 150.648 113.657C154.652 112.506 158.77 111.126 162.659 109.4C166.548 107.675 170.094 105.834 173.068 103.993C178.216 100.772 182.562 97.2062 185.994 93.41Z" fill="#AE8148" stroke="#AE8148" stroke-width="2" stroke-miterlimit="10" stroke-linecap="round" stroke-linejoin="round"/>
<path d="M203.838 135.283C203.61 135.283 203.381 135.283 203.038 135.283C202.58 135.283 202.123 135.168 201.779 135.053C201.093 134.708 200.635 134.363 200.178 133.673C199.949 133.443 199.949 133.098 199.949 132.868C199.949 132.638 199.949 132.407 200.064 132.177C200.292 131.717 200.75 131.372 201.207 131.257C208.414 129.877 215.048 127.231 220.996 123.435C224.542 121.134 227.86 118.373 230.834 115.152C233.808 111.931 236.21 108.595 238.04 105.374C238.269 104.914 238.612 104.684 239.184 104.684C239.642 104.684 239.985 104.914 240.214 105.374C240.557 106.064 240.785 106.754 240.785 107.444C240.785 108.135 240.557 108.825 240.214 109.515C238.155 112.851 235.752 115.957 232.778 119.063C229.919 122.169 226.716 124.7 223.17 127.001C217.222 130.912 210.702 133.673 203.838 135.283ZM202.237 98.5866C201.779 98.2415 201.551 97.7813 201.551 97.3212C201.551 96.746 201.665 96.2859 202.008 95.9408C202.466 95.4806 202.923 95.2505 203.495 95.1355C203.61 95.1355 203.61 95.1355 203.724 95.1355C204.181 95.1355 204.639 95.2505 205.097 95.5956C208.871 98.3565 212.417 101.347 215.735 104.338C216.192 104.684 216.421 105.259 216.421 105.834C216.421 106.409 216.192 106.984 215.849 107.329C215.391 107.79 214.934 108.02 214.362 108.02C213.79 108.02 213.218 107.79 212.761 107.444C209.215 104.108 205.669 101.117 202.237 98.5866Z" fill="#AE8148" stroke="#AE8148" stroke-width="2" stroke-miterlimit="10" stroke-linecap="round" stroke-linejoin="round"/>
<path d="M249.25 102.613C248.678 102.728 248.106 102.613 247.649 102.268C247.077 101.808 246.734 101.232 246.734 100.542C246.734 100.082 246.962 99.6219 247.306 99.1618C247.649 98.7016 248.106 98.4716 248.793 98.4716C249.822 98.3565 250.623 98.3565 251.423 98.2415C261.032 97.3212 269.039 96.5159 275.445 96.0558C279.906 95.7107 284.138 95.3656 288.027 95.1355C288.485 95.1355 288.943 95.3656 289.286 95.7107C289.629 96.0558 289.858 96.5159 289.858 97.0911C289.858 97.5513 289.629 98.0114 289.286 98.4716C288.943 98.8167 288.485 99.0468 287.913 99.0468C283.909 99.0468 280.935 99.3919 279.22 99.9671C276.703 100.772 274.415 102.268 272.471 104.223C270.526 106.294 269.039 108.48 268.01 110.781C267.095 113.081 266.523 115.382 266.523 117.683C266.523 119.638 266.866 121.364 267.438 122.974C268.124 124.585 268.925 125.85 269.954 127.001C270.984 128.036 272.242 128.956 273.729 129.762C275.216 130.567 276.703 131.142 278.305 131.487C279.792 131.832 281.507 132.177 283.223 132.292C283.795 132.407 284.138 132.638 284.481 133.098C284.825 133.558 284.825 134.018 284.71 134.478C284.481 135.053 284.138 135.629 283.566 135.974C283.109 136.319 282.651 136.434 282.079 136.434C281.965 136.434 281.851 136.434 281.736 136.434C279.792 136.204 277.961 135.859 276.131 135.283C274.301 134.708 272.585 134.018 270.869 132.983C269.154 131.947 267.781 130.797 266.523 129.532C265.264 128.266 264.235 126.656 263.549 124.7C262.748 122.859 262.405 120.789 262.405 118.603C262.405 114.577 263.434 110.896 265.379 107.559C267.323 104.223 269.725 101.693 272.585 99.9671V99.852C272.585 99.852 272.585 99.852 272.471 99.852C271.899 99.9671 270.412 100.082 267.895 100.312C265.493 100.542 263.205 100.772 261.375 101.002C259.431 101.232 257.257 101.463 254.855 101.808C252.682 102.153 250.737 102.383 249.25 102.613ZM280.478 108.25C280.249 107.905 280.249 107.675 280.363 107.329C280.478 106.984 280.707 106.754 280.935 106.639C281.279 106.409 281.622 106.409 282.079 106.524C282.422 106.639 282.766 106.869 282.994 107.214C284.138 109.055 285.168 110.781 286.083 112.506C286.312 112.851 286.312 113.196 286.197 113.656C286.083 114.002 285.854 114.347 285.511 114.462C285.168 114.577 284.825 114.577 284.481 114.462C284.138 114.347 283.909 114.117 283.681 113.771C282.537 111.701 281.507 109.86 280.478 108.25ZM286.54 106.064C286.312 105.719 286.312 105.489 286.312 105.144C286.426 104.799 286.655 104.569 286.884 104.338C287.227 104.108 287.57 104.108 288.027 104.223C288.371 104.338 288.714 104.569 288.943 104.914C290.201 106.754 291.345 108.48 292.26 110.205C292.374 110.435 292.489 110.665 292.489 110.896C292.489 111.011 292.489 111.241 292.374 111.356C292.26 111.701 292.031 112.046 291.688 112.276C291.345 112.506 291.002 112.506 290.544 112.391C290.201 112.276 289.858 112.046 289.743 111.701C288.599 109.4 287.57 107.559 286.54 106.064Z" fill="#AE8148" stroke="#AE8148" stroke-width="2" stroke-miterlimit="10" stroke-linecap="round" stroke-linejoin="round"/>
<path d="M299.009 120.444C299.123 119.869 299.466 119.408 299.924 119.063C300.267 118.718 300.724 118.603 301.182 118.603C301.296 118.603 301.411 118.603 301.411 118.603C301.868 118.718 302.326 118.948 302.555 119.408C302.898 119.869 302.898 120.329 302.783 120.789C302.44 122.284 302.212 123.78 302.212 125.16C302.212 127.346 303.355 129.072 305.529 130.452C307.702 131.717 311.019 132.408 315.366 132.408C322.001 132.408 327.491 131.832 331.952 130.797C332.41 130.682 332.867 130.797 333.325 131.142C333.782 131.487 334.011 131.947 334.011 132.408C334.011 132.983 333.782 133.558 333.439 134.018C333.096 134.478 332.524 134.823 331.952 134.938C327.491 135.859 322 136.434 315.48 136.434C309.99 136.434 305.758 135.514 302.783 133.788C299.695 131.947 298.208 129.417 298.208 126.081C298.437 124.355 298.665 122.514 299.009 120.444ZM303.699 101.003C303.127 101.003 302.669 100.772 302.326 100.312C301.983 99.8521 301.754 99.392 301.754 98.8168C301.754 98.3567 301.983 97.8965 302.326 97.5514C302.669 97.2063 303.241 96.9762 303.699 97.0913C307.245 97.4364 311.362 97.5514 316.052 97.5514C320.285 97.5514 324.517 97.3213 328.635 96.9762C328.749 96.9762 328.749 96.9762 328.749 96.9762C329.207 96.9762 329.664 97.0913 330.008 97.4364C330.351 97.7815 330.58 98.2416 330.58 98.8168C330.58 99.392 330.351 99.8521 330.008 100.312C329.664 100.772 329.093 101.003 328.635 101.003C323.602 101.348 319.484 101.578 316.167 101.578C311.706 101.463 307.588 101.233 303.699 101.003ZM330.465 92.9499C330.236 92.6048 330.236 92.2597 330.351 91.9146C330.465 91.5695 330.694 91.3394 331.037 91.1093C331.38 90.8793 331.838 90.8793 332.181 90.9943C332.639 91.1093 332.982 91.3394 333.096 91.6845C334.011 93.18 335.041 94.7905 336.07 96.7461C336.299 97.0913 336.299 97.4364 336.185 97.8965C336.07 98.2416 335.841 98.5867 335.384 98.8168C335.041 99.0469 334.583 99.0469 334.24 98.8168C333.897 98.7018 333.554 98.4717 333.325 98.0116C332.41 96.0559 331.38 94.3304 330.465 92.9499ZM336.528 90.6492C336.299 90.3041 336.299 90.074 336.413 89.7289C336.528 89.3838 336.756 89.1537 337.1 88.9236C337.328 88.8086 337.557 88.8086 337.786 88.8086C338.015 88.8086 338.129 88.8086 338.358 88.8086C338.701 88.9236 339.044 89.1537 339.273 89.4988C340.303 91.1093 341.332 92.7199 342.361 94.5604C342.476 94.7905 342.59 95.0206 342.59 95.2507C342.59 95.3657 342.59 95.5958 342.59 95.7108C342.476 96.0559 342.247 96.401 341.79 96.6311C341.446 96.8612 340.989 96.8612 340.646 96.6311C340.302 96.5161 339.959 96.286 339.731 95.8259C338.472 93.8702 337.443 92.1447 336.528 90.6492Z" fill="#AE8148" stroke="#AE8148" stroke-width="2" stroke-miterlimit="10" stroke-linecap="round" stroke-linejoin="round"/>
<path d="M358.261 103.878C358.033 103.878 357.918 103.993 357.918 104.223V108.595C357.918 108.94 358.033 109.17 358.147 109.285C359.863 111.011 362.036 113.656 364.896 116.993C365.239 117.453 365.468 117.913 365.468 118.488C365.468 119.063 365.353 119.523 365.01 119.984C364.667 120.329 364.324 120.559 363.866 120.444C363.409 120.444 363.066 120.214 362.837 119.868C361.579 118.028 360.092 115.957 358.147 113.541C358.147 113.426 358.033 113.426 358.033 113.426L357.918 113.541V136.894C357.918 137.354 357.804 137.814 357.461 138.159C357.117 138.504 356.66 138.619 356.202 138.619C355.745 138.619 355.287 138.504 354.944 138.159C354.601 137.814 354.487 137.354 354.487 136.894V111.931C352.313 118.143 350.025 123.205 347.395 127.001C347.166 127.346 346.823 127.576 346.365 127.576C345.907 127.576 345.564 127.346 345.336 126.886C344.992 126.426 344.878 125.85 344.878 125.39C344.878 124.815 345.107 124.24 345.45 123.665C347.166 121.249 348.767 118.373 350.254 114.807C351.741 111.241 352.999 107.79 353.915 104.223C353.915 104.108 353.915 103.993 353.915 103.993C353.8 103.878 353.8 103.878 353.686 103.878H347.166C346.708 103.878 346.251 103.763 345.907 103.418C345.564 103.073 345.45 102.613 345.45 102.153C345.45 101.693 345.564 101.232 345.907 100.887C346.251 100.542 346.708 100.427 347.166 100.427H354.143C354.372 100.427 354.487 100.312 354.487 100.082V90.1889C354.487 89.7288 354.601 89.2686 354.944 88.9235C355.287 88.5784 355.745 88.4634 356.202 88.4634C356.66 88.4634 357.117 88.5784 357.461 88.9235C357.804 89.2686 357.918 89.7288 357.918 90.1889V100.082C357.918 100.312 358.033 100.427 358.261 100.427H364.209C364.667 100.427 365.125 100.542 365.353 100.887C365.696 101.232 365.811 101.693 365.811 102.153C365.811 102.613 365.696 103.073 365.353 103.418C365.01 103.763 364.667 103.878 364.209 103.878H358.261ZM368.442 94.9054C368.442 93.9852 368.785 93.2949 369.357 92.6047C369.929 92.0295 370.73 91.6844 371.645 91.6844H389.832C390.747 91.6844 391.434 92.0295 392.12 92.6047C392.692 93.1799 393.035 93.9852 393.035 94.9054V136.549C393.035 137.009 392.921 137.469 392.578 137.814C392.234 138.159 391.777 138.389 391.319 138.389C390.862 138.389 390.404 138.159 390.061 137.814C389.718 137.469 389.603 137.009 389.603 136.549V135.514C389.603 135.283 389.489 135.168 389.26 135.168H372.56C372.331 135.168 372.217 135.283 372.217 135.514V136.779C372.217 137.239 372.102 137.699 371.759 138.044C371.416 138.389 370.958 138.619 370.501 138.619C370.043 138.619 369.586 138.389 369.242 138.044C368.899 137.699 368.671 137.239 368.671 136.779V94.9054H368.442ZM389.375 95.7107C389.375 95.4806 389.26 95.3656 388.917 95.3656H372.331C372.102 95.3656 371.988 95.4806 371.988 95.7107V104.684C371.988 104.914 372.102 105.029 372.331 105.029H388.917C389.26 105.029 389.375 104.914 389.375 104.684V95.7107ZM372.331 108.365C372.102 108.365 371.988 108.48 371.988 108.71V117.913C371.988 118.258 372.102 118.373 372.331 118.373H388.917C389.26 118.373 389.375 118.258 389.375 117.913V108.71C389.375 108.48 389.26 108.365 388.917 108.365H372.331ZM371.988 131.372C371.988 131.717 372.102 131.832 372.331 131.832H388.917C389.26 131.832 389.375 131.717 389.375 131.372V122.169C389.375 121.824 389.26 121.709 388.917 121.709H372.331C372.102 121.709 371.988 121.824 371.988 122.169V131.372Z" fill="#AE8148" stroke="#AE8148" stroke-width="2" stroke-miterlimit="10" stroke-linecap="round" stroke-linejoin="round"/>
<path d="M417.857 97.6665C418.315 97.6665 418.658 97.7815 418.887 98.1266C419.23 98.4718 419.344 98.8169 419.344 99.162C419.344 99.6221 419.23 99.9672 418.887 100.197C418.543 100.427 418.2 100.657 417.857 100.657H400.47C400.013 100.657 399.67 100.542 399.441 100.197C399.098 99.8522 398.983 99.5071 398.983 99.162C398.983 98.7018 399.098 98.3567 399.441 98.1266C399.784 97.8966 400.127 97.6665 400.47 97.6665H417.857ZM414.311 119.869C415.226 119.869 415.913 120.214 416.599 120.789C417.171 121.364 417.514 122.169 417.514 123.09V132.523C417.514 133.443 417.171 134.133 416.599 134.823C416.027 135.399 415.226 135.744 414.311 135.744H404.931C404.703 135.744 404.703 135.859 404.703 136.089V136.894C404.703 137.354 404.588 137.699 404.245 138.044C403.902 138.39 403.559 138.505 403.101 138.505C402.644 138.505 402.3 138.39 401.957 138.044C401.614 137.699 401.5 137.354 401.5 136.894V123.09C401.5 122.169 401.843 121.479 402.415 120.789C402.987 120.214 403.787 119.869 404.703 119.869H414.311ZM415.913 105.029C416.37 105.029 416.713 105.144 416.942 105.489C417.171 105.834 417.4 106.179 417.4 106.524C417.4 106.869 417.285 107.33 416.942 107.56C416.599 107.905 416.256 108.02 415.913 108.02H402.987C402.529 108.02 402.186 107.905 401.957 107.56C401.614 107.33 401.5 106.869 401.5 106.524C401.5 106.179 401.614 105.719 401.957 105.489C402.186 105.144 402.644 105.029 402.987 105.029H415.913ZM402.987 115.497C402.529 115.497 402.186 115.382 401.957 115.037C401.614 114.692 401.5 114.347 401.5 114.002C401.5 113.657 401.614 113.196 401.957 112.966C402.186 112.621 402.644 112.506 402.987 112.506H415.913C416.37 112.506 416.713 112.621 416.942 112.966C417.171 113.312 417.4 113.657 417.4 114.002C417.4 114.347 417.285 114.807 416.942 115.037C416.599 115.382 416.256 115.497 415.913 115.497H402.987ZM415.798 90.4192C416.256 90.4192 416.599 90.5342 416.828 90.8793C417.056 91.2244 417.285 91.5695 417.285 91.9146C417.285 92.2598 417.171 92.7199 416.828 92.95C416.484 93.2951 416.141 93.4101 415.798 93.4101H403.216C402.758 93.4101 402.415 93.2951 402.186 92.95C401.843 92.7199 401.729 92.2598 401.729 91.9146C401.729 91.5695 401.843 91.1094 402.186 90.8793C402.529 90.6492 402.872 90.4192 403.216 90.4192H415.798ZM414.311 123.32C414.311 123.09 414.197 122.975 413.854 122.975H405.046C404.817 122.975 404.703 123.09 404.703 123.32V132.408C404.703 132.638 404.817 132.753 405.046 132.753H413.854C414.082 132.753 414.311 132.638 414.311 132.408V123.32ZM433.185 111.816C433.528 111.471 433.986 111.241 434.443 111.241C434.901 111.241 435.358 111.471 435.702 111.816C436.045 112.161 436.274 112.621 436.274 113.081V119.063C436.274 119.754 436.388 120.559 436.502 121.364C436.617 122.169 436.96 123.32 437.532 124.585C437.989 125.851 438.676 127.116 439.476 128.266C440.277 129.417 441.421 130.682 442.908 131.948C444.395 133.213 446.111 134.248 448.055 135.169C448.513 135.399 448.742 135.629 448.856 136.089C448.856 136.204 448.856 136.434 448.856 136.549C448.856 136.894 448.742 137.124 448.627 137.354C448.284 137.814 447.827 138.16 447.369 138.275C447.14 138.275 446.912 138.275 446.683 138.275C446.34 138.275 446.111 138.275 445.768 138.16C444.052 137.354 442.565 136.319 441.192 135.169C439.82 134.018 438.676 132.753 437.761 131.602C436.845 130.337 436.159 129.187 435.702 128.151C435.13 127.116 434.786 126.081 434.558 125.275C434.558 125.275 434.558 125.275 434.443 125.275C434.329 125.275 434.329 125.275 434.329 125.275C433.986 126.196 433.643 127.231 433.071 128.266C432.499 129.302 431.698 130.452 430.783 131.602C429.753 132.868 428.495 134.018 426.894 135.284C425.292 136.434 423.462 137.469 421.518 138.39C421.289 138.505 420.946 138.505 420.717 138.505C420.488 138.505 420.259 138.505 420.031 138.39C419.573 138.16 419.115 137.929 418.772 137.469C418.543 137.239 418.543 137.009 418.543 136.664C418.543 136.549 418.543 136.434 418.543 136.319C418.658 135.859 418.887 135.629 419.344 135.399C421.518 134.478 423.577 133.443 425.178 132.178C426.894 130.912 428.152 129.647 429.067 128.496C429.982 127.346 430.669 126.081 431.24 124.7C431.812 123.435 432.156 122.284 432.384 121.479C432.499 120.559 432.613 119.869 432.613 119.063V113.081C432.613 112.621 432.842 112.161 433.185 111.816ZM423.233 126.196C422.89 126.541 422.433 126.771 421.975 126.771C421.403 126.771 420.946 126.656 420.602 126.426C420.259 126.196 420.145 125.851 420.145 125.505C420.145 125.045 420.259 124.7 420.602 124.355C422.204 122.745 423.348 120.444 424.148 117.453C424.263 116.993 424.606 116.648 424.949 116.418C425.292 116.187 425.75 116.072 426.207 116.187C426.665 116.302 427.008 116.533 427.237 116.993C427.466 117.338 427.58 117.798 427.466 118.258C426.436 121.594 425.064 124.24 423.233 126.196ZM447.712 108.94C448.055 109.285 448.284 109.745 448.399 110.206C448.399 110.781 448.284 111.126 447.941 111.586C447.598 111.931 447.14 112.161 446.683 112.161C446.225 112.161 445.768 112.046 445.31 111.701C442.794 109.515 439.019 106.869 434.1 103.763C433.871 103.648 433.643 103.648 433.528 103.878C431.584 107.79 428.152 110.781 423.119 112.736C422.661 112.966 422.204 112.966 421.746 112.736C421.289 112.506 420.831 112.276 420.602 111.816C420.374 111.471 420.259 111.126 420.374 110.781C420.488 110.436 420.717 110.09 421.06 109.975C422.89 109.285 424.492 108.48 425.864 107.56C427.123 106.639 428.266 105.604 429.067 104.569C429.868 103.533 430.554 102.153 431.126 100.657C431.698 99.162 432.041 97.5515 432.27 96.056C432.499 94.4455 432.727 92.6049 432.842 90.4192C432.842 89.959 433.071 89.4989 433.414 89.1538C433.757 88.8086 434.215 88.6936 434.672 88.6936C435.13 88.6936 435.587 88.8086 435.816 89.1538C436.159 89.4989 436.274 89.959 436.274 90.4192C436.045 94.4455 435.587 97.7815 434.901 100.197C434.786 100.427 434.901 100.657 435.13 100.772C440.391 103.648 444.509 106.409 447.712 108.94ZM424.492 93.8703C424.606 93.5252 424.835 93.1801 425.178 92.95C425.521 92.7199 425.864 92.6049 426.322 92.7199C426.779 92.8349 427.123 93.065 427.351 93.4101C427.58 93.7552 427.694 94.2154 427.58 94.5605C426.894 97.5514 425.864 99.9672 424.263 101.808C423.92 102.153 423.577 102.383 423.119 102.383C422.661 102.498 422.204 102.383 421.746 102.153C421.403 101.923 421.289 101.693 421.174 101.348C421.174 101.003 421.174 100.657 421.518 100.312C423.005 98.5868 423.92 96.5161 424.492 93.8703ZM443.709 93.6402C443.937 93.18 444.281 92.8349 444.738 92.7199C445.196 92.4898 445.653 92.4898 446.225 92.7199C446.683 92.95 446.912 93.18 447.14 93.6402C447.255 94.1003 447.255 94.5605 447.026 94.9056C445.653 97.3214 444.395 99.392 443.366 101.003C443.137 101.348 442.794 101.578 442.336 101.693C441.879 101.808 441.535 101.808 441.078 101.578C440.735 101.463 440.506 101.233 440.391 100.772C440.277 100.427 440.391 100.082 440.506 99.7372C441.65 97.7815 442.794 95.7109 443.709 93.6402ZM443.48 125.16C443.251 125.505 442.908 125.736 442.45 125.851C441.993 125.966 441.535 125.966 441.192 125.736C440.849 125.62 440.62 125.275 440.506 124.93C440.391 124.585 440.506 124.24 440.62 123.895C441.993 121.709 443.251 119.408 444.281 117.223C444.509 116.763 444.853 116.418 445.31 116.187C445.768 115.957 446.34 115.957 446.797 116.187C447.255 116.418 447.598 116.648 447.712 117.108C447.941 117.568 447.827 118.028 447.598 118.488C445.996 121.364 444.624 123.55 443.48 125.16Z" fill="#AE8148" stroke="#AE8148" stroke-width="2" stroke-miterlimit="10" stroke-linecap="round" stroke-linejoin="round"/>
</svg>
