<svg width="120" height="120" viewBox="0 0 120 120" fill="none" xmlns="http://www.w3.org/2000/svg">
<path d="M44.6044 38.7338L44.8012 38.3382L41.4469 36.66L41.25 37.0575C40.5356 38.4863 39.0994 39.375 37.5 39.375C35.9006 39.375 34.4644 38.4863 33.75 37.0575L33.5531 36.6619L30.1987 38.34L30.3956 38.7357C31.7494 41.4432 34.4719 43.125 37.5 43.125C40.5281 43.125 43.2506 41.4432 44.6044 38.7338Z" fill="#AE8148"/>
<path d="M90 61.4325C89.2856 62.8613 87.8494 63.75 86.25 63.75C84.6506 63.75 83.2144 62.8613 82.5 61.4325L82.3031 61.0369L78.9487 62.715L79.1456 63.1107C80.4994 65.8182 83.2219 67.5 86.25 67.5C89.2781 67.5 92.0006 65.8182 93.3544 63.1088L93.5512 62.7132L90.1969 61.035L90 61.4325Z" fill="#AE8148"/>
<path d="M30 85.8075C29.2856 87.2363 27.8494 88.125 26.25 88.125C24.6506 88.125 23.2144 87.2363 22.5 85.8075L22.3031 85.4119L18.9487 87.09L19.1456 87.4857C20.4994 90.1932 23.2219 91.875 26.25 91.875C29.2781 91.875 32.0006 90.1932 33.3544 87.4838L33.5512 87.0882L30.1969 85.41L30 85.8075Z" fill="#AE8148"/>
<path d="M110.625 83.5163V50.625C110.625 37.185 99.69 26.25 86.25 26.25C72.81 26.25 61.875 37.185 61.875 50.625V59.1356C60.6712 58.4419 59.3737 57.9113 58.0106 57.5719L46.605 54.72L45.3919 48.6562C49.6613 46.3856 52.8375 42.3356 53.94 37.5019H54.375C58.5112 37.5019 61.875 34.1381 61.875 30.0019C61.875 28.3781 61.3444 26.8837 60.465 25.6556C62.6081 20.865 63.75 15.6094 63.75 10.365V5.625C63.75 3.55687 62.0681 1.875 60 1.875H28.3556C19.9575 1.875 13.125 8.7075 13.125 17.1056C13.125 18.3525 13.2788 19.5956 13.5806 20.7994L14.7337 25.4137C13.7419 26.685 13.125 28.2638 13.125 30C13.125 34.1362 16.4887 37.5 20.625 37.5H21.06C22.1625 42.3356 25.3369 46.3856 29.6081 48.6544L28.4419 54.4856C27.7181 54.4219 26.9888 54.375 26.25 54.375C12.81 54.375 1.875 65.31 1.875 78.75C1.875 86.3981 3.68438 94.0575 7.10437 100.899L7.11375 100.92C3.78562 105.283 1.875 110.666 1.875 116.25V118.125H118.125V96.4987C118.125 91.0275 115.179 86.1413 110.625 83.5163ZM114.375 96.4987V110.162C110.951 105.527 106.539 101.629 101.503 98.8294C95.6587 95.58 89.0494 93.8419 82.3631 93.765C81.9037 90.3431 80.1994 87.2025 77.5069 84.9581L75.5775 83.3512L78.1763 82.7025L78.525 83.0512C80.5575 85.0837 83.3737 86.25 86.25 86.25C89.1263 86.25 91.9425 85.0837 93.9769 83.0494L94.3256 82.7006L105.853 85.5825C110.871 86.8369 114.375 91.3256 114.375 96.4987ZM82.5 103.125H75.7763L81.4013 97.5H81.9019C88.1119 97.5 94.26 99.0938 99.6825 102.107C104.758 104.929 109.144 108.971 112.367 113.803L112.747 114.375H88.9575C89.6025 113.267 90 111.997 90 110.625C90 106.489 86.6363 103.125 82.5 103.125ZM54.375 92.5575C54.375 87.2644 58.4981 82.9594 63.6956 82.575L61.38 85.6631C60.4894 86.8463 60 88.3162 60 89.7975C60 91.6125 60.7369 93.3881 62.0175 94.6706L64.5263 97.1794C65.2238 97.875 65.625 98.8425 65.625 99.8288V103.125H60.7763L57.3206 99.6694C55.4475 97.7962 54.375 95.205 54.375 92.5575ZM67.1775 94.5263L64.6688 92.0175C64.0856 91.4344 63.75 90.6244 63.75 89.7975C63.75 89.1131 63.9675 88.4606 64.3781 87.9113L68.0681 82.9931C69.3094 83.385 70.4813 83.9887 71.4938 84.8325L75.1031 87.84C77.2312 89.6119 78.5119 92.1506 78.7106 94.89L70.4737 103.125H69.375V99.8288C69.375 97.8544 68.5744 95.9212 67.1775 94.5263ZM86.25 71.25C79.0144 71.25 73.125 65.3606 73.125 58.125V50.4075C73.125 47.6494 74.4937 45.09 76.7887 43.5619C77.3981 43.155 78.06 42.8325 78.7519 42.6L81.2831 41.7581C83.6981 45.1219 87.48 47.3831 91.8281 47.8181L96 48.2344C97.9238 48.4256 99.375 50.0306 99.375 51.9656V58.125C99.375 65.3606 93.4856 71.25 86.25 71.25ZM86.25 75C87.7538 75 89.2069 74.7825 90.5944 74.4113L91.7138 80.0081L91.3256 80.3962C89.9888 81.735 88.14 82.5 86.25 82.5C84.36 82.5 82.5112 81.735 81.1744 80.3981L80.7862 80.01L81.9056 74.4131C83.2931 74.7825 84.7462 75 86.25 75ZM86.25 30C97.6219 30 106.875 39.2531 106.875 50.625V81.9806C106.836 81.9713 106.8 81.9563 106.761 81.9469L95.355 79.095L94.1419 73.0312C99.48 70.1925 103.125 64.5788 103.125 58.125V51.9656C103.125 48.0975 100.221 44.8875 96.3694 44.5031L92.1975 44.0869C87.3319 43.5994 83.4187 40.0519 82.4625 35.2575L78.7856 35.9944C78.9525 36.8269 79.185 37.6331 79.4794 38.4056L77.565 39.045C76.5563 39.3806 75.5944 39.8512 74.7094 40.4419C71.3681 42.6675 69.375 46.3913 69.375 50.4075V58.125C69.375 64.5788 73.02 70.1925 78.3581 73.0294L77.145 79.0931L71.6719 80.4619C69.8194 79.4494 67.7494 78.8887 65.625 78.7988V50.625C65.625 39.2531 74.8781 30 86.25 30ZM61.875 63.7725V78.9975C55.4813 80.2012 50.625 85.8187 50.625 92.5575C50.625 94.2188 50.9306 95.8313 51.4912 97.3444C49.5994 98.9662 48.0506 100.941 46.9069 103.138C46.4419 102.371 45.9319 101.632 45.3862 100.916L45.3956 100.897C48.8156 94.0575 50.625 86.3981 50.625 78.75C50.625 74.3587 49.4419 70.2469 47.4 66.6844L53.145 60.2194L57.1012 61.2094C58.8881 61.6556 60.5137 62.55 61.875 63.7725ZM49.0425 59.1937L45.225 63.4875C44.3981 62.4619 43.4812 61.5169 42.5025 60.6375C43.4981 60.1237 44.4263 59.4731 45.225 58.6744L45.5737 58.3256L49.0425 59.1937ZM39.375 26.25H35.625C35.625 24.1819 33.9431 22.5 31.875 22.5H24.375V21.7537C24.375 19.8994 25.7588 18.3038 27.5963 18.0431L32.6231 17.3231C34.1512 18.2381 35.9306 18.75 37.8038 18.75H46.875C48.9431 18.75 50.625 20.4319 50.625 22.5H43.125C41.0569 22.5 39.375 24.1819 39.375 26.25ZM24.375 26.25H31.875V30H24.375V26.25ZM43.125 26.25H50.625V30H43.125V26.25ZM54.375 33.75V26.25C56.4431 26.25 58.125 27.9319 58.125 30C58.125 32.0681 56.4431 33.75 54.375 33.75ZM28.3556 5.625H60V10.365C60 14.7413 59.1225 19.1287 57.4575 23.1788C56.5144 22.7513 55.4756 22.5 54.375 22.5C54.375 18.3638 51.0112 15 46.875 15H37.8038C35.0662 15 32.6456 13.2544 31.7775 10.6575L28.2225 11.8444C28.4813 12.6187 28.8263 13.3481 29.2463 14.0175L27.0656 14.3288C23.3944 14.8519 20.625 18.045 20.625 21.7537V22.5C19.6969 22.5 18.8156 22.6912 17.9944 23.0006L17.2163 19.8881C16.9913 18.9825 16.875 18.045 16.875 17.1056C16.875 10.7756 22.0256 5.625 28.3556 5.625ZM16.875 30C16.875 27.9319 18.5569 26.25 20.625 26.25V33.75C18.5569 33.75 16.875 32.0681 16.875 30ZM24.375 33.75H31.875C33.9431 33.75 35.625 32.0681 35.625 30H39.375C39.375 32.0681 41.0569 33.75 43.125 33.75H50.625C50.625 40.9856 44.7356 46.875 37.5 46.875C30.2644 46.875 24.375 40.9856 24.375 33.75ZM33.1556 50.0363C34.5431 50.4075 35.9963 50.625 37.5 50.625C39.0037 50.625 40.4569 50.4075 41.8444 50.0363L42.9637 55.6331L42.5756 56.0213C41.5781 57.0187 40.2881 57.6806 38.9081 57.9581C36.8325 56.6887 34.5581 55.7269 32.1375 55.1231L33.1556 50.0363ZM5.625 78.75C5.625 67.3781 14.8781 58.125 26.25 58.125C37.6219 58.125 46.875 67.3781 46.875 78.75C46.875 85.3163 45.4144 91.8844 42.675 97.8562C41.9869 97.2075 41.265 96.5906 40.5 96.0187C39.7369 95.445 38.9513 94.9238 38.1506 94.4494C41.2219 91.3913 43.125 87.165 43.125 82.5V80.0906C43.125 76.2225 40.2206 73.0125 36.3694 72.6281L32.1975 72.2119C27.3319 71.7244 23.4187 68.1769 22.4625 63.3825L18.7856 64.1194C18.9525 64.9519 19.185 65.7581 19.4794 66.5306L17.565 67.17C16.5562 67.5056 15.5944 67.9762 14.7094 68.5669C11.3681 70.7925 9.375 74.5163 9.375 78.5325V82.5C9.375 87.165 11.2781 91.3913 14.3475 94.4494C13.5469 94.9238 12.7631 95.445 12.0019 96.0169C11.2369 96.5888 10.5131 97.2056 9.825 97.8562C7.08562 91.8844 5.625 85.3181 5.625 78.75ZM26.25 95.625C19.0144 95.625 13.125 89.7356 13.125 82.5V78.5325C13.125 75.7744 14.4938 73.215 16.7888 71.6869C17.3981 71.28 18.06 70.9575 18.7519 70.725L21.2831 69.8831C23.6981 73.2469 27.48 75.5081 31.8281 75.9431L36 76.3594C37.9238 76.5506 39.375 78.1556 39.375 80.0906V82.5C39.375 89.7356 33.4856 95.625 26.25 95.625ZM17.6138 96.9712C20.145 98.4862 23.0925 99.375 26.25 99.375C29.4075 99.375 32.355 98.4862 34.8863 96.9712C35.7319 97.3913 36.5606 97.8787 37.3725 98.43C36.96 100.065 35.52 101.25 33.75 101.25C33.09 101.25 32.4712 101.091 31.9106 100.776L30.3806 99.9206L29.4244 101.391C28.7156 102.476 27.5306 103.125 26.25 103.125C24.9694 103.125 23.7844 102.476 23.0775 101.391L22.1213 99.9206L20.5913 100.776C20.0288 101.091 19.41 101.25 18.75 101.25C16.98 101.25 15.54 100.067 15.1294 98.4319C15.9394 97.8788 16.7681 97.3913 17.6138 96.9712ZM12.1031 100.89C13.3519 103.318 15.8512 105 18.75 105C19.4944 105 20.235 104.889 20.94 104.677C22.3388 106.073 24.2344 106.875 26.25 106.875C28.2656 106.875 30.1613 106.073 31.56 104.677C32.265 104.889 33.0056 105 33.75 105C36.6506 105 39.1537 103.314 40.3988 100.884C44.0419 104.462 46.3106 109.268 46.7625 114.375H5.7075C6.15937 109.268 8.46 104.471 12.1031 100.89ZM50.5144 114.375C50.34 112.071 49.8862 109.807 49.1081 107.662C49.8844 105.021 51.3469 102.634 53.3325 100.744C53.7412 101.295 54.1781 101.827 54.6713 102.321L59.2238 106.875H82.5C84.5681 106.875 86.25 108.557 86.25 110.625C86.25 112.693 84.5681 114.375 82.5 114.375H50.5144Z" fill="#AE8148"/>
</svg>
