<svg width="120" height="120" viewBox="0 0 120 120" fill="none" xmlns="http://www.w3.org/2000/svg">
<path d="M117.996 81.2649H116.063V19.4016C116.06 16.3262 114.837 13.3776 112.662 11.2029C110.488 9.02831 107.539 7.80525 104.464 7.80218H69.4723C69.0286 5.61707 67.8431 3.65255 66.1167 2.24148C64.3903 0.83041 62.2292 0.0595703 59.9995 0.0595703C57.7698 0.0595703 55.6086 0.83041 53.8822 2.24148C52.1558 3.65255 50.9704 5.61707 50.5266 7.80218H15.5352C12.4598 7.80525 9.51121 9.02831 7.33657 11.2029C5.16193 13.3776 3.93887 16.3262 3.9358 19.4016V81.2649H2.00257C1.48984 81.2649 0.998117 81.4686 0.635566 81.8311C0.273015 82.1937 0.0693359 82.6854 0.0693359 83.1981V90.931C0.0724056 93.4937 1.09179 95.9506 2.90388 97.7626C4.71597 99.5747 7.17281 100.594 9.73549 100.597H61.0144C60.3467 102.458 60.0034 104.42 59.9995 106.397V117.996C59.9995 118.509 60.2032 119.001 60.5657 119.363C60.9283 119.726 61.42 119.929 61.9327 119.929H108.33C108.843 119.929 109.335 119.726 109.697 119.363C110.06 119.001 110.263 118.509 110.263 117.996V106.397C110.26 104.42 109.916 102.458 109.249 100.597H110.263C112.826 100.594 115.283 99.5747 117.095 97.7626C118.907 95.9506 119.927 93.4937 119.93 90.931V83.1981C119.93 82.6854 119.726 82.1937 119.363 81.8311C119.001 81.4686 118.509 81.2649 117.996 81.2649ZM112.197 19.4016V81.2649H100.089C100.422 80.0029 100.593 78.7036 100.597 77.3984H106.397C106.91 77.3984 107.401 77.1948 107.764 76.8322C108.127 76.4697 108.33 75.9779 108.33 75.4652V17.4683C108.33 16.9556 108.127 16.4639 107.764 16.1013C107.401 15.7388 106.91 15.5351 106.397 15.5351H67.6821C68.5616 14.397 69.1735 13.0755 69.4723 11.6686H104.464C106.515 11.6686 108.482 12.4834 109.932 13.9336C111.382 15.3838 112.197 17.3507 112.197 19.4016ZM85.1315 88.9978C82.0561 88.9947 79.1075 87.7717 76.9329 85.597C74.7582 83.4224 73.5352 80.4738 73.5321 77.3984V73.532C73.5321 70.4556 74.7542 67.5053 76.9295 65.33C79.1048 63.1547 82.0551 61.9326 85.1315 61.9326C88.2078 61.9326 91.1582 63.1547 93.3335 65.33C95.5088 67.5053 96.7309 70.4556 96.7309 73.532V77.3984C96.7278 80.4738 95.5047 83.4224 93.3301 85.597C91.1554 87.7717 88.2069 88.9947 85.1315 88.9978ZM69.6656 73.532H65.7992V48.4H104.464V73.532H100.597C100.594 70.8179 99.8762 68.1525 98.5164 65.8035C97.1567 63.4546 95.2027 61.5048 92.8509 60.1502C92.8509 60.0999 92.8644 60.0496 92.8644 59.9994C92.8644 57.9485 92.0497 55.9816 90.5995 54.5314C89.1493 53.0812 87.1824 52.2665 85.1315 52.2665C83.0806 52.2665 81.1137 53.0812 79.6635 54.5314C78.2133 55.9816 77.3986 57.9485 77.3986 59.9994C77.3986 60.0496 77.4101 60.0999 77.4121 60.1502C75.0602 61.5048 73.1063 63.4546 71.7465 65.8035C70.3868 68.1525 69.6691 70.8179 69.6656 73.532ZM61.9327 19.4016V73.532H15.5352V19.4016H61.9327ZM104.464 44.5335H98.4901C98.1524 42.557 97.3091 40.7014 96.0422 39.1472C94.7752 37.593 93.1277 36.393 91.2598 35.6639C92.2943 34.3291 92.8585 32.6897 92.8644 31.0009C92.8644 28.95 92.0497 26.9831 90.5995 25.5329C89.1493 24.0827 87.1824 23.268 85.1315 23.268C83.0806 23.268 81.1137 24.0827 79.6635 25.5329C78.2133 26.9831 77.3986 28.95 77.3986 31.0009C77.4045 32.6897 77.9686 34.3291 79.0031 35.6639C77.1352 36.393 75.4877 37.593 74.2208 39.1472C72.9538 40.7014 72.1105 42.557 71.7729 44.5335H65.7992V19.4016H104.464V44.5335ZM85.1315 34.8674C84.3668 34.8674 83.6192 34.6406 82.9834 34.2158C82.3475 33.7909 81.852 33.1871 81.5593 32.4806C81.2667 31.7741 81.1901 30.9966 81.3393 30.2466C81.4885 29.4966 81.8567 28.8077 82.3975 28.2669C82.9382 27.7262 83.6271 27.358 84.3772 27.2088C85.1272 27.0596 85.9046 27.1361 86.6111 27.4288C87.3176 27.7214 87.9215 28.217 88.3463 28.8528C88.7712 29.4887 88.9979 30.2362 88.9979 31.0009C88.9979 32.0264 88.5906 33.0098 87.8655 33.7349C87.1404 34.46 86.1569 34.8674 85.1315 34.8674ZM83.1982 38.7338H87.0647C88.7741 38.7403 90.4332 39.3129 91.7826 40.3622C93.1321 41.4115 94.0958 42.8784 94.5231 44.5335H75.7398C76.1672 42.8784 77.1309 41.4115 78.4803 40.3622C79.8298 39.3129 81.4889 38.7403 83.1982 38.7338ZM88.6944 58.4972C86.3539 57.9224 83.909 57.9224 81.5685 58.4972C81.864 57.7963 82.3596 57.1981 82.9933 56.7774C83.6271 56.3568 84.3708 56.1324 85.1315 56.1324C85.8921 56.1324 86.6359 56.3568 87.2696 56.7774C87.9034 57.1981 88.399 57.7963 88.6944 58.4972ZM59.9995 3.93572C61.1465 3.93572 62.2679 4.27587 63.2216 4.91314C64.1754 5.55042 64.9187 6.45621 65.3577 7.51596C65.7967 8.57572 65.9115 9.74184 65.6877 10.8669C65.464 11.9919 64.9116 13.0253 64.1005 13.8364C63.2894 14.6475 62.256 15.1999 61.1309 15.4237C60.0059 15.6474 58.8398 15.5326 57.78 15.0936C56.7203 14.6547 55.8145 13.9113 55.1772 12.9575C54.5399 12.0038 54.1998 10.8825 54.1998 9.73541C54.1998 8.19723 54.8108 6.72206 55.8985 5.63441C56.9861 4.54676 58.4613 3.93572 59.9995 3.93572ZM7.80226 19.4016C7.80226 17.3507 8.61697 15.3838 10.0672 13.9336C11.5174 12.4834 13.4843 11.6686 15.5352 11.6686H50.5266C50.8249 13.0754 51.4361 14.3969 52.3149 15.5351H13.6019C13.0892 15.5351 12.5975 15.7388 12.2349 16.1013C11.8724 16.4639 11.6687 16.9556 11.6687 17.4683V75.4652C11.6687 75.9779 11.8724 76.4697 12.2349 76.8322C12.5975 77.1948 13.0892 77.3984 13.6019 77.3984H69.6656C69.6703 78.7036 69.8412 80.0029 70.1741 81.2649H7.80226V19.4016ZM9.73549 96.7307C8.19731 96.7307 6.72214 96.1197 5.63449 95.032C4.54683 93.9444 3.9358 92.4692 3.9358 90.931V85.1313H71.7574C72.6416 86.6562 73.7784 88.0199 75.1193 89.1641C72.6687 89.4887 70.3153 90.3313 68.2157 91.636C66.116 92.9406 64.3182 94.6774 62.9419 96.7307H9.73549ZM106.397 116.063H100.597V108.33H96.7309V116.063H73.5321V108.33H69.6656V116.063H63.8659V106.397C63.87 102.809 65.2971 99.3694 67.8341 96.8324C70.371 94.2954 73.8107 92.8684 77.3986 92.8643H92.8644C96.4522 92.8684 99.8919 94.2954 102.429 96.8324C104.966 99.3694 106.393 102.809 106.397 106.397V116.063ZM116.063 90.931C116.063 92.4692 115.452 93.9444 114.364 95.032C113.277 96.1197 111.802 96.7307 110.263 96.7307H107.321C105.945 94.6771 104.146 92.9403 102.046 91.6356C99.9464 90.3309 97.5927 89.4884 95.1417 89.1641C96.4833 88.02 97.6208 86.6564 98.5056 85.1313H116.063V90.931Z" fill="#AE8148"/>
<path d="M61.9332 7.80273H58.0668V11.6692H61.9332V7.80273Z" fill="#AE8148"/>
<path d="M21.3354 69.666H56.1335C56.6462 69.666 57.138 69.4624 57.5005 69.0998C57.8631 68.7373 58.0667 68.2455 58.0667 67.7328V59.9999C58.0619 56.8622 56.9685 53.8234 54.973 51.4021C52.9775 48.9807 50.2036 47.3267 47.1247 46.7225C49.1842 44.5731 50.334 41.7112 50.3338 38.7344V34.8679C50.3338 31.7916 49.1118 28.8412 46.9365 26.6659C44.7611 24.4906 41.8108 23.2686 38.7345 23.2686C35.6581 23.2686 32.7078 24.4906 30.5325 26.6659C28.3572 28.8412 27.1351 31.7916 27.1351 34.8679V38.7344C27.135 41.7112 28.2847 44.5731 30.3442 46.7225C27.2653 47.3267 24.4914 48.9807 22.4959 51.4021C20.5004 53.8234 19.407 56.8622 19.4022 59.9999V67.7328C19.4022 68.2455 19.6058 68.7373 19.9684 69.0998C20.3309 69.4624 20.8227 69.666 21.3354 69.666ZM42.6009 50.3338C42.6009 51.3592 42.1936 52.3427 41.4685 53.0678C40.7434 53.7929 39.7599 54.2002 38.7345 54.2002C37.709 54.2002 36.7256 53.7929 36.0005 53.0678C35.2754 52.3427 34.868 51.3592 34.868 50.3338H42.6009ZM31.0015 34.8679C31.0015 32.817 31.8163 30.8501 33.2665 29.3999C34.7167 27.9497 36.6836 27.135 38.7345 27.135C40.7854 27.135 42.7522 27.9497 44.2025 29.3999C45.6527 30.8501 46.4674 32.817 46.4674 34.8679V38.7344C46.4674 40.7853 45.6527 42.7522 44.2025 44.2024C42.7522 45.6526 40.7854 46.4673 38.7345 46.4673C36.6836 46.4673 34.7167 45.6526 33.2665 44.2024C31.8163 42.7522 31.0015 40.7853 31.0015 38.7344V34.8679ZM23.2686 59.9999C23.272 57.7696 24.0453 55.6089 25.4577 53.8829C26.8702 52.1569 28.8353 50.9715 31.0209 50.5271C31.066 52.5429 31.8985 54.4611 33.3402 55.8708C34.7818 57.2805 36.7181 58.0699 38.7345 58.0699C40.7508 58.0699 42.6871 57.2805 44.1287 55.8708C45.5704 54.4611 46.4029 52.5429 46.448 50.5271C48.6336 50.9715 50.5987 52.1569 52.0112 53.8829C53.4237 55.6089 54.1969 57.7696 54.2003 59.9999V65.7996H50.3338V58.0667H46.4674V65.7996H31.0015V58.0667H27.1351V65.7996H23.2686V59.9999Z" fill="#AE8148"/>
</svg>
