<svg width="205" height="100" viewBox="0 0 205 100" fill="none" xmlns="http://www.w3.org/2000/svg">
<g clip-path="url(#clip0)">
<path d="M171.396 62.9883C180.584 62.9883 188.058 55.5135 188.058 46.3257V22.9126C188.058 13.7248 180.584 6.25 171.396 6.25C162.208 6.25 154.733 13.7248 154.733 22.9126V46.3257C154.733 55.5135 162.208 62.9883 171.396 62.9883ZM159.86 22.9126C159.86 16.5518 165.035 11.377 171.396 11.377C177.757 11.377 182.931 16.5518 182.931 22.9126V46.3257C182.931 52.6865 177.757 57.8613 171.396 57.8613C165.035 57.8613 159.86 52.6865 159.86 46.3257V22.9126Z" fill="#AE8148"/>
<path d="M190.622 78.3691H180.368V71.7026C190.812 67.9992 198.312 58.0227 198.312 46.3257V34.6191H193.185V46.3257C193.185 58.3405 183.411 68.1152 171.396 68.1152C159.381 68.1152 149.606 58.3405 149.606 46.3257V34.6191H144.479V46.3257C144.479 58.0227 151.98 67.9992 162.424 71.7026V78.3691H152.17C145.102 78.3691 139.352 84.119 139.352 91.1865V93.75H203.439V91.1865C203.439 84.119 197.689 78.3691 190.622 78.3691ZM167.551 72.9664C168.807 73.1468 170.09 73.2422 171.396 73.2422C172.701 73.2422 173.985 73.1468 175.241 72.9664V78.3691H167.551V72.9664ZM144.919 88.623C145.976 85.639 148.827 83.4961 152.17 83.4961H190.622C193.964 83.4961 196.815 85.639 197.873 88.623H144.919Z" fill="#AE8148"/>
</g>
<path d="M91.2064 21.6719C90.5945 20.7834 89.3783 20.5594 88.49 21.1713C87.6016 21.783 87.3775 22.9992 87.9893 23.8875C93.2912 31.5859 96.0938 40.6154 96.0938 50C96.0938 75.4162 75.4162 96.0938 50 96.0938C24.5838 96.0938 3.90625 75.4162 3.90625 50C3.90625 24.5838 24.5838 3.90625 50 3.90625C59.3801 3.90625 68.4059 6.70625 76.1018 12.0033C76.9904 12.6152 78.2064 12.3904 78.818 11.502C79.4295 10.6133 79.2051 9.39727 78.3166 8.78574C69.9662 3.03809 60.1744 0 50 0C36.6445 0 24.0885 5.20098 14.6447 14.6445C5.20078 24.0885 0 36.6445 0 50C0 63.3555 5.20078 75.9115 14.6447 85.3555C24.0885 94.799 36.6445 100 50 100C63.3555 100 75.9115 94.799 85.3553 85.3555C94.7992 75.9115 100 63.3555 100 50C100 39.8205 96.9592 30.0248 91.2064 21.6719Z" fill="#AE8148"/>
<path d="M24.0844 17.7086C23.652 18.0561 23.3877 18.5711 23.3575 19.1252C23.3274 19.6791 23.5344 20.2197 23.9266 20.6121L64.5438 61.2293C64.5469 61.2324 64.5498 61.2355 64.553 61.2385L79.3877 76.0732C79.7549 76.4404 80.2522 76.6453 80.7688 76.6453C80.8041 76.6453 80.8393 76.6443 80.8748 76.6424C81.4287 76.6123 81.944 76.348 82.2914 75.9154C88.1692 68.6008 91.4063 59.3971 91.4063 50C91.4063 27.1686 72.8315 8.59375 50 8.59375C40.603 8.59375 31.3993 11.8307 24.0844 17.7086ZM76.1719 37.708L76.1717 62.6975L67.0491 58.21L62.8907 54.0518V44.2408L76.1719 37.708ZM58.9844 43.025V50.1455L44.9571 36.1182H54.5498C56.9952 36.1182 58.9846 38.1076 58.9846 40.5527V43.025H58.9844ZM87.5 50C87.5 57.9008 85.11 65.3674 80.5664 71.7277L75.3639 66.5252C75.6362 66.5846 75.9119 66.6154 76.1877 66.6154C76.901 66.6154 77.6116 66.417 78.2426 66.0242C79.392 65.3086 80.0782 64.0732 80.0782 62.7193V37.6861C80.0782 36.3322 79.3918 35.0967 78.2426 34.3813C77.0932 33.6658 75.6817 33.5957 74.467 34.193L62.8627 39.9012C62.5289 35.6057 58.9293 32.2117 54.5496 32.2117H41.0508L28.2723 19.4332C34.6327 14.8898 42.0993 12.5 50 12.5C70.6776 12.5 87.5 29.3225 87.5 50Z" fill="#AE8148"/>
<path d="M19.125 23.3574C18.5711 23.3874 18.0561 23.6517 17.7084 24.0843C11.8309 31.399 8.59375 40.6027 8.59375 49.9999C8.59375 72.8314 27.1686 91.4062 50 91.4062C59.3971 91.4062 68.6008 88.1693 75.9156 82.2914C76.3481 81.9439 76.6123 81.4289 76.6426 80.8748C76.6727 80.3209 76.4656 79.7802 76.0734 79.3878L20.6121 23.9265C20.2197 23.5343 19.6809 23.3273 19.125 23.3574ZM50 87.4999C29.3225 87.4999 12.5 70.6775 12.5 49.9999C12.5 42.0992 14.8898 34.6324 19.4336 28.2722L24.3397 33.1783C21.6971 34.5734 19.9219 37.3402 19.9219 40.5527V59.4472C19.9219 64.0464 23.6637 67.788 28.2629 67.788H54.5498C55.8125 67.788 57.0291 67.5113 58.1404 66.9791L71.7277 80.5666C65.3674 85.1101 57.9008 87.4999 50 87.4999ZM55.0162 63.855C54.8621 63.871 54.707 63.882 54.5498 63.882H28.2629C25.8176 63.882 23.8281 61.8925 23.8281 59.4474V40.5529C23.8281 38.3964 25.3316 36.6173 27.3689 36.208L55.0162 63.855Z" fill="#AE8148"/>
<path d="M32.7481 58.7891C33.2617 58.7891 33.7637 58.5801 34.1289 58.2166C34.4922 57.8535 34.7012 57.3496 34.7012 56.8359C34.7012 56.3223 34.4922 55.8184 34.1289 55.4551C33.7657 55.0918 33.2617 54.8828 32.7481 54.8828C32.2325 54.8828 31.7305 55.0916 31.3672 55.4551C31.002 55.8184 30.795 56.3223 30.795 56.8359C30.795 57.3496 31.002 57.8535 31.3672 58.2166C31.7305 58.5801 32.2344 58.7891 32.7481 58.7891Z" fill="#AE8148"/>
<path d="M83.9746 17.9785C84.4883 17.9785 84.9922 17.7695 85.3555 17.4063C85.7187 17.043 85.9277 16.5408 85.9277 16.0254C85.9277 15.5117 85.7187 15.0078 85.3555 14.6445C84.9922 14.2814 84.4883 14.0723 83.9746 14.0723C83.4609 14.0723 82.957 14.2813 82.5937 14.6445C82.2305 15.0078 82.0215 15.5117 82.0215 16.0254C82.0215 16.541 82.2305 17.043 82.5937 17.4063C82.957 17.7693 83.4609 17.9785 83.9746 17.9785Z" fill="#AE8148"/>
<defs>
<clipPath id="clip0">
<rect width="65" height="87.5" fill="white" transform="translate(139.318 6.25)"/>
</clipPath>
</defs>
</svg>
