<svg xmlns="http://www.w3.org/2000/svg" viewBox="0 0 246.3 42.57"><defs><style>.cls-1{fill:#b48856;}.cls-2{fill:#fff;}.cls-3{fill:#575757;}</style></defs><title>logo</title><g id="Layer_2" data-name="Layer 2"><g id="Layer_1-2" data-name="Layer 1"><path class="cls-1" d="M26.22,19.32c1.13-.18,2.17-.4,3.11-.64v-5a26.25,26.25,0,0,1-3.11.89Z"/><path class="cls-1" d="M24.74,8.81a12,12,0,0,1-3.45.54,12.06,12.06,0,0,1-3.46-.54v4.57a21.9,21.9,0,0,0,3.46.29,21.77,21.77,0,0,0,3.45-.29Z"/><path class="cls-1" d="M7.4,16.63l1,.47a25.38,25.38,0,0,0,3.33,1.18v-6.8l1,.47a20.67,20.67,0,0,0,3.54,1.13V6.61l1,.48a10.86,10.86,0,0,0,3.9.79,10.84,10.84,0,0,0,3.89-.79l1-.47v6.46A20.67,20.67,0,0,0,29.76,12l1-.47v6.8a30.18,30.18,0,0,0,3.34-1.17l1-.48V34.22a19,19,0,1,0-27.78,0Z"/><path class="cls-1" d="M17.83,14.87v4.64a29.55,29.55,0,0,0,3.46.2,29.51,29.51,0,0,0,3.45-.2V14.87a21.91,21.91,0,0,1-3.45.28A21.94,21.94,0,0,1,17.83,14.87Z"/><path class="cls-1" d="M33.7,18.87c-.68.26-1.67.61-2.9.95v15H29.33V20.21c-.95.22-2,.43-3.11.6V33.37H24.74V21a31.91,31.91,0,0,1-3.45.19A32,32,0,0,1,17.83,21V33.37H16.35V20.81c-1.12-.17-2.16-.38-3.11-.6V34.84H11.77v-15c-1.23-.34-2.22-.69-2.9-.95V35.63h0a19,19,0,0,0,24.85,0Z"/><path class="cls-1" d="M16.35,19.31V14.6a26.83,26.83,0,0,1-3.11-.89v5C14.18,18.91,15.23,19.14,16.35,19.31Z"/><path class="cls-1" d="M21.29,42.57A21.29,21.29,0,1,1,42.57,21.29,21.31,21.31,0,0,1,21.29,42.57ZM21.29.8A20.49,20.49,0,1,0,41.77,21.29,20.51,20.51,0,0,0,21.29.8Z"/><path class="cls-2" d="M18.48,37.88H16.16v-.8a.79.79,0,0,1,.85-.89h.72a.39.39,0,0,0,.32-.14.55.55,0,0,0,.11-.34.42.42,0,0,0-.43-.47H16.22v-.35h1.51a.78.78,0,0,1,.78.82.78.78,0,0,1-.78.83H17c-.36,0-.51.16-.51.54v.46h2Z"/><path class="cls-2" d="M20.62,37.92c-.64,0-1.36-.17-1.36-1.51s.72-1.52,1.36-1.52S22,35.06,22,36.41,21.25,37.92,20.62,37.92Zm0-2.68c-.54,0-1,.09-1,1.17s.48,1.17,1,1.17,1-.09,1-1.17S21.15,35.24,20.62,35.24Z"/><rect class="cls-2" x="22.8" y="34.89" width="0.35" height="2.99"/><path class="cls-2" d="M25.83,36.85v-2h-.52L24,36.81v.39h1.49v.68h.34V37.2h.55v-.35Zm-.34,0h-1.1l1.1-1.61Z"/><polygon class="cls-3" points="157.11 13.49 163.86 13.49 163.86 30.88 165.63 30.88 165.63 13.49 172.33 13.49 172.33 11.72 157.11 11.72 157.11 13.49"/><polygon class="cls-3" points="208.95 11.72 207.14 11.72 207.14 30.88 222.36 30.88 222.36 29.11 208.95 29.11 208.95 11.72"/><path class="cls-3" d="M240.65,13.42h5.65v-1.7h-5.65a9.54,9.54,0,0,0-9.5,8.73H229v1.7h2.18a9.54,9.54,0,0,0,9.5,8.72h5.65v-1.7h-5.65a7.86,7.86,0,0,1-7.79-7H244.8v-1.7H232.86A7.87,7.87,0,0,1,240.65,13.42Z"/><path class="cls-3" d="M194.79,11.72c-.15.15-.8,1-5.68,7.83l-.24.32-.24-.32c-4.87-6.82-5.53-7.68-5.68-7.83h-2.08L188,21.63v9.24h1.84V21.63l7.08-9.91Z"/><path class="cls-3" d="M71.33,14.8A5.24,5.24,0,0,0,68,11.92l-.48-.11-.12,0a5.69,5.69,0,0,0-.83-.07h-10v8.75H54.37v1.77h2.17v8.63h1.77V22.25h8.35a5.25,5.25,0,0,0,4.69-3.11,5.15,5.15,0,0,0,0-4.34ZM70,17a4.32,4.32,0,0,1-.07.64v0a3.49,3.49,0,0,1-3.41,2.78H58.31v-7h8.25A3.49,3.49,0,0,1,70,17Z"/><path class="cls-3" d="M92.35,22.25h0l0-.06a5.28,5.28,0,0,0,4-3.05,5.25,5.25,0,0,0,0-4.34A5.29,5.29,0,0,0,93,11.92l-.47-.11-.13,0a5.57,5.57,0,0,0-.83-.07h-10v8.75H79.34v1.77h2.18v8.63h1.77V22.25h7c.33.53,1.49,2.53,4.86,8.43l.19.32,1.56-.78ZM83.29,13.5h8.24A3.48,3.48,0,0,1,95,17V17a2.67,2.67,0,0,1-.07.64v0a3.49,3.49,0,0,1-3.41,2.78H83.29Z"/><path class="cls-3" d="M113.8,31.07a7.37,7.37,0,0,1-7.61-7.1V18.6a7.63,7.63,0,0,1,15.23,0V24A7.38,7.38,0,0,1,113.8,31.07Zm0-17.74A5.55,5.55,0,0,0,108,18.6V24a5.82,5.82,0,0,0,11.58,0V18.6A5.55,5.55,0,0,0,113.8,13.33Z"/><path class="cls-3" d="M137.48,22.17h0Z"/><path class="cls-3" d="M142.26,20.42h0Z"/><path class="cls-3" d="M137.57,13.47h9.89V11.71h-9.89A5.28,5.28,0,0,0,132.28,17a5.18,5.18,0,0,0,1.33,3.46,5.28,5.28,0,0,0,3.87,1.76h4.74a3.48,3.48,0,0,1,3.48,3.43,3.54,3.54,0,0,1-3.53,3.5h-9.89v1.76h9.89a5.3,5.3,0,0,0,5.29-5.26,5.1,5.1,0,0,0-1.32-3.43,5.32,5.32,0,0,0-3.88-1.76h-4.73a3.47,3.47,0,1,1,0-6.94Z"/></g></g></svg>