<svg width="118" height="120" viewBox="0 0 118 120" fill="none" xmlns="http://www.w3.org/2000/svg">
<path d="M78.487 40.0954L76.6961 47.8306L73.8815 61.709L67.4823 69.6732L59.0372 74.9052L56.7338 70.8098L54.4304 71.9475L49.8235 81.0483L46.2402 84.006H37.2827L23.7183 86.9636L13.7371 92.1968L10.1538 94.0167L15.2732 96.9743L19.6238 98.3387L37.2827 91.059L44.3211 91.7424L45.4728 100.615L52.6394 97.6565L58.2699 91.2868L71.3218 88.5569L78.487 81.9582L82.0703 84.6881L80.0231 91.2868L90.2605 83.3238L88.7258 61.9368L92.3077 49.6506L86.9334 36L78.487 40.0954Z" fill="#AE8148"/>
<path d="M80.6765 4.09703L84.4835 17.7542L76.6154 23.2161V33.2308H86.7682V25.947L94.8918 30.7277L101.746 29.1337L106.568 20.0294L117.231 15.7057L111.9 10.2426L92.353 4.09703L86.7682 0L80.6765 4.09703Z" fill="#AE8148"/>
<path d="M0 101.037L5.79051 108.577L1.50964 115.431L5.79051 120L9.818 119.086L16.6154 106.064L15.6085 101.037L9.818 96.9231L0 101.037Z" fill="#AE8148"/>
<path d="M24.5455 100.812L22.1538 104.615L24.5455 109.846L31.4545 100.812L36.7699 102.952L39.6923 102.237L36.5039 94.1538L25.3423 99.6226" fill="#AE8148"/>
<path d="M51.8865 58.0065C51.8865 45.2959 41.5406 34.6544 28.5344 34.6544C15.5282 34.6544 5.18239 45.2959 5.18239 58.0065C5.18239 66.5787 9.91192 74.2642 17.0062 78.107L28.2388 90.2264L39.4715 78.107C46.8614 74.2642 51.8865 66.8743 51.8865 58.0065Z" fill="white"/>
<path d="M37.6979 36.231C37.1067 36.231 36.8111 36.5266 36.5155 36.8222C36.2199 37.4134 36.5155 38.0046 37.1067 38.3002C39.4715 39.4825 41.8362 40.9605 43.6098 42.7341C51.8865 51.0108 51.8865 64.9038 43.6098 73.1805L28.5344 88.5514C22.3269 82.3439 13.4591 73.1805 13.4591 73.1805C5.18239 64.9038 5.18239 51.0108 13.4591 42.7341C13.7547 42.4385 13.7547 42.4385 14.0503 42.143C14.6415 41.5518 14.6415 40.9606 14.0503 40.3694C13.4591 39.7782 12.8679 39.7782 12.2767 40.3694C11.9811 40.665 11.9811 40.665 11.6855 40.9606C2.52203 50.4196 2.52203 65.495 11.6855 74.6585C11.6855 74.6585 21.4402 84.4131 27.6477 90.6206C28.2388 91.2118 28.83 91.2118 29.4212 90.6206L45.3834 74.6585C54.5469 65.1994 54.5469 50.1241 45.3834 40.9606C43.3142 38.8914 40.6539 37.1178 38.2891 35.9354C37.9935 36.231 37.6979 36.231 37.6979 36.231Z" fill="#AE8148" stroke="#AE8148" stroke-miterlimit="10"/>
<path d="M17.5974 33.8663C17.0062 33.8663 16.415 34.4575 16.415 35.0487V45.3946L10.7987 50.7153C10.2075 51.3065 10.2075 51.8977 10.7987 52.4889C11.0943 52.7845 11.3899 52.7845 11.6855 52.7845H16.415V65.7907C16.415 66.3819 17.0062 66.973 17.5974 66.973H24.6917C25.2829 66.973 25.8741 66.3819 25.8741 65.7907V57.5139H30.6036V65.7907C30.6036 66.3819 31.1948 66.973 31.786 66.973H38.8803C39.4715 66.973 40.0627 66.3819 40.0627 65.7907V52.7845H44.7922C45.3834 52.7845 45.9746 52.1932 45.9746 51.602C45.9746 51.3064 45.9746 51.0109 45.679 50.7153L28.83 34.1619C28.2388 33.5707 27.6477 33.5707 27.0565 34.1619L23.2137 38.0047V35.0487C23.2137 34.4575 22.6225 33.8663 22.0313 33.8663H17.5974ZM18.7798 36.2311H21.1446V40.9607C21.1446 41.5518 21.7357 42.143 22.3269 42.143C22.6225 42.143 22.9181 42.143 23.2137 41.8474L28.2388 36.8222L42.1318 50.7153H39.1759C38.5847 50.7153 37.9935 51.3064 37.9935 51.8976V64.9038H33.264V56.6272C33.264 56.036 32.6728 55.4448 32.0816 55.4448H24.6917C24.1005 55.4448 23.5093 56.036 23.5093 56.6272V64.9038H18.7798V51.8976C18.7798 51.3064 18.1886 50.7153 17.5974 50.7153H14.6415L18.4842 46.8726C18.7798 46.577 18.7798 46.2813 18.7798 45.9857V36.2311Z" fill="#AE8148" stroke="#AE8148"/>
</svg>
