<?xml version="1.0" standalone="no"?>
<!DOCTYPE svg PUBLIC "-//W3C//DTD SVG 20010904//EN"
 "http://www.w3.org/TR/2001/REC-SVG-20010904/DTD/svg10.dtd">
<svg version="1.0" xmlns="http://www.w3.org/2000/svg"
 width="710.000000pt" height="710.000000pt" viewBox="0 0 710.000000 710.000000"
 preserveAspectRatio="xMidYMid meet">
<metadata>
Created by potrace 1.11, written by Peter Selinger 2001-2013
</metadata>
<g transform="translate(0.000000,710.000000) scale(0.100000,-0.100000)"
fill="#000000" stroke="none">
<path d="M3369 7085 c-2 -1 -53 -6 -114 -10 -60 -4 -112 -8 -115 -10 -3 -2
-34 -6 -70 -10 -82 -8 -327 -58 -445 -90 -753 -204 -1417 -653 -1902 -1285
-171 -224 -351 -542 -457 -808 -38 -93 -105 -284 -111 -312 -2 -8 -17 -67 -34
-130 -31 -118 -67 -296 -76 -378 -3 -26 -8 -54 -10 -62 -2 -8 -7 -53 -11 -100
-3 -47 -8 -101 -10 -120 -5 -57 -5 -401 0 -450 3 -25 8 -76 11 -115 7 -81 14
-138 21 -180 18 -110 27 -160 44 -240 143 -658 466 -1250 945 -1731 184 -184
222 -218 391 -345 467 -351 1040 -592 1589 -669 44 -6 91 -13 105 -16 113 -19
593 -27 760 -11 128 12 287 36 413 62 365 77 748 228 1077 425 804 483 1378
1248 1613 2150 19 74 38 151 41 170 3 19 8 46 11 60 3 14 8 41 11 60 2 19 7
46 9 60 27 151 39 311 39 530 1 283 -14 433 -70 735 -33 179 -138 513 -216
683 -92 203 -121 258 -229 442 -62 106 -240 353 -324 450 -449 519 -1016 893
-1650 1088 -117 36 -166 50 -202 58 -6 1 -53 11 -105 23 -51 11 -109 23 -128
26 -19 3 -48 8 -65 11 -38 7 -74 11 -150 19 -33 3 -76 9 -95 11 -39 6 -486 15
-491 9z m456 -206 c99 -9 174 -18 220 -25 565 -89 1074 -303 1519 -638 153
-116 189 -148 361 -320 318 -318 540 -649 715 -1065 79 -187 166 -471 194
-634 3 -15 7 -35 10 -45 2 -9 7 -39 11 -67 3 -27 8 -61 10 -75 33 -177 40
-694 11 -860 -3 -14 -7 -45 -10 -70 -4 -25 -8 -56 -10 -70 -22 -125 -31 -168
-57 -272 -197 -796 -681 -1491 -1364 -1960 -263 -181 -595 -340 -898 -432 -64
-20 -127 -37 -139 -40 -13 -2 -50 -11 -83 -20 -88 -22 -286 -56 -415 -71 -210
-23 -614 -18 -760 10 -8 2 -43 6 -76 10 -95 10 -352 68 -492 111 -510 155
-993 445 -1372 824 -137 137 -176 180 -258 283 -253 319 -434 654 -564 1040
-27 81 -51 155 -53 165 -1 9 -10 44 -18 77 -21 81 -56 257 -63 320 -4 27 -8
52 -10 55 -1 4 -6 49 -10 100 -3 52 -8 98 -11 102 -11 20 -3 452 12 573 3 28
8 66 10 85 49 419 198 862 423 1250 90 154 234 361 330 473 155 179 309 329
483 469 296 238 661 436 1033 559 170 57 424 116 571 134 28 4 61 8 75 11 14
2 63 6 110 10 47 4 86 8 88 9 8 7 394 2 477 -6z"/>
<path d="M3467 6694 c-1 -1 -56 -4 -122 -8 -66 -3 -129 -8 -140 -10 -11 -2
-45 -7 -75 -11 -111 -14 -127 -17 -255 -45 -929 -205 -1716 -819 -2139 -1668
-102 -203 -155 -342 -221 -572 -26 -92 -70 -304 -80 -385 -4 -27 -8 -61 -11
-75 -18 -106 -24 -459 -11 -630 56 -729 379 -1437 893 -1954 299 -301 612
-517 989 -681 208 -91 474 -173 680 -209 17 -3 39 -8 51 -10 12 -2 45 -7 74
-11 29 -4 60 -8 69 -10 135 -25 622 -25 771 0 14 2 45 7 70 10 25 3 52 8 60
10 8 2 35 7 60 10 25 3 53 8 62 11 9 3 26 7 38 9 13 2 67 16 121 30 962 248
1769 963 2132 1890 47 119 96 263 112 332 3 10 14 54 25 98 11 44 23 100 26
125 3 25 8 47 9 50 7 12 34 228 41 325 12 165 6 483 -10 570 -2 11 -7 46 -11
79 -8 71 -18 128 -41 246 -12 62 -56 223 -83 306 -260 799 -825 1458 -1575
1838 -78 40 -179 87 -226 105 -47 18 -105 41 -130 51 -42 17 -304 94 -353 104
-73 15 -178 35 -212 40 -22 4 -53 9 -70 11 -106 17 -505 40 -518 29z m1846
-1387 c9 -3 12 -424 12 -1768 l0 -1764 -1771 -1 -1771 -2 0 1769 0 1768 66 3
c107 5 3451 0 3464 -5z"/>
<path d="M3428 5215 c-2 -1 -37 -6 -77 -9 -41 -4 -77 -9 -80 -11 -4 -2 -24 -6
-46 -9 -76 -12 -290 -79 -309 -96 -6 -6 -13 -2943 -7 -3081 1 -25 230 -96 396
-124 65 -11 386 -15 440 -6 28 5 72 12 99 15 27 4 52 9 55 11 3 1 22 6 41 9
37 6 213 62 243 78 16 8 17 90 15 1555 l-3 1545 -80 29 c-77 27 -182 56 -235
65 -14 3 -52 10 -85 15 -53 10 -359 21 -367 14z"/>
<path d="M2755 5015 c-55 -31 -122 -72 -150 -93 l-50 -38 0 -127 0 -127 152 0
c152 0 153 0 154 23 3 67 0 409 -3 413 -2 2 -49 -21 -103 -51z"/>
<path d="M4247 5062 c-3 -6 -2 -52 2 -74 1 -3 35 -6 76 -5 41 0 72 4 68 8 -18
16 -143 77 -146 71z"/>
<path d="M4249 4936 c-1 -1 -2 -70 -3 -153 l-1 -153 156 0 156 0 0 124 c0 69
-3 128 -6 133 -3 5 -19 18 -36 30 -26 18 -45 20 -147 20 -65 0 -119 -1 -119
-1z"/>
<path d="M4600 4741 l0 -111 111 0 c105 0 111 1 98 18 -30 38 -107 116 -156
159 l-53 45 0 -111z"/>
<path d="M2425 4780 c-36 -33 -84 -81 -106 -105 l-42 -45 112 0 c61 0 111 3
112 8 6 40 4 202 -3 202 -5 0 -38 -27 -73 -60z"/>
<path d="M2223 4560 c-13 -14 -23 -34 -24 -45 -1 -27 -1 -544 0 -572 1 -23 2
-23 155 -23 l154 0 0 330 1 330 -22 1 c-12 0 -71 1 -131 2 -105 2 -111 1 -133
-23z"/>
<path d="M2555 4580 c-1 -3 -3 -152 -3 -332 l0 -328 154 0 154 0 0 330 c0 182
-3 330 -7 331 -36 4 -296 3 -298 -1z"/>
<path d="M4265 4582 c-20 -3 -21 -9 -19 -150 1 -81 2 -149 3 -152 0 -3 69 -5
151 -5 l150 0 1 72 c1 92 1 131 0 191 l-1 47 -132 0 c-73 0 -142 -1 -153 -3z"/>
<path d="M4603 4575 c-2 -6 -2 -76 -1 -155 l3 -145 140 -1 c77 0 146 2 152 4
9 3 12 38 12 127 -1 110 -3 125 -23 150 -21 27 -23 27 -150 28 -82 1 -130 -2
-133 -8z"/>
<path d="M2106 4388 c-71 -127 -149 -314 -170 -410 -3 -14 -9 -33 -12 -42 -5
-14 8 -16 110 -16 86 0 116 3 117 13 3 67 0 509 -4 513 -3 3 -21 -23 -41 -58z"/>
<path d="M4953 4363 l2 -87 48 -1 c26 -1 47 2 47 8 0 13 -79 155 -90 162 -5 3
-8 -34 -7 -82z"/>
<path d="M4248 4218 c-2 -7 -4 -76 -4 -153 l1 -140 153 -3 c118 -2 152 0 153
10 0 13 0 245 -1 281 0 15 -14 17 -149 17 -110 0 -150 -3 -153 -12z"/>
<path d="M4600 4075 l0 -155 154 0 155 0 -1 155 -1 155 -153 0 -154 0 0 -155z"/>
<path d="M4955 4078 l0 -153 113 -3 c95 -2 112 0 112 13 0 19 -56 194 -80 251
l-19 44 -63 0 -64 0 1 -152z"/>
<path d="M1913 3867 c-30 -49 -40 -452 -14 -589 l13 -67 119 1 119 1 0 81 c1
44 2 192 3 329 2 213 0 247 -13 248 -59 6 -223 2 -227 -4z"/>
<path d="M2199 3865 c-1 -13 -1 -638 0 -646 1 -4 70 -6 154 -5 l152 1 0 330 0
330 -152 0 c-96 0 -153 -4 -154 -10z"/>
<path d="M2561 3870 c-5 -3 -8 -152 -9 -331 l0 -327 154 0 154 1 -2 331 -3
331 -143 0 c-79 0 -147 -2 -151 -5z"/>
<path d="M4249 3870 c-3 -13 -5 -286 -2 -295 3 -9 290 -11 300 -2 3 4 6 228 4
287 -1 13 -24 15 -151 15 -82 0 -151 -2 -151 -5z"/>
<path d="M4604 3871 c-2 -2 -4 -71 -4 -152 l0 -148 113 -3 c61 -2 131 -2 154
0 l42 3 -1 150 c0 82 -3 150 -7 150 -18 4 -293 4 -297 0z"/>
<path d="M4955 3723 l0 -153 57 -1 c32 0 87 0 123 0 36 0 72 0 80 0 13 1 14
13 10 69 -7 96 -27 232 -34 233 -3 1 -58 2 -121 3 l-115 2 0 -153z"/>
<path d="M4246 3373 c1 -82 2 -151 3 -155 0 -3 69 -6 151 -6 l150 0 1 44 c0
24 1 60 1 79 0 19 -1 69 -1 110 l-1 75 -153 0 -152 0 1 -147z"/>
<path d="M4600 3366 l0 -153 154 -1 154 -1 0 155 1 154 -154 0 -155 0 0 -154z"/>
<path d="M4956 3373 c1 -82 2 -151 3 -155 0 -3 55 -6 120 -6 l119 0 7 55 c4
30 8 65 10 77 2 11 6 56 9 99 l5 77 -137 0 -137 0 1 -147z"/>
<path d="M1925 3162 c-5 -5 30 -127 60 -207 46 -121 146 -315 163 -315 5 0 7
442 3 515 -1 9 -217 16 -226 7z"/>
<path d="M2199 3146 c0 -12 -1 -148 -1 -303 -1 -270 0 -282 20 -311 l21 -29
133 1 133 1 0 330 0 329 -152 1 c-148 1 -153 0 -154 -19z"/>
<path d="M2552 2839 c0 -181 3 -330 7 -330 3 -1 72 -2 154 -3 l147 -1 0 332 0
332 -154 -1 -154 0 0 -329z"/>
<path d="M4249 3165 c-1 0 -2 -69 -3 -152 -1 -147 0 -153 19 -154 74 -3 277 0
281 4 4 4 8 253 4 297 0 4 -275 8 -301 5z"/>
<path d="M4604 3161 c-2 -2 -4 -71 -4 -153 0 -111 3 -148 13 -149 6 0 75 -1
152 -2 l140 -1 0 154 0 155 -148 0 c-81 0 -150 -1 -153 -4z"/>
<path d="M4962 3160 c-12 -8 -9 -300 3 -301 5 0 34 -1 62 -2 l53 -2 21 50 c38
89 70 193 73 240 1 18 -6 20 -102 20 -57 0 -106 -2 -110 -5z"/>
<path d="M4263 2810 c-17 -5 -18 -18 -18 -152 0 -82 2 -149 5 -149 3 -1 71 -2
153 -3 l147 -2 1 31 c2 100 -1 268 -5 273 -7 6 -260 8 -283 2z"/>
<path d="M4657 2812 l-58 -3 3 -152 3 -152 130 -2 131 -1 21 31 c18 28 21 49
22 155 l1 122 -28 0 c-15 1 -58 2 -97 3 -38 1 -96 1 -128 -1z"/>
<path d="M4974 2810 c-15 -6 -18 -20 -19 -83 -2 -104 4 -102 69 14 l36 67 -34
4 c-19 2 -42 1 -52 -2z"/>
<path d="M2311 2421 c48 -56 183 -180 191 -175 3 2 6 50 5 107 l-2 102 -112 1
-113 2 31 -37z"/>
<path d="M2555 2327 l0 -130 80 -52 c91 -60 216 -127 223 -120 4 4 6 270 3
401 l-1 31 -153 0 -152 0 0 -130z"/>
<path d="M4249 2456 c-1 -1 -2 -70 -3 -153 l-1 -153 118 0 c105 0 121 2 152
23 39 25 38 20 36 221 l-1 63 -150 0 c-82 0 -151 -1 -151 -1z"/>
<path d="M4600 2347 c0 -103 1 -109 18 -96 27 21 202 193 202 200 0 3 -49 6
-110 6 l-110 0 0 -110z"/>
<path d="M4246 2100 c-2 -5 0 -64 3 -75 2 -8 141 64 141 73 0 8 -141 10 -144
2z"/>
</g>
</svg>
