<svg width="136" height="106" viewBox="0 0 136 106" fill="none" xmlns="http://www.w3.org/2000/svg">
<g clip-path="url(#clip0)">
<path d="M12.2565 82.3487C12.2565 82.3487 12.5438 82.3487 12.6396 82.4445C12.7353 82.5402 12.7353 82.8275 12.7353 83.019C12.7353 83.019 12.6396 83.6893 12.6396 83.785C12.6396 83.8808 12.5438 84.3596 12.4481 84.7426C12.3523 85.1256 12.2565 85.3171 12.065 85.5086C11.8735 85.7001 11.7778 86.0831 11.4905 86.1789C11.2033 86.2746 10.8202 86.4661 10.533 86.4661C10.15 86.5619 9.86269 86.5619 9.38392 86.5619C8.90515 86.6577 8.71364 86.6577 7.94761 86.6577C7.18157 86.6577 6.03252 86.6577 5.93677 86.6577C5.84101 86.6577 2.87263 86.5619 2.58537 86.5619C2.2981 86.5619 1.43631 86.2746 1.0533 86.0831C0.574526 85.8916 0.191509 85.3171 0.0957543 84.8383C0 84.2638 0 82.8275 0 82.3487C0 81.8699 0.0957543 77.944 0.0957543 77.944V74.6884L0.191509 70.8582L0.287263 66.5493C0.287263 66.5493 0.287263 66.4535 0.287263 66.3577C0.287263 66.262 0.383017 66.0705 0.67028 66.1662C0.957543 66.1662 2.20235 66.1662 2.39386 66.1662C2.58537 66.1662 3.25565 66.262 3.54291 66.4535C3.83017 66.645 4.21319 66.9323 4.4047 67.2195C4.59621 67.5068 4.88347 67.7941 4.88347 68.4643C4.88347 69.1346 4.88347 72.486 4.88347 72.6775C4.88347 72.7733 4.88347 73.0605 4.88347 73.2521C4.88347 73.4436 4.88347 78.8058 4.88347 78.8058C4.88347 78.8058 4.88347 80.3379 4.88347 80.5294C4.88347 80.7209 4.88347 81.5827 4.78771 81.6784C4.69196 81.7742 4.88347 82.1572 4.88347 82.253C4.97922 82.3487 5.07498 82.4445 5.36224 82.4445C5.6495 82.4445 8.04336 82.4445 8.04336 82.4445H11.682L12.2565 82.3487Z" fill="black"/>
<path d="M27.6729 78.9975C27.6729 78.1357 27.4814 76.8909 27.3857 76.6036C27.2899 76.2206 27.0026 75.3588 26.8111 74.7843C26.5239 74.2097 26.6196 74.2097 25.8536 73.348C25.1833 72.4862 24.4173 72.1989 23.6512 71.8159C22.0234 71.0499 19.8211 71.2414 18.1932 71.9116C17.8102 72.1032 17.3315 72.4862 16.8527 72.8692C16.3739 73.2522 15.7036 74.3055 15.3206 74.7843C14.0758 76.5079 13.7886 79.2847 14.4588 81.2956C14.9376 82.8276 15.5121 84.2639 16.7569 85.3172C18.4805 86.9451 21.8319 87.0408 24.0343 86.562C25.3748 86.2748 26.2366 84.8385 26.8111 83.6894C27.3857 82.1574 27.5772 80.721 27.6729 78.9975ZM23.1725 79.0932C23.1725 79.955 23.0767 80.721 22.8852 81.4871C22.6937 82.0616 22.2149 83.4022 20.7786 83.4022C19.2465 83.4022 18.8635 81.6786 18.7678 81.4871C18.7678 81.2956 18.672 78.806 18.5763 78.4229C18.4805 76.9866 18.9593 74.7843 20.8744 74.7843C21.7362 74.7843 22.6937 75.1673 22.8852 76.1248C23.0767 77.0824 23.1725 78.0399 23.1725 79.0932Z" fill="black"/>
<path d="M42.7062 78.4228C42.7062 78.0398 42.6104 77.0823 42.5147 76.6035C41.8444 72.6776 36.5779 70.2837 33.1307 71.9116C31.7902 72.5818 30.6411 74.2097 29.9708 75.5502C29.5878 76.2205 29.5878 77.2738 29.4921 78.0398C29.3963 79.9549 29.4921 81.9658 30.2581 83.7851C30.5454 84.4554 31.5029 85.4129 32.1732 85.8917C33.6095 86.945 35.9076 86.8492 37.4397 86.0832C37.6312 85.9874 38.11 85.5087 38.11 85.5087C38.11 85.5087 38.11 85.5087 38.11 85.7002C38.11 85.8917 38.0142 86.3704 38.0142 86.3704C37.9184 86.6577 37.8227 87.5195 37.7269 87.711C37.6312 87.9983 37.2482 88.5728 37.0567 88.7643C36.8651 88.9558 36.1949 89.2431 35.7161 89.3388C35.2373 89.5303 34.2798 89.4346 33.9925 89.4346C33.7053 89.4346 33.3222 89.4346 32.9392 89.2431C32.4605 89.1473 31.8859 88.8601 31.7902 88.7643C31.6944 88.6685 31.3114 88.7643 31.3114 88.8601C31.2156 88.9558 31.2156 89.0516 31.0241 89.4346C30.8326 89.8176 30.6411 90.5836 30.5454 90.7751C30.4496 90.9667 30.4496 91.8284 30.4496 91.9242C30.4496 92.02 30.4496 92.1157 30.8326 92.2115C31.1199 92.3072 33.801 92.786 34.2798 92.786C36.9609 92.786 39.642 92.9775 41.2698 90.4879C41.3656 90.2964 41.9401 89.1473 42.0359 88.8601C42.2274 88.477 42.5146 86.945 42.6104 86.6577C42.7062 86.3704 42.8019 83.9766 42.8019 83.7851C42.7062 83.6893 42.7062 78.8059 42.7062 78.4228ZM38.2057 77.6568C38.2057 78.3271 38.2057 80.5294 38.2057 80.6252C38.2057 80.7209 38.3015 81.2955 38.11 81.7742C38.0142 82.1573 37.5354 83.1148 36.3864 83.1148C35.1416 83.1148 34.6628 82.1573 34.567 81.7742C34.4713 81.487 34.2798 80.1464 34.2798 79.7634C34.2798 79.3804 34.3755 77.5611 34.3755 77.2738C34.3755 76.9865 34.6628 75.8375 34.7586 75.646C34.9501 75.4545 35.4288 74.7842 36.3864 74.6884C36.5779 74.6884 37.0567 74.7842 37.4397 74.9757C37.7269 75.263 38.11 75.5502 38.2057 75.8375C38.3015 76.029 38.3015 76.9865 38.2057 77.6568Z" fill="black"/>
<path d="M76.2205 76.3162C76.1247 75.5502 76.1247 75.3587 75.8374 74.9757C75.6459 74.4969 74.9757 73.5394 74.4969 73.1563C74.0181 72.7733 73.1563 72.103 72.9648 72.0073C72.6776 71.9115 72.0073 71.6243 71.6243 71.4328C71.1455 71.2413 70.0922 71.1455 69.8049 71.1455C69.8049 71.1455 69.3262 71.1455 69.0389 71.1455C68.1771 71.2413 67.6983 71.5285 67.2196 71.6243C66.7408 71.8158 66.0705 72.3903 65.7832 72.6776C63.8682 74.4012 63.3894 77.0823 63.4851 79.4761C63.4851 80.0507 63.7724 81.3912 63.8682 82.1573C64.3469 84.3596 66.3578 86.4662 68.7516 86.6577C70.4752 86.8492 72.1988 86.5619 73.9224 86.1789C74.2096 86.0832 75.2629 85.5087 75.4544 85.5087C75.6459 85.4129 75.7417 85.1256 75.7417 84.9341C75.7417 84.7426 75.6459 84.2638 75.6459 84.0723C75.5502 83.8808 75.4544 83.2105 75.2629 83.019C75.0714 82.7318 74.8799 82.636 74.7842 82.5403C74.6884 82.5403 74.4969 82.636 74.4969 82.636C74.4969 82.636 74.1139 82.8275 73.9224 82.9233C73.7309 83.019 72.5818 83.1148 72.2945 83.2105C71.8158 83.3063 71.1455 83.3063 70.8582 83.3063C70.571 83.3063 69.9964 83.2105 69.4219 83.019C68.9431 82.8275 68.1771 81.6785 68.0813 81.487C67.9856 81.2955 67.9856 80.8167 67.9856 80.5294C68.0813 80.2422 68.3686 80.2422 68.4644 80.2422C68.4644 80.2422 71.1455 80.3379 71.2412 80.3379C71.337 80.3379 72.9648 80.3379 73.4436 80.3379C74.0181 80.3379 74.5926 80.3379 75.0714 80.3379C75.5502 80.3379 75.7417 80.3379 75.8374 80.2422C75.9332 80.1464 76.2205 79.9549 76.2205 79.8591C76.2205 79.7634 76.3162 79.1889 76.3162 78.9974C76.3162 78.7101 76.3162 77.178 76.2205 76.3162ZM72.0073 77.178C72.0073 77.3695 71.72 77.4653 71.337 77.4653C70.3795 77.3695 69.4219 77.3695 68.4644 77.3695C68.2729 77.3695 68.0813 77.3695 67.9856 77.3695C67.8898 77.3695 67.8898 76.9865 67.9856 76.5077C68.0813 76.029 68.6559 75.1672 69.0389 74.8799C69.3262 74.5927 69.6134 74.4969 69.8049 74.4969C69.9964 74.4969 70.2837 74.4011 70.2837 74.4011C70.571 74.4011 70.954 74.4969 71.1455 74.6884C71.337 74.9757 71.9115 75.5502 72.0073 75.9332C72.103 76.2205 72.103 76.9865 72.0073 77.178Z" fill="black"/>
<path d="M78.9972 86.5618C78.9972 86.5618 78.8057 83.5934 78.8057 83.2104C78.8057 82.8274 78.9972 79.1887 78.9972 78.9015C78.9972 78.6142 79.1887 75.6458 79.1887 75.3585C79.1887 75.0713 79.0929 73.9222 79.0929 73.4435C79.0929 72.9647 78.7099 72.3902 78.6142 72.2944C78.5184 72.1987 78.5184 72.1029 78.7099 72.0071C78.8057 71.9114 79.9547 71.6241 80.4335 71.6241C80.8165 71.6241 81.391 71.7199 81.6783 71.8156C81.9656 71.9114 82.4443 72.1987 82.7316 72.3902C83.0189 72.6774 83.1146 72.7732 83.2104 72.8689C83.3061 72.9647 83.4976 72.7732 83.5934 72.7732C83.6892 72.6774 84.5509 72.1029 85.0297 71.9114C85.5085 71.7199 86.1788 71.4326 86.5618 71.4326C86.9448 71.4326 87.9981 71.4326 88.3811 71.5284C88.7641 71.6241 89.5302 72.0071 90.0089 72.3902C90.4877 72.7732 90.8707 73.2519 91.0622 73.8265C91.2537 74.401 91.541 74.9755 91.541 75.4543C91.541 75.9331 91.541 77.0821 91.6368 77.2736C91.7325 77.4651 91.8283 82.2529 91.8283 82.2529C91.8283 82.2529 91.7325 84.6467 91.7325 84.7425C91.7325 84.8382 91.541 85.4128 91.4453 85.7C91.3495 85.9873 91.158 86.1788 91.0622 86.1788C90.9665 86.1788 90.5835 86.3703 90.1047 86.3703C89.7217 86.3703 88.8599 86.4661 88.5726 86.4661C88.2854 86.4661 87.9023 86.4661 87.6151 86.083C86.3703 84.934 86.849 82.5401 86.7533 81.0081C86.7533 80.5293 86.7533 76.7949 86.6575 76.4118C86.5618 76.1246 86.083 75.6458 85.7957 75.5501C85.5085 75.4543 84.934 75.4543 84.6467 75.5501C84.3594 75.6458 83.5934 76.3161 83.4976 76.5076C83.4976 76.6034 83.3061 77.1779 83.3061 77.6566C83.3061 78.0397 83.4019 78.6142 83.4019 79.2845C83.4019 79.9548 83.4976 85.0297 83.4976 85.0297C83.4976 85.0297 83.4976 85.7 83.4976 85.7958C83.4976 85.8915 83.4019 86.083 83.3061 86.1788C83.2104 86.2745 83.0189 86.4661 82.6359 86.4661C82.2528 86.4661 81.391 86.5618 81.008 86.5618C80.625 86.5618 79.9547 86.5618 79.7632 86.5618C79.5717 86.5618 78.9972 86.5618 78.9972 86.5618Z" fill="black"/>
<path d="M107.341 78.6144C107.341 77.3695 107.245 76.6993 107.053 76.1247C106.479 74.2097 104.947 72.4861 103.128 71.6243C101.5 70.8583 99.3931 71.2413 97.6695 71.8158C96.9992 72.0073 95.946 72.7733 95.5629 73.2521C95.1799 73.7309 94.5096 74.7842 94.2224 75.263C94.0309 75.7417 93.9351 76.795 93.8394 77.0823C93.8394 77.4653 93.8394 79.4761 93.8394 79.8592C93.8394 80.2422 94.0309 81.1997 94.1266 81.7742C94.2224 82.253 94.7969 83.4978 95.0842 83.9766C95.3714 84.4554 96.1375 85.2214 96.712 85.7002C97.2865 86.1789 98.5313 86.6577 98.9143 86.7535C99.2973 86.8492 99.8719 86.8492 100.446 86.8492C101.021 86.8492 101.691 86.7535 102.17 86.6577C103.606 86.1789 104.468 85.6044 105.521 84.4554C106.192 83.7851 106.383 83.1148 106.766 82.253C106.958 81.87 107.149 81.104 107.149 80.721C107.341 80.2422 107.436 79.8592 107.341 78.6144ZM102.649 81.0082C102.649 81.5827 102.361 82.4445 101.978 82.7318C101.595 83.0191 101.308 83.4978 100.734 83.4021C100.159 83.4021 99.4889 83.0191 99.2973 82.636C99.0101 82.253 98.6271 81.0082 98.5313 80.4337C98.4356 79.8592 98.5313 77.3695 98.5313 77.0823C98.5313 76.795 98.8186 75.8375 99.1058 75.4545C99.3931 75.1672 99.7761 74.5927 100.063 74.4969C100.351 74.4012 100.638 74.4012 100.638 74.4012C101.021 74.4012 101.117 74.4012 101.5 74.5927C101.883 74.8799 102.074 74.9757 102.266 75.4545C102.457 75.8375 102.745 76.795 102.745 77.6568C102.84 78.7101 102.649 80.4337 102.649 81.0082Z" fill="black"/>
<path d="M107.915 71.7198C107.915 71.7198 108.107 71.6241 108.394 71.5283C108.586 71.5283 109.16 71.4325 109.447 71.5283C110.309 71.6241 111.937 71.1453 112.511 72.0071C112.799 72.3901 113.278 73.4434 113.278 73.6349C113.373 73.8264 113.852 75.7415 113.852 75.7415L115.193 81.1995L115.384 82.4443H115.576L116.15 79.4759L117.203 75.167L118.161 71.7198C118.161 71.7198 118.544 71.4326 118.735 71.4326C119.023 71.4326 122.566 71.241 122.374 71.9113C122.374 72.0071 122.087 73.1561 121.895 73.7307C121.704 74.3052 120.555 77.9439 120.555 77.9439L118.927 83.5934C118.927 83.5934 118.352 85.4127 118.352 85.6042C118.352 85.7957 118.065 86.083 117.969 86.083C117.874 86.1787 116.342 86.3702 115.959 86.3702C115.576 86.3702 114.81 86.2745 114.331 86.2745C113.756 86.2745 113.182 86.1787 112.703 85.7C112.224 85.3169 111.745 84.0721 111.65 83.8806C111.554 83.6891 109.735 76.8906 109.735 76.8906L108.107 71.9113C108.011 72.1986 107.82 71.8156 107.915 71.7198Z" fill="black"/>
<path d="M127.928 80.4336C128.215 80.4336 128.694 80.4336 128.885 80.4336C129.077 80.4336 132.428 80.6251 132.62 80.6251C132.907 80.6251 133.96 80.6251 134.343 80.5294C134.726 80.4336 135.013 80.3379 135.301 80.1464C135.588 79.9548 135.684 79.4761 135.684 79.1888C135.779 78.8058 135.684 76.8907 135.588 76.4119C135.492 75.9332 135.205 74.9756 135.013 74.4968C134.822 74.0181 134.056 72.9648 133.481 72.5818C131.375 71.0497 128.406 70.8582 126.108 72.0072C122.948 73.6351 122.757 77.7525 122.948 80.8166C123.14 82.7317 124.097 84.6468 125.725 85.7959C127.449 87.0407 129.46 86.9449 131.471 86.7534C132.237 86.6576 132.811 86.2746 133.481 86.0831C134.152 85.8916 134.918 85.4128 135.013 85.3171C135.971 84.8383 134.918 83.019 134.343 82.636C134.056 82.5402 133.769 82.636 133.29 82.8275C132.811 83.019 131.662 83.2105 131.183 83.3062C129.651 83.402 127.64 82.7317 127.449 80.9124C127.449 80.5294 127.64 80.4336 127.928 80.4336ZM127.545 76.9865C127.64 76.795 127.832 75.7417 127.928 75.4544C128.023 75.1671 128.406 74.6884 128.598 74.5926C128.789 74.4968 129.172 74.3053 129.364 74.3053C129.555 74.3053 130.034 74.4011 130.226 74.4968C130.417 74.5926 130.992 74.9756 131.088 75.3586C131.279 75.6459 131.375 75.6459 131.375 76.0289C131.471 76.4119 131.375 76.9865 131.375 77.0822C131.375 77.2737 131.279 77.3695 131.088 77.3695C130.896 77.3695 129.46 77.4652 129.172 77.4652C128.789 77.4652 127.64 77.561 127.545 77.561C127.64 77.3695 127.545 77.178 127.545 76.9865Z" fill="black"/>
<path d="M61.9531 72.6773C61.9531 73.3475 61.7616 73.8263 61.5701 74.4008C61.3786 74.9754 61.0913 75.4541 60.804 75.9329C60.5168 76.3159 60.2295 76.7947 59.8465 77.082C59.3677 77.3692 58.7932 77.5607 58.3144 77.9437C59.3677 78.614 60.1338 79.3801 60.5168 80.6249L61.0913 82.7315C61.3786 83.5933 61.8573 84.2635 62.4319 84.9338C62.7191 85.2211 62.9106 85.3168 62.5276 85.6041C62.1446 85.8914 61.5701 86.2744 61.4743 86.2744C61.2828 86.3701 60.9956 86.4659 60.7083 86.5616C60.3253 86.6574 59.9423 86.6574 59.5592 86.6574C58.889 86.6574 58.1229 86.2744 57.7399 85.8913C57.3569 85.5083 57.1654 84.9338 56.7824 83.9763L55.7291 80.9121C55.5376 80.3376 55.2503 79.8588 54.8673 79.5716C54.4843 79.2843 54.0055 79.0928 53.2394 79.0928C52.8564 79.0928 51.9946 78.9013 51.9946 79.4758V81.0079L51.8989 82.8272L51.9946 86.0829V86.4659C51.6116 86.5616 51.1329 86.4659 50.6541 86.4659C50.3668 86.4659 49.9838 86.5616 49.6965 86.5616C49.0263 86.5616 48.0687 86.6574 47.3984 86.3701V85.8913V81.5824L47.4942 71.624L47.3984 66.549L47.5899 66.3575C49.3135 66.3575 49.8881 66.4532 51.1329 66.3575C52.2819 66.3575 54.2928 66.2617 54.963 66.2617C56.0163 66.2617 56.6866 66.3575 57.5484 66.6447C58.4102 66.932 59.0805 67.1235 59.655 67.6023C60.2295 68.1768 60.8998 68.9428 61.1871 69.8046C61.6658 70.5707 61.9531 71.624 61.9531 72.6773ZM52.2819 69.7089C51.9946 69.9961 52.1862 70.8579 52.1862 71.1452V71.8155C52.1862 71.8155 52.1862 73.9221 52.1862 74.8796C52.1862 75.0711 52.1862 75.1669 52.1862 75.3584C52.2819 75.3584 52.3777 75.3584 52.4734 75.3584C53.6225 75.3584 54.963 75.4541 55.9206 74.9754C56.3036 74.7839 56.5909 74.4966 56.7824 74.1136C56.9739 73.7306 57.0696 73.156 57.0696 72.4857C57.0696 71.7197 56.8781 70.8579 56.3036 70.2834C55.346 69.3259 53.7182 69.6131 52.4734 69.5174C52.3777 69.6131 52.2819 69.7089 52.2819 69.7089Z" fill="black"/>
<path d="M66.7409 47.3984C67.3155 46.8238 68.3688 46.8238 68.9433 47.3984L76.5079 54.9629C77.0824 55.5375 78.1357 55.5375 78.7102 54.9629L80.4338 53.2394C81.0083 52.6648 81.0083 51.6115 80.4338 51.037L72.8692 43.4724C72.2947 42.8979 72.2947 41.8446 72.8692 41.2701L76.5079 37.6314C77.0824 37.0569 78.1357 37.0569 78.7102 37.6314L86.2748 45.196C86.8493 45.7705 87.9026 45.7705 88.4772 45.196L90.2007 43.4724C90.7753 42.8979 90.7753 41.8446 90.2007 41.2701L72.8692 23.9386C72.2947 23.364 72.2947 22.3107 72.8692 21.7362L76.5079 18.0975C77.0824 17.523 78.1357 17.523 78.7102 18.0975L96.0418 35.4291C96.6163 36.0036 97.6696 36.0036 98.2441 35.4291L99.9677 33.7055C100.542 33.131 100.542 32.0777 99.9677 31.5031L68.9433 0.478746C68.3688 -0.0957799 67.3155 -0.0957799 66.7409 0.478746L35.7165 31.5031C35.142 32.0777 35.142 33.131 35.7165 33.7055L37.4401 35.4291C38.0146 36.0036 39.0679 36.0036 39.6425 35.4291L66.7409 8.23484C67.3155 7.66032 68.3688 7.66032 68.9433 8.23484L72.582 11.8735C73.1565 12.448 73.1565 13.5013 72.582 14.0759L45.4835 41.2701C44.909 41.8446 44.909 42.8979 45.4835 43.4724L47.2071 45.196C47.7816 45.7705 48.8349 45.7705 49.4094 45.196L66.7409 27.7687C67.3155 27.1942 68.3688 27.1942 68.9433 27.7687L72.582 31.4074C73.1565 31.9819 73.1565 33.0352 72.582 33.6097L55.2504 51.037C54.6759 51.6115 54.6759 52.6648 55.2504 53.2394L56.974 54.9629C57.5485 55.5375 58.6018 55.5375 59.1763 54.9629L66.7409 47.3984Z" fill="#8B7E5E"/>
<path d="M60.5166 96.9033C60.7082 96.9033 60.8039 96.9991 60.8997 97.0948C61.0912 97.4779 61.3784 98.0524 61.0912 98.8184C60.8997 99.3929 60.7081 99.6802 60.4209 100.159C59.2718 102.649 57.8355 104.085 56.5907 104.947C55.9204 105.425 55.3459 105.713 54.9629 105.904C54.8671 106 54.6756 105.904 54.5799 105.808C54.3884 105.617 54.1969 105.425 53.7181 105.042C53.6223 104.947 53.6223 104.851 53.7181 104.755C54.5799 104.372 55.2502 103.989 55.9204 103.51C56.5907 102.936 57.261 102.17 57.7398 101.595C58.6016 100.446 58.9846 99.4887 59.2718 98.7227C59.2718 98.6269 59.2718 98.5311 59.0803 98.5311C58.7931 98.5311 58.2185 98.4354 57.7398 98.4354C57.1652 98.4354 56.7822 98.5311 56.3992 98.5311C56.2077 98.5311 56.0162 98.6269 55.8247 98.8184C55.3459 99.5844 54.7714 100.159 54.1011 100.829C53.6223 101.308 52.9521 101.308 52.4733 100.925C52.3775 100.829 52.2818 100.829 52.2818 100.733C52.186 100.638 52.186 100.446 52.2818 100.446C52.7605 100.063 53.3351 99.5844 53.8138 99.1057C54.2926 98.6269 54.6756 97.9566 55.0587 97.3821C55.2502 97.0948 55.4417 96.9991 55.7289 96.9991H57.4525L60.5166 96.9033Z" fill="black"/>
<path d="M66.7411 97.6692C66.7411 98.4352 66.6453 99.297 66.6453 100.063C66.6453 100.542 66.7411 101.021 66.7411 101.499C66.7411 101.595 66.6454 101.691 66.5496 101.691H65.8793C65.4963 101.691 65.1133 101.404 65.1133 100.925C65.1133 100.542 65.209 100.159 65.209 99.7758C65.209 99.4885 65.209 99.1055 65.209 98.8183C65.209 98.4352 65.209 97.9565 65.209 97.5735V96.2329C65.209 96.0414 65.3048 95.9456 65.4963 95.9456C66.1666 96.1371 66.7411 96.8074 66.7411 97.6692ZM70.5713 95.9456C70.5713 95.8499 70.667 95.6584 70.8585 95.7541C71.6246 95.9456 72.2949 96.6159 72.2949 97.4777C72.2949 98.3395 72.3906 99.2013 72.2949 100.063C72.1991 101.308 71.8161 102.648 71.0501 103.702C70.4755 104.372 69.8052 104.947 69.0392 105.425C68.7519 105.617 68.2732 105.904 67.8902 105.904C67.6029 105.904 67.4114 105.521 67.3156 105.234C67.1241 104.851 67.3156 104.468 67.6029 104.276C68.2732 103.989 68.9435 103.702 69.4222 103.127C69.901 102.648 70.284 101.882 70.4755 101.212C70.667 100.638 70.7628 99.5843 70.7628 99.2013C70.7628 98.531 70.667 97.8607 70.667 97.1904C70.5713 96.7117 70.5713 96.3286 70.5713 95.9456Z" fill="black"/>
<path d="M81.8701 96.8072C81.2956 98.9138 80.2423 101.02 78.806 102.648C77.9442 103.606 76.8909 104.372 75.7418 105.042C75.5503 105.138 75.4546 105.234 75.2631 105.329C75.1673 105.329 75.1673 105.425 75.0716 105.425C74.9758 105.425 74.6885 105.042 74.5928 104.946C74.2098 104.563 74.3055 103.989 74.7843 103.797C76.2206 103.031 77.4654 102.074 78.5187 100.637C79.0932 99.8714 79.3805 98.9138 79.7635 98.052C80.0508 97.3817 80.0508 96.7115 80.2423 96.0412C80.2423 95.9454 80.338 95.8497 80.4338 95.9454C80.7211 96.1369 81.3913 96.4242 81.7744 96.6157C81.7744 96.52 81.8701 96.6157 81.8701 96.8072Z" fill="black"/>
<path d="M84.4553 101.691C84.0722 101.308 84.168 100.734 84.4553 100.446C85.4128 99.4887 86.2746 98.5312 87.1364 97.4779C87.5194 96.9991 87.9024 96.8076 88.4769 96.8076C89.0515 96.8076 89.4345 96.9991 89.8175 97.3821C90.6793 98.2439 91.3496 99.393 92.2114 100.255C92.9774 101.117 93.8392 101.978 94.701 102.744C94.7967 102.84 94.7967 102.936 94.7967 103.032C94.6052 103.415 94.318 103.702 94.1264 103.989C94.0307 104.085 93.8392 104.085 93.7434 103.989C93.1689 103.415 92.5944 102.84 92.1156 102.17C91.8283 101.787 91.5411 101.404 91.2538 101.021C90.8708 100.446 90.392 100.063 90.009 99.5845C89.1472 98.4354 88.9557 98.3397 88.6684 98.3397C88.1897 98.3397 87.8067 98.7227 87.6152 99.1057C87.3279 99.4887 86.9449 99.8717 86.6576 100.255C86.1788 100.925 85.6043 101.595 85.2213 101.978C85.1255 102.074 84.934 102.074 84.8383 101.978L84.4553 101.691Z" fill="black"/>
<path d="M49.5051 98.7226C49.5051 97.7651 49.2179 96.999 48.2603 96.999L41.4618 97.0948C41.0788 97.0948 40.7915 97.382 40.7915 97.7651C40.7915 97.8608 40.7915 97.9566 40.7915 98.0523C40.8873 100.35 40.8873 102.649 40.7915 104.947C40.7915 105.138 40.8873 105.234 41.0788 105.234H49.2179C49.4094 105.234 49.6009 105.042 49.6009 104.851L49.5051 102.84V98.7226ZM47.7816 103.702H47.6858C46.824 103.798 45.9622 103.798 45.1004 103.798C43.5684 103.798 42.2278 103.606 42.2278 103.606C42.2278 102.84 42.3236 102.074 42.3236 101.308C42.3236 100.446 42.2278 99.4886 42.2278 98.6268C42.2278 98.4353 42.3236 98.3396 42.5151 98.3396C42.5151 98.3396 42.8023 98.3396 42.8981 98.3396C43.6641 98.3396 43.8556 98.2438 44.6217 98.2438C45.1004 98.2438 45.675 98.2438 46.058 98.2438C46.3453 98.2438 46.9198 98.3396 47.207 98.3396C47.5901 98.3396 47.7816 98.5311 47.8773 98.9141C47.8773 99.2971 47.8773 99.6801 47.8773 100.159C47.8773 100.542 47.8773 101.021 47.8773 101.404C47.8773 101.787 47.8773 102.17 47.8773 102.553C47.8773 102.744 47.8773 102.936 47.8773 103.127C47.7816 103.319 47.8773 103.606 47.7816 103.702Z" fill="black"/>
<path d="M93.3607 96.7116C93.5522 96.9031 93.7437 97.0946 93.8395 97.2861C93.8395 97.2861 93.7437 97.3819 93.6479 97.4776C93.3607 97.7649 92.8819 97.7649 92.5946 97.4776C92.3074 97.1903 92.1159 96.9988 91.8286 96.8073L91.9244 96.7116C92.3074 96.3286 92.9777 96.3286 93.3607 96.7116Z" fill="black"/>
<path d="M94.5096 95.5627C94.7011 95.7542 94.8926 95.9457 94.9883 96.1372C94.8926 96.233 94.8926 96.233 94.7968 96.3287C94.5096 96.616 94.0308 96.616 93.7435 96.3287C93.552 96.0414 93.2647 95.8499 93.0732 95.6584L93.169 95.5627C93.4563 95.2754 94.1265 95.1797 94.5096 95.5627Z" fill="black"/>
<path d="M60.8039 95.1794C60.9955 95.371 61.187 95.5625 61.3785 95.754C61.2827 95.8497 61.0912 95.9455 60.8997 96.0412C60.7082 96.137 60.4209 96.137 60.2294 95.9455C59.9422 95.6582 59.6549 95.371 59.4634 95.1794L59.6549 94.9879C59.9422 94.8922 60.5167 94.8922 60.8039 95.1794Z" fill="black"/>
<path d="M62.719 94.7966C62.9105 94.9881 63.102 95.1796 63.1978 95.3711C63.1978 95.3711 62.9105 95.5626 62.6233 95.7541C62.4318 95.8499 62.1445 95.8499 62.0488 95.6584C61.8572 95.3711 61.57 94.9881 61.2827 94.7966L61.3785 94.7009C61.8572 94.4136 62.4318 94.4136 62.719 94.7966Z" fill="black"/>
</g>
<defs>
<clipPath id="clip0">
<rect width="135.684" height="106" fill="white"/>
</clipPath>
</defs>
</svg>
