<?xml version="1.0" encoding="utf-8"?>
<!-- Generator: Adobe Illustrator 23.1.1, SVG Export Plug-In . SVG Version: 6.00 Build 0)  -->
<svg version="1.1" id="レイヤー_1" xmlns="http://www.w3.org/2000/svg" xmlns:xlink="http://www.w3.org/1999/xlink" x="0px"
	 y="0px" viewBox="0 0 282.9 52.3" style="enable-background:new 0 0 282.9 52.3;" xml:space="preserve">
<style type="text/css">
	.st0{fill:#FFFFFF;}
</style>
<title>アセット 4</title>
<g>
	<g id="process">
		<path class="st0" d="M87.3,25.7c0,0,0.5,0,0.6,0.2c0.1,0.3,0.2,0.7,0.2,1c0,0-0.1,1-0.1,1.2c0,0.5-0.1,1-0.2,1.5
			c-0.1,0.5-0.3,0.9-0.6,1.3c-0.3,0.4-0.7,0.7-1.1,0.8c-0.5,0.1-1,0.4-1.6,0.5s-1.1,0.1-1.8,0.2c-0.8,0.1-1.5,0.1-2.3,0.1
			c-1.2,0-3,0-3.2,0s-4.8-0.2-5.3-0.2c-0.9-0.1-1.7-0.4-2.5-0.8c-0.7-0.4-1.3-1.1-1.4-2c-0.1-0.8,0-3.1-0.1-3.8s0.1-6.9,0.1-6.9
			v-5.1l0.1-6.1l0.1-6.8c0-0.1,0-0.2,0-0.3C68.4,0.2,68.4,0,68.9,0s2.4,0,2.7,0.1c0.6,0,1.3,0.2,1.8,0.5c0.5,0.3,1,0.7,1.4,1.2
			c0.5,0.5,0.7,1.2,0.7,1.9c0,1,0.1,6.4,0,6.6c0,0.3,0,0.6,0.1,0.9c0,0.3,0.1,8.7,0.1,8.7s0,2.4,0,2.7s-0.1,1.6-0.1,1.9
			c0,0.3,0.1,0.7,0.2,1c0.1,0.2,0.3,0.2,0.8,0.2s4.2,0,4.2,0l5.7,0.1L87.3,25.7z"/>
		<path class="st0" d="M111.7,20.3c0-1.3-0.2-2.6-0.5-3.9c-0.3-1-0.6-1.9-1-2.9c-0.3-0.9-0.8-1.6-1.4-2.3c-0.9-1.1-2.2-1.9-3.5-2.4
			c-2.8-1.1-5.9-1.1-8.7,0.1c-0.8,0.4-1.5,1-2.2,1.6c-0.9,0.9-1.8,2-2.5,3.1c-2,2.7-2.4,7.1-1.4,10.3c0.6,2.4,1.9,4.7,3.6,6.4
			c2.8,2.5,8,2.8,11.5,1.9c2.1-0.5,3.4-2.7,4.4-4.5C111.1,25.5,111.7,22.9,111.7,20.3z M104.6,20.5c0,1.3-0.1,2.5-0.4,3.8
			c-0.3,1-1,3.1-3.4,3.1s-3.1-2.7-3.1-3s-0.2-4.3-0.2-4.8c-0.1-2.3,0.7-5.8,3.6-5.8c1.4-0.2,2.8,0.8,3.1,2.2
			C104.4,17.4,104.6,18.9,104.6,20.5z"/>
		<path class="st0" d="M135.6,19.5c0-0.6-0.1-2.2-0.2-2.9c-1-6.3-9.5-10-14.9-7.4c-2.2,1-3.9,3.7-5,5.7c-0.5,1.3-0.7,2.6-0.7,3.9
			c-0.3,3.1,0.1,6.2,1.2,9.1c0.8,1.3,1.8,2.4,3,3.3c2.3,1.7,5.9,1.5,8.4,0.2c0.4-0.3,0.7-0.6,1.1-1v0.3c0,0.3-0.1,0.7-0.2,1
			c-0.1,0.4-0.3,1.8-0.5,2.2c-0.3,0.6-0.6,1.1-1.1,1.6c-0.7,0.4-1.4,0.8-2.1,1c-0.9,0.2-1.8,0.3-2.8,0.2c-0.6,0-1.2-0.1-1.7-0.2
			c-0.6-0.2-1.3-0.4-1.9-0.7c-0.3-0.1-0.6-0.1-0.8,0.1c-0.2,0.3-0.3,0.6-0.5,0.9c-0.3,0.7-0.5,1.4-0.7,2.2c-0.1,0.6-0.1,1.2-0.1,1.8
			c0.1,0.2,0.1,0.2,0.5,0.4c1.8,0.4,3.6,0.7,5.4,0.9c4.2,0,8.5,0.4,11.1-3.7c0.2-0.3,1-2.1,1.3-2.6s0.8-3,0.9-3.5
			c0.1-0.5,0.3-4.3,0.3-4.5S135.6,20.1,135.6,19.5z M128.4,18.2c0,1.1-0.1,4.6-0.1,4.7c0,0.6,0,1.2-0.1,1.8
			c-0.3,1.3-1.5,2.1-2.8,2.1c-1.3,0-2.5-0.8-3-2.1c-0.2-1-0.4-2.1-0.5-3.1c0-0.5,0.1-3.5,0.1-4c0.1-0.9,0.3-1.8,0.7-2.6
			c0.6-0.8,1.5-1.4,2.5-1.5c0.6,0,1.2,0.2,1.6,0.6c0.5,0.4,0.9,0.8,1.3,1.3C128.5,16.3,128.5,17.2,128.4,18.2z"/>
		<path class="st0" d="M188.6,16.1c-0.1-0.7-0.2-1.5-0.5-2.1c-0.5-1.1-1.2-2.1-2.1-3c-0.8-0.7-1.6-1.3-2.5-1.8
			c-0.4-0.2-1.5-0.6-2.2-0.8c-0.9-0.2-1.9-0.4-2.8-0.4c0,0-0.8,0-1.2,0c-1,0.2-1.9,0.4-2.9,0.8c-0.8,0.4-1.6,1-2.3,1.6
			c-3.1,2.7-3.8,7-3.6,10.8c0.1,1,0.4,3,0.6,4.2c0.7,3.5,4,6.9,7.7,7.2c2.7,0.2,5.5-0.1,8.1-0.8c0.5-0.1,2.2-1,2.4-1.1
			s0.5-0.6,0.5-0.9c0-0.5-0.1-0.9-0.2-1.4c-0.2-0.6-0.4-1.1-0.6-1.7c-0.2-0.3-0.4-0.6-0.8-0.7c-0.2,0-0.3,0-0.5,0.1
			c0,0-0.6,0.3-1,0.5c-0.9,0.2-1.8,0.4-2.6,0.4c-0.6,0.1-1.7,0.1-2,0.1c-0.7,0-1.5-0.2-2.2-0.4c-0.8-0.2-2-2.1-2.1-2.5
			c-0.2-0.5-0.2-1-0.1-1.5c0.1-0.4,0.6-0.5,0.7-0.5s4.3,0.1,4.4,0.1s2.7,0,3.6,0s1.8,0,2.5,0c0.4,0,0.8,0,1.2-0.1
			c0.3-0.1,0.5-0.3,0.6-0.6c0.1-0.5,0.1-1,0.1-1.4C188.8,18.8,188.8,17.5,188.6,16.1z M182,17.4c-0.1,0.4-0.5,0.5-1.1,0.4
			c-1.5-0.1-3-0.1-4.5-0.2c-0.2,0-0.5,0-0.7,0c-0.1,0-0.1-0.6,0-1.4c0.3-1,0.9-1.9,1.6-2.6c0.3-0.3,0.7-0.5,1.1-0.7l0.8-0.1
			c0.5-0.1,1,0.1,1.4,0.4c0.6,0.6,1,1.3,1.3,2C182,16,182.1,16.7,182,17.4z"/>
		<path class="st0" d="M193,32.2c0,0-0.3-4.7-0.3-5.3s0.2-6.4,0.3-6.9s0.3-5.1,0.3-5.6s-0.1-2.3-0.1-3c-0.1-0.6-0.3-1.2-0.7-1.8
			c-0.1-0.1-0.1-0.3,0-0.4c0,0,0.1,0,0.1-0.1c0.9-0.3,1.8-0.5,2.7-0.6c0.7,0.1,1.3,0.2,2,0.4c0.6,0.2,1.2,0.6,1.8,1
			c0.3,0.2,0.5,0.5,0.8,0.8c0.1,0.1,0.4-0.1,0.6-0.1c0.7-0.5,1.5-1,2.2-1.4c0.8-0.4,1.6-0.6,2.5-0.8c1-0.1,2,0,2.9,0.1
			c0.9,0.3,1.8,0.8,2.6,1.4c0.7,0.6,1.3,1.4,1.7,2.2c0.4,0.8,0.6,1.7,0.7,2.6c0,0.8,0.1,2.6,0.1,2.9s0.2,7.9,0.2,7.9
			s-0.1,3.8-0.1,3.9c-0.1,0.5-0.2,1-0.5,1.5c-0.1,0.3-0.3,0.6-0.6,0.7c-0.5,0.2-1,0.3-1.5,0.3c-0.7,0-2,0.1-2.4,0.1
			c-0.6,0-1.1-0.2-1.5-0.5c-1.9-1.9-1.2-5.7-1.3-8.1c0-0.7,0-6.7-0.1-7.2c-0.3-0.6-0.8-1.1-1.4-1.4c-0.6-0.2-1.2-0.2-1.8,0
			c-0.7,0.4-1.3,0.9-1.8,1.4c-0.3,0.5-0.5,1.2-0.5,1.8c0,0.6,0.1,1.5,0.1,2.5s0.2,9.2,0.2,9.2s0,1.1,0,1.2c-0.1,0.2-0.2,0.4-0.4,0.6
			c-0.3,0.2-0.6,0.4-1,0.4c-0.6,0-2,0.1-2.6,0.1s-1.7,0-1.9,0L193,32.2z"/>
		<path class="st0" d="M238,19.7c0-1.3-0.2-2.7-0.5-4c-1-3.1-3.2-5.7-6.2-7.1c-2.6-1.2-6-0.6-8.6,0.2c-1.2,0.5-2.4,1.3-3.3,2.3
			c-0.8,1-1.5,2.1-2.1,3.2c-0.3,0.9-0.5,1.9-0.6,2.9c0,0.5,0,3.8,0,4.4s0.3,2.2,0.4,3c0.4,1.2,0.9,2.4,1.5,3.5
			c0.7,1,1.5,1.9,2.5,2.7c1.1,0.7,2.3,1.3,3.5,1.7c0.8,0.1,1.6,0.2,2.5,0.2c0.9,0,1.8-0.1,2.7-0.4c2-0.6,3.9-1.8,5.2-3.5
			c0.8-1.1,1.5-2.2,2-3.5c0.4-0.8,0.5-1.6,0.6-2.5C237.9,22.2,238.1,21.6,238,19.7z M230.5,23.5c0,1-0.4,2-1.1,2.8
			c-0.6,0.5-1,1.1-1.9,1.1c-0.9-0.1-1.7-0.5-2.3-1.2c-0.6-1.1-1-2.3-1.2-3.5c-0.1-0.9,0-4.9,0-5.2c0.2-0.9,0.5-1.8,0.9-2.5
			c0.4-0.6,0.9-1.1,1.5-1.4c0.3-0.1,0.7-0.2,1-0.2c0.5-0.1,1,0.1,1.4,0.4c0.5,0.3,1,0.7,1.2,1.3c0.5,1.1,0.7,2.3,0.7,3.5
			C230.8,19.8,230.5,22.6,230.5,23.5z"/>
		<path class="st0" d="M238.9,8.8c0.2-0.1,0.5-0.2,0.7-0.2c0.6-0.1,1.1-0.1,1.7-0.1c1.4,0.1,3.9-0.7,4.8,0.8
			c0.5,0.8,0.9,1.7,1.2,2.6c0.1,0.3,0.9,3.3,0.9,3.3l2.1,8.7l0.4,2l0.2,0.1l0.8-4.6l1.7-6.9l1.6-5.5c0.3-0.2,0.6-0.4,0.9-0.4
			c0.5,0,6-0.2,5.8,0.7c0,0.1-0.5,2-0.8,2.9s-2.2,6.7-2.2,6.7l-2.5,9c0,0-0.9,3-0.9,3.1c-0.1,0.3-0.3,0.6-0.6,0.8
			c-1,0.2-2.1,0.3-3.2,0.4c-0.6,0-1.8-0.1-2.6-0.2c-0.9,0-1.8-0.3-2.6-0.8c-0.8-0.6-1.4-2.6-1.6-2.9s-3.1-11.1-3.1-11.1L239,9.5
			C239,9.5,238.7,9,238.9,8.8z"/>
		<path class="st0" d="M270.5,22.5c0.4,0,1.2,0,1.5,0s5.5,0.2,6,0.2s2.2,0,2.8-0.1c0.5-0.1,1.1-0.2,1.5-0.5c0.5-0.3,0.5-1,0.6-1.6
			s-0.1-3.6-0.1-4.4c-0.2-1-0.5-2-0.9-3c-0.6-1.2-1.5-2.3-2.5-3.1c-3.5-2.4-8-2.7-11.7-0.9c-5,2.6-5.3,9.1-4.9,13.9
			c0.3,3.1,1.9,6,4.4,7.8c2.7,2,6,1.9,9.2,1.4c1.1-0.2,2.1-0.6,3.2-1c0.9-0.3,1.7-0.7,2.5-1.2c1.5-0.7-0.1-3.7-1.1-4.2
			c-0.4-0.2-0.9,0-1.7,0.3c-1.1,0.3-2.2,0.6-3.3,0.7c-2.5,0.2-5.6-0.9-6-3.8C269.8,22.8,270.1,22.6,270.5,22.5z M270,17.1
			c0.1-0.4,0.5-2,0.6-2.4c0.3-0.6,0.6-1,1.1-1.4c0.4-0.2,0.7-0.4,1.1-0.5c0.5,0,0.9,0.1,1.4,0.3c0.6,0.3,1,0.8,1.4,1.3
			c0.2,0.5,0.4,0.5,0.5,1.1c0.1,0.6,0.1,1.1,0,1.7c0,0.2-0.2,0.4-0.4,0.4c0,0,0,0,0,0c-0.2,0-2.5,0.1-3,0.1s-2.4,0.1-2.5,0.1
			S269.9,17.4,270,17.1z"/>
		<path class="st0" d="M166,10.3c0,0.9-0.3,1.8-0.6,2.7c-0.3,0.9-0.7,1.7-1.2,2.5c-0.4,0.7-0.9,1.3-1.5,1.8
			c-0.7,0.5-1.6,0.8-2.4,1.3c1.7,0.9,2.9,2.5,3.5,4.3l1,3.3c0.5,1.3,1.2,2.5,2.2,3.5c0.4,0.5,0.7,0.6,0.1,1.1s-1.5,1-1.6,1.1
			c-0.4,0.2-0.8,0.3-1.2,0.4c-0.6,0.1-1.2,0.2-1.9,0.2c-1.1,0-2.1-0.5-2.9-1.2c-0.7-0.9-1.2-1.9-1.5-3.1l-1.7-4.9
			c-0.3-0.8-0.7-1.5-1.3-2.1c-0.7-0.5-1.7-0.8-2.6-0.7c-0.6,0-2-0.4-1.9,0.6v2.4l-0.2,2.8l0.2,5.2V32c-0.7,0.1-1.4,0.1-2.1,0.1
			c-0.5,0-1,0.2-1.6,0.2c-1.2,0.1-2.5,0-3.7-0.3c0,0,0-0.7,0-0.8v-6.9l0.2-15.7l-0.2-8.1l0.3-0.3c2.7-0.1,3.7,0.1,5.6,0.1
			s5-0.2,6.1-0.2c1.4,0,2.8,0.2,4.2,0.6c1.2,0.3,2.4,0.8,3.4,1.6c1,1,1.9,2.2,2.4,3.5C165.6,7.1,166,8.7,166,10.3z M150.6,5.7
			c-0.4,0.5-0.2,1.8-0.2,2.3v6.6c0.2,0,0.3,0,0.5,0c1.8,0,4,0.2,5.5-0.6c0.6-0.3,1.1-0.8,1.4-1.4c0.4-0.8,0.5-1.7,0.5-2.6
			c0.1-1.3-0.3-2.5-1.2-3.5c-1.6-1.5-4.1-1.1-6-1.2C150.9,5.4,150.7,5.5,150.6,5.7z"/>
		<path class="st0" d="M28.7,44.2c0.6-0.5,1.4-0.5,2,0l6.9,6.8c0.6,0.5,1.4,0.5,2,0l1.5-1.5c0.5-0.6,0.5-1.4,0-2l-6.9-6.9
			c-0.5-0.6-0.5-1.4,0-2l3.3-3.3c0.6-0.5,1.4-0.5,2,0l6.9,6.9c0.6,0.5,1.4,0.5,2,0l1.5-1.5c0.5-0.6,0.5-1.4,0-2L34.3,22.8
			c-0.5-0.6-0.5-1.4,0-2l3.3-3.3c0.6-0.5,1.4-0.5,2,0l15.8,15.8c0.6,0.5,1.4,0.5,2,0l1.5-1.5c0.5-0.6,0.5-1.4,0-2L30.7,1.4
			c-0.6-0.5-1.4-0.5-2,0L0.4,29.7c-0.5,0.6-0.5,1.4,0,2L2,33.2c0.6,0.5,1.4,0.5,2,0L28.7,8.5c0.6-0.5,1.4-0.5,2,0l3.3,3.3
			c0.5,0.6,0.5,1.4,0,2L9.3,38.6c-0.5,0.6-0.5,1.4,0,2l1.6,1.5c0.6,0.5,1.4,0.5,2,0l15.8-15.8c0.6-0.5,1.4-0.5,2,0l3.3,3.3
			c0.5,0.6,0.5,1.4,0,2L18.2,47.5c-0.5,0.6-0.5,1.4,0,2l1.5,1.5c0.6,0.5,1.4,0.5,2,0L28.7,44.2z"/>
		<path class="st0" d="M165.8,40.4c0.2,0,0.4,0.1,0.5,0.3c0.4,0.7,0.5,1.5,0.2,2.3c-0.3,0.7-0.5,1.2-0.8,1.8c-1.1,2.5-2.8,4.7-5,6.3
			c-0.7,0.5-1.3,0.9-2.1,1.2c-0.2,0.1-0.3,0-0.5-0.1c-0.4-0.4-0.7-0.7-1.2-1.1c-0.1-0.1-0.1-0.2-0.1-0.3c0,0,0-0.1,0.1-0.1
			c1-0.4,2-1,2.9-1.7c0.9-0.7,1.7-1.6,2.4-2.5c0.9-1.1,1.6-2.4,2-3.8c0-0.1,0-0.2-0.1-0.3c0,0,0,0-0.1,0c-0.3,0-1.1-0.1-1.7-0.1
			c-0.8,0-1.3,0.1-1.8,0.1c-0.3,0-0.6,0.1-0.7,0.4c-0.7,0.9-1.4,1.8-2.2,2.6c-0.6,0.6-1.5,0.6-2.1,0.1c-0.1-0.1-0.2-0.2-0.3-0.2
			c-0.1-0.1-0.1-0.3,0-0.4c0,0,0,0,0,0c0.7-0.5,1.4-1.1,2-1.8c0.6-0.7,1.2-1.5,1.6-2.3c0.2-0.3,0.6-0.5,0.9-0.5h2.2L165.8,40.4z"/>
		<path class="st0" d="M173.9,41.4c0,1-0.2,2.1-0.1,3.1c0,0.6,0.1,1.2,0.1,1.9c0,0.2-0.1,0.3-0.3,0.3h-0.9c-0.5,0-1-0.4-1-1
			c0-0.5,0.1-1,0.1-1.5V43v-1.7v-1.8c0-0.2,0.1-0.3,0.3-0.3c0,0,0,0,0.1,0C173.2,39.4,173.9,40.3,173.9,41.4z M178.9,39.2
			c0-0.2,0.1-0.3,0.3-0.3c0,0,0,0,0.1,0c1.1,0.2,1.8,1.2,1.8,2.2c0.1,1.1,0.1,2.2,0,3.3c-0.1,1.7-0.6,3.4-1.6,4.8
			c-0.7,0.9-1.6,1.6-2.6,2.2c-0.5,0.3-1,0.5-1.5,0.7c-0.4,0-0.6-0.5-0.7-0.8c-0.2-0.4-0.1-1,0.4-1.2c0,0,0,0,0,0
			c0.9-0.3,1.7-0.8,2.4-1.5c0.6-0.7,1.1-1.6,1.3-2.5c0.2-0.9,0.3-1.8,0.4-2.7c0-0.8-0.1-1.7-0.1-2.6L178.9,39.2z"/>
		<path class="st0" d="M193.6,40.2c-0.7,2.8-2.1,5.4-4,7.6c-1.1,1.2-2.5,2.3-4,3.1c-0.2,0.1-0.4,0.2-0.6,0.4c-0.1,0-0.1,0.1-0.2,0.1
			c-0.2,0-0.5-0.5-0.6-0.6c-0.4-0.4-0.4-1,0-1.4c0.1,0,0.1-0.1,0.2-0.1c1.9-0.9,3.6-2.4,4.9-4.2c0.7-1.1,1.2-2.2,1.6-3.4
			c0.3-0.9,0.5-1.8,0.6-2.7c0-0.1,0.1-0.2,0.2-0.2c0,0,0,0,0.1,0c0.6,0.3,1.2,0.6,1.7,0.9C193.6,39.9,193.6,40.1,193.6,40.2z"/>
		<path class="st0" d="M197.1,46.7c-0.5-0.5-0.5-1.2,0-1.7c0,0,0,0,0,0c1.3-1.2,2.3-2.5,3.5-3.8c0.7-1,2.1-1.2,3.1-0.5
			c0.2,0.1,0.3,0.2,0.4,0.4c1.1,1.2,2,2.6,3.1,3.8c1,1.2,2.1,2.3,3.2,3.3c0.1,0.1,0.2,0.3,0.1,0.4c-0.3,0.4-0.6,0.9-0.9,1.3
			c-0.1,0.1-0.3,0.1-0.4,0c0,0,0,0,0,0c-0.8-0.7-1.4-1.5-2.1-2.4c-0.4-0.5-0.8-1-1.1-1.5c-0.5-0.7-1-1.3-1.6-1.9
			c-1.2-1.5-1.4-1.7-1.8-1.7c-0.6,0-1.1,0.5-1.4,1s-0.9,1-1.3,1.5c-0.7,0.8-1.3,1.7-1.8,2.2c-0.1,0.1-0.3,0.1-0.5,0L197.1,46.7z"/>
		<path class="st0" d="M151.4,42.8c0-1.2-0.4-2.3-1.6-2.3l-8.9,0.1c-0.5,0-0.9,0.4-0.9,0.9c0,0.1,0,0.3,0,0.4c0.1,3,0.1,6,0,8.9
			c0,0.2,0.2,0.4,0.4,0.4l0,0h10.6c0.3,0,0.5-0.2,0.5-0.5c0,0,0,0,0,0l-0.1-2.6L151.4,42.8z M149.2,49.3c-0.1,0-0.1,0-0.2,0
			c-1.1,0.1-2.3,0.2-3.4,0.2c-1.2,0-2.5-0.1-3.7-0.3c0-1,0.1-2,0.1-3c0-1.2-0.1-2.3-0.1-3.5c0-0.2,0.2-0.3,0.4-0.3l0,0h0.4
			c1,0,1.2-0.1,2.2-0.1h1.9c0.4,0,1.2,0.1,1.5,0.2c0.5,0,0.8,0.4,0.8,0.8c0,0,0,0,0,0c0,0.5,0,1,0,1.6c0,0.5,0,1.1,0,1.6s0,1,0,1.5
			v0.8C149.2,48.7,149.3,49.2,149.2,49.3z"/>
		<path class="st0" d="M208.6,40.1c0.2,0.3,0.5,0.5,0.7,0.8l-0.2,0.3c-0.3,0.4-0.9,0.4-1.3,0.1c0,0,0,0-0.1-0.1
			c-0.3-0.3-0.6-0.6-1-0.9l0.1-0.1C207.3,39.7,208.1,39.6,208.6,40.1C208.6,40.1,208.6,40.1,208.6,40.1z"/>
		<path class="st0" d="M210.1,38.7c0.2,0.3,0.5,0.5,0.7,0.7c-0.1,0.1-0.2,0.2-0.3,0.2c-0.4,0.4-0.9,0.4-1.3,0c0,0,0,0,0,0
			c-0.3-0.3-0.6-0.6-0.9-0.9l0.1-0.1C208.8,38.2,209.6,38.2,210.1,38.7z"/>
		<path class="st0" d="M166.1,38.2c0.3,0.2,0.5,0.5,0.7,0.8c-0.1,0.1-0.4,0.2-0.7,0.4c-0.3,0.2-0.6,0.1-0.9-0.1
			c-0.3-0.4-0.6-0.7-1-1l0.3-0.2C165.1,37.7,165.7,37.8,166.1,38.2z"/>
		<path class="st0" d="M168.7,37.7c0.3,0.3,0.5,0.5,0.6,0.7l-0.7,0.5c-0.2,0.2-0.6,0.1-0.7-0.1c-0.3-0.4-0.7-0.8-1.1-1.2l0.1-0.1
			C167.5,37.1,168.2,37.2,168.7,37.7z"/>
	</g>
</g>
</svg>
