<svg width="440" height="46" viewBox="0 0 440 46" fill="none" xmlns="http://www.w3.org/2000/svg">
<path d="M6.01138 16.7115C6.26719 16.7115 6.39509 16.5836 6.39509 16.3278V13.6419C6.39509 13.6419 6.39509 13.5139 6.26719 13.5139H6.13929C6.01138 13.6418 5.75558 13.8977 5.62768 14.0256C5.11607 14.5372 4.34866 14.793 3.70915 14.793C2.94174 14.793 2.17433 14.5372 1.53482 14.0256C1.40692 13.8977 1.27902 13.8977 1.15112 13.7698C0.639509 13.2581 0.383705 12.7465 0.383705 12.107C0.383705 11.4675 0.639509 10.828 1.15112 10.4443C3.70915 8.39788 5.75558 5.96774 7.5462 3.15391C7.92991 2.5144 8.56942 2.00279 9.20893 1.61908C9.59263 1.49118 10.1042 1.36328 10.4879 1.36328C10.7437 1.36328 10.9996 1.36328 11.3833 1.49118L11.6391 1.61908C12.2786 1.74699 12.7902 2.25859 13.046 2.8981C13.1739 3.15391 13.1739 3.40971 13.1739 3.79341C13.1739 4.17712 13.046 4.43292 12.9181 4.81663C12.9181 4.94453 12.7902 5.20033 12.6623 5.32824C12.6623 5.32824 12.5344 5.45614 12.6623 5.45614L12.7902 5.58404H38.4984C39.1379 5.58404 39.7775 5.83984 40.2891 6.35145C40.6728 6.86306 40.9286 7.50257 40.9286 8.14207C40.9286 8.78158 40.6728 9.42109 40.1612 9.9327C39.6495 10.4443 39.1379 10.7001 38.3705 10.7001H36.7078C36.452 10.7001 36.3241 10.828 36.3241 11.0838V16.4557C36.3241 16.7115 36.452 16.8394 36.7078 16.8394H40.0333C40.6728 16.8394 41.3123 17.0952 41.8239 17.6068C42.3355 18.1184 42.5913 18.7579 42.5913 19.3974C42.5913 20.0369 42.3355 20.6764 41.8239 21.1881C41.3123 21.6997 40.8007 21.9555 40.0333 21.9555H36.7078C36.452 21.9555 36.3241 22.0834 36.3241 22.3392V27.711C36.3241 27.9668 36.452 28.0947 36.7078 28.0947H39.3937C40.1612 28.0947 40.6728 28.3506 41.1844 28.8622C41.696 29.3738 41.9518 30.0133 41.9518 30.6528C41.9518 31.2923 41.696 31.9318 41.1844 32.4434C40.6728 32.955 40.1612 33.2108 39.3937 33.2108H3.19754C2.43013 33.2108 1.91853 32.955 1.40692 32.4434C0.895312 31.9318 0.639509 31.2923 0.639509 30.6528C0.639509 30.0133 0.895312 29.3738 1.40692 28.8622C1.91853 28.3506 2.43013 28.0947 3.19754 28.0947H6.01138C6.26719 28.0947 6.39509 27.9668 6.39509 27.711V22.3392C6.39509 22.0834 6.26719 21.9555 6.01138 21.9555H2.55804C1.79062 21.9555 1.27902 21.6997 0.767411 21.1881C0.255804 20.5485 0 19.909 0 19.2695C0 18.63 0.255804 17.9905 0.767411 17.4789C1.27902 16.9673 1.79062 16.7115 2.55804 16.7115H6.01138ZM6.65089 43.0593C6.13928 43.6988 5.49978 44.0825 4.73237 44.3383C4.47656 44.3383 4.09286 44.4662 3.83705 44.4662C3.32545 44.4662 2.81384 44.3383 2.43013 44.2104L2.17433 44.0825C1.53482 43.8267 1.15112 43.443 1.02321 42.6755C1.02321 42.5476 1.02321 42.2918 1.02321 42.1639C1.02321 41.7802 1.15112 41.2686 1.40692 40.8849C2.43013 39.6059 3.32545 38.0711 3.96495 36.4084C4.22076 35.641 4.73237 35.1293 5.49978 34.7456C6.01138 34.4898 6.39509 34.3619 6.9067 34.3619C7.1625 34.3619 7.4183 34.3619 7.5462 34.4898H7.67411C8.44152 34.6177 8.95312 35.1293 9.33683 35.7689C9.59263 36.1526 9.72053 36.5363 9.72053 36.92C9.72053 37.1758 9.72053 37.4316 9.59263 37.8153C8.69732 39.7338 7.67411 41.3965 6.65089 43.0593ZM11.6391 10.7001C11.5112 10.7001 11.3833 10.828 11.3833 10.9559V16.3278C11.3833 16.5836 11.5112 16.7115 11.767 16.7115H14.4529C14.7087 16.7115 14.8366 16.5836 14.8366 16.3278V10.9559C14.8366 10.7001 14.7087 10.5722 14.4529 10.5722H11.6391V10.7001ZM11.6391 21.6997C11.3833 21.6997 11.2554 21.8276 11.2554 22.0834V27.4552C11.2554 27.711 11.3833 27.8389 11.6391 27.8389H14.325C14.5808 27.8389 14.7087 27.711 14.7087 27.4552V22.0834C14.7087 21.8276 14.5808 21.6997 14.325 21.6997H11.6391ZM13.8134 38.0711C13.8134 37.9432 13.8134 37.8153 13.8134 37.6874C13.8134 37.0479 13.9413 36.5363 14.325 36.1526C14.7087 35.5131 15.3482 35.2572 15.9877 35.1293C16.1156 35.1293 16.2435 35.1293 16.3714 35.1293C17.0109 35.1293 17.5225 35.2572 18.0341 35.6409C18.6737 36.0247 19.0574 36.6642 19.1853 37.4316C19.3132 38.7106 19.569 39.8617 19.6969 41.0128C19.6969 41.1407 19.6969 41.2686 19.6969 41.3965C19.6969 42.036 19.4411 42.5476 19.0574 43.0593C18.5458 43.6988 17.9062 43.9546 17.1388 44.0825H17.0109C16.883 44.0825 16.7551 44.0825 16.6272 44.0825C15.9877 44.0825 15.4761 43.9546 15.0924 43.5709C14.5808 43.0593 14.1971 42.4197 14.1971 41.7802C14.0692 40.6291 13.9413 39.3501 13.8134 38.0711ZM19.4411 16.3278C19.4411 16.5836 19.569 16.7115 19.8248 16.7115H22.6386C22.8944 16.7115 23.0223 16.5836 23.0223 16.3278V10.9559C23.0223 10.7001 22.8944 10.5722 22.6386 10.5722H19.8248C19.569 10.5722 19.4411 10.7001 19.4411 10.9559V16.3278ZM23.0223 22.0834C23.0223 21.8276 22.8944 21.6997 22.6386 21.6997H19.8248C19.569 21.6997 19.4411 21.8276 19.4411 22.0834V27.4552C19.4411 27.711 19.569 27.8389 19.8248 27.8389H22.6386C22.8944 27.8389 23.0223 27.711 23.0223 27.4552V22.0834ZM23.6618 38.0711C23.6618 37.8153 23.5339 37.5595 23.5339 37.4316C23.5339 37.0479 23.6618 36.5363 23.9176 36.2805C24.3013 35.6409 24.8129 35.2572 25.4525 35.2572C25.5804 35.2572 25.8362 35.1293 26.092 35.1293C26.6036 35.1293 27.1152 35.2572 27.6268 35.6409C28.3942 36.0247 28.7779 36.5363 29.0337 37.3037C29.4174 38.5827 29.8011 39.7338 30.1848 41.0128C30.1848 41.2686 30.3127 41.5244 30.3127 41.6523C30.3127 42.1639 30.1848 42.5476 29.929 43.0593C29.5453 43.6988 28.9058 44.0825 28.2663 44.2104L28.0105 44.3383C27.8826 44.3383 27.6268 44.3383 27.4989 44.3383C26.9873 44.3383 26.4757 44.2104 25.9641 43.8267C25.3245 43.443 24.9408 42.8035 24.8129 42.1639C24.4292 40.757 24.0455 39.478 23.6618 38.0711ZM30.9522 16.7115C31.208 16.7115 31.3359 16.5836 31.3359 16.3278V10.9559C31.3359 10.7001 31.208 10.5722 30.9522 10.5722H28.1384C27.8826 10.5722 27.7547 10.7001 27.7547 10.9559V16.3278C27.7547 16.5836 27.8826 16.7115 28.1384 16.7115H30.9522ZM30.9522 27.8389C31.208 27.8389 31.3359 27.711 31.3359 27.4552V22.0834C31.3359 21.8276 31.208 21.6997 30.9522 21.6997H28.1384C27.8826 21.6997 27.7547 21.8276 27.7547 22.0834V27.4552C27.7547 27.711 27.8826 27.8389 28.1384 27.8389H30.9522ZM33.6382 37.5595C33.3824 37.1758 33.2545 36.7921 33.2545 36.4084C33.2545 36.1526 33.2545 35.8968 33.3824 35.7689C33.6382 35.1293 34.0219 34.7456 34.7893 34.4898H34.9172C35.3009 34.3619 35.6846 34.3619 36.0683 34.3619C36.452 34.3619 36.8357 34.3619 37.2194 34.4898C37.9868 34.7456 38.6263 35.2572 39.1379 35.8968C40.417 37.6874 41.4402 39.3501 42.2076 40.757C42.3355 41.1407 42.4634 41.3965 42.4634 41.7802C42.4634 42.036 42.4634 42.4197 42.3355 42.6755C42.0797 43.3151 41.5681 43.8267 40.8007 44.0825L40.417 44.2104C40.1612 44.3383 39.7775 44.3383 39.5216 44.3383C39.1379 44.3383 38.7542 44.2104 38.3705 44.0825C37.6031 43.8267 37.0915 43.3151 36.7078 42.5476C35.8125 41.1407 34.7893 39.478 33.6382 37.5595Z" fill="#8C7D60"/>
<path d="M69.9622 18.63C69.7064 18.63 69.5785 18.7579 69.5785 19.0137V19.909C69.5785 20.6764 69.5785 21.6996 69.4506 23.2344C69.4506 23.4902 69.5785 23.6181 69.8343 23.6181H87.2289C87.9963 23.6181 88.6358 23.8739 89.1475 24.3855C89.6591 24.8972 89.9149 25.5367 89.9149 26.3041V42.1639C89.9149 42.9313 89.6591 43.5708 89.1475 44.0824C88.6358 44.594 87.9963 44.8498 87.2289 44.8498H86.7173C86.0778 44.8498 85.5662 44.594 85.1825 44.2103C84.7988 43.8266 84.543 43.1871 84.543 42.6755C84.543 42.5476 84.4151 42.4197 84.1593 42.4197H74.8225C74.5667 42.4197 74.4388 42.5476 74.4388 42.6755C74.4388 43.315 74.1829 43.9545 73.7992 44.3382C73.2876 44.8498 72.776 44.9777 72.1365 44.9777H71.8807C71.1133 44.9777 70.4738 44.7219 69.9622 44.2103C69.4506 43.6987 69.0669 43.1871 69.0669 42.4197V28.2226C68.2995 33.9782 66.5088 38.7105 63.9508 42.2918C63.5671 42.8034 63.0555 43.1871 62.2881 43.1871C61.6486 43.1871 61.0091 42.9313 60.4975 42.2918L60.3696 42.1639C59.8579 41.6523 59.4742 41.0128 59.4742 40.2454C59.4742 40.1175 59.4742 39.9896 59.4742 39.8617C59.4742 39.3501 59.6021 38.8384 59.9859 38.3268C61.3928 36.1525 62.5439 33.7224 63.1834 30.9085V30.7806H63.0555C59.8579 32.3155 56.1488 34.1061 51.6722 36.0246C51.2885 36.1525 51.0327 36.2804 50.649 36.2804C50.2653 36.2804 50.0095 36.1525 49.6258 36.0246C48.9863 35.7688 48.4747 35.2572 48.2189 34.4898L47.8352 33.9782C47.7073 33.7224 47.7073 33.3387 47.7073 33.0829C47.7073 32.6992 47.8352 32.3155 47.9631 31.9317C48.3468 31.1643 48.8584 30.7806 49.4979 30.5248C50.3932 30.1411 51.4164 29.7574 52.1838 29.5016C52.4396 29.3737 52.5675 29.2458 52.5675 28.99V16.8393C52.5675 16.5835 52.4396 16.4556 52.1838 16.4556H50.649C49.8816 16.4556 49.2421 16.1998 48.7305 15.6882C48.2189 15.1766 47.9631 14.5371 47.9631 13.7697C47.9631 13.0023 48.2189 12.3628 48.7305 11.8512C49.2421 11.3396 49.8816 11.0838 50.649 11.0838H52.1838C52.4396 11.0838 52.5675 10.9559 52.5675 10.7001V3.66546C52.5675 2.89805 52.8233 2.38644 53.335 1.87483C53.8466 1.36323 54.4861 1.10742 55.2535 1.10742C56.0209 1.10742 56.6604 1.36323 57.172 1.87483C57.6836 2.38644 57.9394 3.02595 57.9394 3.66546V10.828C57.9394 11.0838 58.0673 11.2117 58.3231 11.2117H59.73C60.4975 11.2117 61.137 11.4675 61.6486 11.9791C62.1602 12.4907 62.416 13.1302 62.416 13.8976C62.416 14.665 62.1602 15.3045 61.6486 15.8161C61.137 16.3277 60.4975 16.5835 59.73 16.5835H58.3231C58.0673 16.5835 57.9394 16.7114 57.9394 16.9672V26.9436C57.9394 26.9436 57.9394 27.0715 58.0673 27.0715C58.1952 27.0715 58.1952 27.0715 58.3231 27.0715L59.8579 26.432C60.1137 26.3041 60.3696 26.3041 60.7533 26.3041C61.137 26.3041 61.5207 26.432 61.7765 26.5599C62.416 26.9436 62.7997 27.4552 62.9276 28.0947L63.3113 29.6295C63.3113 29.6295 63.3113 29.6295 63.4392 29.6295H63.5671C64.0787 26.9436 64.3345 23.6181 64.3345 19.7811V6.35139C64.3345 5.71189 64.5903 5.07238 65.2298 4.68867C65.6135 4.43287 65.9972 4.30497 66.3809 4.30497C66.6367 4.30497 66.7646 4.30497 67.0204 4.43287L67.5321 4.56077C67.7879 4.56077 68.0437 4.68867 68.1716 4.56077C73.9271 3.66546 78.7874 2.77014 82.8803 1.61903C83.264 1.49113 83.7756 1.49113 84.1593 1.49113C84.543 1.49113 84.9267 1.49113 85.3104 1.61903C86.2057 1.87483 86.8452 2.25854 87.3568 2.77014L87.9963 3.40965C88.2521 3.66546 88.5079 4.04916 88.5079 4.56077C88.5079 4.68867 88.5079 4.81657 88.5079 5.07238C88.38 5.71189 87.9963 6.09559 87.3568 6.22349C82.4966 7.50251 76.741 8.52572 69.9622 9.42104C69.7064 9.42104 69.5785 9.54894 69.5785 9.80474V13.1302C69.5785 13.386 69.7064 13.5139 69.9622 13.5139H89.1475C89.9149 13.5139 90.5544 13.7697 91.066 14.2813C91.5776 14.7929 91.8334 15.4324 91.8334 16.1998C91.8334 16.9672 91.5776 17.6068 91.066 18.1184C90.5544 18.63 89.9149 18.8858 89.1475 18.8858H69.9622V18.63ZM84.4151 28.99C84.4151 28.7342 84.2872 28.6063 84.0314 28.6063H74.6946C74.4388 28.6063 74.3108 28.7342 74.3108 28.99V36.9199C74.3108 37.1757 74.4388 37.3036 74.6946 37.3036H84.0314C84.2872 37.3036 84.4151 37.1757 84.4151 36.9199V28.99Z" fill="#8C7D60"/>
<path d="M115.24 22.4669C115.751 22.9785 116.135 23.746 116.135 24.5134C116.135 24.6413 116.135 24.6413 116.135 24.7692C116.135 25.5366 115.879 26.1761 115.495 26.6877L115.367 26.9435C114.984 27.4551 114.472 27.7109 113.833 27.7109C113.193 27.7109 112.681 27.4551 112.298 26.9435C111.53 25.9203 110.763 24.7692 109.996 23.746H109.868C109.868 23.746 109.74 23.746 109.74 23.8739V42.2917C109.74 43.0591 109.484 43.6986 108.972 44.2102C108.461 44.7218 107.821 44.9776 107.054 44.9776H106.798C106.031 44.9776 105.391 44.7218 104.879 44.2102C104.368 43.6986 104.112 43.0591 104.112 42.2917V26.9435C104.112 26.9435 104.112 26.9435 103.984 26.9435H103.856C102.577 30.141 101.17 32.827 99.7634 35.0013C99.5076 35.385 99.1239 35.6408 98.6123 35.6408C98.4844 35.6408 98.4844 35.6408 98.3565 35.6408C97.717 35.6408 97.3333 35.2571 97.0774 34.7455C96.9495 34.4897 96.8216 34.2339 96.6937 33.9781C96.31 33.3386 96.1821 32.6991 96.1821 31.9317C96.1821 31.8038 96.1821 31.8038 96.1821 31.6759C96.1821 30.7806 96.5658 30.141 96.9495 29.5015C99.6355 25.7924 101.682 21.3158 103.089 16.1997C103.089 16.0718 103.089 16.0718 103.089 15.9439C103.089 15.816 102.961 15.816 102.833 15.816H99.2518C98.4844 15.816 97.8449 15.5602 97.3332 15.0486C96.8216 14.537 96.5658 13.8975 96.5658 13.1301C96.5658 12.3627 96.8216 11.7232 97.3332 11.2116C97.8449 10.7 98.4844 10.4442 99.2518 10.4442H103.473C103.728 10.4442 103.856 10.3163 103.856 10.0605V3.40957C103.856 2.64216 104.112 2.00265 104.624 1.49104C105.391 0.979436 106.158 0.723633 106.926 0.723633H107.182C107.949 0.723633 108.589 0.979436 109.1 1.49104C109.612 2.00265 109.868 2.64216 109.868 3.40957V10.0605C109.868 10.3163 109.996 10.4442 110.251 10.4442H113.193C113.96 10.4442 114.6 10.7 115.112 11.2116C115.623 11.7232 115.879 12.3627 115.879 13.1301C115.879 13.8975 115.623 14.537 115.112 15.0486C114.6 15.5602 113.96 15.816 113.193 15.816H110.251C109.996 15.816 109.868 15.9439 109.868 16.1997V16.7114C109.868 16.9672 109.996 17.223 110.123 17.3509C111.275 18.3741 113.065 20.1647 115.24 22.4669ZM137.622 10.5721C138.39 10.5721 139.029 10.8279 139.541 11.3395C140.052 11.8511 140.308 12.4906 140.308 13.258C140.308 14.0254 140.052 14.6649 139.541 15.1765C139.029 15.6881 138.39 15.9439 137.622 15.9439H136.088C135.832 15.9439 135.704 16.0718 135.704 16.3276V38.1988C135.704 39.8616 135.448 41.0127 135.064 41.908C134.681 42.8033 134.041 43.4428 133.018 43.8265C131.739 44.466 129.692 44.8497 126.751 44.8497C126.751 44.8497 126.751 44.8497 126.623 44.8497C125.855 44.8497 125.216 44.5939 124.576 44.2102C123.937 43.6986 123.553 43.0591 123.297 42.2917C123.297 42.1638 123.169 41.908 123.169 41.7801C123.042 41.5243 123.042 41.3964 123.042 41.1406C123.042 40.7569 123.169 40.5011 123.425 40.1174C123.809 39.6058 124.193 39.35 124.832 39.35C125.983 39.35 127.134 39.35 128.413 39.35C128.797 39.35 129.181 39.2221 129.309 39.0942C129.437 38.9663 129.565 38.7105 129.565 38.1988V24.1297C129.565 24.1297 129.565 24.0018 129.437 24.0018C129.437 24.0018 129.309 24.0018 129.309 24.1297C126.239 28.9899 122.786 33.0828 118.949 36.5361C118.437 36.9198 117.925 37.1756 117.414 37.1756C117.286 37.1756 117.158 37.1756 117.03 37.1756C116.263 37.0477 115.751 36.7919 115.24 36.1524C115.112 36.0245 114.984 35.7687 114.728 35.6408C114.344 35.1292 114.088 34.6176 114.088 34.106C114.088 33.3386 114.344 32.6991 114.984 32.1875C117.414 30.2689 119.716 27.9667 122.018 25.1529C124.193 22.339 126.111 19.5252 127.646 16.4556C127.646 16.4556 127.646 16.3276 127.646 16.1997C127.646 16.0718 127.518 16.0718 127.39 16.0718H119.46C118.693 16.0718 118.053 15.816 117.542 15.3044C117.03 14.7928 116.774 14.1533 116.774 13.3859C116.774 12.6185 117.03 11.979 117.542 11.4674C118.053 10.9558 118.693 10.7 119.46 10.7H129.053C129.309 10.7 129.437 10.5721 129.437 10.3163V3.53747C129.437 2.77006 129.692 2.13055 130.204 1.61895C130.716 1.10734 131.355 0.851535 132.123 0.851535H132.634C133.402 0.851535 134.041 1.10734 134.553 1.61895C135.064 2.13055 135.32 2.77006 135.32 3.53747V10.1884C135.32 10.4442 135.448 10.5721 135.704 10.5721H137.622Z" fill="#8C7D60"/>
<path d="M149.133 7.11893C149.133 6.35152 149.389 5.83991 149.773 5.2004C150.285 4.6888 150.924 4.43299 151.691 4.43299H153.226C153.994 4.43299 154.633 4.6888 155.145 5.2004C155.656 5.71201 155.912 6.35152 155.912 7.11893C155.912 7.37473 155.912 7.63054 155.912 8.01424V24.1299C155.912 24.5136 155.912 25.0252 155.912 25.5368C155.912 26.3042 155.656 26.8158 155.145 27.4553C154.633 27.9669 153.994 28.3506 153.226 28.3506H151.691C150.924 28.3506 150.285 28.0948 149.773 27.4553C149.261 26.9437 149.133 26.4321 149.133 25.6647V25.5368C149.133 25.0252 149.133 24.5136 149.133 24.1299V8.14215V7.11893ZM171.005 6.60732C171.005 5.96782 171.26 5.32831 171.644 4.8167C172.156 4.30509 172.667 3.92139 173.435 3.92139H174.97C175.737 3.92139 176.376 4.17719 176.888 4.8167C177.4 5.32831 177.656 5.96782 177.656 6.60732C177.656 6.60732 177.656 6.60732 177.656 6.73523C177.656 7.37473 177.656 8.14215 177.656 8.78165V18.2464C177.656 23.1067 177.272 26.8158 176.376 29.5017C175.481 32.1877 174.074 34.6178 172.156 36.6642C169.981 38.9665 167.04 41.0129 163.203 42.5477C162.691 42.6756 162.179 42.8035 161.796 42.8035C161.54 42.8035 161.156 42.8035 160.9 42.6756C160.133 42.4198 159.366 42.0361 158.854 41.5245L157.703 40.2455C157.447 39.9897 157.191 39.606 157.191 39.2223C157.191 39.0944 157.191 38.8386 157.319 38.7107C157.447 38.0712 157.831 37.6875 158.47 37.5596C162.307 36.4084 165.249 34.6178 167.423 32.3156C168.958 30.525 169.981 28.7343 170.493 26.6879C171.005 24.6415 171.26 21.6997 171.26 17.7348V8.78165L171.005 6.60732Z" fill="#8C7D60"/>
<path d="M211.166 6.99076C211.294 6.22335 211.677 5.71175 212.317 5.32804C212.701 5.07224 213.212 4.94434 213.724 4.94434C213.98 4.94434 214.107 4.94434 214.363 5.07224L216.538 5.58384C217.177 5.71175 217.689 6.09545 218.072 6.73496C218.2 7.11867 218.328 7.50237 218.328 7.75817C218.328 8.01398 218.328 8.39768 218.2 8.65349C218.072 9.03719 217.945 9.4209 217.689 10.0604C217.433 10.6999 217.305 11.0836 217.177 11.3394C214.363 19.0135 211.422 24.897 208.224 28.7341C206.305 31.1642 204.003 33.4664 201.317 35.7687C198.631 38.0709 195.818 39.8615 192.748 41.3963C192.236 41.6521 191.725 41.78 191.213 41.78C190.957 41.78 190.701 41.78 190.446 41.6521C189.678 41.5242 188.911 41.1405 188.399 40.501L186.864 38.8383C186.481 38.4546 186.353 38.0709 186.353 37.6872C186.353 37.5593 186.353 37.4314 186.353 37.1756C186.481 36.5361 186.864 36.1524 187.504 35.8966C190.574 34.6175 193.515 32.9548 196.073 31.0363C198.631 29.1178 201.061 26.9434 202.98 24.6412C204.899 22.339 206.561 19.653 207.968 16.4555C209.119 13.3859 210.27 10.1883 211.166 6.99076Z" fill="#8C7D60"/>
<path d="M229.072 30.9087C228.688 31.5482 228.177 31.804 227.409 31.9319C227.281 31.9319 227.281 31.9319 227.154 31.9319C226.514 31.9319 226.002 31.6761 225.619 31.2924L223.828 29.3738C223.316 28.8622 223.061 28.3506 223.061 27.5832C223.061 26.8158 223.316 26.1763 223.956 25.5368C224.468 25.0252 225.107 24.5136 225.875 23.7462C226.386 23.2346 227.026 22.5951 227.793 21.5718C228.56 20.6765 229.328 19.7812 229.967 19.0138C230.607 18.2464 231.502 17.2232 232.653 15.8163C233.804 14.4093 234.572 13.514 235.083 12.8745C236.49 11.0839 237.897 10.1886 239.304 10.1886C239.432 10.1886 239.432 10.1886 239.56 10.1886C240.967 10.1886 242.502 10.956 244.42 12.4908C246.85 14.5372 250.048 17.7348 254.141 22.0835C260.408 28.9901 263.733 32.5714 263.989 32.8272C264.501 33.3388 264.757 34.1062 264.757 34.8736C264.757 35.641 264.501 36.4084 263.989 36.9201L262.582 38.4549C262.071 38.9665 261.559 39.2223 260.92 39.2223H260.792C260.024 39.2223 259.513 38.8386 259.129 38.327C256.059 34.4899 253.246 31.1645 250.687 28.0948C249.153 26.1763 247.49 24.3857 245.827 22.4672C244.164 20.5486 242.885 19.2696 241.99 18.6301C241.223 17.8627 240.583 17.6069 240.072 17.6069C240.072 17.6069 240.072 17.6069 239.944 17.6069C239.432 17.6069 238.793 18.1185 238.153 18.8859C237.641 19.6533 236.874 20.5486 235.979 21.6997C235.083 22.8509 234.188 24.1299 233.037 25.5368C232.014 26.9437 231.246 27.9669 230.863 28.4785C230.095 29.3738 229.584 30.1413 229.072 30.9087ZM251.071 11.5955C250.815 11.2118 250.687 10.956 250.687 10.5723C250.687 10.4444 250.687 10.1886 250.815 10.0607C250.943 9.54908 251.327 9.16537 251.839 8.90957C252.222 8.78167 252.478 8.65377 252.862 8.65377C253.118 8.65377 253.373 8.65377 253.629 8.78167C254.269 8.90957 254.78 9.29327 255.036 9.93278C255.804 11.2118 256.571 12.4908 257.21 13.6419C257.338 13.8977 257.466 14.2814 257.466 14.6651C257.466 14.921 257.466 15.1768 257.338 15.4326C257.083 16.0721 256.699 16.4558 256.187 16.7116C255.931 16.8395 255.548 16.9674 255.292 16.9674C255.036 16.9674 254.78 16.9674 254.397 16.8395C253.757 16.5837 253.373 16.2 253.118 15.6884C252.35 14.0256 251.711 12.7466 251.071 11.5955ZM257.466 9.16537C257.21 8.78167 257.083 8.52586 257.083 8.14216C257.083 8.01426 257.083 7.75845 257.083 7.63055C257.21 7.11894 257.594 6.73524 258.106 6.47944C258.49 6.35153 258.873 6.22363 259.257 6.22363C259.513 6.22363 259.769 6.22363 260.024 6.35153C260.664 6.47944 261.175 6.86314 261.559 7.37475C262.327 8.52586 263.094 9.80488 263.733 10.956C263.861 11.2118 263.989 11.5955 263.989 11.9792C263.989 12.235 263.989 12.3629 263.861 12.6187C263.606 13.2582 263.222 13.6419 262.71 13.8977C262.327 14.0256 262.071 14.1535 261.687 14.1535C261.431 14.1535 261.175 14.1535 260.92 14.0256C260.28 13.7698 259.896 13.3861 259.513 12.8745C259.001 11.4676 258.234 10.1886 257.466 9.16537Z" fill="#8C7D60"/>
<path d="M271.024 26.3041C270.256 26.3041 269.617 26.0483 269.105 25.6646C268.594 25.153 268.21 24.5135 268.21 23.746V21.6996C268.21 20.9322 268.466 20.2927 269.105 19.7811C269.617 19.2695 270.129 19.0137 270.896 19.0137H271.024C272.814 19.1416 274.477 19.1416 275.884 19.1416H301.465C302.36 19.1416 303.255 19.1416 304.278 19.0137H304.406C305.046 19.0137 305.685 19.2695 306.069 19.6532C306.581 20.1648 306.964 20.8043 306.964 21.5717V23.746C306.964 24.5135 306.708 25.153 306.069 25.6646C305.557 26.1762 305.046 26.3041 304.278 26.3041H304.15C302.999 26.3041 302.104 26.3041 301.337 26.3041H275.756C274.349 26.1762 272.687 26.1762 271.024 26.3041Z" fill="#8C7D60"/>
<path d="M316.045 20.804C315.406 20.4203 315.022 19.9087 314.766 19.1413C314.766 18.8855 314.638 18.7576 314.638 18.5018C314.638 17.9902 314.766 17.6065 315.022 17.0949L315.534 16.4554C315.917 15.8158 316.557 15.4321 317.324 15.1763C317.58 15.1763 317.836 15.0484 318.092 15.0484C318.603 15.0484 318.987 15.1763 319.499 15.4321C321.545 16.5833 323.592 17.8623 325.638 19.2692C326.278 19.6529 326.661 20.2924 326.789 20.9319C326.789 21.1877 326.789 21.3156 326.789 21.5714C326.789 22.083 326.661 22.5946 326.278 23.1062L325.766 23.8737C325.382 24.5132 324.743 24.8969 324.103 25.0248C323.847 25.0248 323.719 25.0248 323.464 25.0248C322.952 25.0248 322.44 24.8969 321.929 24.6411C319.882 23.1062 317.836 21.8272 316.045 20.804ZM321.801 42.6752C321.545 42.8031 321.289 42.8031 320.906 42.8031C320.394 42.8031 320.01 42.6752 319.499 42.4194C318.731 42.0357 318.22 41.5241 317.836 40.8846L316.941 39.3498C316.813 39.094 316.685 38.7103 316.685 38.4545C316.685 38.1987 316.813 37.9428 316.941 37.5591C317.196 36.9196 317.708 36.5359 318.348 36.408C323.464 35.3848 327.94 33.7221 331.905 31.5478C335.486 29.6292 338.684 27.327 341.626 24.6411C344.567 21.9551 346.998 19.1413 349.044 16.0716C349.3 15.56 349.811 15.3042 350.451 15.3042C351.09 15.3042 351.474 15.56 351.858 16.1996L352.753 17.8623C353.137 18.5018 353.393 19.2692 353.393 20.0366C353.393 20.9319 353.137 21.8272 352.497 22.4667C348.021 28.3502 342.265 33.2105 335.231 37.3033C331.138 39.7335 326.661 41.3962 321.801 42.6752ZM323.336 9.93236C322.696 9.54866 322.313 8.90915 322.185 8.26964C322.185 8.01384 322.057 7.88594 322.057 7.63013C322.057 7.11853 322.185 6.73482 322.44 6.22321L322.952 5.58371C323.336 4.9442 323.975 4.56049 324.743 4.43259C324.998 4.43259 325.126 4.30469 325.382 4.30469C325.894 4.30469 326.405 4.43259 326.789 4.68839C328.836 5.83951 330.882 7.24643 333.056 8.52545C333.696 8.90915 334.08 9.54866 334.207 10.1882C334.207 10.3161 334.207 10.5719 334.207 10.6998C334.207 11.2114 334.08 11.723 333.696 12.2346L333.184 13.002C332.801 13.6415 332.161 14.0252 331.521 14.1531C331.266 14.1531 331.138 14.1531 331.01 14.1531C330.498 14.1531 329.987 14.0252 329.475 13.6415C327.301 12.3625 325.254 11.0835 323.336 9.93236Z" fill="#8C7D60"/>
<path d="M390.74 17.4787V41.3964V41.908C390.74 42.6754 390.484 43.187 389.973 43.8265C389.461 44.3381 388.821 44.7218 388.054 44.7218H386.519C386.136 44.7218 385.752 44.5939 385.368 44.2102C384.984 43.8265 384.856 43.4428 384.856 43.0591C384.856 42.9312 384.729 42.8033 384.601 42.8033H366.822C366.439 42.8033 366.055 42.8033 365.415 42.8033C365.415 42.8033 365.415 42.8033 365.288 42.8033C364.52 42.8033 364.008 42.5475 363.369 42.0359C362.857 41.5243 362.602 40.8848 362.602 40.1174V39.7336C362.602 38.9662 362.857 38.3267 363.369 37.8151C363.881 37.3035 364.52 37.1756 365.288 37.1756C365.288 37.1756 365.288 37.1756 365.415 37.1756C365.927 37.1756 366.311 37.1756 366.822 37.1756H384.473C384.729 37.1756 384.856 37.0477 384.856 36.7919V31.1642C384.856 30.9084 384.729 30.7805 384.473 30.7805H369.636C368.869 30.7805 368.101 30.7805 367.206 30.7805C366.439 30.7805 365.799 30.5247 365.288 30.0131C364.776 29.5015 364.52 28.862 364.52 28.0946V27.9667C364.52 27.1993 364.776 26.5598 365.288 26.0482C365.799 25.5365 366.439 25.2807 367.206 25.2807C367.206 25.2807 367.206 25.2807 367.334 25.2807C368.101 25.2807 368.997 25.2807 369.764 25.2807H384.601C384.856 25.2807 384.984 25.1528 384.984 24.897V19.781C384.984 19.5252 384.856 19.3973 384.601 19.3973H369.252C368.357 19.3973 367.334 19.3973 366.055 19.5252C366.055 19.5252 366.055 19.5252 365.927 19.5252C365.16 19.5252 364.648 19.2694 364.136 18.7578C363.625 18.2462 363.241 17.6066 363.241 16.8392V16.5834C363.241 15.816 363.497 15.3044 364.136 14.6649C364.648 14.1533 365.16 14.0254 365.927 14.0254H366.055C367.206 14.0254 368.229 14.1533 369.252 14.1533H387.159C387.415 14.1533 387.798 14.1533 388.054 14.1533C388.821 14.1533 389.333 14.4091 389.973 14.9207C390.484 15.4323 390.74 16.0718 390.74 16.8392C390.74 17.2229 390.74 17.3508 390.74 17.4787Z" fill="#8C7D60"/>
<path d="M407.623 42.1639C407.367 42.1639 406.983 42.2918 406.727 42.2918C406.216 42.2918 405.704 42.1639 405.193 42.036C404.425 41.6523 403.786 41.1407 403.402 40.5012L402.379 38.8385C402.251 38.5827 402.123 38.199 402.123 37.8153C402.123 37.5595 402.123 37.3037 402.251 37.0479C402.507 36.4084 402.89 36.1526 403.658 36.0247C409.413 34.8735 414.53 32.955 419.134 30.2691C422.587 28.2227 425.657 25.7925 428.471 22.9787C431.285 20.1648 433.459 17.2231 435.25 14.2814C435.505 13.7698 436.017 13.5139 436.529 13.5139C437.04 13.5139 437.552 13.7698 437.808 14.2814L438.831 16.1999C439.215 16.9673 439.47 17.7347 439.47 18.5021C439.47 19.3974 439.215 20.1648 438.831 20.9323C436.912 23.7461 434.61 26.5599 431.796 29.2459C428.982 31.9318 426.041 34.234 422.715 36.2805C417.727 38.9664 412.739 41.0128 407.623 42.1639ZM404.553 11.2117C403.914 10.828 403.658 10.1885 403.53 9.54899C403.53 9.42109 403.53 9.42109 403.53 9.29319C403.53 8.65368 403.786 8.14208 404.169 7.63047L404.809 6.86306C405.321 6.22355 406.088 5.96775 406.855 5.83984C406.983 5.83984 407.111 5.83984 407.239 5.83984C407.879 5.83984 408.39 6.09565 409.03 6.47935C411.971 8.65368 414.657 10.828 417.088 13.0023C417.727 13.5139 417.983 14.1535 417.983 14.9209C417.983 15.6883 417.727 16.3278 417.215 16.8394L416.192 17.8626C415.681 18.3742 415.041 18.63 414.274 18.63C413.506 18.63 412.867 18.3742 412.355 17.8626C409.925 15.5604 407.239 13.386 404.553 11.2117Z" fill="#8C7D60"/>
</svg>
