<svg width="99" height="99" viewBox="0 0 99 99" fill="none" xmlns="http://www.w3.org/2000/svg">
<path d="M83.5312 95.9062V7.73438C83.5312 6.91386 83.2053 6.12695 82.6251 5.54676C82.0449 4.96657 81.258 4.64063 80.4375 4.64063H59.9961C59.2152 4.64062 58.4632 4.93593 57.891 5.46729L38.1136 23.832C37.8018 24.1216 37.553 24.4724 37.3829 24.8625C37.2128 25.2525 37.125 25.6735 37.125 26.0991V95.9062H83.5312Z" fill="#7C7C7C"/>
<path d="M37.125 77.3438H83.5312V95.9062H37.125V77.3438Z" fill="#333333"/>
<path d="M61.875 95.9062V61.875C61.875 61.0545 61.5491 60.2676 60.9689 59.6874C60.3887 59.1072 59.6018 58.7812 58.7812 58.7812H18.5625C17.742 58.7812 16.9551 59.1072 16.3749 59.6874C15.7947 60.2676 15.4688 61.0545 15.4688 61.875V95.9062H61.875Z" fill="#EFEFEF"/>
<path d="M29.3906 46.4062H38.6719C39.4924 46.4062 40.2793 46.7322 40.8595 47.3124C41.4397 47.8926 41.7656 48.6795 41.7656 49.5V58.7812H26.2969V49.5C26.2969 48.6795 26.6228 47.8926 27.203 47.3124C27.7832 46.7322 28.5701 46.4062 29.3906 46.4062Z" fill="#BCBCBC"/>
<path d="M41.7656 51.0469H52.5938C53.4143 51.0469 54.2012 51.3728 54.7814 51.953C55.3616 52.5332 55.6875 53.3201 55.6875 54.1406V58.7812H41.7656V51.0469Z" fill="#A3A3A3"/>
<path d="M80.4375 4.64062H59.9962C59.2153 4.64063 58.4633 4.93594 57.891 5.46731L47.9531 14.6953V34.0312C47.9531 36.4928 48.931 38.8535 50.6715 40.5941C52.4121 42.3347 54.7728 43.3125 57.2344 43.3125H83.5312V7.73438C83.5312 6.91386 83.2053 6.12695 82.6251 5.54676C82.0449 4.96657 81.258 4.64063 80.4375 4.64062Z" fill="#F7CAA5"/>
<path d="M41.7656 95.9062V81.9844C41.7656 81.1639 41.4397 80.377 40.8595 79.7968C40.2793 79.2166 39.4924 78.8906 38.6719 78.8906H15.4688V95.9062H41.7656Z" fill="#D6D6D6"/>
<path d="M15.4688 85.0781H32.4844C33.3049 85.0781 34.0918 85.4041 34.672 85.9843C35.2522 86.5645 35.5781 87.3514 35.5781 88.1719C35.5781 88.9924 35.2522 89.7793 34.672 90.3595C34.0918 90.9397 33.3049 91.2656 32.4844 91.2656H15.4688V85.0781Z" fill="#8ECCFF"/>
<path d="M74.25 15.4688H71.1562C70.3019 15.4688 69.6094 16.1613 69.6094 17.0156V20.1094C69.6094 20.9637 70.3019 21.6562 71.1562 21.6562H74.25C75.1043 21.6562 75.7969 20.9637 75.7969 20.1094V17.0156C75.7969 16.1613 75.1043 15.4688 74.25 15.4688Z" fill="#8ECCFF"/>
<path d="M74.25 27.8438H71.1562C70.3019 27.8438 69.6094 28.5363 69.6094 29.3906V32.4844C69.6094 33.3387 70.3019 34.0312 71.1562 34.0312H74.25C75.1043 34.0312 75.7969 33.3387 75.7969 32.4844V29.3906C75.7969 28.5363 75.1043 27.8438 74.25 27.8438Z" fill="#8ECCFF"/>
<path d="M61.875 27.8438H58.7812C57.9269 27.8438 57.2344 28.5363 57.2344 29.3906V32.4844C57.2344 33.3387 57.9269 34.0312 58.7812 34.0312H61.875C62.7293 34.0312 63.4219 33.3387 63.4219 32.4844V29.3906C63.4219 28.5363 62.7293 27.8438 61.875 27.8438Z" fill="#8ECCFF"/>
<path d="M61.875 15.4688H58.7812C57.9269 15.4688 57.2344 16.1613 57.2344 17.0156V20.1094C57.2344 20.9637 57.9269 21.6562 58.7812 21.6562H61.875C62.7293 21.6562 63.4219 20.9637 63.4219 20.1094V17.0156C63.4219 16.1613 62.7293 15.4688 61.875 15.4688Z" fill="#8ECCFF"/>
<path d="M74.25 40.2188H71.1562C70.3019 40.2188 69.6094 40.9113 69.6094 41.7656V44.8594C69.6094 45.7137 70.3019 46.4062 71.1562 46.4062H74.25C75.1043 46.4062 75.7969 45.7137 75.7969 44.8594V41.7656C75.7969 40.9113 75.1043 40.2188 74.25 40.2188Z" fill="#8ECCFF"/>
<path d="M74.25 52.5938H71.1562C70.3019 52.5938 69.6094 53.2863 69.6094 54.1406V57.2344C69.6094 58.0887 70.3019 58.7812 71.1562 58.7812H74.25C75.1043 58.7812 75.7969 58.0887 75.7969 57.2344V54.1406C75.7969 53.2863 75.1043 52.5938 74.25 52.5938Z" fill="#8ECCFF"/>
<path d="M74.25 64.9688H71.1562C70.3019 64.9688 69.6094 65.6613 69.6094 66.5156V69.6094C69.6094 70.4637 70.3019 71.1562 71.1562 71.1562H74.25C75.1043 71.1562 75.7969 70.4637 75.7969 69.6094V66.5156C75.7969 65.6613 75.1043 64.9688 74.25 64.9688Z" fill="#8ECCFF"/>
<path d="M69.6094 95.9062V85.0781C69.6094 84.6679 69.7723 84.2744 70.0624 83.9843C70.3525 83.6942 70.746 83.5312 71.1562 83.5312H74.25C74.6603 83.5312 75.0537 83.6942 75.3438 83.9843C75.6339 84.2744 75.7969 84.6679 75.7969 85.0781V95.9062H69.6094Z" fill="#8ECCFF"/>
<path d="M27.8438 66.5156H24.75C23.8957 66.5156 23.2031 67.2082 23.2031 68.0625V71.1562C23.2031 72.0106 23.8957 72.7031 24.75 72.7031H27.8438C28.6981 72.7031 29.3906 72.0106 29.3906 71.1562V68.0625C29.3906 67.2082 28.6981 66.5156 27.8438 66.5156Z" fill="#8ECCFF"/>
<path d="M40.2188 66.5156H37.125C36.2707 66.5156 35.5781 67.2082 35.5781 68.0625V71.1562C35.5781 72.0106 36.2707 72.7031 37.125 72.7031H40.2188C41.0731 72.7031 41.7656 72.0106 41.7656 71.1562V68.0625C41.7656 67.2082 41.0731 66.5156 40.2188 66.5156Z" fill="#8ECCFF"/>
<path d="M52.5938 66.5156H49.5C48.6457 66.5156 47.9531 67.2082 47.9531 68.0625V71.1562C47.9531 72.0106 48.6457 72.7031 49.5 72.7031H52.5938C53.4481 72.7031 54.1406 72.0106 54.1406 71.1562V68.0625C54.1406 67.2082 53.4481 66.5156 52.5938 66.5156Z" fill="#8ECCFF"/>
<path d="M52.5938 78.8906H49.5C48.6457 78.8906 47.9531 79.5832 47.9531 80.4375V83.5312C47.9531 84.3856 48.6457 85.0781 49.5 85.0781H52.5938C53.4481 85.0781 54.1406 84.3856 54.1406 83.5312V80.4375C54.1406 79.5832 53.4481 78.8906 52.5938 78.8906Z" fill="#8ECCFF"/>
<path d="M47.9531 95.9062V92.8125C47.9531 92.4022 48.1161 92.0088 48.4062 91.7187C48.6963 91.4286 49.0897 91.2656 49.5 91.2656H52.5938C53.004 91.2656 53.3975 91.4286 53.6876 91.7187C53.9777 92.0088 54.1406 92.4022 54.1406 92.8125V95.9062H47.9531Z" fill="#8ECCFF"/>
<path d="M85.0781 95.9063V7.73438C85.0768 6.50402 84.5874 5.32444 83.7174 4.45445C82.8474 3.58445 81.6679 3.0951 80.4375 3.09376H59.9958C58.8243 3.09183 57.6959 3.53485 56.8386 4.33322L37.06 22.6993C36.5933 23.1343 36.221 23.6605 35.9661 24.2453C35.7112 24.8301 35.5791 25.461 35.5781 26.099V41.7656H38.6719V26.099C38.6721 25.8864 38.7161 25.6761 38.8011 25.4812C38.8861 25.2862 39.0102 25.1109 39.1659 24.966L46.4062 18.2426V34.0313C46.4096 36.902 47.5515 39.6543 49.5814 41.6842C51.6114 43.7141 54.3636 44.856 57.2344 44.8594H68.0625C68.0634 45.6796 68.3897 46.466 68.9697 47.046C69.5497 47.6259 70.336 47.9522 71.1562 47.9531H74.25C75.0702 47.9522 75.8566 47.6259 76.4366 47.046C77.0166 46.466 77.3428 45.6796 77.3438 44.8594H81.9844V75.7969H66.5156V78.8906H81.9844V95.9063H85.0781ZM71.1562 44.8594V41.7656H74.25L74.2515 44.8594H71.1562ZM77.3438 41.7656C77.3428 40.9454 77.0166 40.159 76.4366 39.5791C75.8566 38.9991 75.0702 38.6728 74.25 38.6719H71.1562C70.336 38.6728 69.5497 38.9991 68.9697 39.5791C68.3897 40.159 68.0634 40.9454 68.0625 41.7656H57.2344C55.1838 41.7632 53.218 40.9476 51.768 39.4976C50.3181 38.0477 49.5024 36.0818 49.5 34.0313V15.4688H49.3935L58.9444 6.5999C59.2301 6.33446 59.6058 6.18711 59.9958 6.18751H80.4375C80.8476 6.18792 81.2408 6.35102 81.5309 6.64103C81.8209 6.93103 81.984 7.32425 81.9844 7.73438V41.7656H77.3438Z" fill="#333333"/>
<path d="M74.25 13.9219H71.1562C70.336 13.9228 69.5497 14.2491 68.9697 14.829C68.3897 15.409 68.0634 16.1954 68.0625 17.0156V20.1094C68.0634 20.9296 68.3897 21.716 68.9697 22.2959C69.5497 22.8759 70.336 23.2022 71.1562 23.2031H74.25C75.0702 23.2022 75.8566 22.8759 76.4366 22.2959C77.0166 21.716 77.3428 20.9296 77.3438 20.1094V17.0156C77.3428 16.1954 77.0166 15.409 76.4366 14.829C75.8566 14.2491 75.0702 13.9228 74.25 13.9219ZM71.1562 20.1094V17.0156H74.25L74.2515 20.1094H71.1562Z" fill="#333333"/>
<path d="M74.25 26.2969H71.1562C70.336 26.2978 69.5497 26.6241 68.9697 27.204C68.3897 27.784 68.0634 28.5704 68.0625 29.3906V32.4844C68.0634 33.3046 68.3897 34.091 68.9697 34.6709C69.5497 35.2509 70.336 35.5772 71.1562 35.5781H74.25C75.0702 35.5772 75.8566 35.2509 76.4366 34.6709C77.0166 34.091 77.3428 33.3046 77.3438 32.4844V29.3906C77.3428 28.5704 77.0166 27.784 76.4366 27.204C75.8566 26.6241 75.0702 26.2978 74.25 26.2969ZM71.1562 32.4844V29.3906H74.25L74.2515 32.4844H71.1562Z" fill="#333333"/>
<path d="M61.875 26.2969H58.7812C57.961 26.2978 57.1747 26.6241 56.5947 27.204C56.0147 27.784 55.6884 28.5704 55.6875 29.3906V32.4844C55.6884 33.3046 56.0147 34.091 56.5947 34.6709C57.1747 35.2509 57.961 35.5772 58.7812 35.5781H61.875C62.6952 35.5772 63.4816 35.2509 64.0616 34.6709C64.6416 34.091 64.9678 33.3046 64.9688 32.4844V29.3906C64.9678 28.5704 64.6416 27.784 64.0616 27.204C63.4816 26.6241 62.6952 26.2978 61.875 26.2969ZM58.7812 32.4844V29.3906H61.875L61.8765 32.4844H58.7812Z" fill="#333333"/>
<path d="M61.875 13.9219H58.7812C57.961 13.9228 57.1747 14.2491 56.5947 14.829C56.0147 15.409 55.6884 16.1954 55.6875 17.0156V20.1094C55.6884 20.9296 56.0147 21.716 56.5947 22.2959C57.1747 22.8759 57.961 23.2022 58.7812 23.2031H61.875C62.6952 23.2022 63.4816 22.8759 64.0616 22.2959C64.6416 21.716 64.9678 20.9296 64.9688 20.1094V17.0156C64.9678 16.1954 64.6416 15.409 64.0616 14.829C63.4816 14.2491 62.6952 13.9228 61.875 13.9219ZM58.7812 20.1094V17.0156H61.875L61.8765 20.1094H58.7812Z" fill="#333333"/>
<path d="M71.1562 60.3281H74.25C75.0702 60.3272 75.8566 60.0009 76.4366 59.4209C77.0166 58.841 77.3428 58.0546 77.3438 57.2344V54.1406C77.3428 53.3204 77.0166 52.534 76.4366 51.954C75.8566 51.3741 75.0702 51.0478 74.25 51.0469H71.1562C70.336 51.0478 69.5497 51.3741 68.9697 51.954C68.3897 52.534 68.0634 53.3204 68.0625 54.1406V57.2344C68.0634 58.0546 68.3897 58.841 68.9697 59.4209C69.5497 60.0009 70.336 60.3272 71.1562 60.3281ZM71.1562 54.1406H74.25L74.2515 57.2344H71.1562V54.1406Z" fill="#333333"/>
<path d="M68.0625 69.6094C68.0634 70.4296 68.3897 71.216 68.9697 71.7959C69.5497 72.3759 70.336 72.7022 71.1562 72.7031H74.25C75.0702 72.7022 75.8566 72.3759 76.4366 71.7959C77.0166 71.216 77.3428 70.4296 77.3438 69.6094V66.5156C77.3428 65.6954 77.0166 64.909 76.4366 64.329C75.8566 63.7491 75.0702 63.4228 74.25 63.4219H71.1562C70.336 63.4228 69.5497 63.7491 68.9697 64.329C68.3897 64.909 68.0634 65.6954 68.0625 66.5156V69.6094ZM71.1562 66.5156H74.25L74.2515 69.6094H71.1562V66.5156Z" fill="#333333"/>
<path d="M77.3438 95.9062V85.0781C77.3428 84.2579 77.0166 83.4715 76.4366 82.8915C75.8566 82.3116 75.0702 81.9853 74.25 81.9844H71.1562C70.336 81.9853 69.5497 82.3116 68.9697 82.8915C68.3897 83.4715 68.0634 84.2579 68.0625 85.0781V95.9062H71.1562V85.0781H74.25V95.9062H77.3438Z" fill="#333333"/>
<path d="M24.75 64.9688C23.9298 64.9697 23.1434 65.2959 22.5634 65.8759C21.9834 66.4559 21.6572 67.2423 21.6562 68.0625V71.1562C21.6572 71.9765 21.9834 72.7628 22.5634 73.3428C23.1434 73.9228 23.9298 74.2491 24.75 74.25H27.8438C28.664 74.2491 29.4503 73.9228 30.0303 73.3428C30.6103 72.7628 30.9366 71.9765 30.9375 71.1562V68.0625C30.9366 67.2423 30.6103 66.4559 30.0303 65.8759C29.4503 65.2959 28.664 64.9697 27.8438 64.9688H24.75ZM24.75 71.1562V68.0625H27.8438L27.8453 71.1562H24.75Z" fill="#333333"/>
<path d="M40.2188 64.9688H37.125C36.3048 64.9697 35.5184 65.2959 34.9384 65.8759C34.3584 66.4559 34.0322 67.2423 34.0312 68.0625V71.1562C34.0322 71.9765 34.3584 72.7628 34.9384 73.3428C35.5184 73.9228 36.3048 74.2491 37.125 74.25H40.2188C41.039 74.2491 41.8253 73.9228 42.4053 73.3428C42.9853 72.7628 43.3116 71.9765 43.3125 71.1562V68.0625C43.3116 67.2423 42.9853 66.4559 42.4053 65.8759C41.8253 65.2959 41.039 64.9697 40.2188 64.9688ZM37.125 71.1562V68.0625H40.2188L40.2203 71.1562H37.125Z" fill="#333333"/>
<path d="M52.5938 64.9688H49.5C48.6798 64.9697 47.8934 65.2959 47.3134 65.8759C46.7334 66.4559 46.4072 67.2423 46.4062 68.0625V71.1562C46.4072 71.9765 46.7334 72.7628 47.3134 73.3428C47.8934 73.9228 48.6798 74.2491 49.5 74.25H52.5938C53.414 74.2491 54.2003 73.9228 54.7803 73.3428C55.3603 72.7628 55.6866 71.9765 55.6875 71.1562V68.0625C55.6866 67.2423 55.3603 66.4559 54.7803 65.8759C54.2003 65.2959 53.414 64.9697 52.5938 64.9688ZM49.5 71.1562V68.0625H52.5938L52.5953 71.1562H49.5Z" fill="#333333"/>
<path d="M52.5938 77.3438H49.5C48.6798 77.3447 47.8934 77.6709 47.3134 78.2509C46.7334 78.8309 46.4072 79.6173 46.4062 80.4375V83.5312C46.4072 84.3515 46.7334 85.1378 47.3134 85.7178C47.8934 86.2978 48.6798 86.6241 49.5 86.625H52.5938C53.414 86.6241 54.2003 86.2978 54.7803 85.7178C55.3603 85.1378 55.6866 84.3515 55.6875 83.5312V80.4375C55.6866 79.6173 55.3603 78.8309 54.7803 78.2509C54.2003 77.6709 53.414 77.3447 52.5938 77.3438ZM49.5 83.5312V80.4375H52.5938L52.5953 83.5312H49.5Z" fill="#333333"/>
<path d="M52.5938 89.7188H49.5C48.6798 89.7197 47.8934 90.0459 47.3134 90.6259C46.7334 91.2059 46.4072 91.9923 46.4062 92.8125V95.9062H49.5V92.8125H52.5938V95.9062H55.6875V92.8125C55.6866 91.9923 55.3603 91.2059 54.7803 90.6259C54.2003 90.0459 53.414 89.7197 52.5938 89.7188Z" fill="#333333"/>
<path d="M58.7812 57.2344H57.2344V54.1406C57.233 52.9103 56.7437 51.7307 55.8737 50.8607C55.0037 49.9907 53.8241 49.5013 52.5938 49.5H43.3125C43.3112 48.2696 42.8218 47.0901 41.9518 46.2201C41.0818 45.3501 39.9022 44.8607 38.6719 44.8594H29.3906C28.1603 44.8607 26.9807 45.3501 26.1107 46.2201C25.2407 47.0901 24.7513 48.2696 24.75 49.5V57.2344H18.5625C17.3321 57.2357 16.1526 57.7251 15.2826 58.5951C14.4126 59.4651 13.9232 60.6446 13.9219 61.875V95.9062H17.0156V92.8125H32.4844C33.7151 92.8125 34.8955 92.3236 35.7658 91.4533C36.6361 90.583 37.125 89.4026 37.125 88.1719C37.125 86.9411 36.6361 85.7607 35.7658 84.8905C34.8955 84.0202 33.7151 83.5312 32.4844 83.5312H17.0156V80.4375H38.6719C39.082 80.4379 39.4752 80.601 39.7652 80.891C40.0552 81.181 40.2183 81.5742 40.2188 81.9844V95.9062H43.3125V81.9844C43.3112 80.754 42.8218 79.5744 41.9518 78.7044C41.0818 77.8344 39.9022 77.3451 38.6719 77.3438H17.0156V61.875C17.016 61.4649 17.1791 61.0717 17.4691 60.7816C17.7592 60.4916 18.1524 60.3285 18.5625 60.3281H58.7812C59.1914 60.3285 59.5846 60.4916 59.8746 60.7816C60.1646 61.0717 60.3277 61.4649 60.3281 61.875V95.9062H63.4219V61.875C63.4205 60.6446 62.9312 59.4651 62.0612 58.5951C61.1912 57.7251 60.0116 57.2357 58.7812 57.2344ZM32.4844 86.625C32.8946 86.625 33.2881 86.788 33.5782 87.0781C33.8683 87.3682 34.0312 87.7616 34.0312 88.1719C34.0312 88.5821 33.8683 88.9756 33.5782 89.2657C33.2881 89.5558 32.8946 89.7188 32.4844 89.7188H17.0156V86.625H32.4844ZM27.8438 57.2344V49.5C27.8442 49.0899 28.0073 48.6967 28.2973 48.4066C28.5873 48.1166 28.9805 47.9535 29.3906 47.9531H38.6719C39.082 47.9535 39.4752 48.1166 39.7652 48.4066C40.0552 48.6967 40.2183 49.0899 40.2188 49.5V57.2344H27.8438ZM43.3125 57.2344V52.5938H52.5938C53.0039 52.5942 53.3971 52.7573 53.6871 53.0473C53.9771 53.3373 54.1402 53.7305 54.1406 54.1406V57.2344H43.3125Z" fill="#333333"/>
</svg>
