<svg width="151" height="105" viewBox="0 0 151 105" fill="none" xmlns="http://www.w3.org/2000/svg">
<path d="M9.15234 104.566C13.7109 104.566 17.0039 101.672 17.0273 97.4531H12.2695C12.1172 99.4102 10.875 100.664 9.16406 100.664C7.10156 100.664 5.82422 98.8594 5.82422 95.8008C5.82422 92.7773 7.11328 90.9727 9.15234 90.9727C10.875 90.9727 12.1289 92.25 12.2461 94.1719H17.0039C16.9922 89.9766 13.6172 87.0703 9.15234 87.0703C3.98438 87.0703 0.761719 90.2344 0.761719 95.8125C0.761719 101.391 3.97266 104.566 9.15234 104.566Z" fill="#F5F5F5"/>
<path d="M28.8984 104.273H34.1953L28.6758 87.3633H22.4414L16.9219 104.273H21.9844L22.8633 100.91H28.0195L28.8984 104.273ZM25.3945 91.2656H25.4883L27.1172 97.4062H23.7656L25.3945 91.2656Z" fill="#F5F5F5"/>
<path d="M34.5469 99.293C34.5586 102.668 37.2656 104.566 41.8008 104.566C46.3008 104.566 49.1953 102.363 49.1953 98.9062C49.1953 96.1641 47.6602 94.6055 44.3789 94.0312L42.0586 93.6328C40.4531 93.3516 39.7617 92.9297 39.7617 92.1211C39.7617 91.2773 40.582 90.7383 41.8828 90.7383C43.2188 90.7383 44.2617 91.3594 44.2969 92.4141H48.832C48.8086 89.1328 46.2891 87.0703 41.7891 87.0703C37.7578 87.0703 34.8281 89.2266 34.8281 92.6484C34.8281 95.2969 36.5156 97.0781 39.6211 97.6172L41.8594 98.0156C43.6758 98.3438 44.2969 98.6836 44.2969 99.4688C44.2969 100.289 43.3828 100.887 41.8945 100.887C40.5586 100.887 39.3867 100.254 39.2461 99.293H34.5469Z" fill="#F5F5F5"/>
<path d="M63 100.324H56.0391V97.6055H62.5664V94.043H56.0391V91.3125H63V87.3633H51.0703V104.273H63V100.324Z" fill="#F5F5F5"/>
<path d="M68.5078 34.6641V35.2266H95.6484V34.5938C95.6484 27.2109 101.133 22.0078 108.867 22.0078C116.531 22.0078 120.961 26.2969 120.961 31.7812C120.961 37.4062 117.867 42.2578 111.047 48.375L70.2656 84.4453V104.273H150.844V81.7734H108.727V81.2109L132.562 60.1172C137.977 55.3359 149.648 44.7891 149.648 30.8672C149.648 12.4453 134.531 0 109.922 0C84.8203 0 68.5078 13.9219 68.5078 34.6641Z" fill="#F5F5F5"/>
</svg>
