<svg width="155" height="108" viewBox="0 0 155 108" fill="none" xmlns="http://www.w3.org/2000/svg">
<path d="M8.81641 104.566C13.375 104.566 16.668 101.672 16.6914 97.4531H11.9336C11.7812 99.4102 10.5391 100.664 8.82812 100.664C6.76562 100.664 5.48828 98.8594 5.48828 95.8008C5.48828 92.7773 6.77734 90.9727 8.81641 90.9727C10.5391 90.9727 11.793 92.25 11.9102 94.1719H16.668C16.6562 89.9766 13.2812 87.0703 8.81641 87.0703C3.64844 87.0703 0.425781 90.2344 0.425781 95.8125C0.425781 101.391 3.63672 104.566 8.81641 104.566Z" fill="#F5F5F5"/>
<path d="M28.5625 104.273H33.8594L28.3398 87.3633H22.1055L16.5859 104.273H21.6484L22.5273 100.91H27.6836L28.5625 104.273ZM25.0586 91.2656H25.1523L26.7812 97.4062H23.4297L25.0586 91.2656Z" fill="#F5F5F5"/>
<path d="M34.2109 99.293C34.2227 102.668 36.9297 104.566 41.4648 104.566C45.9648 104.566 48.8594 102.363 48.8594 98.9062C48.8594 96.1641 47.3242 94.6055 44.043 94.0312L41.7227 93.6328C40.1172 93.3516 39.4258 92.9297 39.4258 92.1211C39.4258 91.2773 40.2461 90.7383 41.5469 90.7383C42.8828 90.7383 43.9258 91.3594 43.9609 92.4141H48.4961C48.4727 89.1328 45.9531 87.0703 41.4531 87.0703C37.4219 87.0703 34.4922 89.2266 34.4922 92.6484C34.4922 95.2969 36.1797 97.0781 39.2852 97.6172L41.5234 98.0156C43.3398 98.3438 43.9609 98.6836 43.9609 99.4688C43.9609 100.289 43.0469 100.887 41.5586 100.887C40.2227 100.887 39.0508 100.254 38.9102 99.293H34.2109Z" fill="#F5F5F5"/>
<path d="M62.6641 100.324H55.7031V97.6055H62.2305V94.043H55.7031V91.3125H62.6641V87.3633H50.7344V104.273H62.6641V100.324Z" fill="#F5F5F5"/>
<path d="M98.6172 62.5078H110.852C119.289 62.5078 124.281 66.4453 124.281 73.0547C124.281 79.5938 119.008 83.9531 111.133 83.9531C102.414 83.9531 97.0703 79.8047 96.8594 73.0547H68.4531C69.4375 93.7266 85.8906 107.086 110.5 107.086C137.43 107.086 154.586 95.0625 154.586 76.0781C154.586 62.2266 144.812 53.4375 129.906 51.8203V51.2578C142.141 49.0781 151.07 40.2188 151.07 27.9844C151.07 10.8281 135.883 0 111.906 0C86.9453 0 70.4219 13.4297 70.3516 33.75H97.2109C97.2109 26.6484 102.625 21.7266 110.641 21.7266C118.797 21.7266 123.648 25.6641 123.648 32.0625C123.648 38.5312 118.797 42.5391 110.992 42.5391H98.6172V62.5078Z" fill="#F5F5F5"/>
</svg>
