<svg width="125" height="102" viewBox="0 0 125 102" fill="none" xmlns="http://www.w3.org/2000/svg">
<path d="M8.39062 101.754C12.9492 101.754 16.2422 98.8594 16.2656 94.6406H11.5078C11.3555 96.5977 10.1133 97.8516 8.40234 97.8516C6.33984 97.8516 5.0625 96.0469 5.0625 92.9883C5.0625 89.9648 6.35156 88.1602 8.39062 88.1602C10.1133 88.1602 11.3672 89.4375 11.4844 91.3594H16.2422C16.2305 87.1641 12.8555 84.2578 8.39062 84.2578C3.22266 84.2578 0 87.4219 0 93C0 98.5781 3.21094 101.754 8.39062 101.754Z" fill="#F5F5F5"/>
<path d="M28.1367 101.461H33.4336L27.9141 84.5508H21.6797L16.1602 101.461H21.2227L22.1016 98.0977H27.2578L28.1367 101.461ZM24.6328 88.4531H24.7266L26.3555 94.5938H23.0039L24.6328 88.4531Z" fill="#F5F5F5"/>
<path d="M33.7852 96.4805C33.7969 99.8555 36.5039 101.754 41.0391 101.754C45.5391 101.754 48.4336 99.5508 48.4336 96.0938C48.4336 93.3516 46.8984 91.793 43.6172 91.2188L41.2969 90.8203C39.6914 90.5391 39 90.1172 39 89.3086C39 88.4648 39.8203 87.9258 41.1211 87.9258C42.457 87.9258 43.5 88.5469 43.5352 89.6016H48.0703C48.0469 86.3203 45.5273 84.2578 41.0273 84.2578C36.9961 84.2578 34.0664 86.4141 34.0664 89.8359C34.0664 92.4844 35.7539 94.2656 38.8594 94.8047L41.0977 95.2031C42.9141 95.5312 43.5352 95.8711 43.5352 96.6562C43.5352 97.4766 42.6211 98.0742 41.1328 98.0742C39.7969 98.0742 38.625 97.4414 38.4844 96.4805H33.7852Z" fill="#F5F5F5"/>
<path d="M62.2383 97.5117H55.2773V94.793H61.8047V91.2305H55.2773V88.5H62.2383V84.5508H50.3086V101.461H62.2383V97.5117Z" fill="#F5F5F5"/>
<path d="M94.3242 101.461H124.137V0H94.3242L68.8711 17.0156V41.9766L93.7617 25.5234H94.3242V101.461Z" fill="#F5F5F5"/>
</svg>
