<svg width="305" height="91" viewBox="0 0 305 91" fill="none" xmlns="http://www.w3.org/2000/svg">
<g filter="url(#filter0_d)">
<path d="M293.702 0H6.29849C2.80694 0 0 2.80694 0 6.29849V68.8727C0 72.3642 2.80694 75.1712 6.29849 75.1712H133.09C136.855 75.1712 141.785 77.6358 144.044 80.6481L145.892 83.0443C148.152 86.0566 151.917 86.0566 154.176 83.0443L156.025 80.6481C158.284 77.6358 163.213 75.1712 166.979 75.1712H293.702C297.193 75.1712 300 72.3642 300 68.8727V6.29849C300 2.80694 297.193 0 293.702 0Z" fill="#4A9BD5"/>
<path d="M52.05 44.16C52.05 42.87 53.46 42.06 55.8 42.06C56.64 42.06 57.48 42.15 58.26 42.27C58.29 42.69 58.29 43.05 58.29 43.32C58.29 45.33 57.6 46.17 55.68 46.17C53.58 46.17 52.05 45.63 52.05 44.16ZM62.1 23.94H57.57C57.75 24.69 57.84 25.98 57.9 27.45C57.93 28.74 57.93 30.51 57.93 32.34C57.93 33.93 58.05 36.48 58.14 38.82C57.57 38.76 56.97 38.73 56.37 38.73C50.85 38.73 48.18 41.22 48.18 44.34C48.18 48.42 51.69 49.83 55.98 49.83C61.02 49.83 62.37 47.31 62.37 44.64C62.37 44.34 62.37 43.98 62.34 43.59C65.01 44.82 67.26 46.59 68.97 48.3L71.28 44.73C69.21 42.81 65.97 40.71 62.16 39.6C62.01 37.38 61.89 34.98 61.83 33.18C64.26 33.12 67.8 32.97 70.32 32.76L70.2 29.19C67.71 29.49 64.2 29.61 61.8 29.64C61.8 28.86 61.8 28.14 61.83 27.45C61.86 26.28 61.95 24.81 62.1 23.94ZM97.02 26.37L93.51 23.28C93.03 24 92.07 24.96 91.2 25.83C89.19 27.78 85.08 31.11 82.71 33.03C79.71 35.55 79.47 37.14 82.47 39.69C85.2 42.03 89.61 45.78 91.44 47.67C92.34 48.57 93.21 49.53 94.05 50.46L97.56 47.25C94.5 44.28 88.8 39.78 86.55 37.89C84.93 36.48 84.9 36.15 86.49 34.77C88.5 33.06 92.46 30 94.41 28.44C95.1 27.87 96.09 27.09 97.02 26.37ZM119.88 23.85L115.98 23.76C116.01 24.27 115.95 24.99 115.92 25.56C115.86 26.07 115.8 26.61 115.74 27.18C115.35 27.18 114.96 27.18 114.54 27.18C112.71 27.18 110.07 26.94 109.02 26.76L109.11 30.24C110.52 30.3 112.86 30.42 114.42 30.42C114.75 30.42 115.05 30.42 115.38 30.42C115.26 31.65 115.17 32.91 115.11 34.2C110.91 36.18 107.73 40.2 107.73 44.07C107.73 47.1 109.59 48.42 111.78 48.42C113.37 48.42 114.96 47.94 116.43 47.22C116.55 47.64 116.7 48.06 116.82 48.45L120.27 47.4C120.03 46.68 119.79 45.93 119.58 45.18C121.86 43.29 124.26 40.14 125.88 36.06C127.95 36.87 129 38.46 129 40.26C129 43.2 126.66 46.14 120.87 46.77L122.85 49.92C130.23 48.81 132.72 44.7 132.72 40.44C132.72 36.96 130.41 34.23 126.93 33.09C127.11 32.52 127.35 31.89 127.47 31.56L123.81 30.69C123.78 31.14 123.66 31.89 123.54 32.49C123.36 32.49 123.18 32.49 123 32.49C121.53 32.49 119.97 32.7 118.53 33.03C118.56 32.13 118.65 31.2 118.74 30.3C122.43 30.15 126.45 29.79 129.39 29.25L129.36 25.77C126.06 26.55 122.82 26.94 119.16 27.09C119.25 26.49 119.37 25.95 119.46 25.44C119.58 24.99 119.7 24.45 119.88 23.85ZM111.27 43.29C111.27 41.58 112.77 39.3 115.02 37.77C115.08 39.84 115.32 41.91 115.65 43.77C114.57 44.4 113.49 44.76 112.65 44.76C111.69 44.76 111.27 44.25 111.27 43.29ZM118.41 36.3V36.21C119.58 35.85 120.96 35.58 122.55 35.55C121.53 37.98 120.18 39.81 118.77 41.28C118.53 39.78 118.41 38.13 118.41 36.3ZM146.7 44.46C146.7 43.71 147.42 43.02 148.56 43.02C150.18 43.02 151.29 44.28 151.47 46.23C150.93 46.29 150.36 46.32 149.73 46.32C147.93 46.32 146.7 45.57 146.7 44.46ZM141.6 25.14L141.72 29.04C142.41 28.95 143.37 28.86 144.18 28.8C145.77 28.71 149.91 28.53 151.44 28.5C149.97 29.79 146.85 32.31 145.17 33.69C143.4 35.16 139.77 38.22 137.64 39.93L140.37 42.75C143.58 39.09 146.58 36.66 151.17 36.66C154.71 36.66 157.41 38.49 157.41 41.19C157.41 43.02 156.57 44.4 154.92 45.27C154.5 42.42 152.25 40.14 148.53 40.14C145.35 40.14 143.16 42.39 143.16 44.82C143.16 47.82 146.31 49.74 150.48 49.74C157.74 49.74 161.34 45.99 161.34 41.25C161.34 36.87 157.47 33.69 152.37 33.69C151.41 33.69 150.51 33.78 149.52 34.02C151.41 32.52 154.56 29.88 156.18 28.74C156.87 28.23 157.59 27.81 158.28 27.36L156.33 24.69C155.97 24.81 155.28 24.9 154.05 25.02C152.34 25.17 145.92 25.29 144.33 25.29C143.49 25.29 142.44 25.26 141.6 25.14ZM173.4 39.21L169.44 38.85C169.23 39.99 168.87 41.43 168.87 43.17C168.87 47.31 172.32 49.62 179.19 49.62C183.39 49.62 186.99 49.2 189.6 48.57L189.57 44.37C186.93 45.09 183.09 45.54 179.04 45.54C174.72 45.54 172.89 44.19 172.89 42.24C172.89 41.25 173.1 40.29 173.4 39.21ZM188.52 23.4L186.15 24.36C186.57 24.96 187.02 25.71 187.44 26.49C185.13 26.7 181.89 26.88 179.04 26.88C175.89 26.88 173.1 26.76 170.88 26.49V30.48C173.31 30.66 175.92 30.81 179.07 30.81C181.92 30.81 185.64 30.6 187.74 30.45V27.09C188.01 27.6 188.28 28.11 188.49 28.56L190.92 27.51C190.35 26.4 189.27 24.48 188.52 23.4ZM192.09 22.05L189.69 23.01C190.53 24.15 191.49 25.89 192.12 27.15L194.52 26.13C193.98 25.08 192.87 23.16 192.09 22.05ZM203.61 42.09H216.63V43.41H203.61V42.09ZM203.61 38.79H216.63V40.08H203.61V38.79ZM203.61 35.46H216.63V36.75H203.61V35.46ZM220.26 45.57V33.33H210.48C212.01 32.25 212.91 30.96 213.42 29.64H216.45V32.79H219.63V29.64H223.41V27.06H214.02C214.05 26.76 214.05 26.46 214.05 26.19V26.04C216.84 25.8 219.93 25.41 222.24 24.75L220.08 22.62C218.46 23.1 215.85 23.55 213.36 23.85L210.96 23.28V26.01C210.96 27.15 210.78 28.35 209.91 29.49V27.06H201.66C201.69 26.76 201.69 26.43 201.69 26.16V26.01C204.3 25.8 207.15 25.38 209.31 24.72L207.12 22.62C205.62 23.1 203.22 23.55 200.88 23.82L198.6 23.25V25.98C198.6 27.96 198.24 30.42 196.05 32.4C196.77 32.82 197.91 33.96 198.39 34.62C199.98 33.18 200.82 31.35 201.27 29.64H203.91V32.76H207.09V29.64H209.79C209.37 30.15 208.8 30.66 208.05 31.14C208.68 31.56 209.67 32.58 210.12 33.33H200.16V45.57H204.6C202.53 46.59 199.26 47.55 196.35 48.09C197.1 48.72 198.36 50.01 198.99 50.7C202.02 49.86 205.86 48.39 208.35 46.77L205.62 45.57H214.38L211.68 47.13C214.71 48.27 217.77 49.68 219.48 50.67L223.62 49.08C221.58 48.09 218.13 46.65 215.07 45.57H220.26ZM235.59 26.46V28.08H231V26.46H235.59ZM231 32.19V30.48H235.59V32.19H231ZM238.92 34.89V23.73H227.46V50.61H231V34.89H238.92ZM242.37 39.9V43.44H237.42V39.9H242.37ZM245.7 46.38V36.96H234.09V48.06H237.42V46.38H245.7ZM244.38 32.22V30.48H249.12V32.22H244.38ZM249.12 26.43V28.08H244.38V26.43H249.12ZM252.72 23.73H240.99V34.92H249.12V46.29C249.12 46.83 248.91 47.01 248.34 47.01C247.77 47.04 245.73 47.07 243.99 46.95C244.5 47.91 245.07 49.59 245.19 50.61C247.95 50.61 249.84 50.52 251.07 49.92C252.33 49.35 252.72 48.33 252.72 46.35V23.73Z" fill="white"/>
</g>
<defs>
<filter id="filter0_d" x="0" y="0" width="305" height="91" filterUnits="userSpaceOnUse" color-interpolation-filters="sRGB">
<feFlood flood-opacity="0" result="BackgroundImageFix"/>
<feColorMatrix in="SourceAlpha" type="matrix" values="0 0 0 0 0 0 0 0 0 0 0 0 0 0 0 0 0 0 127 0"/>
<feOffset dx="5" dy="5"/>
<feColorMatrix type="matrix" values="0 0 0 0 0 0 0 0 0 0 0 0 0 0 0 0 0 0 0.1 0"/>
<feBlend mode="normal" in2="BackgroundImageFix" result="effect1_dropShadow"/>
<feBlend mode="normal" in="SourceGraphic" in2="effect1_dropShadow" result="shape"/>
</filter>
</defs>
</svg>
