<svg width="134" height="102" viewBox="0 0 134 102" fill="none" xmlns="http://www.w3.org/2000/svg">
<path d="M82.2581 33.871H95.1613V41.9355H82.2581V33.871Z" fill="#C4A76A"/>
<path d="M41.9355 85.4839L33.871 79.0323L25.8065 85.4839L29.0323 88.7097L27.4422 98.1225H40.2997L38.7097 88.7097L41.9355 85.4839Z" fill="#C4A76A"/>
<path d="M35.9225 11.2903C30.008 11.2903 24.4487 13.5939 20.266 17.7758L18.5452 19.4966C13.3773 20.7645 9.67743 25.4402 9.67743 30.805V48.3871H11.2903C11.2903 44.8242 14.1791 41.9355 17.7419 41.9355V35.4839C17.7419 35.4839 24.1936 37.0968 33.871 37.0968C43.5484 37.0968 50 35.4839 50 35.4839V41.9355C53.5629 41.9355 56.4516 44.8242 56.4516 48.3871H58.0645V33.4323C58.0645 21.2229 48.1319 11.2903 35.9225 11.2903Z" fill="#C4A76A"/>
<path d="M27.4194 43.5484C27.4194 44.4392 26.6972 45.1614 25.8064 45.1614C24.9157 45.1614 24.1935 44.4392 24.1935 43.5484C24.1935 42.6577 24.9157 41.9355 25.8064 41.9355C26.6972 41.9355 27.4194 42.6577 27.4194 43.5484Z" fill="#091E46"/>
<path d="M43.5484 43.5484C43.5484 44.4392 42.8262 45.1614 41.9355 45.1614C41.0448 45.1614 40.3226 44.4392 40.3226 43.5484C40.3226 42.6577 41.0448 41.9355 41.9355 41.9355C42.8262 41.9355 43.5484 42.6577 43.5484 43.5484Z" fill="#091E46"/>
<path d="M40.3226 54.8386H37.0968C37.0968 56.6177 35.6501 58.0644 33.871 58.0644C32.0919 58.0644 30.6452 56.6177 30.6452 54.8386H27.4194C27.4194 58.3968 30.3128 61.2902 33.871 61.2902C37.4291 61.2902 40.3226 58.3968 40.3226 54.8386Z" fill="#091E46"/>
<path d="M96.7742 58.0645V32.2581H83.871V19.3548H80.6452V6.45161H77.4194V0H54.8387V6.45161H51.6129V17.8278C47.6003 13.7932 42.0481 11.2903 35.9225 11.2903C30.008 11.2903 24.4487 13.5939 20.266 17.7758L18.5452 19.4966C13.3773 20.7646 9.67742 25.4402 9.67742 30.805V48.3871C9.67742 52.5083 12.7969 55.8791 16.7922 56.3547C17.9593 60.5563 20.6291 64.1326 24.1935 66.463V69.8045L7.72114 75.2985C3.10137 76.8358 0 81.1405 0 86.0068V100H67.7419V86.0068C67.7419 81.139 64.6406 76.8342 60.0224 75.2969L43.5484 69.8045V67.7419H96.7742C98.5533 67.7419 100 66.2952 100 64.5161V61.2903C100 59.5112 98.5533 58.0645 96.7742 58.0645ZM83.871 58.0645V41.9355H93.5484V58.0645H83.871ZM70.9677 58.0645H64.5161V45.1613H70.9677V58.0645ZM61.2903 41.9355V58.0645H50.3804C50.5985 57.5077 50.7883 56.9367 50.9498 56.3547C54.945 55.8791 58.0645 52.5083 58.0645 48.3871V38.7097H77.4194V25.8065H56.6824C56.2697 24.6873 55.7822 23.6068 55.2018 22.5806H80.6452V58.0645H74.1936V41.9355H61.2903ZM51.6129 43.8453C53.4873 44.5131 54.8387 46.2875 54.8387 48.3871C54.8387 50.5111 53.4534 52.3012 51.5452 52.9502C51.579 52.5068 51.6129 52.0642 51.6129 51.6129V43.8453ZM74.1936 29.0323V35.4839H67.7419V29.0323H74.1936ZM64.5161 35.4839H58.0645V33.4323C58.0645 31.9257 57.9109 30.4546 57.6227 29.0323H64.5161V35.4839ZM70.9677 19.3548H67.7419V16.129H70.9677V19.3548ZM64.5161 19.3548H61.2903V16.129H64.5161V19.3548ZM93.5484 35.4839V38.7097H83.871V35.4839H93.5484ZM58.0645 3.22581H74.1936V6.45161H58.0645V3.22581ZM77.4194 9.67742V19.3548H74.1936V12.9032H58.0645V19.3548H54.8387V9.67742H77.4194ZM12.9032 48.3871C12.9032 46.2875 14.2562 44.5131 16.129 43.8453V51.6129C16.129 52.0642 16.1629 52.5068 16.1968 52.9502C14.2885 52.3012 12.9032 50.5111 12.9032 48.3871ZM16.129 33.4213V40.4856C14.9304 40.7305 13.8451 41.2629 12.9032 41.9757V30.8035C12.9032 26.8051 15.7502 23.332 19.6706 22.5484L20.1503 22.4515L22.5468 20.055C26.1191 16.4842 30.8712 14.5161 35.9225 14.5161C46.3529 14.5161 54.8387 23.002 54.8387 33.4323V41.9772C53.8968 41.2645 52.8116 40.7305 51.6129 40.4872V33.4229L49.611 33.9206C49.5472 33.934 43.2082 35.4839 33.871 35.4839C24.5338 35.4839 18.1948 33.934 18.1326 33.9174L16.129 33.4213ZM19.3548 51.6129V37.4661C22.0191 37.9599 27.1744 38.7097 33.871 38.7097C40.5675 38.7097 45.7228 37.9599 48.3871 37.4661V51.6129C48.3871 59.6176 41.8741 66.129 33.871 66.129C25.8679 66.129 19.3548 59.6176 19.3548 51.6129ZM33.871 69.3548C36.1486 69.3548 38.3191 68.9083 40.3226 68.1223V70.2999L33.871 76.7515L27.4194 70.2999V68.1223C29.4229 68.9083 31.5934 69.3548 33.871 69.3548ZM32.0116 90.3226H35.7304L36.8062 96.7742H30.9358L32.0116 90.3226ZM36.2336 87.0968H31.5083L29.7954 84.5278L33.871 81.1319L37.9465 84.5278L36.2336 87.0968ZM25.3709 72.813L31.4823 78.9244L24.9772 84.3451L21.5584 74.0841L25.3709 72.813ZM3.22581 86.0068C3.22581 82.5306 5.44197 79.4552 8.74023 78.3565L18.4964 75.1047L23.4115 89.8485L27.3052 86.6046L28.9519 89.0743L27.6659 96.7742H3.22581V86.0068ZM64.5161 86.0068V96.7742H40.0761L38.7916 89.0743L40.4384 86.6046L44.332 89.8485L49.2471 75.1047L59.0033 78.3565C62.3 79.4567 64.5161 82.5306 64.5161 86.0068ZM46.1851 74.0841L42.7663 84.3451L36.2612 78.9244L42.3726 72.813L46.1851 74.0841ZM96.7742 64.5161H46.0095C47.0341 63.5514 47.9484 62.4724 48.721 61.2903H96.7742V64.5161Z" fill="#091E46"/>
<path d="M119.957 63.9837C119.834 63.6259 119.533 63.3717 119.156 63.3152L114.826 62.6562L112.887 58.5046C112.557 57.7985 111.399 57.7985 111.07 58.5046L109.121 62.6468L104.79 63.3058C104.423 63.3623 104.112 63.6165 103.99 63.9742C103.868 64.332 103.962 64.7274 104.225 64.991L107.389 68.2295L106.645 72.8142C106.579 73.1908 106.739 73.5768 107.059 73.7933C107.379 74.0098 107.784 74.0381 108.123 73.8498L111.983 71.7127L115.843 73.8498C115.993 73.9345 116.163 73.9722 116.332 73.9722C116.539 73.9722 116.737 73.9157 116.906 73.7933C117.217 73.5768 117.377 73.1908 117.321 72.8142L116.577 68.2295L119.74 64.991C119.985 64.7368 120.079 64.3414 119.957 63.9837Z" fill="#C4A76A"/>
<path d="M111.898 80.1667C103.859 80.1667 97.3151 73.625 97.3151 65.5833C97.3151 57.5417 103.859 51 111.898 51C119.938 51 126.482 57.5417 126.482 65.5833C126.482 73.625 119.938 80.1667 111.898 80.1667ZM111.898 53.0833C105.005 53.0833 99.3984 58.6917 99.3984 65.5833C99.3984 72.475 105.005 78.0833 111.898 78.0833C118.792 78.0833 124.398 72.4771 124.398 65.5833C124.398 58.6896 118.792 53.0833 111.898 53.0833Z" fill="#091E46" stroke="#091E46"/>
<path d="M116.405 73.9167C116.232 73.9167 116.059 73.8729 115.901 73.7875L111.898 71.575L107.896 73.7875C107.546 73.9812 107.117 73.9562 106.792 73.7271C106.467 73.4979 106.301 73.1021 106.365 72.7083L107.14 67.95L103.863 64.5896C103.59 64.3104 103.496 63.9021 103.619 63.5312C103.744 63.1604 104.065 62.8917 104.451 62.8333L108.938 62.1458L110.957 57.85C111.298 57.1167 112.498 57.1167 112.84 57.85L114.859 62.1458L119.346 62.8333C119.734 62.8917 120.055 63.1625 120.178 63.5312C120.301 63.9021 120.207 64.3104 119.934 64.5896L116.657 67.95L117.432 72.7083C117.496 73.1021 117.33 73.4979 117.005 73.7271C116.826 73.8542 116.617 73.9167 116.405 73.9167ZM111.898 69.3437C112.071 69.3437 112.246 69.3875 112.403 69.4729L115.032 70.9271L114.517 67.7667C114.465 67.4396 114.567 67.1083 114.801 66.8708L117.03 64.5854L113.996 64.1208C113.653 64.0708 113.357 63.85 113.211 63.5354L111.898 60.7437L110.586 63.5354C110.44 63.85 110.144 64.0708 109.801 64.1229L106.767 64.5854L108.996 66.8708C109.228 67.1062 109.332 67.4396 109.28 67.7667L108.765 70.9271L111.394 69.4729C111.551 69.3875 111.726 69.3437 111.898 69.3437Z" fill="#091E46" stroke="#091E46"/>
<path d="M102.888 101C102.876 101 102.865 101 102.853 101C102.467 100.988 102.121 100.765 101.953 100.419L98.9484 94.3146L92.1422 94.7479C91.7547 94.7584 91.3943 94.5834 91.1901 94.2584C90.9859 93.9334 90.9818 93.5209 91.1755 93.1875L101.676 74.9875C101.961 74.4896 102.596 74.3187 103.098 74.6062C103.596 74.8938 103.767 75.5312 103.48 76.0292L93.9526 92.5459L99.5109 92.1917C99.9276 92.1709 100.328 92.3938 100.511 92.7709L102.961 97.75L110.923 83.9792C111.215 83.4813 111.853 83.3146 112.346 83.5979C112.844 83.8875 113.015 84.5229 112.728 85.0229L103.79 100.481C103.605 100.802 103.259 101 102.888 101Z" fill="#091E46" stroke="#091E46"/>
<path d="M120.763 101C120.392 101 120.046 100.802 119.861 100.479L107.688 79.3063C107.403 78.8063 107.58 78.1708 108.08 77.8854C108.571 77.6042 109.215 77.7771 109.498 78.2771L112.732 83.9834L120.692 97.7521L123.165 92.7625C123.353 92.3875 123.759 92.1646 124.165 92.1854L129.723 92.5396L120.226 76.075C119.938 75.5771 120.109 74.9396 120.609 74.6521C121.107 74.3625 121.744 74.5333 122.034 75.0333L132.501 93.1834C132.692 93.5167 132.686 93.9271 132.482 94.2542C132.278 94.5813 131.917 94.7584 131.53 94.7438L124.721 94.3084L121.696 100.417C121.526 100.76 121.18 100.981 120.794 100.994C120.786 101 120.773 101 120.763 101Z" fill="#091E46" stroke="#091E46"/>
</svg>
