<svg width="61" height="60" viewBox="0 0 61 60" fill="none" xmlns="http://www.w3.org/2000/svg">
<g clip-path="url(#clip0)">
<path d="M43.6349 0.00366211C34.5464 0.00366211 27.1525 7.39824 27.1525 16.4875C27.1525 18.7878 27.6147 21.005 28.5276 23.0877L26.2585 31.7185C26.0997 32.3229 26.2737 32.9663 26.7155 33.4083C27.0495 33.7421 27.4982 33.9231 27.9584 33.9231C28.1073 33.9231 28.2574 33.9041 28.4052 33.8653L37.0352 31.5963C39.1176 32.5093 41.3343 32.9715 43.6346 32.9715C52.723 32.9715 60.117 25.577 60.117 16.4877C60.117 7.39847 52.7232 0.00366211 43.6349 0.00366211ZM43.6349 29.4561C41.6479 29.4561 39.7413 29.0185 37.9684 28.1555C37.5903 27.9714 37.1586 27.9291 36.7521 28.036L30.4239 29.6998L32.0878 23.3712C32.1947 22.9646 32.1524 22.5332 31.9683 22.1552C31.1052 20.3817 30.6675 18.475 30.6675 16.4876C30.6675 9.33663 36.4847 3.51898 43.6348 3.51898C50.7848 3.51898 56.6019 9.33663 56.6019 16.4876C56.6019 23.6386 50.7849 29.4561 43.6349 29.4561Z" fill="white"/>
<path d="M35.7666 38.452C35.4377 38.1216 34.9911 37.9355 34.5249 37.9344C34.5235 37.9344 34.5223 37.9344 34.521 37.9344C34.0562 37.9344 33.6104 38.1185 33.2809 38.4466L28.0446 43.6605L16.4375 32.0013L21.6741 26.7872C22.3619 26.1023 22.3644 24.9895 21.6795 24.3017L10.9804 13.5547C10.6515 13.2242 10.205 13.0382 9.73875 13.0371C9.73734 13.0371 9.73617 13.0371 9.73488 13.0371C9.27006 13.0371 8.82421 13.2212 8.49472 13.5493L3.82126 18.2027C-1.10248 23.1052 -1.11994 31.0997 3.78201 36.0239H3.78213L23.9666 56.299C26.3328 58.6759 29.4944 59.989 32.8686 59.9964H32.8972C36.2606 59.9964 39.4168 58.6978 41.7866 56.3382L46.4602 51.6846C47.148 50.9997 47.1504 49.8869 46.4657 49.1991L35.7666 38.452ZM9.72949 17.2802L17.9486 25.5361L15.4316 28.0422L7.19984 19.7992L9.72949 17.2802ZM32.897 56.4812C32.8901 56.4812 32.8832 56.4812 32.8763 56.4812C30.441 56.4758 28.1617 55.5304 26.4579 53.819L6.27347 33.5437C3.28578 30.5427 2.83291 25.9602 4.90793 22.4789L13.1576 30.7399C12.6776 31.9939 12.9392 33.4698 13.9463 34.4813L25.5534 46.1406C26.2158 46.8061 27.0979 47.1737 28.0369 47.1758H28.0447C28.4915 47.1758 28.9253 47.092 29.3292 46.9336L37.579 55.1944C36.1832 56.0329 34.5768 56.4812 32.897 56.4812ZM40.2567 52.9009L32.0249 44.6579L34.5156 42.1778L42.7346 50.4337L40.2567 52.9009Z" fill="white"/>
<path d="M48.7134 11.0833C48.0269 10.3969 46.914 10.3969 46.2275 11.0833L43.4764 13.8344L40.7253 11.0833C40.039 10.397 38.9259 10.397 38.2394 11.0833C37.553 11.7697 37.553 12.8828 38.2394 13.5692L40.9905 16.3203L38.2394 19.0714C37.553 19.7578 37.553 20.8708 38.2394 21.5573C38.5827 21.9007 39.0324 22.0721 39.4823 22.0721C39.9321 22.0721 40.3821 21.9005 40.7252 21.5573L43.4763 18.8062L46.2274 21.5573C46.5706 21.9006 47.0205 22.0721 47.4703 22.0721C47.9202 22.0721 48.3701 21.9005 48.7132 21.5573C49.3997 20.871 49.3997 19.7579 48.7132 19.0714L45.9621 16.3203L48.7132 13.5692C49.3999 12.8829 49.3999 11.7697 48.7134 11.0833Z" fill="white"/>
</g>
<defs>
<clipPath id="clip0">
<rect width="60.1172" height="60" fill="white"/>
</clipPath>
</defs>
</svg>
