<svg width="100" height="100" viewBox="0 0 100 100" fill="none" xmlns="http://www.w3.org/2000/svg">
<g clip-path="url(#clip0)">
<path d="M99.5927 42.6483L82.8553 20.906C82.2358 20.1019 81.1059 19.9035 80.2491 20.4483L69.4428 27.3208H55.349C55.1667 27.3208 54.9851 27.3597 54.8096 27.4109L43.882 30.5565L32.5432 27.4551L21.5256 20.4483C20.6833 19.9127 19.574 20.0943 18.9477 20.8709L0.434927 43.8018C-0.230356 44.6258 -0.120492 45.829 0.68212 46.5194L10.3852 54.8698L19.0903 66.6008C16.5444 69.313 16.594 73.5908 19.2429 76.2405C20.4171 77.4139 21.9101 78.0769 23.4459 78.231C23.3925 78.5789 23.3651 78.9322 23.3651 79.2907C23.3651 81.1416 24.0861 82.8819 25.3945 84.1903C26.7037 85.4995 28.444 86.2205 30.2949 86.2205C30.32 86.2205 30.3444 86.219 30.3689 86.2182C30.3681 86.2655 30.3658 86.3121 30.3658 86.3594C30.3658 88.2103 31.0868 89.9505 32.3952 91.2597C33.7044 92.5682 35.4447 93.2892 37.2956 93.2892C37.661 93.2892 38.0227 93.2594 38.3774 93.2045C38.5277 94.7456 39.1923 96.2456 40.3702 97.4235C41.7206 98.7747 43.4952 99.4499 45.2698 99.4499C47.0444 99.4499 48.819 98.7747 50.1702 97.4235L51.2299 96.3638L51.6747 96.7224C53.0144 98.0202 54.7539 98.6687 56.4934 98.6687C58.268 98.6687 60.0426 97.9935 61.393 96.6423C62.7717 95.2637 63.4469 93.444 63.4186 91.6336C65.2283 91.661 67.0487 90.9866 68.4273 89.6087C69.8044 88.2309 70.4796 86.4128 70.4529 84.6031C72.3382 84.6329 74.1265 83.9088 75.4609 82.5744C76.8395 81.1958 77.5147 79.3762 77.4865 77.5657C79.2977 77.5932 81.1165 76.9188 82.4952 75.5401C84.8481 73.1872 85.151 69.5503 83.4061 66.8655L89.7622 53.5537L99.318 45.3308C100.108 44.651 100.228 43.473 99.5927 42.6483ZM20.8985 24.6971L28.8209 29.7348L11.5868 50.7309L4.68069 44.7868L20.8985 24.6971ZM22.0162 69.2131L24.4072 66.822C24.4797 66.7495 24.556 66.6809 24.6338 66.6168C25.1015 66.2353 25.6676 66.008 26.2673 65.9538C26.2841 65.9523 26.3016 65.9523 26.3184 65.9515C26.4039 65.9446 26.4893 65.9401 26.5755 65.9408C27.3949 65.9523 28.1563 66.2872 28.7209 66.8831C29.8287 68.0542 29.7692 69.9676 28.5882 71.1487L26.2696 73.4672C25.0969 74.6399 23.1888 74.6399 22.0162 73.4672C20.8436 72.2938 20.8436 70.3857 22.0162 69.2131ZM28.1678 81.4171C27.5994 80.8494 27.2866 80.0941 27.2866 79.2907C27.2866 78.4874 27.5994 77.7321 28.1678 77.1637L32.8042 72.5273C33.6922 71.6392 35.0884 71.3959 36.2237 71.9368C37.394 72.4945 38.0524 73.7648 37.8808 75.0427C37.7892 75.7248 37.4718 76.3672 36.9851 76.8547L32.4219 81.4171C31.8535 81.9855 31.0982 82.2983 30.2949 82.2983C29.4915 82.2983 28.7362 81.9855 28.1678 81.4171ZM35.1685 88.4857C34.6001 87.9181 34.2873 87.1628 34.2873 86.3594C34.2873 85.556 34.6001 84.8007 35.1685 84.2323L39.8041 79.5959C40.754 78.6468 42.2776 78.4424 43.4403 79.1191C44.5023 79.7371 45.0585 80.9501 44.8762 82.1586C44.7762 82.8232 44.4604 83.448 43.985 83.9233L39.4227 88.4857C38.8543 89.0541 38.099 89.3669 37.2956 89.3669C36.4922 89.3669 35.7369 89.0541 35.1685 88.4857ZM43.1428 94.6503C41.9701 93.4776 41.9701 91.5695 43.1428 90.3969L45.5338 88.0058C45.6063 87.9333 45.6818 87.8654 45.7596 87.8013C45.7619 87.7998 45.7635 87.7983 45.765 87.7968C46.1541 87.4809 46.6111 87.2696 47.0986 87.1773C47.11 87.1757 47.1215 87.1742 47.1329 87.1727C47.2169 87.1574 47.3023 87.1452 47.3878 87.1376C47.4221 87.1345 47.4564 87.1345 47.4915 87.1322C47.5617 87.1284 47.6311 87.1238 47.7021 87.1246C48.5207 87.1361 49.2829 87.4702 49.8475 88.0668C49.9169 88.1401 49.9817 88.2164 50.0413 88.295C50.9431 89.4737 50.8217 91.2246 49.7025 92.3446L47.3961 94.651C46.2235 95.8237 44.3154 95.8229 43.1428 94.6503ZM79.7219 72.7669C78.5493 73.9403 76.6411 73.9395 75.4685 72.7669C75.4258 72.7241 75.3808 72.6845 75.335 72.6471L62.7267 59.906C61.9645 59.1362 60.7232 59.1301 59.9534 59.8922C59.1836 60.6537 59.1775 61.895 59.9389 62.6648L72.6838 75.5424C72.6853 75.544 72.6868 75.5455 72.6884 75.547C73.861 76.7196 73.861 78.6285 72.6884 79.8012C72.12 80.3695 71.3647 80.6824 70.5613 80.6824C69.7571 80.6824 69.0018 80.3695 68.4342 79.8012L59.9084 71.1868C59.1469 70.417 57.9056 70.4109 57.1358 71.1723C56.366 71.9345 56.3599 73.1758 57.1213 73.9456L65.5167 82.428C65.5594 82.4814 65.6052 82.5325 65.6541 82.5813C66.8267 83.7539 66.8267 85.6628 65.6541 86.8355C64.4806 88.0081 62.5718 88.0073 61.3991 86.8347L56.746 82.1327C55.9838 81.3629 54.7425 81.356 53.9727 82.1182C53.2029 82.8796 53.1968 84.1209 53.9582 84.8907L58.4817 89.4607C58.5244 89.5141 58.5702 89.566 58.6197 89.6148C59.7924 90.7875 59.7924 92.6964 58.6197 93.869C57.4471 95.0424 55.539 95.0416 54.3664 93.869C54.2313 93.734 54.0726 93.6302 53.9216 93.5142C53.7934 93.4166 53.7598 93.3487 53.8239 93.193C53.8888 93.0351 53.9857 92.8924 54.0505 92.7337C54.1222 92.5567 54.1802 92.3744 54.2367 92.1913C54.5373 91.2224 54.6258 90.1802 54.4907 89.1746C54.2313 87.2452 53.1701 85.5041 51.5618 84.4024C50.6928 83.8081 49.6873 83.4183 48.6451 83.2718C49.1501 81.044 48.5436 78.6285 46.9658 76.9615C45.6673 75.5897 43.9133 74.8199 42.0266 74.794C41.9579 74.7932 41.8892 74.7932 41.8198 74.794C41.8618 72.9934 41.2072 71.2043 39.9659 69.8929C38.6666 68.5211 36.9126 67.7513 35.0266 67.7253C34.4658 67.7177 33.8997 67.7772 33.3535 67.9031C33.12 66.2788 32.3014 64.7758 31.0616 63.7008C29.8295 62.6342 28.2799 62.0422 26.6297 62.0193C24.8925 61.9941 23.1858 62.635 21.8957 63.8L14.3158 53.5865L32.4494 31.4949L38.2287 33.0757L30.6809 46.3943C29.7684 48.0049 29.538 49.8741 30.0316 51.6578C30.5253 53.4424 31.6834 54.927 33.294 55.8395C33.3947 55.8967 33.4961 55.9509 33.5991 56.0028C33.6068 56.0066 33.6144 56.0104 33.6228 56.0142C33.8936 56.1493 34.1721 56.2652 34.4544 56.3629C35.7689 56.8184 37.1888 56.868 38.5583 56.4895C40.342 55.9959 41.8267 54.837 42.7392 53.2272L47.6441 44.5717L56.4019 45.1927L79.7227 68.5127C80.8945 69.6861 80.8945 71.5942 79.7219 72.7669ZM80.5344 63.7787L58.6571 41.9021C58.6159 41.8602 58.5724 41.8205 58.5274 41.7831C58.2123 41.5207 57.8217 41.362 57.4097 41.333L46.6866 40.5723C45.945 40.5212 45.208 40.9156 44.8418 41.5619L39.3273 51.2939C38.9313 51.9928 38.2866 52.4955 37.5123 52.7099C36.7386 52.9243 35.9269 52.8236 35.2273 52.4276C34.5284 52.0317 34.0256 51.387 33.8112 50.6126C33.5969 49.8382 33.6968 49.0265 34.0935 48.3276L41.4551 35.3355L44.4382 34.4772C44.4581 34.4711 44.4771 34.4635 44.497 34.4574L55.6306 31.2423H69.0827L85.8765 52.5909L80.5344 63.7787ZM88.4453 49.5132L72.9149 29.7599L80.8411 24.7192L95.353 43.5691L88.4453 49.5132Z" fill="#091E46"/>
<path d="M60.5827 23.6389C61.0847 23.6389 61.5867 23.4474 61.9697 23.0645L75.3639 9.67029C76.1299 8.9043 76.1299 7.66299 75.3639 6.897C74.5979 6.13101 73.3566 6.13101 72.5906 6.897L59.1964 20.2912C58.4305 21.0572 58.4305 22.2985 59.1964 23.0645C59.5794 23.4474 60.0815 23.6389 60.5827 23.6389Z" fill="#C4A76A"/>
<path d="M38.0302 23.0645C38.4132 23.4474 38.9153 23.6389 39.4173 23.6389C39.9185 23.6389 40.4205 23.4474 40.8035 23.0645C41.5695 22.2985 41.5695 21.0572 40.8035 20.2912L27.4094 6.897C26.6434 6.13101 25.4021 6.13101 24.6361 6.897C23.8701 7.66299 23.8701 8.9043 24.6361 9.67029L38.0302 23.0645Z" fill="#C4A76A"/>
<path d="M50 23.6391C51.0826 23.6391 51.9608 22.7609 51.9608 21.6783V10.5936C51.9608 9.51096 51.0826 8.63281 50 8.63281C48.9174 8.63281 48.0392 9.51096 48.0392 10.5936V21.6783C48.0392 22.7609 48.9174 23.6391 50 23.6391Z" fill="#C4A76A"/>
<path d="M48.1903 3.48662C48.5016 4.24116 49.2775 4.73631 50.0962 4.69359C50.9049 4.65163 51.6152 4.10536 51.8654 3.33555C52.1164 2.55965 51.8433 1.6754 51.1933 1.18101C50.5303 0.675947 49.6056 0.647718 48.9121 1.10625C48.1385 1.61741 47.8386 2.63518 48.1903 3.48662Z" fill="#C4A76A"/>
</g>
<defs>
<clipPath id="clip0">
<rect width="100" height="100" fill="white"/>
</clipPath>
</defs>
</svg>
