<svg width="127" height="104" viewBox="0 0 127 104" fill="none" xmlns="http://www.w3.org/2000/svg">
<path d="M124.386 86.4013H117.828V20.4463C117.828 16.3339 114.465 13 110.318 13H16.3412C12.1936 13 8.83131 16.3339 8.83131 20.4463V86.4013H2.8601C1.83294 86.4013 1 87.2272 1 88.2457V92.3188C1 98.2176 5.82295 103 11.7724 103H81.8522C82.8794 103 83.7124 102.174 83.7124 101.156C83.7124 100.137 82.8794 99.3113 81.8522 99.3113H11.7724C7.87753 99.3111 4.7202 96.1807 4.7202 92.3188V90.09H10.6917H48.5598C48.6258 93.6601 51.5733 96.545 55.1897 96.545H72.0564C75.6726 96.545 78.6203 93.6601 78.6864 90.09H115.968H122.526V92.3188C122.526 96.1807 119.369 99.3113 115.474 99.3113H90.5331C89.506 99.3113 88.673 100.137 88.673 101.156C88.673 102.174 89.506 103 90.5331 103H115.474C121.423 103 126.246 98.2179 126.246 92.3188V88.2457C126.246 87.2269 125.413 86.4013 124.386 86.4013ZM72.0561 92.8561H55.1895C53.6247 92.8561 52.3438 91.6261 52.2795 90.0898H74.9662C74.9018 91.6258 73.6212 92.8561 72.0561 92.8561ZM114.108 86.4013H12.5518V20.4463C12.5518 18.3742 14.2516 16.6887 16.3414 16.6887H110.318C112.408 16.6887 114.108 18.3742 114.108 20.4463V86.4013Z" fill="#091E46"/>
<path d="M109.023 19.8856H36.963C35.9358 19.8856 35.1029 20.7115 35.1029 21.73C35.1029 22.7485 35.9358 23.5744 36.963 23.5744H107.163V79.5157H19.4961V23.5741H28.2821C29.3093 23.5741 30.1422 22.7482 30.1422 21.7298C30.1422 20.7113 29.3093 19.8854 28.2821 19.8854H17.636C16.6088 19.8854 15.7759 20.7113 15.7759 21.7298V81.3598C15.7759 82.3782 16.6088 83.2041 17.636 83.2041H109.023C110.05 83.2041 110.883 82.3782 110.883 81.3598V21.73C110.883 20.7113 110.051 19.8856 109.023 19.8856Z" fill="#091E46"/>
<path d="M98.9155 36.4924C98.9155 55.5072 83.2836 70.9215 64.001 70.9215C44.7184 70.9215 29.0871 55.5072 29.0871 36.4924C29.0871 17.4776 44.7184 2.06332 64.001 2.06332C83.2836 2.06332 98.9155 17.4776 98.9155 36.4924Z" fill="#C4A76A"/>
<path d="M93.1559 36.4924C93.1559 51.1678 81.9472 63.3097 67.5287 65.0323C66.3724 65.1715 65.1947 65.2425 64.001 65.2425C47.9259 65.2425 34.8467 52.3449 34.8467 36.4924C34.8467 20.6405 47.9259 7.74292 64.001 7.74292C65.1947 7.74292 66.3724 7.81388 67.5287 7.95255C81.9472 9.67512 93.1559 21.817 93.1559 36.4924Z" fill="white"/>
<path d="M93.1559 36.4924C93.1559 51.1678 81.9472 63.3097 67.5287 65.0323C53.1103 63.3097 41.9015 51.1678 41.9015 36.4924C41.9015 21.8171 53.1103 9.67514 67.5287 7.95258C81.9472 9.67514 93.1559 21.8171 93.1559 36.4924Z" fill="white"/>
<path d="M78.3349 19.5615C78.3349 17.7609 75.2263 16.4473 73.1048 16.4473C71.8716 16.4473 71.3778 16.9337 70.8845 17.8584L64.0258 30.3632L57.1181 17.8584C56.5754 16.9337 56.131 16.4473 54.8978 16.4473C52.7758 16.4473 49.6672 17.7609 49.6672 19.5615C49.6672 20.0956 49.0569 18.938 57.9992 33.5494H54.2348C52.2473 33.5494 50.6356 35.1387 50.6356 37.0991C50.6356 39.0595 52.2473 40.6488 54.2348 40.6488H60.1773V45.2439H54.2348C52.2473 45.2439 50.6356 46.8332 50.6356 48.7936C50.6356 50.754 52.2473 52.3433 54.2348 52.3433H60.1773V57.0419C60.1773 60.156 67.8748 60.156 67.8748 57.0419V52.3433H73.8168C75.8047 52.3433 77.4159 50.754 77.4159 48.7936C77.4159 46.8332 75.8047 45.2439 73.8168 45.2439H67.8748V40.6488H73.8168C75.8047 40.6488 77.4159 39.0595 77.4159 37.0991C77.4159 35.1387 75.8047 33.5494 73.8168 33.5494H70.043C78.9435 18.9353 78.3349 20.0945 78.3349 19.5615Z" fill="#C4A76A"/>
<path d="M32.5694 48.8647C23.7056 26.9875 40.1439 3.12785 64.0012 3.12785C71.8207 3.12785 79.4469 5.82004 85.4751 10.7077C85.9359 11.0814 86.6165 11.0159 86.995 10.5614C87.3735 10.1069 87.307 9.4358 86.8467 9.06258C72.9276 -2.22293 51.9855 -1.85458 38.5498 11.3945C28.0496 21.7489 25.3882 36.8793 30.5638 49.655C30.7847 50.2005 31.4125 50.467 31.9673 50.2487C32.5211 50.0304 32.7908 49.4107 32.5694 48.8647Z" fill="#091E46" stroke="#091E46"/>
<path d="M90.1023 12.0514C89.6919 11.6251 89.008 11.6078 88.5757 12.0124C88.1434 12.4176 88.1258 13.0915 88.5367 13.5183C94.533 19.7434 97.8355 27.9023 97.8355 36.4923C97.8355 54.8897 82.6574 69.857 64.001 69.857C51.6771 69.857 40.3178 63.2398 34.3572 52.5886C34.0688 52.0734 33.4124 51.8866 32.89 52.1704C32.3681 52.4548 32.1781 53.1026 32.4665 53.6172C44.0004 74.229 72.4594 78.3474 89.4524 61.5903C103.428 47.8098 103.384 25.839 90.1023 12.0514Z" fill="#091E46" stroke="#091E46"/>
<path d="M93.1312 38.0903C93.7316 38.1039 94.22 37.6332 94.2309 37.0449C94.543 20.3793 80.8804 6.67737 64.001 6.67737C47.3293 6.67737 33.7662 20.0522 33.7662 36.4924C33.7662 52.9326 47.3293 66.3074 64.001 66.3074C78.9215 66.3074 91.4184 55.5646 93.8201 41.4374C93.9189 40.8573 93.5218 40.308 92.9335 40.211C92.3457 40.1135 91.7887 40.5052 91.6898 41.0853C89.4156 54.4655 77.7707 64.1774 64.001 64.1774C48.5202 64.1774 35.9261 51.7582 35.9261 36.4924C35.9261 21.2265 48.5208 8.80728 64.001 8.80728C79.6593 8.80728 92.3583 21.5115 92.0716 37.0059C92.0606 37.5936 92.5352 38.0795 93.1312 38.0903Z" fill="#091E46" stroke="#091E46"/>
<path d="M79.4148 19.5463C79.4005 16.9662 75.7344 15.3824 73.1048 15.3824C71.2421 15.3824 70.4774 16.3341 69.9342 17.3519L64.0224 28.131L58.0662 17.3492C58.0618 17.3411 58.0569 17.333 58.0525 17.3248C57.4752 16.3422 56.7567 15.3824 54.8972 15.3824C52.2665 15.3824 48.5982 16.9673 48.5872 19.5496C48.5872 19.5485 48.5872 19.5479 48.5872 19.5506C48.5405 20.0463 48.6938 20.3605 49.1426 21.1318C49.8325 22.317 51.598 25.1576 56.0859 32.4845H54.2347C51.6546 32.4845 49.5557 34.5548 49.5557 37.0991C49.5557 39.6434 51.6546 41.7138 54.2347 41.7138H59.0973V44.179H54.2347C51.6546 44.179 49.5557 46.2493 49.5557 48.7936C49.5557 51.3379 51.6546 53.4077 54.2347 53.4077H59.0973V57.0419C59.0973 61.5839 68.9542 61.5866 68.9542 57.0419V53.4077H73.8162C76.3963 53.4077 78.4958 51.3379 78.4958 48.7936C78.4958 46.2493 76.3963 44.179 73.8162 44.179H68.9542V41.7138H73.8162C76.3963 41.7138 78.4958 39.6434 78.4958 37.0991C78.4958 34.5548 76.3963 32.4845 73.8162 32.4845H71.9513C76.4117 25.1674 78.175 22.3165 78.8627 21.1291C79.3071 20.3621 79.4598 20.0474 79.4148 19.5463ZM69.1173 33.0013C68.6856 33.7103 69.2047 34.6144 70.0429 34.6144H73.8162C75.2054 34.6144 76.3359 35.7292 76.3359 37.0991C76.3359 38.4691 75.2054 39.5838 73.8162 39.5838H67.8742C67.2782 39.5838 66.7948 40.0605 66.7948 40.6488V45.2439C66.7948 45.8322 67.2782 46.3089 67.8742 46.3089H73.8162C75.2054 46.3089 76.3359 47.4237 76.3359 48.7936C76.3359 50.1635 75.2054 51.2783 73.8162 51.2783H67.8742C67.2782 51.2783 66.7948 51.755 66.7948 52.3433V57.0419C66.7948 57.8268 65.3573 58.3127 64.0257 58.3127C62.6942 58.3127 61.2572 57.8268 61.2572 57.0419V52.3433C61.2572 51.755 60.7738 51.2783 60.1772 51.2783H54.2347C52.8455 51.2783 51.7156 50.1635 51.7156 48.7936C51.7156 47.4237 52.8455 46.3089 54.2347 46.3089H60.1772C60.7738 46.3089 61.2572 45.8322 61.2572 45.2439V40.6488C61.2572 40.0605 60.7738 39.5838 60.1772 39.5838H54.2347C52.8455 39.5838 51.7156 38.4691 51.7156 37.0991C51.7156 35.7292 52.8455 34.6144 54.2347 34.6144H57.9992C58.8408 34.6144 59.3566 33.7065 58.9237 32.9996C52.9741 23.2774 51.0767 20.251 50.7471 19.5918C50.7471 19.5821 50.7471 19.5718 50.7471 19.5615C50.7471 18.6612 53.0746 17.5123 54.8978 17.5123C55.5701 17.5123 55.7283 17.6179 56.1766 18.3801L63.0776 30.8724C63.4863 31.6129 64.5685 31.6124 64.9755 30.8697L71.8397 18.3546C72.2221 17.6379 72.411 17.5123 73.1048 17.5123C74.928 17.5123 77.2549 18.6612 77.2549 19.5615C77.2549 19.5718 77.2549 19.5821 77.2554 19.5923C76.9281 20.25 75.0494 23.2612 69.1173 33.0013Z" fill="#091E46" stroke="#091E46"/>
</svg>
