<svg width="103" height="103" viewBox="0 0 103 103" fill="none" xmlns="http://www.w3.org/2000/svg">
<path d="M91.5755 8.86508L87.6758 4.96531C84.8884 2.17625 81.1789 0.640625 77.2365 0.640625H69.6765C63.2715 0.640625 58.0625 5.84961 58.0625 12.2546C58.0625 15.8016 59.6506 19.1059 62.4216 21.3223L65.9293 24.1278L66.7332 24.7053C66.976 22.4757 67.3435 19.8622 67.9062 17.0469C67.9062 17.0469 71.1875 15.4062 74.4688 15.4062C78.3242 15.4062 81.046 17.1043 82.6374 18.507C83.7022 19.4455 84.3125 20.548 84.3125 21.9687H85.9531C88.6716 21.9687 90.875 24.1721 90.875 26.8906C90.875 30.1719 87.5938 31.8125 87.5938 31.8125C87.5938 32.833 87.7447 33.9256 88.0072 34.997C88.4715 36.9017 89.4887 38.6293 90.875 40.0156V41.8498L96.0118 39.2823C99.928 37.3234 102.359 33.3875 102.359 29.0103V20.3281C102.359 14.2316 97.5835 9.22766 91.5755 8.86508Z" fill="#C4A76A"/>
<path d="M44.4568 2.76195C43.0902 1.39367 41.2707 0.640625 39.3364 0.640625H26.1294C21.9507 0.640625 18.0148 2.27633 14.9403 5.35086C12.1496 8.13992 10.4844 12.5122 10.4844 17.0469C10.4844 24.4018 15.9066 28.1014 16.1363 28.2556L16.8812 28.7511L17.2454 28.592C17.124 28.0374 17.0469 27.4698 17.0469 26.8906C17.0469 25.0777 18.5152 23.6094 20.3281 23.6094V20.3281C20.3281 16.704 23.2665 13.7656 26.8906 13.7656H35.0938C37.9484 13.7656 40.3536 15.5998 41.2559 18.1445L41.5299 17.9853C44.6914 15.613 46.5781 11.8363 46.5781 7.88234C46.5781 5.94805 45.8251 4.12859 44.4568 2.76195Z" fill="#C4A76A"/>
<path d="M96.0118 39.2823C99.928 37.3234 102.359 33.3875 102.359 29.0103V20.3281C102.359 14.2316 97.5835 9.22766 91.5755 8.86508L87.6758 4.96531C84.8884 2.17625 81.1789 0.640625 77.2365 0.640625H69.6765C63.2715 0.640625 58.0625 5.84961 58.0625 12.2546C58.0625 15.8016 59.6506 19.1059 62.4216 21.3223L65.2123 23.5552C64.6365 28.3409 64.625 31.6205 64.625 31.8125V33.4531H67.9062V34.5966C67.9062 37.512 69.3549 40.2174 71.7798 41.8351C73.2153 42.7916 74.8838 43.2969 76.6065 43.2969H77.0511C77.2857 43.2969 77.517 43.246 77.75 43.228V49.1703L74.7017 49.7806C73.9864 49.9234 73.3302 50.3089 72.856 50.8634L70.8856 53.162C68.843 55.5441 67.1893 58.197 65.9162 61.0156L56.4219 70.5083V64.3215C56.4219 57.7852 53.6 51.5689 48.6814 47.2655C44.5503 43.648 39.2495 41.6562 33.7566 41.6562H33.4531V39.9598C37.2594 39.6793 40.5685 37.3102 42.0024 33.7222C42.8621 31.5763 43.2969 29.3171 43.2969 27.0055V20.3281C43.2969 19.1682 43.0491 18.069 42.6127 17.0682C45.1163 14.6991 46.5781 11.3605 46.5781 7.88234C46.5781 5.94805 45.8251 4.12859 44.4568 2.76195C43.0902 1.39367 41.2707 0.640625 39.3364 0.640625H26.1294C21.9507 0.640625 18.0148 2.27633 14.9403 5.35086C12.1496 8.13992 10.4844 12.5122 10.4844 17.0469C10.4844 22.922 13.9362 26.4559 15.4473 27.7241C15.6392 29.9635 16.599 32.0455 18.2068 33.6533L18.6875 34.1323V41.6759C14.9797 41.7727 11.4327 42.9474 8.4057 45.1098C3.54289 48.583 0.640625 54.2218 0.640625 60.197V74.4688C0.640625 80.0616 3.19836 85.0672 7.20312 88.3796V102.359H46.5781V92.5156H50.9865C54.9305 92.5156 58.6384 90.98 61.4274 88.1909L62.986 86.6323V102.359H102.361V61.1042C102.361 58.8598 101.831 56.6138 100.827 54.609C99.4292 51.8166 97.1225 49.5099 94.3302 48.1121L92.5156 47.2048V41.0295L96.0118 39.2823ZM64.4708 18.7597C62.484 17.1699 61.3438 14.7976 61.3438 12.2546C61.3438 7.65922 65.0811 3.92188 69.6765 3.92188H77.2365C80.3045 3.92188 83.187 5.11625 85.3576 7.28516L90.1958 12.125H90.875C95.3982 12.125 99.0781 15.8049 99.0781 20.3281V29.0103C99.0781 32.1373 97.3407 34.9494 94.5434 36.3472L91.2688 37.9845C90.4698 36.9657 89.8955 35.8189 89.6002 34.6098C89.4395 33.9519 89.3295 33.3022 89.2754 32.6902C90.5124 31.7961 92.5156 29.8897 92.5156 26.8906C92.5156 23.2714 89.5723 20.3281 85.9531 20.3281H85.73C85.4068 19.1912 84.7358 18.1691 83.7219 17.2749C81.9057 15.6753 78.8246 13.7656 74.4688 13.7656C70.843 13.7656 67.3205 15.5063 67.1729 15.5785L66.4543 15.9378L66.2968 16.7237C66.0868 17.7737 65.9047 18.7941 65.7439 19.7785L64.4708 18.7597ZM78.3767 54.7812H76.1028L76.1077 52.8453L79.7056 52.1267L78.3767 54.7812ZM76.577 73.573L74.5196 69.8701L75.9256 58.0625H78.0748L80.4193 68.6117C79.3102 70.3869 78.0289 72.0488 76.577 73.573ZM82.7654 64.0491L81.1182 56.6352L83.7809 51.3113L86.8194 50.7043L83.9811 60.6366C83.6464 61.8064 83.2264 62.9384 82.7654 64.0491ZM81.0312 42.6734L86.2747 41.6251L85.6299 38.4078L78.1126 39.9123C77.7648 39.9812 77.4088 40.0156 77.0511 40.0156H76.6065C75.5335 40.0156 74.4934 39.7006 73.6009 39.1051C72.0898 38.0994 71.1875 36.4128 71.1875 34.5966V30.1719H67.9538C68.0555 27.8783 68.3689 23.4043 69.3533 18.2002C70.4066 17.7687 72.4688 17.0469 74.4688 17.0469C77.8009 17.0469 80.1601 18.5103 81.553 19.7375C82.3273 20.42 82.6719 21.1074 82.6719 21.9688V23.6094H85.9531C87.7627 23.6094 89.2344 25.081 89.2344 26.8906C89.2344 29.0923 86.8752 30.3376 86.8604 30.3441L85.9531 30.7986V31.8125C85.9531 32.933 86.1073 34.1356 86.4125 35.3858C86.885 37.3217 87.8546 39.1346 89.2344 40.6686V46.8734L81.0312 48.5141V42.6734ZM72.8281 55.997V56.3251L71.7978 64.9728L69.5813 60.9828C70.4886 59.2224 71.573 57.5539 72.8281 55.997ZM53.1406 64.3215V73.7895L52.2629 74.6673C51.3458 75.5844 50.0759 76.1094 48.7798 76.1094H46.5781V66.2656H43.2969V76.1094H41.6661C41.6628 76.1094 41.6612 76.1094 41.6579 76.1094C41.6562 76.1094 41.6562 76.1094 41.6562 76.1094H30.1719V71.5123L40.5997 46.186C42.7522 46.9981 44.7603 48.1925 46.5207 49.733C50.7273 53.4146 53.1406 58.7319 53.1406 64.3215ZM46.5781 84.4897C46.5798 85.7513 46.0876 86.9424 45.1885 87.8415C44.296 88.7356 43.1164 89.2278 41.8646 89.2344H40.0156V89.236H36.7344V79.3906H40.0156H41.6661C44.3698 79.3955 46.5732 81.612 46.5781 84.4897ZM30.7986 44.9375L29.158 48.2188H26.2639L24.6233 44.9375H30.7986ZM32.9019 56.2611L31.8781 50.1153L34.4523 44.9687C35.453 45.0048 36.4456 45.1065 37.4185 45.2935L32.9019 56.2611ZM20.9548 44.9375L23.5438 50.1153L22.7284 55.0044L18.0329 45.0261C18.4168 44.9966 18.7941 44.9375 19.1813 44.9375H20.9548ZM26.6396 51.5H28.7806L30.5328 62.0131L28.4295 67.122L25.1844 60.2248L26.6396 51.5ZM40.0156 27.0055C40.0156 28.8971 39.6596 30.7477 38.9558 32.5032C37.9287 35.0741 35.4744 36.736 32.705 36.736C31.3712 36.736 30.08 36.3455 28.9709 35.6056L26.1589 33.7304L24.3395 36.4604L27.1515 38.3356C28.0834 38.9558 29.1055 39.3922 30.1702 39.6711V41.6562H21.9671V32.7739L20.525 31.3318C19.3405 30.1456 18.6875 28.5673 18.6875 26.8906C18.6875 25.9866 19.4241 25.25 20.3281 25.25H21.9688V20.3281C21.9688 17.6145 24.177 15.4062 26.8906 15.4062H35.0938C37.8073 15.4062 40.0156 17.6145 40.0156 20.3281V27.0055ZM16.3447 24.0064C15.1634 22.6266 13.7656 20.3101 13.7656 17.0469C13.7656 13.3637 15.0716 9.85766 17.3652 7.56406C19.7145 5.21633 22.8268 3.92188 26.1294 3.92188H39.3364C40.3782 3.92188 41.4003 4.34516 42.137 5.0818C42.8736 5.81844 43.2969 6.84055 43.2969 7.88234C43.2969 10.3039 42.3305 12.6254 40.6752 14.353C39.2084 12.9814 37.2545 12.125 35.0938 12.125H26.8906C22.3674 12.125 18.6875 15.8049 18.6875 20.3281V22.2493C17.7392 22.5856 16.9255 23.2058 16.3447 24.0064ZM3.92188 74.4688V60.197C3.92188 55.2784 6.31063 50.637 10.3121 47.7791C11.6607 46.816 13.1356 46.1007 14.6877 45.6216L26.8906 71.555V76.1094H17.0469V66.2656H13.7656V76.1094C13.7656 77.919 15.234 79.3906 17.037 79.3906H33.4531V89.236L18.6875 89.2344C10.5467 89.2344 3.92188 82.6112 3.92188 74.4688ZM43.2969 99.0781H10.4844V90.5239C12.9486 91.7888 15.7327 92.5156 18.6875 92.5156L41.8384 92.5173H41.84C41.8482 92.5173 41.8564 92.5156 41.8646 92.5156H43.2969V99.0781ZM59.1059 85.8711C56.937 88.04 54.0528 89.2344 50.9848 89.2344H48.268C49.2884 87.8546 49.8627 86.191 49.8594 84.3306C49.8561 82.4701 49.2113 80.7704 48.1663 79.3906H48.7798C50.9405 79.3906 53.0553 78.5145 54.5844 76.9871L63.6915 67.88C63.2403 70.0522 62.9844 72.2703 62.9844 74.5147V81.9927L59.1059 85.8711ZM66.2656 74.5147C66.2656 71.1727 66.8513 67.8882 67.9374 64.7792L74.1111 75.8912C73.8863 76.0815 73.6747 76.2833 73.4434 76.4687L72.8281 76.9625V99.0781H66.2656V74.5147ZM92.8618 51.0472C95.0241 52.1284 96.8091 53.915 97.8903 56.0757C98.668 57.6277 99.0781 59.3668 99.0781 61.1042V99.0781H89.2344V72.8281H85.9531V99.0781H76.1094V78.5277C81.4217 74.0783 85.2263 68.2196 87.136 61.539L90.4386 49.9808L90.6453 49.9398L92.8618 51.0472Z" fill="black"/>
<path d="M81.0312 92.5156C81.9373 92.5156 82.6719 91.7811 82.6719 90.875C82.6719 89.9689 81.9373 89.2344 81.0312 89.2344C80.1252 89.2344 79.3906 89.9689 79.3906 90.875C79.3906 91.7811 80.1252 92.5156 81.0312 92.5156Z" fill="black"/>
<path d="M81.0312 85.9531C81.9373 85.9531 82.6719 85.2186 82.6719 84.3125C82.6719 83.4064 81.9373 82.6719 81.0312 82.6719C80.1252 82.6719 79.3906 83.4064 79.3906 84.3125C79.3906 85.2186 80.1252 85.9531 81.0312 85.9531Z" fill="black"/>
</svg>
