<svg width="67" height="100" viewBox="0 0 67 100" fill="none" xmlns="http://www.w3.org/2000/svg">
<path d="M55 67.108C55 66.8416 54.751 66.2065 54.6058 65.8172C54.2946 64.9771 53.9419 64.0552 53.9419 63.0102C53.9419 61.9653 54.2946 61.0229 54.6058 60.2033C54.751 59.814 54.9793 59.1789 55 58.9125C54.834 58.7076 54.2739 58.3593 53.9419 58.1545C53.195 57.6832 52.3651 57.171 51.7635 56.3515C51.1411 55.5319 50.8921 54.569 50.6846 53.7289C50.5809 53.3601 50.4357 52.766 50.2905 52.5406C50.2075 52.5201 50.0622 52.4996 49.7718 52.4996C49.5436 52.4996 49.2739 52.5201 49.0041 52.5201C48.6929 52.5406 48.361 52.5611 48.029 52.5611C47.2822 52.5611 46.6805 52.4791 46.1411 52.2947C45.166 51.9669 44.4191 51.3522 43.7344 50.8195C43.361 50.5327 42.7386 50.0205 42.5104 50C42.3029 50.0205 41.6598 50.5327 41.2863 50.8195C40.6224 51.3522 39.8548 51.9669 38.9004 52.2742C38.361 52.4586 37.7593 52.5406 37.0124 52.5406C36.6805 52.5406 36.3485 52.5201 36.0373 52.4996C35.7676 52.4791 35.4979 52.4791 35.2697 52.4791C34.9793 52.4791 34.834 52.4996 34.751 52.5201C34.6266 52.7455 34.4606 53.3396 34.3568 53.7084C34.1286 54.5485 33.8797 55.5114 33.278 56.331C32.6763 57.1505 31.8257 57.6627 31.0996 58.134C30.7469 58.3389 30.1867 58.7076 30.0207 58.892C30.0207 59.1584 30.2697 59.7935 30.4149 60.1828C30.7261 61.0229 31.0581 61.9653 31.0581 63.0102C31.0581 64.0552 30.7054 64.9976 30.3942 65.8172C30.249 66.2065 30.0207 66.8416 30 67.108C30.166 67.3128 30.7261 67.6611 31.0581 67.866C31.805 68.3168 32.6349 68.8495 33.2365 69.669C33.8589 70.4886 34.1079 71.4515 34.3154 72.2916C34.4191 72.6604 34.5643 73.2545 34.7095 73.4799C34.7925 73.5004 34.9378 73.5209 35.2282 73.5209C35.4564 73.5209 35.7261 73.5004 35.9959 73.5004C36.3071 73.4799 36.639 73.4594 36.971 73.4594C37.7178 73.4594 38.3195 73.5414 38.8589 73.7258C39.8133 74.0331 40.5809 74.6478 41.2448 75.1805C41.6183 75.4673 42.2199 75.959 42.4689 76C42.7178 75.959 43.3195 75.4673 43.6929 75.1805C44.3568 74.6478 45.1245 74.0331 46.0788 73.7258C46.6183 73.5414 47.2199 73.4594 47.9668 73.4594C48.2988 73.4594 48.6307 73.4799 48.9419 73.5004C49.2116 73.5209 49.4813 73.5209 49.7095 73.5209C50 73.5209 50.1452 73.5004 50.2282 73.4799C50.3527 73.2545 50.5187 72.6604 50.6224 72.2916C50.8506 71.4515 51.0996 70.4886 51.7012 69.669C52.3029 68.8495 53.1535 68.3373 53.8797 67.866C54.2739 67.6611 54.834 67.3128 55 67.108Z" fill="#C4A76A"/>
<path fill-rule="evenodd" clip-rule="evenodd" d="M66.8201 19.561C66.8193 19.5396 66.8185 19.5182 66.817 19.4969C66.8109 19.4122 66.8025 19.329 66.7857 19.2466C66.7857 19.2466 66.7857 19.2466 66.7857 19.2459C66.7689 19.1635 66.7453 19.0818 66.7186 19.0025C66.7117 18.9827 66.7048 18.9628 66.6972 18.943C66.669 18.8675 66.6369 18.7935 66.6003 18.7217C66.598 18.7179 66.5965 18.7141 66.5942 18.7103C66.5546 18.6355 66.5088 18.5646 66.4592 18.4951C66.447 18.4776 66.434 18.4608 66.421 18.4433C66.3684 18.3746 66.3135 18.3082 66.2517 18.2464L48.5774 0.572204C48.5156 0.510405 48.4493 0.455474 48.3806 0.402831C48.3631 0.389861 48.3455 0.376128 48.328 0.363921C48.2585 0.31433 48.1884 0.268554 48.1143 0.229644C48.109 0.226593 48.1037 0.225067 48.0991 0.222015C48.0289 0.185394 47.9557 0.154113 47.8816 0.125885C47.861 0.118255 47.8412 0.111389 47.8199 0.104522C47.7405 0.0778198 47.6604 0.0541686 47.5772 0.0373839C47.5765 0.0373839 47.5757 0.0373839 47.5757 0.0373839C47.4941 0.0213623 47.4109 0.012207 47.327 0.0061035C47.3056 0.00534058 47.2843 0.00381468 47.2629 0.00305175C47.2408 0.00228882 47.2187 0 47.1965 0H2.94537C1.86658 0 0.992249 0.874327 0.992249 1.95312V85.5513C0.992249 86.6301 1.86658 87.5044 2.94537 87.5044H32.3505V98.0467C32.3505 98.757 32.7366 99.4116 33.3584 99.7557C33.9809 100.1 34.74 100.079 35.342 99.7015L42.7806 95.0346L50.2193 99.7015C50.5359 99.8999 50.8968 99.9998 51.2576 99.9998C51.5827 99.9998 51.9084 99.9189 52.2029 99.7564C52.8247 99.4123 53.2108 98.7577 53.2108 98.0467V87.5044H64.87C65.9488 87.5044 66.8231 86.6301 66.8231 85.5513V19.6273C66.8231 19.6052 66.8208 19.5831 66.8201 19.561ZM49.1497 6.66884L60.155 17.6742H49.1497V6.66884ZM31.3869 60.3263C31.2496 59.9532 31.0261 59.3436 31.0207 59.0941C31.1733 58.9049 31.7028 58.57 32.027 58.3655C32.7228 57.9261 33.5117 57.4271 34.0839 56.6474C34.6615 55.8593 34.8964 54.9491 35.104 54.1465C35.1948 53.7955 35.3412 53.2287 35.4664 53.0143C35.535 52.9998 35.6792 52.9792 35.9501 52.9792C36.1675 52.9792 36.4109 52.9914 36.6688 53.0044C36.9648 53.0189 37.2699 53.0341 37.5889 53.0341C38.2923 53.0341 38.8599 52.9548 39.3749 52.7831C40.2744 52.484 40.9938 51.905 41.6286 51.3938C41.9796 51.1115 42.567 50.6385 42.7715 50.6095C42.995 50.6385 43.5817 51.1115 43.9327 51.3938C44.5674 51.905 45.2877 52.484 46.1872 52.7831C46.7021 52.9548 47.269 53.0341 47.9732 53.0341C48.2913 53.0341 48.5973 53.0189 48.8925 53.0044C49.1504 52.9914 49.3938 52.9792 49.612 52.9792C49.8828 52.9792 50.0263 52.999 50.0957 53.0143C50.2208 53.2287 50.3673 53.7955 50.4573 54.1465C50.6648 54.9491 50.9006 55.8593 51.4781 56.6474C52.0496 57.4271 52.8385 57.9253 53.535 58.3655C53.8585 58.5708 54.388 58.9049 54.5406 59.0941C54.5352 59.3436 54.3117 59.9532 54.1751 60.3263C53.8844 61.1174 53.5556 62.0147 53.5556 63.0088C53.5556 64.0029 53.8844 64.9001 54.1744 65.692C54.3117 66.0651 54.5352 66.6747 54.5406 66.9242C54.388 67.1134 53.8585 67.4475 53.535 67.6528C52.8385 68.0922 52.0496 68.5912 51.4781 69.3709C50.9006 70.159 50.6648 71.0692 50.4573 71.8718C50.3673 72.222 50.2201 72.7896 50.0957 73.004C50.0263 73.0185 49.8828 73.0391 49.612 73.0391C49.3938 73.0391 49.1504 73.0269 48.8925 73.0139C48.5973 72.9994 48.2913 72.9842 47.9732 72.9842C47.269 72.9842 46.7021 73.0635 46.1872 73.2352C45.2877 73.5343 44.5674 74.1141 43.9327 74.6245C43.5871 74.9037 43.0103 75.3668 42.7806 75.408C42.551 75.3668 41.975 74.9037 41.6294 74.6245C40.9938 74.1141 40.2744 73.5343 39.3749 73.2352C38.8599 73.0635 38.2923 72.9842 37.5889 72.9842C37.2707 72.9842 36.9648 72.9994 36.6688 73.0139C36.4116 73.0269 36.1683 73.0391 35.9501 73.0391C35.6792 73.0391 35.5358 73.0185 35.4664 73.004C35.3412 72.7896 35.1948 72.2228 35.104 71.8718C34.8972 71.0692 34.6615 70.159 34.0839 69.3709C33.5125 68.5912 32.7236 68.0922 32.027 67.6528C31.7036 67.4483 31.1741 67.1134 31.0215 66.9242C31.0268 66.6754 31.2504 66.0651 31.3869 65.692C31.6776 64.9008 32.0064 64.0036 32.0064 63.0095C32.0064 62.0147 31.6768 61.1174 31.3869 60.3263ZM49.3045 94.5158L43.819 91.0742C43.1842 90.6767 42.3771 90.6767 41.7423 91.0742L36.2568 94.5158V76.9392C36.4643 76.9331 36.668 76.9255 36.8656 76.9156C37.1242 76.9019 37.3684 76.8897 37.5889 76.8897C37.9352 76.8897 38.0832 76.9217 38.1405 76.9408C38.3732 77.0186 38.8202 77.3787 39.1796 77.6679C40.0913 78.4018 41.2258 79.315 42.7806 79.315C44.3355 79.315 45.47 78.4018 46.3817 77.6679C46.7411 77.3787 47.1881 77.0186 47.4201 76.9415C47.4781 76.9225 47.6261 76.8904 47.9724 76.8904C48.1929 76.8904 48.4371 76.9026 48.6957 76.9156C48.8933 76.9255 49.097 76.9339 49.3038 76.9392V94.5158H49.3045ZM53.2108 83.5982V75.3653C53.7914 74.5764 54.034 73.6426 54.2392 72.8491C54.3468 72.4326 54.494 71.8627 54.6283 71.6803C54.7618 71.4972 55.2585 71.1836 55.6209 70.9548C56.5822 70.3475 57.7785 69.5914 58.2538 68.1616C58.7238 66.751 58.2347 65.4181 57.8418 64.347C57.6633 63.861 57.4611 63.3094 57.4611 63.0088C57.4611 62.7082 57.6633 62.1573 57.8418 61.6713C58.2347 60.6002 58.7238 59.2665 58.2538 57.8559C57.7785 56.4269 56.5822 55.6708 55.6209 55.0635C55.2585 54.8346 54.7618 54.5203 54.6283 54.3387C54.494 54.1556 54.3468 53.5857 54.2392 53.1691C53.9584 52.082 53.609 50.7285 52.4127 49.8511C51.4606 49.1538 50.3581 49.0729 49.6112 49.0729C49.2954 49.0729 48.9902 49.0882 48.6957 49.1035C48.4371 49.1164 48.1929 49.1286 47.9732 49.1286C47.6261 49.1286 47.4781 49.0966 47.4208 49.0775C47.1889 49.0005 46.7418 48.6404 46.3825 48.3504C45.47 47.6172 44.3355 46.704 42.7806 46.704C41.2265 46.704 40.0913 47.6172 39.1796 48.3504C38.8202 48.6396 38.3732 49.0005 38.1412 49.0775C38.084 49.0966 37.9352 49.1286 37.5889 49.1286C37.3691 49.1286 37.1242 49.1164 36.8656 49.1027C36.5711 49.0882 36.2667 49.0729 35.9501 49.0729C35.2039 49.0729 34.1015 49.1538 33.1501 49.8511C31.953 50.7285 31.6028 52.082 31.3221 53.1691C31.2145 53.5857 31.0673 54.1556 30.9337 54.338C30.7995 54.5203 30.3028 54.8346 29.9404 55.0635C28.9791 55.6708 27.7836 56.4269 27.3075 57.8559C26.8375 59.2673 27.3266 60.6002 27.7195 61.6713C27.898 62.1573 28.1002 62.7082 28.1002 63.0088C28.1002 63.3094 27.898 63.861 27.7195 64.347C27.3266 65.4181 26.8375 66.751 27.3075 68.1624C27.7836 69.5914 28.9799 70.3475 29.9404 70.9548C30.3036 71.1836 30.7995 71.498 30.9337 71.6803C31.0673 71.8627 31.2145 72.4326 31.3221 72.8491C31.5273 73.6426 31.7707 74.5772 32.3513 75.3653V83.5982H4.89849V3.90624H45.2434V19.6273C45.2434 20.7061 46.1177 21.5805 47.1965 21.5805H62.9169V83.5982H53.2108Z" fill="#091E46"/>
<path fill-rule="evenodd" clip-rule="evenodd" d="M12.489 21.5806H37.6522C38.7303 21.5806 39.6053 20.7062 39.6053 19.6274C39.6053 18.5486 38.7303 17.6743 37.6522 17.6743H12.489C11.4102 17.6743 10.5358 18.5486 10.5358 19.6274C10.5358 20.7062 11.4109 21.5806 12.489 21.5806Z" fill="#091E46"/>
<path fill-rule="evenodd" clip-rule="evenodd" d="M55.5447 27.533H12.489C11.4102 27.533 10.5358 28.4073 10.5358 29.4861C10.5358 30.5649 11.4102 31.4392 12.489 31.4392H55.5447C56.6235 31.4392 57.4978 30.5649 57.4978 29.4861C57.4978 28.4073 56.6235 27.533 55.5447 27.533Z" fill="#091E46"/>
<path fill-rule="evenodd" clip-rule="evenodd" d="M47.7322 37.3916H12.489C11.4102 37.3916 10.5358 38.2667 10.5358 39.3447C10.5358 40.4235 11.4102 41.2979 12.489 41.2979H47.7322C48.811 41.2979 49.6853 40.4235 49.6853 39.3447C49.6853 38.2667 48.811 37.3916 47.7322 37.3916Z" fill="#091E46"/>
<path fill-rule="evenodd" clip-rule="evenodd" d="M55.5447 37.3916C54.4689 37.3916 53.5916 38.269 53.5916 39.3447C53.5916 40.4205 54.4689 41.2979 55.5447 41.2979C56.6212 41.2979 57.4978 40.4205 57.4978 39.3447C57.4978 38.269 56.6212 37.3916 55.5447 37.3916Z" fill="#091E46"/>
</svg>
