<svg width="126" height="104" viewBox="0 0 126 104" fill="none" xmlns="http://www.w3.org/2000/svg">
<path d="M123.341 86.5536H116.839V20.5986C116.839 16.4862 113.505 13.1523 109.392 13.1523H16.2113C12.0989 13.1523 8.76501 16.4862 8.76501 20.5986V86.5536H2.84435C1.82588 86.5536 1 87.3795 1 88.398V92.4712C1 98.37 5.78212 103.152 11.6812 103.152H81.1677C82.1862 103.152 83.0121 102.326 83.0121 101.308C83.0121 100.29 82.1862 99.4636 81.1677 99.4636H11.6812C7.8193 99.4634 4.68871 96.333 4.68871 92.4712V90.2424H10.6096H48.1571C48.2226 93.8125 51.1451 96.6973 54.731 96.6973H71.4548C75.0404 96.6973 77.9632 93.8125 78.0286 90.2424H114.995H121.498V92.4712C121.498 96.333 118.367 99.4636 114.505 99.4636H89.7751C88.7566 99.4636 87.9308 100.29 87.9308 101.308C87.9308 102.326 88.7566 103.152 89.7751 103.152H114.505C120.404 103.152 125.186 98.3702 125.186 92.4712V88.398C125.186 87.3793 124.36 86.5536 123.341 86.5536ZM71.4546 93.0084H54.7307C53.1791 93.0084 51.9091 91.7784 51.8453 90.2421H74.3399C74.2761 91.7782 73.0064 93.0084 71.4546 93.0084ZM113.15 86.5536H12.454V20.5986C12.454 18.5265 14.1394 16.841 16.2115 16.841H109.392C111.464 16.841 113.15 18.5265 113.15 20.5986V86.5536Z" fill="#091E46"/>
<path d="M108.109 20.0378H36.6585C35.6401 20.0378 34.8142 20.8637 34.8142 21.8822C34.8142 22.9007 35.6401 23.7265 36.6585 23.7265H106.264V79.6679H19.3395V23.7263H28.0512C29.0696 23.7263 29.8955 22.9004 29.8955 21.8819C29.8955 20.8635 29.0696 20.0376 28.0512 20.0376H17.4951C16.4767 20.0376 15.6508 20.8635 15.6508 21.8819V81.512C15.6508 82.5304 16.4767 83.3563 17.4951 83.3563H108.109C109.127 83.3563 109.953 82.5304 109.953 81.512V21.8822C109.953 20.8635 109.127 20.0378 108.109 20.0378Z" fill="#091E46"/>
<path d="M44.7557 34.6406H48.1046C48.7211 34.6406 49.2209 34.1264 49.2209 33.4921C49.2209 32.8577 48.7211 32.3435 48.1046 32.3435H44.7557C44.1392 32.3435 43.6394 32.8577 43.6394 33.4921C43.6394 34.1264 44.1392 34.6406 44.7557 34.6406Z" fill="#C4A76A"/>
<path d="M60.3837 32.3435H52.5697C51.9532 32.3435 51.4534 32.8577 51.4534 33.4921C51.4534 34.1264 51.9532 34.6406 52.5697 34.6406H60.3837C61.0002 34.6406 61.5 34.1264 61.5 33.4921C61.5 32.8577 61.0002 32.3435 60.3837 32.3435Z" fill="#C4A76A"/>
<path d="M60.3837 36.9377H44.7557C44.1392 36.9377 43.6394 37.452 43.6394 38.0863C43.6394 38.7206 44.1392 39.2349 44.7557 39.2349H60.3837C61.0002 39.2349 61.5 38.7206 61.5 38.0863C61.5 37.452 61.0002 36.9377 60.3837 36.9377Z" fill="#C4A76A"/>
<path d="M53.686 42.6806C53.686 42.0462 53.1862 41.532 52.5697 41.532H44.7557C44.1392 41.532 43.6394 42.0462 43.6394 42.6806C43.6394 43.3149 44.1392 43.8291 44.7557 43.8291H52.5697C53.1862 43.8291 53.686 43.3149 53.686 42.6806Z" fill="#C4A76A"/>
<path d="M60.3837 41.532H57.0349C56.4183 41.532 55.9186 42.0462 55.9186 42.6806C55.9186 43.3149 56.4183 43.8291 57.0349 43.8291H60.3837C61.0002 43.8291 61.5 43.3149 61.5 42.6806C61.5 42.0462 61.0002 41.532 60.3837 41.532Z" fill="#C4A76A"/>
<g clip-path="url(#clip0)">
<path d="M40.8271 36.6925L35.9664 32.1079C35.8044 31.9551 35.5613 31.969 35.4128 32.1218L30.8221 36.7064C30.741 36.7758 30.7005 36.887 30.7005 36.9981V43.5832C30.7005 43.8194 30.8761 44 31.1056 44H34.4811C34.7107 44 34.8862 43.8194 34.8862 43.5832V40.5268H36.7765V43.5832C36.7765 43.8194 36.952 44 37.1815 44H40.5571C40.7866 44 40.9621 43.8194 40.9621 43.5832V36.9981C40.9622 36.887 40.9082 36.7758 40.8271 36.6925Z" fill="#C4A76A"/>
</g>
<path d="M44.8708 47.1907C44.2585 47.1907 43.7622 47.6728 43.7622 48.2675C43.7622 48.8621 44.2585 49.3442 44.8708 49.3442H48.1966C48.8089 49.3442 49.3052 48.8621 49.3052 48.2675C49.3052 47.6728 48.8089 47.1907 48.1966 47.1907H44.8708Z" fill="#091E46"/>
<path d="M60.3914 47.1907H52.6311C52.0188 47.1907 51.5225 47.6728 51.5225 48.2675C51.5225 48.8621 52.0188 49.3442 52.6311 49.3442H60.3914C61.0037 49.3442 61.5 48.8621 61.5 48.2675C61.5 47.6728 61.0037 47.1907 60.3914 47.1907Z" fill="#091E46"/>
<path d="M60.3914 51.4978H44.8708C44.2585 51.4978 43.7622 51.9799 43.7622 52.5746C43.7622 53.1693 44.2585 53.6514 44.8708 53.6514H60.3914C61.0037 53.6514 61.5 53.1693 61.5 52.5746C61.5 51.9799 61.0037 51.4978 60.3914 51.4978Z" fill="#091E46"/>
<path d="M52.6311 55.8049H44.8708C44.2585 55.8049 43.7622 56.287 43.7622 56.8817C43.7622 57.4764 44.2585 57.9585 44.8708 57.9585H52.6311C53.2434 57.9585 53.7397 57.4764 53.7397 56.8817C53.7397 56.287 53.2434 55.8049 52.6311 55.8049Z" fill="#091E46"/>
<path d="M60.3914 55.8049H57.0655C56.4533 55.8049 55.9569 56.287 55.9569 56.8817C55.9569 57.4764 56.4533 57.9585 57.0655 57.9585H60.3914C61.0037 57.9585 61.5 57.4764 61.5 56.8817C61.5 56.287 61.0037 55.8049 60.3914 55.8049Z" fill="#091E46"/>
<g clip-path="url(#clip1)">
<path d="M40.7527 51.3992L35.9254 47.1012C35.7645 46.9579 35.5231 46.9709 35.3756 47.1142L30.8164 51.4122C30.7359 51.4773 30.6957 51.5815 30.6957 51.6857V57.8593C30.6957 58.0807 30.8701 58.25 31.098 58.25H34.4503C34.6783 58.25 34.8526 58.0806 34.8526 57.8593V54.9939H36.7299V57.8593C36.7299 58.0807 36.9042 58.25 37.1322 58.25H40.4845C40.7125 58.25 40.8868 58.0807 40.8868 57.8593V51.6857C40.8868 51.5815 40.8332 51.4773 40.7527 51.3992Z" fill="#040404"/>
</g>
<path d="M44.8708 62.1907C44.2585 62.1907 43.7622 62.6728 43.7622 63.2675C43.7622 63.8621 44.2585 64.3442 44.8708 64.3442H48.1966C48.8089 64.3442 49.3052 63.8621 49.3052 63.2675C49.3052 62.6728 48.8089 62.1907 48.1966 62.1907H44.8708Z" fill="#091E46"/>
<path d="M60.3914 62.1907H52.6311C52.0188 62.1907 51.5225 62.6728 51.5225 63.2675C51.5225 63.8621 52.0188 64.3442 52.6311 64.3442H60.3914C61.0037 64.3442 61.5 63.8621 61.5 63.2675C61.5 62.6728 61.0037 62.1907 60.3914 62.1907Z" fill="#091E46"/>
<path d="M60.3914 66.4978H44.8708C44.2585 66.4978 43.7622 66.9799 43.7622 67.5746C43.7622 68.1693 44.2585 68.6514 44.8708 68.6514H60.3914C61.0037 68.6514 61.5 68.1693 61.5 67.5746C61.5 66.9799 61.0037 66.4978 60.3914 66.4978Z" fill="#091E46"/>
<path d="M52.6311 70.8049H44.8708C44.2585 70.8049 43.7622 71.287 43.7622 71.8817C43.7622 72.4764 44.2585 72.9585 44.8708 72.9585H52.6311C53.2434 72.9585 53.7397 72.4764 53.7397 71.8817C53.7397 71.287 53.2434 70.8049 52.6311 70.8049Z" fill="#091E46"/>
<path d="M60.3914 70.8049H57.0655C56.4533 70.8049 55.9569 71.287 55.9569 71.8817C55.9569 72.4764 56.4533 72.9585 57.0655 72.9585H60.3914C61.0037 72.9585 61.5 72.4764 61.5 71.8817C61.5 71.287 61.0037 70.8049 60.3914 70.8049Z" fill="#091E46"/>
<g clip-path="url(#clip2)">
<path d="M40.7527 66.3992L35.9254 62.1012C35.7645 61.9579 35.5231 61.9709 35.3756 62.1142L30.8164 66.4122C30.7359 66.4773 30.6957 66.5815 30.6957 66.6857V72.8593C30.6957 73.0807 30.8701 73.25 31.098 73.25H34.4503C34.6783 73.25 34.8526 73.0806 34.8526 72.8593V69.9939H36.7299V72.8593C36.7299 73.0807 36.9042 73.25 37.1322 73.25H40.4845C40.7125 73.25 40.8868 73.0807 40.8868 72.8593V66.6857C40.8868 66.5815 40.8332 66.4773 40.7527 66.3992Z" fill="#040404"/>
</g>
<path d="M79.2557 34.6406H82.6046C83.2211 34.6406 83.7209 34.1264 83.7209 33.4921C83.7209 32.8577 83.2211 32.3435 82.6046 32.3435H79.2557C78.6392 32.3435 78.1394 32.8577 78.1394 33.4921C78.1394 34.1264 78.6392 34.6406 79.2557 34.6406Z" fill="#091E46"/>
<path d="M94.8837 32.3435H87.0697C86.4532 32.3435 85.9534 32.8577 85.9534 33.4921C85.9534 34.1264 86.4532 34.6406 87.0697 34.6406H94.8837C95.5002 34.6406 96 34.1264 96 33.4921C96 32.8577 95.5002 32.3435 94.8837 32.3435Z" fill="#091E46"/>
<path d="M94.8837 36.9377H79.2557C78.6392 36.9377 78.1394 37.452 78.1394 38.0863C78.1394 38.7206 78.6392 39.2349 79.2557 39.2349H94.8837C95.5002 39.2349 96 38.7206 96 38.0863C96 37.452 95.5002 36.9377 94.8837 36.9377Z" fill="#091E46"/>
<path d="M88.186 42.6806C88.186 42.0462 87.6862 41.532 87.0697 41.532H79.2557C78.6392 41.532 78.1394 42.0462 78.1394 42.6806C78.1394 43.3149 78.6392 43.8291 79.2557 43.8291H87.0697C87.6862 43.8291 88.186 43.3149 88.186 42.6806Z" fill="#091E46"/>
<path d="M94.8837 41.532H91.5349C90.9183 41.532 90.4186 42.0462 90.4186 42.6806C90.4186 43.3149 90.9183 43.8291 91.5349 43.8291H94.8837C95.5002 43.8291 96 43.3149 96 42.6806C96 42.0462 95.5002 41.532 94.8837 41.532Z" fill="#091E46"/>
<g clip-path="url(#clip3)">
<path d="M75.3271 36.6925L70.4664 32.1079C70.3044 31.9551 70.0613 31.969 69.9128 32.1218L65.3221 36.7064C65.241 36.7758 65.2005 36.887 65.2005 36.9981V43.5832C65.2005 43.8194 65.3761 44 65.6056 44H68.9811C69.2107 44 69.3862 43.8194 69.3862 43.5832V40.5268H71.2765V43.5832C71.2765 43.8194 71.452 44 71.6815 44H75.0571C75.2866 44 75.4621 43.8194 75.4621 43.5832V36.9981C75.4622 36.887 75.4082 36.7758 75.3271 36.6925Z" fill="#040404"/>
</g>
<path d="M79.3708 47.1907C78.7585 47.1907 78.2622 47.6728 78.2622 48.2675C78.2622 48.8621 78.7585 49.3442 79.3708 49.3442H82.6966C83.3089 49.3442 83.8052 48.8621 83.8052 48.2675C83.8052 47.6728 83.3089 47.1907 82.6966 47.1907H79.3708Z" fill="#091E46"/>
<path d="M94.8914 47.1907H87.1311C86.5188 47.1907 86.0225 47.6728 86.0225 48.2675C86.0225 48.8621 86.5188 49.3442 87.1311 49.3442H94.8914C95.5037 49.3442 96 48.8621 96 48.2675C96 47.6728 95.5037 47.1907 94.8914 47.1907Z" fill="#091E46"/>
<path d="M94.8914 51.4978H79.3708C78.7585 51.4978 78.2622 51.9799 78.2622 52.5746C78.2622 53.1693 78.7585 53.6514 79.3708 53.6514H94.8914C95.5036 53.6514 96 53.1693 96 52.5746C96 51.9799 95.5036 51.4978 94.8914 51.4978Z" fill="#091E46"/>
<path d="M87.1311 55.8049H79.3708C78.7585 55.8049 78.2622 56.287 78.2622 56.8817C78.2622 57.4764 78.7585 57.9585 79.3708 57.9585H87.1311C87.7434 57.9585 88.2397 57.4764 88.2397 56.8817C88.2397 56.287 87.7434 55.8049 87.1311 55.8049Z" fill="#091E46"/>
<path d="M94.8914 55.8049H91.5655C90.9533 55.8049 90.4569 56.287 90.4569 56.8817C90.4569 57.4764 90.9533 57.9585 91.5655 57.9585H94.8914C95.5037 57.9585 96 57.4764 96 56.8817C96 56.287 95.5037 55.8049 94.8914 55.8049Z" fill="#091E46"/>
<g clip-path="url(#clip4)">
<path d="M75.2527 51.3992L70.4254 47.1012C70.2645 46.9579 70.0231 46.9709 69.8756 47.1142L65.3164 51.4122C65.2359 51.4773 65.1957 51.5815 65.1957 51.6857V57.8593C65.1957 58.0807 65.3701 58.25 65.598 58.25H68.9503C69.1783 58.25 69.3526 58.0806 69.3526 57.8593V54.9939H71.2299V57.8593C71.2299 58.0807 71.4042 58.25 71.6322 58.25H74.9845C75.2125 58.25 75.3868 58.0807 75.3868 57.8593V51.6857C75.3868 51.5815 75.3332 51.4773 75.2527 51.3992Z" fill="#040404"/>
</g>
<path d="M79.3708 62.1907C78.7585 62.1907 78.2622 62.6728 78.2622 63.2675C78.2622 63.8621 78.7585 64.3442 79.3708 64.3442H82.6966C83.3089 64.3442 83.8052 63.8621 83.8052 63.2675C83.8052 62.6728 83.3089 62.1907 82.6966 62.1907H79.3708Z" fill="#091E46"/>
<path d="M94.8914 62.1907H87.1311C86.5188 62.1907 86.0225 62.6728 86.0225 63.2675C86.0225 63.8621 86.5188 64.3442 87.1311 64.3442H94.8914C95.5037 64.3442 96 63.8621 96 63.2675C96 62.6728 95.5037 62.1907 94.8914 62.1907Z" fill="#091E46"/>
<path d="M94.8914 66.4978H79.3708C78.7585 66.4978 78.2622 66.9799 78.2622 67.5746C78.2622 68.1693 78.7585 68.6514 79.3708 68.6514H94.8914C95.5036 68.6514 96 68.1693 96 67.5746C96 66.9799 95.5036 66.4978 94.8914 66.4978Z" fill="#091E46"/>
<path d="M87.1311 70.8049H79.3708C78.7585 70.8049 78.2622 71.287 78.2622 71.8817C78.2622 72.4764 78.7585 72.9585 79.3708 72.9585H87.1311C87.7434 72.9585 88.2397 72.4764 88.2397 71.8817C88.2397 71.287 87.7434 70.8049 87.1311 70.8049Z" fill="#091E46"/>
<path d="M94.8914 70.8049H91.5655C90.9533 70.8049 90.4569 71.287 90.4569 71.8817C90.4569 72.4764 90.9533 72.9585 91.5655 72.9585H94.8914C95.5037 72.9585 96 72.4764 96 71.8817C96 71.287 95.5037 70.8049 94.8914 70.8049Z" fill="#091E46"/>
<g clip-path="url(#clip5)">
<path d="M75.2527 66.3992L70.4254 62.1012C70.2645 61.9579 70.0231 61.9709 69.8756 62.1142L65.3164 66.4122C65.2359 66.4773 65.1957 66.5815 65.1957 66.6857V72.8593C65.1957 73.0807 65.3701 73.25 65.598 73.25H68.9503C69.1783 73.25 69.3526 73.0806 69.3526 72.8593V69.9939H71.2299V72.8593C71.2299 73.0807 71.4042 73.25 71.6322 73.25H74.9845C75.2125 73.25 75.3868 73.0807 75.3868 72.8593V66.6857C75.3868 66.5815 75.3332 66.4773 75.2527 66.3992Z" fill="#040404"/>
</g>
<defs>
<clipPath id="clip0">
<rect width="11.6627" height="12" fill="white" transform="translate(30 32)"/>
</clipPath>
<clipPath id="clip1">
<rect width="11.5826" height="11.25" fill="white" transform="translate(30 47)"/>
</clipPath>
<clipPath id="clip2">
<rect width="11.5826" height="11.25" fill="white" transform="translate(30 62)"/>
</clipPath>
<clipPath id="clip3">
<rect width="11.6627" height="12" fill="white" transform="translate(64.5 32)"/>
</clipPath>
<clipPath id="clip4">
<rect width="11.5826" height="11.25" fill="white" transform="translate(64.5 47)"/>
</clipPath>
<clipPath id="clip5">
<rect width="11.5826" height="11.25" fill="white" transform="translate(64.5 62)"/>
</clipPath>
</defs>
</svg>
