<svg width="100" height="100" viewBox="0 0 100 100" fill="none" xmlns="http://www.w3.org/2000/svg">
<path d="M82.2581 33.8708H95.1613V41.9354H82.2581V33.8708Z" fill="#C4A76A"/>
<path d="M41.9355 85.4838L33.871 79.0322L25.8065 85.4838L29.0323 88.7096L27.4422 98.1224H40.2997L38.7097 88.7096L41.9355 85.4838Z" fill="#C4A76A"/>
<path d="M35.9225 11.2903C30.008 11.2903 24.4487 13.5939 20.266 17.7758L18.5452 19.4966C13.3773 20.7645 9.67743 25.4402 9.67743 30.805V48.3871H11.2903C11.2903 44.8242 14.1791 41.9354 17.7419 41.9354V35.4838C17.7419 35.4838 24.1936 37.0967 33.871 37.0967C43.5484 37.0967 50 35.4838 50 35.4838V41.9354C53.5629 41.9354 56.4516 44.8242 56.4516 48.3871H58.0645V33.4323C58.0645 21.2229 48.1319 11.2903 35.9225 11.2903Z" fill="#C4A76A"/>
<path d="M27.4194 43.5484C27.4194 44.4392 26.6972 45.1614 25.8064 45.1614C24.9157 45.1614 24.1935 44.4392 24.1935 43.5484C24.1935 42.6577 24.9157 41.9355 25.8064 41.9355C26.6972 41.9355 27.4194 42.6577 27.4194 43.5484Z" fill="#091E46"/>
<path d="M43.5484 43.5484C43.5484 44.4392 42.8262 45.1614 41.9355 45.1614C41.0448 45.1614 40.3226 44.4392 40.3226 43.5484C40.3226 42.6577 41.0448 41.9355 41.9355 41.9355C42.8262 41.9355 43.5484 42.6577 43.5484 43.5484Z" fill="#091E46"/>
<path d="M40.3226 54.8386H37.0968C37.0968 56.6177 35.6501 58.0644 33.871 58.0644C32.0919 58.0644 30.6452 56.6177 30.6452 54.8386H27.4194C27.4194 58.3968 30.3128 61.2902 33.871 61.2902C37.4291 61.2902 40.3226 58.3968 40.3226 54.8386Z" fill="#091E46"/>
<path d="M96.7742 58.0645V32.2581H83.871V19.3548H80.6452V6.45161H77.4194V0H54.8387V6.45161H51.6129V17.8278C47.6003 13.7932 42.0481 11.2903 35.9225 11.2903C30.008 11.2903 24.4487 13.5939 20.266 17.7758L18.5452 19.4966C13.3773 20.7646 9.67742 25.4402 9.67742 30.805V48.3871C9.67742 52.5083 12.7969 55.8791 16.7922 56.3547C17.9593 60.5563 20.6291 64.1326 24.1935 66.463V69.8045L7.72114 75.2985C3.10137 76.8358 0 81.1405 0 86.0068V100H67.7419V86.0068C67.7419 81.139 64.6406 76.8342 60.0224 75.2969L43.5484 69.8045V67.7419H96.7742C98.5533 67.7419 100 66.2952 100 64.5161V61.2903C100 59.5112 98.5533 58.0645 96.7742 58.0645ZM83.871 58.0645V41.9355H93.5484V58.0645H83.871ZM70.9677 58.0645H64.5161V45.1613H70.9677V58.0645ZM61.2903 41.9355V58.0645H50.3804C50.5985 57.5077 50.7883 56.9367 50.9498 56.3547C54.945 55.8791 58.0645 52.5083 58.0645 48.3871V38.7097H77.4194V25.8065H56.6824C56.2697 24.6873 55.7822 23.6068 55.2018 22.5806H80.6452V58.0645H74.1936V41.9355H61.2903ZM51.6129 43.8453C53.4873 44.5131 54.8387 46.2875 54.8387 48.3871C54.8387 50.5111 53.4534 52.3012 51.5452 52.9502C51.579 52.5068 51.6129 52.0642 51.6129 51.6129V43.8453ZM74.1936 29.0323V35.4839H67.7419V29.0323H74.1936ZM64.5161 35.4839H58.0645V33.4323C58.0645 31.9257 57.9109 30.4546 57.6227 29.0323H64.5161V35.4839ZM70.9677 19.3548H67.7419V16.129H70.9677V19.3548ZM64.5161 19.3548H61.2903V16.129H64.5161V19.3548ZM93.5484 35.4839V38.7097H83.871V35.4839H93.5484ZM58.0645 3.22581H74.1936V6.45161H58.0645V3.22581ZM77.4194 9.67742V19.3548H74.1936V12.9032H58.0645V19.3548H54.8387V9.67742H77.4194ZM12.9032 48.3871C12.9032 46.2875 14.2562 44.5131 16.129 43.8453V51.6129C16.129 52.0642 16.1629 52.5068 16.1968 52.9502C14.2885 52.3012 12.9032 50.5111 12.9032 48.3871ZM16.129 33.4213V40.4856C14.9304 40.7305 13.8451 41.2629 12.9032 41.9757V30.8035C12.9032 26.8051 15.7502 23.332 19.6706 22.5484L20.1503 22.4515L22.5468 20.055C26.1191 16.4842 30.8712 14.5161 35.9225 14.5161C46.3529 14.5161 54.8387 23.002 54.8387 33.4323V41.9772C53.8968 41.2645 52.8116 40.7305 51.6129 40.4872V33.4229L49.611 33.9206C49.5472 33.934 43.2082 35.4839 33.871 35.4839C24.5338 35.4839 18.1948 33.934 18.1326 33.9174L16.129 33.4213ZM19.3548 51.6129V37.4661C22.0191 37.9599 27.1744 38.7097 33.871 38.7097C40.5675 38.7097 45.7228 37.9599 48.3871 37.4661V51.6129C48.3871 59.6176 41.8741 66.129 33.871 66.129C25.8679 66.129 19.3548 59.6176 19.3548 51.6129ZM33.871 69.3548C36.1486 69.3548 38.3191 68.9083 40.3226 68.1223V70.2999L33.871 76.7515L27.4194 70.2999V68.1223C29.4229 68.9083 31.5934 69.3548 33.871 69.3548ZM32.0116 90.3226H35.7304L36.8062 96.7742H30.9358L32.0116 90.3226ZM36.2336 87.0968H31.5083L29.7954 84.5278L33.871 81.1319L37.9465 84.5278L36.2336 87.0968ZM25.3709 72.813L31.4823 78.9244L24.9772 84.3451L21.5584 74.0841L25.3709 72.813ZM3.22581 86.0068C3.22581 82.5306 5.44197 79.4552 8.74023 78.3565L18.4964 75.1047L23.4115 89.8485L27.3052 86.6046L28.9519 89.0743L27.6659 96.7742H3.22581V86.0068ZM64.5161 86.0068V96.7742H40.0761L38.7916 89.0743L40.4384 86.6046L44.332 89.8485L49.2471 75.1047L59.0033 78.3565C62.3 79.4567 64.5161 82.5306 64.5161 86.0068ZM46.1851 74.0841L42.7663 84.3451L36.2612 78.9244L42.3726 72.813L46.1851 74.0841ZM96.7742 64.5161H46.0095C47.0341 63.5514 47.9484 62.4724 48.721 61.2903H96.7742V64.5161Z" fill="#091E46"/>
</svg>
