<svg width="54" height="60" viewBox="0 0 54 60" fill="none" xmlns="http://www.w3.org/2000/svg">
<path d="M46.06 13.9002C41.3856 9.21621 35.2963 6.46629 28.7578 6.04723V3.51562H31.3359C32.3067 3.51562 33.0938 2.72859 33.0938 1.75781C33.0938 0.787031 32.3067 0 31.3359 0H22.6641C21.6933 0 20.9063 0.787031 20.9063 1.75781C20.9063 2.72859 21.6933 3.51562 22.6641 3.51562H25.2422V6.04723C20.7589 6.33457 16.4873 7.71797 12.7379 10.0696L11.0681 8.39637C10.2554 7.58203 9.17438 7.13367 8.02395 7.13367C6.87352 7.13367 5.79247 7.58215 4.97989 8.39637L2.44032 10.9414C0.768638 12.6164 0.768638 15.342 2.44032 17.017L4.12149 18.7017C1.46801 22.9475 0.0469971 27.8614 0.0469971 32.9946C0.0469971 40.2073 2.85012 46.9886 7.94004 52.089C13.0309 57.1904 19.7999 60 27 60C34.2001 60 40.9691 57.1904 46.06 52.089C51.1499 46.9886 53.953 40.2073 53.953 32.9946C53.953 25.782 51.1499 19.0007 46.06 13.9002ZM4.92879 13.4249L7.46848 10.8799C7.66864 10.6794 7.90243 10.6494 8.02407 10.6494C8.14571 10.6494 8.37961 10.6793 8.57977 10.8799L9.8536 12.1563C9.19301 12.7039 8.55411 13.2851 7.94016 13.9003C7.32797 14.5138 6.74965 15.1521 6.20461 15.8121L4.92879 14.5337C4.62364 14.228 4.62364 13.7305 4.92879 13.4249ZM27 56.4844C14.0766 56.4844 3.56262 45.9469 3.56262 32.9946C3.56262 20.0423 14.0766 9.50484 27 9.50484C39.9234 9.50484 50.4374 20.0422 50.4374 32.9946C50.4374 45.947 39.9234 56.4844 27 56.4844Z" fill="white"/>
<path d="M27 12.7999C15.8857 12.7999 6.84363 21.8592 6.84363 32.9946C6.84363 44.13 15.8857 53.1893 27 53.1893C38.1143 53.1893 47.1564 44.13 47.1564 32.9946C47.1564 21.8592 38.1143 12.7999 27 12.7999ZM28.7578 49.5806V47.526C28.7578 46.5552 27.9708 45.7682 27 45.7682C26.0292 45.7682 25.2422 46.5552 25.2422 47.526V49.5806C17.4661 48.7586 11.2699 42.5469 10.4516 34.7524H12.4687C13.4395 34.7524 14.2266 33.9654 14.2266 32.9946C14.2266 32.0238 13.4395 31.2368 12.4687 31.2368H10.4517C11.2699 23.4423 17.4661 17.2307 25.2422 16.4086V18.4632C25.2422 19.434 26.0292 20.2211 27 20.2211C27.9708 20.2211 28.7578 19.434 28.7578 18.4632V16.4086C36.5339 17.2307 42.7301 23.4423 43.5484 31.2368H41.5312C40.5605 31.2368 39.7734 32.0238 39.7734 32.9946C39.7734 33.9654 40.5605 34.7524 41.5312 34.7524H43.5483C42.7301 42.5469 36.5339 48.7586 28.7578 49.5806Z" fill="white"/>
<path d="M31.3359 31.9802H28.856V24.8707C28.856 23.8999 28.069 23.1129 27.0982 23.1129C26.1274 23.1129 25.3404 23.8999 25.3404 24.8707V33.738C25.3404 34.7087 26.1274 35.4958 27.0982 35.4958H31.3359C32.3067 35.4958 33.0938 34.7087 33.0938 33.738C33.0938 32.7672 32.3067 31.9802 31.3359 31.9802Z" fill="white"/>
</svg>
