<svg width="89" height="100" viewBox="0 0 89 100" fill="none" xmlns="http://www.w3.org/2000/svg">
<g clip-path="url(#clip0)">
<path d="M32.0833 23.3333H38.75C39.6666 23.3333 40.4166 22.5833 40.4166 21.6666V14.9999C40.4166 14.0833 39.6666 13.3333 38.75 13.3333H32.0833C31.1666 13.3333 30.4166 14.0833 30.4166 14.9999V21.6666C30.4166 22.5833 31.1666 23.3333 32.0833 23.3333ZM33.75 16.6666H37.0833V19.9999H33.75V16.6666Z" fill="#091E46"/>
<path d="M45.4167 23.3333H52.0833C53 23.3333 53.75 22.5833 53.75 21.6666V14.9999C53.75 14.0833 53 13.3333 52.0833 13.3333H45.4167C44.5 13.3333 43.75 14.0833 43.75 14.9999V21.6666C43.75 22.5833 44.5 23.3333 45.4167 23.3333ZM47.0833 16.6666H50.4167V19.9999H47.0833V16.6666Z" fill="#091E46"/>
<path d="M58.75 23.3333H65.4166C66.3333 23.3333 67.0833 22.5833 67.0833 21.6666V14.9999C67.0833 14.0833 66.3333 13.3333 65.4166 13.3333H58.75C57.8333 13.3333 57.0833 14.0833 57.0833 14.9999V21.6666C57.0833 22.5833 57.8333 23.3333 58.75 23.3333ZM60.4166 16.6666H63.75V19.9999H60.4166V16.6666Z" fill="#091E46"/>
<path d="M32.0833 36.6667H38.75C39.6666 36.6667 40.4166 35.9167 40.4166 35.0001V28.3334C40.4166 27.4167 39.6666 26.6667 38.75 26.6667H32.0833C31.1666 26.6667 30.4166 27.4167 30.4166 28.3334V35.0001C30.4166 35.9167 31.1666 36.6667 32.0833 36.6667ZM33.75 30.0001H37.0833V33.3334H33.75V30.0001Z" fill="#091E46"/>
<path d="M45.4167 36.6667H52.0833C53 36.6667 53.75 35.9167 53.75 35.0001V28.3334C53.75 27.4167 53 26.6667 52.0833 26.6667H45.4167C44.5 26.6667 43.75 27.4167 43.75 28.3334V35.0001C43.75 35.9167 44.5 36.6667 45.4167 36.6667ZM47.0833 30.0001H50.4167V33.3334H47.0833V30.0001Z" fill="#091E46"/>
<path d="M58.75 36.6667H65.4166C66.3333 36.6667 67.0833 35.9167 67.0833 35.0001V28.3334C67.0833 27.4167 66.3333 26.6667 65.4166 26.6667H58.75C57.8333 26.6667 57.0833 27.4167 57.0833 28.3334V35.0001C57.0833 35.9167 57.8333 36.6667 58.75 36.6667ZM60.4166 30.0001H63.75V33.3334H60.4166V30.0001Z" fill="#091E46"/>
<path d="M32.0833 50H38.75C39.6666 50 40.4166 49.25 40.4166 48.3333V41.6667C40.4166 40.75 39.6666 40 38.75 40H32.0833C31.1666 40 30.4166 40.75 30.4166 41.6667V48.3333C30.4166 49.25 31.1666 50 32.0833 50ZM33.75 43.3333H37.0833V46.6667H33.75V43.3333Z" fill="#091E46"/>
<path d="M45.4167 50H52.0833C53 50 53.75 49.25 53.75 48.3333V41.6667C53.75 40.75 53 40 52.0833 40H45.4167C44.5 40 43.75 40.75 43.75 41.6667V48.3333C43.75 49.25 44.5 50 45.4167 50ZM47.0833 43.3333H50.4167V46.6667H47.0833V43.3333Z" fill="#091E46"/>
<path d="M58.75 50H65.4166C66.3333 50 67.0833 49.25 67.0833 48.3333V41.6667C67.0833 40.75 66.3333 40 65.4166 40H58.75C57.8333 40 57.0833 40.75 57.0833 41.6667V48.3333C57.0833 49.25 57.8333 50 58.75 50ZM60.4166 43.3333H63.75V46.6667H60.4166V43.3333Z" fill="#091E46"/>
<path d="M32.0833 63.3332H38.75C39.6666 63.3332 40.4166 62.5832 40.4166 61.6666V54.9999C40.4166 54.0833 39.6666 53.3333 38.75 53.3333H32.0833C31.1666 53.3333 30.4166 54.0833 30.4166 54.9999V61.6666C30.4166 62.5832 31.1666 63.3332 32.0833 63.3332ZM33.75 56.6666H37.0833V59.9999H33.75V56.6666Z" fill="#091E46"/>
<path d="M45.4167 63.3332H52.0833C53 63.3332 53.75 62.5832 53.75 61.6666V54.9999C53.75 54.0833 53 53.3333 52.0833 53.3333H45.4167C44.5 53.3333 43.75 54.0833 43.75 54.9999V61.6666C43.75 62.5832 44.5 63.3332 45.4167 63.3332ZM47.0833 56.6666H50.4167V59.9999H47.0833V56.6666Z" fill="#091E46"/>
<path d="M58.75 63.3332H65.4166C66.3333 63.3332 67.0833 62.5832 67.0833 61.6666V54.9999C67.0833 54.0833 66.3333 53.3333 65.4166 53.3333H58.75C57.8333 53.3333 57.0833 54.0833 57.0833 54.9999V61.6666C57.0833 62.5832 57.8333 63.3332 58.75 63.3332ZM60.4166 56.6666H63.75V59.9999H60.4166V56.6666Z" fill="#091E46"/>
<path d="M40.4166 75.0001V68.3334C40.4166 67.4167 39.6666 66.6667 38.75 66.6667H32.0833C31.1666 66.6667 30.4166 67.4167 30.4166 68.3334V72.4792C30.8125 73.0626 31.1458 73.6667 31.4166 74.3126C32.7291 74.3126 33.9791 74.9584 34.75 76.0209C34.8958 76.2292 35.0208 76.4376 35.125 76.6459H38.75C39.6666 76.6667 40.4166 75.9167 40.4166 75.0001ZM37.0833 73.3334H33.75V70.0001H37.0833V73.3334Z" fill="#091E46"/>
<path d="M45.4167 76.6667H52.0833C53 76.6667 53.75 75.9167 53.75 75.0001V68.3334C53.75 67.4167 53 66.6667 52.0833 66.6667H45.4167C44.5 66.6667 43.75 67.4167 43.75 68.3334V75.0001C43.75 75.9167 44.5 76.6667 45.4167 76.6667ZM47.0833 70.0001H50.4167V73.3334H47.0833V70.0001Z" fill="#091E46"/>
<path d="M58.75 76.6667H65.4166C66.3333 76.6667 67.0833 75.9167 67.0833 75.0001V68.3334C67.0833 67.4167 66.3333 66.6667 65.4166 66.6667H58.75C57.8333 66.6667 57.0833 67.4167 57.0833 68.3334V75.0001C57.0833 75.9167 57.8333 76.6667 58.75 76.6667ZM60.4166 70.0001H63.75V73.3334H60.4166V70.0001Z" fill="#091E46"/>
<path d="M88.75 96.6667H73.75V10H75.4166C76.3333 10 77.0833 9.25 77.0833 8.33333V1.66667C77.0833 0.75 76.3333 0 75.4166 0H22.0833C21.1666 0 20.4166 0.75 20.4166 1.66667V8.33333C20.4166 9.25 21.1666 10 22.0833 10H23.75V68C24.9375 68.25 26.0625 68.7083 27.0833 69.3125V10H70.4166V96.6667H60.4166V81.6667C60.4166 80.75 59.6666 80 58.75 80H38.75C37.8333 80 37.0833 80.75 37.0833 81.6667V96.6667H29.7083L28.75 99.5417C28.6875 99.7083 28.625 99.8542 28.5625 100H88.75V96.6667ZM47.0833 96.6667H40.4166V83.3333H47.0833V96.6667ZM57.0833 96.6667H50.4166V83.3333H57.0833V96.6667ZM23.75 6.66667V3.33333H73.75V6.66667H23.75Z" fill="#091E46"/>
<path d="M3.31252 91.6667C3.31252 91.6667 3.31252 91.6875 3.31252 91.6667V98.2292C3.31252 99.125 4.04169 99.875 4.95835 99.875H24.625C25.3334 99.875 25.9584 99.4167 26.1875 98.75L28 93.3125C30.6667 93.2708 32.8334 91.0833 32.8334 88.3958C32.8334 86.8125 32.0834 85.4167 30.9375 84.5208L32.75 78.9792C32.9167 78.4792 32.8334 77.9375 32.5209 77.5C32.2084 77.0833 31.7292 76.8125 31.1875 76.8125H29.375C28.6042 73.0833 25.3125 70.25 21.3542 70.25H8.22919C3.70835 70.25 0.041687 73.9167 0.041687 78.4375V85.1042C0.041687 87.7917 1.33335 90.1875 3.31252 91.6667ZM6.60419 93.1458C7.12502 93.25 7.68752 93.3125 8.25002 93.3125H11.4375L10.3542 96.5833H6.60419V93.1458ZM13.7917 96.6042C13.8125 96.5208 19.2084 80.2708 19.2709 80.1042H28.9375L27.8334 83.5H24.6459C23.75 83.5 23 84.2292 23 85.1458V91.7083C23 92.5833 23.6875 93.2917 24.5417 93.3333L23.4375 96.625H13.7917V96.6042ZM27.8959 90.0417C27.3959 90.0417 27 90.0417 26.25 90.0417V86.7708H27.8959C28.7917 86.7708 29.5417 87.5 29.5417 88.4167C29.5417 89.3125 28.8125 90.0417 27.8959 90.0417ZM3.31252 78.4583C3.31252 75.75 5.52085 73.5417 8.22919 73.5417H21.3334C23.4792 73.5417 25.2917 74.9167 25.9584 76.8125H18.0417C17.3334 76.8125 16.7084 77.2708 16.4792 77.9375L14.6459 83.4792H9.85419V78.4583C9.85419 77.5625 9.12502 76.8125 8.20835 76.8125C7.29169 76.8125 6.56252 77.5417 6.56252 78.4583V85.125C6.56252 86.0208 7.29169 86.7708 8.20835 86.7708H13.5625L12.5 90.0417H8.22919C5.52085 90.0417 3.31252 87.8333 3.31252 85.125V78.4583Z" fill="#091E46"/>
<path d="M28.9167 80.1042H19.25C19.1875 80.2709 13.8125 96.5209 13.7708 96.6043H23.4375L24.5417 93.3126C23.6875 93.2709 23 92.5626 23 91.6876V85.1251C23 84.2293 23.7292 83.4793 24.6458 83.4793H27.8334L28.9167 80.1042Z" fill="#C4A76A"/>
<path d="M22.9792 62.0625C22.9792 57.5417 19.3125 53.875 14.7917 53.875C10.2709 53.875 6.60419 57.5417 6.60419 62.0625C6.60419 66.5833 10.2709 70.25 14.7917 70.25C19.3125 70.25 22.9792 66.5833 22.9792 62.0625ZM14.7917 66.9792C12.0834 66.9792 9.87502 64.7708 9.87502 62.0625C9.87502 59.3542 12.0834 57.1458 14.7917 57.1458C17.5 57.1458 19.7084 59.3542 19.7084 62.0625C19.7084 64.7917 17.5 66.9792 14.7917 66.9792Z" fill="#091E46"/>
</g>
<defs>
<clipPath id="clip0">
<rect width="88.75" height="100" fill="white"/>
</clipPath>
</defs>
</svg>
