<svg width="169" height="40" viewBox="0 0 169 40" fill="none" xmlns="http://www.w3.org/2000/svg">
<path d="M14.0266 23.62C13.0311 24.6154 11.7641 25.1584 10.3162 25.1584C8.9587 25.1584 7.60123 24.6154 6.60576 23.62C5.61028 22.6245 5.0673 21.3575 5.0673 19.9096C5.0673 18.5521 5.61028 17.1946 6.60576 16.1991C7.60123 15.2037 8.86821 14.6607 10.3162 14.6607C11.6736 14.6607 13.0311 15.2037 14.0266 16.1991L15.927 18.0996L28.5062 5.52043C25.9723 4.07246 23.0763 3.16748 19.9089 3.16748C10.6782 3.16748 3.16684 10.6788 3.16684 19.9096C3.16684 29.1403 10.6782 36.6516 19.9089 36.6516C23.0763 36.6516 25.9723 35.8372 28.5062 34.2987L15.927 21.7195L14.0266 23.62Z" fill="#091E46"/>
<path d="M25.158 23.62C24.7055 24.0725 24.1625 24.4345 23.6195 24.706L22.8051 25.068L30.6784 32.9413C32.0358 31.7648 33.2123 30.4073 34.2078 28.9594L27.0584 21.8101L25.158 23.62Z" fill="#091E46"/>
<path d="M35.3838 26.5159C36.1983 24.5249 36.7413 22.2625 36.7413 19.9095C36.7413 17.5566 36.2888 15.3847 35.3838 13.3032L28.7775 19.9095L35.3838 26.5159Z" fill="#091E46"/>
<path d="M23.6195 15.2034C24.253 15.4749 24.7055 15.8369 25.158 16.2894L27.0584 18.1898L34.2078 11.0405C33.2123 9.50205 32.0358 8.14457 30.6784 7.05859L22.8051 14.9319L23.6195 15.2034Z" fill="#091E46"/>
<path d="M21.4472 17.2852C20.7232 17.2852 20.0898 17.5566 19.5468 18.0996C18.5513 19.0951 18.5513 20.8146 19.5468 21.9006C20.0898 22.4435 20.7232 22.715 21.4472 22.715C22.1712 22.715 22.8047 22.4435 23.3477 21.9006L25.2481 20.0001L23.3477 18.0996C22.8952 17.5566 22.1712 17.2852 21.4472 17.2852Z" fill="#091E46"/>
<path d="M10.3163 17.2852C9.59232 17.2852 8.95883 17.5566 8.41584 18.0996C7.42037 19.0951 7.42037 20.8146 8.41584 21.9006C8.95883 22.4435 9.59232 22.715 10.3163 22.715C11.0403 22.715 11.6738 22.4435 12.2168 21.9006L14.1172 20.0001L12.2168 18.0996C11.7643 17.5566 11.0403 17.2852 10.3163 17.2852Z" fill="#091E46"/>
<path d="M19.9995 40C8.95873 40 -0.000549316 31.0407 -0.000549316 20C-0.000549316 8.95928 8.95873 0 19.9995 0C31.0402 0 39.9995 8.95928 39.9995 20C39.9995 30.9502 31.0402 40 19.9995 40ZM19.9995 1.17646C9.68271 1.17646 1.26643 9.59276 1.26643 19.9095C1.26643 30.2262 9.68271 38.6425 19.9995 38.6425C30.3162 38.6425 38.7325 30.2262 38.7325 19.9095C38.7325 9.59276 30.3162 1.17646 19.9995 1.17646Z" fill="#091E46"/>
<path d="M50.9498 8.50684H54.9317V26.9684H63.9815V30.5883H50.8593V8.50684H50.9498Z" fill="#091E46"/>
<path d="M69.6829 29.6833C68.5064 28.9593 67.5109 27.9638 66.8775 26.6969C66.244 25.4299 65.882 24.0724 65.882 22.6245C65.882 21.1765 66.244 19.7285 66.8775 18.4616C67.5109 17.1946 68.4159 16.1991 69.6829 15.4751C70.8594 14.7512 72.3073 14.3892 74.0268 14.3892C75.6557 14.3892 77.1037 14.7512 78.3707 15.4751C79.5471 16.1991 80.5426 17.1946 81.1761 18.4616C81.8096 19.7285 82.1716 21.086 82.1716 22.6245C82.1716 24.0724 81.8096 25.5204 81.1761 26.6969C80.5426 27.9638 79.6376 28.9593 78.3707 29.6833C77.1942 30.4073 75.7462 30.7693 74.0268 30.7693C72.3073 30.7693 70.8594 30.4073 69.6829 29.6833ZM77.0132 26.2444C77.7372 25.3394 78.0992 24.1629 78.0992 22.6245C78.0992 21.086 77.7372 19.9095 77.0132 19.0046C76.2892 18.0996 75.2938 17.6471 74.0268 17.6471C72.7598 17.6471 71.7643 18.0996 71.0403 19.0046C70.3164 19.9095 69.9544 21.086 69.9544 22.6245C69.9544 24.0724 70.3164 25.3394 71.0403 26.2444C71.7643 27.1493 72.7598 27.6018 74.0268 27.6018C75.2938 27.6018 76.2892 27.1493 77.0132 26.2444Z" fill="#091E46"/>
<path d="M86.3343 37.1949C84.9769 36.3804 84.3434 35.2944 84.3434 33.937C84.3434 32.3985 85.1579 31.222 86.8773 30.2266C85.9723 29.6836 85.5198 28.9596 85.5198 27.9641C85.5198 27.5116 85.7008 27.0592 85.9723 26.6972C86.2438 26.3352 86.6058 25.9732 87.1488 25.7922C86.3343 25.2492 85.7914 24.5252 85.3389 23.6202C84.8864 22.7153 84.7054 21.8103 84.7054 20.7243C84.7054 19.5478 84.9769 18.5524 85.4293 17.5569C85.9723 16.5614 86.6963 15.8374 87.6013 15.2945C88.5968 14.7515 89.6827 14.48 91.0402 14.48C92.3977 14.48 93.5741 14.842 94.6601 15.4755C95.0221 15.2945 95.4746 15.1135 96.1081 15.023C96.7416 14.842 97.3751 14.842 98.0085 14.842H99.004L98.7325 17.2854H97.2845C96.9226 17.2854 96.6511 17.2854 96.3796 17.2854C97.013 18.2809 97.2845 19.3668 97.2845 20.7243C97.2845 21.9008 97.0131 22.8963 96.5606 23.8917C96.1081 24.8872 95.2936 25.6112 94.3886 26.1542C93.3932 26.6972 92.3072 26.9686 90.9497 26.9686C90.4972 26.9686 89.9542 26.8782 89.3208 26.7877C89.0493 26.8782 88.9588 27.0592 88.9588 27.3307C88.9588 27.6021 89.1398 27.7831 89.4113 27.9641C89.7733 28.1451 90.3162 28.2356 91.0402 28.3261L93.7551 28.6881C97.375 29.1406 99.185 30.6791 99.185 33.213C99.185 34.842 98.5515 36.1089 97.194 37.0139C95.8366 37.9189 93.9361 38.4619 91.5832 38.4619C89.5018 38.4619 87.6918 38.0094 86.3343 37.1949ZM95.8366 33.4845C95.8366 32.9415 95.5651 32.489 95.1126 32.2175C94.6601 31.946 93.8456 31.6745 92.8502 31.584L89.4113 31.041C88.2348 31.4935 87.6013 32.2175 87.6013 33.213C87.6013 33.937 87.9633 34.5705 88.6873 34.9325C89.4112 35.2944 90.4972 35.4754 91.7642 35.4754C94.4791 35.4754 95.8366 34.8419 95.8366 33.4845ZM93.2121 23.1678C93.6646 22.5343 93.9361 21.7198 93.9361 20.7243C93.9361 19.6383 93.6646 18.8239 93.2121 18.2809C92.7597 17.6474 92.0357 17.3759 91.1307 17.3759C90.2257 17.3759 89.5017 17.6474 89.0492 18.2809C88.5968 18.9144 88.3253 19.7288 88.3253 20.7243C88.3253 21.8103 88.5968 22.6248 89.0492 23.1678C89.5017 23.8012 90.2257 24.0727 91.1307 24.0727C91.9452 24.0727 92.6692 23.8012 93.2121 23.1678Z" fill="#091E46"/>
<path d="M102.895 8.50701H106.877V30.498H102.895V8.50701ZM107.239 18.8237L115.384 8.4165H120.09L111.855 18.8237L120.09 30.498H115.384L107.239 18.8237Z" fill="#091E46"/>
<path d="M123.439 14.7515H127.059L127.149 15.8374C128.506 14.9325 129.864 14.48 131.402 14.48C133.393 14.48 134.841 15.1135 135.837 16.4709C136.832 17.7379 137.375 19.5478 137.375 21.7198V30.4981H133.484V22.0818C133.484 20.6338 133.212 19.5478 132.76 18.8239C132.307 18.0999 131.493 17.7379 130.407 17.7379C129.23 17.7379 128.235 18.1904 127.421 19.0954V30.4981H123.529V14.7515H123.439Z" fill="#091E46"/>
<path d="M144.524 29.6833C143.348 28.9593 142.352 27.9638 141.719 26.6969C141.085 25.4299 140.723 24.0724 140.723 22.6245C140.723 21.1765 141.085 19.7285 141.719 18.4616C142.352 17.1946 143.257 16.1991 144.524 15.4751C145.701 14.7512 147.149 14.3892 148.868 14.3892C150.497 14.3892 151.945 14.7512 153.212 15.4751C154.388 16.1991 155.384 17.1946 156.017 18.4616C156.651 19.7285 157.013 21.086 157.013 22.6245C157.013 24.0724 156.651 25.5204 156.017 26.6969C155.384 27.9638 154.479 28.9593 153.212 29.6833C152.035 30.4073 150.588 30.7693 148.868 30.7693C147.149 30.7693 145.701 30.4073 144.524 29.6833ZM151.854 26.2444C152.578 25.3394 152.94 24.1629 152.94 22.6245C152.94 21.086 152.578 19.9095 151.854 19.0046C151.131 18.0996 150.135 17.6471 148.868 17.6471C147.601 17.6471 146.606 18.0996 145.882 19.0046C145.158 19.9095 144.796 21.086 144.796 22.6245C144.796 24.0724 145.158 25.3394 145.882 26.2444C146.606 27.1493 147.601 27.6018 148.868 27.6018C150.135 27.6018 151.131 27.1493 151.854 26.2444Z" fill="#091E46"/>
<path d="M162.171 29.5927C161.447 28.7782 161.085 27.7828 161.085 26.6968V18.009H158.823L159.185 14.8416H161.085V11.4027L164.977 10.9502V14.8416H168.416V18.009H164.977V25.1583C164.977 25.9728 165.067 26.6063 165.158 26.8778C165.248 27.2398 165.429 27.4208 165.791 27.5113C166.153 27.6018 166.606 27.6923 167.42 27.6923H168.506L168.144 30.8597H165.339C163.981 30.7692 162.895 30.4072 162.171 29.5927Z" fill="#091E46"/>
</svg>
