<svg width="79" height="55" viewBox="0 0 79 55" fill="none" xmlns="http://www.w3.org/2000/svg">
<path fill-rule="evenodd" clip-rule="evenodd" d="M0 11H51V19H8V55H0V11Z" fill="#C4A76A"/>
<path d="M79 15C79 23.2843 72.2843 30 64 30C55.7157 30 49 23.2843 49 15C49 6.71573 55.7157 0 64 0C72.2843 0 79 6.71573 79 15Z" fill="#F5F5F5"/>
<path fill-rule="evenodd" clip-rule="evenodd" d="M64 22C67.866 22 71 18.866 71 15C71 11.134 67.866 8 64 8C60.134 8 57 11.134 57 15C57 18.866 60.134 22 64 22ZM64 30C72.2843 30 79 23.2843 79 15C79 6.71573 72.2843 0 64 0C55.7157 0 49 6.71573 49 15C49 23.2843 55.7157 30 64 30Z" fill="#C4A76A"/>
</svg>
