<svg width="30" height="71" viewBox="0 0 30 71" fill="none" xmlns="http://www.w3.org/2000/svg">
<path d="M30 15.875C30 24.1593 23.2843 30.875 15 30.875C6.71573 30.875 0 24.1593 0 15.875C0 7.59073 6.71573 0.875 15 0.875C23.2843 0.875 30 7.59073 30 15.875Z" fill="#F5F5F5"/>
<path fill-rule="evenodd" clip-rule="evenodd" d="M15 22.875C18.866 22.875 22 19.741 22 15.875C22 12.009 18.866 8.875 15 8.875C11.134 8.875 8 12.009 8 15.875C8 19.741 11.134 22.875 15 22.875ZM15 30.875C23.2843 30.875 30 24.1593 30 15.875C30 7.59073 23.2843 0.875 15 0.875C6.71573 0.875 0 7.59073 0 15.875C0 24.1593 6.71573 30.875 15 30.875Z" fill="#C4A76A"/>
<path d="M30 56C30 64.2843 23.2843 71 15 71C6.71573 71 0 64.2843 0 56C0 47.7157 6.71573 41 15 41C23.2843 41 30 47.7157 30 56Z" fill="#C4A76A"/>
<path d="M11.0137 52C8.54688 52 7 53.6816 7 56.3711C7 59.0605 8.54688 60.7363 11.0137 60.7363C13.4746 60.7363 15.0215 59.0605 15.0215 56.3711C15.0215 53.6816 13.4746 52 11.0137 52ZM11.0137 53.2891C12.5195 53.2891 13.4805 54.4844 13.4805 56.3711C13.4805 58.252 12.5195 59.4473 11.0137 59.4473C9.50195 59.4473 8.54688 58.252 8.54688 56.3711C8.54688 54.4844 9.50195 53.2891 11.0137 53.2891Z" fill="white"/>
<path d="M17.7402 53.3652H19.416C20.3711 53.3652 20.9629 53.916 20.9629 54.8066C20.9629 55.7207 20.4062 56.2539 19.4453 56.2539H17.7402V53.3652ZM17.7402 57.4141H19.375L21.0391 60.5957H22.7617L20.916 57.1855C21.9238 56.8223 22.5098 55.8906 22.5098 54.7715C22.5098 53.1543 21.4141 52.1406 19.5859 52.1406H16.2285V60.5957H17.7402V57.4141Z" fill="white"/>
</svg>
