<?xml version="1.0" encoding="utf-8"?>
<!-- Generator: Adobe Illustrator 24.2.3, SVG Export Plug-In . SVG Version: 6.00 Build 0)  -->
<svg version="1.1" id="Layer_1" xmlns="http://www.w3.org/2000/svg" xmlns:xlink="http://www.w3.org/1999/xlink" x="0px" y="0px"
	 viewBox="0 0 35 35" style="enable-background:new 0 0 35 35;" xml:space="preserve">
<style type="text/css">
	.st0{fill:#FFFFFF;}
</style>
<g>
	<rect x="7.2" y="7.2" width="21.9" height="21.2"/>
	<g id="Layer_2_1_">
		<g id="Layer_1-2">
			<path class="st0" d="M0,17.5C0.1,7.9,7.9,0.1,17.5,0C27.1,0.1,34.9,7.9,35,17.5c-0.1,9.6-7.9,17.4-17.5,17.5
				C7.9,34.9,0.1,27.1,0,17.5z M12.5,24.6l5-5l5,5c0.3,0.3,0.7,0.4,1.1,0.5c0.8,0,1.5-0.7,1.5-1.5c0,0,0,0,0,0
				c0-0.4-0.2-0.8-0.5-1.1l-5-5l5-5c0.3-0.3,0.4-0.6,0.5-1c0-0.8-0.7-1.5-1.5-1.5c0,0,0,0,0,0c-0.4,0-0.8,0.2-1,0.5l-5,5l-5-5
				c-0.3-0.3-0.7-0.5-1.1-0.5c-0.8,0-1.4,0.7-1.4,1.5c0,0.4,0.2,0.7,0.4,1l5,5l-5,5c-0.3,0.3-0.4,0.6-0.4,1c0,0.8,0.7,1.5,1.5,1.5
				c0,0,0,0,0,0C11.9,25,12.2,24.9,12.5,24.6z"/>
		</g>
	</g>
</g>
</svg>
