<svg width="24" height="24" viewBox="0 0 24 24" fill="none" xmlns="http://www.w3.org/2000/svg">
<g clip-path="url(#clip0)">
<path d="M3.93091 16.7225H8.77238V18.1288H3.93091V16.7225Z" fill="black"/>
<path d="M24 9.51554C24 4.67846 20.0648 0.743164 15.2277 0.743164C10.3906 0.743164 6.4553 4.67841 6.4553 9.51554C6.4553 9.76759 6.46659 10.017 6.48755 10.2638H0V21.3539H4.44684L6.35142 23.2569L8.25628 21.3539H12.7032V17.917C13.503 18.1578 14.3504 18.2879 15.2277 18.2879C16.6418 18.2879 18.0388 17.945 19.2853 17.2942L23.9991 18.2882L22.9713 13.6406C23.6452 12.377 24 10.9569 24 9.51554ZM11.2969 19.9476H7.67419L6.35152 21.269L5.02894 19.9476H1.40625V11.67H6.72338C6.88528 12.3088 7.11727 12.92 7.41103 13.4948H3.9308V14.901H8.30794C9.10669 15.925 10.1273 16.7675 11.2969 17.3563V19.9476ZM22.155 16.4621L19.0637 15.8102L18.8329 15.94C17.7378 16.556 16.4911 16.8816 15.2277 16.8816C11.166 16.8816 7.86159 13.5772 7.86159 9.51554C7.86159 5.45387 11.166 2.14941 15.2277 2.14941C19.2893 2.14941 22.5938 5.45382 22.5938 9.51554C22.5938 10.8042 22.2563 12.0721 21.6179 13.1822L21.482 13.4184L22.155 16.4621Z" fill="black"/>
<path d="M16.2529 8.09776V6.38013H10.0051V12.6279H16.2529V10.9103L18.543 12.6279H20.473V6.38013H18.543L16.2529 8.09776ZM14.8466 11.2216H11.4114V7.78637H14.8466V11.2216ZM19.0668 7.78637V11.2216H19.0118L16.7217 9.50396L19.0118 7.78633H19.0668V7.78637Z" fill="black"/>
</g>
<defs>
<clipPath id="clip0">
<rect width="24" height="24" fill="white"/>
</clipPath>
</defs>
</svg>
