<?xml version="1.0" encoding="UTF-8"?>
<svg width="257px" height="45px" viewBox="0 0 257 45" version="1.1" xmlns="http://www.w3.org/2000/svg" xmlns:xlink="http://www.w3.org/1999/xlink">
    <!-- Generator: Sketch 63.1 (92452) - https://sketch.com -->
    <title>Group 23</title>
    <desc>Created with Sketch.</desc>
    <defs>
        <polygon id="path-1" points="0.490262072 0.438295314 19.38106 0.438295314 19.38106 31 0.490262072 31"></polygon>
        <polygon id="path-3" points="0.0002 0.587 52.2502 0.587 52.2502 44.9999 0.0002 44.9999"></polygon>
    </defs>
    <g id="Page-1" stroke="none" stroke-width="1" fill="none" fill-rule="evenodd">
        <g id="Home-PC" transform="translate(-48.000000, -32.000000)">
            <g id="Group-23" transform="translate(48.000000, 31.000000)">
                <path d="M79.83,30.5387 C79.83,30.5387 80.294,30.5557 80.363,30.7107 C80.432,30.8657 80.501,31.2957 80.501,31.5707 C80.501,31.5707 80.38,32.4997 80.38,32.6547 C80.38,32.8097 80.311,33.4977 80.174,34.0147 C80.037,34.5307 79.968,34.8397 79.658,35.1667 C79.348,35.4937 79.038,35.8207 78.625,35.9067 C78.212,35.9927 77.731,36.2507 77.197,36.3537 C76.664,36.4567 76.2,36.4397 75.546,36.5087 C74.892,36.5777 74.582,36.6117 73.498,36.6117 C72.414,36.6117 70.746,36.5777 70.66,36.5947 C70.573,36.6117 66.341,36.4397 65.911,36.4227 C65.48,36.4057 64.276,36.0097 63.657,35.7007 C63.038,35.3907 62.418,34.6507 62.332,33.9627 C62.246,33.2737 62.298,31.1407 62.263,30.5217 C62.229,29.9017 62.367,24.2757 62.367,24.2757 L62.401,19.6307 L62.504,14.1597 L62.642,7.9827 C62.642,7.9827 62.607,7.8277 62.676,7.6727 C62.745,7.5177 62.779,7.3287 63.192,7.3457 C63.605,7.3627 65.36,7.3627 65.636,7.3977 C65.911,7.4317 66.823,7.5357 67.287,7.8447 C67.752,8.1547 68.233,8.4637 68.509,8.8767 C68.784,9.2897 69.18,9.7027 69.163,10.6317 C69.145,11.5607 69.214,16.4307 69.197,16.6197 C69.18,16.8087 69.214,17.1697 69.248,17.4457 C69.283,17.7207 69.3,25.3257 69.3,25.3257 C69.3,25.3257 69.266,27.5277 69.266,27.7857 C69.266,28.0437 69.214,29.2307 69.18,29.4887 C69.145,29.7467 69.3,30.1947 69.369,30.3497 C69.438,30.5037 69.644,30.5557 70.057,30.5727 C70.47,30.5897 73.86,30.5387 73.86,30.5387 L79.038,30.5897 L79.83,30.5387 Z" id="Fill-1" fill="#514736"></path>
                <path d="M95.4047,25.8234 C95.4177,27.0174 95.3187,28.1954 95.0387,29.2144 C94.7987,30.0914 94.1107,31.9844 91.9597,31.9844 C89.8087,31.9844 89.1727,29.5404 89.1377,29.2484 C89.1037,28.9554 88.9487,25.3774 88.9307,24.8944 C88.8587,22.8364 89.5357,19.6654 92.1657,19.6644 C93.4477,19.6644 94.7427,20.2604 94.9877,21.6414 C95.2077,22.8884 95.3887,24.3674 95.4047,25.8234 M101.7837,25.6864 C101.8187,24.4994 101.4567,22.7104 101.3367,22.2114 C101.2157,21.7124 100.8027,20.3874 100.4587,19.6304 C100.1147,18.8734 100.1317,18.7874 99.1517,17.5314 C98.1717,16.2764 97.0537,15.8804 95.9527,15.3644 C93.5667,14.2464 90.5287,14.5084 88.1397,15.4494 C87.5717,15.6734 86.9187,16.2754 86.1787,16.8774 C85.4387,17.4794 84.5097,18.8904 83.9247,19.6644 C82.0897,22.0934 81.7277,26.1054 82.6337,28.9704 C83.3197,31.1414 84.1937,33.2144 85.9047,34.7894 C88.3997,37.0854 93.1297,37.2684 96.2877,36.5024 C98.2187,36.0334 99.3697,34.0694 100.2357,32.4314 C101.3937,30.2374 101.7127,28.1234 101.7837,25.6864" id="Fill-3" fill="#514736"></path>
                <g id="Group-7" transform="translate(104.000000, 14.413100)">
                    <mask id="mask-2" fill="white">
                        <use xlink:href="#path-1"></use>
                    </mask>
                    <g id="Clip-6"></g>
                    <path d="M12.9413,9.3121 C12.9073,10.2931 12.8903,13.4241 12.8903,13.5441 C12.8903,13.6651 12.9593,14.5601 12.8043,15.1271 C12.6493,15.6951 12.0463,17.0201 10.3093,17.0201 C8.5713,17.0201 7.7803,15.5921 7.6423,15.1271 C7.5043,14.6631 7.2633,12.7881 7.2293,12.3061 C7.1943,11.8241 7.3503,9.1741 7.3323,8.7271 C7.3153,8.2801 7.6763,6.7311 7.9353,6.4041 C8.1923,6.0781 8.8983,5.1311 10.2063,5.0621 C10.4983,5.0471 11.2043,5.1831 11.6513,5.5271 C12.0983,5.8711 12.6313,6.3701 12.8043,6.7141 C12.9763,7.0581 12.9763,8.3321 12.9413,9.3121 M19.3763,10.4991 C19.3593,9.9321 19.2553,8.5381 19.1523,7.8841 C18.2603,2.2301 10.6153,-1.1339 5.6973,1.1741 C3.7383,2.0941 2.1913,4.4801 1.2273,6.3491 C0.7243,7.3211 0.6373,8.8111 0.5593,9.8911 C0.3563,12.6911 0.5713,15.5131 1.6033,18.1381 C1.9823,19.1021 3.4443,20.4961 4.3043,21.1321 C6.4203,22.6971 9.6543,22.5311 11.8753,21.3561 C12.1673,21.2011 12.8383,20.4961 12.8383,20.4961 L12.8383,20.7711 C12.8383,21.0461 12.6663,21.7001 12.6663,21.7001 C12.5973,22.0611 12.3743,23.3001 12.2533,23.6791 C12.1323,24.0571 11.5653,24.8661 11.2733,25.1241 C10.9803,25.3821 9.9993,25.7601 9.3623,26.0011 C8.7263,26.2421 7.3323,26.1901 6.8853,26.1731 C6.4383,26.1561 5.9903,26.1221 5.3373,25.9671 C4.6833,25.8121 3.8053,25.4161 3.6333,25.3301 C3.4613,25.2441 3.0143,25.2961 2.9113,25.4161 C2.8073,25.5371 2.7213,25.7431 2.4983,26.2251 C2.2743,26.7071 1.8963,27.9281 1.8273,28.2041 C1.7583,28.4791 1.6723,29.6661 1.7233,29.8041 C1.7753,29.9411 1.7753,30.0271 2.2053,30.1991 C2.6353,30.3711 6.5043,30.9901 7.0743,30.9911 C10.9113,30.9931 14.7803,31.3311 17.1223,27.6871 C17.2773,27.4461 18.0513,25.8121 18.2583,25.3301 C18.4643,24.8491 18.9803,22.5771 19.0663,22.1651 C19.1523,21.7511 19.3593,18.2761 19.3593,18.1041 C19.3593,17.9321 19.3933,11.0671 19.3763,10.4991" id="Fill-5" fill="#514736" mask="url(#mask-2)"></path>
                </g>
                <path d="M165.3095,23.0885 C165.2575,23.4155 164.8455,23.5015 164.3645,23.4675 C162.9985,23.3705 161.6305,23.3805 160.2685,23.2955 C159.9935,23.2775 159.7355,23.2955 159.6315,23.2605 C159.5285,23.2265 159.5105,22.6925 159.6145,22.0225 C159.7175,21.3505 160.6295,20.0605 161.0595,19.6995 C161.4905,19.3385 161.8165,19.1485 162.0915,19.0965 C162.3675,19.0455 162.7805,18.9595 162.7805,18.9595 C163.2455,18.9595 163.7785,19.0285 164.0535,19.3725 C164.3295,19.7165 165.1205,20.5425 165.2235,21.1615 C165.3265,21.7805 165.3615,22.7615 165.3095,23.0885 M171.2795,21.9185 C171.0905,20.7835 171.0905,20.5595 170.7975,19.9405 C170.5055,19.3205 169.6275,17.8755 168.9395,17.3075 C168.2515,16.7395 167.0815,15.8625 166.6855,15.6725 C166.2895,15.4845 165.3435,15.1225 164.7245,14.9165 C164.1055,14.7095 162.4875,14.5545 162.1615,14.5545 C162.1615,14.5545 161.4555,14.5545 161.0775,14.6065 C159.9075,14.7955 159.1665,15.1055 158.4965,15.3295 C157.8255,15.5525 156.8105,16.4295 156.4135,16.7745 C153.6335,19.1925 152.9545,23.0525 153.1625,26.5295 C153.2135,27.3905 153.5405,29.2485 153.7475,30.2985 C154.3795,33.5085 157.3525,36.5005 160.6635,36.8015 C163.1445,37.0265 165.5915,36.6845 167.9935,36.0615 C168.4575,35.9415 169.9555,35.1665 170.1615,35.0975 C170.3685,35.0295 170.5745,34.5645 170.5915,34.3065 C170.6085,34.0485 170.5225,33.3255 170.4185,33.0855 C170.3165,32.8435 170.0925,31.9155 169.8855,31.5705 C169.6795,31.2265 169.3865,31.0035 169.1985,30.9515 C169.0085,30.9005 168.7675,31.0375 168.7675,31.0375 C168.7675,31.0375 168.2165,31.2955 167.8905,31.4675 C167.5635,31.6395 165.9975,31.7945 165.4985,31.8465 C164.9995,31.8975 164.0015,31.8975 163.6575,31.9155 C163.3135,31.9325 162.4015,31.7605 161.6625,31.5535 C160.9215,31.3475 159.8895,29.6265 159.7355,29.2995 C159.5805,28.9725 159.5455,28.3015 159.6315,27.9575 C159.7175,27.6135 160.1995,27.5275 160.2505,27.5105 C160.3025,27.4935 164.1225,27.6135 164.1915,27.5965 C164.2595,27.5795 166.5995,27.6135 167.3915,27.5965 C168.1825,27.5795 169.0425,27.6135 169.6795,27.6305 C170.3165,27.6485 170.5745,27.5965 170.7635,27.5275 C170.9535,27.4585 171.3145,27.1145 171.3485,26.9775 C171.3825,26.8395 171.4525,26.0655 171.4525,25.6865 C171.4525,25.3085 171.4685,23.0545 171.2795,21.9185" id="Fill-8" fill="#514736"></path>
                <path d="M175.2538,36.4401 C175.2538,36.4401 174.9788,32.1561 174.9788,31.6231 C174.9788,31.0891 175.2018,25.8411 175.2358,25.4111 C175.2718,24.9811 175.4948,20.8001 175.4948,20.3361 C175.4948,19.8711 175.4088,18.2711 175.3578,17.6521 C175.3058,17.0321 174.8408,16.2071 174.7368,16.0691 C174.6348,15.9311 174.6688,15.7591 174.8578,15.6901 C175.0478,15.6221 176.6818,15.1231 177.2838,15.1741 C177.8868,15.2261 178.6778,15.3631 179.0908,15.5011 C179.5038,15.6391 180.2428,15.9831 180.6558,16.3611 C181.0688,16.7401 181.2588,16.9631 181.3448,17.0841 C181.4308,17.2041 181.7228,17.0151 181.8438,16.9461 C181.9638,16.8781 183.2548,15.9311 183.8738,15.6901 C184.4928,15.4491 185.5088,15.0191 186.1098,14.9511 C186.7128,14.8821 188.2268,14.9161 188.7428,15.0371 C189.2588,15.1571 190.4458,15.7591 191.0658,16.2751 C191.6848,16.7921 192.2868,17.4971 192.5968,18.2881 C192.9058,19.0801 193.2158,19.9571 193.2158,20.6631 C193.2158,21.3681 193.2678,23.0371 193.3188,23.2951 C193.3708,23.5531 193.5258,30.4181 193.5258,30.4181 C193.5258,30.4181 193.4408,33.8421 193.4568,33.9281 C193.4748,34.0141 193.2508,34.8741 193.0438,35.3221 C192.8378,35.7691 192.6308,35.9411 192.5448,35.9931 C192.4588,36.0441 191.8218,36.2511 191.2208,36.2681 C190.6178,36.2851 189.3798,36.3711 189.0348,36.3361 C188.6918,36.3021 188.1068,36.2851 187.6578,35.8551 C185.9088,34.1691 186.5318,30.7321 186.4718,28.5431 C186.4548,27.9231 186.4718,22.4521 186.3518,22.0221 C186.2308,21.5921 185.5088,20.9031 185.0958,20.7491 C184.6828,20.5941 183.8908,20.5601 183.4948,20.7831 C183.0998,21.0071 182.0158,21.8671 181.8598,22.0911 C181.7058,22.3151 181.3448,23.1231 181.3788,23.7081 C181.4128,24.2931 181.4478,25.1021 181.4648,26.0141 C181.4828,26.9251 181.6368,34.2891 181.6368,34.2891 C181.6368,34.2891 181.6368,35.3041 181.6198,35.3901 C181.6028,35.4771 181.4648,35.7861 181.3108,35.9071 C181.1548,36.0271 180.8978,36.2511 180.3988,36.2851 C179.8998,36.3191 178.5918,36.3711 178.0408,36.3881 C177.4898,36.4051 176.5268,36.4051 176.3198,36.4051 C176.1138,36.4051 175.2538,36.4401 175.2538,36.4401" id="Fill-10" fill="#514736"></path>
                <path d="M209.0624,28.5944 C209.0104,29.4034 208.6314,30.6584 208.1164,31.0894 C207.5994,31.5194 207.1864,32.1214 206.3614,32.1044 C205.5354,32.0874 204.6404,31.5024 204.2954,31.0034 C203.9524,30.5044 203.3334,28.6294 203.2474,27.8544 C203.1614,27.0804 203.2124,23.4674 203.2474,23.1234 C203.2814,22.7794 203.7104,21.2824 204.0724,20.8344 C204.4334,20.3874 205.0874,19.6644 205.4664,19.5274 C205.8444,19.3894 206.3264,19.3554 206.3264,19.3554 C206.8944,19.3554 207.0324,19.3214 207.5654,19.6644 C208.0984,20.0094 208.4084,20.2494 208.6664,20.8344 C208.9244,21.4194 209.3374,22.7964 209.3204,24.0174 C209.3024,25.2394 209.1144,27.7854 209.0624,28.5944 M215.8404,25.1534 C215.7894,23.4324 215.6684,22.4694 215.4114,21.5574 C214.6254,18.7824 212.4644,16.3524 209.8194,15.1564 C207.4864,14.1024 204.4264,14.5804 202.0774,15.3634 C201.0954,15.6904 199.6674,16.7914 199.0834,17.4104 C198.4984,18.0304 197.5514,19.6304 197.2244,20.3364 C196.8984,21.0414 196.7604,22.4694 196.7254,22.9684 C196.6914,23.4674 196.7084,26.3924 196.7604,26.9604 C196.8124,27.5274 197.0704,28.9384 197.1564,29.6434 C197.2424,30.3494 198.1544,32.0524 198.5154,32.7584 C198.8764,33.4634 199.9604,34.5304 200.8034,35.1664 C201.6464,35.8034 203.4014,36.5264 203.9864,36.6634 C204.5714,36.8014 205.3794,36.8184 206.2064,36.8354 C207.0324,36.8534 207.9784,36.7324 208.6664,36.5094 C210.7334,35.8374 211.9154,34.9714 213.4124,33.3684 C214.3464,32.3664 214.6314,31.3914 215.2554,30.2464 C215.5654,29.6784 215.7724,28.5944 215.7724,28.0094 C215.7724,27.4244 215.8924,26.8734 215.8404,25.1534" id="Fill-12" fill="#514736"></path>
                <path d="M216.6327,15.3292 C216.6327,15.3292 216.9427,15.1402 217.2687,15.1222 C217.5957,15.1052 218.3697,15.0372 218.7657,15.0712 C220.0237,15.1802 222.3047,14.4892 223.1357,15.8102 C223.5147,16.4132 224.1677,17.8752 224.2367,18.1332 C224.3057,18.3922 225.0117,21.1102 225.0117,21.1102 L226.9037,28.9382 L227.2307,30.7622 L227.4537,30.8142 L228.2117,26.6332 L229.7777,20.4222 L231.1887,15.5362 C231.1887,15.5362 231.7377,15.1402 231.9967,15.1222 C232.4677,15.0912 237.4317,14.9062 237.2097,15.7932 C237.1757,15.9312 236.7627,17.6342 236.4867,18.4262 C236.2117,19.2172 234.5427,24.4482 234.5427,24.4482 L232.2367,32.5862 C232.2367,32.5862 231.4287,35.2532 231.3947,35.4252 C231.3607,35.5972 231.0327,36.0792 230.8437,36.1642 C230.6537,36.2502 228.4867,36.5092 227.9877,36.5092 C227.4887,36.5092 226.3877,36.3882 225.6127,36.3712 C224.8387,36.3542 223.9957,36.1822 223.2737,35.6142 C222.5507,35.0462 221.9657,33.2912 221.8117,33.0332 C221.6557,32.7752 219.0407,22.9682 219.0407,22.9682 L216.7357,15.9142 C216.7357,15.9142 216.4777,15.4322 216.6327,15.3292" id="Fill-14" fill="#514736"></path>
                <path d="M244.7108,22.7618 C244.7798,22.4348 245.1578,20.9548 245.2958,20.5768 C245.4338,20.1988 246.0018,19.4758 246.3118,19.3208 C246.6208,19.1658 247.1028,18.9248 247.3438,18.9078 C247.5838,18.8908 248.2558,18.9938 248.5828,19.1828 C248.9088,19.3718 249.6318,19.9228 249.8558,20.3528 C250.0788,20.7828 250.2338,20.8178 250.3028,21.3678 C250.3718,21.9188 250.3028,22.6928 250.2858,22.9168 C250.2688,23.1398 250.1308,23.2608 249.9068,23.2778 C249.6838,23.2948 247.6368,23.3638 247.1538,23.3468 C246.6728,23.3298 244.9698,23.4158 244.8838,23.4158 C244.7968,23.4158 244.6428,23.0888 244.7108,22.7618 M245.1578,27.6828 C245.5028,27.6478 246.2418,27.6478 246.5348,27.6478 C246.8268,27.6478 251.5418,27.8718 251.9198,27.8548 C252.2988,27.8378 253.8988,27.8378 254.4148,27.7688 C254.9318,27.6998 255.3788,27.5278 255.7918,27.2868 C256.2038,27.0458 256.2738,26.3578 256.3418,25.8588 C256.4108,25.3598 256.2898,22.5728 256.2218,21.8848 C256.1528,21.1958 255.7398,19.8368 255.4128,19.1318 C255.0858,18.4258 253.9848,16.9468 253.1928,16.3608 C250.2418,14.1808 245.8668,13.9008 242.6138,15.5858 C238.0948,17.9288 237.8218,23.7628 238.1558,28.1648 C238.3648,30.9228 239.8528,33.6068 242.0898,35.2368 C244.5358,37.0198 247.4978,36.9198 250.3718,36.5428 C251.4218,36.4058 252.3328,35.9238 253.2278,35.6318 C254.1228,35.3388 255.2748,34.6508 255.4828,34.5468 C256.7908,33.8868 255.3808,31.2188 254.4668,30.7618 C254.1228,30.5898 253.6758,30.7618 252.9698,31.0028 C252.2648,31.2438 250.6128,31.6048 250.0108,31.6568 C247.7978,31.8468 244.9178,30.8328 244.6248,28.1988 C244.5908,27.8888 244.8148,27.7168 245.1578,27.6828" id="Fill-16" fill="#514736"></path>
                <path d="M136.9794,12.4493 C136.6274,12.8873 136.8374,14.0683 136.8374,14.5593 L136.8374,15.4803 L136.8374,19.8913 C136.8374,20.1123 136.8334,20.3333 136.8354,20.5533 C136.9724,20.5893 137.1224,20.5843 137.2724,20.5873 C138.8674,20.6163 140.8444,20.7593 142.2204,20.0143 C142.7654,19.7203 143.1764,19.3053 143.4574,18.7723 C143.7354,18.2393 143.8754,17.4673 143.8754,16.4563 C143.8754,15.3443 143.6554,14.1333 142.8254,13.3263 C141.3954,11.9383 139.1354,12.3673 137.3734,12.2823 C137.1964,12.2733 137.0704,12.3373 136.9794,12.4493 M150.8604,16.6273 C150.8604,17.5493 150.5644,18.2303 150.2854,19.0533 C150.0054,19.8773 149.6354,20.6173 149.1744,21.2733 C148.7654,21.8563 148.3944,22.4913 147.8024,22.9113 C147.1434,23.3783 146.3564,23.6633 145.6774,24.1023 C147.1794,25.1043 148.2874,26.1143 148.8194,27.9553 C148.8194,27.9553 149.6804,30.9403 149.6814,30.9413 C150.0424,32.1533 150.8184,33.1713 151.6574,34.1013 C152.0524,34.5393 152.3134,34.6633 151.7634,35.0583 C151.2344,35.4393 150.3934,35.9713 150.2854,36.0203 C149.9524,36.1693 149.5874,36.2903 149.2104,36.3813 C148.6504,36.5163 148.0634,36.5853 147.5204,36.5853 C146.5144,36.5853 145.4904,36.0693 144.9314,35.4963 C144.3724,34.9253 144.0984,34.1563 143.6244,32.7313 L142.1164,28.3323 C141.8084,27.4943 141.3964,26.8523 140.8804,26.4063 C140.3654,25.9603 139.5924,25.7373 138.5654,25.7353 C137.9784,25.7343 136.7214,25.4093 136.8374,26.2403 L136.8374,28.4203 L136.6434,30.9893 L136.8374,35.6423 L136.8374,36.2083 C136.2904,36.3113 135.6134,36.2323 134.8994,36.2723 C134.4464,36.2973 134.0064,36.4593 133.4864,36.4593 C132.4764,36.4593 131.1284,36.5663 130.1684,36.1893 C130.1444,36.1803 130.1764,35.5473 130.1764,35.4963 L130.1764,29.2933 L130.3434,15.0923 L130.1764,7.8053 L130.4704,7.5123 C132.8994,7.4563 133.8184,7.6083 135.4804,7.5803 C137.1424,7.5533 140.0074,7.3863 140.9574,7.3863 C142.4934,7.3863 143.4574,7.5333 144.7134,7.9103 C145.9704,8.2873 146.8784,8.5713 147.7584,9.3253 C148.6384,10.0793 149.4824,11.3103 149.9704,12.4553 C150.4584,13.6013 150.8604,15.1193 150.8604,16.6273" id="Fill-18" fill="#514736"></path>
                <g id="Group-22" transform="translate(0.000000, 0.413100)">
                    <mask id="mask-4" fill="white">
                        <use xlink:href="#path-3"></use>
                    </mask>
                    <g id="Clip-21"></g>
                    <path d="M25.2372,38.5729 C25.7252,38.0839 26.5252,38.0839 27.0132,38.5729 L33.0742,44.6339 C33.5632,45.1219 34.3622,45.1219 34.8512,44.6339 L36.2092,43.2749 C36.6972,42.7869 36.6972,41.9879 36.2092,41.4989 L30.1482,35.4379 C29.6602,34.9489 29.6602,34.1499 30.1482,33.6609 L33.0742,30.7359 C33.5632,30.2469 34.3622,30.2469 34.8512,30.7359 L40.9112,36.7959 C41.4002,37.2849 42.1992,37.2849 42.6882,36.7959 L44.0472,35.4379 C44.5352,34.9489 44.5352,34.1499 44.0472,33.6609 L30.1482,19.7629 C29.6602,19.2749 29.6602,18.4749 30.1482,17.9869 L33.0742,15.0609 C33.5632,14.5719 34.3622,14.5719 34.8512,15.0609 L48.7492,28.9589 C49.2372,29.4479 50.0372,29.4479 50.5262,28.9589 L51.8842,27.5999 C52.3722,27.1119 52.3722,26.3129 51.8842,25.8239 L27.0132,0.9529 C26.5252,0.4649 25.7252,0.4649 25.2372,0.9529 L0.3662,25.8239 C-0.1218,26.3129 -0.1218,27.1119 0.3662,27.5999 L1.7252,28.9589 C2.2132,29.4479 3.0122,29.4479 3.5012,28.9589 L25.2372,7.2229 C25.7252,6.7349 26.5252,6.7349 27.0132,7.2229 L29.9392,10.1489 C30.4282,10.6379 30.4282,11.4369 29.9392,11.9259 L8.2042,33.6609 C7.7152,34.1499 7.7152,34.9489 8.2042,35.4379 L9.5622,36.7959 C10.0502,37.2849 10.8502,37.2849 11.3392,36.7959 L25.2372,22.8979 C25.7252,22.4089 26.5252,22.4089 27.0132,22.8979 L29.9392,25.8239 C30.4282,26.3129 30.4282,27.1119 29.9392,27.5999 L16.0412,41.4989 C15.5522,41.9879 15.5522,42.7869 16.0412,43.2749 L17.4002,44.6339 C17.8882,45.1219 18.6872,45.1219 19.1762,44.6339 L25.2372,38.5729 Z" id="Fill-20" fill="#8C7D5E" mask="url(#mask-4)"></path>
                </g>
            </g>
        </g>
    </g>
</svg>