<?xml version="1.0" encoding="UTF-8"?>
<svg width="244px" height="42px" viewBox="0 0 244 42" version="1.1" xmlns="http://www.w3.org/2000/svg" xmlns:xlink="http://www.w3.org/1999/xlink">
    <!-- Generator: Sketch 63.1 (92452) - https://sketch.com -->
    <title>Group 22</title>
    <desc>Created with Sketch.</desc>
    <defs>
        <polygon id="path-1" points="0.956221477 0.65576134 18.332 0.65576134 18.332 21.7946221 0.956221477 21.7946221"></polygon>
    </defs>
    <g id="Page-1" stroke="none" stroke-width="1" fill="none" fill-rule="evenodd">
        <g id="Home-PC" transform="translate(-598.000000, -4397.000000)">
            <g id="Group-22" transform="translate(598.000000, 4397.000000)">
                <path d="M75.3755728,28.1901428 C75.3755728,28.1901428 75.8095301,28.2062701 75.8723655,28.3554475 C75.9371646,28.5026091 76,28.913855 76,29.1779394 C76,29.1779394 75.8880744,30.0669565 75.8880744,30.214118 C75.8880744,30.3632955 75.8252389,31.0204827 75.6976044,31.514381 C75.5680063,32.0102952 75.5032073,32.3066343 75.2145569,32.6170846 C74.9259066,32.9315669 74.6392199,33.2440331 74.2543528,33.3246696 C73.8675221,33.407322 73.4198196,33.6552791 72.9230268,33.7540588 C72.4262341,33.8528385 71.9922768,33.8367112 71.3835584,33.9012203 C70.7748401,33.9677454 70.4861898,34 69.4749318,34 C68.4656375,34 66.9104602,33.9677454 66.8299523,33.9838727 C66.7494444,34 62.8065203,33.8367112 62.4059443,33.818568 C62.0034048,33.8024407 60.8821848,33.4254652 60.3048842,33.1291262 C59.7275835,32.8327872 59.1502829,32.1252022 59.0697749,31.4659991 C58.989267,30.806796 59.0383572,28.7666935 59.0049759,28.1740155 C58.9735582,27.5813375 59.1011927,22.1988535 59.1011927,22.1988535 L59.134574,17.7537684 L59.2307908,12.5204619 L59.3584253,6.60980905 C59.3584253,6.60980905 59.3270076,6.4626475 59.389843,6.31347004 C59.454642,6.1663085 59.4860598,5.98487645 59.8709269,6.00100374 C60.255794,6.01713104 61.8914791,6.01713104 62.1487117,6.05140153 C62.4059443,6.08365612 63.2542228,6.18243579 63.6862165,6.47877479 C64.1201738,6.7751138 64.5698399,7.07145281 64.8251089,7.46657148 C65.0823415,7.86169015 65.4514998,8.25680883 65.4357909,9.14582585 C65.4181184,10.0348429 65.4829175,14.6915987 65.4672086,14.8730307 C65.4514998,15.0544628 65.4829175,15.3991836 65.5162988,15.6632681 C65.5477165,15.9273525 65.5634254,23.2027775 65.5634254,23.2027775 C65.5634254,23.2027775 65.5320077,25.3094051 65.5320077,25.5553463 C65.5320077,25.8033034 65.4829175,26.9382617 65.4514998,27.1862188 C65.4181184,27.4341759 65.5634254,27.8595333 65.6282245,28.0087107 C65.6910599,28.1558723 65.8834935,28.2062701 66.2683605,28.2223973 C66.6532276,28.2385246 69.8126723,28.1901428 69.8126723,28.1901428 L74.6392199,28.2385246 L75.3755728,28.1901428 Z" id="Fill-1" fill="#FFFFFF"></path>
                <path d="M90.8235529,23.5515009 C90.8357908,24.6775787 90.739927,25.7857823 90.4706926,26.7470197 C90.2361323,27.5732073 89.5712048,29.3586464 87.4887171,29.3586464 C85.4062294,29.3586464 84.7902536,27.0548541 84.7576192,26.7787962 C84.7249847,26.5027383 84.5740502,23.130463 84.557733,22.6756626 C84.4883847,20.7353134 85.1431139,17.7483275 87.6886033,17.7463415 C88.9287135,17.7463415 90.1831013,18.3083874 90.4197012,19.6112216 C90.633865,20.7849641 90.8092753,22.1791557 90.8235529,23.5515009 M96.9975884,23.4224091 C97.0322625,22.3042754 96.6834815,20.6161517 96.5651815,20.1474492 C96.4489212,19.6767605 96.0491488,18.427549 95.7166851,17.714565 C95.3821817,17.001581 95.4005386,16.9201539 94.4500594,15.7344952 C93.5016198,14.5528087 92.4206027,14.1794354 91.3538632,13.6928586 C89.0449738,12.6382778 86.1037914,12.8865313 83.7908227,13.7742857 C83.2421555,13.9848047 82.6098625,14.5528087 81.8939436,15.1188266 C81.1780248,15.6868306 80.2785369,17.0174692 79.7115129,17.7463415 C77.9349734,20.0342456 77.5841528,23.8176286 78.4612044,26.5186265 C79.1261319,28.5642352 79.9725887,30.5165006 81.6267488,32.0020495 C84.0437399,34.1648338 88.6207256,34.3396043 91.6781683,33.6166901 C93.5485319,33.1738059 94.6621835,31.3228279 95.498442,29.7796843 C96.6222919,27.7122293 96.9302798,25.7202433 96.9975884,23.4224091" id="Fill-3" fill="#FFFFFF"></path>
                <path d="M110.863898,21.4207732 C110.831774,22.35053 110.815713,25.3217531 110.815713,25.4357233 C110.815713,25.551693 110.87996,26.3994713 110.733396,26.9393302 C110.584824,27.4771895 110.010613,28.7348607 108.354237,28.7348607 C106.699868,28.7348607 105.944962,27.3792152 105.814459,26.9393302 C105.683957,26.4974457 105.455076,24.717911 105.420944,24.2600308 C105.388821,23.80415 105.535385,21.2908071 105.519323,20.8649185 C105.503261,20.4410293 105.846583,18.9714136 106.093534,18.6614947 C106.340484,18.3515757 107.011066,17.4538104 108.257866,17.3878277 C108.534932,17.3738313 109.207522,17.5017979 109.635168,17.8297121 C110.060806,18.1556269 110.568762,18.629503 110.733396,18.9554178 C110.896022,19.2813326 110.896022,20.4890168 110.863898,21.4207732 M116.995503,22.5464788 C116.979441,22.0086194 116.881062,20.6849656 116.782683,20.0651276 C115.931406,14.7005304 108.647365,11.5073653 103.961325,13.6987923 C102.094137,14.5705643 100.620464,16.835972 99.7009243,18.6095082 C99.2230848,19.5312672 99.1407679,20.9448976 99.0664819,21.9686299 C98.8717322,24.6279346 99.0765206,27.3052345 100.060308,29.7945836 C100.421699,30.7103441 101.815063,32.0319985 102.634217,32.6358407 C104.649977,34.1214522 107.731841,33.9634935 109.847987,32.8497847 C110.125054,32.7018234 110.765519,32.0319985 110.765519,32.0319985 L110.765519,32.2939301 C110.765519,32.5558616 110.600886,33.1756995 110.600886,33.1756995 C110.536638,33.5176101 110.321811,34.6933027 110.207371,35.0532086 C110.09293,35.4131145 109.552851,36.1789142 109.273777,36.4248499 C108.994702,36.6687861 108.061108,37.028692 107.454774,37.2566324 C106.84844,37.4865723 105.519323,37.4365854 105.093685,37.4205895 C104.668046,37.4045937 104.2404,37.3726021 103.618004,37.2246408 C102.995608,37.0786789 102.158385,36.7027772 101.995759,36.6207987 C101.831125,36.5388201 101.405486,36.5868076 101.307108,36.7027772 C101.206721,36.8167474 101.126412,37.0126962 100.911585,37.468577 C100.700773,37.9264573 100.339382,39.086154 100.273127,39.3460861 C100.206872,39.6080176 100.126563,40.7357227 100.174748,40.8656887 C100.224942,40.9956547 100.224942,41.0776333 100.634518,41.2415904 C101.044095,41.4035481 104.730286,41.9913944 105.272373,41.9913944 C108.930455,41.9933938 112.616646,42.3133102 114.847233,38.8562142 C114.995805,38.6282738 115.732641,37.0786789 115.929399,36.6207987 C116.126156,36.1629184 116.61805,34.007482 116.700367,33.6175839 C116.782683,33.2236869 116.979441,29.9265491 116.979441,29.7625919 C116.979441,29.6006343 117.011565,23.0863376 116.995503,22.5464788" id="Fill-5" fill="#FFFFFF"></path>
                <path d="M157.301382,21.0304279 C157.254466,21.3377653 156.869369,21.419061 156.425628,21.3873359 C155.156959,21.2941432 153.888289,21.3040573 152.623529,21.2247445 C152.369404,21.2088819 152.128963,21.2247445 152.035132,21.1930193 C151.939346,21.1593114 151.921753,20.6576575 152.017539,20.0271202 C152.115279,19.3946 152.959756,18.1811131 153.358536,17.8420506 C153.759272,17.5010053 154.062267,17.3225513 154.316392,17.2729808 C154.572471,17.2253931 154.955613,17.1440974 154.955613,17.1440974 C155.387626,17.1440974 155.880237,17.2095305 156.136317,17.5327304 C156.390442,17.8559304 157.125449,18.6351793 157.221235,19.2161461 C157.31702,19.7990957 157.348297,20.7230906 157.301382,21.0304279 M162.83935,19.9299619 C162.663417,18.861221 162.663417,18.6510419 162.391699,18.0680923 C162.121935,17.4851427 161.308736,16.124927 160.669514,15.5895652 C160.030292,15.0561861 158.945374,14.2293495 158.577871,14.0508955 C158.212322,13.8744244 157.334613,13.533379 156.7599,13.3410453 C156.185187,13.144746 154.683895,13 154.3809,13 C154.3809,13 153.72604,13 153.374175,13.0495705 C152.291212,13.2260417 151.60312,13.5175165 150.981491,13.7276956 C150.357908,13.9378747 149.417646,14.7647113 149.048187,15.0879113 C146.469797,17.3641906 145.840349,20.99672 146.03192,24.2683758 C146.08079,25.0793499 146.383785,26.8262158 146.575356,27.813661 C147.161798,30.8354813 149.920031,33.6510882 152.991032,33.9346317 C155.293795,34.1467936 157.563326,33.8235937 159.789851,33.2386612 C160.221863,33.1256404 161.611731,32.395962 161.803302,32.3305289 C161.992918,32.2670786 162.186444,31.828875 162.202082,31.5869708 C162.217721,31.3430837 162.139529,30.6629758 162.041788,30.4369342 C161.946003,30.2108925 161.738793,29.3364681 161.547222,29.0112854 C161.355651,28.6880854 161.085888,28.4779063 160.909955,28.4283358 C160.734023,28.380748 160.511175,28.5096315 160.511175,28.5096315 C160.511175,28.5096315 159.999015,28.7535185 159.69602,28.9161099 C159.39107,29.0767185 157.938649,29.2234473 157.477314,29.271035 C157.01598,29.3206055 156.089401,29.3206055 155.768813,29.3364681 C155.45018,29.3523307 154.603748,29.1897393 153.917611,28.9954228 C153.231474,28.8011063 152.273618,27.1831237 152.128963,26.8757864 C151.986262,26.5664662 151.954985,25.9359289 152.035132,25.6127289 C152.115279,25.2875462 152.560975,25.2062505 152.609845,25.1923707 C152.656761,25.1745253 156.200825,25.2875462 156.265334,25.2716836 C156.327888,25.255821 158.497723,25.2875462 159.232731,25.2716836 C159.965783,25.255821 160.763345,25.2875462 161.355651,25.3053916 C161.946003,25.3212541 162.186444,25.2716836 162.362377,25.2062505 C162.538309,25.1428002 162.872581,24.8196002 162.903858,24.688734 C162.93709,24.5598506 162.999644,23.832155 162.999644,23.4752471 C162.999644,23.1183392 163.015282,20.99672 162.83935,19.9299619" id="Fill-7" fill="#FFFFFF"></path>
                <path d="M166.547376,33 C166.547376,33 166.283735,29.0196839 166.283735,28.5223892 C166.283735,28.0270522 166.499076,23.1519972 166.529263,22.7525951 C166.563476,22.353193 166.776804,18.4688117 166.776804,18.0361261 C166.776804,17.6053984 166.694291,16.1174297 166.64599,15.5418208 C166.595677,14.9681698 166.152921,14.1987334 166.054307,14.0714729 C165.955694,13.9442124 165.989907,13.7836684 166.169021,13.7190593 C166.348136,13.656408 167.911869,13.1923967 168.485439,13.2393852 C169.061021,13.2883315 169.817731,13.415592 170.210173,13.5428525 C170.606641,13.6720708 171.313037,13.9912009 171.70548,14.3436145 C172.101947,14.6940703 172.283075,14.9035606 172.365588,15.0151582 C172.448102,15.1267559 172.72583,14.9505491 172.840544,14.8878978 C172.957271,14.8232886 174.188937,13.9442124 174.780619,13.7190593 C175.372302,13.495864 176.340327,13.0964619 176.915909,13.0318527 C177.489479,12.9692014 178.936485,13.0005271 179.429554,13.1121247 C179.922623,13.2237223 181.057687,13.7836684 181.64937,14.2633425 C182.241052,14.7430166 182.816635,15.3988975 183.110464,16.1330926 C183.408317,16.8692455 183.702146,17.6837125 183.702146,18.3395934 C183.702146,18.9954743 183.752459,20.5460942 183.80076,20.7869102 C183.851073,21.0257683 184,27.4044549 184,27.4044549 C184,27.4044549 183.917486,30.5859667 183.933587,30.6662387 C183.947674,30.7465107 183.736359,31.5453149 183.537119,31.9603798 C183.341904,32.3774026 183.144677,32.5359887 183.062163,32.5849351 C182.979649,32.6319236 182.371867,32.8237932 181.796284,32.839456 C181.220702,32.8551188 180.037337,32.9353908 179.709295,32.9040652 C179.381253,32.8727395 178.823784,32.8551188 178.395116,32.4557167 C176.724719,30.889434 177.320427,27.696175 177.260051,25.6619653 C177.243951,25.0863564 177.260051,20.001811 177.14735,19.6024089 C177.030623,19.2030068 176.340327,18.5627887 175.947884,18.4198654 C175.553429,18.2749842 174.796719,18.2436586 174.418365,18.451191 C174.042022,18.6587235 173.005572,19.4594856 172.858657,19.667018 C172.70973,19.8745505 172.365588,20.6263662 172.395776,21.1706495 C172.429989,21.7129749 172.46219,22.4647906 172.47829,23.3125412 C172.496402,24.1583338 172.643317,31.0010316 172.643317,31.0010316 C172.643317,31.0010316 172.643317,31.944717 172.627217,32.024989 C172.611116,32.1033031 172.47829,32.3911076 172.331375,32.5046631 C172.184461,32.6162607 171.93692,32.8237932 171.459952,32.8551188 C170.982983,32.8884024 169.735217,32.9353908 169.207935,32.9530115 C168.684679,32.9667165 167.762942,32.9667165 167.565714,32.9667165 C167.368487,32.9667165 166.547376,33 166.547376,33" id="Fill-9" fill="#FFFFFF"></path>
                <path d="M198.615081,26.233912 C198.567536,26.9962776 198.210945,28.1795326 197.725585,28.5845394 C197.240225,28.9895461 196.849956,29.5573496 196.075361,29.541467 C195.298785,29.5255844 194.456834,28.9736635 194.133921,28.5031409 C193.809027,28.0326184 193.226595,26.2676626 193.147353,25.5370622 C193.066129,24.8084472 193.115656,21.4036111 193.147353,21.0780175 C193.17905,20.7544092 193.583186,19.3448269 193.923929,18.9219522 C194.264671,18.5010629 194.876819,17.8200957 195.23341,17.6910494 C195.590001,17.5620031 196.041683,17.5282526 196.041683,17.5282526 C196.57657,17.5282526 196.705339,17.4964873 197.206547,17.8200957 C197.709737,18.1456893 197.998971,18.3720166 198.242642,18.9219522 C198.486312,19.4738732 198.8746,20.7722771 198.856771,21.9217815 C198.840922,23.0732712 198.662627,25.4715464 198.615081,26.233912 M204.988155,22.9918728 C204.938628,21.3698606 204.827689,20.4625661 204.584018,19.6049048 C203.845083,16.9902289 201.812514,14.6991614 199.326282,13.5734809 C197.133248,12.5808174 194.256747,13.0295013 192.047864,13.768043 C191.12469,14.0757687 189.78153,15.1121095 189.232776,15.6957956 C188.682041,16.2794818 187.792545,17.7883304 187.485481,18.453415 C187.178416,19.1184996 187.047666,20.4625661 187.01795,20.9330886 C186.984272,21.4036111 187,24.1592452 187.047666,24.6952835 C187.099174,25.2293365 187.340863,26.5595057 187.422087,27.2226049 C187.50331,27.8876895 188.359128,29.4918338 188.69789,30.1569184 C189.038632,30.822003 190.058879,31.8265785 190.849322,32.4261473 C191.641747,33.0257161 193.29197,33.7066833 193.842705,33.8377149 C194.391459,33.9667612 195.152187,33.9826438 195.930744,33.9985264 C196.705339,34.014409 197.594835,33.9012454 198.244623,33.6908007 C200.186063,33.0594667 201.297438,32.2434972 202.703991,30.7326633 C203.583582,29.7876476 203.851026,28.8704265 204.43742,27.7904085 C204.728636,27.2563555 204.924761,26.233912 204.924761,25.6839764 C204.924761,25.1320555 205.0357,24.6138851 204.988155,22.9918728" id="Fill-11" fill="#FFFFFF"></path>
                <path d="M205.048381,13.3193222 C205.048381,13.3193222 205.346551,13.1431124 205.665142,13.1274493 C205.981692,13.1117862 206.731199,13.0471759 207.115143,13.0785021 C208.33437,13.1803122 210.54409,12.5381253 211.35078,13.7676782 C211.718386,14.3276339 212.351485,15.6844494 212.416838,15.9252695 C212.486274,16.1660895 213.17043,18.6917635 213.17043,18.6917635 L215.002332,25.9653128 L215.318882,27.6588849 L215.537403,27.7078321 L216.270573,23.8233847 L217.787968,18.0515345 L219.154237,13.5111951 C219.154237,13.5111951 219.689308,13.1431124 219.938463,13.1274493 C220.395928,13.098081 225.207481,12.9257869 224.993044,13.7500573 C224.958326,13.8792778 224.558044,15.4612503 224.292551,16.1974157 C224.025015,16.9316233 222.407549,21.7930561 222.407549,21.7930561 L220.17128,29.3544148 C220.17128,29.3544148 219.387054,31.8330995 219.35642,31.9916883 C219.321702,32.152235 219.005152,32.6005911 218.821349,32.6789066 C218.637547,32.7591799 216.538108,33 216.054094,33 C215.570079,33 214.504022,32.8884005 213.752472,32.8707795 C213.002965,32.8551164 212.18402,32.6945697 211.483527,32.1678981 C210.785076,31.6392687 210.217329,30.008349 210.066202,29.7694868 C209.917117,29.5306246 207.382679,20.4166617 207.382679,20.4166617 L205.148452,13.8636147 C205.148452,13.8636147 204.897254,13.4152586 205.048381,13.3193222" id="Fill-13" fill="#FFFFFF"></path>
                <g id="Group-17" transform="translate(225.000000, 12.000000)">
                    <mask id="mask-2" fill="white">
                        <use xlink:href="#path-1"></use>
                    </mask>
                    <g id="Clip-16"></g>
                    <path d="M7.2718,8.4998 C7.3378,8.1898 7.6978,6.7858 7.8278,6.4258 C7.9598,6.0678 8.4958,5.3798 8.7918,5.2338 C9.0838,5.0858 9.5438,4.8578 9.7718,4.8418 C9.9978,4.8258 10.6378,4.9238 10.9478,5.1038 C11.2578,5.2838 11.9438,5.8058 12.1538,6.2138 C12.3678,6.6218 12.5138,6.6558 12.5798,7.1778 C12.6458,7.6998 12.5798,8.4338 12.5638,8.6478 C12.5478,8.8598 12.4158,8.9738 12.2038,8.9898 C11.9918,9.0058 10.0498,9.0718 9.5918,9.0558 C9.1358,9.0398 7.5178,9.1218 7.4358,9.1218 C7.3538,9.1218 7.2078,8.8098 7.2718,8.4998 M7.6978,13.1698 C8.0238,13.1378 8.7278,13.1378 9.0038,13.1378 C9.2818,13.1378 13.7558,13.3498 14.1158,13.3338 C14.4758,13.3178 15.9918,13.3178 16.4818,13.2518 C16.9738,13.1878 17.3958,13.0238 17.7898,12.7938 C18.1818,12.5658 18.2458,11.9138 18.3138,11.4398 C18.3778,10.9658 18.2638,8.3198 18.1978,7.6658 C18.1338,7.0138 17.7398,5.7238 17.4298,5.0538 C17.1198,4.3838 16.0738,2.9798 15.3218,2.4238 C12.5218,0.3558 8.3698,0.0898 5.2818,1.6898 C0.9918,3.9118 0.7338,9.4498 1.0518,13.6278 C1.2478,16.2458 2.6598,18.7938 4.7838,20.3398 C7.1058,22.0338 9.9178,21.9378 12.6458,21.5818 C13.6418,21.4498 14.5058,20.9938 15.3558,20.7158 C16.2058,20.4378 17.2998,19.7858 17.4958,19.6858 C18.7378,19.0598 17.3978,16.5278 16.5318,16.0938 C16.2058,15.9298 15.7818,16.0938 15.1118,16.3218 C14.4418,16.5498 12.8758,16.8938 12.3038,16.9438 C10.2018,17.1238 7.4698,16.1618 7.1918,13.6618 C7.1578,13.3678 7.3718,13.2038 7.6978,13.1698" id="Fill-15" fill="#FFFFFF" mask="url(#mask-2)"></path>
                </g>
                <path d="M129.534325,10.8552461 C129.197176,11.2755087 129.399062,12.4069851 129.399062,12.8777601 L129.399062,13.7607158 L129.399062,17.9916294 C129.399062,18.2037812 129.395024,18.415933 129.397043,18.6260644 C129.528268,18.6604128 129.669588,18.6563718 129.814945,18.6583923 C131.343216,18.6866792 133.2369,18.8220522 134.557229,18.108818 C135.078093,17.8279694 135.47177,17.4299322 135.740277,16.9187473 C136.008784,16.4075624 136.142029,15.6660413 136.142029,14.6982249 C136.142029,13.6314042 135.930049,12.4696204 135.134621,11.6977919 C133.765839,10.3662866 131.599611,10.7764468 129.91185,10.6936066 C129.742267,10.6875451 129.621135,10.7481599 129.534325,10.8552461 M142.832505,14.8618848 C142.832505,15.7448405 142.549866,16.3994804 142.283377,17.1874729 C142.01487,17.9774859 141.659552,18.6866792 141.219442,19.3170732 C140.825766,19.8747294 140.470448,20.4849185 139.903151,20.8869967 C139.273269,21.3355463 138.518218,21.6083129 137.868147,22.0285756 C139.30557,22.9903305 140.369505,23.9581469 140.878256,25.7240583 C140.878256,25.7240583 141.703967,28.5850772 141.703967,28.5870977 C142.051209,29.7488815 142.794147,30.7247799 143.595632,31.6178381 C143.977195,32.0381007 144.225513,32.1552894 143.698593,32.5351422 C143.191861,32.9008515 142.386339,33.4100159 142.283377,33.4564872 C141.964399,33.5999423 141.615137,33.7151104 141.253763,33.8019916 C140.716748,33.9333237 140.153488,34 139.632624,34 C138.669632,34 137.688469,33.5029586 137.153474,32.9554048 C136.616459,32.4078511 136.354008,31.6703709 135.901785,30.3024968 L134.456287,26.0857267 C134.161534,25.2835907 133.765839,24.6653197 133.27122,24.2389955 C132.77862,23.8106509 132.037702,23.5964786 131.052502,23.5944581 C130.491261,23.5944581 129.286006,23.2833021 129.399062,24.0793765 L129.399062,26.1705874 L129.213327,28.6335691 L129.399062,33.0948189 L129.399062,33.6363112 C128.87416,33.7353153 128.226108,33.6605571 127.541717,33.6989465 C127.107664,33.7231924 126.685724,33.8787704 126.187067,33.8787704 C125.220037,33.8787704 123.927972,33.9797951 123.009394,33.6201472 C122.985168,33.6100447 123.01545,33.0038967 123.01545,32.9554048 L123.01545,27.0070717 L123.176959,13.388945 L123.01545,6.40207822 L123.29809,6.12122961 C125.625827,6.06667629 126.506046,6.21417232 128.098921,6.18588541 C129.689776,6.15961899 132.435416,6 133.345918,6 C134.817661,6 135.740277,6.14143455 136.943513,6.5031029 C138.148768,6.86477125 139.018893,7.13753788 139.862773,7.86087459 C140.704635,8.58219079 141.512176,9.76215904 141.982568,10.8613075 C142.448923,11.9604561 142.832505,13.4152114 142.832505,14.8618848" id="Fill-18" fill="#FFFFFF"></path>
                <path d="M24.1500988,35.922357 C24.6178973,35.4600576 25.3821027,35.4600576 25.8499012,35.922357 L31.6489898,41.6532755 C32.1167883,42.1155748 32.88301,42.1155748 33.3487922,41.6532755 L34.6493527,40.3699961 C35.1171513,39.9076967 35.1171513,39.1524748 34.6493527,38.6901754 L28.8502641,32.9572643 C28.3824656,32.494965 28.3824656,31.7397431 28.8502641,31.2774437 L31.6489898,28.511618 C32.1167883,28.0493186 32.88301,28.0493186 33.3487922,28.511618 L39.1498972,34.2425364 C39.6176957,34.7048358 40.381901,34.7048358 40.8496996,34.2425364 L42.1502601,32.9572643 C42.6180586,32.494965 42.6180586,31.7397431 42.1502601,31.2774437 L28.8502641,18.1337935 C28.3824656,17.6714941 28.3824656,16.9162723 28.8502641,16.4539729 L31.6489898,13.6881472 C32.1167883,13.2258478 32.88301,13.2258478 33.3487922,13.6881472 L46.6487882,26.8317973 C47.1165867,27.292104 47.8828084,27.292104 48.3485906,26.8317973 L49.6491511,25.5465253 C50.1169496,25.0842259 50.1169496,24.329004 49.6491511,23.8667046 L25.8499012,0.345230047 C25.3821027,-0.115076682 24.6178973,-0.115076682 24.1500988,0.345230047 L0.350848893,23.8667046 C-0.116949631,24.329004 -0.116949631,25.0842259 0.350848893,25.5465253 L1.64939307,26.8317973 C2.1171916,27.292104 2.88341332,27.292104 3.35121184,26.8317973 L24.1500988,6.27541544 C24.6178973,5.81311604 25.3821027,5.81311604 25.8499012,6.27541544 L28.6486269,9.04323382 C29.1164254,9.50553322 29.1164254,10.2607551 28.6486269,10.7230545 L7.84973989,31.2774437 C7.38395774,31.7397431 7.38395774,32.494965 7.84973989,32.9572643 L9.15030044,34.2425364 C9.61809896,34.7048358 10.3823043,34.7048358 10.8501028,34.2425364 L24.1500988,21.0988862 C24.6178973,20.6365868 25.3821027,20.6365868 25.8499012,21.0988862 L28.6486269,23.8667046 C29.1164254,24.329004 29.1164254,25.0842259 28.6486269,25.5465253 L15.3506473,38.6901754 C14.8828487,39.1524748 14.8828487,39.9076967 15.3506473,40.3699961 L16.6491914,41.6532755 C17.11699,42.1155748 17.8832117,42.1155748 18.3510102,41.6532755 L24.1500988,35.922357 Z" id="Fill-20" fill="#FFFFFF"></path>
            </g>
        </g>
    </g>
</svg>