<svg xmlns="http://www.w3.org/2000/svg" viewBox="0 0 127.91 101.7"><defs><style>.cls-1{fill:#231916;}</style></defs><title>i_phone</title><g id="Layer_2" data-name="Layer 2"><g id="ロゴデータ"><path class="cls-1" d="M92.15,47.82h13.94a1.82,1.82,0,0,0,0-3.64H92.15a1.82,1.82,0,0,0,0,3.64Z"/><path class="cls-1" d="M71,70H84.9a1.82,1.82,0,0,0,0-3.64H71A1.82,1.82,0,1,0,71,70Z"/><path class="cls-1" d="M61.12,37.21h-12a1.82,1.82,0,1,0,0,3.63H59.24c-.43,5.7-3,8.84-8.93,11.27h0a1.82,1.82,0,0,0,1.38,3.36C59.57,52.25,62.94,47.34,62.94,39A1.82,1.82,0,0,0,61.12,37.21Z"/><path class="cls-1" d="M61,59.92H49.09a1.82,1.82,0,1,0,0,3.63H59.17v8.94H49.09a1.82,1.82,0,0,0,0,3.64H61a1.81,1.81,0,0,0,1.82-1.82V61.73A1.81,1.81,0,0,0,61,59.92Z"/><path class="cls-1" d="M72.5,47.36V38.2h0a1.82,1.82,0,0,0-3.63,0h0v9.16h0a1.82,1.82,0,1,0,3.63,0Z"/><path class="cls-1" d="M74,55.58C82.72,54.15,84.26,50.07,84.26,42V38.2h0a1.82,1.82,0,0,0-3.63,0h0V42c0,7-.86,8.91-7.23,10h0A1.81,1.81,0,1,0,74,55.58Z"/><path class="cls-1" d="M92.65,60.91c0,6.66-.35,10.53-2.39,14.48h0a1.82,1.82,0,1,0,3.23,1.66h0c2.6-5,2.8-9.87,2.8-16.14h0a1.82,1.82,0,0,0-3.64,0Z"/><path class="cls-1" d="M107.63,66.12a1.83,1.83,0,0,0-2.21,1.33h0a10.08,10.08,0,0,1-3.8,6.16V60.5a1.82,1.82,0,0,0-3.63,0h0V76.22a1.81,1.81,0,0,0,2.08,1.8c4.2-.62,7.52-4.24,8.88-9.7A1.82,1.82,0,0,0,107.63,66.12Z"/><path class="cls-1" d="M114.17,19.29C102.09,7.21,83.31,0,64,0,28.69,0,0,23.29,0,51.91A31.14,31.14,0,0,0,5,69.1,2.77,2.77,0,0,0,9.6,66,25.49,25.49,0,0,1,5.53,51.91C5.53,26.34,31.74,5.53,64,5.53c17.93,0,35.25,6.61,46.31,17.68a39.53,39.53,0,0,1,12.12,28.38c0,22.15-21.53,44.58-62.65,44.58-10.44,0-19.54-3.12-25-8.56A18,18,0,0,1,31,82.22l.41.25a3.36,3.36,0,0,0,2.49-.65c2.37-2,5.8-7.75,6.33-12.64s-6.43-6.57-5.45-15.58c.43-3.94,6.17-16.61,10.74-20.28,3-2.43,6.51-2.45,10.07-2.07,5.62.62,10.13-10.44,10.59-14.65.25-2.31-3.56-5.21-9.81-5.89-3.81-.41-7.9,1-11.71,3.95C36.56,21,21.09,50.23,19.56,64.31A17.61,17.61,0,0,0,24,78.12l.17.09a22,22,0,0,0,6.64,13.31c6.56,6.56,16.82,10.18,28.89,10.18,20.22,0,37.55-5.26,50.11-15.2,11.65-9.23,18.07-21.63,18.07-34.91C127.91,39.45,123.16,28.28,114.17,19.29Z"/></g></g></svg>