<?xml version="1.0" standalone="no"?>
<!DOCTYPE svg PUBLIC "-//W3C//DTD SVG 20010904//EN"
 "https://www.w3.org/TR/2001/REC-SVG-20010904/DTD/svg10.dtd">
<svg version="1.0" xmlns="http://www.w3.org/2000/svg"
 width="260.000000pt" height="260.000000pt" viewBox="0 0 260.000000 260.000000"
 preserveAspectRatio="xMidYMid meet">
<metadata>
Created by potrace 1.11, written by Peter Selinger 2001-2013
</metadata>
<g transform="translate(0.000000,260.000000) scale(0.100000,-0.100000)"
fill="#000000" stroke="none">
<path d="M1146 2585 c4 -11 -1 -13 -22 -9 -15 3 -32 8 -38 11 -7 4 -6 1 1 -8
10 -12 4 -14 -38 -13 -36 0 -49 -3 -45 -12 5 -13 -11 -13 -33 0 -10 6 -12 5
-7 -2 5 -8 -2 -11 -23 -8 -17 2 -28 -1 -25 -5 3 -5 -2 -9 -11 -9 -9 0 -14 -4
-11 -8 3 -5 -5 -8 -17 -7 -12 1 -25 -3 -29 -9 -5 -8 -8 -7 -8 2 0 10 -3 10
-14 0 -8 -7 -12 -16 -10 -19 2 -4 -10 -5 -26 -4 -19 2 -27 -1 -23 -8 4 -6 0
-8 -11 -4 -10 4 -15 3 -11 -3 6 -9 -8 -14 -27 -11 -5 0 -8 -3 -8 -7 0 -5 -18
-16 -40 -26 -22 -10 -40 -21 -40 -26 0 -5 -7 -6 -17 -3 -10 4 -14 2 -10 -4 4
-6 0 -16 -8 -23 -13 -11 -14 -10 -9 6 4 13 1 12 -12 -6 -11 -14 -26 -26 -34
-28 -24 -5 -50 -34 -43 -46 3 -6 3 -8 -2 -4 -4 4 -14 0 -22 -10 -9 -10 -12
-11 -7 -2 4 9 -2 7 -13 -5 -11 -11 -19 -23 -16 -27 2 -5 -2 -8 -10 -8 -8 0
-18 -7 -21 -16 -3 -8 -10 -13 -16 -9 -5 3 -12 -6 -16 -20 -3 -13 -10 -23 -14
-20 -4 3 -11 -2 -14 -11 -3 -8 -11 -12 -16 -9 -6 4 -10 3 -9 -2 4 -15 -13 -43
-22 -37 -5 3 -8 2 -7 -3 5 -13 -28 -53 -37 -45 -5 4 -5 2 -1 -5 4 -7 -2 -21
-12 -31 -10 -10 -16 -24 -14 -30 2 -7 -3 -12 -12 -12 -9 0 -15 -3 -14 -7 3
-13 -25 -63 -34 -63 -5 0 -7 -4 -4 -9 4 -5 0 -12 -6 -14 -10 -4 -10 -6 1 -6 8
-1 5 -9 -10 -22 -13 -11 -18 -17 -11 -14 11 6 11 3 0 -14 -7 -12 -16 -21 -20
-21 -4 0 -5 -7 -2 -15 4 -8 2 -15 -4 -15 -5 0 -9 -8 -8 -17 0 -10 -5 -17 -12
-15 -10 2 -11 -2 -3 -15 7 -13 6 -22 -5 -34 -8 -8 -15 -28 -16 -42 -1 -15 -7
-27 -13 -27 -5 0 -3 -5 5 -10 11 -7 11 -10 2 -10 -7 0 -10 -4 -7 -10 3 -5 1
-10 -4 -10 -6 0 -11 -5 -11 -11 0 -5 4 -7 10 -4 17 10 11 -7 -7 -22 -17 -14
-17 -14 2 -9 17 5 18 4 5 -6 -9 -7 -15 -20 -15 -28 0 -8 -4 -18 -10 -22 -6 -5
-5 -8 3 -8 9 0 10 -5 4 -16 -5 -9 -7 -25 -5 -34 3 -10 0 -21 -7 -25 -8 -5 -7
-11 2 -23 8 -10 9 -13 1 -9 -6 4 -15 3 -18 -3 -4 -6 -1 -9 6 -8 10 2 13 -13
14 -54 0 -31 -3 -54 -7 -52 -5 3 -8 0 -8 -5 0 -6 4 -11 9 -11 5 0 12 -7 15
-16 3 -8 2 -12 -4 -9 -6 3 -10 -3 -10 -15 0 -14 4 -19 13 -14 9 6 9 4 1 -7 -6
-8 -10 -23 -8 -34 2 -11 6 -42 8 -70 3 -27 9 -51 14 -53 4 -1 7 -16 6 -32 -1
-18 2 -27 8 -24 6 4 9 1 6 -7 -3 -8 1 -20 9 -27 7 -8 11 -18 7 -23 -3 -6 0
-17 8 -26 11 -14 11 -16 -2 -8 -13 8 -13 6 -2 -8 8 -9 10 -22 6 -28 -5 -8 -3
-9 6 -4 10 6 12 3 8 -13 -4 -13 -1 -20 5 -19 10 2 12 -2 16 -35 1 -9 4 -9 10
2 7 10 9 3 7 -22 -2 -29 0 -35 12 -30 9 3 13 1 9 -5 -4 -6 -2 -17 5 -25 7 -7
14 -20 16 -28 2 -8 17 -30 35 -48 17 -17 27 -32 23 -32 -5 0 -3 -6 3 -13 6 -8
8 -17 4 -20 -3 -4 1 -7 10 -7 10 0 17 -7 17 -16 0 -9 5 -12 12 -8 7 4 8 3 4
-5 -5 -7 5 -23 23 -40 17 -16 31 -34 31 -40 0 -10 14 -15 33 -12 5 1 5 -3 2
-10 -6 -9 26 -49 40 -49 3 0 22 -16 41 -35 19 -20 39 -33 44 -30 6 3 7 -1 4
-9 -4 -11 0 -14 16 -11 16 3 20 0 17 -10 -4 -8 5 -17 24 -24 20 -7 28 -15 23
-22 -5 -8 -3 -9 5 -4 7 4 23 -3 38 -16 15 -13 23 -17 19 -9 -4 8 -1 7 8 -4 8
-10 20 -15 27 -10 8 4 10 3 5 -4 -4 -7 -1 -12 9 -12 9 0 23 -7 32 -16 9 -8 22
-13 30 -10 7 3 16 -1 20 -10 3 -8 12 -13 19 -10 8 3 14 1 14 -3 0 -5 7 -12 16
-15 8 -3 12 -2 9 4 -3 5 1 7 9 4 8 -3 17 -11 19 -18 3 -7 19 -12 37 -11 18 1
34 -4 37 -11 2 -6 15 -11 29 -9 13 1 24 -2 24 -7 0 -5 5 -6 10 -3 6 4 18 1 27
-7 14 -11 16 -11 8 2 -8 13 -7 13 9 0 24 -19 49 -22 58 -7 5 8 8 8 8 1 0 -7
20 -12 48 -13 26 0 57 -3 69 -5 13 -3 25 0 28 5 4 5 12 6 18 2 17 -11 31 -10
39 2 5 6 8 3 8 -7 0 -11 5 -15 15 -12 8 4 12 11 9 18 -3 6 1 3 9 -7 13 -16 15
-16 21 -2 3 10 11 13 18 9 20 -13 80 -8 89 7 5 9 9 10 9 2 0 -13 25 -12 37 2
4 4 2 5 -6 0 -10 -6 -12 -4 -7 4 6 9 11 9 22 0 11 -9 14 -9 14 1 0 9 4 9 17
-1 9 -8 14 -9 10 -3 -4 7 0 14 7 17 8 3 17 1 19 -6 3 -8 10 -5 22 8 9 11 14
14 10 8 -9 -19 6 -16 22 4 8 11 11 12 7 3 -7 -13 -5 -13 9 -2 9 8 21 11 27 7
5 -3 13 1 16 10 5 12 10 13 20 4 11 -9 15 -8 20 5 3 9 10 13 15 10 5 -3 9 0 9
6 0 6 4 9 8 6 5 -3 20 1 35 9 15 8 27 11 27 7 0 -3 6 2 13 13 8 10 19 15 25
11 7 -4 12 -2 12 4 0 10 37 29 51 26 4 0 17 10 29 24 12 14 18 18 14 10 -7
-13 -6 -13 12 0 35 28 43 38 36 46 -4 5 1 2 11 -6 16 -11 18 -11 15 1 -2 8 4
13 14 13 10 -1 17 1 16 5 -2 18 3 34 9 28 3 -4 19 7 35 23 15 17 31 30 34 30
12 0 54 45 54 58 0 7 4 11 9 7 5 -3 12 4 16 15 3 11 11 20 16 20 5 0 9 7 9 16
0 8 4 13 9 9 5 -3 12 3 16 14 3 11 12 22 20 25 8 3 15 12 15 21 0 8 5 15 10
15 6 0 10 7 10 15 0 8 5 15 11 15 6 0 8 7 5 16 -5 14 -4 15 8 5 12 -10 13 -8
9 10 -5 17 -3 20 7 14 10 -6 12 -3 8 13 -4 14 -2 20 5 15 7 -4 8 0 4 11 -4 10
-3 15 3 11 6 -3 13 2 17 12 3 10 13 26 21 36 8 9 12 20 9 24 -4 3 -7 1 -7 -5
0 -7 -5 -12 -12 -12 -6 0 -1 11 12 25 13 14 20 25 15 25 -5 0 0 7 11 16 10 8
14 13 7 10 -8 -4 -6 4 3 24 9 16 13 34 9 39 -3 5 2 14 10 19 9 4 18 25 20 46
2 20 9 44 17 53 9 12 9 15 1 9 -7 -4 -13 -3 -13 3 0 5 4 11 9 13 5 2 11 20 14
42 3 21 10 42 17 46 8 5 7 9 -4 13 -9 4 -13 13 -10 22 3 8 9 13 13 10 5 -2 7
8 6 23 -1 15 -7 26 -14 24 -7 -1 -10 2 -6 8 3 6 11 8 16 5 5 -4 9 -1 9 4 0 6
-6 11 -12 11 -9 0 -10 2 -2 8 14 8 16 62 3 62 -5 0 -9 5 -9 11 0 5 5 7 10 4 6
-3 10 3 10 14 0 12 -6 21 -12 21 -9 0 -8 4 2 10 13 9 13 11 0 20 -8 5 -10 10
-5 10 14 0 12 49 -2 75 -6 11 -9 28 -8 38 2 9 -2 17 -8 17 -7 0 -5 5 3 10 13
9 13 10 0 10 -12 0 -12 2 -2 9 11 6 10 10 -3 15 -15 5 -15 9 -4 23 12 14 12
16 0 8 -11 -6 -13 -4 -8 8 4 10 2 17 -4 17 -6 0 -9 9 -6 20 3 10 0 21 -7 24
-7 3 -6 5 2 5 10 1 10 5 -2 17 -9 8 -14 20 -11 25 4 5 2 9 -3 9 -5 0 -9 7 -10
15 -1 8 -3 22 -4 30 -1 8 -5 15 -10 15 -4 0 -8 9 -8 20 0 11 -4 20 -10 20 -5
0 -7 7 -4 15 4 8 -1 17 -10 21 -9 3 -16 15 -16 26 0 10 -4 16 -10 13 -5 -3 -7
0 -4 8 3 8 -1 21 -9 28 -7 8 -15 18 -18 24 -2 5 -7 9 -11 8 -5 -2 -7 0 -7 5 3
20 -2 32 -13 26 -7 -5 -8 -3 -4 5 5 7 0 19 -10 27 -11 9 -13 13 -7 9 9 -4 11
-1 7 9 -3 9 -10 13 -16 10 -5 -3 -12 3 -15 15 -3 12 -9 21 -14 21 -5 0 -9 7
-9 16 0 8 -4 12 -10 9 -5 -3 -10 1 -10 10 0 9 -4 13 -10 10 -6 -3 -10 4 -10
16 0 12 -3 20 -6 16 -8 -8 -44 25 -38 35 3 4 -1 8 -8 8 -15 0 -49 35 -42 43 3
3 -7 7 -21 11 -14 4 -25 13 -25 21 0 8 -7 15 -15 15 -8 0 -15 5 -15 10 0 6 -6
10 -14 10 -7 0 -21 10 -30 23 -9 12 -14 15 -11 7 4 -8 -1 -6 -9 4 -9 11 -16
16 -16 12 0 -4 -7 0 -16 8 -8 9 -20 14 -25 10 -5 -3 -9 -2 -8 3 4 26 -1 35
-15 24 -11 -9 -15 -8 -20 4 -3 9 -10 14 -15 11 -5 -4 -11 -2 -13 3 -1 5 -10
11 -18 13 -8 2 -18 7 -21 11 -3 5 -15 10 -25 11 -10 2 -18 9 -17 14 2 7 -4 9
-13 5 -9 -3 -19 -1 -23 5 -4 7 -19 13 -34 14 -15 1 -27 6 -27 11 0 4 -4 5 -10
2 -5 -3 -10 -2 -10 2 0 9 -24 14 -73 17 -15 0 -25 6 -23 12 2 6 -2 11 -10 11
-7 0 -10 -5 -7 -11 4 -6 -1 -5 -10 2 -9 8 -45 15 -81 16 -36 1 -69 5 -72 9 -4
3 3 5 14 2 12 -2 24 -1 26 3 7 12 -88 9 -96 -2 -6 -8 -8 -8 -8 0 0 15 -90 15
-109 0 -11 -8 -13 -8 -7 2 4 7 2 12 -8 12 -8 0 -17 -6 -19 -12 -4 -10 -6 -10
-6 0 -1 6 -9 12 -18 12 -16 0 -16 -2 -3 -11 12 -9 11 -10 -5 -4 -41 14 -54 14
-49 0z m113 -62 c12 10 13 9 6 -3 -8 -13 -7 -13 8 -1 14 11 17 11 17 0 0 -11
2 -11 10 1 6 10 10 11 10 3 0 -7 5 -13 11 -13 5 0 8 4 5 8 -6 10 25 9 42 -2 7
-4 12 -2 12 6 0 9 3 10 8 2 4 -6 24 -11 45 -10 20 2 37 -2 37 -8 0 -6 4 -6 11
1 14 14 41 5 32 -11 -4 -8 -2 -8 7 1 14 13 43 6 34 -9 -4 -6 2 -5 14 1 14 7
23 8 27 1 4 -6 11 -8 16 -5 5 4 9 1 9 -5 0 -6 4 -9 8 -6 5 3 20 -1 35 -9 14
-7 28 -11 31 -8 3 3 17 -2 30 -11 14 -9 34 -16 46 -16 11 0 20 -5 20 -11 0 -5
4 -8 9 -4 5 3 16 -2 25 -10 8 -9 19 -17 23 -18 4 -1 7 -6 5 -11 -2 -5 4 -4 12
4 11 8 16 9 16 1 0 -6 7 -11 15 -11 8 0 15 -4 15 -10 0 -5 7 -10 16 -10 8 0
13 -4 10 -9 -4 -5 2 -7 12 -4 12 3 25 -4 36 -21 9 -14 23 -26 31 -26 8 0 15
-4 15 -10 0 -5 7 -10 15 -10 9 0 18 -7 21 -15 4 -8 10 -12 15 -9 5 3 9 -3 9
-12 0 -10 3 -15 6 -11 8 8 104 -90 104 -106 0 -7 4 -6 10 3 8 12 10 11 10 -7
0 -12 5 -25 12 -29 7 -5 8 -3 3 6 -5 9 -4 11 3 6 7 -4 12 -14 12 -22 0 -8 5
-14 10 -14 6 0 10 -6 10 -14 0 -8 7 -16 14 -19 8 -3 23 -24 34 -47 10 -22 21
-37 25 -34 4 4 7 -2 7 -14 0 -12 5 -22 10 -22 6 0 10 -7 10 -16 0 -9 5 -12 13
-8 9 5 9 4 0 -6 -9 -10 -7 -17 10 -32 12 -11 17 -17 10 -14 -8 5 -8 0 0 -19 7
-14 15 -25 20 -25 4 0 7 -11 7 -25 0 -14 3 -25 8 -25 4 0 13 -9 19 -20 9 -14
10 -21 1 -26 -7 -5 -8 -3 -3 6 5 9 4 11 -4 6 -8 -6 -9 -12 -2 -20 6 -7 7 -17
3 -21 -4 -5 -2 -6 3 -2 6 3 17 -3 24 -15 7 -11 8 -17 2 -13 -6 3 -11 1 -11 -4
0 -6 4 -11 8 -11 4 0 9 -19 11 -42 1 -23 6 -45 11 -48 9 -6 11 -17 10 -70 0
-39 6 -86 13 -97 5 -8 3 -13 -4 -13 -8 0 -7 -5 2 -17 10 -11 10 -14 2 -9 -16
9 -17 -6 -1 -22 9 -9 9 -12 -1 -12 -11 0 -11 -3 -1 -15 7 -8 8 -15 3 -15 -5 0
-9 -27 -7 -60 1 -33 -2 -60 -6 -60 -5 0 -6 -9 -3 -21 4 -12 0 -25 -8 -30 -12
-8 -12 -11 1 -19 13 -8 12 -10 -4 -10 -15 0 -16 -3 -6 -15 10 -12 10 -15 0
-15 -7 0 -10 -6 -7 -14 3 -7 0 -19 -6 -26 -9 -10 -9 -11 3 -6 12 6 12 5 -1 -6
-9 -7 -14 -18 -12 -25 2 -6 0 -14 -6 -17 -6 -4 -7 -14 -4 -23 4 -11 3 -14 -5
-9 -8 5 -10 2 -6 -8 4 -10 1 -16 -7 -16 -11 0 -11 -3 1 -10 12 -8 12 -10 -5
-10 -15 0 -17 -3 -7 -9 11 -6 10 -10 -3 -15 -10 -3 -15 -12 -11 -21 3 -8 1
-15 -5 -15 -6 0 -7 -4 -4 -10 3 -5 1 -10 -4 -10 -6 0 -10 -3 -9 -7 3 -15 -14
-43 -23 -37 -5 3 -6 -2 -3 -10 4 -10 1 -16 -7 -16 -12 0 -12 -2 -1 -9 10 -6 8
-10 -10 -15 -12 -4 -18 -10 -11 -12 8 -4 7 -10 -5 -23 -9 -10 -20 -16 -23 -15
-3 2 -6 -3 -7 -11 -1 -8 -3 -22 -4 -30 -1 -8 -5 -12 -10 -9 -4 3 -8 0 -8 -6 0
-6 -4 -9 -9 -6 -11 7 -23 -22 -14 -36 3 -6 2 -8 -4 -5 -6 4 -19 -1 -29 -9 -10
-9 -13 -13 -6 -9 6 3 12 1 12 -4 0 -6 -6 -11 -14 -11 -8 0 -17 -7 -20 -16 -3
-8 -10 -13 -15 -9 -6 3 -8 -3 -6 -14 2 -12 -1 -18 -8 -15 -7 2 -27 -14 -46
-36 -19 -22 -40 -40 -47 -40 -8 0 -14 -7 -14 -15 0 -8 -3 -14 -7 -13 -16 3
-43 -15 -36 -25 3 -6 1 -7 -5 -3 -6 4 -20 -2 -31 -13 -11 -11 -22 -17 -25 -14
-3 4 -6 1 -6 -6 0 -7 -4 -9 -10 -6 -5 3 -10 1 -10 -5 0 -6 -4 -9 -9 -6 -5 3
-12 -1 -15 -10 -3 -8 -10 -12 -16 -9 -5 3 -10 1 -10 -4 0 -6 -9 -11 -20 -11
-11 0 -20 -5 -20 -12 0 -6 -3 -8 -7 -5 -3 4 -12 -1 -20 -11 -8 -9 -12 -12 -9
-5 5 8 0 8 -19 0 -14 -7 -25 -15 -25 -19 0 -4 -7 -5 -15 -2 -8 4 -15 2 -15 -4
0 -5 -10 -9 -22 -8 -13 0 -22 -4 -21 -10 1 -7 -10 -10 -27 -8 -17 2 -30 -1
-30 -6 0 -6 -7 -10 -16 -10 -9 0 -13 5 -9 12 4 7 -2 3 -12 -10 -15 -18 -21
-20 -31 -10 -9 9 -12 9 -12 0 0 -8 -10 -11 -25 -8 -15 3 -25 0 -26 -7 0 -9 -2
-9 -5 0 -3 7 -12 9 -20 6 -7 -3 -12 -8 -10 -12 3 -4 -4 -7 -15 -7 -10 0 -19 4
-19 8 0 4 -5 8 -11 8 -5 0 -7 -6 -3 -12 5 -10 4 -10 -6 -1 -11 10 -17 10 -30
-2 -15 -14 -19 -14 -29 -1 -11 13 -18 13 -51 1 -34 -12 -38 -12 -33 1 4 12 0
13 -21 4 -18 -7 -26 -6 -26 1 0 8 -5 7 -15 -1 -10 -9 -15 -9 -15 -1 0 15 -30
14 -31 -1 0 -7 -4 -4 -9 7 -5 11 -9 14 -9 6 -1 -9 -5 -10 -13 -5 -7 5 -25 9
-40 8 -16 0 -28 3 -28 8 0 5 -9 4 -19 -2 -14 -7 -22 -7 -27 2 -5 7 -3 8 6 3 9
-6 11 -4 6 4 -5 7 -15 10 -23 7 -9 -4 -22 -1 -29 5 -8 6 -14 8 -14 4 0 -4 -8
-1 -17 6 -14 12 -16 12 -9 -1 4 -8 0 -6 -8 4 -12 15 -16 16 -16 5 -1 -11 -3
-10 -10 3 -7 10 -17 14 -32 10 -12 -3 -19 -1 -15 4 3 5 -6 14 -19 21 -13 6
-21 7 -18 2 3 -5 -6 -4 -20 3 -14 6 -26 15 -26 20 0 4 -9 8 -20 8 -11 0 -20 5
-20 10 0 6 -7 10 -16 10 -9 0 -24 10 -35 23 -10 12 -18 16 -19 9 0 -8 -9 -4
-25 10 -42 39 -53 47 -59 41 -3 -4 -6 -1 -6 6 0 7 -5 9 -12 5 -7 -4 -8 -3 -4
4 4 8 -3 16 -18 22 -14 5 -26 14 -26 20 0 6 -5 8 -12 4 -7 -4 -8 -3 -4 4 4 7
-3 17 -18 23 -14 7 -23 16 -20 20 3 5 -3 9 -12 9 -10 0 -14 3 -11 7 4 3 -5 16
-18 29 -14 13 -25 28 -25 34 0 6 -4 8 -10 5 -5 -3 -10 1 -10 10 0 9 -4 14 -9
11 -5 -3 -14 8 -20 24 -5 17 -14 30 -19 30 -5 0 -12 9 -15 21 -4 13 -10 18
-18 13 -8 -5 -10 -3 -4 6 5 8 -1 19 -16 31 -16 12 -19 19 -9 19 9 0 6 6 -9 16
-14 10 -21 23 -18 35 3 10 0 17 -6 16 -6 -1 -12 4 -13 11 -1 6 -3 15 -4 20 -1
4 -2 10 -1 15 0 4 -4 7 -10 7 -5 0 -7 5 -4 10 3 6 1 10 -5 10 -6 0 -8 5 -5 10
3 6 1 10 -5 10 -7 0 -9 8 -5 20 4 13 2 20 -5 18 -7 -2 -15 3 -18 11 -3 9 0 11
9 6 8 -5 5 1 -5 13 -15 17 -16 22 -5 23 10 0 11 2 1 6 -6 2 -10 9 -6 14 3 5 1
9 -4 9 -6 0 -13 7 -16 16 -3 8 -2 12 3 9 5 -3 13 0 17 6 4 8 3 9 -4 5 -7 -4
-12 -2 -12 4 0 6 -5 8 -13 4 -8 -5 -8 -2 2 9 11 13 11 17 1 17 -8 0 -11 3 -8
6 4 3 2 19 -2 35 -5 18 -5 29 1 29 6 0 7 5 4 10 -4 6 -12 7 -18 3 -7 -4 -6 0
2 10 9 11 10 17 2 17 -6 0 -11 5 -11 11 0 5 6 7 13 3 8 -5 7 -2 -2 10 -10 12
-11 20 -3 28 12 12 4 41 -9 32 -5 -3 -9 0 -9 5 0 6 6 11 13 11 8 0 7 4 -3 10
-11 7 -11 10 -2 10 10 0 10 5 2 20 -8 15 -8 20 1 20 8 0 8 4 -1 15 -10 12 -10
15 1 15 11 0 11 2 -1 10 -12 8 -12 10 -1 10 11 0 11 3 1 15 -7 8 -8 15 -2 15
5 0 12 9 15 21 4 17 3 18 -9 8 -12 -10 -13 -9 -8 5 3 9 9 16 13 16 4 0 8 7 8
15 0 12 -3 12 -16 3 -12 -9 -11 -7 2 8 9 11 14 24 10 27 -3 4 -2 7 3 7 5 0 9
21 10 48 0 31 4 46 12 45 15 -4 15 10 0 25 -9 9 -9 12 1 12 7 0 9 5 6 10 -3 6
-2 10 4 10 5 0 8 8 7 17 -2 10 3 24 11 32 8 7 12 20 9 27 -3 8 -1 14 5 14 6 0
7 5 4 10 -3 6 0 10 7 10 9 0 9 3 -2 10 -10 6 -11 10 -2 10 6 0 12 5 12 11 0 6
7 17 15 26 9 8 19 28 22 44 3 16 10 29 15 29 5 0 6 5 3 10 -3 6 -1 10 4 10 6
0 10 6 8 13 -1 6 3 11 10 10 8 -2 10 4 6 14 -4 10 -2 14 5 9 6 -4 12 3 14 16
2 13 9 22 16 20 8 -1 11 2 7 8 -6 10 -2 16 50 75 50 57 54 63 49 68 -3 3 0 8
7 13 8 4 10 3 5 -4 -4 -7 -3 -12 2 -12 5 0 14 11 20 25 6 14 19 25 28 25 10 0
14 3 11 7 -4 3 7 15 24 25 17 11 27 23 23 30 -4 7 -3 8 4 4 7 -4 12 -2 12 4 0
6 4 9 8 6 5 -3 14 4 22 14 8 10 18 16 24 13 5 -4 7 0 3 9 -4 11 0 15 11 13 9
-1 25 7 35 19 10 11 16 14 12 6 -5 -11 -2 -10 7 2 8 9 21 18 29 20 7 2 20 10
27 18 8 8 11 9 7 3 -4 -9 -1 -11 9 -7 9 3 14 10 11 14 -3 5 -1 11 5 15 5 3 10
0 10 -7 0 -10 2 -10 9 0 4 8 12 14 17 14 5 0 8 3 7 8 -1 4 6 7 15 7 39 0 53 3
48 11 -3 5 0 9 7 10 24 2 47 8 53 14 3 4 13 4 22 1 11 -5 13 -3 7 7 -6 10 -4
12 8 7 10 -4 17 -1 17 5 0 6 3 8 7 5 3 -4 13 -1 21 6 13 9 14 9 8 0 -4 -7 -3
-13 3 -13 5 0 13 5 16 10 9 15 27 12 19 -2 -4 -7 2 -5 13 5 13 12 40 18 81 20
34 1 64 6 68 10 4 4 12 3 18 -3 6 -6 15 -5 25 3z m1328 -1078 c0 -8 -4 -12 -9
-9 -5 3 -6 10 -3 15 9 13 12 11 12 -6z m-1497 -1389 c0 -3 -4 -8 -10 -11 -5
-3 -10 -1 -10 4 0 6 5 11 10 11 6 0 10 -2 10 -4z"/>
<path d="M1165 2450 c-4 -6 -11 -7 -17 -4 -7 4 -8 2 -4 -4 5 -8 -3 -11 -23 -8
-17 2 -31 -1 -31 -7 0 -5 -8 -3 -17 4 -9 8 -14 9 -10 3 4 -7 -2 -14 -13 -17
-11 -3 -18 -2 -15 2 2 4 -2 8 -10 8 -8 0 -12 -4 -9 -9 5 -8 -10 -12 -30 -9 -4
1 -14 -3 -20 -9 -7 -5 -16 -7 -19 -3 -4 3 -7 2 -7 -4 0 -6 -8 -10 -17 -9 -11
0 -17 -5 -15 -13 3 -12 0 -12 -12 -1 -10 7 -16 8 -16 2 0 -6 -9 -9 -20 -7 -12
2 -20 -2 -20 -10 0 -8 -8 -12 -20 -10 -11 2 -19 -1 -17 -8 1 -7 -6 -11 -15 -9
-10 2 -18 -2 -18 -9 0 -6 -7 -9 -15 -5 -14 5 -20 -5 -16 -27 1 -5 -3 -6 -9 -2
-5 3 -10 0 -10 -7 0 -10 -2 -10 -8 -1 -8 12 -32 3 -35 -13 -1 -5 -8 -7 -16 -6
-7 2 -10 -1 -6 -7 3 -6 1 -11 -5 -11 -7 0 -19 -8 -28 -18 -10 -11 -13 -12 -8
-2 5 8 -11 -6 -37 -31 -25 -26 -48 -44 -52 -41 -3 3 -8 -3 -11 -15 -4 -15 -11
-20 -22 -16 -9 4 -13 2 -9 -3 3 -6 -3 -16 -13 -24 -10 -8 -17 -17 -14 -22 3
-4 -2 -8 -11 -8 -11 0 -15 -5 -12 -14 4 -10 1 -13 -9 -9 -8 3 -14 2 -12 -3 2
-5 -7 -19 -20 -32 -12 -12 -20 -27 -17 -31 2 -5 -2 -12 -11 -15 -9 -4 -14 -13
-10 -22 3 -9 2 -12 -5 -9 -6 4 -13 -2 -16 -14 -3 -12 -9 -21 -13 -21 -5 0 -11
-13 -15 -30 -4 -16 -11 -30 -17 -30 -6 0 -7 -7 -4 -16 3 -8 2 -13 -3 -10 -7 5
-25 -35 -18 -41 1 -1 -7 -9 -18 -18 -11 -9 -13 -13 -5 -9 13 7 13 5 2 -8 -10
-13 -10 -17 0 -21 8 -3 6 -6 -6 -6 -16 -1 -17 -3 -5 -18 8 -9 9 -14 3 -10 -7
4 -18 -1 -25 -10 -10 -12 -10 -14 -1 -9 6 4 12 2 12 -3 0 -6 -4 -11 -9 -11 -6
0 -8 -9 -6 -20 2 -11 -1 -22 -6 -26 -6 -4 -6 -10 1 -19 8 -10 8 -15 -1 -21 -8
-4 -9 -3 -5 4 4 7 3 12 -2 12 -5 0 -12 -11 -14 -25 -5 -22 -3 -24 11 -13 13
10 13 9 -1 -8 -10 -11 -16 -30 -13 -42 2 -12 1 -22 -3 -22 -4 0 -6 -21 -5 -47
1 -28 -3 -51 -10 -55 -9 -6 -8 -8 2 -8 11 0 11 -3 0 -17 -10 -11 -10 -14 -1
-9 6 4 12 2 12 -3 0 -6 -6 -11 -12 -11 -10 0 -9 -3 1 -9 9 -6 10 -10 2 -16 -9
-5 -9 -10 0 -21 9 -11 8 -14 -2 -14 -9 0 -10 -3 -3 -8 6 -4 11 -24 12 -46 1
-21 7 -45 14 -54 10 -12 10 -14 1 -8 -17 10 -17 -16 0 -33 8 -10 8 -12 0 -7
-14 8 -9 -29 7 -48 5 -7 7 -16 3 -19 -3 -4 -1 -7 6 -7 7 0 9 -5 6 -10 -4 -6
-1 -17 5 -25 6 -8 9 -19 5 -25 -3 -5 -2 -10 2 -10 8 0 12 -15 15 -57 1 -7 5
-10 10 -7 4 3 8 2 9 -3 0 -4 3 -17 5 -28 3 -11 6 -26 6 -33 1 -7 7 -11 14 -8
8 3 11 -2 9 -14 -2 -10 5 -27 16 -39 22 -23 25 -36 7 -25 -7 4 -5 -2 6 -14 10
-12 23 -19 28 -16 6 4 7 -2 3 -15 -4 -15 -2 -21 8 -21 17 0 30 -27 20 -43 -3
-7 -3 -9 2 -5 9 8 35 -16 35 -32 0 -7 7 -10 15 -6 8 3 14 2 14 -2 -4 -22 2
-42 10 -37 5 3 12 -3 16 -14 3 -11 13 -25 23 -33 16 -12 16 -11 2 7 -14 18
-14 19 2 7 10 -8 20 -22 23 -33 4 -11 11 -17 16 -14 5 4 9 1 9 -5 0 -6 11 -15
25 -22 13 -6 22 -16 18 -21 -4 -6 0 -8 10 -4 10 4 16 2 14 -6 -1 -7 4 -11 11
-9 6 1 12 -3 12 -8 0 -6 12 -15 26 -20 15 -6 22 -14 18 -22 -4 -6 -3 -8 4 -4
6 3 14 1 17 -5 4 -5 14 -8 23 -4 9 3 13 3 9 -1 -10 -10 31 -36 45 -28 7 4 8 3
4 -4 -6 -11 6 -16 27 -13 4 0 7 -3 7 -9 0 -5 9 -10 20 -10 11 0 20 -5 20 -11
0 -6 9 -9 20 -6 11 3 18 2 15 -2 -2 -5 7 -13 21 -20 20 -9 24 -9 18 1 -6 10
-5 10 7 1 9 -7 25 -11 37 -8 16 3 20 -1 17 -17 -4 -16 -2 -19 7 -10 8 8 15 8
24 1 8 -7 14 -7 19 1 4 7 15 3 32 -10 20 -15 29 -17 39 -9 8 7 14 7 14 2 0 -6
18 -9 40 -8 22 1 37 -2 34 -6 -3 -5 6 -5 20 1 16 6 27 6 31 -1 4 -5 10 -7 14
-5 10 7 70 8 104 3 15 -2 27 -1 27 3 0 5 19 6 42 3 29 -4 39 -3 34 5 -5 8 -2
10 8 6 9 -3 13 -11 9 -17 -3 -6 -1 -7 6 -3 6 4 8 12 5 18 -5 7 -1 9 9 5 10 -3
17 -3 17 1 0 5 14 7 30 6 17 -1 30 1 30 4 0 4 12 8 26 9 15 0 30 6 34 13 6 9
9 9 13 -1 4 -11 6 -11 6 -1 1 7 6 10 11 7 6 -3 10 -1 10 4 0 6 5 11 11 11 5 0
7 -6 4 -13 -4 -6 2 -2 14 11 12 14 22 18 26 12 5 -8 11 -8 19 -1 7 6 16 7 20
3 4 -4 6 -2 4 3 -1 6 1 11 6 12 5 1 13 7 17 15 7 11 9 10 9 -1 0 -11 4 -9 15
5 8 10 15 15 15 10 0 -6 7 -1 15 10 8 10 15 15 15 9 0 -5 4 -4 9 3 7 12 25 18
54 21 5 1 5 6 2 12 -4 6 2 13 14 16 12 3 21 10 21 15 0 6 7 8 15 4 8 -3 14 -1
12 4 -1 6 9 16 23 23 14 7 24 20 24 29 -1 10 4 14 12 11 7 -2 19 5 26 16 7 12
19 21 26 21 7 0 11 4 8 9 -3 5 1 12 10 15 8 3 12 11 9 16 -4 6 -2 9 4 8 5 -2
17 6 26 17 9 11 13 14 9 6 -4 -9 -3 -12 4 -7 6 4 8 14 5 23 -4 11 -3 14 5 9
11 -6 17 5 13 27 -1 7 15 11 32 8 4 0 6 2 6 6 -3 20 2 34 11 28 6 -3 7 1 4 9
-3 9 -2 16 3 16 4 0 14 9 21 21 11 17 11 20 0 14 -7 -3 -4 1 7 10 11 9 19 21
17 26 -1 5 2 9 8 9 6 0 9 3 9 8 -3 19 2 33 10 28 5 -3 12 1 15 10 4 10 2 13
-7 8 -6 -4 -3 3 8 16 13 15 15 21 5 16 -13 -7 -13 -6 0 6 8 7 16 18 17 23 4
25 8 40 13 45 11 11 30 61 20 55 -6 -3 -7 1 -4 9 3 9 10 16 14 16 4 0 6 11 5
25 -2 14 1 25 5 25 5 0 7 9 5 20 -2 11 0 22 5 25 5 3 7 12 3 20 -3 9 1 23 8
32 10 12 10 15 2 9 -7 -4 -13 -2 -13 3 0 6 5 11 10 11 6 0 10 5 10 11 0 5 -5
7 -12 3 -6 -4 -4 3 5 16 12 18 14 27 5 37 -6 7 -7 13 -2 13 5 0 9 14 9 30 1
17 -2 30 -6 30 -3 0 -3 18 1 40 5 25 3 43 -3 47 -6 4 -7 1 -2 -7 5 -9 4 -11
-3 -6 -17 10 -15 26 3 26 8 0 15 5 15 11 0 5 -4 8 -9 4 -5 -3 -12 -1 -15 4 -4
5 -2 12 4 16 6 4 3 16 -8 33 -9 14 -11 23 -4 19 6 -5 12 -4 12 2 0 6 -4 11 -8
11 -5 0 -9 7 -9 15 0 8 5 15 11 15 6 0 5 4 -3 9 -8 5 -11 16 -8 25 4 9 2 16
-4 16 -6 0 -9 7 -5 15 3 8 0 18 -7 22 -7 5 -12 14 -13 21 -3 37 -5 43 -12 38
-5 -3 -8 5 -7 17 1 12 -5 31 -14 41 -13 16 -13 18 -1 12 8 -4 7 -1 -4 8 -10 8
-15 19 -12 25 4 5 2 12 -4 16 -6 4 -8 11 -4 16 3 5 0 8 -7 7 -7 -2 -13 3 -14
10 0 7 -7 17 -15 22 -8 5 -11 10 -6 10 5 0 2 8 -5 17 -12 15 -12 16 1 8 8 -5
3 4 -12 20 -16 15 -28 33 -28 39 0 6 -9 18 -19 26 -11 7 -18 17 -15 22 3 4 -3
8 -13 8 -11 0 -14 3 -7 8 9 5 8 10 -1 19 -11 10 -15 10 -18 0 -3 -7 -6 -4 -6
5 -1 20 -73 98 -90 98 -6 0 -11 7 -11 15 0 8 -5 15 -11 15 -5 0 -7 5 -3 12 5
7 3 8 -6 3 -8 -5 -21 3 -37 21 -13 16 -22 22 -18 14 3 -8 -2 -5 -11 8 -9 12
-23 22 -30 22 -8 0 -14 5 -14 11 0 6 -7 8 -16 5 -8 -3 -13 -2 -10 3 6 9 -22
26 -36 23 -5 -1 -8 2 -8 8 0 5 -7 10 -15 10 -9 0 -18 6 -21 14 -3 8 -16 13
-29 11 -14 -1 -22 1 -20 5 7 11 -24 22 -37 13 -7 -3 -8 -1 -4 5 5 8 -2 12 -19
12 -15 0 -24 4 -20 10 4 6 -6 10 -22 11 -52 2 -58 4 -56 15 1 8 -6 10 -19 6
-16 -4 -19 -2 -13 9 8 12 6 12 -8 0 -11 -9 -17 -10 -17 -2 0 6 -5 11 -11 11
-5 0 -7 -6 -3 -12 4 -7 -2 -5 -13 5 -16 14 -22 15 -26 5 -3 -8 -6 -9 -6 -1 -1
6 -10 9 -21 6 -13 -3 -20 0 -20 8 0 11 -2 11 -10 -1 -5 -8 -10 -10 -10 -4 0 5
-21 11 -46 13 -35 1 -44 -1 -39 -11 3 -7 0 -5 -8 5 -10 12 -17 14 -22 7 -3 -5
-11 -7 -17 -4 -16 10 -88 11 -88 2 0 -5 5 -6 12 -2 7 4 8 3 4 -4 -5 -9 -12 -9
-26 0 -14 9 -22 9 -36 -3 -16 -12 -17 -12 -11 4 7 19 2 23 -8 7z"/>
<path d="M3 1325 c0 -8 4 -12 9 -9 5 3 6 10 3 15 -9 13 -12 11 -12 -6z"/>
<path d="M216 605 c4 -8 11 -15 16 -15 6 0 5 6 -2 15 -7 8 -14 15 -16 15 -2 0
-1 -7 2 -15z"/>
</g>
</svg>
