<?xml version="1.0" standalone="no"?>
<!DOCTYPE svg PUBLIC "-//W3C//DTD SVG 20010904//EN"
 "http://www.w3.org/TR/2001/REC-SVG-20010904/DTD/svg10.dtd">
<svg version="1.0" xmlns="http://www.w3.org/2000/svg"
 width="260.000000pt" height="260.000000pt" viewBox="0 0 260.000000 260.000000"
 preserveAspectRatio="xMidYMid meet">
<metadata>
Created by potrace 1.11, written by Peter Selinger 2001-2013
</metadata>
<g transform="translate(0.000000,260.000000) scale(0.100000,-0.100000)"
fill="#000000" stroke="none">
<path d="M1075 2584 c-38 -8 -80 -16 -91 -18 -12 -2 -64 -19 -115 -36 -354
-122 -649 -407 -784 -757 -19 -51 -42 -121 -50 -155 -8 -35 -17 -76 -21 -93
-4 -16 -8 -106 -10 -200 -3 -180 8 -265 56 -417 82 -264 276 -523 507 -677
117 -78 299 -160 413 -186 3 -1 23 -5 45 -10 22 -4 49 -10 60 -13 11 -3 97 -6
190 -8 179 -3 267 9 416 55 393 123 721 455 844 855 38 124 52 213 54 360 5
275 -63 508 -214 737 -205 310 -538 520 -900 569 -105 14 -312 11 -400 -6z
m400 -44 c28 -5 65 -12 82 -15 57 -9 196 -56 271 -92 182 -86 391 -264 496
-422 291 -438 292 -977 2 -1406 -180 -267 -484 -467 -796 -525 -98 -18 -116
-20 -240 -21 -525 -2 -1000 339 -1175 843 -23 66 -49 175 -60 253 -7 48 -8
281 -2 292 3 5 8 31 11 58 8 60 28 140 54 215 130 373 449 674 832 784 99 28
128 33 225 42 39 4 71 7 72 8 7 5 188 -6 228 -14z"/>
<path d="M1267 2464 c-1 -1 -36 -4 -77 -8 -533 -42 -974 -468 -1045 -1011 -8
-58 -8 -236 -1 -274 3 -14 8 -44 11 -66 20 -143 113 -358 213 -491 33 -45 65
-85 71 -88 8 -5 11 145 11 529 l0 535 38 -19 c36 -18 207 -81 221 -81 3 0 6
89 5 198 0 108 1 200 3 204 2 5 16 2 31 -6 38 -19 209 -76 230 -76 16 0 17 16
16 188 -1 103 1 190 3 194 2 5 21 -1 42 -11 141 -73 365 -73 513 -1 21 10 39
15 41 12 2 -4 3 -91 3 -194 -1 -161 1 -188 14 -188 20 0 164 47 215 70 22 10
42 16 45 15 3 -2 5 -94 5 -204 0 -111 3 -201 6 -201 14 0 185 63 222 81 l37
19 0 -87 c1 -49 1 -290 1 -537 0 -513 -9 -479 91 -338 107 148 173 304 203
477 15 89 20 269 10 353 -13 97 -58 241 -108 346 -177 366 -529 615 -922 651
-75 7 -145 11 -148 9z"/>
<path d="M1084 1926 l0 -137 25 -7 c34 -9 338 -9 372 0 l25 7 0 136 c0 153 8
142 -91 121 -57 -12 -192 -13 -245 -1 -14 3 -39 8 -55 11 l-30 6 -1 -136z"/>
<path d="M805 1616 l0 -151 50 -12 c28 -7 70 -16 95 -19 l45 -6 0 141 0 142
-55 15 c-30 9 -73 21 -95 28 l-41 13 1 -151z"/>
<path d="M1760 1760 c-8 -4 -44 -16 -80 -25 -36 -9 -70 -21 -75 -25 -6 -5 -10
-64 -10 -142 l0 -133 25 -3 c14 -1 57 6 95 15 l70 18 0 148 c0 82 -2 150 -5
152 -3 2 -12 0 -20 -5z"/>
<path d="M1084 1554 l0 -142 40 -5 c61 -6 359 -2 371 5 7 4 11 60 10 145 0
118 -2 137 -15 134 -28 -7 -305 -9 -355 -2 l-51 7 0 -142z"/>
<path d="M539 1429 c-1 -33 -1 -971 0 -986 1 -17 36 -48 112 -99 128 -85 285
-151 416 -173 35 -6 75 -14 90 -16 71 -13 282 -3 388 19 151 31 355 129 484
234 l23 19 0 507 c0 279 -2 509 -4 511 -4 5 -158 -44 -168 -52 -3 -3 -5 -208
-5 -456 l0 -452 -45 -3 -45 -3 0 441 c0 243 -2 443 -5 445 -3 1 -45 -5 -95
-14 l-90 -17 0 -382 0 -382 -45 0 -45 0 0 372 1 373 -211 0 -211 0 0 -370 0
-370 -44 -3 -45 -3 0 381 c0 329 -2 381 -15 385 -8 2 -40 8 -70 14 -31 5 -67
12 -80 16 l-25 6 0 -446 0 -446 -45 3 -45 3 -1 440 c-1 242 -2 447 -3 456 -1
10 -26 23 -73 38 -40 13 -79 26 -85 28 -8 3 -13 -4 -14 -18z"/>
</g>
</svg>
