<?xml version="1.0" standalone="no"?>
<!DOCTYPE svg PUBLIC "-//W3C//DTD SVG 1.1//EN" "http://www.w3.org/Graphics/SVG/1.1/DTD/svg11.dtd" >
<svg xmlns="http://www.w3.org/2000/svg" xmlns:xlink="http://www.w3.org/1999/xlink" version="1.1">
<metadata>
Created by FontForge 20170731 at Thu Nov 26 09:25:31 2020
 By Aleksey,,,
</metadata>
<defs>
<font id="NotoSerifJP-Bold-Alphabetic" horiz-adv-x="2048" vert-adv-y="2048" >
  <font-face 
    font-family="NotoSerifJP-Bold-Alphabetic"
    font-weight="700"
    font-stretch="normal"
    units-per-em="2048"
    panose-1="2 0 8 3 0 0 0 0 0 0"
    ascent="1638"
    descent="-410"
    bbox="4 -541 2075 1722"
    underline-thickness="102"
    underline-position="-307"
    unicode-range="U+FF21-FF5A"
  />
<missing-glyph horiz-adv-x="748" 
d="M68 0v1365h544v-1365h-544zM136 68h408v1229h-408v-1229z" />
    <glyph glyph-name=".notdef" horiz-adv-x="748" 
d="M68 0v1365h544v-1365h-544zM136 68h408v1229h-408v-1229z" />
    <glyph glyph-name=".null" horiz-adv-x="0" vert-adv-y="0" 
 />
    <glyph glyph-name="nonmarkingreturn" horiz-adv-x="682" 
 />
    <glyph glyph-name="uniEA48" unicode="&#xff21;" 
d="M670 573h512l-262 730zM1667 90l199 -14v-76h-715v76l205 16l-144 395h-571l-133 -391l217 -20v-76h-526v76l209 18l516 1442h202z" />
    <glyph glyph-name="uniEA49" unicode="&#xff22;" 
d="M860 80h223q178 0 279.5 96t101.5 252q0 170 -96 252t-299 82h-213q0 -461 4 -682zM1057 1456h-197q-4 -201 -4 -610h193q167 0 255.5 83.5t88.5 231.5q0 62 -17.5 113t-55.5 93t-105 65.5t-158 23.5zM352 1536h785q538 0 538 -356q0 -66 -18.5 -118.5t-62 -101t-124 -84
t-196.5 -55.5q265 -25 378 -125.5t113 -271.5q0 -66 -18.5 -124t-67 -114.5t-123.5 -96.5t-196.5 -64.5t-278.5 -24.5h-729v76l207 14q2 209 2 631v88q0 426 -2 637l-207 14v76z" />
    <glyph glyph-name="uniEA4A" unicode="&#xff23;" 
d="M1692 469l2 -365q-234 -141 -504 -141q-146 0 -276.5 31.5t-240.5 97.5t-190 160.5t-125 226.5t-45 289q0 190 64.5 343t181 253.5t278 154.5t355.5 54q144 0 255.5 -30t223.5 -93l-2 -381h-121l-94 373q-106 49 -250 49q-262 0 -419.5 -188.5t-157.5 -534.5
t159.5 -533.5t419.5 -187.5q148 0 271 57l94 365h121z" />
    <glyph glyph-name="uniEA4B" unicode="&#xff24;" 
d="M819 80h109q536 0 536 688q0 356 -133 522t-391 166h-121q-2 -209 -2 -639v-96q0 -430 2 -641zM311 1536h684q361 0 572 -202t211 -562q0 -359 -216 -565.5t-585 -206.5h-666v76l207 14q4 207 4 631v96q0 420 -4 629l-207 14v76z" />
    <glyph glyph-name="uniEA4C" unicode="&#xff25;" 
d="M1567 391h135l-19 -391h-1296v76l197 14q6 207 6 631v96q0 420 -6 629l-197 14v76h1255l13 -391h-137l-76 311h-553q-4 -203 -4 -627h440l39 203h100v-487h-100l-37 200h-442q0 -454 4 -665h602z" />
    <glyph glyph-name="uniEA4D" unicode="&#xff26;" 
d="M1470 1456h-567q-4 -201 -4 -627h434l39 203h101v-502h-101l-39 215h-434q0 -448 4 -653l219 -16v-76h-721v76l197 14q6 207 6 631v96q0 420 -6 629l-197 14v76h1268l19 -391h-142z" />
    <glyph glyph-name="uniEA4E" unicode="&#xff27;" 
d="M1847 774v-74l-166 -16q-4 -294 -4 -481v-105q-127 -75 -256.5 -105t-298.5 -30q-243 0 -427.5 95.5t-288 279t-103.5 432.5q0 370 226.5 586.5t615.5 216.5q288 0 493 -117l-4 -364h-121l-90 354q-106 45 -243 45q-163 0 -289 -83.5t-199.5 -248.5t-73.5 -389
q0 -169 41.5 -306.5t115 -228.5t174.5 -139.5t220 -48.5q122 0 220 35v131q0 196 -7 469l-233 18v74h698z" />
    <glyph glyph-name="uniEA4F" unicode="&#xff28;" 
d="M1882 1460l-207 -14q-2 -205 -2 -629v-96q0 -422 2 -631l207 -14v-76h-715v76l207 14q4 207 4 658h-708q0 -451 6 -658l205 -14v-76h-715v76l207 14q2 207 2 631v96q0 420 -2 629l-207 14v76h715v-76l-205 -14q-6 -199 -6 -610h708q0 407 -4 610l-207 14v76h715v-76z" />
    <glyph glyph-name="uniEA50" unicode="&#xff29;" 
d="M1372 1460l-196 -14q-5 -256 -5 -629v-96q0 -370 5 -631l196 -14v-76h-696v76l196 14q5 259 5 631v96q0 368 -5 629l-196 14v76h696v-76z" />
    <glyph glyph-name="uniEA51" unicode="&#xff2a;" 
d="M1663 1536v-76l-227 -16q-2 -199 -2 -615v-176q0 -153 -27 -288q-14 -83 -56 -154t-112 -127.5t-177.5 -88.5t-240.5 -32q-222 0 -345.5 90.5t-143.5 263.5q14 43 47 66t70 23q60 0 94 -34t51 -120l47 -189q49 -16 121 -16q179 0 278 112t99 314q0 314 -6 971l-275 16v76
h805z" />
    <glyph glyph-name="uniEA52" unicode="&#xff2b;" 
d="M1704 88l180 -12v-76h-690v76l176 12l-391 711l-215 -232q0 -299 4 -477l178 -14v-76h-686v76l207 14q4 207 4 631v96q0 420 -4 629l-207 14v76h686v-76l-178 -14q-4 -205 -4 -629v-137l696 762l-207 18v76h543v-76l-221 -20l-406 -436z" />
    <glyph glyph-name="uniEA53" unicode="&#xff2c;" 
d="M1616 453h119l-23 -453h-1331v76l207 14q6 207 6 631v96q0 420 -6 629l-207 14v76h739v-76l-227 -14q-6 -207 -6 -629v-96q0 -430 6 -641h623z" />
    <glyph glyph-name="uniEA54" unicode="&#xff2d;" 
d="M1780 90l213 -14v-76h-727v76l207 14q8 414 8 631v518l-498 -1239h-92l-508 1249l-4 -1153l239 -20v-76h-581v76l248 20l8 1348l-221 16v76h503l472 -1141l456 1141h486v-76l-209 -14q-4 -205 -4 -629v-96q0 -422 4 -631z" />
    <glyph glyph-name="uniEA55" unicode="&#xff2e;" 
d="M1884 1536v-76l-233 -18v-1450h-166l-989 1276l6 -1170l301 -22v-76h-629v76l232 20v1290l-46 58l-186 16v76h504l883 -1145l-7 1051l-299 18v76h629z" />
    <glyph glyph-name="uniEA56" unicode="&#xff2f;" 
d="M557 768q0 -216 51 -376.5t157.5 -252.5t258.5 -92t258.5 92t157.5 252.5t51 376.5q0 215 -51 375.5t-157.5 253t-258.5 92.5t-258.5 -92.5t-157.5 -253t-51 -375.5zM1024 1573q165 0 306.5 -54t246.5 -154.5t165 -254t60 -342.5t-60 -342.5t-165 -254t-246.5 -154.5
t-306.5 -54q-166 0 -307.5 54t-246.5 154.5t-164.5 254t-59.5 342.5t60 342.5t165.5 254t247 154.5t305.5 54z" />
    <glyph glyph-name="uniEA57" unicode="&#xff30;" 
d="M1094 1456h-207q-6 -209 -6 -639v-143h180q199 0 297 105.5t98 303.5q0 182 -89.5 277.5t-272.5 95.5zM1063 590h-182q0 -316 6 -498l239 -16v-76h-751v76l207 14q4 138 4 631v96q0 488 -4 627l-207 16v76h715q341 0 497 -117t156 -340q0 -489 -680 -489z" />
    <glyph glyph-name="uniEA58" unicode="&#xff31;" 
d="M557 768q0 -216 51 -376.5t157.5 -252.5t258.5 -92t258.5 92t157.5 252.5t51 376.5q0 215 -51 375.5t-157.5 253t-258.5 92.5t-258.5 -92.5t-157.5 -253t-51 -375.5zM1745 -291l29 -69q-88 -51 -175.5 -74t-197.5 -23q-250 0 -393 119t-129 311q-139 22 -254 84.5
t-200 161.5t-132 239.5t-47 309.5q0 189 60 342.5t165.5 254t247 154.5t305.5 54q165 0 306.5 -54t246.5 -154.5t165 -254t60 -342.5q0 -167 -46.5 -306.5t-130 -238.5t-197 -162t-250.5 -86q13 -164 102.5 -243.5t222.5 -79.5q125 0 242 57z" />
    <glyph glyph-name="uniEA59" unicode="&#xff32;" 
d="M817 803h203q83 0 148 26t104.5 71t59.5 102.5t20 123.5q0 155 -87.5 242.5t-252.5 87.5h-191q-4 -205 -4 -653zM1663 90l223 -14v-76q-149 -31 -246 -31q-140 0 -209 46.5t-92 160.5l-90 297q-17 64 -34 105t-44.5 75.5t-67.5 50t-97 15.5h-189q0 -424 4 -629l228 -14
v-76h-736v76l205 14q4 207 4 631v96q0 420 -4 629l-205 14v76h781q266 0 408.5 -101t142.5 -288q0 -139 -105 -242.5t-323 -138.5q72 -10 125.5 -30.5t89 -47t61.5 -67.5t41.5 -83t30.5 -104z" />
    <glyph glyph-name="uniEA5A" unicode="&#xff33;" 
d="M999 938l205 -64q227 -70 323.5 -180.5t96.5 -261.5q0 -221 -167 -345t-476 -124q-293 0 -530 137l24 340h139l66 -338q132 -53 301 -53q179 0 284 75.5t105 203.5q0 103 -65 170.5t-209 111.5l-193 60q-211 64 -313.5 174t-102.5 270q0 148 81 253.5t215.5 155.5
t306.5 50q142 0 246.5 -27.5t207.5 -87.5l-14 -325h-135l-72 309q-100 47 -223 47q-161 0 -265 -70t-104 -200q0 -105 66 -172t202 -109z" />
    <glyph glyph-name="uniEA5B" unicode="&#xff34;" 
d="M1544 1456h-368q-5 -261 -5 -639v-96q0 -370 5 -629l247 -16v-76h-798v76l247 16q5 256 5 629v96q0 375 -5 639h-366l-64 -348h-137l10 428h1418l10 -428h-135z" />
    <glyph glyph-name="uniEA5C" unicode="&#xff35;" 
d="M1847 1536v-76l-200 -18v-787q0 -354 -158.5 -524t-448.5 -170q-119 0 -214.5 21.5t-175.5 70.5t-134 126.5t-83.5 192.5t-29.5 265v194q0 410 -4 615l-204 14v76h720v-76l-213 -14q-4 -203 -4 -615v-206q0 -276 105 -395t315 -119q222 0 327 126t105 412v793l-207 18v76
h504z" />
    <glyph glyph-name="uniEA5D" unicode="&#xff36;" 
d="M1907 1536v-76l-211 -18l-547 -1450h-191l-552 1456l-183 12v76h733v-76l-229 -14l434 -1190l441 1184l-236 20v76h541z" />
    <glyph glyph-name="uniEA5E" unicode="&#xff37;" 
d="M2075 1536v-76l-174 -20l-357 -1448h-186l-328 1182l-319 -1182h-179l-397 1458l-131 10v76h635v-76l-184 -14l266 -1114l291 1112l-203 16v76h641v-76l-197 -16l295 -1116l256 1112l-188 20v76h459z" />
    <glyph glyph-name="uniEA5F" unicode="&#xff38;" 
d="M1636 90l193 -14v-76h-688v76l186 14l-364 549l-402 -547l215 -16v-76h-557v76l221 18l475 617l-487 735l-170 14v76h670v-76l-191 -14l353 -533l378 529l-215 18v76h535v-76l-197 -18l-454 -598z" />
    <glyph glyph-name="uniEA60" unicode="&#xff39;" 
d="M1626 1442l-448 -819v-58q0 -307 4 -473l254 -16v-76h-811v76l254 16q4 164 4 471v51l-457 834l-168 12v76h750v-76l-232 -14l373 -705l373 699l-224 20v76h541v-76z" />
    <glyph glyph-name="uniEA61" unicode="&#xff3a;" 
d="M1565 428h125l-21 -428h-1296v70l970 1386h-731l-88 -348h-125l21 428h1249v-70l-971 -1386h775z" />
    <glyph glyph-name="uniEA68" unicode="&#xff41;" 
d="M1243 213v440q-161 -47 -207 -57q-156 -44 -229.5 -111.5t-73.5 -175.5q0 -95 59.5 -146.5t159.5 -51.5q151 0 291 102zM1692 150l43 -33q-38 -80 -97.5 -117t-150.5 -37q-105 0 -163.5 49t-74.5 133q-98 -93 -201.5 -137.5t-238.5 -44.5q-161 0 -253.5 77t-92.5 214
q0 67 24.5 121.5t81.5 106t159 93.5t249 74q2 0 266 60v84q0 164 -58 224t-212 60q-83 0 -164 -20l-27 -123q-28 -178 -157 -178q-103 0 -127 92q22 139 166.5 221t386.5 82q257 0 371 -97.5t114 -318.5v-526q0 -64 16.5 -88.5t53.5 -24.5q23 0 40 11t46 43z" />
    <glyph glyph-name="uniEA69" unicode="&#xff42;" 
d="M815 901v-700q109 -103 254 -103q143 0 231.5 121t88.5 332q0 227 -85.5 346t-226.5 119t-262 -115zM811 1327v-362q154 186 385 186q104 0 195 -39t160 -112t109 -186t40 -251q0 -140 -42 -255.5t-114 -189.5t-167 -114.5t-203 -40.5q-104 0 -199.5 44t-163.5 130
l-29 -155l-458 18v68l192 14q4 238 4 405v1039l-192 16v60l458 73l33 -20z" />
    <glyph glyph-name="uniEA6A" unicode="&#xff43;" 
d="M1317 920l-25 147q-57 14 -133 14q-172 0 -282.5 -127t-110.5 -358q0 -217 122 -348t302 -131q210 0 356 149l45 -37q-175 -266 -516 -266q-280 0 -451 162t-171 432q0 272 182 433t483 161q187 0 316 -85.5t157 -223.5q-34 -101 -127 -101q-128 0 -147 179z" />
    <glyph glyph-name="uniEA6B" unicode="&#xff44;" 
d="M1251 215v694q-113 107 -252 107q-145 0 -234 -120.5t-89 -332.5q0 -227 85 -346t226 -119t264 117zM1544 80l195 -12v-68l-471 -18l-15 168q-147 -187 -389 -187q-103 0 -193 38.5t-158.5 110.5t-108 185.5t-39.5 253.5t42.5 255.5t115.5 189.5t168 114.5t202 40.5
q104 0 198.5 -44.5t163.5 -131.5v551l-192 16v60l459 73l30 -20l-8 -324v-1251z" />
    <glyph glyph-name="uniEA6C" unicode="&#xff45;" 
d="M762 635h463q61 0 82.5 30.5t21.5 114.5q0 140 -70 219.5t-186 79.5q-137 0 -219.5 -111t-91.5 -333zM1528 254l47 -35q-73 -123 -205.5 -189.5t-296.5 -66.5q-105 0 -199 24.5t-172 74.5t-134.5 121t-87.5 167.5t-31 210.5q0 138 52 252t140.5 186.5t201.5 112t238 39.5
q128 0 229.5 -37.5t166 -103t98 -151.5t33.5 -185q0 -57 -13 -117h-833q4 -105 42 -190.5t97.5 -139t132.5 -82t152 -28.5q208 0 342 137z" />
    <glyph glyph-name="uniEA6D" unicode="&#xff46;" 
d="M584 1094l229 20q20 189 80.5 307.5t167.5 194.5q147 106 391 106q105 0 176.5 -34t89.5 -101q0 -59 -34.5 -94t-94.5 -35q-55 0 -101.5 32.5t-94.5 102.5l-45 62q-73 -31 -129 -90q-61 -67 -87.5 -168t-29.5 -285h362v-96l-362 4v-533q0 -137 4 -403l250 -16v-68h-733
v68l182 14q4 274 4 405v535h-225v72z" />
    <glyph glyph-name="uniEA6E" unicode="&#xff47;" 
d="M1268 -45h-371q-124 0 -209 31q-37 -41 -53.5 -73.5t-16.5 -80.5q0 -235 412 -235q209 0 316.5 62.5t107.5 170.5q0 56 -43 90.5t-143 34.5zM999 1083q-100 0 -156.5 -81t-56.5 -224t56 -226t157 -83q99 0 156 83.5t57 225.5t-58 223.5t-155 81.5zM887 213h336
q454 0 454 -295q0 -86 -44 -160.5t-127 -131.5t-214 -89.5t-295 -32.5q-145 0 -253.5 22.5t-170.5 62t-92 87.5t-30 105q0 149 184 229q-121 65 -121 205q0 143 176 258q-170 101 -170 305q0 166 123 269.5t356 103.5t359 -107l280 105l35 -25v-161l-264 28q70 -88 70 -213
q0 -167 -123.5 -272t-356.5 -105q-152 0 -260 48q-51 -62 -51 -117q0 -58 45.5 -88.5t153.5 -30.5z" />
    <glyph glyph-name="uniEA6F" unicode="&#xff48;" 
d="M1595 82l166 -14v-68h-626v68l159 14q4 238 4 405v250q0 139 -47.5 196.5t-154.5 57.5q-68 0 -150 -32t-162 -99v-373q0 -286 2 -407l162 -12v-68h-626v68l163 14q4 238 4 405v1039l-190 16v60l457 73l32 -20l-8 -328v-403q117 129 222.5 178t232.5 49q165 0 260.5 -98
t95.5 -299v-267q0 -171 4 -405z" />
    <glyph glyph-name="uniEA70" unicode="&#xff49;" 
d="M1114 1384q-74 0 -125 48.5t-51 121.5q0 70 51 118t125 48q75 0 126.5 -48t51.5 -118q0 -73 -51.5 -121.5t-126.5 -48.5zM1272 84l207 -16v-68h-715v68l205 16q4 238 4 403v150q0 171 -6 338l-185 12v53l465 105l27 -17l-6 -321v-320q0 -165 4 -403z" />
    <glyph glyph-name="uniEA71" unicode="&#xff4a;" 
d="M1194 1384q-74 0 -125 48.5t-51 121.5q0 70 51 118t125 48q75 0 126.5 -48t51.5 -118q0 -73 -51.5 -121.5t-126.5 -48.5zM862 1040l467 105l25 -17l-6 -321v-569q0 -251 -29 -381.5t-111 -223.5q-149 -174 -438 -174q-168 0 -289 94.5t-121 217.5q17 54 55 82t91 28
q60 0 94.5 -49.5t46.5 -163.5l17 -133q35 -6 65 -6q171 0 268 178q35 66 46.5 175.5t11.5 271.5v483q0 207 -8 338l-185 12v53z" />
    <glyph glyph-name="uniEA72" unicode="&#xff4b;" 
d="M1583 80l182 -12v-68h-436l-352 582l-148 -138q0 -255 2 -364l162 -12v-68h-639v68l178 14q5 302 5 405v1039l-193 16v60l463 73l31 -20l-9 -328v-792l517 493l-216 19v65h562v-65l-236 -19l-299 -278z" />
    <glyph glyph-name="uniEA73" unicode="&#xff4c;" 
d="M1178 80l178 -12v-68h-664v68l178 12q7 240 7 407v1039l-193 16v60l465 73l31 -20l-9 -328v-840q0 -167 7 -407z" />
    <glyph glyph-name="uniEA74" unicode="&#xff4d;" 
d="M1874 82l151 -14v-68h-600v68l148 14q4 238 4 405v258q0 132 -43.5 189t-128.5 57q-113 0 -234 -127q9 -46 9 -100v-277q0 -167 4 -405l145 -14v-68h-592v68l146 14q4 238 4 405v265q0 128 -43 183.5t-129 55.5q-112 0 -226 -117v-387q0 -109 5 -407l147 -12v-68h-588v68
l140 14q4 238 4 405v172q0 141 -7 316l-149 12v49l412 109l24 -17l10 -196q85 118 172.5 168.5t190.5 50.5q115 0 194.5 -55.5t112.5 -167.5q92 123 180.5 173t198.5 50q156 0 245 -98.5t89 -296.5v-269q0 -167 4 -405z" />
    <glyph glyph-name="uniEA75" unicode="&#xff4e;" 
d="M1595 82l166 -14v-68h-626v68l159 14q4 238 4 405v250q0 139 -47.5 196.5t-154.5 57.5q-68 0 -150 -32t-162 -99v-373q0 -165 4 -407l158 -12v-68h-624v68l163 14q4 242 4 405v172q0 166 -6 316l-149 12v49l411 109l27 -17l10 -202q115 128 221 176.5t232 48.5
q165 0 260.5 -98t95.5 -299v-267q0 -171 4 -405z" />
    <glyph glyph-name="uniEA76" unicode="&#xff4f;" 
d="M1024 -37q-281 0 -454 163t-173 435q0 179 84.5 314.5t226 205.5t316.5 70t316.5 -70t226 -205.5t84.5 -314.5q0 -272 -173 -435t-454 -163zM1024 35q150 0 231.5 132.5t81.5 389.5t-81.5 389.5t-231.5 132.5t-231.5 -132.5t-81.5 -389.5t81.5 -389.5t231.5 -132.5z" />
    <glyph glyph-name="uniEA77" unicode="&#xff50;" 
d="M799 901v-700q109 -103 254 -103q144 0 231.5 120.5t87.5 332.5q0 227 -85 346t-226 119t-262 -115zM784 1128l11 -165q153 188 385 188q104 0 195.5 -39t161 -112t109.5 -186t40 -251q0 -140 -42.5 -255.5t-116 -189.5t-168.5 -114.5t-202 -40.5q-103 0 -197.5 43.5
t-164.5 128.5v-139q0 -295 4 -430l235 -19v-67h-727v67l193 15q4 135 4 434v663q0 169 -6 316l-164 12v49l424 109z" />
    <glyph glyph-name="uniEA78" unicode="&#xff51;" 
d="M1266 213v723q-105 80 -238 80q-152 0 -244 -120t-92 -331q0 -227 86 -347t226 -120q141 0 262 115zM1565 -438l192 -15v-67h-719v67l228 17q4 270 4 405v181q-153 -187 -391 -187q-102 0 -192 39.5t-159 112.5t-109 186.5t-40 251.5q0 140 44 254.5t120.5 189t176 114.5
t212.5 40q107 0 202 -44t164 -130l234 166l35 -15l-6 -315v-844q0 -137 4 -407z" />
    <glyph glyph-name="uniEA79" unicode="&#xff52;" 
d="M1040 1128l13 -280q69 139 179.5 221t215.5 82q166 0 221 -117q0 -73 -43.5 -120.5t-116.5 -47.5q-112 0 -186 80l-51 53q-117 -70 -217 -256v-256q0 -223 6 -401l260 -18v-68h-770v68l207 16q4 238 4 403v172q0 196 -8 316l-185 12v51l447 107z" />
    <glyph glyph-name="uniEA7A" unicode="&#xff53;" 
d="M1004 705l213 -56q169 -49 245 -129t76 -203q0 -166 -148 -260t-417 -94q-242 0 -463 109l18 299h127l88 -303q104 -35 234 -35q146 0 225.5 52t79.5 138q0 70 -50.5 118t-184.5 87l-205 59q-161 49 -236.5 128.5t-75.5 197.5q0 157 134 247.5t391 90.5q188 0 407 -94
l-26 -264h-129l-76 262q-79 26 -189 26q-126 0 -198 -48t-72 -124q0 -72 49.5 -119t182.5 -85z" />
    <glyph glyph-name="uniEA7B" unicode="&#xff54;" 
d="M1477 176l32 -47q-66 -74 -166.5 -120t-222.5 -46q-218 0 -314.5 98.5t-94.5 298.5q0 25 1 82.5t1 102.5v477h-226v72l234 20l100 338h191l-4 -340h387v-96l-389 4v-653q0 -148 50 -213.5t154 -65.5q74 0 135.5 22t131.5 66z" />
    <glyph glyph-name="uniEA7C" unicode="&#xff55;" 
d="M1559 80l167 -12v-68l-458 -27l-4 222q-192 -232 -426 -232q-89 0 -157.5 23.5t-121.5 75.5t-80 143t-26 217l8 586l-162 12v61l432 49l29 -18l-10 -334v-387q0 -136 56 -194t169 -58q161 0 289 121v748l-162 12v59l434 51l29 -18l-6 -334v-698z" />
    <glyph glyph-name="uniEA7D" unicode="&#xff56;" 
d="M1757 1112v-65l-184 -19l-483 -1036h-146l-473 1040l-166 15v65h670v-65l-182 -19l335 -795l347 795l-197 19v65h479z" />
    <glyph glyph-name="uniEA7E" unicode="&#xff57;" 
d="M2013 1112v-68l-166 -16l-374 -1036h-138l-309 813l-299 -813h-137l-400 1040l-153 12v68h645v-68l-176 -12l248 -737l270 733l-201 16v68h590v-68l-176 -14l264 -737l256 733l-196 18v68h452z" />
    <glyph glyph-name="uniEA7F" unicode="&#xff58;" 
d="M1577 78l149 -10v-68h-675v68l159 12l-262 354l-289 -350l168 -16l2 -68h-489l-2 68l209 16l358 408l-387 536l-153 16v68h651l2 -68l-150 -16l240 -321l252 313l-152 24v68h473l2 -68l-217 -26l-315 -367z" />
    <glyph glyph-name="uniEA80" unicode="&#xff59;" 
d="M1786 1112v-65l-187 -25l-520 -1141q-98 -216 -221 -312.5t-289 -96.5q-104 0 -171 39t-70 106q18 43 51.5 64.5t73.5 21.5q46 0 83 -12t87 -49l100 -70q93 40 157.5 114.5t127.5 207.5l-521 1132l-176 21v65h676v-65l-180 -25l342 -823l352 823l-203 25v65h488z" />
    <glyph glyph-name="uniEA81" unicode="&#xff5a;" 
d="M1464 377h135l-20 -377h-1096v68l762 972h-530l-76 -280l-145 8l18 344h1065v-68l-748 -972h543z" />
  </font>
</defs>
</svg>
