<svg width="159" height="90" viewBox="0 0 159 90" fill="none" xmlns="http://www.w3.org/2000/svg">
<g clip-path="url(#clip0)">
<path d="M107.576 45.059L94.7184 39.1612C94.1286 38.9253 93.3029 39.1612 93.3029 39.751V42.6999H65.3475V39.751C65.3475 39.2792 64.5218 38.9253 63.932 39.1612L51.0749 45.059C50.4851 45.2949 50.4851 45.8847 51.0749 46.1206L63.932 52.0183C64.5218 52.2543 65.3475 52.0183 65.3475 51.4286V48.4797H93.3029V51.4286C93.3029 51.9004 94.1286 52.2543 94.7184 52.0183L107.576 46.1206C108.165 45.8847 108.165 45.2949 107.576 45.059Z" fill="#FFEC00"/>
<path d="M64.4039 53.0799C64.05 53.0799 63.8141 52.9619 63.4602 52.844L50.6031 46.9462C50.0133 46.7103 49.6594 46.1205 49.6594 45.6487C49.6594 45.0589 50.0133 44.5871 50.6031 44.3512L63.4602 38.4534C64.05 38.2175 64.8757 38.2175 65.4655 38.5714C65.9373 38.8073 66.1732 39.2791 66.1732 39.7509V41.8741H92.3593V39.7509C92.3593 39.2791 92.5952 38.8073 93.067 38.5714C93.6568 38.2175 94.4825 38.0995 95.0723 38.4534L107.929 44.3512C108.519 44.5871 108.873 45.1769 108.873 45.6487C108.873 46.2385 108.519 46.7103 107.929 46.9462L95.0723 52.844C94.4825 53.0799 93.6568 53.0799 93.067 52.726C92.5952 52.4901 92.3593 52.0183 92.3593 51.5465V49.4233H66.1732V51.5465C66.1732 52.0183 65.9373 52.4901 65.4655 52.726C65.2295 52.9619 64.7577 53.0799 64.4039 53.0799ZM52.0185 45.6487L64.2859 51.3106C64.4039 51.3106 64.4039 51.3106 64.5218 51.3106V48.5976C64.5218 48.1258 64.8757 47.6539 65.4655 47.6539H93.4209C93.8927 47.6539 94.3645 48.0078 94.3645 48.5976V51.3106C94.4825 51.3106 94.4825 51.3106 94.6004 51.3106L106.868 45.6487L94.3645 39.9868C94.2466 39.9868 94.2466 39.9868 94.1286 39.9868V42.6998C94.1286 43.1716 93.7747 43.6435 93.185 43.6435H65.3475C64.8757 43.6435 64.4039 43.2896 64.4039 42.6998V39.9868C64.2859 39.9868 64.2859 39.9868 64.1679 39.9868L52.0185 45.6487Z" fill="#A92224"/>
<path d="M46.3564 50.8388L33.6172 29.8427C33.4992 29.7248 33.2633 29.3709 33.2633 29.3709C32.2017 27.8375 30.3144 26.7759 28.3092 26.7759H24.1807H23.9448H23.7089H19.5805C17.5752 26.7759 15.688 27.8375 14.6264 29.3709C14.6264 29.3709 14.3904 29.7248 14.2725 29.8427L1.65126 50.8388C0.589659 52.4902 1.17944 54.6134 2.83081 55.675C4.48219 56.7366 6.72334 56.1468 7.66699 54.4954L12.857 46.0026C13.0929 45.6487 13.5648 45.8847 13.5648 46.2385V84.574C13.5648 86.9331 15.452 88.8204 17.8112 88.8204C20.1703 88.8204 22.0576 86.9331 22.0576 84.574V64.8755C22.0576 64.2857 22.5294 63.8139 23.1191 63.8139H23.9448H24.7705C25.3603 63.8139 25.8321 64.2857 25.8321 64.8755V84.574C25.8321 86.9331 27.7194 88.8204 30.0785 88.8204C32.4376 88.8204 34.3249 86.9331 34.3249 84.574V46.2385C34.3249 45.8847 34.7967 45.7667 35.0326 46.0026L40.2227 54.4954C41.2843 56.1468 43.4075 56.7366 45.0589 55.675C46.8282 54.7313 47.418 52.4902 46.3564 50.8388Z" fill="white"/>
<path d="M30.1966 90C27.1298 90 24.7707 87.5229 24.7707 84.574V64.9934H23.3552V84.574C23.3552 87.6409 20.8782 90 17.9293 90C14.8624 90 12.5033 87.5229 12.5033 84.574V49.1874L8.8467 55.2031C8.13897 56.2647 7.19533 57.0904 5.89782 57.3263C4.71826 57.6802 3.42075 57.4443 2.35915 56.7365C0.118001 55.439 -0.589732 52.4902 0.825733 50.249L13.5649 29.2529C13.6829 29.135 13.8008 28.8991 13.9188 28.7811V28.6632C15.3343 26.7759 17.4574 25.5963 19.8166 25.5963H28.5453C30.9044 25.5963 33.0276 26.7759 34.443 28.6632C34.443 28.7811 34.6789 29.017 34.7969 29.2529L47.5361 50.249C48.8336 52.4902 48.1259 55.3211 46.0027 56.7365C44.9411 57.4443 43.6436 57.5622 42.464 57.3263C41.2844 56.9725 40.2228 56.2647 39.5151 55.2031L35.8585 49.1874V84.574C35.6226 87.5229 33.2635 90 30.1966 90ZM23.2373 62.6343H24.8886C26.0682 62.6343 27.1298 63.6959 27.1298 64.8755V84.574C27.1298 86.3434 28.5453 87.6409 30.1966 87.6409C31.848 87.6409 33.2635 86.2254 33.2635 84.574V46.2385C33.2635 45.5308 33.7353 44.941 34.443 44.7051C35.1508 44.4692 35.8585 44.823 36.2124 45.4128L41.4024 53.9056C41.7563 54.4954 42.2281 54.8493 42.8179 54.9672C43.4076 55.0852 44.1154 54.9672 44.5872 54.7313C45.6488 54.0236 46.0027 52.6081 45.4129 51.5465L32.6737 30.4325C32.6737 30.3145 32.4378 30.0786 32.4378 29.9607C31.4941 28.6632 30.0787 27.8375 28.4273 27.8375H19.6986C18.1652 27.8375 16.6318 28.6632 15.6881 29.9607C15.6881 29.9607 15.4522 30.3145 15.4522 30.4325L2.71302 51.4286C2.00529 52.4902 2.35915 54.0236 3.53871 54.6134C4.12849 54.9672 4.71826 55.0852 5.30804 54.8493C5.89782 54.7313 6.48759 54.3774 6.7235 53.7877L11.9135 45.2949C12.2674 44.7051 12.9751 44.4692 13.6829 44.5871C14.3906 44.823 14.8624 45.4128 14.8624 46.1206V84.4561C14.8624 86.2254 16.2779 87.5229 17.9293 87.5229C19.6986 87.5229 20.9961 86.1075 20.9961 84.4561V64.8755C20.9961 63.578 21.9398 62.6343 23.2373 62.6343Z" fill="#A92224"/>
<path d="M24.063 24.7707C30.7729 24.7707 36.2124 19.4896 36.2124 12.9751C36.2124 6.46061 30.7729 1.17957 24.063 1.17957C17.353 1.17957 11.9136 6.46061 11.9136 12.9751C11.9136 19.4896 17.353 24.7707 24.063 24.7707Z" fill="white"/>
<path d="M24.0631 25.9502C16.7499 25.9502 10.7341 20.1704 10.7341 12.9751C10.7341 5.77982 16.6319 0 24.0631 0C31.3763 0 37.3921 5.77982 37.3921 12.9751C37.3921 20.1704 31.3763 25.9502 24.0631 25.9502ZM24.0631 2.35911C18.0474 2.35911 13.0932 7.07733 13.0932 12.9751C13.0932 18.8729 18.0474 23.5911 24.0631 23.5911C30.0788 23.5911 35.033 18.8729 35.033 12.9751C35.033 7.07733 30.0788 2.35911 24.0631 2.35911Z" fill="#A92224"/>
<path d="M29.8429 11.3238C29.8429 12.5033 29.1352 13.447 28.4274 13.447C27.6017 13.447 27.012 12.5033 27.012 11.3238C27.012 10.1442 27.7197 9.20056 28.4274 9.20056C29.2531 9.31852 29.8429 10.1442 29.8429 11.3238Z" fill="#A92224"/>
<path d="M21.1141 11.3238C21.1141 12.5033 20.4064 13.447 19.6987 13.447C18.873 13.447 18.2832 12.5033 18.2832 11.3238C18.2832 10.1442 18.9909 9.20056 19.6987 9.20056C20.4064 9.31852 21.1141 10.1442 21.1141 11.3238Z" fill="#A92224"/>
<path d="M27.9555 16.9856C27.6017 16.8677 27.3658 17.1036 27.2478 17.3395C26.8939 18.637 25.4785 19.1088 24.2989 19.1088H24.181H24.063C22.8835 19.1088 21.468 18.637 21.1141 17.3395C20.9962 16.9856 20.7603 16.8677 20.4064 16.9856C20.0525 17.1036 19.9346 17.3395 20.0525 17.6934C20.5244 19.2268 22.0578 20.2884 24.063 20.2884C24.063 20.2884 24.063 20.2884 24.181 20.2884H24.2989H24.4169C24.4169 20.2884 24.4169 20.2884 24.5348 20.2884C26.5401 20.2884 28.1915 19.2268 28.5453 17.6934C28.5453 17.4575 28.3094 17.1036 27.9555 16.9856Z" fill="#A92224"/>
<path d="M156.999 50.8388L144.26 29.8427C144.142 29.7248 143.906 29.3709 143.906 29.3709C142.844 27.8375 140.957 26.7759 138.952 26.7759H134.823H134.587H134.352H130.223C128.218 26.7759 126.331 27.8375 125.269 29.3709C125.269 29.3709 125.033 29.7248 124.915 29.8427L112.294 50.8388C111.232 52.4902 111.822 54.6134 113.473 55.675C115.125 56.7366 117.366 56.1468 118.31 54.4954L123.5 46.0026C123.736 45.6487 124.207 45.8847 124.207 46.2385V84.574C124.207 86.9331 126.095 88.8204 128.454 88.8204C130.813 88.8204 132.7 86.9331 132.7 84.574V64.8755C132.7 64.2857 133.172 63.8139 133.762 63.8139H134.587H135.413C136.003 63.8139 136.475 64.2857 136.475 64.8755V84.574C136.475 86.9331 138.362 88.8204 140.721 88.8204C143.08 88.8204 144.967 86.9331 144.967 84.574V46.2385C144.967 45.8847 145.439 45.7667 145.675 46.0026L150.865 54.4954C151.927 56.1468 154.05 56.7366 155.701 55.675C157.471 54.7313 157.943 52.4902 156.999 50.8388Z" fill="white"/>
<path d="M140.839 90C137.772 90 135.413 87.5229 135.413 84.574V64.9934H133.998V84.574C133.998 87.6409 131.52 90 128.572 90C125.505 90 123.146 87.5229 123.146 84.574V49.1874L119.489 55.2031C118.781 56.2647 117.838 57.0904 116.54 57.3263C115.361 57.6802 114.063 57.4443 113.001 56.7365C110.76 55.439 110.053 52.4902 111.468 50.249L124.207 29.2529C124.325 29.135 124.443 28.7811 124.561 28.7811V28.6632C125.977 26.7759 128.1 25.5963 130.459 25.5963H139.188C141.547 25.5963 143.67 26.7759 145.085 28.6632L145.203 28.7811C145.321 28.8991 145.439 29.135 145.557 29.2529L158.296 50.249C159.594 52.4902 158.886 55.3211 156.763 56.7365C155.701 57.4443 154.404 57.5622 153.224 57.3263C152.045 56.9725 150.983 56.2647 150.275 55.2031L146.619 49.1874V84.574C146.265 87.5229 143.788 90 140.839 90ZM133.762 62.6343H135.413C136.593 62.6343 137.654 63.6959 137.654 64.8755V84.574C137.654 86.3434 139.07 87.6409 140.721 87.6409C142.49 87.6409 143.788 86.2254 143.788 84.574V46.2385C143.788 45.5308 144.26 44.941 144.967 44.7051C145.675 44.4692 146.383 44.823 146.737 45.4128L151.927 53.9056C152.281 54.4954 152.752 54.8493 153.342 54.9672C153.932 55.0852 154.64 54.9672 155.112 54.7313C156.173 54.0236 156.527 52.6081 155.937 51.5465L143.198 30.5504C143.198 30.4325 142.962 30.1966 142.962 30.0786C142.019 28.7811 140.603 27.9554 138.952 27.9554H130.223C128.69 27.9554 127.156 28.7811 126.212 30.0786C126.095 30.1966 125.977 30.4325 125.977 30.5504L113.237 51.4286C112.53 52.4902 112.884 54.0236 114.063 54.6134C114.653 54.9672 115.243 55.0852 115.832 54.8493C116.422 54.7313 117.012 54.3774 117.248 53.7877L122.438 45.2949C122.792 44.7051 123.5 44.4692 124.207 44.5871C124.915 44.823 125.387 45.4128 125.387 46.1206V84.4561C125.387 86.2254 126.802 87.5229 128.454 87.5229C130.223 87.5229 131.52 86.1075 131.52 84.4561V64.8755C131.52 63.578 132.582 62.6343 133.762 62.6343Z" fill="#A92224"/>
<path d="M134.587 24.7707C141.297 24.7707 146.737 19.4896 146.737 12.9751C146.737 6.46061 141.297 1.17957 134.587 1.17957C127.877 1.17957 122.438 6.46061 122.438 12.9751C122.438 19.4896 127.877 24.7707 134.587 24.7707Z" fill="white"/>
<path d="M134.587 25.9502C127.274 25.9502 121.258 20.1704 121.258 12.9751C121.258 5.77982 127.274 0 134.587 0C141.9 0 147.916 5.77982 147.916 12.9751C147.916 20.1704 141.9 25.9502 134.587 25.9502ZM134.587 2.35911C128.572 2.35911 123.617 7.07733 123.617 12.9751C123.617 18.8729 128.572 23.5911 134.587 23.5911C140.603 23.5911 145.557 18.8729 145.557 12.9751C145.557 7.07733 140.603 2.35911 134.587 2.35911Z" fill="#A92224"/>
<path d="M140.485 11.3238C140.485 12.5033 139.777 13.447 139.07 13.447C138.244 13.447 137.654 12.5033 137.654 11.3238C137.654 10.1442 138.362 9.20056 139.07 9.20056C139.777 9.31852 140.485 10.1442 140.485 11.3238Z" fill="#A92224"/>
<path d="M131.638 11.3238C131.638 12.5033 130.931 13.447 130.223 13.447C129.397 13.447 128.807 12.5033 128.807 11.3238C128.807 10.1442 129.515 9.20056 130.223 9.20056C131.049 9.31852 131.638 10.1442 131.638 11.3238Z" fill="#A92224"/>
<path d="M138.598 16.9856C138.244 16.8677 138.008 17.1036 137.89 17.3395C137.536 18.637 136.121 19.1088 134.941 19.1088H134.823H134.705C133.526 19.1088 132.11 18.637 131.756 17.3395C131.638 16.9856 131.402 16.8677 131.048 16.9856C130.695 17.1036 130.577 17.3395 130.695 17.6934C131.166 19.2268 132.7 20.2884 134.705 20.2884C134.705 20.2884 134.705 20.2884 134.823 20.2884H134.941H135.059C135.059 20.2884 135.059 20.2884 135.177 20.2884C137.182 20.2884 138.834 19.2268 139.187 17.6934C139.069 17.4575 138.834 17.1036 138.598 16.9856Z" fill="#A92224"/>
<path d="M61.9268 27.9555C60.8652 27.9555 60.2754 27.2477 60.2754 26.1861C60.2754 25.5964 60.5113 24.8886 61.1011 24.1809C63.1063 21.9397 66.527 18.4011 69.122 15.2163C70.3016 13.8008 70.7734 12.5033 70.7734 11.4417C70.7734 9.55443 69.358 8.49283 67.7066 8.49283C66.4091 8.49283 65.1116 9.20056 64.05 10.734C63.6961 11.3238 63.1063 11.5597 62.5165 11.5597C61.6909 11.5597 60.7472 10.9699 60.7472 10.0263C60.7472 8.96465 62.9884 5.54395 67.5886 5.54395C71.0093 5.54395 74.1941 7.66714 74.1941 11.2058C74.1941 12.8572 73.4864 14.8624 71.7171 16.9856C69.4759 19.8166 66.645 22.2936 64.1679 24.8886C66.645 24.8886 69.9477 24.6527 72.3068 24.6527C73.4864 24.6527 74.0762 25.3605 74.0762 26.1861C74.0762 27.0118 73.4864 27.9555 72.1889 27.9555H61.9268Z" fill="#A92224"/>
<path d="M95.4261 26.54C95.4261 25.3604 95.4261 23.2372 95.4261 21.4679C95.4261 20.1704 95.4261 18.9908 95.4261 18.519C95.3082 16.7497 94.4825 16.042 93.4209 16.042C91.8874 16.042 90.0002 17.5754 89.8822 19.5806C89.8822 20.0524 89.8822 20.6422 89.8822 21.232C89.8822 22.5295 89.8822 24.1809 90.0002 26.54C90.0002 27.4836 89.2924 28.0734 88.5847 28.0734C87.877 28.0734 87.1692 27.6016 87.1692 26.54C87.1692 25.3604 87.1692 23.2372 87.1692 21.4679C87.1692 20.1704 87.1692 18.9908 87.1692 18.519C87.0513 16.7497 86.1076 16.042 85.164 16.042C83.6306 16.042 81.8612 17.5754 81.7433 19.5806C81.7433 20.0524 81.7433 20.6422 81.7433 21.232C81.7433 22.5295 81.7433 24.1809 81.8612 26.54C81.8612 27.7195 81.0355 28.0734 80.4458 28.0734C79.738 28.0734 78.9124 27.6016 78.9124 26.54C79.0303 23.3552 79.0303 21.3499 79.0303 19.4627C79.0303 18.0472 79.0303 16.6317 79.0303 14.8624C79.0303 13.9188 79.856 13.4469 80.4458 13.4469C81.1535 13.4469 81.8612 13.9188 81.8612 14.8624C81.8612 14.9804 81.8612 14.9804 81.8612 14.9804C81.8612 14.9804 81.9792 14.9804 81.9792 14.8624C82.9228 13.8008 84.2203 13.329 85.5179 13.329C87.1692 13.329 88.7027 14.1547 89.5283 16.042C90.7079 14.2726 92.3593 13.4469 94.0106 13.4469C96.3697 13.4469 98.4929 15.2163 98.6109 18.4011C98.6109 19.4627 98.6109 21.9397 98.6109 24.0629C98.6109 25.0066 98.6109 25.9502 98.6109 26.54C98.6109 27.6016 97.9032 28.1914 97.1954 28.1914C96.1338 28.1914 95.4261 27.6016 95.4261 26.54Z" fill="#A92224"/>
</g>
<defs>
<clipPath id="clip0">
<rect width="158.65" height="90" fill="white"/>
</clipPath>
</defs>
</svg>
