<svg width="179" height="108" viewBox="0 0 179 108" fill="none" xmlns="http://www.w3.org/2000/svg">
<g clip-path="url(#clip0)">
<path d="M28.0702 48.7802C26.0589 48.7802 24.3975 50.4446 24.3975 52.4595C24.3975 54.4744 26.0589 56.1388 28.0702 56.1388C30.0814 56.1388 31.7429 54.4744 31.7429 52.4595C31.7429 50.4446 30.0814 48.7802 28.0702 48.7802Z" fill="white"/>
<path d="M28.0702 56.6645C25.7092 56.6645 23.7854 54.7372 23.7854 52.3719C23.7854 50.0066 25.7092 48.0793 28.0702 48.0793C30.4313 48.0793 32.3551 50.0066 32.3551 52.3719C32.2677 54.7372 30.3438 56.6645 28.0702 56.6645ZM28.0702 49.3058C26.3213 49.3058 24.9222 50.7074 24.9222 52.4595C24.9222 54.2116 26.3213 55.6132 28.0702 55.6132C29.8192 55.6132 31.2183 54.2116 31.2183 52.4595C31.1309 50.7074 29.7317 49.3058 28.0702 49.3058Z" fill="#A92224"/>
<path d="M21.7741 44.9256C21.7741 42.1223 19.5005 39.8446 16.7022 39.8446C13.904 39.8446 11.6304 42.1223 11.6304 44.9256C11.6304 47.7289 13.904 50.0066 16.7022 50.0066C19.5005 50.0066 21.7741 47.6413 21.7741 44.9256Z" fill="white"/>
<path d="M16.7897 50.5322C13.729 50.5322 11.1931 47.9917 11.1931 44.9256C11.1931 41.8595 13.729 39.319 16.7897 39.319C19.8503 39.319 22.3862 41.8595 22.3862 44.9256C22.3862 47.9917 19.8503 50.5322 16.7897 50.5322ZM16.7897 40.4578C14.3412 40.4578 12.3299 42.4727 12.3299 44.9256C12.3299 47.3785 14.3412 49.3933 16.7897 49.3933C19.2381 49.3933 21.2494 47.3785 21.2494 44.9256C21.2494 42.3851 19.2381 40.4578 16.7897 40.4578Z" fill="#A92224"/>
<path d="M66.0217 41.071C62.2615 46.4148 54.6537 57.1901 53.6044 58.1537C52.6425 59.0297 51.6806 59.8182 50.2814 59.7306C49.5819 59.7306 43.5481 59.2049 38.2139 60.6942C35.5031 61.395 32.9671 62.6215 30.4312 63.7603C28.5948 64.6363 26.7585 65.5124 24.8347 66.3884C24.4849 66.5636 23.9602 66.914 23.6979 67.1768C21.949 69.0165 23.0858 70.0677 24.3974 70.5934C24.5723 70.681 24.7472 70.681 24.8347 70.681C25.884 70.9438 26.8459 70.681 27.8078 70.5058C29.6442 70.1553 31.3931 69.4545 33.2295 69.0165C33.8416 68.8413 34.3663 68.8413 34.9784 68.8413C35.3282 68.8413 35.7654 68.9289 35.9403 69.3669C36.1152 69.7173 35.8529 70.0677 35.678 70.3306C33.929 72.6082 27.9827 76.3752 27.8953 76.4628C25.5342 77.952 23.2606 79.4413 20.8996 80.9305C20.0251 81.4562 19.3256 82.0694 18.5386 82.7702C18.1013 83.2082 17.7516 83.6463 17.4892 84.1719C17.052 85.0479 17.4892 86.0991 18.4511 86.362C18.8884 86.4496 19.2381 86.5372 19.6754 86.4496C21.0745 86.362 22.3862 85.8363 23.523 85.0479C26.7585 82.9454 30.1689 81.3686 33.4044 79.4413C33.4044 79.4413 33.4918 79.4413 33.4918 79.3537C33.5793 79.2661 33.7542 79.2661 33.8416 79.3537C33.929 79.4413 33.8416 79.6165 33.7542 79.7041C33.5793 79.8793 28.42 84.0843 25.7966 85.9239C23.523 87.5008 21.0745 88.9901 19.1507 91.0049C18.626 91.5305 18.3637 92.4066 18.5386 93.1074C18.8009 93.8082 19.3256 94.071 20.0251 94.1586C20.4624 94.2463 20.8996 94.2463 21.3368 94.071C22.9983 93.633 24.5723 93.0198 25.9715 92.0562C29.0321 90.0413 32.0927 88.0264 34.9784 85.7487C35.5905 85.2231 36.2026 84.7851 36.9022 84.4347C37.1645 84.2595 37.5143 84.0843 37.6892 84.3471C37.9516 84.6975 37.7767 85.0479 37.5143 85.3107C36.9897 85.8363 36.465 86.2743 35.9403 86.7124C34.5412 87.7636 33.0546 88.8148 31.6555 89.9537C29.9065 91.2677 28.42 92.757 26.671 94.1586C25.7966 94.8595 25.097 95.6479 24.5723 96.6115C24.1351 97.4876 24.3974 98.276 25.3593 98.6264C26.4961 99.0644 27.5455 98.4512 28.5074 98.0132C29.4693 97.4876 37.5143 91.4429 39.4381 89.9537C39.9628 89.4281 40.5749 88.9025 41.2745 88.552C41.4494 88.4644 41.7117 88.2016 41.9741 88.4644C42.149 88.7272 41.9741 88.9901 41.8866 89.1653C41.4494 89.8661 40.8373 90.3917 40.3126 91.0049C38.039 93.3702 35.5905 95.5603 33.2295 97.838C32.7922 98.1884 32.4425 98.6264 32.2676 99.152C32.0052 99.8529 32.2676 100.554 32.9671 100.904C34.0165 101.43 34.9784 101.167 35.9403 100.641C37.6018 99.7653 39.2632 98.8016 40.7498 97.5752C42.4113 96.2611 43.8979 94.6843 45.4719 93.2826C49.9316 89.2529 54.0416 84.9603 57.452 79.9669C58.6762 78.2148 59.9879 76.4628 61.2996 74.8859C62.6113 73.3091 72.1429 61.0446 74.4165 58.0661C74.4165 58.0661 77.4771 53.5983 79.7507 50.0942L66.0217 41.071Z" fill="#FCEADF"/>
<path d="M79.4009 49.6562C77.3022 52.8975 74.5039 57.2777 74.2416 57.7157C72.0554 60.6066 62.4364 72.9587 61.1247 74.5355C59.5507 76.4628 58.239 78.1273 57.1896 79.7041C54.3039 84.0843 50.4563 88.2893 45.297 92.9322C44.7723 93.4579 44.1602 93.9835 43.6355 94.5091C42.6736 95.4727 41.7117 96.4364 40.5749 97.2248C39.0883 98.3636 37.4269 99.3273 35.8528 100.203C35.3282 100.466 34.8035 100.641 34.3663 100.641C34.0165 100.641 33.7541 100.554 33.4044 100.379C32.9671 100.203 32.7922 99.7653 32.9671 99.4149C33.142 99.0645 33.3169 98.7141 33.7541 98.276C34.4537 97.6628 35.1533 96.962 35.8528 96.3488C37.5143 94.7719 39.2632 93.1074 40.9247 91.443L41.0996 91.3554C41.6243 90.8298 42.1489 90.3041 42.5862 89.6033C42.7611 89.3405 43.1109 88.8149 42.6736 88.2017C42.4987 88.0265 42.2364 87.8512 41.9741 87.8512C41.7117 87.8512 41.4494 88.0265 41.2745 88.1141H41.187C40.4875 88.4645 39.7879 88.9901 39.2632 89.6033C37.252 91.2678 29.3818 97.1372 28.5074 97.5752H28.4199C27.7204 97.9256 27.1083 98.276 26.4087 98.276C26.1464 98.276 25.9715 98.276 25.7966 98.1884C25.5342 98.1008 25.3593 97.9256 25.2719 97.7504C25.1844 97.5752 25.2719 97.3124 25.3593 97.0496C25.7966 96.2612 26.4087 95.4727 27.3706 94.7719C28.1576 94.1587 28.8572 93.4579 29.6442 92.8446C30.5186 92.0562 31.3931 91.2678 32.355 90.5669C33.0546 90.0413 33.6667 89.5157 34.3663 89.0777C35.0658 88.5521 35.8528 87.9388 36.6399 87.4132C37.0771 87.0628 37.5143 86.6248 37.9515 86.2744C38.039 86.1868 38.1264 86.0992 38.2139 86.0116C38.826 85.486 38.9135 84.7851 38.4762 84.2595C38.3013 83.9967 38.039 83.9091 37.7767 83.9091C37.5143 83.9091 37.252 83.9967 36.9896 84.1719C36.2026 84.6975 35.5905 85.1355 35.0658 85.5736C32.7048 87.5008 30.1689 89.1653 27.7204 90.7422C27.1957 91.0926 26.671 91.443 26.1463 91.7934C24.8347 92.6694 23.3481 93.2826 21.6866 93.7207C21.5117 93.8083 21.3368 93.8083 21.0745 93.8083C20.8996 93.8083 20.7247 93.8083 20.5498 93.8083C19.9377 93.7207 19.6754 93.5455 19.5005 93.1074C19.3256 92.6694 19.6754 91.9686 19.9377 91.6182C21.4243 90.0413 23.2606 88.8149 25.097 87.5884C25.5342 87.238 26.0589 86.9752 26.4961 86.6248C27.5455 85.924 29.7316 84.2595 34.2788 80.5802L34.4537 80.405C34.8909 80.0545 34.8909 79.6165 34.716 79.3537C34.5412 79.0909 34.3663 79.0033 34.1914 79.0033C34.1039 79.0033 34.1039 79.0033 34.0165 79.0033C33.7541 79.0033 33.5793 79.0909 33.4918 79.1785C33.4918 79.1785 33.4918 79.1785 33.4044 79.1785C32.0052 80.0545 30.5186 80.843 29.0321 81.6314C27.1957 82.595 25.2719 83.6463 23.4355 84.8727C22.2987 85.5736 21.0745 86.0116 19.8502 86.1868C19.7628 86.1868 19.6754 86.1868 19.5879 86.1868C19.3256 86.1868 19.0632 86.1868 18.8009 86.0992C18.5386 86.0116 18.2762 85.8364 18.1888 85.5736C18.1013 85.3107 18.1013 84.9603 18.1888 84.6975C18.4511 84.1719 18.7134 83.8215 19.0632 83.4711C19.8502 82.7703 20.5498 82.157 21.3368 81.719C23.2606 80.4926 25.1844 79.2661 27.0208 78.0397L28.3325 77.2512C28.9446 76.8132 34.5412 73.2215 36.2026 71.0314C36.465 70.681 36.8147 70.1554 36.5524 69.4545C36.2026 68.5785 35.4156 68.5785 35.0658 68.5785C34.9784 68.5785 34.8909 68.5785 34.8035 68.5785C34.1914 68.5785 33.6667 68.6661 33.142 68.7537C32.355 68.9289 31.568 69.1917 30.781 69.3669C29.8191 69.6298 28.7697 69.9802 27.7204 70.1554C27.6329 70.1554 27.458 70.1554 27.3706 70.243C26.7585 70.3306 26.2338 70.4182 25.7091 70.4182C25.4468 70.4182 25.1844 70.4182 24.9221 70.3306C24.8347 70.3306 24.7472 70.3306 24.7472 70.3306C24.6598 70.3306 24.5723 70.3306 24.5723 70.243C23.9602 69.9802 23.523 69.6298 23.4355 69.2793C23.3481 68.9289 23.6104 68.4033 24.1351 67.7901C24.31 67.5273 24.8347 67.2645 25.097 67.0893C26.4961 66.476 27.8953 65.8628 29.207 65.162C29.7316 64.8992 30.1689 64.724 30.6935 64.4612L31.1308 64.286C33.4044 63.2347 35.8528 62.0959 38.3888 61.4826C40.8373 60.7818 43.8104 60.4314 47.1334 60.4314C48.0953 60.4314 49.1446 60.4314 50.1065 60.519H50.2814C50.3689 60.519 50.4563 60.519 50.4563 60.519C52.0303 60.519 53.0797 59.643 54.0416 58.7669C55.0909 57.8033 62.6987 46.9405 66.4589 41.5091L65.5844 40.8959C61.8243 46.3273 54.2165 56.9273 53.2546 57.8909C52.2927 58.7669 51.5057 59.3802 50.4563 59.3802C50.3689 59.3802 50.3689 59.3802 50.2814 59.3802H50.1065C49.0572 59.2926 48.0078 59.2926 47.0459 59.2926C43.6355 59.2926 40.6624 59.643 38.1264 60.3438C35.5031 60.957 33.0546 62.0959 30.6935 63.2347L30.1689 63.3223C29.6442 63.5851 29.207 63.7603 28.6823 64.0231C27.3706 64.6364 25.9715 65.3372 24.5723 65.9504C24.1351 66.1256 23.6104 66.5636 23.2606 66.9141C22.3862 67.7901 22.0364 68.6661 22.2987 69.4545C22.4736 70.243 23.1732 70.8562 24.2225 71.2066C24.31 71.2066 24.4849 71.2066 24.5723 71.2066H24.6598C25.0096 71.2942 25.3593 71.2942 25.7091 71.2942C26.3212 71.2942 26.9334 71.2066 27.5455 71.0314L27.8953 70.9438C28.9446 70.7686 30.0814 70.4182 31.1308 70.1554C31.9178 69.8926 32.6173 69.7174 33.4044 69.5422C33.8416 69.4545 34.3663 69.3669 34.8035 69.3669C34.8909 69.3669 34.8909 69.3669 34.9784 69.3669C35.3282 69.3669 35.3282 69.4545 35.4156 69.5422C35.4156 69.6298 35.4156 69.6298 35.2407 69.9802C33.929 71.6446 29.8191 74.5355 27.6329 75.9372L26.3212 76.8132C24.4849 78.0397 22.5611 79.2661 20.6373 80.4926C19.8502 81.0182 19.0632 81.6314 18.1888 82.4198C17.7515 82.8579 17.3143 83.3835 17.052 83.9967C16.7896 84.6099 16.7896 85.2231 17.052 85.8364C17.3143 86.362 17.7515 86.8 18.3637 86.9752C18.7134 87.0628 19.0632 87.1504 19.5005 87.1504C19.5879 87.1504 19.7628 87.1504 19.8502 87.1504C21.3368 86.9752 22.736 86.5372 23.9602 85.6612C25.7091 84.5223 27.6329 83.4711 29.4693 82.5074C29.7316 82.4198 29.9065 82.2446 30.1689 82.157C27.7204 84.0843 26.3212 85.1355 25.6217 85.5736C25.1844 85.924 24.6598 86.1868 24.2225 86.5372C22.3862 87.7636 20.5498 89.0777 18.8883 90.7422C18.2762 91.3554 17.839 92.4942 18.1888 93.3703C18.4511 94.2463 19.1507 94.6843 20.2 94.8595C20.4624 94.8595 20.6373 94.8595 20.8122 94.8595C21.1619 94.8595 21.4243 94.8595 21.6866 94.7719C23.4355 94.3339 25.097 93.6331 26.4961 92.6694C27.0208 92.319 27.5455 91.9686 28.0702 91.6182C30.6061 89.9537 33.142 88.2893 35.5031 86.362C35.9403 86.0116 36.465 85.5736 37.1645 85.1355C37.0771 85.2231 36.9896 85.3107 36.9896 85.3107C36.6399 85.6612 36.2026 86.0992 35.7654 86.362C35.0658 86.8876 34.2788 87.5008 33.5793 88.0264H33.4918C32.7922 88.5521 32.0927 89.0777 31.4805 89.5157C30.5186 90.2165 29.6442 91.0926 28.6823 91.881C27.9827 92.4942 27.1957 93.195 26.4961 93.7207C25.4468 94.5091 24.7472 95.3851 24.2225 96.3488C23.8728 96.962 23.8728 97.5752 24.0476 98.0132C24.2225 98.5388 24.6598 98.8893 25.2719 99.1521C25.6217 99.2397 25.9715 99.3273 26.3212 99.3273C27.2831 99.3273 28.1576 98.8893 28.8572 98.5388H28.9446C29.994 98.0132 38.039 91.9686 39.9628 90.3917C40.3126 90.0413 40.7498 89.6909 41.187 89.3405C40.8373 89.6909 40.4875 90.1289 40.1377 90.4793L39.9628 90.6545C38.3013 92.319 36.6399 93.8959 34.9784 95.4727C34.2788 96.0859 33.5792 96.7868 32.8797 97.4C32.5299 97.7504 32.0052 98.276 31.7429 98.9769C31.3931 99.9405 31.7429 100.992 32.7048 101.43C33.142 101.693 33.6667 101.78 34.1914 101.78C34.8035 101.78 35.5031 101.605 36.2026 101.255C37.7767 100.379 39.5256 99.4149 41.0996 98.1884C42.2364 97.3124 43.2857 96.3488 44.2476 95.3851C44.7723 94.8595 45.297 94.3339 45.9091 93.8083C51.1559 89.0777 55.0035 84.7851 57.9767 80.405C59.026 78.8281 60.2502 77.2512 61.8243 75.324C63.136 73.7471 72.8424 61.3074 74.9412 58.4165C75.116 58.1537 78.0892 53.8612 80.2754 50.357L79.4009 49.6562Z" fill="#A92224"/>
<path d="M53.4296 107.387C52.4677 107.387 51.5932 107.299 50.7187 107.212C46.0841 106.598 42.4988 104.408 41.1871 101.605C41.0997 101.43 41.0122 101.255 41.0122 100.992C40.9248 100.641 40.8374 100.291 40.4876 100.116C40.4001 100.028 40.2252 100.028 40.1378 100.028C39.8755 100.028 39.6131 100.028 39.3508 100.028C38.8261 100.028 38.3889 100.028 37.8642 99.9405C37.0772 99.8528 36.4651 99.6776 35.8529 99.4148C34.4538 98.8892 33.317 98.1008 32.4425 97.1371C31.6555 96.2611 31.1309 95.2099 30.956 94.071C30.8685 93.195 30.956 92.319 31.1309 91.4429C31.1309 91.2677 31.2183 91.1801 31.2183 91.0049V90.9173C31.3058 90.1289 31.3058 89.7785 30.956 89.5157C29.8192 88.8148 29.1196 87.9388 28.8573 86.8C28.5075 84.9603 28.6824 83.2082 29.3819 81.5438C29.9941 80.3173 30.8685 79.1785 32.2677 78.1272C32.6174 77.8644 32.6174 77.6892 32.4425 77.3388C32.3551 77.076 32.2677 76.8132 32.1802 76.4628C32.0928 76.2876 32.0928 76.1124 32.0053 75.8495C30.6062 71.8198 32.7923 67.6148 35.5906 65.6876C36.64 64.9867 37.6893 64.4611 38.7387 64.2859C39.5257 64.1107 40.4001 64.0231 41.2746 64.1107C42.0616 64.1983 42.7612 64.3735 43.4607 64.6363C43.5482 64.3735 43.6356 64.1983 43.8105 63.9355C44.4226 62.6214 45.3845 61.4826 46.4339 60.519C47.4832 59.5553 48.7949 58.8545 50.2815 58.3289C51.943 57.7157 53.6919 57.8909 55.1785 58.2413C57.8893 58.7669 60.1629 60.0809 62.2616 62.3586L63.1361 61.2198C64.4477 59.5553 66.2841 58.6793 69.0824 58.2413C71.356 57.8909 73.5421 58.3289 75.5534 59.4677C77.6521 60.6066 78.9638 62.4462 79.401 64.8991C79.401 65.0743 79.4884 65.3371 79.4884 65.5123C79.4884 65.7752 79.4884 66.038 79.5759 66.3008C79.6633 66.476 79.7508 66.6512 80.0131 66.7388C80.188 66.8264 80.3629 66.8264 80.5378 66.914C80.6252 66.914 80.8001 67.0016 80.8876 67.0016C81.1499 67.0892 81.4997 67.1768 81.762 67.2644C82.2867 67.4396 82.8114 67.7024 83.3361 68.0528C85.1724 69.1041 86.5716 70.7685 87.5335 72.871C88.1456 74.1851 88.7577 75.5867 89.1075 77.076C89.8945 81.1057 88.6703 84.1719 85.5222 86.1867C84.9975 86.5371 84.8226 86.8876 84.9101 87.5884C85.1724 89.1652 85.1724 91.4429 83.511 93.195C81.8495 95.0347 79.9257 95.9107 77.7395 95.8231C77.2148 95.8231 76.9525 95.9107 76.8651 96.5239C76.6027 98.0132 75.8157 99.152 74.4166 100.291C73.3672 101.079 72.143 101.43 70.6564 101.693C69.4322 101.955 68.2079 101.955 67.0711 101.693C66.1967 101.517 66.1092 101.517 65.4971 102.306C62.4365 106.073 57.627 107.387 53.4296 107.387Z" fill="white"/>
<path d="M53.4295 108C52.4676 108 51.5931 107.912 50.6312 107.825C45.8217 107.212 41.9741 104.934 40.6624 101.868C40.575 101.693 40.4875 101.43 40.4001 101.255C40.3126 100.992 40.2252 100.817 40.1377 100.729H40.0503C39.7879 100.729 39.5256 100.729 39.2633 100.729C38.7386 100.729 38.2139 100.729 37.6018 100.641C36.8148 100.466 36.1152 100.291 35.5031 100.116C34.0165 99.5901 32.7923 98.714 31.8304 97.6628C30.9559 96.6992 30.4312 95.5603 30.2563 94.3339C30.0815 93.3702 30.2563 92.4066 30.4312 91.5306L30.5187 91.005C30.6061 90.2165 30.6061 90.2165 30.5187 90.2165C29.207 89.4281 28.42 88.3769 28.1576 87.1504C27.7204 85.1355 27.9828 83.2959 28.7698 81.5438C29.3819 80.2298 30.3438 79.0033 31.8304 77.9521C31.8304 77.9521 31.8304 77.9521 31.8304 77.8645C31.7429 77.6016 31.6555 77.2512 31.4806 76.9884C31.3931 76.8132 31.3931 76.638 31.3057 76.4628C29.8191 72.1702 32.1802 67.7025 35.1533 65.6C36.2901 64.8116 37.4269 64.286 38.5637 64.0231C39.4382 63.8479 40.3126 63.7603 41.2745 63.8479C41.9741 63.9355 42.4988 64.1107 43.1109 64.1983C43.1109 64.1107 43.1983 64.0231 43.1983 63.9355C43.8979 62.5339 44.8598 61.3074 45.9966 60.3438C47.1334 59.3802 48.4451 58.5917 50.0191 57.9785C51.8555 57.2777 53.6918 57.5405 55.2659 57.8033C57.8892 58.3289 60.1628 59.5554 62.2615 61.6578L62.7862 61.0446C64.1854 59.2926 66.1092 58.3289 69.0823 57.8909C71.5308 57.5405 73.8044 57.9785 75.9905 59.1174C78.1767 60.3438 79.6633 62.3587 80.1879 64.9868C80.2754 65.2496 80.2754 65.4248 80.2754 65.6876C80.2754 65.9504 80.2754 66.1256 80.3628 66.3008C80.3628 66.3008 80.3628 66.3008 80.4503 66.3884C80.5377 66.476 80.7126 66.476 80.8875 66.476C80.975 66.476 81.1499 66.5636 81.2373 66.5636C81.4996 66.6512 81.8494 66.7388 82.1118 66.914C82.7239 67.1769 83.2486 67.4397 83.7732 67.7025C85.697 68.8413 87.1836 70.5934 88.233 72.7835C88.8451 74.0975 89.5447 75.5868 89.807 77.1636C90.6814 81.4562 89.3698 84.6975 85.8719 86.8876C85.5221 87.0628 85.4347 87.238 85.5221 87.676C85.7845 89.3405 85.7845 91.7934 84.0356 93.8083C82.1992 95.8231 80.1005 96.7868 77.8269 96.6116C77.652 96.6116 77.5646 96.6116 77.5646 96.6116C77.5646 96.6116 77.5646 96.6992 77.5646 96.7868C77.3022 98.3636 76.3403 99.7653 74.8537 100.904C73.7169 101.78 72.4927 102.131 70.8312 102.481C69.5196 102.744 68.2953 102.744 66.9836 102.481C66.7213 102.393 66.4589 102.393 66.3715 102.393C66.2841 102.393 66.0217 102.744 65.9343 102.831C63.2234 106.073 58.5888 108 53.4295 108ZM39.7005 99.4149C39.8754 99.4149 40.0503 99.4149 40.2252 99.4149C40.4875 99.4149 40.7499 99.4149 40.9247 99.5901C41.362 99.9405 41.5369 100.379 41.6243 100.817C41.7118 100.992 41.7118 101.167 41.7992 101.342C42.936 103.97 46.4338 105.985 50.8061 106.598C51.6806 106.686 52.555 106.774 53.4295 106.774C58.3265 106.774 62.5239 105.021 65.0598 101.955C65.8468 100.992 66.1092 100.992 67.1585 101.167C68.2953 101.342 69.4321 101.342 70.5689 101.167C71.968 100.904 73.1048 100.554 74.0667 99.8529C75.3784 98.8892 76.078 97.7504 76.3403 96.524C76.5152 95.7355 77.0399 95.2975 77.9144 95.3851C79.8382 95.4727 81.5871 94.6843 83.1611 92.9322C84.6477 91.3554 84.6477 89.2529 84.3853 87.8512C84.2105 86.8876 84.4728 86.2744 85.2598 85.8364C88.233 83.9967 89.3698 81.1058 88.5828 77.4264C88.3204 76.0248 87.6208 74.5355 87.0962 73.3091C86.2217 71.3818 84.8226 69.805 83.1611 68.7537C82.7239 68.4909 82.1992 68.2281 81.6745 68.0529C81.4122 67.9653 81.1499 67.8777 80.8875 67.7901C80.8001 67.7901 80.7126 67.7025 80.5377 67.7025C80.2754 67.6149 80.1005 67.6149 79.8382 67.5273C79.4884 67.3521 79.226 67.0893 79.1386 66.7388C79.0512 66.476 79.0512 66.1256 78.9637 65.8628C78.9637 65.6876 78.9637 65.4248 78.8763 65.2496C78.439 62.9719 77.2148 61.2198 75.291 60.1686C73.3672 59.1174 71.3559 58.7669 69.1698 59.0297C66.5464 59.3802 64.7975 60.2562 63.6607 61.7454L62.2615 63.4099L61.8243 62.8843C59.8131 60.6942 57.6269 59.3802 55.091 58.9421C53.6918 58.6793 52.0304 58.5041 50.4564 59.0297C49.0572 59.5554 47.7455 60.2562 46.7836 61.1322C45.7343 62.0083 44.9473 63.0595 44.3351 64.3735C44.2477 64.6364 44.0728 64.8992 43.9854 65.0744L43.723 65.5124L43.1983 65.3372C42.5862 65.162 41.8867 64.8992 41.0996 64.8116C40.3126 64.724 39.5256 64.8116 38.826 64.8992C37.8641 65.162 36.8148 65.6 35.8529 66.2132C33.2295 68.0529 31.1308 71.995 32.4425 75.6744C32.5299 75.8496 32.6174 76.0248 32.6174 76.2876C32.7048 76.5504 32.7923 76.8132 32.8797 77.076C33.1421 77.6893 32.9672 78.1273 32.5299 78.5653C31.3057 79.5289 30.4312 80.5802 29.9066 81.719C29.207 83.2083 29.0321 84.8727 29.3819 86.6248C29.5568 87.5008 30.1689 88.2892 31.1308 88.9025C31.9178 89.4281 31.8304 90.2165 31.6555 90.9174L31.568 91.443C31.4806 92.2314 31.3057 93.0198 31.3931 93.8959C31.568 94.8595 32.0053 95.8231 32.7048 96.6116C33.4918 97.4876 34.6286 98.276 35.8529 98.714C36.3776 98.8893 36.9897 99.0645 37.7767 99.2397C38.2139 99.3273 38.7386 99.3273 39.1758 99.3273C39.4382 99.4149 39.5256 99.4149 39.7005 99.4149Z" fill="#A92224"/>
<path d="M86.0474 52.5471C83.5989 55.7008 80.4509 59.4678 78.0024 61.3074C77.0405 62.0083 76.0786 62.2711 75.0292 62.1835C74.2422 62.0959 71.6188 61.3951 68.4708 61.5703C68.4708 61.5703 68.4708 61.5703 68.3833 61.5703C66.8093 61.7455 59.1141 63.1471 56.6656 64.0232C53.7799 65.0744 50.9816 66.476 48.0959 67.4397C47.134 67.7901 45.9097 68.0529 45.1227 68.8413C43.811 70.4182 44.4232 71.4694 46.0846 72.3455C46.4344 72.5207 46.8717 72.6083 47.3089 72.6083C49.1452 72.6959 50.9816 72.3455 52.7305 71.9075C54.5669 71.4694 56.4033 70.5934 58.2396 70.9438C58.8517 71.0314 59.289 71.4694 59.289 71.9075C59.289 72.9587 58.4145 74.3603 56.3158 75.5868C56.3158 75.5868 56.3158 75.5868 56.2284 75.5868C50.8942 78.3025 43.8111 81.1934 39.5262 83.4711C37.5149 84.5223 35.766 86.1868 36.0284 87.4132C36.7279 90.567 46.2595 86.2744 51.8561 83.6463C51.8561 83.6463 51.8561 83.6463 51.9435 83.6463C52.7305 83.3835 55.4414 81.8066 55.7911 82.5075C56.3158 83.2959 55.0041 84.1719 54.2171 84.6099C52.5556 85.486 45.9098 89.1653 43.024 90.7422C41.7998 91.443 41.0128 91.9686 39.3513 92.9322L39.2639 93.0198C37.9522 93.9835 37.4275 94.5967 37.0777 95.8232C37.0777 95.9108 37.0777 95.9984 37.0777 96.086C37.0777 98.8893 41.6249 97.6628 42.6743 97.2248C45.9972 95.9108 49.0578 93.9835 52.2933 92.319C54.5669 91.1802 56.753 89.7785 58.9392 88.4645C59.2015 88.2893 59.4639 88.2017 59.7262 88.2017C60.3383 88.2017 60.4258 88.3769 60.2509 88.9025C60.1634 89.0777 60.076 89.2529 59.9011 89.3405C59.2015 89.7785 47.0465 97.4 45.6474 99.5025C45.2976 100.116 45.1227 101.167 45.56 101.693C46.347 102.656 48.0085 102.569 49.2327 102.043C51.2439 101.167 53.1678 100.116 55.0041 98.8893C57.6275 97.0496 60.2509 95.3851 62.8743 93.5455C63.3115 93.2827 63.7487 92.9322 64.2734 92.9322C64.7106 92.9322 64.8855 93.0198 64.7106 93.5455C64.4483 94.2463 57.7149 99.9405 56.5781 101.517C56.0535 102.306 55.6162 103.357 56.2284 103.97C56.9279 104.759 57.8898 104.759 59.6388 103.795C61.2128 102.919 62.6994 101.78 64.1859 100.641C66.1098 99.1521 68.121 97.6628 70.0448 96.086C71.2691 95.1223 79.7513 86.8876 80.8881 85.486C80.9756 85.3984 80.9755 85.3984 81.063 85.3108C82.637 83.5587 84.1236 81.719 85.7851 80.0546C87.8838 77.8645 94.7046 70.243 98.902 64.4612C99.689 63.4099 100.301 62.4463 100.913 61.4827L86.0474 52.5471Z" fill="#FCEADF"/>
<path d="M57.2771 105.109C56.7525 105.109 56.2278 104.934 55.878 104.496C55.1784 103.707 55.6157 102.569 56.2278 101.693C56.8399 100.817 58.9386 98.9769 60.8624 97.1372C62.2616 95.8232 64.1854 94.0711 64.2728 93.8083C64.2728 93.7207 64.3603 93.6331 64.3603 93.6331H64.1854C63.7481 93.6331 63.3109 93.8959 62.8737 94.2463C61.3871 95.2976 59.8131 96.3488 58.3265 97.4001L58.1516 97.4877C57.1022 98.1885 56.0529 98.8893 55.0035 99.6777C53.0797 100.992 50.981 102.043 49.2321 102.831C48.7074 103.094 48.0953 103.182 47.4832 103.269H47.3958C46.5213 103.269 45.7343 103.007 45.297 102.393C44.7724 101.78 44.9473 100.641 45.3845 99.9406C46.6087 98.1885 55.2659 92.5819 58.5888 90.4794C59.2009 90.129 59.6382 89.7786 59.7256 89.7786C59.9005 89.691 59.988 89.6034 59.988 89.4282C60.0754 89.1653 60.0754 89.0777 60.0754 89.0777C60.0754 89.0777 59.988 88.9901 59.7256 88.9901C59.4633 88.9901 59.2884 89.0777 59.0261 89.1653C58.3265 89.6034 57.6269 89.9538 56.9274 90.3918L56.8399 90.4794C55.4408 91.2678 53.9542 92.2315 52.3802 93.0199C51.3308 93.5455 50.3689 94.0711 49.407 94.5967C47.3083 95.7356 45.1222 96.962 42.8486 97.8381C42.2364 98.1009 40.8373 98.4513 39.7005 98.5389H39.5256C38.5637 98.5389 37.8641 98.2761 37.4269 97.8381C37.0771 97.4877 36.9022 97.0496 36.9022 96.4364C36.9022 96.3488 36.9022 96.2612 36.9022 96.1736C37.252 94.8596 37.8641 94.1587 39.1758 93.2827L39.3507 93.1951C40.3126 92.6695 40.9248 92.2315 41.5369 91.881C42.0616 91.5306 42.4988 91.2678 43.0235 91.005C45.9092 89.4282 52.3802 85.8364 54.2165 84.8728C55.091 84.4348 55.6157 83.9091 55.7906 83.5587C55.7906 83.4711 55.7906 83.2959 55.7031 83.2083C55.7031 83.2083 55.7031 83.1207 55.5282 83.1207C54.9161 83.1207 53.7793 83.6463 52.9923 84.0844C52.6425 84.2596 52.3802 84.4348 52.2053 84.4348C45.4719 87.6761 40.9248 89.3405 38.4763 89.3405H38.3014C36.9897 89.3405 36.2027 88.9025 36.0278 88.0265C35.678 86.5372 37.7767 84.7852 39.6131 83.7339C41.7992 82.5951 44.7724 81.1934 47.833 79.7918C50.7187 78.4777 53.7793 77.0761 56.3152 75.762C58.5014 74.5356 59.2009 73.1339 59.2009 72.3455C59.2009 71.9075 58.7637 71.6447 58.3265 71.6447C58.0641 71.5571 57.8018 71.5571 57.452 71.5571H57.2771C56.3152 71.5571 55.3533 71.9075 54.3914 72.1703C53.9542 72.3455 53.3421 72.4331 52.8174 72.6083H52.7299C51.3308 72.9587 49.8442 73.2215 48.3577 73.3091C48.2702 73.3091 48.0953 73.3091 48.0079 73.3091C47.7455 73.3091 47.4832 73.3091 47.2209 73.3091C46.6962 73.3091 46.259 73.1339 45.9092 72.9587C44.8598 72.4331 44.2477 71.8199 44.0728 71.1191C43.9854 70.5058 44.1603 69.805 44.8598 69.1042C45.4719 68.4034 46.4338 68.0529 47.3083 67.7901C47.5706 67.7025 47.7455 67.6149 47.9204 67.6149C49.407 67.0893 50.8936 66.4761 52.2927 65.8629C53.6919 65.2496 55.091 64.724 56.4901 64.1984C58.9386 63.3224 66.8087 61.9207 68.2953 61.6579C68.4702 61.6579 68.6451 61.6579 68.7325 61.6579C68.9074 61.6579 69.0823 61.6579 69.2572 61.6579C71.2685 61.6579 72.8425 61.9207 73.9793 62.0959C74.4165 62.1835 74.7663 62.2711 74.9412 62.2711C75.0286 62.2711 75.1161 62.2711 75.2035 62.2711H75.291C76.1654 62.2711 76.9525 62.0083 77.652 61.3951C79.9256 59.7306 83.2486 55.7009 85.6096 52.7224L85.6971 52.6348L86.659 53.248L86.5715 53.3356C83.6858 56.9273 80.0131 61.3951 78.439 62.5339C77.4771 63.2348 76.4278 63.6728 75.291 63.6728H75.1161C75.0287 63.6728 74.8538 63.6728 74.7663 63.6728C74.504 63.6728 74.1542 63.5852 73.6295 63.4976C72.6676 63.3224 71.0061 63.0596 69.1698 63.0596C68.9949 63.0596 68.82 63.0596 68.6451 63.0596H68.2953C66.8087 63.2348 59.2009 64.6364 56.8399 65.5125C55.4408 66.0381 54.0416 66.5637 52.7299 67.1769C51.2434 67.7901 49.7568 68.4034 48.2702 69.0166C48.0953 69.1042 47.833 69.1918 47.6581 69.1918C46.9585 69.4546 46.1715 69.6298 45.8217 70.0678C45.4719 70.5058 45.3845 70.7686 45.3845 70.9439C45.3845 71.1191 45.7343 71.4695 46.4338 71.8199C46.6087 71.9075 46.8711 71.9951 47.2209 71.9951C47.3958 71.9951 47.6581 71.9951 47.833 71.9951H48.0953C49.407 71.9951 50.8061 71.6447 52.2053 71.3819H52.2927C52.7299 71.2943 53.2546 71.1191 53.6919 71.0315C54.7412 70.7687 55.7906 70.4182 56.9274 70.4182H57.1022C57.5395 70.4182 57.8893 70.4182 58.239 70.5058C59.3758 70.7686 60.1629 71.5571 60.1629 72.6083C60.2503 74.1852 58.9386 75.9372 56.665 77.2513L56.8399 76.9009C54.2165 78.2149 51.2434 79.6166 48.3577 80.9306C45.2096 82.3323 42.3239 83.6463 40.1377 84.8728C38.039 86.0116 37.1646 87.2381 37.252 87.5885C37.252 87.6761 37.5144 87.8513 38.1265 87.8513H38.3014C41.7118 87.7637 49.0572 84.2596 51.5057 83.0331L51.5932 82.9455C51.768 82.8579 52.0304 82.7703 52.2927 82.5951C53.517 81.9819 54.5663 81.5439 55.3533 81.4563C56.2278 81.4563 56.665 81.9819 56.8399 82.2447C57.1022 82.6827 57.1897 83.1207 57.0148 83.6463C56.8399 84.4348 56.0529 85.2232 54.8287 85.8364C53.0797 86.8001 46.6087 90.3042 43.723 91.9686C43.1983 92.2315 42.7611 92.5819 42.2364 92.8447C41.6243 93.1951 40.9248 93.6331 39.9629 94.1587C38.8261 95.0348 38.4763 95.3852 38.3014 96.2612C38.3014 96.4364 38.3014 96.6116 38.3888 96.6992C38.5637 96.8744 39.0009 96.962 39.5256 96.962H39.7005C40.7499 96.962 41.8867 96.6116 42.4113 96.4364C44.5975 95.5604 46.7836 94.3339 48.8823 93.1951C49.8442 92.6695 50.8936 92.1439 51.9429 91.5306C53.4295 90.7422 54.9161 89.8662 56.3152 89.0777C57.0148 88.6397 57.8018 88.2017 58.5014 87.7637C58.8512 87.5885 59.2884 87.4133 59.8131 87.3257H59.9005C60.1629 87.3257 60.8624 87.3257 61.3871 87.9389C61.8243 88.5521 61.6494 89.2529 61.562 89.5158C61.3871 89.9538 61.2122 90.3042 60.775 90.567C60.6875 90.6546 60.3377 90.8298 59.7256 91.2678L59.6382 91.3554C51.9429 96.3488 47.6581 99.4149 46.8711 100.466C46.6962 100.817 46.6962 101.255 46.6962 101.342C46.8711 101.517 47.2209 101.693 47.6581 101.693C48.1828 101.693 48.62 101.605 48.9698 101.43C50.7187 100.641 52.73 99.6777 54.5663 98.3637C55.6157 97.5753 56.7525 96.8744 57.8893 96.1736H58.0642L57.9767 96.086C59.4633 95.1224 60.9499 94.0711 62.4364 93.0199C62.8737 92.6695 63.5732 92.2315 64.4477 92.1439H64.6226C65.3222 92.1439 65.6719 92.4943 65.9343 92.7571C66.1966 93.1951 66.2841 93.7207 66.0217 94.3339C65.8468 94.8596 65.0598 95.5604 62.2616 98.1009C60.5126 99.7653 58.239 101.78 57.7144 102.481C57.2771 103.094 57.2771 103.532 57.2771 103.532C57.3646 103.707 57.452 103.707 57.6269 103.707C57.8893 103.707 58.4139 103.62 59.2884 103.094C61.0373 102.131 62.5239 100.992 63.6607 100.028C64.5351 99.3273 65.4096 98.7141 66.2841 98.0133C67.4209 97.1372 68.4702 96.3488 69.5196 95.4728C70.7438 94.5091 79.1386 86.2744 80.188 85.048L81.3248 83.7339C82.549 82.3323 83.7732 80.9306 85.0849 79.6166C87.0962 77.5141 93.917 69.8926 98.1144 64.1984C98.7265 63.41 99.3386 62.3587 100.038 61.3075L100.126 61.2199L101.35 62.0083L101.262 62.0959C100.563 63.1472 99.9507 64.1108 99.2512 65.0744C94.9663 70.9439 88.233 78.4777 86.1343 80.6678C84.8226 81.9819 83.5984 83.3835 82.4616 84.7852L80.975 86.0992C79.8382 87.4133 71.3559 95.648 70.1317 96.6992C69.0823 97.4877 68.033 98.3637 66.9836 99.1521L66.8962 99.2397C66.0217 99.9406 65.1473 100.641 64.2728 101.255C63.0486 102.218 61.4745 103.445 59.7256 104.408C58.6763 104.846 57.9767 105.109 57.2771 105.109Z" fill="#A92224"/>
<path d="M73.1048 93.7207C73.0174 93.7207 73.0174 93.7207 72.93 93.7207C72.2304 93.6331 71.7057 93.3703 71.4434 92.8447C71.3559 92.6695 71.2685 92.5819 70.9187 92.5819C69.2572 92.6695 68.033 92.1438 67.1585 90.9174C66.5464 90.129 66.7213 89.3405 66.8962 88.6397V88.5521C65.2347 87.8513 64.1854 86.5372 64.0979 84.7852C64.0105 83.4711 64.3603 82.2447 65.0598 81.281C65.9343 80.1422 66.8087 79.3537 67.8581 78.8281C68.033 78.7405 68.3828 78.5653 68.1204 77.5141C68.1204 77.4265 68.033 77.3389 68.033 77.2513C67.9455 77.0761 67.9455 76.8133 67.8581 76.638C67.6832 75.4116 68.1204 73.7471 70.9187 73.2215C72.3178 72.9587 73.1923 73.8347 73.6295 74.6232C74.7663 74.01 76.5152 74.5356 77.4771 75.6744C78.2641 76.638 78.6139 77.5141 78.5265 78.5653C78.7014 79.8794 77.8269 80.6678 77.2148 81.1934C77.1274 81.1934 77.1274 81.281 77.1274 81.281C77.1274 81.281 77.1274 81.3686 77.2148 81.4562C77.9144 83.2959 77.8269 84.9604 76.7776 86.4496C76.6027 86.7124 76.4278 86.9752 76.3403 87.2381C76.078 87.6761 75.8157 88.1141 75.4659 88.5521C75.291 88.7273 75.3784 88.9901 75.4659 89.4281C75.4659 89.5157 75.4659 89.6033 75.4659 89.6033C75.6408 90.9174 75.3784 92.0562 74.6789 93.2827C74.4165 93.4579 73.8044 93.7207 73.1048 93.7207Z" fill="white"/>
<path d="M72.9299 94.2463C72.0554 94.1587 71.4433 93.8083 71.0935 93.1075C70.9186 93.1075 70.7437 93.1075 70.5688 93.1075C68.9948 93.1075 67.6831 92.4943 66.8087 91.1802C66.1966 90.3918 66.284 89.5157 66.3714 88.8149C64.71 88.0265 63.7481 86.5372 63.5732 84.7852C63.4857 83.3835 63.8355 81.9819 64.6225 80.9306C65.497 79.7042 66.4589 78.8281 67.5957 78.3025C67.6831 78.3025 67.6831 78.0397 67.5957 77.5141V77.3389C67.5082 77.0761 67.4208 76.8133 67.4208 76.5505C67.2459 75.324 67.5082 73.2215 70.9186 72.5207C71.0935 72.5207 71.3559 72.4331 71.5308 72.4331C72.4927 72.4331 73.2797 72.8711 73.8918 73.7472C74.1541 73.6596 74.5039 73.6596 74.7662 73.6596C75.903 73.6596 77.1273 74.2728 77.9143 75.1488C78.7888 76.2 79.1385 77.2513 79.0511 78.3901C79.226 79.7042 78.439 80.5802 77.7394 81.281C78.439 83.2083 78.2641 84.9604 77.2147 86.5372C77.0398 86.7124 76.9524 86.9753 76.7775 87.2381C76.5152 87.6761 76.2528 88.2017 75.903 88.6397C75.903 88.6397 75.903 88.8149 75.9905 89.0777V89.2529C76.2528 90.6546 75.903 91.9686 75.116 93.2827C74.7662 93.8959 73.9792 94.3339 73.1048 94.3339C73.0173 94.2463 72.9299 94.2463 72.9299 94.2463ZM71.0935 92.1438C71.5308 92.1438 71.7931 92.3191 71.968 92.6695C72.1429 93.0199 72.4927 93.1951 73.0173 93.1951H73.1048C73.6295 93.1951 74.0667 93.0199 74.2416 92.6695C74.8537 91.6182 75.116 90.4794 74.9411 89.3405V89.1653C74.8537 88.7273 74.7662 88.2017 75.116 87.8513C75.4658 87.5009 75.6407 87.0629 75.903 86.6248C76.0779 86.362 76.2528 86.0992 76.4277 85.8364C77.3022 84.5224 77.4771 83.0331 76.7775 81.3686C76.7775 81.281 76.6901 81.1934 76.6901 81.1934L76.6026 80.9306L76.7775 80.6678L76.865 80.5802C77.3896 80.1422 78.1766 79.4414 78.0017 78.3901V78.3025C78.0892 77.4265 77.7394 76.6381 77.1273 75.762C76.6026 75.0612 75.6407 74.6232 74.7662 74.6232C74.4165 74.6232 74.1541 74.7108 73.8918 74.7984L73.4546 75.1488L73.2797 74.7108C72.755 73.9224 72.2303 73.4843 71.5308 73.4843C71.3559 73.4843 71.2684 73.4843 71.0935 73.4843C69.1697 73.8348 68.2078 74.7984 68.4701 76.3753C68.4701 76.5505 68.5576 76.7257 68.5576 76.9009C68.5576 76.9885 68.645 77.0761 68.645 77.2513C68.9074 78.3025 68.7325 78.9157 68.1204 79.1786C67.1585 79.7042 66.3714 80.405 65.497 81.5438C64.7974 82.4199 64.5351 83.5587 64.6225 84.6976C64.71 86.2744 65.5844 87.4133 67.1585 88.0265L67.5957 88.2017L67.5082 88.7273C67.4208 89.3405 67.2459 89.9538 67.6831 90.567C68.3827 91.6182 69.3446 92.0562 70.5688 92.0562C70.7437 92.0562 70.8312 92.0562 71.0061 92.0562C71.0061 92.1439 71.0935 92.1438 71.0935 92.1438Z" fill="#A92224"/>
<path d="M71.8805 71.3818C71.4433 71.3818 70.3065 71.3819 69.9567 70.1554C69.8692 70.1554 69.7818 70.1554 69.6943 70.1554H69.6069C68.5575 70.1554 67.858 69.7174 67.5082 68.7537C67.2458 67.9653 67.4207 67.0017 68.0329 66.4761C68.645 65.8628 69.7818 65.7752 70.4814 66.2133C70.4814 66.2133 70.4813 66.2133 70.5688 66.2133C71.2684 65.162 73.1922 64.9868 74.1541 65.6C75.4658 66.3009 75.9904 67.7901 75.5532 69.0166C75.116 69.805 72.8424 71.3818 71.8805 71.3818Z" fill="white"/>
<path d="M71.7932 71.9075C71.3559 71.9075 70.1317 71.9075 69.5196 70.681C68.2079 70.681 67.3334 70.0678 66.8962 68.929C66.5464 67.9653 66.8088 66.8265 67.5083 66.1257C67.9456 65.6876 68.6451 65.4248 69.3447 65.4248C69.6945 65.4248 69.9568 65.5124 70.2191 65.6C70.7438 65.0744 71.6183 64.724 72.5802 64.724C73.1923 64.724 73.8044 64.8992 74.2417 65.0744C75.7282 65.9504 76.4278 67.6149 75.8157 69.1042C75.5533 70.1554 73.0174 71.9075 71.7932 71.9075ZM71.8806 70.8562C72.5802 70.8562 74.6789 69.4546 74.9412 68.7537C75.291 67.7025 74.8538 66.5637 73.8044 65.9504C73.5421 65.7752 73.1049 65.6876 72.6676 65.6876C71.8806 65.6876 71.181 65.9504 70.8313 66.3885L70.5689 66.8265L70.1317 66.5637C69.9568 66.4761 69.6945 66.3885 69.4321 66.3885C68.9949 66.3885 68.5577 66.5637 68.2953 66.7389C67.8581 67.1769 67.6832 67.8777 67.9456 68.4909C68.2079 69.1918 68.7326 69.5422 69.607 69.5422L69.6945 69.6298V69.5422C69.8694 69.5422 69.9568 69.5422 70.0443 69.5422L70.2191 69.6298L70.394 69.805V69.8926C70.6564 70.7686 71.2685 70.8562 71.8806 70.8562Z" fill="#A92224"/>
<path d="M48.795 35.9025C48.3578 35.9025 48.0955 36.2529 48.0955 36.6033V37.4793C48.0955 37.9173 48.4452 38.1801 48.795 38.1801C49.2323 38.1801 49.4946 37.8297 49.4946 37.4793V36.6033C49.4946 36.2529 49.1448 35.9025 48.795 35.9025Z" fill="#A92224"/>
<path d="M48.795 38.6182C48.3578 38.6182 48.0955 38.9686 48.0955 39.319V41.1587C48.0955 41.5967 48.4452 41.8595 48.795 41.8595C49.2323 41.8595 49.4946 41.5091 49.4946 41.1587V39.319C49.4946 38.881 49.1448 38.6182 48.795 38.6182Z" fill="#A92224"/>
<path d="M48.795 42.21C48.3578 42.21 48.0955 42.5604 48.0955 42.9108V44.7505C48.0955 45.1885 48.4452 45.4513 48.795 45.4513C49.2323 45.4513 49.4946 45.1009 49.4946 44.7505V42.9108C49.4946 42.5604 49.1448 42.21 48.795 42.21Z" fill="#A92224"/>
<path d="M48.795 45.8016C48.3578 45.8016 48.0955 46.152 48.0955 46.5025V48.3421C48.0955 48.7801 48.4452 49.043 48.795 49.043C49.2323 49.043 49.4946 48.6925 49.4946 48.3421V46.5025C49.4946 46.152 49.1448 45.8016 48.795 45.8016Z" fill="#A92224"/>
<path d="M48.795 49.481C48.3578 49.481 48.0955 49.8314 48.0955 50.1818V51.0578C48.0955 51.4958 48.4452 51.7586 48.795 51.7586C49.2323 51.7586 49.4946 51.4082 49.4946 51.0578V50.1818C49.4946 49.7438 49.1448 49.481 48.795 49.481Z" fill="#A92224"/>
<path d="M45.297 35.9025C45.2096 35.9025 45.2096 35.9025 45.1221 35.9025C44.7723 35.9025 44.51 36.1653 44.4225 36.4281L44.2476 37.3041C44.1602 37.4793 44.2476 37.6545 44.3351 37.8297C44.4225 38.0049 44.5974 38.0925 44.7723 38.1801C44.8598 38.1801 44.8598 38.1801 44.9472 38.1801C45.297 38.1801 45.5593 37.9173 45.6468 37.6545L45.8217 36.7785C45.9091 36.6033 45.8217 36.4281 45.7342 36.2529C45.6468 36.0777 45.5593 35.9025 45.297 35.9025Z" fill="#A92224"/>
<path d="M43.898 41.9471C43.8105 41.9471 43.8105 41.9471 43.7231 41.9471C43.3733 41.9471 43.1109 42.21 43.0235 42.4728L42.5863 44.2248C42.4988 44.4 42.5863 44.5752 42.6737 44.7504C42.7612 44.9257 42.9361 45.0133 43.1109 45.1009C43.1984 45.1009 43.1984 45.1009 43.2858 45.1009C43.6356 45.1009 43.898 44.8381 43.9854 44.5752L44.4226 42.8232C44.5101 42.648 44.4226 42.4728 44.3352 42.2976C44.2477 42.1224 44.0729 42.0347 43.898 41.9471Z" fill="#A92224"/>
<path d="M43.0235 45.5388C42.936 45.5388 42.936 45.5388 42.8486 45.5388C42.4988 45.5388 42.2364 45.8016 42.149 46.0644L41.7118 47.8165C41.6243 48.1669 41.8867 48.6049 42.2364 48.6925C42.3239 48.6925 42.3239 48.6925 42.4113 48.6925C42.7611 48.6925 43.0235 48.4297 43.1109 48.1669L43.5481 46.4149C43.6356 45.9768 43.3732 45.6264 43.0235 45.5388Z" fill="#A92224"/>
<path d="M44.6851 38.443C44.5976 38.443 44.5976 38.443 44.5102 38.443C44.1604 38.443 43.8981 38.7058 43.8106 38.9686L43.3734 40.7207C43.2859 41.0711 43.5483 41.5091 43.8981 41.5967C43.9855 41.5967 43.9855 41.5967 44.073 41.5967C44.4227 41.5967 44.6851 41.3339 44.7725 41.0711L45.2098 39.319C45.3847 38.9686 45.1223 38.6182 44.6851 38.443Z" fill="#A92224"/>
<path d="M42.149 49.043C42.0616 49.043 42.0616 49.043 41.9742 49.043C41.6244 49.043 41.362 49.3058 41.2746 49.5686L41.0997 50.4446C41.0123 50.6198 41.0997 50.795 41.1871 50.9702C41.2746 51.1454 41.4495 51.233 41.6244 51.3207C41.7118 51.3207 41.7118 51.3207 41.7993 51.3207C42.149 51.3207 42.4114 51.0578 42.4988 50.795L42.6737 49.919C42.7612 49.481 42.5863 49.1306 42.149 49.043Z" fill="#A92224"/>
<path d="M52.5551 38.0925C52.9048 38.0049 53.1672 37.5669 53.0797 37.2165L52.9049 36.4281C52.8174 36.0777 52.5551 35.9025 52.2053 35.9025C52.1178 35.9025 52.1178 35.9025 52.0304 35.9025C51.6806 35.9901 51.4183 36.4281 51.5057 36.7785L51.6806 37.5669C51.7681 37.9173 52.0304 38.0925 52.3802 38.0925C52.4676 38.1801 52.5551 38.1801 52.5551 38.0925Z" fill="#A92224"/>
<path d="M55.2659 48.6925C55.4408 48.6049 55.6157 48.5173 55.7031 48.3421C55.7906 48.1669 55.7906 47.9917 55.7906 47.8165L55.3533 46.0644C55.2659 45.714 55.0036 45.5388 54.6538 45.5388C54.5663 45.5388 54.5663 45.5388 54.4789 45.5388C54.1291 45.6264 53.8668 46.0644 53.9542 46.4149L54.3914 48.1669C54.4789 48.5173 54.7412 48.6925 55.091 48.6925C55.1784 48.6925 55.1784 48.6925 55.2659 48.6925Z" fill="#A92224"/>
<path d="M54.3914 45.1884C54.7412 45.1008 55.0035 44.6628 54.9161 44.3124L54.4788 42.5603C54.3914 42.2099 54.129 42.0347 53.7793 42.0347C53.6918 42.0347 53.6918 42.0347 53.6044 42.0347C53.2546 42.1223 52.9922 42.5603 53.0797 42.9107L53.5169 44.6628C53.6044 45.0132 53.8667 45.1884 54.2165 45.1884C54.3039 45.1884 54.3039 45.1884 54.3914 45.1884Z" fill="#A92224"/>
<path d="M53.5171 41.5967C53.8669 41.5091 54.1292 41.0711 54.0418 40.7207L53.6046 38.9686C53.5171 38.6182 53.2548 38.443 52.905 38.443C52.8175 38.443 52.8175 38.443 52.7301 38.443C52.3803 38.5306 52.118 38.9686 52.2054 39.319L52.6427 41.0711C52.7301 41.4215 52.9924 41.5967 53.3422 41.5967C53.3422 41.6843 53.4297 41.6843 53.5171 41.5967Z" fill="#A92224"/>
<path d="M56.4903 50.357L56.3154 49.5686C56.2279 49.2182 55.9656 49.043 55.6158 49.043C55.5284 49.043 55.5284 49.043 55.4409 49.043C55.266 49.1306 55.0912 49.2182 55.0037 49.3934C54.9163 49.5686 54.9163 49.7438 54.9163 49.919L55.0912 50.7074C55.1786 51.0578 55.4409 51.233 55.7907 51.233C55.8782 51.233 55.8782 51.233 55.9656 51.233C56.1405 51.1454 56.3154 51.0578 56.4028 50.8826C56.4903 50.7074 56.4903 50.5322 56.4903 50.357Z" fill="#A92224"/>
<path d="M52.4675 31.4347C52.2926 31.4347 52.1177 31.2595 52.1177 31.0843L52.0303 25.6529C51.7679 19.6083 44.1601 19.8711 44.1601 19.8711H34.9783C34.8034 19.8711 34.6285 19.6959 34.6285 19.5207L34.1038 14.3521C34.1038 14.0893 34.2787 13.914 34.4536 13.914C34.8034 13.914 35.0657 13.6512 35.0657 13.3008V11.724C35.0657 10.7603 34.2787 9.8843 33.2294 9.8843H32.4424C32.2675 9.8843 32.0926 9.70909 32.0926 9.53388V8.74545C32.0926 8.57025 32.2675 8.39504 32.4424 8.39504H39.0008C39.1757 8.39504 39.3506 8.21983 39.3506 8.04463C39.3506 6.99339 39.1757 3.83967 35.503 3.83967H32.9671C32.7922 3.83967 32.6173 3.75207 32.6173 3.57686C32.3549 2.70083 31.5679 2 30.606 2H29.2943C28.3324 2 27.5454 2.70083 27.2831 3.57686C27.2831 3.75207 27.1082 3.83967 26.9333 3.83967H24.3974C20.8121 3.83967 20.5497 6.99339 20.5497 8.04463C20.5497 8.21983 20.7246 8.39504 20.8995 8.39504H27.458C27.6329 8.39504 27.8077 8.57025 27.8077 8.74545V9.53388C27.9826 9.70909 27.8952 9.8843 27.6329 9.8843H26.8458C25.7965 9.8843 24.922 10.7603 24.922 11.8116V13.038C24.922 13.6512 25.2718 13.8264 25.6216 13.8264C25.7965 13.8264 25.8839 14.0017 25.7965 14.1769L25.3593 19.5207C25.3593 19.6959 25.1844 19.8711 25.0095 19.8711H11.3679C11.193 19.8711 11.0181 19.6959 11.0181 19.5207V16.7174C11.0181 16.0165 10.6683 15.3157 9.96878 14.9653C8.21986 14.0017 6.47095 15.2281 6.47095 16.8926V30.9091C6.47095 31.6099 6.82073 32.3107 7.5203 32.6612C9.26922 33.6248 11.0181 32.3983 11.0181 30.7339V28.9818C11.0181 28.8066 11.193 28.6314 11.3679 28.6314H23.348C23.5229 28.6314 23.6103 28.719 23.6978 28.8942C24.5722 31.0843 27.1082 32.6612 30.0813 32.6612C33.0545 32.6612 35.5904 31.0843 36.4649 28.8942C36.5523 28.719 36.6398 28.6314 36.8147 28.6314H44.9471C45.122 28.6314 45.2969 28.8066 45.2969 28.9818V31.1719C45.2969 31.3471 45.122 31.5223 44.9471 31.5223H44.6848C44.1601 31.5223 43.7229 31.9603 43.7229 32.4859V32.8364C43.7229 33.362 44.1601 33.8 44.6848 33.8H52.4675C52.9922 33.8 53.4294 33.362 53.4294 32.8364V32.4859C53.4294 31.8727 52.9922 31.4347 52.4675 31.4347Z" fill="#A92224"/>
<path d="M69.9565 30.9092C68.6449 27.5802 66.8959 25.4778 63.573 24.1637C66.8085 22.2364 68.6449 19.8711 69.9565 17.243C71.2682 19.9587 73.1046 22.4992 76.3401 24.3389C73.1046 25.653 71.2682 27.843 69.9565 30.9092Z" fill="#FFEC00"/>
<path d="M69.9567 31.6099C69.6943 31.6099 69.432 31.4347 69.3445 31.1719C67.9454 27.7554 66.2839 26.0033 63.3108 24.7769C63.0484 24.6893 62.961 24.4265 62.8735 24.2512C62.8735 23.9884 62.961 23.7256 63.2233 23.638C66.0216 21.9736 67.9454 19.8711 69.3445 16.9802C69.432 16.7174 69.6943 16.6298 69.9567 16.6298C70.219 16.6298 70.4813 16.805 70.5688 16.9802C71.9679 19.9587 73.9792 22.2364 76.69 23.8132C76.8649 23.9008 77.0398 24.1636 77.0398 24.4265C77.0398 24.6893 76.8649 24.8645 76.6025 24.9521C73.7168 26.0909 71.8805 28.0182 70.6562 31.1719C70.4813 31.4347 70.3064 31.6099 69.9567 31.6099ZM64.9722 24.076C67.2458 25.2149 68.7324 26.8793 69.9567 29.3322C71.1809 26.967 72.7549 25.3901 74.9411 24.2512C72.8424 22.8496 71.1809 21.0099 69.9567 18.6446C68.7324 20.9223 67.0709 22.6744 64.9722 24.076Z" fill="#A92224"/>
<path d="M6.99561 72.9587C5.68392 69.6298 3.935 67.5273 0.612061 66.2133C3.84756 64.286 5.68392 61.9207 6.99561 59.2926C8.3073 62.0083 10.1437 64.5488 13.3792 66.3885C10.1437 67.7025 8.3073 69.8926 6.99561 72.9587Z" fill="#FFEC00"/>
<path d="M6.99567 73.6595C6.73333 73.6595 6.471 73.4843 6.38355 73.2215C4.98442 69.8049 3.32294 68.0529 0.349784 66.8264C0.174892 66.7388 0 66.5636 0 66.3008C0 66.038 0.0874459 65.7752 0.349784 65.6876C3.14805 64.0231 5.07186 61.9206 6.471 59.0297C6.55844 58.7669 6.82078 58.6793 7.08312 58.6793C7.34545 58.6793 7.60779 58.8545 7.69524 59.0297C9.09437 62.0082 11.1056 64.2859 13.8165 65.8628C13.9913 65.9504 14.1662 66.2132 14.1662 66.476C14.1662 66.7388 13.9913 66.914 13.729 67.0016C10.8433 68.1405 9.00693 70.0678 7.78268 73.2215C7.52035 73.4843 7.34545 73.6595 6.99567 73.6595ZM2.01126 66.1256C4.28485 67.2644 5.77143 68.9289 6.99567 71.3818C8.21991 69.0165 9.79394 67.4397 11.9801 66.3008C9.88138 64.8992 8.30736 63.0595 6.99567 60.6942C5.77143 62.9719 4.10996 64.7239 2.01126 66.1256Z" fill="#A92224"/>
</g>
<path d="M123.843 9.36479C123.843 11.7278 121.904 13.6533 119.525 13.6533C117.146 13.6533 115.208 11.7278 115.208 9.36479C115.208 7.00174 117.146 5.07629 119.525 5.07629C121.904 5.07629 123.843 7.00174 123.843 9.36479Z" fill="white"/>
<path d="M119.526 14.1784C116.882 14.1784 114.679 11.9904 114.679 9.36476C114.679 6.73915 116.882 4.55115 119.526 4.55115C122.169 4.55115 124.372 6.73915 124.372 9.36476C124.46 11.9904 122.257 14.1784 119.526 14.1784ZM119.526 5.68891C117.499 5.68891 115.825 7.3518 115.825 9.36476C115.825 11.3777 117.499 13.0406 119.526 13.0406C121.552 13.0406 123.226 11.3777 123.226 9.36476C123.314 7.3518 121.64 5.68891 119.526 5.68891Z" fill="#A92224"/>
<path d="M104.899 25.7311C104.899 28.0067 103.049 29.8446 100.758 29.8446C98.467 29.8446 96.6167 28.0067 96.6167 25.7311C96.6167 23.4556 98.467 21.6177 100.758 21.6177C103.049 21.6177 104.899 23.4556 104.899 25.7311Z" fill="white"/>
<path d="M100.758 30.3697C98.1147 30.3697 96 28.2692 96 25.6436C96 23.018 98.1147 20.9175 100.758 20.9175C103.401 20.9175 105.516 23.018 105.516 25.6436C105.428 28.2692 103.313 30.3697 100.758 30.3697ZM100.758 22.1428C98.8195 22.1428 97.1454 23.7181 97.1454 25.7311C97.1454 27.6565 98.7314 29.3194 100.758 29.3194C102.696 29.3194 104.37 27.7441 104.37 25.7311C104.282 23.7181 102.696 22.1428 100.758 22.1428Z" fill="#A92224"/>
<path d="M121.464 31.77C121.464 33.1703 120.318 34.3081 118.909 34.3081C117.499 34.3081 116.354 33.1703 116.354 31.77C116.354 30.3697 117.499 29.2319 118.909 29.2319C120.318 29.2319 121.464 30.3697 121.464 31.77Z" fill="white"/>
<path d="M118.997 34.8332C117.323 34.8332 115.913 33.4329 115.913 31.77C115.913 30.1071 117.323 28.7068 118.997 28.7068C120.671 28.7068 122.081 30.1071 122.081 31.77C122.081 33.4329 120.671 34.8332 118.997 34.8332ZM118.997 29.8446C117.939 29.8446 117.058 30.7198 117.058 31.77C117.058 32.8202 117.939 33.6954 118.997 33.6954C120.054 33.6954 120.935 32.8202 120.935 31.77C120.935 30.7198 120.054 29.8446 118.997 29.8446Z" fill="#A92224"/>
<path d="M115.825 23.368C115.825 25.1184 114.327 26.6063 112.565 26.6063C110.803 26.6063 109.305 25.1184 109.305 23.368C109.305 21.6176 110.803 20.1298 112.565 20.1298C114.327 20.1298 115.825 21.5301 115.825 23.368Z" fill="white"/>
<path d="M112.565 27.1313C110.45 27.1313 108.688 25.3809 108.688 23.2805C108.688 21.18 110.45 19.4296 112.565 19.4296C114.679 19.4296 116.442 21.18 116.442 23.2805C116.442 25.3809 114.679 27.1313 112.565 27.1313ZM112.565 20.6548C111.067 20.6548 109.833 21.8801 109.833 23.368C109.833 24.8558 111.067 26.0811 112.565 26.0811C114.063 26.0811 115.296 24.8558 115.296 23.368C115.296 21.8801 114.063 20.6548 112.565 20.6548Z" fill="#A92224"/>
<path d="M126.927 61.0892C123.843 61.7019 120.671 61.7894 116.089 62.3145C117.499 68.1784 133.799 93.8218 137.5 97.6727C139.262 90.4085 139.615 89.8834 140.936 82.7943C136.795 76.4928 133.094 71.6792 126.927 61.0892Z" fill="white"/>
<path d="M137.94 99.4231L136.795 98.2853C133.182 94.5219 116.618 68.8785 115.208 62.577L114.944 61.6143L115.913 61.5268C117.675 61.3518 119.261 61.1767 120.671 61.0892C122.962 60.9142 124.9 60.7391 126.662 60.389L127.279 60.3015L127.632 60.8266C132.037 68.4409 135.209 73.0795 138.293 77.4555C139.438 79.1184 140.496 80.6937 141.641 82.4441L141.817 82.7067V82.9693C140.936 87.5203 140.496 89.4458 139.791 92.0714C139.438 93.5592 138.998 95.3096 138.381 97.8477L137.94 99.4231ZM117.234 63.0146C119.613 69.4036 132.213 89.6208 137.059 95.6597C137.5 93.9968 137.764 92.684 138.117 91.5462C138.822 88.9206 139.262 87.1702 140.055 82.8817C138.998 81.3064 137.94 79.8185 136.883 78.2432C133.887 73.8672 130.803 69.4036 126.486 62.0519C124.724 62.402 122.962 62.4895 120.847 62.6646C119.79 62.8396 118.556 62.9271 117.234 63.0146Z" fill="#A92224"/>
<path d="M113.622 46.6483C103.049 51.812 110.01 62.4895 114.767 62.1394L113.622 46.6483Z" fill="#FCEADF"/>
<path d="M114.503 62.9271C111.684 62.9271 108.6 60.039 107.542 56.3631C107.014 54.3502 106.397 49.1865 113.181 45.9482L114.239 45.4231L115.472 62.9271L114.679 63.0147C114.679 62.9271 114.591 62.9271 114.503 62.9271ZM112.829 47.8737C108.423 50.4993 108.512 54.0001 109.04 55.9255C109.833 58.7262 111.948 60.8267 113.798 61.2643L112.829 47.8737Z" fill="#A92224"/>
<path d="M121.376 42.6224C121.376 44.1978 120.23 45.4231 118.732 45.4231C117.323 45.4231 116.089 44.1978 116.089 42.6224C116.089 41.0471 117.235 39.8218 118.732 39.8218C120.142 39.8218 121.376 41.0471 121.376 42.6224Z" fill="#FCEADF"/>
<path d="M118.732 46.2982C116.882 46.2982 115.296 44.6354 115.296 42.7099C115.296 40.6969 116.794 39.1216 118.732 39.1216C120.671 39.1216 122.169 40.7845 122.169 42.7099C122.169 44.6354 120.583 46.2982 118.732 46.2982ZM118.732 40.6094C117.763 40.6094 116.882 41.4846 116.882 42.6224C116.882 43.7602 117.675 44.6354 118.732 44.6354C119.702 44.6354 120.583 43.7602 120.583 42.6224C120.583 41.4846 119.702 40.6094 118.732 40.6094Z" fill="#A92224"/>
<path d="M125.429 65.4652H115.032C114.239 65.4652 113.622 64.8526 113.534 64.0649L112.036 44.4604C111.948 43.5852 112.653 42.885 113.534 42.885L127.367 42.9725C128.248 42.9725 128.953 43.7602 128.865 44.6354L126.927 64.0649C126.839 64.8526 126.222 65.4652 125.429 65.4652Z" fill="white"/>
<path d="M129.129 42.9725C128.689 42.5349 128.072 42.1848 127.455 42.1848H113.622C113.005 42.1848 112.388 42.4474 111.948 42.885C111.507 43.3226 111.243 44.0227 111.331 44.6354L112.741 64.1524C112.829 65.3777 113.798 66.2529 115.032 66.2529H125.429C126.574 66.2529 127.632 65.3777 127.72 64.2399L129.658 44.8104C129.746 44.1103 129.482 43.4976 129.129 42.9725ZM113.093 43.9352C113.181 43.7602 113.446 43.7602 113.622 43.7602L127.455 43.8477C127.632 43.8477 127.808 43.9352 127.984 44.1103C128.072 44.2853 128.16 44.4603 128.16 44.6354L127.455 51.5495C125.957 50.6743 123.931 50.2367 122.609 50.5868C122.169 50.6743 121.728 50.9368 121.288 51.0244C120.495 51.3744 119.966 51.5495 119.349 51.3744C118.82 51.1994 118.38 50.8493 117.939 50.4117C117.587 50.1492 117.234 49.8866 116.882 49.624C115.825 48.9239 114.503 48.6613 113.27 48.8364L112.917 44.5479C112.917 44.2853 112.917 44.1103 113.093 43.9352ZM126.134 64.0649C126.134 64.415 125.781 64.6775 125.429 64.6775H115.032C114.679 64.6775 114.327 64.415 114.327 64.0649L113.27 50.2367C114.239 50.1492 115.208 50.3242 116.001 50.8493C116.265 51.0244 116.618 51.2869 116.882 51.5495C117.411 51.9871 118.027 52.5122 118.82 52.7748C120.054 53.2124 121.023 52.7748 121.816 52.4247C122.169 52.2496 122.521 52.1621 122.874 51.9871C124.019 51.7245 126.222 52.2496 127.103 53.2999L126.134 64.0649Z" fill="#A92224"/>
<path d="M157.501 56.2756C157.501 56.3632 141.905 63.1022 141.905 63.1022C141.112 61.0893 139.967 56.9758 135.826 43.7602C135.65 43.2351 128.072 40.9596 127.367 40.697C124.988 39.8218 124.812 39.2092 125.164 35.5333C125.517 32.0325 125.429 16.979 129.041 17.3291C134.328 17.9418 137.5 12.1654 138.822 9.0147C139.174 8.22702 140.143 8.1395 140.848 8.75214C145.342 12.5155 154.241 25.2935 153.888 30.0196C153.624 34.5706 152.214 37.1087 152.126 41.3097C152.038 44.723 155.122 49.7116 157.501 56.2756Z" fill="#FCEADF"/>
<path d="M141.377 64.0649L141.112 63.4523C140.584 62.0519 139.879 59.8639 138.205 54.4377C137.412 51.8121 136.355 48.5738 135.033 44.2853C134.328 43.9352 131.949 43.0601 127.896 41.7472C127.455 41.5722 127.103 41.4847 127.015 41.4847C124.019 40.4344 123.843 39.1216 124.283 35.3583C124.372 34.7456 124.372 33.6954 124.46 32.4701C124.812 25.6435 125.253 18.8169 127.455 16.8915C127.984 16.4539 128.513 16.2788 129.129 16.3664C133.535 16.8915 136.355 12.428 138.029 8.57706C138.293 7.96442 138.734 7.52682 139.35 7.4393C140.055 7.26426 140.848 7.4393 141.377 7.96442C145.782 11.6403 155.122 24.6808 154.77 29.932C154.593 32.2075 154.241 33.9579 153.8 35.7083C153.36 37.4587 153.007 39.1216 152.919 41.2221C152.831 43.4101 154.153 46.4733 155.739 49.8866C156.532 51.7246 157.413 53.7375 158.294 56.0131L158.382 56.1881V56.3631C158.294 56.8883 158.294 56.8883 155.474 58.1135C154.065 58.7262 152.126 59.6014 150.188 60.4766C142.346 63.8899 142.17 63.8899 142.082 63.8899L141.377 64.0649ZM128.865 18.1168C128.777 18.1168 128.689 18.1168 128.601 18.2043C126.839 19.6921 126.398 28.3566 126.222 32.4701C126.134 33.7829 126.134 34.7456 126.046 35.4458C125.693 39.0341 125.869 39.1216 127.632 39.7343C127.72 39.7343 128.072 39.9093 128.513 39.9968C136.355 42.5349 136.443 42.7975 136.707 43.3226V43.4101C138.117 47.7861 139.086 51.1994 139.967 53.825C141.289 58.2011 141.994 60.4766 142.522 61.8769C145.254 60.7391 153.977 56.9758 156.532 55.7505C155.827 53.825 155.034 52.0746 154.329 50.4993C152.655 46.6484 151.333 43.5852 151.421 41.0471C151.51 38.7716 151.95 37.0211 152.303 35.2707C152.655 33.6079 153.095 31.945 153.184 29.757C153.448 25.6435 144.813 12.9531 140.408 9.27722C140.231 9.10218 140.055 9.10218 139.879 9.10218C139.879 9.10218 139.791 9.10218 139.703 9.27722C136.971 15.5787 133.183 18.6419 128.865 18.1168Z" fill="#A92224"/>
<path d="M141.377 2.8007C140.584 3.15079 139.879 3.58839 139.174 4.11351C137.147 5.51383 133.975 8.48952 134.504 11.2026C134.68 12.2529 135.914 12.778 136.795 12.2529C137.412 11.9028 138.557 11.4652 138.557 11.4652C138.557 11.4652 146.223 23.2804 147.721 27.919C149.219 32.8202 145.958 38.4215 141.641 43.6727C140.231 45.4231 141.024 46.8234 143.315 47.1735C145.87 47.6111 146.575 47.8736 151.421 47.8736C150.805 48.3112 150.188 49.0114 149.923 49.624C149.571 50.2367 149.747 50.9368 150.452 51.0244C156.62 51.8996 171.246 46.5608 176.885 34.308C180.762 25.9061 178.736 15.3161 172.744 8.75208C165.783 1.0503 155.298 -1.83787 145.342 1.22534C144.02 1.57542 142.698 2.10054 141.377 2.8007Z" fill="#A92224"/>
<path d="M130.011 38.2464C129.834 38.2464 129.658 38.2464 129.482 38.2464C128.072 38.1589 126.927 37.0212 127.015 35.6208C127.103 32.4701 127.191 28.7067 127.72 25.1184C127.72 24.9434 127.808 24.6808 127.896 24.5058C127.984 24.4182 127.984 24.3307 128.072 24.2432C128.689 23.543 129.834 23.9806 130.539 24.2432H130.627C131.332 24.5058 132.037 24.8558 132.654 25.2934C134.328 26.4312 135.561 28.1816 136.266 30.3696V30.5447C136.619 32.9077 136.002 35.0082 134.68 36.496C133.623 37.6338 132.037 38.2464 130.011 38.2464Z" fill="#A92224"/>
<path d="M132.301 30.8072C133.271 29.5819 134.504 30.5447 134.768 31.1573C135.033 31.5949 135.033 32.0325 134.945 32.5576C134.857 33.7829 134.504 35.0957 133.535 35.9709C132.742 36.6711 131.861 37.1087 130.803 37.1087C130.099 37.1087 128.689 37.1087 128.425 35.8834C128.16 34.9207 128.248 33.4328 128.336 32.3826C128.425 30.5447 129.658 31.5949 129.658 31.5074C129.922 29.932 131.596 29.6695 132.301 30.8072Z" fill="white"/>
<path d="M136.707 17.504C136.883 17.2415 137.236 17.2415 137.412 17.504C138.205 18.5543 139.174 19.4295 140.408 20.0421C141.289 20.4797 142.17 20.7423 142.963 21.1799C143.051 21.2674 143.139 21.2674 143.227 21.3549C143.315 21.53 143.227 21.705 143.139 21.7925C142.963 21.9676 142.61 21.8801 142.346 21.8801C141.553 21.705 140.848 21.6175 140.055 21.4425C138.91 21.0924 137.5 20.6548 136.707 19.6921C136.355 19.2545 136.178 18.8169 136.355 18.2917C136.355 18.0292 136.531 17.7666 136.707 17.504Z" fill="#A92224"/>
<path d="M139.527 58.4636C143.756 57.0633 147.809 55.663 155.563 51.5495C156.091 51.287 156.62 51.462 156.972 51.8996C161.642 59.4263 167.105 70.7164 168.603 83.932C169.396 90.9336 169.484 99.7732 169.22 106.512L133.183 107.125C130.011 86.3826 134.504 74.9174 138.029 60.214C138.117 59.4263 138.822 58.7262 139.527 58.4636Z" fill="white"/>
<path d="M132.301 108L132.213 107.212C129.482 89.4458 132.389 78.3307 135.385 66.603C135.914 64.5025 136.531 62.227 137.059 59.9515C137.324 58.9887 138.205 57.9385 139.174 57.5884C143.051 56.2756 147.104 54.8753 155.122 50.6743C156.003 50.2367 157.148 50.4993 157.677 51.3745C162.171 58.6387 167.898 70.1913 169.396 83.757C170.277 91.2837 170.277 100.473 170.013 106.512V107.3L132.301 108ZM156.091 52.2497C156.003 52.2497 156.003 52.2497 156.091 52.2497C147.897 56.5382 143.844 57.9385 139.791 59.2513C139.35 59.4263 138.91 59.9515 138.822 60.3015C138.293 62.5771 137.676 64.8526 137.147 66.9531C134.152 78.4182 131.42 89.1832 133.887 106.162L168.339 105.637C168.603 99.6856 168.515 91.1087 167.722 84.0195C166.224 70.7164 160.673 59.5139 156.267 52.3372C156.179 52.3372 156.091 52.2497 156.091 52.2497Z" fill="#A92224"/>
<path d="M163.14 87.6954C163.14 84.3696 163.052 80.9563 163.052 77.193C163.052 74.8299 163.052 72.2918 162.259 69.9288C161.378 67.1282 159.968 65.3777 157.325 64.0649C156.091 63.4523 153.184 63.0147 150.981 64.0649C148.778 65.1152 146.928 67.1282 146.047 69.9288C145.342 72.2918 145.254 74.8299 145.254 77.193C145.254 80.9563 145.166 84.3696 145.166 87.6954C145.077 91.8964 145.077 106.425 145.077 106.425H146.84C146.84 106.425 146.928 91.9839 146.928 87.6954C146.928 84.3696 147.016 80.9563 147.016 77.193C147.016 74.9174 147.016 72.5544 147.721 70.4539C148.426 68.1784 149.923 66.603 151.598 65.7278C153.36 64.8526 155.651 65.2902 156.532 65.7278C158.294 66.603 159.704 68.1784 160.409 70.4539C161.113 72.6419 161.113 74.9174 161.113 77.193C161.113 80.9563 161.202 84.3696 161.202 87.6954C161.29 91.8964 161.29 106.425 161.29 106.425H163.052C163.228 106.512 163.14 91.9839 163.14 87.6954Z" fill="#A92224"/>
<defs>
<clipPath id="clip0">
<rect width="101" height="106" fill="white" transform="translate(0 2)"/>
</clipPath>
</defs>
</svg>
