<svg width="159" height="110" viewBox="0 0 159 110" fill="none" xmlns="http://www.w3.org/2000/svg">
<g clip-path="url(#clip0)">
<path d="M33.4986 75.3425C29.6735 74.2993 22.3711 71.8652 15.6482 67.6924C6.60713 62.0127 1.62294 55.058 1.04338 47.176C0.695646 42.8873 1.85476 40.5691 3.59343 38.2508C5.79575 35.3531 9.73674 33.6144 14.1414 33.6144C14.4891 33.6144 14.7209 33.6144 15.0687 33.6144C19.2415 33.8462 23.1825 35.469 26.428 36.9758L27.0076 37.2076L25.5007 39.9895L24.9211 39.7577C22.0234 38.3667 18.4301 36.8599 14.8368 36.744C14.605 36.744 14.3732 36.744 14.1414 36.744C10.7799 36.744 7.88216 38.019 6.2594 39.9895C5.10028 41.6123 4.05708 43.3509 4.2889 46.9442C5.56393 63.0559 27.703 70.4742 34.4259 72.4447L35.0054 72.5606L34.0782 75.4584L33.4986 75.3425Z" fill="white"/>
<path d="M34.078 76.5016C33.9621 76.5016 33.8462 76.5016 33.8462 76.5016L33.2667 76.3857C29.4416 75.3425 21.9073 72.7924 15.0686 68.6196C5.79565 62.5922 0.695543 55.5216 0.115986 47.176C-0.231749 42.6555 0.927366 39.9895 2.89786 37.5554C5.21609 34.4258 9.50482 32.5712 14.2572 32.5712C14.6049 32.5712 14.8367 32.5712 15.1845 32.5712C19.5891 32.803 23.646 34.4258 27.0074 36.0485L27.587 36.2803C27.8188 36.3962 28.0507 36.6281 28.1666 36.8599C28.2825 37.0917 28.1666 37.4394 28.0507 37.6713L26.5438 40.3372C26.312 40.8009 25.7324 41.0327 25.2688 40.8009L24.6892 40.5691C21.7914 39.1781 18.43 37.7872 15.0686 37.5554C11.5912 37.5554 8.57752 38.5986 7.18659 40.5691C6.02747 42.0759 5.21609 43.5828 5.44791 46.9442C6.60703 62.2445 28.1666 69.5469 34.7735 71.4015L35.3531 71.5174C35.5849 71.6333 35.8167 71.7492 35.9326 71.9811C36.0485 72.2129 36.0485 72.5606 36.0485 72.7924L35.1213 75.6902C34.8894 76.1539 34.5417 76.5016 34.078 76.5016ZM14.2572 34.6576C10.0844 34.6576 6.49112 36.1644 4.52062 38.8304C2.78195 41.1486 1.85466 43.1191 2.20239 47.0601C2.78195 54.5943 7.53432 61.3172 16.3436 66.765C22.7187 70.8219 29.7893 73.1402 33.6144 74.1834L33.9621 73.2561C26.4279 71.0538 4.63653 63.4036 3.36151 47.0601C3.01377 43.0032 4.2888 41.0327 5.56383 39.4099C7.41841 36.9758 11.0117 35.5849 14.9527 35.8167C18.5459 36.0485 22.1392 37.4394 25.037 38.8304L25.6165 37.9031C22.4869 36.5122 18.8936 35.0053 15.0686 34.7735C14.7208 34.6576 14.489 34.6576 14.2572 34.6576Z" fill="#A92224"/>
<path d="M125.069 75.3424C128.894 74.2992 136.196 71.865 142.919 67.6922C151.96 62.0126 156.944 55.1738 157.524 47.1759C157.872 43.0031 156.828 40.5689 154.974 38.2507C152.771 35.3529 148.83 33.6143 144.426 33.6143C144.078 33.6143 143.846 33.6143 143.499 33.6143C139.326 33.8461 135.385 35.4688 132.139 36.9757L131.56 37.2075L133.067 39.8735L133.646 39.6417C136.544 38.2507 140.137 36.7439 143.73 36.628C143.962 36.628 144.194 36.628 144.426 36.628C147.787 36.628 150.685 37.903 152.308 39.8735C153.467 41.4962 154.51 43.2349 154.278 46.8282C153.003 62.9399 130.864 70.3582 124.141 72.3287L123.562 72.4446L124.489 75.3424H125.069Z" fill="white"/>
<path d="M124.489 76.5015C124.025 76.5015 123.678 76.2697 123.562 75.8061L122.634 72.9083C122.519 72.6765 122.519 72.3287 122.75 72.0969C122.866 71.8651 123.098 71.6333 123.33 71.6333L123.91 71.5174C130.516 69.6628 152.076 62.3603 153.351 46.9441C153.583 43.5827 152.656 42.0758 151.612 40.569C150.105 38.5985 147.208 37.5553 143.962 37.6712C140.601 37.903 137.123 39.294 134.342 40.6849L133.762 40.9167C133.298 41.1485 132.719 40.9167 132.487 40.4531L130.98 37.7871C130.864 37.5553 130.864 37.2076 130.864 36.9757C130.98 36.7439 131.096 36.5121 131.444 36.3962L132.023 36.1644C135.385 34.5416 139.442 32.9188 143.846 32.687C144.194 32.687 144.426 32.687 144.774 32.687C149.526 32.687 153.815 34.5416 156.133 37.6712C157.987 40.2213 159.263 42.7713 158.915 47.2919C158.335 55.5216 153.235 62.7081 143.846 68.5037C137.008 72.7924 129.589 75.2265 125.648 76.2697L125.069 76.3856C124.721 76.5015 124.605 76.5015 124.489 76.5015ZM124.837 73.256L125.185 74.1833C129.01 73.1401 136.08 70.706 142.455 66.765C151.265 61.3171 156.017 54.7102 156.597 47.06C156.944 43.119 156.017 41.0326 154.278 38.8303C152.308 36.1644 148.599 34.6575 144.542 34.6575C144.31 34.6575 143.962 34.6575 143.73 34.6575C139.905 34.8893 136.196 36.2803 133.182 37.7871L133.762 38.7144C136.776 37.3235 140.253 35.9325 143.846 35.7007C147.787 35.4689 151.381 36.8598 153.235 39.294C154.51 40.9167 155.669 43.0031 155.437 46.9441C154.046 63.4036 132.255 71.0537 124.837 73.256Z" fill="#A92224"/>
<path d="M134.805 35.1211C133.878 34.8893 126.46 32.687 123.214 31.6438C117.766 30.021 113.014 28.5142 109.536 27.8187C94.2361 24.805 87.3974 24.2255 80.7904 24.2255C80.3268 24.2255 78.3563 24.2255 77.8926 24.2255C71.2857 24.2255 64.4469 24.805 49.1466 27.8187C45.6692 28.5142 40.9169 30.021 35.469 31.6438C32.2235 32.687 24.8052 34.7734 23.8779 35.1211C23.762 35.1211 23.762 35.2371 23.762 35.2371C23.9938 36.628 26.8916 49.726 28.3984 57.1443C29.2098 61.0853 30.0212 64.7945 30.6007 67.5764C31.7599 73.0242 33.2667 75.3424 33.4985 75.8061C40.5691 86.8177 56.1013 91.2223 67.9242 92.961C71.6334 93.5405 75.4585 93.8883 79.2836 93.8883C83.1086 93.7724 86.9337 93.5405 90.6429 92.961C102.35 91.2223 117.882 86.8177 125.069 75.8061C125.3 75.3424 126.807 73.1401 127.966 67.5764C128.546 64.7945 129.357 61.0853 130.169 57.1443C131.791 49.726 134.573 36.5121 134.805 35.2371C134.921 35.2371 134.921 35.1211 134.805 35.1211Z" fill="white"/>
<path d="M79.3995 94.9315C75.4585 94.8156 71.6334 94.5838 67.8084 94.0042C55.8695 92.2655 39.9896 87.745 32.6872 76.3857C31.5281 74.5311 30.369 71.5174 29.6735 67.8082C29.0939 65.1423 28.2825 61.4331 27.4712 57.3762C25.9643 50.1897 23.2984 37.9031 22.8347 35.4689C22.7188 34.8894 23.0665 34.3098 23.6461 34.078C25.6166 33.4984 32.2235 31.5279 35.2372 30.6007C40.6851 28.862 45.4374 27.471 49.0307 26.7756C64.4469 23.7619 71.2857 23.0664 78.0086 23.0664H80.9064C87.6292 23.0664 94.468 23.646 109.884 26.7756C113.477 27.471 118.23 28.9779 123.678 30.6007C126.807 31.5279 133.878 33.6144 135.269 34.078C135.848 34.1939 136.196 34.7735 136.08 35.4689C135.617 37.9031 132.951 50.1897 131.444 57.3762V57.608C130.632 61.549 129.821 65.1423 129.241 67.8082C128.43 71.5174 127.387 74.5311 126.228 76.3857C118.925 87.6291 103.161 92.1496 91.1066 94.0042C87.1656 94.4679 83.2246 94.8156 79.3995 94.9315ZM24.9211 35.9326C25.7325 39.5258 28.0507 50.4215 29.4417 57.0285C30.253 60.9695 31.0644 64.6786 31.644 67.4605C32.3394 70.8219 33.3827 73.7197 34.4259 75.3425C41.2646 86.0063 56.565 90.2951 68.0402 92.0337C71.7494 92.6133 75.4585 92.8451 79.2836 92.961C83.1087 92.8451 86.8178 92.6133 90.527 92.0337C102.118 90.2951 117.303 86.0063 124.141 75.3425C125.185 73.7197 126.228 70.8219 126.923 67.4605C127.503 64.7945 128.314 61.0854 129.126 57.2603V57.0285C130.516 50.4215 132.835 39.6417 133.646 35.9326C131.096 35.1212 125.532 33.4984 122.866 32.6871C117.418 31.0643 112.782 29.5574 109.305 28.862C94.1203 25.8483 87.2815 25.2687 80.6745 25.2687H77.7768C71.1698 25.2687 64.4469 25.8483 49.1466 28.862C45.6693 29.5574 41.0328 30.9484 35.585 32.6871C33.0349 33.4984 27.4712 35.1212 24.9211 35.9326Z" fill="#A92224"/>
<path d="M123.33 43.6987C123.214 43.6987 123.098 43.6987 122.982 43.5828C111.275 38.7145 99.2204 35.7008 86.8179 34.4258C84.8474 34.194 82.9928 34.0781 81.37 34.0781C78.7041 33.9621 75.9222 33.9621 72.5608 34.194C60.2741 35.0054 47.9875 37.6713 36.1645 42.1919C35.7009 42.3078 35.2373 42.076 35.0054 41.6123C34.7736 41.1487 35.1213 40.685 35.585 40.4532C47.5239 35.9326 59.9264 33.2667 72.4448 32.3394C75.9222 32.1076 78.7041 32.1076 81.37 32.2235C83.1087 32.3394 84.8474 32.4553 86.9338 32.6871C99.4522 33.9621 111.739 37.0918 123.562 41.96C124.025 42.1919 124.257 42.6555 124.025 43.1192C124.025 43.5828 123.678 43.6987 123.33 43.6987Z" fill="#A92224"/>
<path d="M121.36 55.1739C121.244 55.1739 121.128 55.1739 121.012 55.1739C105.596 49.6102 56.565 48.7988 37.7873 53.783C37.3237 53.8989 36.86 53.6671 36.7441 53.2034C36.6282 52.7398 36.86 52.2761 37.3237 52.1602C56.4491 47.0601 106.059 47.8715 121.707 53.5512C122.171 53.6671 122.403 54.2466 122.287 54.7103C122.055 54.9421 121.707 55.1739 121.36 55.1739Z" fill="#A92224"/>
<path d="M83.6881 67.4605C68.9674 67.5764 54.2466 66.6491 39.6418 64.4468C39.1781 64.3309 38.8304 63.8673 38.9463 63.4036C39.0622 62.94 39.5259 62.5922 39.9895 62.7081C66.0696 66.6491 92.4974 66.765 118.693 63.0559C119.157 62.94 119.621 63.2877 119.737 63.8672C119.853 64.3309 119.505 64.7945 118.925 64.9105C107.102 66.4173 95.3952 67.2287 83.6881 67.4605Z" fill="#A92224"/>
<path d="M79.5154 83.804C66.0696 83.804 52.508 80.5585 40.5691 73.9516C40.1055 73.7197 39.8736 73.1402 40.2214 72.6765C40.4532 72.2129 41.0328 71.9811 41.4964 72.3288C64.7946 85.195 94.468 85.195 117.187 72.3288C117.65 72.097 118.23 72.2129 118.462 72.6765C118.693 73.1402 118.578 73.7197 118.114 73.9516C106.523 80.4426 93.077 83.804 79.5154 83.804Z" fill="#A92224"/>
<path d="M121.244 74.763C120.78 74.6471 120.432 74.1834 120.548 73.7198L127.619 38.7145C127.735 38.2509 128.198 37.9031 128.662 38.019C129.126 38.135 129.473 38.5986 129.357 39.0623L122.287 74.0675C122.287 74.6471 121.707 74.8789 121.244 74.763Z" fill="#A92224"/>
<path d="M38.4826 74.647L30.9484 38.8304C30.8325 38.3667 30.3688 38.019 29.9052 38.1349C29.4415 38.2508 29.0938 38.7144 29.2097 39.1781L36.744 74.9947C36.8599 75.4584 37.2076 75.6902 37.6713 75.6902H37.7872C38.2508 75.5743 38.5986 75.1107 38.4826 74.647Z" fill="#A92224"/>
<path d="M125.532 109.305C123.794 104.9 121.475 102.118 117.071 100.379C121.36 97.8294 123.794 94.6998 125.532 91.2224C127.271 94.8157 129.705 98.1771 133.994 100.611C129.705 102.35 127.155 105.132 125.532 109.305Z" fill="#FFEC00"/>
<path d="M125.532 110C125.185 110 124.953 109.768 124.837 109.536C122.982 105.016 120.78 102.582 116.839 100.959C116.607 100.843 116.375 100.611 116.375 100.263C116.375 100.032 116.491 99.6839 116.723 99.568C120.432 97.3657 122.982 94.5838 124.837 90.6428C124.953 90.411 125.3 90.2951 125.532 90.1792C125.88 90.1792 126.112 90.2951 126.228 90.6428C128.082 94.6997 130.748 97.5975 134.342 99.6839C134.573 99.7998 134.689 100.148 134.689 100.379C134.689 100.611 134.457 100.959 134.226 101.075C130.401 102.582 127.966 105.132 126.228 109.421C126.112 109.884 125.88 110 125.532 110ZM118.693 100.263C121.823 101.77 123.909 103.973 125.532 107.45C127.155 104.204 129.241 102.002 132.371 100.495C129.473 98.5248 127.271 96.0907 125.532 92.8452C123.794 95.8589 121.591 98.293 118.693 100.263Z" fill="#A92224"/>
<path d="M32.8031 18.8936C31.0644 14.489 28.7462 11.7071 24.3416 9.96841C28.6303 7.41836 31.0644 4.28875 32.8031 0.811401C34.5418 4.40466 36.9759 7.76609 41.2646 10.2002C36.9759 11.9389 34.4259 14.7208 32.8031 18.8936Z" fill="#FFEC00"/>
<path d="M32.803 19.589C32.4553 19.589 32.2234 19.3572 32.1075 19.1254C30.253 14.6048 28.0506 12.1707 24.1096 10.5479C23.8778 10.432 23.646 10.2002 23.646 9.85248C23.646 9.62065 23.7619 9.27292 23.9937 9.15701C27.7029 6.95469 30.253 4.17281 32.1075 0.231823C32.2234 0.115911 32.5712 0 32.803 0C33.1507 0 33.3826 0.115911 33.4985 0.463646C35.3531 4.52055 38.019 7.41833 41.6123 9.50474C41.8441 9.62065 41.96 9.96839 41.96 10.2002C41.96 10.432 41.7282 10.7798 41.4964 10.8957C37.6713 12.4025 35.2371 14.9526 33.4985 19.2413C33.3826 19.4731 33.1507 19.589 32.803 19.589ZM25.9642 9.85248C29.0938 11.3593 31.1802 13.5616 32.803 17.039C34.4258 13.7935 36.5122 11.5911 39.6418 10.0843C36.744 8.1138 34.5417 5.67966 32.803 2.43414C31.0643 5.44784 28.862 7.88198 25.9642 9.85248Z" fill="#A92224"/>
</g>
<defs>
<clipPath id="clip0">
<rect width="158.683" height="110" fill="white"/>
</clipPath>
</defs>
</svg>
