<svg width="143" height="140" viewBox="0 0 143 140" fill="none" xmlns="http://www.w3.org/2000/svg">
<g clip-path="url(#clip0)">
<path d="M139.755 29.3251H79.5093V110.061H139.755V29.3251Z" fill="white"/>
<path d="M88.221 77.1779H81.9634C81.5953 77.1779 81.3499 76.9325 81.3499 76.5644V63.0675C81.3499 62.6994 81.5953 62.454 81.9634 62.454H88.221C88.5891 62.454 88.8345 62.6994 88.8345 63.0675V76.5644C88.8345 76.8098 88.5891 77.1779 88.221 77.1779ZM85.0308 73.9877C85.3989 73.9877 85.767 73.7423 85.767 73.3742V66.135C85.767 65.7669 85.5216 65.5215 85.1535 65.5215C84.7854 65.5215 84.54 65.7669 84.54 66.135V73.3742C84.4173 73.7423 84.6627 73.9877 85.0308 73.9877Z" fill="#A92224"/>
<path d="M140.614 113.62H19.2639C18.405 113.62 17.7915 113.006 17.7915 112.147V27.3619C17.7915 26.503 18.405 25.8895 19.2639 25.8895H140.614C141.472 25.8895 142.086 26.503 142.086 27.3619V112.147C142.086 113.006 141.35 113.62 140.614 113.62ZM84.7854 30.3067C83.9265 30.3067 83.1903 31.0429 83.1903 31.9018V107.485C83.1903 108.344 83.9265 109.08 84.7854 109.08H135.951C136.81 109.08 137.546 108.344 137.546 107.485V31.9018C137.546 31.0429 136.81 30.3067 135.951 30.3067H84.7854ZM23.8038 30.3067C22.9449 30.3067 22.2087 31.0429 22.2087 31.9018V107.485C22.2087 108.344 22.9449 109.08 23.8038 109.08H77.0553C77.9142 109.08 78.6504 108.344 78.6504 107.485V31.9018C78.6504 31.0429 77.9142 30.3067 77.0553 30.3067H23.8038Z" fill="#A92224"/>
<path d="M82.7152 31.9647L79.9443 34.1975L138.768 107.195L141.538 104.962L82.7152 31.9647Z" fill="#A92224"/>
<path d="M139.264 96.8098L85.5215 29.2024L87.7301 27.4846L139.018 91.9018L139.264 96.8098Z" fill="#A92224"/>
<path d="M36.5644 62.454C29.3252 62.454 22.0859 59.5092 17.0552 54.2331C16.5644 53.6196 15.9509 53.1288 15.4601 52.5153C14.4785 51.411 13.6196 50.4294 12.5153 49.5706C9.69326 47.362 5.76687 46.7485 2.33129 47.8528C1.3497 48.2209 0.368101 47.7301 0.122703 46.7485C-0.245396 45.7669 0.245402 44.7853 1.227 44.5399C5.76687 42.9448 11.0429 43.8037 14.7239 46.7485C16.0736 47.7301 17.0552 48.9571 18.0368 50.0613C18.5276 50.5521 19.0184 51.1656 19.5092 51.6564C24.6626 57.0552 32.5153 59.6319 39.8773 58.5276C40.8589 58.4049 41.7178 59.0184 41.8405 60C41.9632 60.9816 41.3497 61.8405 40.3681 61.9632C39.1411 62.3313 37.7914 62.454 36.5644 62.454Z" fill="#A92224"/>
<path d="M36.5644 78.6503C29.3252 78.6503 22.0859 75.7055 17.0552 70.4294C16.5644 69.8159 15.9509 69.3251 15.4601 68.7116C14.4785 67.6073 13.6196 66.6257 12.5153 65.7668C9.69326 63.5582 5.76687 62.9448 2.33129 64.0491C1.3497 64.4171 0.368101 63.9263 0.122703 62.9448C-0.245396 61.9632 0.245402 60.9816 1.227 60.7362C5.76687 59.1411 11.0429 60 14.7239 62.9448C16.0736 63.9263 17.0552 65.1533 18.0368 66.2576C18.5276 66.7484 19.0184 67.3619 19.5092 67.8527C24.6626 73.2515 32.5153 75.8282 39.8773 74.7239C40.8589 74.6012 41.7178 75.2147 41.8405 76.1963C41.9632 77.1779 41.3497 78.0368 40.3681 78.1595C39.1411 78.5276 37.7914 78.6503 36.5644 78.6503Z" fill="#A92224"/>
<path d="M36.5644 94.7239C29.3252 94.7239 22.0859 91.7791 17.0552 86.503C16.5644 85.8895 15.9509 85.3987 15.4601 84.7852C14.4785 83.6809 13.6196 82.6993 12.5153 81.8404C9.69326 79.6319 5.76687 79.0184 2.33129 80.1227C1.3497 80.4908 0.368101 80 0.122703 79.0184C-0.245396 78.0368 0.245402 77.0552 1.227 76.8098C5.76687 75.2147 11.0429 76.0736 14.7239 79.0184C16.0736 80 17.0552 81.2269 18.0368 82.3312C18.5276 82.822 19.0184 83.4355 19.5092 83.9263C24.6626 89.3251 32.5153 91.9018 39.8773 90.7975C40.8589 90.6748 41.7178 91.2883 41.8405 92.2699C41.9632 93.2515 41.3497 94.1104 40.3681 94.2331C39.1411 94.6012 37.7914 94.7239 36.5644 94.7239Z" fill="#A92224"/>
<path d="M33.2515 20.1227C31.411 15.4601 28.957 12.5153 24.2944 10.6748C28.8343 7.97543 31.411 4.66255 33.2515 0.981567C35.092 4.78525 37.6687 8.34353 42.2085 10.9202C37.546 12.7607 34.9693 15.7055 33.2515 20.1227Z" fill="#FFEC00"/>
<path d="M33.2516 20.9816C32.8835 20.9816 32.5154 20.7362 32.3927 20.3681C30.4295 15.5828 28.0982 13.1288 23.9264 11.411C23.5583 11.2883 23.4356 10.9202 23.3129 10.6748C23.1902 10.4294 23.4356 9.93865 23.8037 9.81595C27.7301 7.48466 30.4295 4.53988 32.3927 0.490798C32.5154 0.245399 32.8835 0 33.2516 0C33.6197 0 33.9878 0.245399 34.1105 0.490798C36.0737 4.66258 38.8957 7.85276 42.6994 10.0613C42.9448 10.184 43.1902 10.5521 43.1902 10.9202C43.1902 11.2883 42.9448 11.5337 42.5767 11.6564C38.5276 13.2515 35.951 15.9509 34.2332 20.3681C33.9878 20.8589 33.6197 20.9816 33.2516 20.9816ZM26.2577 10.5521C29.4479 12.1472 31.5338 14.4785 33.2516 17.9141C34.9694 14.6012 37.178 12.3926 40.2454 10.7975C37.3007 8.83436 34.9694 6.25767 33.2516 2.94479C31.4111 6.01227 29.2025 8.46626 26.2577 10.5521Z" fill="#A92224"/>
<path d="M124.049 139.141C122.209 134.479 119.755 131.534 115.092 129.693C119.632 126.994 122.209 123.681 124.049 120C125.89 123.804 128.466 127.362 133.006 129.939C128.344 131.779 125.767 134.724 124.049 139.141Z" fill="#FFEC00"/>
<path d="M124.049 140C123.681 140 123.313 139.755 123.19 139.387C121.227 134.601 118.896 132.147 114.724 130.429C114.356 130.307 114.233 129.939 114.11 129.693C114.11 129.325 114.233 128.957 114.601 128.834C118.528 126.503 121.227 123.558 123.19 119.509C123.313 119.141 123.681 119.018 124.049 119.018C124.417 119.018 124.785 119.264 124.908 119.509C126.871 123.681 129.693 126.871 133.497 129.08C133.742 129.202 133.988 129.571 133.988 129.939C133.988 130.307 133.742 130.552 133.374 130.675C129.325 132.27 126.748 134.969 125.031 139.387C124.785 139.877 124.417 140 124.049 140ZM117.055 129.571C120.245 131.166 122.331 133.497 124.049 136.933C125.767 133.62 127.975 131.411 131.043 129.816C128.098 127.853 125.767 125.276 124.049 121.963C122.209 125.031 120 127.485 117.055 129.571Z" fill="#A92224"/>
</g>
<defs>
<clipPath id="clip0">
<rect width="142.086" height="140" fill="white"/>
</clipPath>
</defs>
</svg>
