<svg width="144" height="110" viewBox="0 0 144 110" fill="none" xmlns="http://www.w3.org/2000/svg">
<g clip-path="url(#clip0)">
<path d="M43.7164 45.3706V94.8765C43.7164 97.8303 40.7626 99.13 22.9216 99.13C5.55313 99.13 2.12671 97.594 2.12671 94.8765V45.2524C2.12671 43.362 2.83562 41.4715 3.899 40.0537L12.0515 30.6015C12.2878 30.2471 12.6423 30.1289 12.9967 30.1289H32.6101C32.9645 30.1289 33.319 30.3652 33.5553 30.6015L41.7078 40.0537C43.0075 41.3534 43.7164 43.362 43.7164 45.3706Z" fill="white"/>
<path d="M22.9215 99.6025C4.96231 99.6025 1.53589 97.9484 1.53589 94.7583V45.2524C1.53589 43.1256 2.2448 41.117 3.54448 39.6992L11.697 30.247C12.0515 29.7744 12.6422 29.5381 13.1148 29.5381H32.7282C33.3189 29.5381 33.7915 29.7744 34.146 30.247L42.2985 39.6992C43.5982 41.117 44.3071 43.2438 44.3071 45.3705V94.8764C44.3071 98.1847 41.3533 99.6025 22.9215 99.6025ZM12.9967 30.7196C12.7604 30.7196 12.6422 30.8378 12.4059 31.0741L4.2534 40.5263C3.19002 41.7078 2.59926 43.4801 2.59926 45.2524V94.7583C2.59926 96.885 6.02569 98.421 22.8033 98.421C39.9355 98.421 43.0074 97.2395 43.0074 94.7583V45.3705C43.0074 43.4801 42.4167 41.7078 41.3533 40.5263L33.2008 31.0741C33.0826 30.8378 32.8463 30.7196 32.7282 30.7196H12.9967Z" fill="white"/>
<path d="M44.7799 47.97H1.06348V88.26H44.7799V47.97Z" fill="#A92224"/>
<path d="M43.362 38.7541L35.2094 29.3019C34.5005 28.4748 33.6735 28.1204 32.6101 28.1204H12.9968C12.0515 28.1204 11.1063 28.593 10.3974 29.3019L2.24489 38.7541C0.827056 40.4082 -0.118164 42.8894 -0.118164 45.2525V94.7584C-0.118164 99.6026 5.1987 101.02 22.8034 101.02C40.9989 101.02 45.6069 99.7208 45.725 94.7584V45.3706C45.725 42.8894 44.8979 40.4082 43.362 38.7541ZM43.7164 45.3706V94.8765C43.7164 97.8304 40.7626 99.13 22.9216 99.13C5.55316 99.13 2.12673 97.594 2.12673 94.8765V45.2525C2.12673 43.362 2.83565 41.4716 3.89902 40.0538L12.0515 30.6016C12.2879 30.2471 12.6423 30.129 12.9968 30.129H32.6101C32.9645 30.129 33.319 30.3653 33.5553 30.6016L41.7078 40.0538C43.0075 41.3534 43.7164 43.362 43.7164 45.3706Z" fill="#A92224"/>
<path d="M55.7681 8.38883L48.2063 1.18153C48.0882 1.06337 47.97 1.06337 47.8518 1.06337H44.898H28.9474C28.7111 0.47261 28.2385 0 27.5296 0H18.1956C17.3685 0 16.7777 0.590763 16.7777 1.41783V5.19871C16.7777 6.02578 17.3685 6.61654 18.1956 6.61654H21.622V11.6971H19.7315C18.6682 11.6971 17.8411 12.5242 17.8411 13.5875V18.4318H14.4147C13.7058 18.4318 13.2332 19.0226 13.2332 19.6133V27.7658C13.2332 28.4748 13.8239 28.9474 14.4147 28.9474H31.4286C32.1376 28.9474 32.6102 28.3566 32.6102 27.7658V19.6133C32.6102 18.9044 32.0194 18.4318 31.4286 18.4318H28.0022V13.8238C28.0022 12.6423 27.057 11.6971 25.8755 11.6971H24.1032V6.61654H27.5296C28.3567 6.61654 28.9474 6.02578 28.9474 5.19871V4.01719H46.6703C46.7885 4.01719 47.0248 4.13534 47.1429 4.13534L53.7595 10.6337C54.3502 11.2245 55.2955 11.2245 55.8862 10.5156C56.477 9.92481 56.3588 8.97959 55.7681 8.38883Z" fill="#A92224"/>
<path d="M4.25343 66.0474C3.89898 66.2837 3.54452 66.1655 3.30821 65.9292C3.19006 65.6929 3.19006 65.3384 3.54452 65.2203C5.0805 64.3932 5.67126 62.9754 5.55311 61.5576C5.55311 61.2031 5.78942 60.9668 6.02572 60.9668C6.26203 60.9668 6.61648 61.0849 6.61648 61.4394C6.61648 61.5576 6.61648 61.6757 6.61648 61.7939C6.61648 61.7939 6.61648 61.7939 6.73464 61.7939C7.3254 61.5576 8.03431 61.0849 8.38877 60.6123C8.50692 60.376 8.50692 60.2579 8.27062 60.2579C7.20725 60.2579 5.19865 60.2579 3.89898 60.376C3.07191 60.376 3.07191 59.549 3.78082 59.4308C5.0805 59.3127 7.20725 59.4308 8.50692 59.4308C9.45214 59.4308 9.92475 60.2579 9.21584 60.9668C8.62508 61.6757 7.91616 62.2665 6.97094 62.6209C6.73464 62.7391 6.61648 62.6209 6.49833 62.6209C6.26203 64.1569 5.67126 65.2203 4.25343 66.0474Z" fill="white"/>
<path d="M10.6335 63.9206C12.0514 63.3298 12.8784 61.912 12.7603 60.1397C12.7603 59.4308 13.7055 59.4308 13.7055 60.0216C13.8237 61.7938 12.9966 63.6843 11.1062 64.7476C10.5154 65.1021 9.92463 64.275 10.6335 63.9206ZM15.5959 64.275C15.0052 64.6295 14.2963 64.275 14.4144 63.5661C14.5326 62.7391 14.5326 60.4942 14.5326 60.0216C14.5326 59.3126 15.4778 59.3126 15.4778 60.0216C15.4778 60.376 15.3596 62.8572 15.3596 63.0935C15.3596 63.3298 15.4778 63.3298 15.5959 63.2117C16.423 62.7391 17.1319 61.912 17.7227 60.8486C18.0772 60.2579 18.9042 60.7305 18.5498 61.3212C17.8408 62.5027 16.7775 63.5661 15.5959 64.275Z" fill="white"/>
<path d="M24.4576 64.5114C23.5124 64.5114 21.9764 64.6296 21.0312 64.6296C20.3223 64.6296 20.3223 63.6843 21.0312 63.6843C21.9764 63.6843 23.7487 63.6843 24.4576 63.6843C24.6939 63.6843 24.9302 63.5662 25.0484 63.2117C25.0484 62.621 25.0484 61.6757 25.0484 61.2031C25.0484 60.8487 24.8121 60.7305 24.4576 60.7305C23.6306 60.7305 22.2127 60.7305 21.1494 60.8487C20.4404 60.8487 20.4404 60.0216 21.1494 59.9035C22.2127 59.9035 23.8669 59.7853 24.8121 59.9035C25.7573 59.9035 26.1118 60.4942 26.1118 61.085C26.1118 61.6757 26.1118 62.621 26.1118 63.448C25.7573 64.1569 25.1665 64.3932 24.4576 64.5114Z" fill="white"/>
<path d="M28.2385 62.1483C27.884 62.1483 27.7659 61.912 27.7659 61.6757C27.7659 61.4394 28.0022 61.2031 28.2385 61.2031H34.0279C34.3824 61.2031 34.5006 61.4394 34.5006 61.6757C34.5006 61.912 34.3824 62.1483 34.0279 62.1483H28.2385Z" fill="white"/>
<path d="M34.8548 63.9206C36.2727 63.3298 37.0997 61.912 36.9816 60.1397C36.9816 59.4308 37.9268 59.4308 37.9268 60.0216C38.0449 61.7938 37.2179 63.6843 35.3274 64.7476C34.6185 65.1021 34.1459 64.275 34.8548 63.9206ZM39.6991 64.275C39.1083 64.6295 38.3994 64.275 38.5176 63.5661C38.6357 62.7391 38.6357 60.4942 38.6357 60.0216C38.6357 59.3126 39.5809 59.3126 39.5809 60.0216C39.5809 60.376 39.4628 62.8572 39.4628 63.0935C39.4628 63.3298 39.5809 63.3298 39.6991 63.2117C40.5261 62.7391 41.2351 61.912 41.8258 60.8486C42.1803 60.2579 43.0073 60.7305 42.6529 61.3212C41.944 62.5027 40.9988 63.5661 39.6991 64.275Z" fill="white"/>
<path d="M10.9881 72.4276C10.6337 72.0731 10.1611 71.955 9.80662 71.8368C9.68846 71.8368 9.57031 71.6005 9.57031 71.4824C9.57031 71.2461 9.80662 71.0098 10.0429 71.0098C10.2792 71.0098 10.9881 71.1279 11.4608 71.4824C11.5789 71.6005 11.6971 71.7187 11.6971 71.8368C11.6971 72.0731 11.4608 72.3094 11.2244 72.3094C11.1063 72.5457 11.1063 72.4276 10.9881 72.4276ZM10.2792 76.5629C10.0429 76.5629 9.80662 76.3266 9.80662 76.0903C9.80662 75.9722 9.80662 75.854 9.92477 75.7359C10.5155 75.1451 10.87 74.4362 11.3426 73.491C11.4608 73.3728 11.5789 73.2547 11.6971 73.2547C11.9334 73.2547 12.1697 73.3728 12.1697 73.7273C12.1697 73.9636 11.6971 75.1451 10.7518 76.3266C10.6337 76.5629 10.5155 76.5629 10.2792 76.5629ZM11.3426 70.419C10.9881 69.9464 10.6337 69.8282 10.2792 69.5919C10.1611 69.4738 10.0429 69.4738 10.0429 69.3556C10.0429 69.1193 10.2792 68.883 10.5155 68.883C10.7518 68.883 12.0515 69.4738 12.0515 70.0645C12.0515 70.3008 11.8152 70.5372 11.5789 70.5372C11.5789 70.5372 11.4608 70.5372 11.3426 70.419ZM13.3512 70.5372C13.233 70.1827 12.7604 69.8282 12.6423 69.7101C12.5241 69.5919 12.5241 69.4738 12.5241 69.4738C12.5241 69.2375 12.7604 69.0012 12.9967 69.0012C13.3512 69.0012 14.1783 69.9464 14.1783 69.9464C14.1783 70.0645 14.2964 70.1827 14.2964 70.1827C14.2964 70.419 14.0601 70.6553 13.8238 70.6553C13.5875 70.7735 13.4693 70.7735 13.3512 70.5372ZM13.5875 74.6725C13.5875 75.3814 13.5875 75.9722 13.5875 76.4448C13.5875 76.6811 13.3512 76.7992 13.1149 76.7992C12.8786 76.7992 12.6423 76.6811 12.6423 76.3266C12.6423 75.7359 12.6423 74.9088 12.6423 74.0817C12.6423 73.2547 12.6423 72.4276 12.6423 71.8368C12.6423 70.8916 13.3512 70.8916 14.4146 70.8916V68.883C14.4146 68.6467 14.6509 68.5286 14.8872 68.5286C15.1235 68.5286 15.3598 68.6467 15.3598 68.883V70.8916C16.305 70.8916 17.1321 70.8916 17.1321 71.8368C17.1321 72.6639 17.1321 75.2632 17.1321 75.4996C17.1321 75.9722 16.7776 76.5629 15.7142 76.5629C15.3598 76.5629 14.769 76.5629 14.769 76.0903C14.769 75.854 14.8872 75.6177 15.1235 75.6177H15.2416C15.3598 75.6177 15.5961 75.6177 15.7142 75.6177C15.9505 75.6177 16.1869 75.4995 16.1869 75.1451C16.1869 74.9088 16.1869 74.6725 16.1869 74.4362H13.5875V74.6725ZM13.5875 73.2547C13.5875 73.491 13.5875 73.7273 13.5875 73.9636H16.4232C16.4232 73.7273 16.4232 73.491 16.4232 73.2547H13.5875ZM16.4232 72.5457C16.4232 72.4276 16.4232 72.3094 16.4232 72.1913C16.4232 71.8368 16.305 71.8368 15.1235 71.8368C14.769 71.8368 14.4146 71.8368 14.1783 71.8368C13.942 71.8368 13.8238 71.955 13.8238 72.1913C13.8238 72.3094 13.8238 72.4276 13.8238 72.5457H16.4232ZM16.1869 70.7735C15.9505 70.7735 15.7142 70.5372 15.7142 70.419C15.7142 70.3008 15.7142 70.1827 15.8324 70.0645C16.0687 69.8282 16.4232 69.3556 16.6595 69.1193C16.7776 69.0012 16.8958 68.883 17.0139 68.883C17.2502 68.883 17.4865 69.1193 17.4865 69.3556C17.4865 69.4738 17.4865 69.4738 17.3684 69.5919C16.5413 70.7735 16.305 70.7735 16.1869 70.7735Z" fill="white"/>
<path d="M25.2846 75.854C25.0483 76.5629 24.4575 76.7992 23.6304 76.7992C22.9215 76.7992 22.567 76.7992 22.567 76.3266C22.567 76.2084 22.6852 75.9721 22.9215 75.9721H23.0397C23.276 75.9721 23.5123 76.0903 23.6304 76.0903C23.9849 76.0903 24.2212 75.9721 24.3393 75.7358H21.0311C20.3221 75.7358 20.0858 75.4995 20.0858 75.0269C20.0858 74.9088 20.0858 74.7906 20.0858 74.7906C20.0858 74.6725 20.204 74.5543 20.204 74.4362H19.4951C19.2588 74.4362 19.1406 74.318 19.1406 74.0817C19.1406 73.9635 19.2588 73.7272 19.4951 73.7272H20.3222C20.3222 73.6091 20.3221 73.3728 20.4403 73.2546C20.5585 72.6639 20.9129 72.4276 21.6218 72.4276C22.2126 72.4276 22.8034 72.4276 23.3941 72.4276C23.8667 72.4276 24.2212 72.4276 24.5756 72.4276C25.1664 72.4276 25.639 72.6639 25.639 73.1365C25.639 73.2546 25.639 73.4909 25.639 73.6091H26.5842C26.8205 73.6091 26.9387 73.7272 26.9387 73.9635C26.9387 74.0817 26.8205 74.318 26.5842 74.318H25.639C25.639 74.5543 25.639 74.7906 25.5209 75.0269H26.3479C26.5842 75.0269 26.7024 75.1451 26.7024 75.3814C26.7024 75.4995 26.5842 75.7358 26.3479 75.7358H25.2846V75.854ZM22.9215 72.0731H19.4951C19.2588 72.0731 19.1406 71.955 19.1406 71.7186C19.1406 71.6005 19.2588 71.3642 19.4951 71.3642H22.4489V70.8916H20.4403C20.204 70.8916 20.0858 70.7734 20.0858 70.5371C20.0858 70.419 20.204 70.1827 20.4403 70.1827H22.4489V69.7101H19.8495C19.6132 69.7101 19.4951 69.5919 19.4951 69.3556C19.4951 69.2374 19.6132 69.0011 19.8495 69.0011H22.4489V68.5285C22.4489 68.2922 22.6852 68.1741 22.9215 68.1741C23.1578 68.1741 23.3941 68.2922 23.3941 68.5285V69.0011H25.9935C26.2298 69.0011 26.3479 69.1193 26.3479 69.3556C26.3479 69.4737 26.2298 69.7101 25.9935 69.7101H23.3941V70.1827H25.4027C25.639 70.1827 25.7572 70.3008 25.7572 70.5371C25.7572 70.6553 25.639 70.8916 25.4027 70.8916H23.3941V71.3642H26.4661C26.7024 71.3642 26.8205 71.4823 26.8205 71.7186C26.8205 71.8368 26.7024 72.0731 26.4661 72.0731H22.9215ZM20.9129 74.4362C20.9129 74.5543 20.9129 74.7906 20.7948 74.9088V75.0269C20.7948 75.1451 20.9129 75.2632 21.0311 75.2632H22.0944C22.0944 75.0269 22.2126 74.7906 22.2126 74.5543H20.9129V74.4362ZM22.4489 73.7272C22.4489 73.4909 22.4489 73.2546 22.567 73.0183C21.3855 73.0183 21.2674 73.0183 21.2674 73.3728C21.2674 73.4909 21.2674 73.6091 21.1492 73.7272H22.4489ZM23.1578 74.4362C23.1578 74.6725 23.0397 74.9088 23.0397 75.1451H24.4575C24.4575 74.9088 24.5756 74.6725 24.5756 74.4362H23.1578ZM24.6938 73.7272C24.6938 73.6091 24.6938 73.4909 24.6938 73.3728C24.6938 73.1365 24.5756 73.0183 24.3393 73.0183C23.9849 73.0183 23.7486 73.0183 23.3941 73.0183C23.3941 73.2546 23.3941 73.4909 23.276 73.7272H24.6938Z" fill="white"/>
<path d="M29.1837 72.3094C28.8293 71.955 28.4748 71.8368 28.1203 71.7187C28.0022 71.7187 27.884 71.4824 27.884 71.3642C27.884 71.1279 28.1203 70.8916 28.3566 70.8916C28.5929 70.8916 29.42 71.2461 29.6563 71.3642C29.7745 71.4824 29.8926 71.6005 29.8926 71.7187C29.8926 71.955 29.6563 72.1913 29.42 72.1913C29.42 72.4276 29.3019 72.3094 29.1837 72.3094ZM28.5929 76.5629C28.3566 76.5629 28.1203 76.3266 28.1203 76.0903C28.1203 75.9722 28.1203 75.9722 28.2385 75.854C28.7111 75.1451 29.0656 74.318 29.42 73.6091C29.5382 73.3728 29.6563 73.3728 29.7745 73.3728C30.0108 73.3728 30.2471 73.491 30.2471 73.8454C30.2471 73.9636 29.7745 75.3814 29.1837 76.4448C28.9474 76.4448 28.7111 76.5629 28.5929 76.5629ZM29.6563 70.1827C29.42 69.8282 28.9474 69.5919 28.8293 69.4738C28.7111 69.3556 28.7111 69.2375 28.7111 69.2375C28.7111 69.0012 28.9474 68.7649 29.1837 68.7649C29.42 68.7649 30.6015 69.3556 30.6015 69.8282C30.6015 70.0645 30.3652 70.3009 30.1289 70.3009C29.7745 70.419 29.6563 70.3009 29.6563 70.1827ZM31.1923 73.3728C31.0742 73.491 31.0742 73.491 30.956 73.6091C30.8378 73.7273 30.7197 73.7273 30.6015 73.7273C30.3652 73.7273 30.1289 73.491 30.1289 73.2547C30.1289 73.1365 30.1289 73.0184 30.2471 72.9002C30.956 72.3094 31.4286 71.6005 31.6649 70.5372C31.7831 70.3009 31.9012 70.3009 32.0194 70.3009C32.2557 70.3009 32.492 70.419 32.492 70.7735C32.492 71.0098 32.0194 71.955 31.9012 72.0731V76.2085C31.9012 76.5629 31.6649 76.6811 31.4286 76.6811C31.1923 76.6811 30.956 76.5629 30.956 76.2085L31.1923 73.3728ZM30.956 70.419C30.7197 70.419 30.4834 70.1827 30.4834 70.0645C30.4834 69.8282 30.6015 69.7101 30.956 69.7101H32.8464V69.0012C32.8464 68.7649 33.0827 68.5286 33.319 68.5286C33.5554 68.5286 33.7917 68.6467 33.7917 69.0012V69.7101H35.9184C36.1547 69.7101 36.391 69.9464 36.391 70.0645C36.391 70.3008 36.2729 70.419 35.9184 70.419H30.956ZM32.7283 76.5629C32.492 76.5629 32.2557 76.3266 32.2557 76.0903C32.2557 75.9722 32.3738 75.854 32.492 75.7359C32.9646 75.4996 33.4372 75.1451 33.6735 74.7906C33.4372 74.4362 33.2009 73.9636 33.0827 73.491C32.7283 74.0817 32.6101 74.0817 32.3738 74.0817C32.1375 74.0817 32.0194 73.9636 32.0194 73.7273C32.0194 73.6091 32.0194 73.6091 32.1375 73.491C32.7283 72.7821 33.2009 71.8368 33.4372 70.7735C33.4372 70.6553 33.6735 70.5372 33.7917 70.5372C34.028 70.5372 34.2643 70.6553 34.2643 70.8916C34.2643 70.8916 34.2643 70.8916 34.1461 71.3642C34.5006 71.3642 34.855 71.3642 35.0913 71.3642C35.4458 71.3642 35.9184 71.6005 35.9184 72.0731C35.9184 72.0731 35.8003 73.491 34.855 74.9088C35.2095 75.2633 35.6821 75.6177 36.2729 75.854C36.5092 75.9722 36.5092 76.0903 36.5092 76.2085C36.5092 76.4448 36.391 76.6811 36.0366 76.6811C35.8003 76.6811 34.9732 76.3266 34.2643 75.6177C33.6735 76.0903 32.9646 76.5629 32.7283 76.5629ZM33.9098 73.2547C33.7917 73.2547 33.6735 73.1365 33.6735 73.0184C33.6735 72.7821 33.7917 72.5457 34.028 72.5457C34.2643 72.5457 34.6187 72.7821 34.7369 72.7821C34.855 72.4276 34.855 72.3094 34.855 72.3094C34.855 72.1913 34.7369 72.0731 34.7369 72.0731C34.7369 72.0731 34.2643 72.0731 33.9098 72.0731C33.7917 72.3094 33.6735 72.5457 33.5554 72.7821C33.6735 73.2547 33.9098 73.7273 34.1461 74.1999C34.2643 73.9636 34.3824 73.7273 34.5006 73.3728C34.2643 73.3728 34.1461 73.2547 33.9098 73.2547Z" fill="white"/>
<path d="M77.1533 23.9851C78.2167 23.3943 79.5164 23.6306 80.1071 24.694C80.6979 25.7573 80.4616 27.057 79.3982 27.6478C78.3348 28.2386 77.0352 28.0022 76.4444 26.9389C75.8536 25.9937 76.09 24.5758 77.1533 23.9851Z" fill="#A92224"/>
<path d="M83.652 27.4115C84.7153 26.8207 86.015 27.057 86.6058 28.1204C87.1965 29.1837 86.9602 30.4834 85.8968 31.0742C84.8335 31.6649 83.5338 31.4286 82.943 30.3653C82.2341 29.42 82.5886 28.0022 83.652 27.4115Z" fill="#A92224"/>
<path d="M59.1943 14.7691C60.2576 14.1784 61.5573 14.4147 62.1481 15.478C62.7388 16.5414 62.5025 17.8411 61.4392 18.4318C60.3758 19.0226 59.0761 18.7863 58.4854 17.7229C57.8946 16.7777 58.249 15.478 59.1943 14.7691Z" fill="#A92224"/>
<path d="M62.3843 39.2266C63.4477 38.6359 64.7473 38.8722 65.3381 39.9355C65.9289 40.9989 65.6926 42.2986 64.6292 42.8894C63.5658 43.4801 62.2661 43.2438 61.6754 42.1804C61.0846 41.2352 61.3209 39.9356 62.3843 39.2266Z" fill="#A92224"/>
<path d="M73.3725 33.2009C74.4359 32.6101 75.7355 32.8464 76.3263 33.9098C76.9171 34.9732 76.6808 36.2728 75.6174 36.8636C74.554 37.4544 73.2543 37.2181 72.6636 36.1547C72.0728 35.2095 72.4273 33.7916 73.3725 33.2009Z" fill="#A92224"/>
<path d="M65.929 17.4866C66.9923 16.8959 68.292 17.1322 68.8828 18.1956C69.4735 19.2589 69.2372 20.5586 68.1739 21.1494C67.1105 21.7401 65.8108 21.5038 65.22 20.4405C64.6293 19.4952 64.8656 18.1956 65.929 17.4866Z" fill="#A92224"/>
<path d="M67.8195 36.2729C68.8829 35.6821 70.1826 35.9184 70.7733 36.9818C71.3641 38.0452 71.1278 39.3449 70.0644 39.9356C69.001 40.5264 67.7014 40.2901 67.1106 39.2267C66.5198 38.1633 66.8743 36.8637 67.8195 36.2729Z" fill="#A92224"/>
<path d="M89.4414 31.9012C90.5048 31.3104 91.8044 31.6649 92.277 32.7282C92.7497 33.6735 92.3952 34.9731 91.3318 35.5639C90.2685 36.1547 88.9688 35.8002 88.4962 34.7368C88.0236 33.6735 88.378 32.4919 89.4414 31.9012Z" fill="#A92224"/>
<path d="M82.3523 35.9184C83.2975 35.2095 84.5972 35.3276 85.3061 36.2728C86.015 37.2181 85.7787 38.5177 84.7153 39.2266C83.7701 39.9356 82.4704 39.8174 81.7615 38.8722C81.1708 37.927 81.4071 36.6273 82.3523 35.9184Z" fill="#A92224"/>
<path d="M75.4994 39.5811C76.5628 38.9904 77.8625 39.2267 78.4532 40.1719C79.044 41.1171 78.6896 42.4168 77.7443 43.0075C76.681 43.5983 75.3813 43.362 74.7905 42.4168C74.1998 41.5897 74.5542 40.29 75.4994 39.5811Z" fill="#A92224"/>
<path d="M69.4736 42.8894C70.537 42.2986 71.8367 42.6531 72.3093 43.5983C72.9 44.5435 72.4274 45.8432 71.3641 46.434C70.3007 47.0247 69.001 46.6703 68.5284 45.7251C68.0558 44.7798 68.4102 43.4802 69.4736 42.8894Z" fill="#A92224"/>
<path d="M64.0385 45.9613C65.22 45.725 66.4016 46.4339 66.6379 47.4973C66.8742 48.5607 66.0471 49.7422 64.9837 49.9785C63.8022 50.2148 62.6207 49.5059 62.3844 48.4425C62.1481 47.3791 62.857 46.1976 64.0385 45.9613Z" fill="#A92224"/>
<path d="M72.3093 20.5586C73.4908 20.3223 74.6723 21.0312 74.9086 22.0946C75.1449 23.158 74.3178 24.3395 73.2545 24.5758C72.073 24.8121 70.8914 24.1032 70.6551 23.0398C70.4188 21.9764 71.1277 20.7949 72.3093 20.5586Z" fill="#A92224"/>
<path d="M59.667 21.1494C60.7303 20.5586 62.03 20.7949 62.6208 21.8583C63.2115 22.8035 62.7389 24.1032 61.7937 24.6939C60.7303 25.2847 59.4307 25.0484 58.8399 23.985C58.2491 22.9217 58.7217 21.7401 59.667 21.1494Z" fill="#A92224"/>
<path d="M78.5714 30.4835C79.6348 29.8927 80.9344 30.129 81.5252 31.0742C82.116 32.0194 81.7615 33.3191 80.6981 33.9099C79.6348 34.5006 78.3351 34.2643 77.7443 33.3191C77.2717 32.3739 77.6262 31.0742 78.5714 30.4835Z" fill="#A92224"/>
<path d="M66.8741 29.7745C67.9375 29.1837 69.2372 29.42 69.8279 30.3652C70.4187 31.3105 70.0642 32.6101 69.0009 33.2009C67.9375 33.7917 66.6378 33.5554 66.047 32.6101C65.4563 31.6649 65.8107 30.3652 66.8741 29.7745Z" fill="#A92224"/>
<path d="M61.0848 32.9647C62.1482 32.3739 63.4479 32.6102 64.0386 33.5554C64.6294 34.5006 64.2749 35.8003 63.2116 36.3911C62.1482 36.9818 60.8485 36.7455 60.2577 35.8003C59.7851 34.8551 60.1396 33.5554 61.0848 32.9647Z" fill="#A92224"/>
<path d="M72.191 26.8207C73.2544 26.23 74.554 26.4663 75.1448 27.4115C75.7356 28.3567 75.3811 29.6564 74.3177 30.2472C73.2544 30.8379 71.9547 30.6016 71.3639 29.6564C70.7732 28.8293 71.1276 27.5297 72.191 26.8207Z" fill="#A92224"/>
<path d="M60.3757 27.0569C61.4391 26.4662 62.7388 26.7025 63.3295 27.6477C63.9203 28.5929 63.5658 29.8926 62.5025 30.4834C61.4391 31.0741 60.1394 30.8378 59.5486 29.8926C58.9579 28.9474 59.4305 27.6477 60.3757 27.0569Z" fill="#A92224"/>
<path d="M66.2835 23.8669C67.3469 23.2761 68.6466 23.5124 69.2373 24.4576C69.8281 25.4029 69.4736 26.7025 68.4103 27.2933C67.3469 27.8841 66.0472 27.6478 65.4565 26.7025C64.8657 25.7573 65.2202 24.4576 66.2835 23.8669Z" fill="#A92224"/>
<path d="M89.7959 47.261C89.087 47.7336 88.4963 48.4425 88.26 49.5059C88.1418 49.9785 88.0237 50.4511 88.0237 50.9237C88.0237 53.4049 90.1504 55.4135 91.0956 56.2406C93.1042 57.8947 95.231 59.1944 97.3577 60.3759C98.7755 61.203 100.312 62.1482 101.611 63.0935C101.966 63.3298 102.32 63.5661 102.675 63.8024H102.793V64.1568H102.675C102.084 64.1568 98.0666 64.1568 94.8765 64.1568H91.0956H62.2664H62.1482C59.3126 64.275 57.1858 66.638 57.1858 69.4737C57.1858 70.8915 57.7766 72.1912 58.7218 73.1364C59.667 74.0816 61.0849 74.5542 62.3846 74.5542L90.5049 74.0816C90.9775 74.0816 91.3319 74.4361 91.3319 74.9087V75.2632C91.3319 75.7358 90.9775 76.0902 90.5049 76.0902L57.7766 76.5628C55.2954 76.681 53.1687 78.4533 52.8142 80.6982C52.696 81.0526 52.696 81.4071 52.696 81.7615C52.696 83.1794 53.2868 84.4791 54.232 85.4243C55.1773 86.3695 56.4769 86.9603 57.8948 86.8421L90.7412 86.3695C91.0956 86.3695 91.4501 86.724 91.4501 87.0784V87.4329C91.4501 87.7873 91.0956 88.1418 90.7412 88.1418L58.9581 88.8507C56.1225 88.9689 53.8776 91.3319 53.8776 94.2857C53.8776 94.6402 53.8776 94.9946 53.9957 95.3491C54.4683 97.7121 56.7132 99.3663 59.1944 99.2481L90.8593 98.5392C91.0956 98.5392 91.2138 98.6574 91.3319 98.7755C91.4501 98.8937 91.5682 99.13 91.5682 99.2481V99.6026C91.5682 99.957 91.2138 100.312 90.8593 100.312L67.5833 100.784C65.5747 100.902 63.5661 102.556 63.2116 104.329C63.2116 104.565 63.0935 104.919 63.0935 105.156C63.0935 106.337 63.5661 107.401 64.3931 108.228C65.2202 109.055 66.4017 109.527 67.5833 109.409L93.2224 109.055L105.865 108.11C108.346 107.873 110.827 107.519 113.19 107.046C116.735 106.219 119.452 105.274 120.516 104.919C123.824 103.62 127.132 101.966 130.322 99.8389C130.322 99.8389 138.002 99.8389 142.374 99.8389L142.256 69.0011C129.85 69.0011 129.85 69.0011 129.613 68.7648L118.98 60.9667L109.055 54.9409C107.755 54.232 106.455 53.4049 105.156 52.5779C102.202 50.6874 99.13 48.797 95.8217 47.261C94.4039 46.5521 92.8679 46.3158 91.5682 46.3158C91.2138 46.6703 90.5049 46.9066 89.7959 47.261Z" fill="#FCEADF"/>
<path d="M89.7959 47.1429C89.087 47.6155 88.4963 48.3244 88.1418 49.3878C88.0237 49.8604 87.9055 50.333 87.9055 50.8056C87.9055 52.9324 89.4415 54.941 91.0956 56.2406C94.4039 58.9582 98.1848 60.7304 101.729 63.0935C102.084 63.3298 102.438 63.5661 102.911 63.8024C101.847 63.8024 91.3319 63.8024 91.3319 63.8024H62.5027C59.5489 63.8024 57.1858 66.2836 57.1858 69.2374C57.1858 72.1912 59.667 74.5543 62.6209 74.5543L90.7412 74.0817C91.0956 74.0817 91.3319 74.318 91.3319 74.6724V75.0269C91.3319 75.3814 91.0956 75.6177 90.7412 75.6177L58.1311 76.0903C55.5317 76.0903 53.2868 77.8626 52.8142 80.4619C52.696 80.8164 52.696 81.1708 52.696 81.5253C52.696 84.4791 55.1773 86.8421 58.1311 86.8421C58.1311 86.8421 86.6058 86.3695 90.9775 86.3695C91.3319 86.3695 91.5682 86.6058 91.5682 86.9603V87.3148C91.5682 87.6692 91.3319 87.9055 90.9775 87.9055C86.724 88.0237 59.3126 88.6144 59.3126 88.6144C56.3588 88.7326 53.8776 91.2138 53.8776 94.1676C53.8776 94.2858 53.8776 94.5221 53.8776 94.6402C54.1139 97.3577 56.7132 99.3663 59.4307 99.2482L91.0956 98.5392C91.4501 98.5392 91.6864 98.7756 91.6864 99.0119V99.3663C91.6864 99.7208 91.4501 99.9571 91.0956 99.9571L67.9377 100.43C65.6928 100.43 63.4479 102.32 63.2116 104.683C63.2116 104.801 63.2116 105.038 63.2116 105.156C63.2116 107.755 65.3384 109.764 67.9377 109.646L93.695 109.291C97.8303 109.055 102.084 108.7 106.219 108.464C108.228 108.346 110.709 107.991 113.545 107.401C117.444 106.574 120.279 105.51 120.87 105.274C123.351 104.329 126.778 102.793 130.559 100.193C130.677 100.193 138.357 100.193 142.61 100.193C143.083 100.193 143.437 99.8389 143.437 99.3663V98.4211C143.437 97.9485 143.083 97.594 142.61 97.594C138.238 97.594 130.559 97.4759 130.559 97.4759C130.086 97.4759 129.495 97.594 129.023 97.9485C126.187 99.9571 122.997 101.493 119.925 102.675C118.98 103.029 116.38 103.974 112.954 104.683C110.709 105.156 108.346 105.51 105.983 105.747L94.1676 106.574H93.5768C93.4587 106.574 93.3405 106.574 93.2224 106.574L67.9377 106.928C67.4651 106.928 66.8743 106.692 66.5199 106.337C66.1654 105.983 65.9291 105.51 65.9291 104.919C65.9291 104.801 65.9291 104.683 65.9291 104.447C66.0473 103.738 67.1107 102.911 68.0559 102.911L91.3319 102.438C93.1042 102.438 94.522 100.902 94.4039 99.2482V99.0119C94.4039 98.4211 94.2857 97.8303 93.9313 97.2396C93.3405 96.2944 92.2771 95.7036 91.2138 95.8217L59.5489 96.8851C58.2492 96.8851 56.9495 96.058 56.7132 94.8765C56.7132 94.6402 56.5951 94.5221 56.5951 94.2858C56.5951 92.7498 57.8948 91.4501 59.4307 91.3319L91.0956 90.623C92.8679 90.623 94.2857 89.087 94.1676 87.3148V86.9603C94.1676 85.188 92.6316 83.7702 90.8593 83.7702L58.1311 84.2428C57.6585 84.2428 57.1858 84.1246 56.8314 84.0065C55.8862 83.5339 55.2954 82.5887 55.2954 81.5253C55.2954 81.289 55.2954 81.1708 55.2954 80.9345C55.5317 79.753 56.7132 78.8078 58.1311 78.8078L90.7412 78.3352C92.5135 78.3352 93.9313 76.7992 93.9313 75.0269V74.6724C93.9313 72.9002 92.3953 71.4823 90.623 71.4823L62.6209 71.9549C61.0849 71.9549 59.9033 70.7734 59.7852 69.2374C59.7852 67.7014 60.9667 66.5199 62.3846 66.5199H91.2138C91.4501 66.5199 92.9861 66.5199 94.8765 66.5199C98.0666 66.5199 102.202 66.5199 102.793 66.5199C103.974 66.5199 105.038 65.6928 105.274 64.5113C105.274 64.275 105.392 64.0387 105.392 63.8024C105.392 62.8572 104.801 62.0301 103.974 61.5575C103.738 61.4394 103.383 61.2031 103.147 61.0849C101.729 60.0215 100.193 59.1945 98.6574 58.2492C96.5306 56.9496 94.522 55.768 92.6316 54.2321C91.3319 53.1687 90.5049 51.869 90.5049 50.8056C90.5049 50.5693 90.5049 50.333 90.623 50.2149C90.8593 49.6241 91.0956 49.3878 91.2138 49.2697C91.9227 48.797 93.695 48.9152 95.3491 49.7423C98.4211 51.1601 101.375 53.0505 104.329 54.8228C105.628 55.6499 106.928 56.477 108.228 57.304L118.271 63.448C119.216 64.1569 120.279 64.8658 121.225 65.5747C122.76 66.6381 124.178 67.7014 125.714 68.7648C126.305 69.2374 127.014 69.71 127.487 70.1826C128.077 70.6553 128.55 71.246 129.141 71.4823C129.495 71.6005 137.766 71.6005 142.374 71.6005C142.965 71.6005 143.319 71.1279 143.319 70.6553V70.0645C143.319 69.4737 142.846 69.1193 142.374 69.1193C141.192 69.1193 139.066 69.1193 137.766 69.1193C135.757 69.1193 133.867 69.1193 131.858 69.1193C131.386 69.1193 130.795 69.1193 130.322 69.1193C130.204 69.1193 130.086 69.1193 129.968 68.883C129.731 68.6467 129.377 68.4104 129.141 68.0559C128.55 67.5833 127.959 67.1107 127.368 66.6381C125.242 65.1021 123.115 63.5661 120.87 62.1483C120.397 61.7938 120.043 61.5575 119.57 61.2031C116.971 59.5489 114.254 57.8948 111.654 56.3588C106.574 53.5231 101.611 49.8604 96.2943 47.3792C94.2857 46.434 91.5682 45.9614 89.7959 47.1429Z" fill="#A92224"/>
<path d="M113.426 39.9355C111.536 35.5638 109.173 32.7282 104.683 30.9559C109.055 28.3565 111.418 25.0482 113.19 21.5037C114.962 25.1664 117.562 28.5928 121.933 30.9559C117.562 32.8463 115.081 35.8001 113.426 39.9355Z" fill="#FFEC00"/>
<path d="M113.426 40.8807C113.072 40.8807 112.717 40.6444 112.599 40.29C110.709 35.8002 108.346 33.319 104.329 31.783C103.974 31.6648 103.856 31.4285 103.738 31.0741C103.738 30.7196 103.856 30.3651 104.21 30.247C107.873 28.0021 110.472 25.0483 112.363 21.1492C112.481 20.7948 112.836 20.6766 113.19 20.6766C113.544 20.6766 113.899 20.9129 114.017 21.1492C115.908 25.1664 118.625 28.1202 122.288 30.247C122.524 30.3651 122.76 30.7196 122.76 31.0741C122.76 31.4285 122.524 31.6648 122.17 31.783C118.271 33.4371 115.907 36.0365 114.253 40.29C114.135 40.6444 113.899 40.8807 113.426 40.8807ZM106.573 30.8378C109.645 32.3737 111.772 34.5005 113.426 37.8088C114.962 34.6186 117.089 32.3737 120.043 30.8378C117.207 28.9473 114.962 26.4661 113.19 23.3941C111.536 26.4661 109.409 28.8292 106.573 30.8378Z" fill="#A92224"/>
</g>
<defs>
<clipPath id="clip0">
<rect width="143.673" height="110" fill="white"/>
</clipPath>
</defs>
</svg>
