<svg width="141" height="120" viewBox="0 0 141 120" fill="none" xmlns="http://www.w3.org/2000/svg">
<g clip-path="url(#clip0)">
<path d="M69.1641 34.1211C69.2794 35.0433 68.5878 35.9655 67.6656 36.0808C66.7434 36.196 65.8212 35.5044 65.7059 34.5822C65.5907 33.66 66.2823 32.7378 67.2045 32.6225C68.1267 32.392 69.0489 33.0836 69.1641 34.1211Z" fill="#A92224"/>
<path d="M63.1963 39.4661C64.1125 39.1966 64.6368 38.2354 64.3673 37.3192C64.0978 36.403 63.1366 35.8788 62.2204 36.1483C61.3042 36.4178 60.78 37.3789 61.0495 38.2951C61.319 39.2113 62.2801 39.7356 63.1963 39.4661Z" fill="#A92224"/>
<path d="M82.0748 24.0922C82.19 25.0144 81.4984 25.9366 80.5762 26.0518C79.654 26.1671 78.7318 25.4755 78.6166 24.5533C78.5013 23.6311 79.1929 22.7089 80.1151 22.5936C81.0373 22.4784 81.9595 23.17 82.0748 24.0922Z" fill="#A92224"/>
<path d="M63.0545 17.9827C63.1698 18.9049 62.4782 19.8271 61.556 19.9423C60.6338 20.0576 59.7116 19.366 59.5963 18.4438C59.481 17.5216 60.1727 16.5994 61.0949 16.4841C62.1323 16.3689 62.9393 17.0605 63.0545 17.9827Z" fill="#A92224"/>
<path d="M62.5195 29.9975C63.4317 29.7149 63.942 28.7462 63.6593 27.8341C63.3767 26.9219 62.4081 26.4116 61.4959 26.6942C60.5837 26.9769 60.0734 27.9455 60.3561 28.8577C60.6387 29.7699 61.6073 30.2802 62.5195 29.9975Z" fill="#A92224"/>
<path d="M77.6944 28.0116C77.8097 28.9338 77.118 29.856 76.1958 29.9713C75.2737 30.0865 74.3515 29.3949 74.2362 28.4727C74.1209 27.5505 74.8126 26.6283 75.7347 26.5131C76.7722 26.3978 77.5791 27.0894 77.6944 28.0116Z" fill="#A92224"/>
<path d="M63.4005 23.0547C63.5157 23.9769 62.8241 24.8991 61.9019 25.0144C60.9797 25.1296 60.0575 24.438 59.9423 23.5158C59.827 22.5936 60.5186 21.6714 61.4408 21.5561C62.363 21.4409 63.2852 22.1325 63.4005 23.0547Z" fill="#A92224"/>
<path d="M59.1354 40.3458C59.1354 41.268 58.4438 42.1902 57.5216 42.1902C56.5994 42.1902 55.7925 41.4985 55.7925 40.4611C55.7925 39.5389 56.4841 38.6167 57.4063 38.6167C58.3285 38.6167 59.0201 39.4236 59.1354 40.3458Z" fill="#A92224"/>
<path d="M58.6743 33.7753C58.9048 34.6975 58.3284 35.6197 57.4062 35.8502C56.4841 36.0808 55.6771 35.3891 55.4466 34.4669C55.216 33.5448 55.7924 32.6226 56.7146 32.392C57.6368 32.1615 58.4437 32.7378 58.6743 33.7753Z" fill="#A92224"/>
<path d="M58.3285 27.5504C58.4437 28.4726 57.8674 29.3948 56.9452 29.5101C56.023 29.6254 55.2161 28.9337 55.1008 28.0115C54.9855 27.0893 55.5619 26.1671 56.4841 26.0519C57.291 25.8213 58.0979 26.513 58.3285 27.5504Z" fill="#A92224"/>
<path d="M57.9827 21.9021C58.0979 22.8243 57.4063 23.7464 56.4841 23.7464C55.5619 23.8617 54.755 23.0548 54.755 22.1326C54.6397 21.2104 55.3314 20.2882 56.2536 20.2882C57.0605 20.173 57.8674 20.9799 57.9827 21.9021Z" fill="#A92224"/>
<path d="M57.5215 16.9453C57.2909 17.8674 56.3687 18.4438 55.5618 18.3285C54.6396 18.098 54.1785 17.1758 54.4091 16.2536C54.6396 15.3314 55.5618 14.7551 56.3687 14.8703C57.1757 14.9856 57.752 15.9078 57.5215 16.9453Z" fill="#A92224"/>
<path d="M73.314 31.7003C73.0834 32.6224 72.1612 33.1988 71.3543 33.0835C70.4321 32.853 69.971 31.9308 70.2016 31.0086C70.4321 30.0864 71.3543 29.5101 72.1612 29.6253C72.9681 29.8559 73.5445 30.7781 73.314 31.7003Z" fill="#A92224"/>
<path d="M77.2334 22.2479C77.3487 23.1701 76.657 24.0922 75.7348 24.0922C74.8126 24.2075 74.0057 23.4006 74.0057 22.4784C73.8905 21.5562 74.5821 20.634 75.5043 20.634C76.4265 20.634 77.2334 21.3257 77.2334 22.2479Z" fill="#A92224"/>
<path d="M63.8616 32.8531C63.9769 33.7753 63.2853 34.6975 62.4783 34.8128C61.5562 34.928 60.7492 34.2364 60.634 33.1989C60.5187 32.2767 61.2103 31.3545 62.0172 31.2393C62.9394 31.2393 63.7464 31.9309 63.8616 32.8531Z" fill="#A92224"/>
<path d="M68.4725 24.5533C68.5877 25.4755 67.8961 26.3977 67.0892 26.5129C66.167 26.6282 65.3601 25.9366 65.2448 24.8991C65.1295 23.9769 65.8212 23.0547 66.6281 22.9395C67.5503 22.9395 68.3572 23.6311 68.4725 24.5533Z" fill="#A92224"/>
<path d="M68.1268 19.2508C68.242 20.173 67.5504 21.0952 66.7435 21.2104C65.8213 21.3257 65.0144 20.6341 64.8991 19.5966C64.7838 18.6744 65.4755 17.7522 66.2824 17.637C67.2046 17.637 68.0115 18.3286 68.1268 19.2508Z" fill="#A92224"/>
<path d="M68.8184 29.3948C68.9337 30.317 68.242 31.2392 67.4351 31.3545C66.5129 31.4698 65.706 30.7781 65.5907 29.7407C65.4755 28.8185 66.1671 27.8963 66.974 27.781C67.8962 27.781 68.7031 28.4726 68.8184 29.3948Z" fill="#A92224"/>
<path d="M72.7376 20.7493C72.8529 21.6715 72.1612 22.5937 71.3543 22.709C70.4321 22.8243 69.6252 22.1326 69.5099 21.0952C69.3947 20.173 70.0863 19.2508 70.8932 19.1355C71.8154 19.1355 72.6223 19.8271 72.7376 20.7493Z" fill="#A92224"/>
<path d="M73.0833 26.1671C73.1986 27.0893 72.5069 28.0115 71.7 28.1268C70.7778 28.2421 69.9709 27.5504 69.8556 26.513C69.7404 25.5908 70.432 24.6686 71.2389 24.5533C72.1611 24.438 72.968 25.1297 73.0833 26.1671Z" fill="#A92224"/>
<path d="M126.455 39.7695C126.455 39.4237 126.34 39.0778 126.11 38.8473C125.879 38.6167 125.533 38.5015 125.187 38.5015L111.239 38.732C110.548 38.732 109.971 39.3084 109.971 40L110.086 46.1095C110.086 46.4554 110.202 46.8012 110.432 47.0317C110.663 47.2623 111.009 47.3775 111.354 47.3775L125.303 47.147C125.994 47.147 126.571 46.5706 126.571 45.879L126.455 39.7695Z" fill="#A92224"/>
<path d="M112.968 46.8012H113.891L113.66 39.1931L112.738 39.3084L112.968 46.8012Z" fill="white"/>
<path d="M116.196 39.1931H115.274L115.504 46.8012H116.426L116.196 39.1931Z" fill="white"/>
<path d="M118.732 39.1931H117.81L117.925 46.6859H118.847L118.732 39.1931Z" fill="white"/>
<path d="M121.153 39.0779L120.23 39.1932L120.461 46.6859H121.383L121.153 39.0779Z" fill="white"/>
<path d="M123.689 39.0779H122.767L122.997 46.6859H123.919L123.689 39.0779Z" fill="white"/>
<path d="M110.778 50.951C110.893 50.951 111.124 50.951 111.354 50.951H112.046C114.121 50.951 119.424 50.8357 125.764 50.7205C125.879 50.7205 125.994 50.7205 126.11 50.7205C126.571 50.7205 126.686 50.7205 126.801 51.2968C128.069 56.9452 130.951 61.7867 133.602 65.9366C134.179 66.8588 134.755 67.8963 135.216 68.9337C136.715 72.0461 137.637 75.5043 138.213 80.2305C139.02 86.1095 138.905 91.7579 138.674 98.5591V98.7896C138.559 102.017 136.945 103.977 134.179 104.207C128.184 104.669 122.421 104.784 115.735 104.784H112.161C111.355 104.784 110.548 104.784 109.625 104.784H109.51C106.744 104.784 103.746 104.784 100.403 104.553C97.8675 104.323 94.9856 102.939 94.7551 100.058L94.6398 99.1354C94.4093 96.0231 94.1787 92.6801 93.9482 90.0288L93.7176 87.147C93.2565 80.5764 95.2162 74.8127 99.7119 69.6254C100.173 69.049 100.634 68.5879 101.095 68.1268C106.513 62.1326 110.548 54.2939 110.778 50.951C110.778 51.0663 110.778 50.951 110.778 50.951Z" fill="white"/>
<path d="M139.481 79.7696C138.905 75.735 138.098 71.9309 136.369 68.2422L99.7117 68.8186C95.3313 73.8906 93.1411 79.8848 93.6022 86.8013C93.8327 90.8359 94.1786 94.8704 94.5244 98.7897L139.942 98.0981C140.173 92.1039 140.288 85.9944 139.481 79.7696Z" fill="#A92224"/>
<path d="M98.5591 106.052C95.4467 105.245 93.3718 103.055 93.1413 100.288L93.026 99.2508C92.7954 96.2537 92.5649 93.2566 92.3343 90.2595L92.1038 87.1471C91.6427 80.1154 93.7176 73.8906 98.4439 68.4727C98.905 67.8964 99.366 67.4353 99.8271 66.9742C105.476 60.6341 108.818 53.4871 109.049 50.8358C109.164 49.222 110.432 49.222 111.239 49.222H111.931C114.006 49.222 119.308 49.1067 125.648 48.9915C125.994 48.9915 126.455 48.9915 126.801 49.1067C127.608 49.3373 128.069 49.9136 128.3 50.8358C129.453 56.1384 132.334 60.9799 134.87 65.0145C135.562 66.052 136.023 67.0894 136.599 68.2422C138.098 71.4698 139.136 75.1586 139.827 80.0001C140.634 85.9943 140.519 91.758 140.288 98.6744V98.905C140.173 103.055 137.983 105.591 134.294 105.821C128.876 106.283 123.458 106.283 117.925 106.398L112.161 106.513C111.239 106.513 110.432 106.513 109.51 106.513H109.28C107.896 106.513 106.628 106.513 105.13 106.513C103.401 106.513 101.672 106.398 100.058 106.283C99.7119 106.283 99.1355 106.167 98.5591 106.052ZM111.009 51.1817C110.663 54.5246 106.628 62.3632 101.326 68.3574C100.865 68.8185 100.519 69.2796 99.9424 69.856C95.562 74.9281 93.6024 80.6917 94.0635 87.1471L94.294 90.0289C94.5246 92.6802 94.7551 96.0232 94.9856 99.1355L95.1009 100.058C95.2162 102.017 96.7148 103.516 99.0202 104.092C99.4813 104.208 99.9424 104.323 100.404 104.323C103.862 104.553 106.744 104.553 109.51 104.553H109.625C110.432 104.553 111.355 104.553 112.161 104.553H115.735C122.421 104.438 128.184 104.438 134.179 103.977C136.83 103.746 138.329 101.902 138.444 98.905V98.6744C138.674 91.8733 138.79 86.2249 137.983 80.3459C137.291 75.735 136.369 72.2768 134.986 69.1644C134.525 68.1269 133.948 67.0894 133.372 66.1672C130.721 62.0174 127.839 57.0606 126.571 51.4122C126.455 51.0664 126.455 51.0664 126.455 51.0664C126.455 51.0664 126.34 51.0664 126.225 51.0664C126.11 51.0664 125.994 51.0664 125.879 51.0664C119.654 51.2969 114.236 51.2969 112.161 51.2969C112.046 51.1817 111.124 51.1817 111.009 51.1817Z" fill="#A92224"/>
<path d="M95.3313 20.5188L95.4466 27.8963C95.4466 28.5879 95.9077 29.1643 96.5993 29.2796C104.899 30.2018 109.164 34.6975 110.432 36.196C110.663 36.5418 111.124 36.6571 111.47 36.6571L124.841 36.5418C125.187 36.5418 125.533 36.4266 125.764 36.196C127.147 34.8127 131.758 32.1614 133.487 31.124C133.948 30.8934 134.179 30.4323 134.179 29.9712L134.063 21.7868C134.063 21.441 133.948 21.0951 133.602 20.8646L127.839 15.2162C127.608 14.9856 127.262 14.8704 126.916 14.8704L106.859 15.1009C106.743 15.1009 106.513 15.1009 106.398 15.2162L96.2535 19.2508C95.6771 19.366 95.3313 19.9424 95.3313 20.5188Z" fill="#A92224"/>
<path d="M93.8328 20.9798L93.9481 27.6657C93.9481 28.3574 93.3717 28.8185 92.7954 28.5879L88.1844 27.5505C87.7233 27.4352 87.3775 27.0894 87.3775 26.6283L87.2622 21.6715C87.2622 21.2104 87.608 20.7493 88.0691 20.634L92.6801 19.9424C93.2565 19.9424 93.8328 20.4035 93.8328 20.9798Z" fill="#A92224"/>
<path d="M97.752 31.0087C102.132 31.8157 104.899 33.66 106.167 34.5822C106.628 34.9281 106.743 35.6197 106.398 36.0808C101.787 43.5736 96.8298 46.3402 93.2563 47.1471C92.5647 47.2623 91.9883 46.4554 92.4494 45.8791C95.6771 41.8445 97.6367 35.9655 96.8298 31.9309C96.7145 31.3546 97.1756 30.8935 97.752 31.0087Z" fill="#A92224"/>
<path d="M114.006 90.6053C114.006 91.0664 114.006 91.6428 114.006 91.8733C114.006 91.9886 114.006 92.3344 114.006 92.6802C114.006 93.2566 113.66 93.7177 112.853 93.7177C112.507 93.7177 111.931 93.7177 111.931 93.2566C111.931 93.026 112.046 92.9108 112.277 92.7955H112.392C112.622 92.7955 112.738 92.9108 112.853 92.9108C113.083 92.9108 113.199 92.7955 113.199 92.4497V90.6053H111.815C111.585 90.6053 111.47 90.3748 111.47 90.2595C111.47 90.0289 111.585 89.9137 111.815 89.9137H113.199C113.199 89.6831 113.199 89.3373 113.199 89.1067H112.622C112.392 89.1067 112.277 88.8762 112.277 88.7609C111.815 89.222 111.7 89.3373 111.47 89.3373C111.354 89.3373 111.239 89.3373 111.239 89.222C111.354 89.4526 111.354 89.6831 111.354 90.1442C111.354 90.8358 111.009 91.4122 110.317 91.4122C109.856 91.4122 109.741 91.1817 109.741 90.9511C109.741 90.7206 109.856 90.6053 110.086 90.6053H110.202H110.317C110.547 90.6053 110.663 90.49 110.663 90.0289C110.663 89.6831 110.547 89.3373 110.317 89.1067C110.202 88.8762 110.086 88.7609 110.086 88.5304C110.086 88.2998 110.202 88.1846 110.202 88.0693C110.432 87.6082 110.547 87.2624 110.547 87.1471C110.547 87.0318 110.547 87.0318 110.202 87.0318C109.856 87.0318 109.741 87.0318 109.741 87.3776C109.741 88.1846 109.741 89.222 109.741 90.2595C109.741 92.9108 109.741 93.1413 109.741 93.6024C109.741 93.833 109.51 93.9482 109.279 93.9482C109.049 93.9482 108.818 93.833 108.818 93.6024C108.818 91.9886 108.818 88.9915 108.818 87.2624C108.818 86.8013 109.049 86.4554 109.625 86.4554C109.856 86.4554 110.086 86.4554 110.317 86.4554C110.778 86.4554 111.47 86.4554 111.47 87.1471C111.47 87.3776 111.47 87.6082 111.009 88.4151C110.893 88.5304 110.893 88.6456 110.893 88.7609C110.893 88.8762 110.893 88.9915 111.009 89.1067L111.124 89.222C111.124 89.1067 111.124 88.9915 111.354 88.8762C111.931 88.2998 112.507 87.7235 112.968 86.9165C113.199 86.5707 113.429 86.4554 113.66 86.4554C113.89 86.4554 114.236 86.5707 114.467 86.8013C115.043 87.4929 115.735 88.0693 116.311 88.5304C116.426 88.6456 116.426 88.7609 116.426 88.8762C116.426 89.1067 116.196 89.3373 115.965 89.3373C115.85 89.3373 115.735 89.3373 115.62 89.222C115.043 88.6456 114.352 87.954 113.89 87.3776L113.775 87.2624C113.775 87.2624 113.66 87.2624 113.66 87.3776C113.429 87.8387 113.083 88.1846 112.738 88.5304H114.813C115.043 88.5304 115.158 88.7609 115.158 88.8762C115.158 89.1067 115.043 89.222 114.813 89.222H114.121V90.0289H115.85C116.081 90.0289 116.196 90.2595 116.196 90.3748C116.196 90.6053 116.081 90.7206 115.85 90.7206L114.006 90.6053ZM110.778 92.6802C110.778 92.565 110.893 92.4497 111.009 92.3344C111.354 92.1039 111.7 91.6428 111.931 91.1817C112.046 91.0664 112.161 90.9511 112.277 90.9511C112.507 90.9511 112.738 91.1817 112.738 91.4122C112.738 91.758 111.815 93.026 111.239 93.026C111.009 93.026 110.778 92.9108 110.778 92.6802ZM115.389 92.6802C115.158 92.3344 114.813 91.8733 114.467 91.6428C114.352 91.5275 114.352 91.5275 114.352 91.4122C114.352 91.1817 114.582 91.0664 114.813 91.0664C115.158 91.0664 116.196 92.1039 116.196 92.565C116.196 92.7955 115.965 93.026 115.735 93.026C115.62 93.026 115.504 92.9108 115.389 92.6802Z" fill="white"/>
<path d="M122.767 87.2623V87.4929C122.767 87.7234 122.536 87.8387 122.305 87.8387C122.075 87.8387 121.96 87.7234 121.844 87.4929V87.2623H120.461V87.4929C120.461 87.7234 120.231 87.8387 120 87.8387C119.769 87.8387 119.654 87.7234 119.539 87.4929V87.2623H117.694C117.464 87.2623 117.233 87.0318 117.233 86.9165C117.233 86.686 117.349 86.5707 117.694 86.5707H119.539V86.1096C119.539 85.8791 119.769 85.7638 120 85.7638C120.231 85.7638 120.461 85.8791 120.461 86.1096V86.5707H121.844V86.1096C121.844 85.8791 122.075 85.7638 122.305 85.7638C122.536 85.7638 122.767 85.8791 122.767 86.1096V86.5707H124.726C124.957 86.5707 125.072 86.8013 125.072 86.9165C125.072 87.1471 124.957 87.2623 124.726 87.2623H122.767ZM123.689 93.6024C122.997 93.6024 122.19 93.6024 121.383 93.6024C120.576 93.6024 119.885 93.6024 119.078 93.6024C118.386 93.6024 118.04 93.2566 117.925 92.7955C117.925 92.3344 117.925 91.6428 117.925 90.9511C117.925 90.1442 117.925 89.4526 117.925 88.7609C117.925 88.2998 118.386 87.954 118.963 87.954C119.654 87.954 120.461 87.954 121.268 87.954C122.075 87.954 122.882 87.954 123.573 87.954C124.035 87.954 124.611 88.2998 124.611 88.7609C124.611 89.3373 124.611 90.1442 124.611 90.8358C124.611 91.5275 124.611 92.1038 124.611 92.6802C124.611 93.2566 124.265 93.6024 123.689 93.6024ZM123.804 90.8358C123.804 90.2595 123.804 89.5678 123.804 89.1067C123.804 88.7609 123.573 88.6456 123.228 88.6456C122.651 88.6456 121.96 88.6456 121.268 88.6456C120.576 88.6456 120 88.6456 119.424 88.6456C118.963 88.6456 118.847 88.7609 118.847 89.1067C118.847 89.5678 118.847 90.1442 118.847 90.7206C118.847 91.2969 118.847 91.9886 118.847 92.4497C118.847 92.7955 119.078 92.9108 119.539 92.9108C120.115 92.9108 120.692 92.9108 121.383 92.9108C121.96 92.9108 122.651 92.9108 123.343 92.9108C123.804 92.9108 123.919 92.6802 123.919 92.4497C123.804 91.9886 123.804 91.4122 123.804 90.8358ZM121.729 92.3344C121.729 92.5649 121.499 92.6802 121.383 92.6802C121.153 92.6802 121.037 92.5649 121.037 92.3344V91.4122C120.461 91.9886 119.769 92.4497 119.424 92.4497C119.193 92.4497 119.078 92.2191 119.078 92.1038C119.078 91.9886 119.193 91.8733 119.308 91.758C119.885 91.5275 120.346 91.1817 120.807 90.8358H119.654C119.424 90.8358 119.308 90.7206 119.308 90.49C119.308 90.3747 119.424 90.1442 119.654 90.1442H121.153V89.7984C121.153 89.7984 120.922 89.7984 120.115 89.7984C119.885 89.7984 119.769 89.5678 119.769 89.4525C119.769 89.3373 119.885 89.1067 120.115 89.1067C120.231 89.1067 120.346 89.1067 120.461 89.1067C121.153 89.1067 121.844 89.1067 122.536 88.8762H122.651C122.882 88.8762 122.997 88.9915 122.997 89.222C122.997 89.5678 122.421 89.6831 121.96 89.6831V90.1442H123.343C123.573 90.1442 123.689 90.3747 123.689 90.49C123.689 90.6053 123.573 90.8358 123.343 90.8358H121.844L121.729 92.3344ZM122.882 92.1038C122.651 91.8733 122.305 91.6428 121.96 91.4122C121.844 91.2969 121.729 91.1817 121.729 91.1817C121.729 91.0664 121.844 90.8358 122.075 90.8358C122.305 90.8358 123.458 91.2969 123.458 91.758C123.458 91.9886 123.228 92.1038 123.112 92.1038C122.997 92.2191 122.997 92.2191 122.882 92.1038Z" fill="white"/>
<path d="M97.7521 84.3805C97.4063 84.611 97.0605 84.4958 96.8299 84.2652C96.7147 84.0347 96.7147 83.6889 97.0605 83.5736C98.6743 82.7667 99.1354 81.1528 99.0201 79.7695C99.0201 79.4237 99.2507 79.1932 99.5965 79.1932C99.9423 79.1932 100.173 79.3084 100.173 79.7695C100.173 79.8848 100.173 80.0001 100.173 80.1154C100.173 80.1154 100.173 80.1154 100.288 80.1154C100.98 79.8848 101.671 79.4237 102.017 78.8474C102.133 78.6168 102.133 78.5015 101.902 78.5015C100.865 78.5015 98.7896 78.5015 97.4063 78.6168C96.5994 78.6168 96.5994 77.6946 97.291 77.6946C98.6743 77.5793 100.749 77.5793 102.133 77.5793C103.17 77.5793 103.631 78.3863 102.939 79.1932C102.363 79.8848 101.671 80.5765 100.634 80.9223C100.403 81.0376 100.173 81.0376 100.058 80.9223C99.827 82.3056 99.1354 83.4583 97.7521 84.3805Z" fill="white"/>
<path d="M104.323 82.0751C105.706 81.3834 106.513 80.0002 106.513 78.1558C106.513 77.4641 107.435 77.4641 107.55 78.0405C107.666 79.8849 106.859 81.8445 105.014 82.882C104.207 83.3431 103.631 82.4209 104.323 82.0751ZM109.395 82.4209C108.818 82.7667 108.127 82.5362 108.127 81.614C108.242 80.8071 108.242 78.5016 108.242 77.9252C108.242 77.2336 109.164 77.2336 109.164 77.9252C109.164 78.271 109.049 80.8071 109.049 81.1529C109.049 81.3834 109.164 81.3834 109.28 81.2682C110.086 80.8071 110.893 79.8849 111.354 78.8474C111.7 78.1558 112.507 78.7321 112.277 79.3085C111.7 80.5765 110.663 81.7293 109.395 82.4209Z" fill="white"/>
<path d="M118.501 82.5361C117.464 82.6514 115.965 82.6514 114.928 82.6514C114.236 82.6514 114.236 81.6139 114.928 81.6139C115.965 81.6139 117.694 81.6139 118.386 81.6139C118.617 81.6139 118.962 81.3834 118.962 81.0376C118.962 80.4612 118.962 79.539 118.962 78.9626C118.962 78.6168 118.732 78.5015 118.386 78.5015C117.579 78.5015 116.081 78.5015 115.043 78.6168C114.352 78.6168 114.236 77.6946 115.043 77.6946C116.081 77.6946 117.81 77.5793 118.732 77.5793C119.654 77.5793 120 78.1557 120 78.7321C120 79.3085 120 80.3459 120 81.1528C119.885 82.1903 119.193 82.5361 118.501 82.5361Z" fill="white"/>
<path d="M122.421 80.1154C122.075 80.1154 121.96 79.8849 121.96 79.6543C121.96 79.4238 122.19 79.1932 122.421 79.1932H128.415C128.761 79.1932 128.876 79.4238 128.876 79.6543C128.876 79.8849 128.761 80.1154 128.415 80.1154H122.421Z" fill="white"/>
<path d="M129.106 81.9598C130.49 81.2681 131.297 79.8848 131.297 78.0405C131.297 77.3488 132.219 77.3488 132.334 77.9252C132.449 79.7696 131.642 81.7292 129.798 82.7667C128.991 83.1125 128.415 82.3056 129.106 81.9598ZM134.178 82.1903C133.602 82.5361 132.91 82.3056 132.91 81.3834C133.026 80.5765 133.026 78.271 133.026 77.6946C133.026 77.003 133.948 77.003 133.948 77.6946C133.948 78.0405 133.833 80.5765 133.833 80.9223C133.833 81.1528 133.948 81.1529 134.063 81.0376C134.87 80.5765 135.677 79.6543 136.138 78.6168C136.484 77.9252 137.291 78.5015 137.06 79.0779C136.484 80.3459 135.447 81.4987 134.178 82.1903Z" fill="white"/>
<path d="M73.4294 106.974C72.7378 106.398 71.9309 106.282 71.2392 106.628C70.7781 106.744 70.3171 106.859 69.856 106.628L68.9338 106.398C69.6254 105.13 70.0865 103.862 70.3171 102.478L71.3545 102.94C71.7003 103.055 71.9309 103.401 72.0462 103.631C72.392 104.208 72.9684 104.669 73.66 104.784C75.0433 105.014 76.3113 103.862 76.0807 102.363C75.9655 101.556 75.3891 100.865 74.6975 100.519C73.8905 100.173 73.0836 100.404 72.5073 100.865C72.392 101.21 71.9309 101.441 71.4698 101.441H70.5476C70.7781 100.058 70.7781 98.6744 70.5476 97.2911H71.7003C72.0462 97.2911 72.392 97.5217 72.6225 97.7522C73.0836 98.2133 73.8905 98.4439 74.5822 98.3286C75.9655 97.9828 76.7724 96.4842 76.0807 95.2162C75.7349 94.5245 74.928 93.9482 74.1211 93.9482C73.1989 93.9482 72.5073 94.4093 72.1614 95.1009C71.9309 95.4467 71.5851 95.7926 71.124 96.0231L70.3171 96.4842C70.0865 95.1009 69.5101 93.8329 68.9338 92.5649L70.0865 92.2191C70.4323 92.1038 70.7781 92.1038 71.124 92.3343C71.8156 92.5649 72.5073 92.5649 73.1989 92.2191C74.3516 91.5274 74.5822 89.7983 73.5447 88.7609C72.9683 88.1845 72.0462 87.9539 71.2392 88.2998C70.4323 88.6456 69.856 89.3372 69.7407 90.0289C69.6254 90.49 69.5101 90.9511 69.1643 91.1816L68.4727 91.8732C67.781 90.7205 66.8588 89.683 65.8214 88.7609L66.7436 88.0692C66.9741 87.8387 67.4352 87.7234 67.781 87.8387C68.4727 87.8387 69.1643 87.6081 69.6254 87.0318C70.4323 85.879 70.0865 84.2652 68.8185 83.6888C68.1269 83.343 67.2047 83.4583 66.513 84.0346C65.8214 84.611 65.5908 85.4179 65.7061 86.1096C65.8214 86.5707 65.7061 87.0318 65.4756 87.3776L65.0145 88.1845C63.8617 87.2623 62.709 86.5707 61.441 86.1096L62.1326 85.0721C62.3632 84.7263 62.5937 84.611 62.9395 84.4957C63.6312 84.2652 64.2075 83.8041 64.4381 83.1124C64.8992 81.8444 63.977 80.3459 62.4784 80.2306C61.6715 80.1153 60.8646 80.5764 60.4035 81.2681C59.9424 82.075 60.0577 82.8819 60.4035 83.5735C60.6341 83.9194 60.7493 84.3805 60.6341 84.8415L60.5188 85.7637C59.1355 85.3026 57.8675 85.0721 56.4842 85.0721L56.7147 83.9194C56.83 83.5735 57.0606 83.2277 57.2911 83.1124C57.8675 82.6513 58.2133 81.9597 58.2133 81.2681C58.098 79.8848 56.83 78.8473 55.4467 79.3084C54.6398 79.539 54.0634 80.2306 53.9482 81.0375C53.8329 81.9597 54.1787 82.6513 54.7551 83.1124C55.1009 83.343 55.3315 83.8041 55.4467 84.2652L55.6773 85.1874C54.294 85.1874 52.9107 85.5332 51.6427 85.879L51.5274 84.7263C51.5274 84.3805 51.6427 84.0346 51.758 83.6888C52.1038 83.1124 52.2191 82.3055 51.9885 81.6139C51.4121 80.3459 49.7983 79.7695 48.6456 80.6917C47.9539 81.1528 47.6081 81.9597 47.7234 82.7666C47.8387 83.6888 48.415 84.2652 49.2219 84.4957C49.683 84.611 50.0289 84.9568 50.2594 85.3026L50.7205 86.1096C49.4525 86.5707 48.2998 87.2623 47.147 88.1845L46.5707 87.147C46.4554 86.8012 46.3401 86.4554 46.4554 86.1096C46.5706 85.4179 46.4554 84.7263 45.879 84.1499C44.9568 83.1124 43.2277 83.2277 42.4208 84.3805C41.9597 85.0721 41.9597 85.9943 42.3055 86.6859C42.7666 87.4928 43.4583 87.8387 44.2652 87.8387C44.7263 87.8387 45.1874 87.9539 45.5332 88.2998L46.3401 88.8761C45.879 89.3372 45.3026 89.7983 44.9568 90.3747C44.4957 90.9511 44.1499 91.5274 43.8041 92.1038L42.7666 91.0663C42.5361 90.8358 42.4208 90.49 42.3055 90.1441C42.1902 89.4525 41.8444 88.7609 41.1528 88.415C39.8848 87.7234 38.3862 88.415 38.0404 89.7983C37.8098 90.6052 38.1557 91.4122 38.732 91.9885C39.4237 92.5649 40.2306 92.6802 40.9222 92.3343C41.3833 92.2191 41.8444 92.1038 42.3055 92.3343L43.2277 92.5649C42.5361 93.8329 42.075 95.1009 41.8444 96.4842L40.807 96.0231C40.4611 95.9078 40.2306 95.562 40.1153 95.3315C39.7695 94.7551 39.1931 94.294 38.5015 94.1787C37.1182 93.9482 35.8502 95.1009 36.0807 96.5995C36.196 97.4064 36.7724 98.098 37.464 98.4439C38.2709 98.7897 39.0779 98.5591 39.6542 98.098C40 97.7522 40.4611 97.6369 40.9222 97.6369H41.8444C41.6139 99.0202 41.6139 100.404 41.8444 101.787H40.6917C40.3459 101.787 40 101.556 39.7695 101.326C39.3084 100.865 38.5015 100.634 37.8098 100.749C36.4266 101.095 35.6196 102.594 36.3113 103.862C36.6571 104.553 37.464 105.13 38.2709 105.13C39.1931 105.13 39.8848 104.669 40.2306 103.977C40.4611 103.631 40.807 103.285 41.2681 103.055L42.1902 102.709C42.4208 104.092 42.9972 105.36 43.5735 106.628L42.4208 106.974C42.075 107.089 41.7292 107.089 41.3833 106.859C40.6917 106.628 40 106.628 39.3084 106.974C38.1557 107.666 37.9251 109.395 38.9626 110.432C39.5389 111.009 40.4611 111.239 41.2681 110.893C42.075 110.548 42.6513 109.856 42.7666 109.164C42.8819 108.703 42.9972 108.242 43.343 108.012L44.0346 107.32C44.7263 108.473 45.6485 109.51 46.6859 110.432L45.7637 111.124C45.5332 111.355 45.0721 111.47 44.7263 111.355C44.0346 111.355 43.343 111.585 42.8819 112.161C42.075 113.314 42.4208 114.928 43.6888 115.504C44.3805 115.85 45.3026 115.735 45.9943 115.159C46.6859 114.582 46.9165 113.775 46.8012 113.084C46.6859 112.623 46.8012 112.161 47.0317 111.816L47.4928 111.009C48.6456 111.931 49.7983 112.623 51.0663 113.084L50.1441 114.121C49.9136 114.467 49.683 114.582 49.3372 114.697C48.6456 114.928 48.0692 115.389 47.8387 116.081C47.3776 117.349 48.2998 118.847 49.7983 118.963C50.6052 119.078 51.4121 118.617 51.8732 117.925C52.3343 117.118 52.2191 116.311 51.8732 115.62C51.6427 115.274 51.5274 114.813 51.6427 114.352L51.758 113.429C53.1413 113.891 54.4093 114.121 55.7926 114.121L55.562 115.274C55.4467 115.62 55.2162 115.965 54.9856 116.081C54.4093 116.542 54.0634 117.233 54.0634 117.925C54.1787 119.308 55.4467 120.346 56.83 119.885C57.6369 119.654 58.2133 118.963 58.3286 118.156C58.4439 117.233 58.098 116.542 57.5217 116.081C57.1758 115.85 56.9453 115.389 56.83 114.928L56.5995 114.006C57.9828 114.006 59.366 113.66 60.6341 113.314L60.7493 114.467C60.7493 114.813 60.6341 115.159 60.5188 115.504C60.173 116.081 60.0577 116.888 60.2882 117.579C60.8646 118.847 62.4784 119.424 63.6312 118.501C64.3228 118.04 64.6686 117.233 64.5534 116.427C64.4381 115.504 63.8617 114.928 63.0548 114.697C62.5937 114.582 62.2479 114.236 62.0173 113.891L61.5562 112.968C62.8243 112.507 63.977 111.816 65.1297 110.893L65.7061 111.931C65.8214 112.277 65.9366 112.623 65.8214 112.968C65.7061 113.66 65.8214 114.352 66.3977 114.928C67.3199 115.965 69.049 115.85 69.856 114.697C70.3171 114.006 70.3171 113.084 69.9712 112.392C69.5101 111.585 68.8185 111.239 68.0116 111.239C67.5505 111.239 67.0894 111.124 66.7436 110.778L65.9366 110.202C66.3977 109.741 66.9741 109.28 67.3199 108.703C67.781 108.127 68.1269 107.55 68.4727 106.974L69.3949 107.781C69.6254 108.012 69.7407 108.357 69.856 108.703C69.9712 109.395 70.3171 110.086 71.0087 110.432C72.2767 111.124 73.7753 110.432 74.1211 109.049C74.3516 108.357 74.1211 107.435 73.4294 106.974Z" fill="#A92224"/>
<path d="M52.7955 105.706C53.1413 104.207 53.6024 103.631 54.294 103.285C55.6773 102.709 57.0606 103.631 57.2912 105.13C57.4064 106.167 56.9453 107.55 56.4842 108.473C55.6773 110.202 53.1413 109.971 52.6802 108.127C52.6802 108.012 52.6802 108.012 52.6802 107.896C52.5649 107.435 52.5649 107.205 52.7955 105.706Z" fill="white"/>
<path d="M52.9106 93.2565L51.0662 94.5245L49.9135 92.7954C49.683 92.4496 49.2219 92.3343 48.876 92.5649C48.4149 92.7954 48.4149 93.3718 48.6455 93.7176L49.9135 95.562L48.2997 96.7148C47.9538 96.9453 47.8386 97.5217 48.1844 97.8675C48.2997 97.9828 48.4149 98.098 48.6455 98.098C48.876 98.098 49.1066 98.098 49.2219 97.9828L50.8357 96.83L51.9884 98.5591C52.1037 98.7897 52.3343 98.905 52.5648 98.905C52.6801 98.905 52.9106 98.905 53.0259 98.7897C53.487 98.5591 53.487 97.9828 53.2564 97.6369L52.1037 95.9078L53.9481 94.5245C54.2939 94.294 54.4092 93.7176 54.0634 93.3718C53.7175 93.026 53.2564 93.026 52.9106 93.2565Z" fill="white"/>
<path d="M65.3602 96.4842C65.1297 96.1384 64.6686 95.9079 64.3228 96.1384L62.2478 97.1759L61.3256 95.2162C61.0951 94.8704 60.634 94.6398 60.2882 94.8704C59.9424 95.1009 59.7118 95.562 59.9424 95.9078L60.8645 97.8675L59.0202 98.7897C58.6743 99.0202 58.4438 99.4813 58.6743 99.8272C58.7896 100.058 58.9049 100.173 59.1354 100.173C59.366 100.288 59.5965 100.288 59.7118 100.173L61.5562 99.2508L62.4784 101.21C62.5937 101.441 62.7089 101.556 62.9395 101.672C63.17 101.787 63.2853 101.672 63.5158 101.672C63.8617 101.441 64.0922 100.98 63.8617 100.634L62.9395 98.6744L65.0144 97.637C65.3602 97.4064 65.4755 96.9453 65.3602 96.4842Z" fill="white"/>
<path d="M44.3804 55.2161L45.8789 55.562C46.34 55.6772 46.6858 56.0231 46.9164 56.3689C47.3775 57.0605 48.2997 57.6369 49.2219 57.6369C50.951 57.6369 52.3343 56.0231 51.9884 54.1787C51.7579 53.1412 50.951 52.3343 49.9135 52.1037C48.876 51.8732 47.8386 52.219 47.1469 52.9107C46.8011 53.3718 46.2247 53.6023 45.6484 53.7176L44.4956 53.9481C44.4956 52.219 44.2651 50.3746 43.804 48.7608L45.3026 48.6455C45.7636 48.6455 46.2247 48.7608 46.5706 48.9914C47.2622 49.4524 48.2997 49.683 49.1066 49.3372C50.7204 48.7608 51.5273 46.6859 50.4899 45.1873C49.9135 44.2651 48.876 43.804 47.8386 43.9193C46.6858 44.0346 45.8789 44.7262 45.5331 45.6484C45.3026 46.2248 44.9567 46.6859 44.3804 46.9164L43.3429 47.4928C42.7665 45.879 41.9596 44.2651 40.9221 42.8818L42.3054 42.1902C42.7665 41.9597 43.2276 41.9597 43.5734 42.0749C44.3804 42.3055 45.4178 42.1902 46.1095 41.4986C47.4928 40.3458 47.4928 38.2709 45.9942 37.1182C45.1873 36.5418 44.0345 36.4265 43.1124 36.8876C42.0749 37.3487 41.6138 38.3862 41.6138 39.3084C41.6138 39.8847 41.3832 40.4611 41.0374 40.9222L40.2305 41.8444C39.0778 40.4611 37.8098 39.3084 36.4265 38.2709L37.4639 37.2334C37.8098 36.8876 38.2709 36.7723 38.7319 36.7723C39.6541 36.6571 40.4611 36.196 40.9221 35.3891C41.8443 33.8905 41.0374 31.8156 39.3083 31.3545C38.2709 31.0086 37.2334 31.3545 36.5418 32.1614C35.7348 32.9683 35.6196 34.0058 35.9654 34.928C36.1959 35.5043 36.1959 36.0807 35.9654 36.6571L35.5043 37.8098C34.0057 36.8876 32.3919 36.3112 30.6628 35.8501L31.1239 34.5821C31.3544 34.121 31.7002 33.8905 32.0461 33.6599C32.853 33.3141 33.4294 32.5072 33.6599 31.585C34.0057 29.8559 32.6224 28.2421 30.7781 28.3574C29.7406 28.3574 28.8184 29.049 28.3573 30.0865C27.8962 31.1239 28.1268 32.1614 28.7031 32.9683C29.049 33.4294 29.2795 34.0058 29.2795 34.5821V35.8501C27.5504 35.5043 25.706 35.389 24.0922 35.6196L24.2075 34.121C24.2075 33.6599 24.438 33.3141 24.7838 32.9683C25.3602 32.3919 25.706 31.4697 25.5907 30.5476C25.2449 28.8184 23.4005 27.781 21.6714 28.4726C20.7492 28.8184 20.0576 29.8559 19.9423 30.8934C19.9423 32.0461 20.4034 32.9683 21.2103 33.4294C21.6714 33.7752 22.1325 34.2363 22.2478 34.6974L22.7089 35.8501C20.9798 36.196 19.2507 36.6571 17.7521 37.464L17.4063 35.9654C17.291 35.5043 17.4063 35.0432 17.5216 34.6974C17.8674 33.8905 17.8674 32.9683 17.4063 32.1614C16.4841 30.6628 14.4092 30.2017 13.0259 31.585C12.219 32.2767 11.9884 33.4294 12.219 34.3516C12.5648 35.389 13.3717 36.0807 14.2939 36.3112C14.8703 36.4265 15.3314 36.7723 15.7925 37.1182L16.5994 38.0403C15.1008 38.8473 13.7175 40 12.4495 41.268L11.5273 40C11.2968 39.6542 11.1815 39.1931 11.1815 38.732C11.2968 37.8098 10.951 36.8876 10.2593 36.3112C8.87604 35.1585 6.80111 35.5043 5.9942 37.2334C5.5331 38.1556 5.64837 39.3084 6.22474 40.1153C6.91639 41.0375 7.95385 41.3833 8.87604 41.1527C9.45241 41.0375 10.0288 41.1527 10.4899 41.4986L11.5273 42.0749C10.3746 43.3429 9.45241 44.8415 8.76077 46.4553L7.49275 45.5331C7.14693 45.3026 6.91639 44.8415 6.80111 44.3804C6.57056 43.5735 5.9942 42.7666 5.07201 42.4207C3.45817 41.8444 1.61379 42.8818 1.38324 44.7262C1.26797 45.7637 1.72907 46.8011 2.65126 47.3775C3.57345 47.9539 4.61091 47.9539 5.5331 47.4928C5.9942 47.2622 6.68584 47.147 7.26221 47.2622L8.53022 47.4928C8.1844 48.2997 7.95385 49.1066 7.7233 50.0288C7.49275 50.951 7.37748 51.7579 7.37748 52.6801L5.87892 52.3343C5.41783 52.219 5.07201 51.8732 4.84146 51.5274C4.38036 50.8357 3.45817 50.2594 2.53598 50.2594C0.806875 50.2594 -0.57641 51.8732 -0.230589 53.7176C0.34578 54.5245 1.1527 55.3314 2.19016 55.562C3.22762 55.7925 4.26509 55.4467 4.95673 54.755C5.30255 54.2939 5.87892 54.0634 6.45529 53.9481L7.60803 53.7176C7.60803 55.4467 7.83858 57.2911 8.29967 58.9049L6.80111 59.0202C6.34002 59.0202 5.87892 58.9049 5.5331 58.6743C4.84146 58.2133 3.80399 57.9827 2.99708 58.3285C1.38324 58.9049 0.576328 60.9798 1.61379 62.4784C2.19016 63.4006 3.22762 63.8617 4.26509 63.7464C5.41783 63.6311 6.22474 62.9395 6.57056 62.0173C6.80111 61.4409 7.14693 60.9798 7.7233 60.7493L8.76077 60.1729C9.33714 61.7867 10.1441 63.4006 11.1815 64.7839L9.79823 65.4755C9.33714 65.706 8.87604 65.706 8.53022 65.5908C7.7233 65.3602 6.68584 65.4755 5.9942 66.1671C4.61091 67.3199 4.61091 69.3948 6.10947 70.5475C6.91639 71.1239 8.06912 71.2392 8.99131 70.7781C9.79823 70.0864 10.3746 69.049 10.3746 68.1268C10.3746 67.5504 10.6051 66.9741 10.951 66.513L11.7579 65.5908C12.9106 66.9741 14.1786 68.1268 15.5619 69.1643L14.5245 70.2017C14.1786 70.5475 13.7175 70.6628 13.2564 70.6628C12.3343 70.7781 11.5273 71.2392 11.0662 72.0461C10.1441 73.5447 10.951 75.6196 12.6801 76.0807C13.7175 76.4265 14.755 76.0807 15.4466 75.2738C16.2536 74.4669 16.3688 73.4294 16.023 72.5072C15.7925 71.9308 15.7925 71.3545 16.023 70.7781L16.4841 69.6254C17.9827 70.5475 19.5965 71.1239 21.3256 71.585L20.634 72.9683C20.4034 73.4294 20.0576 73.6599 19.7118 73.8905C18.9049 74.2363 18.3285 75.0432 18.0979 75.9654C17.7521 77.6945 19.1354 79.3083 20.9798 79.1931C22.0173 79.1931 22.9394 78.5014 23.4005 77.464C23.8616 76.4265 23.6311 75.389 23.0547 74.5821C22.7089 74.121 22.4783 73.5447 22.4783 72.9683V71.7003C24.2075 72.0461 26.0518 72.1614 27.6657 71.9308V73.7752C27.6657 74.2363 27.4351 74.5821 27.0893 74.9279C26.5129 75.5043 26.1671 76.4265 26.2824 77.3487C26.6282 79.0778 28.4726 80.1153 30.2017 79.4236C31.1239 79.0778 31.8155 78.0403 31.9308 77.0029C31.9308 75.8501 31.4697 74.9279 30.6628 74.4669C30.2017 74.121 29.7406 73.6599 29.6253 73.1988L29.1642 72.0461C30.8933 71.7003 32.6224 71.2392 34.121 70.4323L34.4668 71.9308C34.5821 72.3919 34.4668 72.853 34.3515 73.1988C34.0057 74.0058 34.0057 74.9279 34.4668 75.7349C35.389 77.2334 37.4639 77.6945 38.8472 76.3112C39.6541 75.6196 39.8847 74.4669 39.6541 73.5447C39.3083 72.5072 38.5014 71.8156 37.5792 71.585C37.0028 71.4697 36.5417 71.1239 36.0807 70.7781L35.2737 69.8559C36.7723 69.049 38.1556 67.8962 39.4236 66.6282L40.3458 67.8962C40.5763 68.2421 40.6916 68.7032 40.6916 69.1643C40.5763 70.0864 40.9221 71.0086 41.6138 71.585C42.9971 72.7377 45.072 72.3919 45.8789 70.6628C46.34 69.7406 46.2247 68.5879 45.6484 67.781C44.9567 66.8588 43.9193 66.513 42.9971 66.7435C42.4207 66.8588 41.8443 66.7435 41.3832 66.3977L40.3458 65.8213C41.4985 64.5533 42.4207 63.0547 43.1124 61.4409L44.3804 62.3631C44.7262 62.5937 44.9567 63.0547 45.072 63.5158C45.3026 64.3228 45.8789 65.1297 46.8011 65.4755C48.4149 66.0519 50.2593 65.0144 50.4899 63.17C50.6051 62.1326 50.1441 61.0951 49.2219 60.5187C48.2997 59.9424 47.2622 59.9424 46.34 60.4035C45.8789 60.634 45.1873 60.7493 44.6109 60.634L43.3429 60.4035C43.6887 59.5965 43.9193 58.7896 44.1498 57.8674C44.2651 56.9452 44.2651 56.1383 44.3804 55.2161Z" fill="#A92224"/>
<path d="M14.8702 49.7983C14.5244 49.9136 14.2939 50.3747 14.4091 50.7205C14.5244 51.1816 14.9855 51.4122 15.3313 51.2969C15.5619 51.2969 16.7146 51.6427 17.7521 51.9885C16.8299 52.5649 15.7924 53.2565 15.2161 53.9482C14.8702 54.294 14.9855 54.7551 15.2161 55.1009C15.4466 55.2162 15.6771 55.3315 15.9077 55.3315C16.1382 55.3315 16.2535 55.2162 16.3688 55.1009C17.1757 54.294 18.0979 53.4871 19.2506 53.026L20.4034 52.5649C20.5186 52.5649 20.6339 52.4496 20.7492 52.2191C20.7492 52.1038 20.7492 51.9885 20.6339 51.8733C19.2506 50.6052 15.9077 49.3372 14.8702 49.7983Z" fill="white"/>
<path d="M33.4294 49.9136C34.3516 49.222 35.389 48.6456 35.6196 48.5303C35.8501 48.5303 36.0807 48.4151 36.1959 48.2998C36.3112 48.1845 36.4265 47.954 36.4265 47.7234C36.4265 47.4929 36.3112 47.2623 36.1959 47.1471C36.0807 47.0318 35.8501 46.9165 35.6196 46.9165C34.5821 46.9165 31.8155 48.8762 30.8933 50.2594C30.7781 50.3747 30.7781 50.6053 30.8933 50.7205C31.0086 50.9511 31.1239 51.0664 31.3544 51.0664L32.3919 51.1816C33.6599 51.2969 34.6974 51.8733 35.7348 52.4497C35.8501 52.5649 36.0807 52.5649 36.1959 52.5649C36.4265 52.5649 36.657 52.4497 36.7723 52.2191C37.0028 51.8733 36.8876 51.4122 36.5418 51.1816C35.6196 50.7205 34.4668 50.2594 33.4294 49.9136Z" fill="white"/>
<path d="M34.2363 62.4784C34.0058 62.4784 33.7752 62.4784 33.6599 62.2478C33.4294 62.0173 26.6282 56.1383 20.634 63.6311C20.4035 63.9769 19.8271 63.9769 19.4813 63.7464C19.1355 63.4006 19.1355 62.8242 19.366 62.4784C26.2824 53.8328 34.4669 60.8645 34.5821 60.9798C34.928 61.3256 35.0432 61.7867 34.6974 62.2478C34.6974 62.3631 34.4669 62.4784 34.2363 62.4784Z" fill="white"/>
<path d="M34.6974 19.8271C32.7378 15.3315 30.317 12.4496 25.7061 10.6052C30.0865 7.95394 32.6225 4.611 34.3516 0.922241C36.196 4.611 38.9625 8.06921 43.3429 10.6052C38.8473 12.4496 36.3112 15.4467 34.6974 19.8271Z" fill="#FFEC00"/>
<path d="M34.6974 20.634C34.3516 20.634 34.0058 20.4035 33.8905 20.0576C31.9309 15.4467 29.5101 12.9107 25.4755 11.2968C25.1297 11.1816 25.0144 10.951 24.8992 10.6052C24.8992 10.2594 25.0144 9.91354 25.3603 9.79827C29.1643 7.4928 31.8156 4.49568 33.7753 0.461095C33.7753 0.230548 34.1211 0 34.4669 0C34.8127 0 35.1585 0.230548 35.2738 0.461095C37.2335 4.61095 40 7.72334 43.8041 9.79827C44.0346 9.91354 44.2652 10.2594 44.2652 10.6052C44.2652 10.951 44.0346 11.1816 43.6888 11.2968C39.7695 12.9107 37.2335 15.6772 35.5044 20.0576C35.3891 20.4035 35.0433 20.634 34.6974 20.634ZM27.5505 10.3746C30.6629 11.9885 32.8531 14.1787 34.6974 17.6369C36.3113 14.2939 38.5015 11.9885 41.4986 10.3746C38.5015 8.41499 36.196 5.87896 34.4669 2.6513C32.7378 5.87896 30.4323 8.41499 27.5505 10.3746Z" fill="#A92224"/>
</g>
<defs>
<clipPath id="clip0">
<rect width="140.634" height="120" fill="white"/>
</clipPath>
</defs>
</svg>
