<svg width="142" height="120" viewBox="0 0 142 120" fill="none" xmlns="http://www.w3.org/2000/svg">
<g clip-path="url(#clip0)">
<path d="M80.2126 10.6383V81.0638C80.2126 84.0426 77.7658 86.4894 74.7871 86.4894H20.2126C17.2339 86.4894 14.7871 84.0426 14.7871 81.0638V10.6383C14.7871 7.65958 17.2339 5.21277 20.2126 5.21277H74.7871C77.7658 5.21277 80.2126 7.65958 80.2126 10.6383Z" fill="white"/>
<path d="M80.2129 10.6383V81.0638C80.2129 84.0426 77.7661 86.4894 74.7874 86.4894H70.2129C73.1916 86.4894 75.6384 84.0426 75.6384 81.0638V10.6383C75.6384 7.65958 73.1916 5.21277 70.2129 5.21277H74.7874C77.7661 5.21277 80.2129 7.65958 80.2129 10.6383Z" fill="white"/>
<path d="M20.6382 11.0638H74.3616V80.6383H20.6382V11.0638Z" fill="white"/>
<path d="M69.1489 11.0638H74.4681V80.6383H69.1489V11.0638Z" fill="white"/>
<path d="M50.6383 28.0851V22.6595H44.2554V28.0851H38.8298V34.4681H44.2554V39.8936H50.6383V34.4681H56.0639V28.0851H50.6383Z" fill="#FFEC00"/>
<path d="M31.8086 5.21277H63.298V15H31.8086V5.21277Z" fill="white"/>
<path d="M58.2979 5.21277H63.2979V15H58.2979V5.21277Z" fill="white"/>
<path d="M40.6382 1.27661H54.3616V9.04257H40.6382V1.27661Z" fill="white"/>
<path d="M49.2554 1.27661H54.3618V9.04257H49.2554V1.27661Z" fill="white"/>
<path d="M80.2129 21.2766C80.9576 21.2766 81.4895 20.7447 81.4895 20V10.6383C81.4895 6.91489 78.5107 3.93617 74.7873 3.93617H55.6384V1.2766C55.6384 0.531915 55.1065 0 54.3618 0H40.6384C39.8937 0 39.3618 0.531915 39.3618 1.2766V3.93617H20.2129C16.4895 3.93617 13.5107 6.91489 13.5107 10.6383V81.0638C13.5107 84.7872 16.4895 87.766 20.2129 87.766H74.7873C78.5107 87.766 81.4895 84.7872 81.4895 81.0638V26.8085C81.4895 26.0638 80.9576 25.5319 80.2129 25.5319C79.4682 25.5319 78.9363 26.0638 78.9363 26.8085V81.0638C78.9363 83.4043 77.0214 85.2128 74.7873 85.2128H20.2129C17.8724 85.2128 16.0639 83.2979 16.0639 81.0638V10.6383C16.0639 8.29787 17.9788 6.48936 20.2129 6.48936H30.532V9.78723H20.6384C19.8937 9.78723 19.3618 10.3191 19.3618 11.0638V66.5957C19.3618 67.3404 19.8937 67.8723 20.6384 67.8723C21.3831 67.8723 21.915 67.3404 21.915 66.5957V12.3404H30.532V15C30.532 15.7447 31.0639 16.2766 31.8086 16.2766H63.298C64.0427 16.2766 64.5746 15.7447 64.5746 15V12.3404H73.1916V79.3617H21.915V73.4043C21.915 72.6596 21.3831 72.1277 20.6384 72.1277C19.8937 72.1277 19.3618 72.6596 19.3618 73.4043V80.6383C19.3618 81.383 19.8937 81.9149 20.6384 81.9149H74.3618C75.1065 81.9149 75.6384 81.383 75.6384 80.6383V11.0638C75.6384 10.3191 75.1065 9.78723 74.3618 9.78723H64.4682V6.48936H74.7873C77.1278 6.48936 78.9363 8.40425 78.9363 10.6383V20C78.9363 20.7447 79.5746 21.2766 80.2129 21.2766ZM41.915 2.55319H53.0852V7.76596H41.915V2.55319ZM61.915 13.7234H33.0852V6.48936H39.3618V9.14894C39.3618 9.89362 39.8937 10.4255 40.6384 10.4255H54.3618C55.1065 10.4255 55.6384 9.89362 55.6384 9.14894V6.48936H61.915V13.7234Z" fill="#A92224"/>
<path d="M50.6383 21.3829H44.2553C43.5107 21.3829 42.9788 21.9148 42.9788 22.6595V26.8085H38.8298C38.0851 26.8085 37.5532 27.3404 37.5532 28.0851V34.468C37.5532 35.2127 38.0851 35.7446 38.8298 35.7446H42.9788V39.8936C42.9788 40.6383 43.5107 41.1702 44.2553 41.1702H50.6383C51.383 41.1702 51.9149 40.6383 51.9149 39.8936V35.7446H56.0639C56.8085 35.7446 57.3405 35.2127 57.3405 34.468V28.0851C57.3405 27.3404 56.8085 26.8085 56.0639 26.8085H51.9149V22.6595C51.9149 21.9148 51.383 21.3829 50.6383 21.3829ZM54.8936 29.3617V33.1914H50.7447C50 33.1914 49.4681 33.7234 49.4681 34.468V38.617H45.6383V34.468C45.6383 33.7234 45.1064 33.1914 44.3617 33.1914H40.2128V29.3617H44.3617C45.1064 29.3617 45.6383 28.8297 45.6383 28.0851V23.9361H49.4681V28.0851C49.4681 28.8297 50 29.3617 50.7447 29.3617H54.8936Z" fill="#A92224"/>
<path d="M26.3831 47.6595C26.3831 48.4042 26.915 48.9361 27.6597 48.9361H68.4043C69.149 48.9361 69.6809 48.4042 69.6809 47.6595C69.6809 46.9149 69.149 46.3829 68.4043 46.3829H27.6597C26.915 46.3829 26.3831 46.9149 26.3831 47.6595Z" fill="#A92224"/>
<path d="M27.6597 56.5958H64.8937C65.6384 56.5958 66.1703 56.0639 66.1703 55.3192C66.1703 54.5745 65.6384 54.0426 64.8937 54.0426H27.6597C26.915 54.0426 26.3831 54.5745 26.3831 55.3192C26.3831 56.0639 26.915 56.5958 27.6597 56.5958Z" fill="#A92224"/>
<path d="M27.6597 64.3617H68.4043C69.149 64.3617 69.6809 63.8297 69.6809 63.0851C69.6809 62.3404 69.149 61.8085 68.4043 61.8085H27.6597C26.915 61.8085 26.3831 62.3404 26.3831 63.0851C26.3831 63.7234 26.915 64.3617 27.6597 64.3617Z" fill="#A92224"/>
<path d="M68.4042 72.5532H60.4255C59.6808 72.5532 59.1489 73.0851 59.1489 73.8298C59.1489 74.5745 59.6808 75.1064 60.4255 75.1064H68.4042C69.1489 75.1064 69.6808 74.5745 69.6808 73.8298C69.6808 73.0851 69.0425 72.5532 68.4042 72.5532Z" fill="#A92224"/>
<path d="M49.7873 72.5532C49.0427 72.5532 48.5107 73.0851 48.5107 73.8298C48.5107 74.5745 49.0427 75.1064 49.7873 75.1064H55.2129C55.9576 75.1064 56.4895 74.5745 56.4895 73.8298C56.4895 73.0851 55.9576 72.5532 55.2129 72.5532H49.7873Z" fill="#A92224"/>
<path d="M140.745 101.596L140.638 93.1915C140.638 88.8298 137.128 85.4255 132.766 85.4255H131.702L95.532 85.6383C92.2342 85.6383 89.1491 86.7021 86.5959 88.7234L76.7022 94.8936L16.915 99.2553L3.51076 100.319C0.212885 100.532 0.212885 105.426 3.51076 105.638L16.8086 106.383L76.5959 109.894L86.8086 116.064C89.2554 117.979 92.3405 118.936 95.4257 118.936L131.809 118.723H131.915C136.809 118.723 140.638 114.681 140.638 109.894L140.745 101.596Z" fill="white"/>
<path d="M95.5319 120C92.234 120 89.0425 118.936 86.383 117.021L76.4894 110.958L3.61702 106.596C1.17021 106.489 0 104.681 0 102.979C0 101.277 1.17021 99.3618 3.40426 99.2554L76.2766 93.9362L85.9575 87.9788C88.7234 85.8511 92.1277 84.6809 95.5319 84.6809L131.17 84.4681H133.085C137.872 84.5745 141.702 88.4043 141.702 93.2979L141.809 110C141.809 112.66 140.851 115.106 138.936 117.021C137.34 118.617 135.426 119.575 133.191 119.894L131.809 120H130.638H130.426H95.5319ZM87.6596 115.319C89.8936 117.021 92.6596 117.872 95.6383 117.979L130.957 117.766L130.745 86.5958L95.6383 86.8086C92.6596 86.8086 89.6808 87.8724 87.3404 89.6809L87.234 89.7873L77.1277 96.0639L21.1702 100.106V105.532L77.234 108.83L87.6596 115.319ZM132.979 117.66L133.404 117.553C135 117.234 136.383 116.489 137.553 115.426C139.043 113.936 139.787 112.021 139.787 110L139.681 93.2979C139.681 89.6809 136.809 86.7022 133.191 86.5958H132.872L132.979 117.66ZM3.61702 101.383C2.55319 101.489 2.12766 102.234 2.12766 102.979C2.12766 103.723 2.55319 104.468 3.61702 104.575L18.8298 105.532V100.319L3.61702 101.383Z" fill="#A92224"/>
<path d="M97.6596 113.617C95.2128 113.617 93.1915 111.702 93.0851 109.362L92.9788 95.3192C92.9788 94.2554 93.2979 93.2979 94.0426 92.5533C95.1064 91.383 96.9149 90.8511 99.6809 90.8511L119.894 90.7448C125.532 90.7448 126.489 93.5107 126.489 95.0001L126.596 109.043C126.596 110.213 126.17 111.277 125.319 112.021C124.468 112.872 123.298 113.404 122.021 113.404L97.6596 113.617ZM99.7873 93.1916C97.6596 93.1916 96.383 93.5107 95.7447 94.149C95.4256 94.4682 95.3192 94.7873 95.3192 95.3192L95.4256 109.362C95.4256 110.532 96.4894 111.489 97.766 111.489L122.234 111.383C122.872 111.383 123.511 111.17 123.936 110.638C124.362 110.213 124.575 109.787 124.575 109.255L124.468 95.2128C124.468 93.8299 122.979 93.0852 120 93.0852L99.7873 93.1916Z" fill="#A92224"/>
<path d="M92.1277 76.4894L80 62.8724C79.7872 62.6596 79.8936 62.3404 80.1064 62.2341L87.5532 57.766C87.766 57.6596 88.0851 57.766 88.1915 57.9787L92.8724 76.0638C92.9787 76.5958 92.4468 76.9149 92.1277 76.4894Z" fill="#FFEC00"/>
<path d="M92.4467 77.4468C92.1276 77.4468 91.8084 77.3404 91.4893 77.0213L79.3616 63.4043C79.1489 63.0851 79.0425 62.766 79.0425 62.4468C79.1489 62.1277 79.2552 61.8085 79.5744 61.5958L87.0212 57.1277C87.3404 56.9149 87.7659 56.9149 88.085 57.0213C88.4042 57.1277 88.7233 57.4468 88.8297 57.8724L93.5106 75.9575C93.617 76.4894 93.4042 77.0213 92.8723 77.3404C92.8723 77.4468 92.6595 77.4468 92.4467 77.4468ZM80.851 62.6596L91.5957 74.7873L87.4467 58.7234L80.851 62.6596Z" fill="#A92224"/>
<path d="M96.0637 75.1064L94.3616 59.7873C94.3616 59.6809 94.468 59.4681 94.6807 59.4681L101.064 59.8937C101.276 59.8937 101.383 60.1064 101.276 60.2128L96.4892 75.1064C96.4892 75.3192 96.1701 75.3192 96.0637 75.1064Z" fill="#FFEC00"/>
<path d="M96.3829 76.0639H96.2765C95.7446 76.0639 95.4255 75.6383 95.3191 75.1064L93.6169 59.7873C93.6169 59.4681 93.7233 59.149 93.9361 58.9362C94.1489 58.7235 94.468 58.6171 94.7872 58.6171L101.17 59.0426C101.489 59.0426 101.808 59.2554 101.915 59.4681C102.128 59.7873 102.128 60.1064 102.021 60.4256L97.234 75.3192C97.234 75.7447 96.8084 76.0639 96.3829 76.0639ZM95.3191 60.3192L96.5957 72.4469L100.319 60.7447L95.3191 60.3192Z" fill="#A92224"/>
<path d="M88.0852 78.0851L74.4682 74.2554C74.149 74.149 74.0426 73.8298 74.149 73.6171L76.7022 68.2979C76.8086 68.0852 77.1278 67.9788 77.4469 68.1915L88.5107 77.3405C88.8299 77.6596 88.5107 78.2979 88.0852 78.0851Z" fill="#FFEC00"/>
<path d="M88.1915 78.9362C88.0851 78.9362 87.9787 78.9362 87.8723 78.9362L74.2553 75.1064C73.9362 75 73.617 74.7873 73.4043 74.3617C73.2979 74.0426 73.2979 73.617 73.4043 73.2979L75.9574 67.9787C76.1702 67.6596 76.4894 67.3404 76.8085 67.3404C77.234 67.2341 77.5532 67.3404 77.8723 67.5532L88.9362 76.7021C89.3617 77.1277 89.5745 77.766 89.2553 78.2979C89.0426 78.7234 88.617 78.9362 88.1915 78.9362ZM75 73.617L86.7021 76.9149L77.234 69.0426L75 73.617Z" fill="#A92224"/>
</g>
<defs>
<clipPath id="clip0">
<rect width="141.915" height="120" fill="white"/>
</clipPath>
</defs>
</svg>
