<?xml version="1.0" standalone="no"?>
<!DOCTYPE svg PUBLIC "-//W3C//DTD SVG 20010904//EN"
 "http://www.w3.org/TR/2001/REC-SVG-20010904/DTD/svg10.dtd">
<svg version="1.0" xmlns="http://www.w3.org/2000/svg"
 width="261.000000pt" height="261.000000pt" viewBox="0 0 261.000000 261.000000"
 preserveAspectRatio="xMidYMid meet">
<metadata>
Created by potrace 1.11, written by Peter Selinger 2001-2013
</metadata>
<g transform="translate(0.000000,261.000000) scale(0.100000,-0.100000)"
fill="#000000" stroke="none">
<path d="M1199 2606 c-2 -2 -29 -6 -59 -10 -263 -30 -527 -153 -725 -338 -213
-199 -351 -460 -399 -753 -19 -115 -15 -351 8 -454 118 -535 507 -916 1047
-1027 46 -9 175 -18 254 -18 416 3 827 229 1059 584 104 158 170 321 196 480
6 41 14 86 16 100 7 38 6 218 -2 280 -34 299 -159 556 -374 770 -114 115 -211
186 -340 250 -83 42 -228 94 -291 105 -19 3 -54 11 -79 16 -43 10 -303 22
-311 15z m320 -70 c110 -19 214 -53 326 -107 291 -138 534 -413 638 -719 49
-145 62 -231 61 -415 0 -152 -3 -181 -28 -275 -137 -526 -538 -883 -1071 -955
-53 -7 -246 -8 -280 -1 -11 2 -42 7 -70 11 -154 22 -329 91 -477 188 -282 183
-475 470 -544 807 -19 90 -25 297 -12 405 30 242 157 505 335 691 294 306 705
442 1122 370z"/>
<path d="M1229 2466 c-2 -2 -35 -6 -74 -10 -122 -10 -291 -65 -415 -133 -359
-199 -582 -564 -596 -973 -7 -210 29 -378 121 -565 41 -82 167 -265 183 -265
4 0 7 239 7 530 0 292 3 530 8 530 4 0 33 -11 65 -24 49 -21 179 -66 189 -66
1 0 3 92 3 205 0 113 2 205 4 205 2 0 29 -11 60 -25 50 -22 187 -65 208 -65 5
0 8 88 8 195 l0 195 38 -16 c160 -71 331 -76 488 -15 l74 29 0 -194 c0 -160 2
-194 14 -194 20 0 190 56 225 75 17 8 32 15 36 15 3 0 5 -92 5 -205 l0 -205
28 6 c15 4 75 26 134 49 l108 43 -1 -317 c0 -174 1 -415 1 -536 l1 -220 30 35
c177 203 281 487 280 763 -3 442 -256 844 -655 1037 -56 27 -136 59 -178 70
-81 22 -87 23 -155 35 -45 7 -238 16 -244 11z"/>
<path d="M1089 2033 c-2 -97 2 -237 6 -241 19 -19 334 -25 395 -8 l25 7 -2
135 c-1 75 -3 137 -5 139 -1 2 -25 -3 -53 -10 -66 -17 -241 -17 -307 1 -29 7
-54 14 -55 14 -2 0 -3 -17 -4 -37z"/>
<path d="M809 1754 c0 -8 -1 -30 -1 -49 0 -19 1 -81 1 -138 l1 -104 53 -12
c28 -7 71 -15 95 -18 l42 -5 0 146 c0 80 -3 146 -7 147 -17 1 -42 8 -111 27
-60 17 -72 18 -73 6z"/>
<path d="M1760 1761 c-8 -4 -48 -16 -87 -26 l-73 -19 0 -143 c0 -165 -10 -154
115 -126 l75 16 1 69 c1 205 0 238 -8 238 -5 0 -15 -4 -23 -9z"/>
<path d="M1089 1647 c-2 -152 0 -229 6 -235 8 -9 401 -9 410 -1 3 4 7 69 7
145 l1 139 -54 -4 c-91 -7 -251 -6 -311 2 l-58 7 -1 -53z"/>
<path d="M540 938 l0 -513 67 -49 c201 -149 444 -228 698 -228 248 0 496 83
692 230 l63 47 0 513 c0 281 -3 512 -7 512 -4 0 -44 -12 -90 -27 l-83 -27 0
-458 0 -458 -44 0 -45 0 2 445 c1 245 0 445 -3 445 -3 0 -47 -7 -97 -17 l-93
-17 0 -383 0 -383 -45 0 -44 0 0 368 c0 202 0 372 0 378 -1 7 -16 9 -43 4 -50
-7 -342 -4 -364 4 -16 6 -15 37 -15 -431 l0 -323 -44 0 -45 0 0 383 0 383 -67
12 c-38 7 -80 15 -95 18 -19 4 -28 1 -28 -8 -1 -7 -1 -208 -2 -445 l0 -433
-44 0 -44 0 0 458 0 458 -83 27 c-46 15 -86 27 -90 27 -4 0 -7 -231 -7 -512z"/>
</g>
</svg>
