<svg width="12" height="16" viewBox="0 0 12 16" fill="none" xmlns="http://www.w3.org/2000/svg">
<path d="M11.3333 5.86667H9.06667V3.2C9.06667 2.35131 8.72953 1.53737 8.12941 0.937258C7.52929 0.337142 6.71536 0 5.86667 0C5.01797 0 4.20404 0.337142 3.60393 0.937258C3.00381 1.53737 2.66667 2.35131 2.66667 3.2V5.86667H0.4C0.293913 5.86667 0.192172 5.90881 0.117157 5.98382C0.0421427 6.05884 0 6.16058 0 6.26667V15.6C0 15.7061 0.0421427 15.8078 0.117157 15.8828C0.192172 15.9579 0.293913 16 0.4 16H11.3333C11.4394 16 11.5412 15.9579 11.6162 15.8828C11.6912 15.8078 11.7333 15.7061 11.7333 15.6V6.26667C11.7333 6.16058 11.6912 6.05884 11.6162 5.98382C11.5412 5.90881 11.4394 5.86667 11.3333 5.86667ZM7.8 5.86667H3.93333V3.175C3.93333 2.66225 4.13702 2.1705 4.49959 1.80793C4.86216 1.44536 5.35392 1.24167 5.86667 1.24167C6.37942 1.24167 6.87117 1.44536 7.23374 1.80793C7.59631 2.1705 7.8 2.66225 7.8 3.175V5.86667Z" fill="black"/>
</svg>
