<svg width="100" height="100" viewBox="0 0 100 100" fill="none" xmlns="http://www.w3.org/2000/svg">
<circle cx="50" cy="50" r="50" fill="white"/>
<path d="M41.25 56.25H26.25C24.8712 56.25 23.75 57.3712 23.75 58.75V65H30L31.4363 63.5638C32.1175 62.8825 33.0413 62.5 34.005 62.5C35.3813 62.5 36.6387 63.2775 37.2537 64.5087L37.5 65H38.75C40.8212 65 42.5 66.6788 42.5 68.75C42.5 70.8212 40.8212 72.5 38.75 72.5H23.75V78.75C23.75 80.1287 24.8712 81.25 26.25 81.25H41.25C42.6287 81.25 43.75 80.1287 43.75 78.75V58.75C43.75 57.3712 42.6287 56.25 41.25 56.25Z" fill="#F2C94C"/>
<path d="M41.25 56.25H26.25C24.8712 56.25 23.75 57.3712 23.75 58.75V65H30L31.4363 63.5638C32.1175 62.8825 33.0413 62.5 34.005 62.5C35.3813 62.5 36.6387 63.2775 37.2537 64.5087L37.5 65H38.75C40.8212 65 42.5 66.6788 42.5 68.75C42.5 70.8212 40.8212 72.5 38.75 72.5H23.75V78.75C23.75 80.1287 24.8712 81.25 26.25 81.25H41.25C42.6287 81.25 43.75 80.1287 43.75 78.75V58.75C43.75 57.3712 42.6287 56.25 41.25 56.25Z" fill="#F2C94C"/>
<path d="M71.25 45V50H76.25V60H81.25V45H71.25Z" fill="#F2C94C"/>
<path d="M51.25 25H56.25V30H51.25V25Z" fill="#F2C94C"/>
<path d="M38.4863 33.3225L38.6176 33.0588L36.3813 31.94L36.2501 32.205C35.7738 33.1575 34.8163 33.75 33.7501 33.75C32.6838 33.75 31.7263 33.1575 31.2501 32.205L31.1188 31.9413L28.8826 33.06L29.0138 33.3238C29.9163 35.1288 31.7313 36.25 33.7501 36.25C35.7688 36.25 37.5838 35.1288 38.4863 33.3225Z" fill="#333333"/>
<path d="M88.75 18.75V16.25C88.75 14.8712 87.6288 13.75 86.25 13.75H46.825C45.45 12.22 43.4637 11.25 41.25 11.25H28.75C23.2362 11.25 18.75 15.7363 18.75 21.25C18.75 22.805 19.1638 24.6012 19.5712 26.0175C19.055 26.8038 18.75 27.7412 18.75 28.75C18.75 31.5075 20.9925 33.75 23.75 33.75H24.0787C24.7337 36.28 26.3525 38.42 28.5225 39.7587L27.695 43.8975L21.8488 44.7975C15.7075 45.7412 11.25 50.9375 11.25 57.1525V66.25C11.25 70.3862 14.6137 73.75 18.75 73.75V88.75H48.75V73.75H86.25C87.6288 73.75 88.75 72.6287 88.75 71.25V68.75C88.75 67.3713 87.6288 66.25 86.25 66.25V21.25C87.6288 21.25 88.75 20.1287 88.75 18.75ZM86.25 16.25V18.75H48.75C48.75 17.8725 48.59 17.0338 48.3125 16.25H86.25ZM21.25 28.75C21.25 27.3713 22.3713 26.25 23.75 26.25H23.7625C23.7613 26.3025 23.75 26.3513 23.75 26.4038V31.25C22.3713 31.25 21.25 30.1287 21.25 28.75ZM24.36 23.75H23.75C23.0075 23.75 22.31 23.9225 21.6762 24.2138C21.4475 23.2563 21.25 22.17 21.25 21.25C21.25 17.1137 24.6138 13.75 28.75 13.75H41.25C44.0075 13.75 46.25 15.9925 46.25 18.75C46.25 21.5075 44.0075 23.75 41.25 23.75H33.6375C32.32 23.75 31.25 22.68 31.25 21.3625V21.175C31.25 19.8375 32.32 18.75 33.7313 18.75C35.1213 18.75 36.25 19.8713 36.25 21.25H38.75C38.75 18.4925 36.4988 16.25 33.6375 16.25C31.2563 16.25 29.2738 17.9775 28.8425 20.2513L28.485 20.34C26.615 20.8088 25.14 22.0938 24.36 23.75ZM43.75 26.25C45.1287 26.25 46.25 27.3713 46.25 28.75C46.25 30.1287 45.1287 31.25 43.75 31.25V26.25ZM26.25 31.25V26.4038C26.25 24.7163 27.3738 23.2525 28.99 22.7987C29.6088 24.79 31.4462 26.25 33.6375 26.25H41.25V31.25C41.25 35.3862 37.8862 38.75 33.75 38.75C29.6138 38.75 26.25 35.3862 26.25 31.25ZM38.475 46.25H38.6825L41.5825 46.54L38.1013 53.5025L37.5262 50.0513L38.475 46.25ZM33.75 41.25C34.755 41.25 35.7238 41.0975 36.6388 40.82L37.225 43.75H30.275L30.8612 40.82C31.7762 41.0975 32.745 41.25 33.75 41.25ZM35.9 46.25L35.275 48.75H32.2262L31.6012 46.25H35.9ZM28.845 46.25H29.025L29.975 50.0513L29.4 53.5025L25.9925 46.6888L28.845 46.25ZM46.25 86.25H21.25V73.75H38.75C41.5075 73.75 43.75 71.5075 43.75 68.75C43.75 65.9925 41.5075 63.75 38.75 63.75H38.2675C37.4038 62.2025 35.79 61.25 34.005 61.25C32.7 61.25 31.475 61.7575 30.5513 62.6813L29.4825 63.75H21.25V53.75H18.75V64.4825L16.6163 66.6162L18.3837 68.3838L20.5175 66.25H28.75V71.25H18.75C15.9925 71.25 13.75 69.0075 13.75 66.25V57.1525C13.75 52.18 17.3163 48.0238 22.23 47.2687L23.3962 47.0887L27.9775 56.25H31.4762L32.31 51.25H35.1925L36.0262 56.25H39.5238L44.245 46.8063L46.6863 47.05C49.2638 47.3075 51.69 48.4575 53.5225 50.29L58.75 55.5175V58.75H61.25V43.75H66.25V61.9487C66.25 64.32 64.32 66.25 61.9487 66.25C60.9762 66.25 60.0213 65.915 59.2612 65.3062L48.75 56.8988V53.75H46.25V86.25ZM31.25 65.5175L32.3187 64.4487C32.7687 63.9987 33.3675 63.75 34.005 63.75C34.9137 63.75 35.73 64.255 36.1362 65.0663L36.7262 66.25H38.75C40.1287 66.25 41.25 67.3713 41.25 68.75C41.25 70.1287 40.1287 71.25 38.75 71.25H31.25V65.5175ZM66.25 41.25H60.5175L59.4487 40.1813C58.9975 39.73 58.75 39.1325 58.75 38.495C58.75 37.5863 59.255 36.77 60.0663 36.3638L61.25 35.7738V33.75C61.25 32.3713 62.3713 31.25 63.75 31.25C65.1287 31.25 66.25 32.3713 66.25 33.75V41.25ZM48.75 60.1012L56.4375 66.25H48.75V60.1012ZM86.25 71.25H48.75V68.75H86.25V71.25ZM83.75 66.25H67.2113C68.1712 65.0775 68.75 63.5787 68.75 61.9487V33.75C68.75 30.9925 66.5075 28.75 63.75 28.75C60.9925 28.75 58.75 30.9925 58.75 33.75V34.2325C57.2025 35.0962 56.25 36.71 56.25 38.495C56.25 39.8 56.7575 41.025 57.6813 41.9487L58.75 43.0175V51.9825L55.2887 48.5212C53.05 46.2825 50.0825 44.8763 46.9338 44.5612L39.7937 43.8475L38.975 39.7587C41.1462 38.42 42.7638 36.28 43.4188 33.75H43.75C46.5075 33.75 48.75 31.5075 48.75 28.75C48.75 26.8737 47.6987 25.255 46.1663 24.4C47.13 23.56 47.875 22.4788 48.3112 21.25H83.75V66.25Z" fill="#333333"/>
<path d="M71.25 48.75H81.25V51.25H71.25V48.75Z" fill="#333333"/>
<path d="M71.25 43.75H81.25V46.25H71.25V43.75Z" fill="#333333"/>
<path d="M76.25 53.75H81.25V56.25H76.25V53.75Z" fill="#333333"/>
<path d="M76.25 58.75H81.25V61.25H76.25V58.75Z" fill="#333333"/>
<path d="M51.25 23.75H61.25V26.25H51.25V23.75Z" fill="#333333"/>
<path d="M51.25 28.75H56.25V31.25H51.25V28.75Z" fill="#333333"/>
</svg>
