<svg width="80" height="80" viewBox="0 0 80 80" fill="none" xmlns="http://www.w3.org/2000/svg">
<circle cx="40" cy="40" r="40" fill="white"/>
<path d="M47.6699 55.7003L51.6995 51.6711L52.8391 52.8107L48.8099 56.8403L47.6699 55.7003Z" fill="#333333"/>
<path d="M68.9289 67.7605L67.1093 65.9409H69.9661V30.4811H28.0591V24.0338H24.0295C21.8078 24.0338 20 25.8416 20 28.0634V61.9114C20 64.1332 21.8078 65.9409 24.0295 65.9409H56.771L63.7597 72.9297C64.4496 73.6195 65.3676 74 66.3443 74C68.3598 74 70 72.3606 70 70.3451C70 69.3692 69.6195 68.4515 68.9289 67.7605ZM65.3885 66.4993L62.4985 69.3893L48.9571 55.8463L47.777 51.8022L51.8486 52.9587L65.3885 66.4993ZM21.6118 28.0634C21.6118 26.7306 22.6967 25.6457 24.0295 25.6457H26.4472V57.8819H24.0295C23.1229 57.8819 22.2855 58.1825 21.6118 58.6894V28.0634ZM24.0295 64.3291C22.6967 64.3291 21.6118 63.2442 21.6118 61.9114C21.6118 60.5786 22.6967 59.4937 24.0295 59.4937H28.0591V32.0929H68.3543V64.3291H65.4975L52.6915 51.5224L45.4128 49.4553L47.524 56.6939L55.1592 64.3291H24.0295ZM66.3443 72.3882C65.7981 72.3882 65.2854 72.1753 64.8993 71.7901L63.6381 70.5289L66.5281 67.6389L67.7893 68.9001C68.1753 69.2862 68.3882 69.7997 68.3882 70.3451C68.3882 71.4709 67.4709 72.3882 66.3443 72.3882Z" fill="#333333"/>
<path d="M53.0421 35.3165H57.5014V36.9283H53.0421V35.3165Z" fill="#333333"/>
<path d="M60.2953 48.211H47.4008V40.9579H49.0126V46.5992H58.6834V43.9033H60.2953V48.211Z" fill="#333333"/>
<path d="M32.0886 61.1055H33.7004V62.7173H32.0886V61.1055Z" fill="#333333"/>
<path d="M35.3123 61.1055H46.5949V62.7173H35.3123V61.1055Z" fill="#333333"/>
<path d="M29.6709 60.6333V33.7047H56.5995L29.6709 60.6333ZM33.7004 37.7342V50.6287L46.5949 37.7342H33.7004Z" fill="#F2C94C"/>
<path d="M32.8945 52.8505V36.9283H48.8167L32.8945 52.8505ZM34.5063 38.5402V48.9599L44.9261 38.5402H34.5063Z" fill="#333333"/>
<path d="M61.1012 44.9874C57.9913 44.9874 55.4598 42.456 55.4598 39.3461C55.4598 36.2362 57.9913 33.7047 61.1012 33.7047C64.2111 33.7047 66.7425 36.2362 66.7425 39.3461C66.7425 42.456 64.2111 44.9874 61.1012 44.9874ZM61.1012 36.9283C59.7684 36.9283 58.6835 38.0132 58.6835 39.3461C58.6835 40.6789 59.7684 41.7638 61.1012 41.7638C62.434 41.7638 63.5189 40.6789 63.5189 39.3461C63.5189 38.0132 62.434 36.9283 61.1012 36.9283Z" fill="#F2C94C"/>
<path d="M61.1012 42.5697C59.3233 42.5697 57.8776 41.1239 57.8776 39.346C57.8776 37.5682 59.3233 36.1224 61.1012 36.1224C62.879 36.1224 64.3248 37.5682 64.3248 39.346C64.3248 41.1239 62.879 42.5697 61.1012 42.5697ZM61.1012 37.7342C60.2122 37.7342 59.4894 38.4571 59.4894 39.346C59.4894 40.235 60.2122 40.9579 61.1012 40.9579C61.9901 40.9579 62.713 40.235 62.713 39.346C62.713 38.4571 61.9901 37.7342 61.1012 37.7342Z" fill="#333333"/>
<path d="M28.6582 33.9043V31.1797H23.8418V28.5957H28.6582V25.8711H25.0371L32.7188 12.6348H27.7617L21.6621 23.6211H21.5215L15.4043 12.6348H10.4297L18.1289 25.8711H14.5254V28.5957H19.3242V31.1797H14.5254V33.9043H19.3242V38H23.8418V33.9043H28.6582Z" fill="white"/>
<path d="M44.3906 38.5098C50.5957 38.5098 54.2871 33.3945 54.2871 25.2734C54.2871 17.1523 50.5605 12.125 44.3906 12.125C38.2031 12.125 34.459 17.1875 34.459 25.291C34.459 33.4297 38.168 38.5098 44.3906 38.5098ZM44.3906 34.8008C41.0156 34.8008 39.0293 31.25 39.0293 25.2734C39.0293 19.4023 41.0508 15.834 44.3906 15.834C47.7129 15.834 49.6992 19.3672 49.6992 25.291C49.6992 31.2676 47.748 34.8008 44.3906 34.8008Z" fill="white"/>
<path fill-rule="evenodd" clip-rule="evenodd" d="M30.6582 33.9043C30.6582 35.0089 29.7628 35.9043 28.6582 35.9043H25.8418V38C25.8418 39.1046 24.9464 40 23.8418 40H19.3242C18.2196 40 17.3242 39.1046 17.3242 38V35.9043H14.5254C13.4208 35.9043 12.5254 35.0089 12.5254 33.9043V31.1797C12.5254 30.6872 12.7034 30.2362 12.9987 29.8877C12.7034 29.5392 12.5254 29.0882 12.5254 28.5957V25.8711C12.5254 24.7665 13.4208 23.8711 14.5254 23.8711H14.6518L8.70088 13.6404C8.34103 13.0217 8.33918 12.258 8.69602 11.6376C9.05286 11.0172 9.714 10.6348 10.4297 10.6348H15.4043C16.13 10.6348 16.7987 11.0278 17.1517 11.6618L21.5894 19.6318L26.0131 11.664C26.3658 11.0288 27.0352 10.6348 27.7617 10.6348H32.7188C33.4341 10.6348 34.0949 11.0168 34.4519 11.6367C34.8089 12.2566 34.8076 13.02 34.4486 13.6386L28.5102 23.8711H28.6582C29.7628 23.8711 30.6582 24.7665 30.6582 25.8711V28.5957C30.6582 29.0882 30.4802 29.5392 30.1849 29.8877C30.4802 30.2362 30.6582 30.6872 30.6582 31.1797V33.9043ZM25.0371 25.8711L32.7188 12.6348H27.7617L21.6621 23.6211H21.5215L15.4043 12.6348H10.4297L18.1289 25.8711H14.5254V28.5957H19.3242V31.1797H14.5254V33.9043H19.3242V38H23.8418V33.9043H28.6582V31.1797H23.8418V28.5957H28.6582V25.8711H25.0371ZM53.2731 36.1271C51.1887 38.9424 48.1121 40.5098 44.3906 40.5098C40.6678 40.5098 37.5822 38.9573 35.4878 36.1477C33.4444 33.4064 32.459 29.6324 32.459 25.291C32.459 20.9616 33.4556 17.2001 35.5047 14.4689C37.6026 11.6725 40.6856 10.125 44.3906 10.125C48.0845 10.125 51.1601 11.662 53.253 14.4543C55.2961 17.1802 56.2871 20.9379 56.2871 25.2734C56.2871 29.6051 55.3066 33.3808 53.2731 36.1271ZM42.188 31.2987C42.8205 32.4245 43.5552 32.8008 44.3906 32.8008C45.2135 32.8008 45.9338 32.433 46.5564 31.3144C47.2317 30.1011 47.6992 28.1087 47.6992 25.291C47.6992 22.5077 47.2254 20.5286 46.5469 19.3204C45.9171 18.1988 45.1927 17.834 44.3906 17.834C43.5789 17.834 42.8385 18.2088 42.1969 19.3393C41.5094 20.5505 41.0293 22.5241 41.0293 25.2734C41.0293 28.0862 41.5041 30.0814 42.188 31.2987ZM54.2871 25.2734C54.2871 33.3945 50.5957 38.5098 44.3906 38.5098C38.168 38.5098 34.459 33.4297 34.459 25.291C34.459 17.1875 38.2031 12.125 44.3906 12.125C50.5605 12.125 54.2871 17.1523 54.2871 25.2734ZM39.0293 25.2734C39.0293 31.25 41.0156 34.8008 44.3906 34.8008C47.748 34.8008 49.6992 31.2676 49.6992 25.291C49.6992 19.3672 47.7129 15.834 44.3906 15.834C41.0508 15.834 39.0293 19.4023 39.0293 25.2734Z" fill="#333333"/>
</svg>
