<svg width="100" height="100" viewBox="0 0 100 100" fill="none" xmlns="http://www.w3.org/2000/svg">
<circle cx="50" cy="50" r="50" fill="white"/>
<path d="M61.5049 57.5504L67.5492 51.5067L69.2586 53.2161L63.2149 59.2604L61.5049 57.5504Z" fill="#333333"/>
<path d="M93.3933 75.6408L90.6639 72.9114H94.9492V19.7216H32.0886V10.0508H26.0443C22.7117 10.0508 20 12.7624 20 16.0951V66.8671C20 70.1998 22.7117 72.9114 26.0443 72.9114H75.1565L85.6396 83.3945C86.6743 84.4292 88.0514 85 89.5164 85C92.5398 85 95 82.541 95 79.5176C95 78.0538 94.4292 76.6773 93.3933 75.6408ZM88.0827 73.749L83.7478 78.0839L63.4357 57.7694L61.6655 51.7033L67.7729 53.4381L88.0827 73.749ZM22.4177 16.0951C22.4177 14.0959 24.0451 12.4685 26.0443 12.4685H29.6709V60.8228H26.0443C24.6843 60.8228 23.4282 61.2738 22.4177 62.0341V16.0951ZM26.0443 70.4937C24.0451 70.4937 22.4177 68.8664 22.4177 66.8671C22.4177 64.8679 24.0451 63.2406 26.0443 63.2406H32.0886V22.1394H92.5315V70.4937H88.2462L69.0373 51.2836L58.1192 48.1829L61.2859 59.0408L72.7388 70.4937H26.0443ZM89.5164 82.5823C88.6972 82.5823 87.928 82.263 87.349 81.6851L85.4572 79.7933L89.7921 75.4584L91.6839 77.3502C92.2629 77.9292 92.5823 78.6995 92.5823 79.5176C92.5823 81.2064 91.2064 82.5823 89.5164 82.5823Z" fill="#333333"/>
<path d="M69.5632 26.9748H76.2521V29.3925H69.5632V26.9748Z" fill="#333333"/>
<path d="M80.4428 46.3166H61.1011V35.4368H63.5188V43.8988H78.0251V39.8549H80.4428V46.3166Z" fill="#333333"/>
<path d="M38.1328 65.6583H40.5505V68.076H38.1328V65.6583Z" fill="#333333"/>
<path d="M42.9683 65.6583H59.8923V68.076H42.9683V65.6583Z" fill="#333333"/>
<path d="M34.5063 64.9499V24.5571H74.8992L34.5063 64.9499ZM40.5506 30.6014V49.9431L59.8924 30.6014H40.5506Z" fill="#F2C94C"/>
<path d="M39.3418 53.2757V29.3925H63.225L39.3418 53.2757ZM41.7595 31.8102V47.4398L57.3891 31.8102H41.7595Z" fill="#333333"/>
<path d="M81.6517 41.4811C76.9869 41.4811 73.1897 37.6839 73.1897 33.0191C73.1897 28.3542 76.9869 24.5571 81.6517 24.5571C86.3166 24.5571 90.1137 28.3542 90.1137 33.0191C90.1137 37.6839 86.3166 41.4811 81.6517 41.4811ZM81.6517 29.3925C79.6525 29.3925 78.0251 31.0199 78.0251 33.0191C78.0251 35.0183 79.6525 36.6457 81.6517 36.6457C83.6509 36.6457 85.2783 35.0183 85.2783 33.0191C85.2783 31.0199 83.6509 29.3925 81.6517 29.3925Z" fill="#F2C94C"/>
<path d="M81.6518 37.8545C78.985 37.8545 76.8164 35.6859 76.8164 33.0191C76.8164 30.3523 78.985 28.1837 81.6518 28.1837C84.3186 28.1837 86.4872 30.3523 86.4872 33.0191C86.4872 35.6859 84.3186 37.8545 81.6518 37.8545ZM81.6518 30.6014C80.3184 30.6014 79.2341 31.6857 79.2341 33.0191C79.2341 34.3525 80.3184 35.4368 81.6518 35.4368C82.9852 35.4368 84.0695 34.3525 84.0695 33.0191C84.0695 31.6857 82.9852 30.6014 81.6518 30.6014Z" fill="#333333"/>
<path d="M31.7109 83.5391V79.9062H25.2891V76.4609H31.7109V72.8281H26.8828L37.125 55.1797H30.5156L22.3828 69.8281H22.1953L14.0391 55.1797H7.40625L17.6719 72.8281H12.8672V76.4609H19.2656V79.9062H12.8672V83.5391H19.2656V89H25.2891V83.5391H31.7109Z" fill="white"/>
<path d="M52.6875 89.6797C60.9609 89.6797 65.8828 82.8594 65.8828 72.0312C65.8828 61.2031 60.9141 54.5 52.6875 54.5C44.4375 54.5 39.4453 61.25 39.4453 72.0547C39.4453 82.9062 44.3906 89.6797 52.6875 89.6797ZM52.6875 84.7344C48.1875 84.7344 45.5391 80 45.5391 72.0312C45.5391 64.2031 48.2344 59.4453 52.6875 59.4453C57.1172 59.4453 59.7656 64.1562 59.7656 72.0547C59.7656 80.0234 57.1641 84.7344 52.6875 84.7344Z" fill="white"/>
<path fill-rule="evenodd" clip-rule="evenodd" d="M34.3108 83.5391C34.3108 84.975 33.1468 86.1391 31.7108 86.1391H27.889V89C27.889 90.4359 26.7249 91.6 25.289 91.6H19.2655C17.8296 91.6 16.6655 90.4359 16.6655 89V86.1391H12.8671C11.4311 86.1391 10.2671 84.975 10.2671 83.5391V79.9062C10.2671 79.2455 10.5136 78.6423 10.9196 78.1836C10.5136 77.7249 10.2671 77.1217 10.2671 76.4609V72.8281C10.2671 71.3922 11.4311 70.2281 12.8671 70.2281H13.1516L5.15871 56.487C4.6909 55.6827 4.68849 54.6898 5.15239 53.8833C5.61628 53.0768 6.47576 52.5797 7.40615 52.5797H14.039C14.9823 52.5797 15.8517 53.0907 16.3106 53.9149L22.2858 64.6463L28.2424 53.9176C28.7008 53.0919 29.571 52.5797 30.5155 52.5797H37.1249C38.0548 52.5797 38.914 53.0763 39.378 53.8822C39.8421 54.6881 39.8404 55.6804 39.3736 56.4847L31.3977 70.2281H31.7108C33.1468 70.2281 34.3108 71.3922 34.3108 72.8281V76.4609C34.3108 77.1217 34.0643 77.7249 33.6583 78.1836C34.0643 78.6423 34.3108 79.2455 34.3108 79.9062V83.5391ZM26.8827 72.8281L37.1249 55.1797H30.5155L22.3827 69.8281H22.1952L14.039 55.1797H7.40615L17.6718 72.8281H12.8671V76.4609H19.2655V79.9062H12.8671V83.5391H19.2655V89H25.289V83.5391H31.7108V79.9062H25.289V76.4609H31.7108V72.8281H26.8827ZM64.4772 86.4632C61.7107 90.1994 57.6287 92.2797 52.6874 92.2797C47.744 92.2797 43.65 90.2192 40.8704 86.4904C38.1571 82.8505 36.8452 77.8342 36.8452 72.0547C36.8452 66.2913 38.1721 61.2917 40.8928 57.6653C43.6771 53.954 47.7678 51.9 52.6874 51.9C57.5922 51.9 61.673 53.9399 64.4505 57.6457C67.1633 61.2651 68.4827 66.2597 68.4827 72.0312C68.4827 77.7978 67.1773 82.8164 64.4772 86.4632ZM49.6924 80.0976C50.5453 81.6156 51.5451 82.1344 52.6874 82.1344C53.8131 82.1344 54.7937 81.6269 55.6334 80.1183C56.5415 78.4867 57.1655 75.8173 57.1655 72.0547C57.1655 68.3376 56.533 65.686 55.6206 64.0612C54.7714 62.549 53.7855 62.0453 52.6874 62.0453C51.5765 62.0453 50.5693 62.5624 49.7044 64.0861C48.78 65.7149 48.139 68.3593 48.139 72.0312C48.139 75.7874 48.7727 78.4605 49.6924 80.0976ZM65.8827 72.0312C65.8827 82.8594 60.9608 89.6797 52.6874 89.6797C44.3905 89.6797 39.4452 82.9062 39.4452 72.0547C39.4452 61.25 44.4374 54.5 52.6874 54.5C60.914 54.5 65.8827 61.2031 65.8827 72.0312ZM45.539 72.0312C45.539 80 48.1874 84.7344 52.6874 84.7344C57.164 84.7344 59.7655 80.0234 59.7655 72.0547C59.7655 64.1562 57.1171 59.4453 52.6874 59.4453C48.2343 59.4453 45.539 64.2031 45.539 72.0312Z" fill="#333333"/>
</svg>
