<svg width="100" height="100" viewBox="0 0 100 100" fill="none" xmlns="http://www.w3.org/2000/svg">
<circle cx="50" cy="50" r="50" fill="white"/>
<path d="M41.25 16.25V25H42.5C43.8812 25 45 26.1187 45 27.5C45 27.9575 44.8675 28.3813 44.6537 28.75H61.25V16.25H41.25Z" fill="#F2C94C"/>
<path d="M63.75 16.25H83.75V22.5H63.75V16.25Z" fill="#F2C94C"/>
<path d="M88.75 48.75V11.25H36.25V23.75H29.325C30.5175 22.4213 31.25 20.6725 31.25 18.75C31.25 14.6137 27.8862 11.25 23.75 11.25C19.6138 11.25 16.25 14.6137 16.25 18.75C16.25 20.995 17.2463 23.0075 18.8138 24.3825C14.4188 25.9137 11.25 30.0888 11.25 35V38.75C11.25 41.5075 13.4925 43.75 16.25 43.75V56.875C16.25 57.5488 16.4162 58.18 16.6887 58.75H11.25V68.75H16.6875C16.41 69.5337 16.25 70.3725 16.25 71.25C16.25 73.495 17.2463 75.5075 18.8138 76.8825C14.4188 78.4137 11.25 82.5888 11.25 87.5V88.75H33.75H36.25H56.25H58.75H81.25V87.5C81.25 82.5888 78.0813 78.4137 73.6863 76.8825C75.2538 75.5075 76.25 73.495 76.25 71.25C76.25 70.3725 76.09 69.5337 75.8125 68.75H88.75V58.75H80.7075L74.7075 48.75H88.75ZM38.75 13.75H86.25V46.25H38.75V31.25H42.5C44.5675 31.25 46.25 29.5675 46.25 27.5C46.25 25.4325 44.5675 23.75 42.5 23.75H38.75V13.75ZM30.8113 58.75C31.0837 58.18 31.25 57.5488 31.25 56.875V31.25H36.25V48.75H50.2925L44.2925 58.75H30.8113ZM53.2075 48.75H56.5425L50.5425 58.75H47.2075L53.2075 48.75ZM58.75 49.93V58.75H53.4575L58.75 49.93ZM61.25 48.75H63.75V58.75H61.25V48.75ZM66.25 49.93L71.5425 58.75H66.25V49.93ZM23.75 13.75C26.5075 13.75 28.75 15.9925 28.75 18.75C28.75 21.5075 26.5075 23.75 23.75 23.75C20.9925 23.75 18.75 21.5075 18.75 18.75C18.75 15.9925 20.9925 13.75 23.75 13.75ZM18.75 56.875V35H16.25V41.25C14.8712 41.25 13.75 40.1287 13.75 38.75V35C13.75 30.175 17.675 26.25 22.5 26.25H42.5C43.1887 26.25 43.75 26.8112 43.75 27.5C43.75 28.1887 43.1887 28.75 42.5 28.75H28.75V56.875C28.75 57.9087 27.9088 58.75 26.875 58.75C25.8413 58.75 25 57.9087 25 56.875V40H22.5V56.875C22.5 57.9087 21.6587 58.75 20.625 58.75C19.5913 58.75 18.75 57.9087 18.75 56.875ZM23.75 66.25C26.5075 66.25 28.75 68.4925 28.75 71.25C28.75 74.0075 26.5075 76.25 23.75 76.25C20.9925 76.25 18.75 74.0075 18.75 71.25C18.75 68.4925 20.9925 66.25 23.75 66.25ZM13.8388 86.25C14.4475 82.015 18.0988 78.75 22.5 78.75H25C29.4012 78.75 33.0525 82.015 33.6613 86.25H13.8388ZM28.6863 76.8825C30.2537 75.5075 31.25 73.495 31.25 71.25C31.25 70.3725 31.09 69.5337 30.8125 68.75H39.1875C38.91 69.5337 38.75 70.3725 38.75 71.25C38.75 73.495 39.7463 75.5075 41.3138 76.8825C38.5725 77.8375 36.3137 79.8175 35 82.3688C33.685 79.8175 31.4263 77.8375 28.6863 76.8825ZM51.25 71.25C51.25 74.0075 49.0075 76.25 46.25 76.25C43.4925 76.25 41.25 74.0075 41.25 71.25C41.25 68.4925 43.4925 66.25 46.25 66.25C49.0075 66.25 51.25 68.4925 51.25 71.25ZM36.3387 86.25C36.9475 82.015 40.5988 78.75 45 78.75H47.5C51.9012 78.75 55.5525 82.015 56.1613 86.25H36.3387ZM51.1863 76.8825C52.7537 75.5075 53.75 73.495 53.75 71.25C53.75 70.3725 53.59 69.5337 53.3125 68.75H61.6875C61.41 69.5337 61.25 70.3725 61.25 71.25C61.25 73.495 62.2463 75.5075 63.8137 76.8825C61.0725 77.8375 58.8138 79.8175 57.5 82.3688C56.185 79.8175 53.9263 77.8375 51.1863 76.8825ZM70 78.75C74.4012 78.75 78.0525 82.015 78.6613 86.25H58.8387C59.4475 82.015 63.0988 78.75 67.5 78.75H70ZM68.75 76.25C65.9925 76.25 63.75 74.0075 63.75 71.25C63.75 68.4925 65.9925 66.25 68.75 66.25C71.5075 66.25 73.75 68.4925 73.75 71.25C73.75 74.0075 71.5075 76.25 68.75 76.25ZM86.25 66.25H74.325C72.9512 64.72 70.965 63.75 68.75 63.75C66.535 63.75 64.55 64.72 63.175 66.25H51.825C50.4512 64.72 48.465 63.75 46.25 63.75C44.035 63.75 42.05 64.72 40.675 66.25H29.325C27.9513 64.72 25.965 63.75 23.75 63.75C21.535 63.75 19.55 64.72 18.175 66.25H13.75V61.25H86.25V66.25ZM77.7925 58.75H74.4575L68.4575 48.75H71.7925L77.7925 58.75Z" fill="#333333"/>
<path d="M83.75 26.25H81.25V41.25H78.75V28.75H76.25V41.25H73.75V36.25H71.25V41.25H68.75V33.75H66.25V41.25H63.75V38.75H61.25V41.25H58.75V31.25H56.25V41.25H53.75V43.75H83.75V26.25Z" fill="#333333"/>
<path d="M63.75 16.25H66.25V18.75H63.75V16.25Z" fill="#333333"/>
<path d="M68.75 16.25H83.75V18.75H68.75V16.25Z" fill="#333333"/>
<path d="M63.75 21.25H83.75V23.75H63.75V21.25Z" fill="#333333"/>
<path d="M41.25 36.25H43.75V38.75H41.25V36.25Z" fill="#333333"/>
<path d="M41.25 41.25H43.75V43.75H41.25V41.25Z" fill="#333333"/>
</svg>
