<svg width="100" height="100" viewBox="0 0 100 100" fill="none" xmlns="http://www.w3.org/2000/svg">
<circle cx="50" cy="50" r="50" fill="white"/>
<path d="M43.5259 15.1282H53.7823V21.5385H43.5259V15.1282Z" fill="#F2C94C"/>
<path d="M15.3208 48.4616V65.1282H20.449V49.7436H23.0131V43.3333H15.3208V48.4616Z" fill="#F2C94C"/>
<path d="M66.2028 21.9385L57.6284 30.5129L74.2951 47.1795L82.9089 38.5921L66.2028 21.9385Z" fill="#F2C94C"/>
<path d="M53.3824 34.7189L40.9619 47.1795L51.2183 57.4359L63.6977 44.996L53.3824 34.7189Z" fill="#F2C94C"/>
<path d="M36.7157 51.3462L31.9875 56.1539L56.3465 80.5128L61.1242 75.7552L36.7157 51.3462Z" fill="#F2C94C"/>
<path d="M29.4234 40.7693H28.1413C21.0719 40.7693 15.3208 35.0182 15.3208 27.9487C15.3208 20.8793 21.0719 15.1282 28.1413 15.1282C35.2101 15.1282 40.9618 20.8793 40.9618 27.9487V29.2308H29.4234V40.7693Z" fill="#F2C94C"/>
<path d="M65.3344 14.6118L58.9103 20.8348V10H10.1924V71.5385H37.8667L56.3281 89.9999L89.6796 57.9818V38.9563L65.3344 14.6118ZM81.2354 48.4615L87.1155 42.5821V54.3409L81.2354 48.4615ZM12.7565 68.9744V12.5641H56.3462V23.3194L46.0817 33.2628C46.0829 33.2002 46.0898 33.1383 46.0898 33.0769V31.7949H31.9873V45.8974H33.0396L22.4676 56.1382L35.3026 68.9744H12.7565ZM36.1051 42.9283C35.5962 43.0742 35.0778 43.1887 34.5514 43.2538V34.359H43.4462C43.3667 34.995 43.2177 35.6179 43.0205 36.227L36.1051 42.9283ZM26.1216 56.1695L65.3062 18.2088L86.5846 39.4872L77.6103 48.4615L86.5665 57.4177L56.3638 86.4104L26.1216 56.1695Z" fill="#333333"/>
<path d="M64.4136 23.7276L66.2265 21.9147L82.8931 38.5813L81.0802 40.3942L64.4136 23.7276Z" fill="#333333"/>
<path d="M60.5674 27.5738L62.3803 25.7609L79.0469 42.4275L77.234 44.2404L60.5674 27.5738Z" fill="#333333"/>
<path d="M56.7214 31.4199L58.5343 29.607L75.201 46.2737L73.3881 48.0866L56.7214 31.4199Z" fill="#333333"/>
<path d="M51.5933 36.5475L53.4062 34.7346L63.6626 44.991L61.8497 46.8039L51.5933 36.5475Z" fill="#333333"/>
<path d="M47.7471 40.3936L49.56 38.5807L59.8164 48.8372L58.0035 50.6501L47.7471 40.3936Z" fill="#333333"/>
<path d="M43.9009 44.2398L45.7138 42.4269L55.9702 52.6833L54.1573 54.4962L43.9009 44.2398Z" fill="#333333"/>
<path d="M40.0547 48.0859L41.8676 46.273L52.124 56.5294L50.3111 58.3423L40.0547 48.0859Z" fill="#333333"/>
<path d="M34.9265 53.2141L36.7394 51.4012L61.0978 75.7596L59.2849 77.5731L34.9265 53.2141Z" fill="#333333"/>
<path d="M31.0803 57.0603L32.8932 55.2474L57.2516 79.6058L55.4387 81.4193L31.0803 57.0603Z" fill="#333333"/>
<path d="M67.885 46.6486L51.9695 62.5641L64.0388 74.6334L79.9536 58.7179L67.885 46.6486ZM55.5947 62.5641L67.885 50.2744L76.3285 58.7179L64.0388 71.0076L55.5947 62.5641Z" fill="#333333"/>
<path d="M43.5259 15.1282H53.7823V17.6923H43.5259V15.1282Z" fill="#333333"/>
<path d="M43.5259 20.2564H53.7823V22.8205H43.5259V20.2564Z" fill="#333333"/>
<path d="M15.3208 63.8462H26.8593V66.4103H15.3208V63.8462Z" fill="#333333"/>
<path d="M15.3208 58.718H20.449V61.2821H15.3208V58.718Z" fill="#333333"/>
<path d="M15.3208 53.5898H20.449V56.1539H15.3208V53.5898Z" fill="#333333"/>
<path d="M15.3208 48.4615H23.0131V51.0257H15.3208V48.4615Z" fill="#333333"/>
<path d="M15.3208 43.3333H29.4234V45.8974H15.3208V43.3333Z" fill="#333333"/>
</svg>
