<svg width="100" height="100" viewBox="0 0 100 100" fill="none" xmlns="http://www.w3.org/2000/svg">
<circle cx="50" cy="50" r="50" fill="white"/>
<path d="M54.8387 34.5162H79.3549V46.1291H54.8387V34.5162Z" fill="#F2C94C"/>
<path d="M32.9033 62.9033H58.7098V79.6775H32.9033V62.9033Z" fill="#F2C94C"/>
<path d="M83.2259 64.1936H67.742C67.03 64.1936 66.4517 63.6152 66.4517 62.9033V55.1613C66.4517 54.4494 67.03 53.871 67.742 53.871H83.2259C83.9378 53.871 84.5162 54.4494 84.5162 55.1613V62.9033C84.5162 63.6152 83.9378 64.1936 83.2259 64.1936Z" fill="#F2C94C"/>
<path d="M34.1936 40.9678H29.0323C27.609 40.9678 26.4517 39.8104 26.4517 38.3871V35.8065C26.4517 34.3832 27.609 33.2258 29.0323 33.2258H34.1936C35.6169 33.2258 36.7742 34.3832 36.7742 35.8065V38.3871C36.7742 39.8104 35.6169 40.9678 34.1936 40.9678Z" fill="#F2C94C"/>
<path d="M84.5162 48.8401V30.6452C87.3627 30.6452 89.6775 28.3304 89.6775 25.4839C89.6775 22.6373 87.3627 20.3226 84.5162 20.3226V10H40.1109L27.742 22.369V27.8037L11.5417 38.6038L12.9732 40.751L17.4194 37.7873V59.0323H27.742V84.8387H61.4208C62.0206 87.7791 64.6258 90 67.742 90H83.2258C86.7831 90 89.6775 87.1056 89.6775 83.5484V55.1613C89.6775 52.0464 87.4566 49.4399 84.5162 48.8401ZM52.2581 27.2669L48.6914 25.4839L52.2581 23.7009V27.2669ZM54.8387 22.9032H79.3549V28.0645H54.8387V22.9032ZM87.0968 25.4839C87.0968 26.9071 85.9394 28.0645 84.5162 28.0645H81.9355V22.9032H84.5162C85.9394 22.9032 87.0968 24.0606 87.0968 25.4839ZM39.3549 14.4052V21.6129H32.1472L39.3549 14.4052ZM20 36.0673L31.6129 28.3254L43.2258 36.0673V56.4516H38.0646V50C38.0646 46.4428 35.1701 43.5484 31.6129 43.5484C28.0557 43.5484 25.1613 46.4428 25.1613 50V56.4516H20V36.0673ZM35.4839 56.4516H27.742V50C27.742 47.8661 29.479 46.129 31.6129 46.129C33.7469 46.129 35.4839 47.8661 35.4839 50V56.4516ZM61.2904 55.1613V82.2581H30.3226V59.0323H45.8065V37.7873L50.2514 40.751L51.6829 38.6038L31.6129 25.223L30.3226 26.0837V24.1935H41.9355V12.5806H81.9355V20.3226H53.2441L42.9215 25.4839L53.2441 30.6452H81.9355V48.7097H67.742C64.1848 48.7097 61.2904 51.6041 61.2904 55.1613ZM87.0968 83.5484C87.0968 85.6823 85.3598 87.4193 83.2258 87.4193H67.742C65.608 87.4193 63.871 85.6823 63.871 83.5484V55.1613C63.871 53.0273 65.608 51.2903 67.742 51.2903H83.2258C85.3598 51.2903 87.0968 53.0273 87.0968 55.1613V83.5484Z" fill="#333333"/>
<path d="M66.4517 82.2581C66.4517 83.6813 67.609 84.8387 69.0323 84.8387H81.9355C83.3588 84.8387 84.5162 83.6813 84.5162 82.2581V66.7742H66.4517V82.2581ZM69.0323 79.6774H71.613V82.2581H69.0323V79.6774ZM76.7742 74.5161V77.0968H74.1936V74.5161H76.7742ZM74.1936 71.9355V69.3548H76.7742V71.9355H74.1936ZM79.3549 74.5161H81.9368V77.0968H79.3549V74.5161ZM76.7742 79.6774V82.2581H74.1936V79.6774H76.7742ZM71.613 77.0968H69.0323V74.5161H71.613V77.0968ZM79.3549 82.2581V79.6774H81.9381V82.2581H79.3549ZM81.9355 71.9355H79.3549V69.3548H81.9355V71.9355ZM71.613 69.3548V71.9355H69.0323V69.3548H71.613Z" fill="#333333"/>
<path d="M24.6774 25.201L23.0645 23.1861L17.4193 27.7035L11.7742 23.1861L10.1613 25.201L17.4193 31.0062L24.6774 25.201Z" fill="#333333"/>
<path d="M16.129 20.3226H18.7097V22.9032H16.129V20.3226Z" fill="#333333"/>
<path d="M32.9032 61.6129H58.7097V64.1935H32.9032V61.6129Z" fill="#333333"/>
<path d="M38.0645 66.7742H58.7096V69.3548H38.0645V66.7742Z" fill="#333333"/>
<path d="M32.9032 66.7742H35.4838V69.3548H32.9032V66.7742Z" fill="#333333"/>
<path d="M32.9032 71.9355H58.7097V74.5161H32.9032V71.9355Z" fill="#333333"/>
<path d="M56.129 77.0968H58.7097V79.6774H56.129V77.0968Z" fill="#333333"/>
<path d="M32.9032 77.0968H53.5484V79.6774H32.9032V77.0968Z" fill="#333333"/>
<path d="M54.8387 33.2258H79.3549V35.8065H54.8387V33.2258Z" fill="#333333"/>
<path d="M54.8387 38.3871H57.4194V40.9677H54.8387V38.3871Z" fill="#333333"/>
<path d="M60 38.3871H79.3548V40.9677H60V38.3871Z" fill="#333333"/>
<path d="M54.8387 43.5484H74.1936V46.129H54.8387V43.5484Z" fill="#333333"/>
<path d="M76.7742 43.5484H79.3548V46.129H76.7742V43.5484Z" fill="#333333"/>
<path d="M16.129 15.1613H18.7097V17.742H16.129V15.1613Z" fill="#333333"/>
<path d="M16.129 10H18.7097V12.5806H16.129V10Z" fill="#333333"/>
<path d="M10.1613 68.3474L11.7742 70.3623L17.4193 65.8449L23.0645 70.3623L24.6774 68.3474L17.4193 62.5422L10.1613 68.3474Z" fill="#333333"/>
<path d="M16.129 70.6451H18.7097V73.2258H16.129V70.6451Z" fill="#333333"/>
<path d="M16.129 75.8065H18.7097V78.3871H16.129V75.8065Z" fill="#333333"/>
<path d="M16.129 80.9677H18.7097V83.5484H16.129V80.9677Z" fill="#333333"/>
</svg>
