<svg width="20" height="20" viewBox="0 0 20 20" fill="none" xmlns="http://www.w3.org/2000/svg">
<path d="M9.99968 18.3334C9.49968 18.3334 9.16634 18.0001 9.16634 17.5001C9.16634 16.5834 8.41634 15.8334 7.49968 15.8334H1.66634C1.16634 15.8334 0.833008 15.5001 0.833008 15.0001V2.50008C0.833008 2.00008 1.16634 1.66675 1.66634 1.66675H6.66634C8.99968 1.66675 10.833 3.50008 10.833 5.83342V17.5001C10.833 18.0001 10.4997 18.3334 9.99968 18.3334ZM2.49967 14.1667H7.49968C8.08301 14.1667 8.66634 14.3334 9.16634 14.5834V5.83342C9.16634 4.41675 8.08301 3.33341 6.66634 3.33341H2.49967V14.1667Z" fill="white"/>
<path d="M10.0003 18.3334C9.50033 18.3334 9.16699 18.0001 9.16699 17.5001V5.83342C9.16699 3.50008 11.0003 1.66675 13.3337 1.66675H18.3337C18.8337 1.66675 19.167 2.00008 19.167 2.50008V15.0001C19.167 15.5001 18.8337 15.8334 18.3337 15.8334H12.5003C11.5837 15.8334 10.8337 16.5834 10.8337 17.5001C10.8337 18.0001 10.5003 18.3334 10.0003 18.3334ZM13.3337 3.33341C11.917 3.33341 10.8337 4.41675 10.8337 5.83342V14.5834C11.3337 14.3334 11.917 14.1667 12.5003 14.1667H17.5003V3.33341H13.3337Z" fill="white"/>
</svg>
