<svg width="61" height="50" viewBox="0 0 61 50" fill="none" xmlns="http://www.w3.org/2000/svg">
<path d="M4.29543 24.4216C4.29543 12.8646 16.2229 3.49194 30.9319 3.49194C45.6409 3.49194 57.5683 12.8646 57.5683 24.4216C57.5683 35.9787 45.6409 45.3513 30.9319 45.3513C27.1753 45.3513 23.6076 44.7391 20.365 43.6355C17.7951 45.5781 16.2304 46.0467 12.6401 46.0467C13.275 45.0943 14.2274 43.1896 14.3861 41.4511C9.38236 37.6492 4.29543 30.3324 4.29543 24.4216Z" fill="white"/>
<path d="M11.3628 42.7059C6.26833 38.5562 2.04308 30.8843 2.04308 24.5275C2.04308 18.3899 5.07407 12.5623 10.5465 8.26143C15.9206 4.04374 23.2827 1.24707 30.8488 1.24707C38.415 1.24707 45.6258 4.00595 51 8.2312C56.4724 12.532 59.4883 18.2765 59.4883 24.4141C59.4883 30.5517 56.5178 36.8102 51.0453 41.111C45.6712 45.3363 38.9441 48.2312 31.3779 48.2312C27.7423 48.2312 24.3107 48.1178 20.9622 47.0596C14.5525 49.9319 8.98942 48.2614 8.98942 48.2614C10.2668 46.2509 11.325 44.3007 11.3628 42.7059Z" fill="#333333"/>
<path d="M4.29543 24.4216C4.29543 12.8646 16.2229 3.49194 30.9319 3.49194C45.6409 3.49194 57.5683 12.8646 57.5683 24.4216C57.5683 35.9787 45.6409 45.3513 30.9319 45.3513C27.1753 45.3513 23.6076 44.7391 20.365 43.6355C17.7951 45.5781 16.2304 46.0467 12.6401 46.0467C13.275 45.0943 14.2274 43.1896 14.3861 41.4511C9.38236 37.6492 4.29543 30.3324 4.29543 24.4216Z" fill="white"/>
<path d="M19.21 14.89C19.01 15.5 18.63 16.32 18.32 16.84L19.25 17.22C19.58 16.73 20 15.99 20.38 15.31L19.21 14.89ZM16.23 16.8C16.11 16.29 15.73 15.53 15.38 14.95L14.37 15.34C14.72 15.93 15.05 16.73 15.15 17.23L16.23 16.8ZM16.65 22.22H17.83V19.48C18.37 20.41 19.07 21.24 19.83 21.77C20.01 21.47 20.39 21.03 20.65 20.81C19.78 20.33 18.94 19.48 18.39 18.57H20.45V17.49H17.83V14.67H16.65V17.49H14.11V18.57H16.11C15.56 19.5 14.73 20.37 13.88 20.86C14.15 21.09 14.52 21.51 14.7 21.8C15.42 21.29 16.1 20.51 16.65 19.62V22.22ZM14.03 16.27C13.69 15.8 12.96 15.18 12.36 14.76L11.48 15.48C12.07 15.92 12.78 16.58 13.09 17.06L14.03 16.27ZM13.78 18.41H11.47V19.5H12.62V21.61C12.18 21.95 11.68 22.28 11.25 22.53L11.83 23.77C12.38 23.35 12.82 22.96 13.26 22.57C13.91 23.35 14.73 23.63 15.96 23.68C17.15 23.73 19.16 23.71 20.36 23.65C20.42 23.31 20.6 22.73 20.73 22.45C19.4 22.55 17.15 22.58 15.98 22.53C14.94 22.49 14.19 22.22 13.78 21.55V18.41ZM22.43 18.77L22.95 20.07C23.8 19.71 25.8 18.88 26.96 18.88C27.83 18.88 28.39 19.4 28.39 20.15C28.39 21.51 26.71 22.12 24.42 22.18L24.95 23.41C28.13 23.21 29.72 21.98 29.72 20.17C29.72 18.66 28.66 17.72 27.08 17.72C25.87 17.72 24.17 18.29 23.49 18.5C23.19 18.59 22.73 18.71 22.43 18.77ZM36.87 20.56L35.68 20.44C35.6 20.84 35.5 21.32 35.5 21.78C35.5 22.79 36.41 23.37 38.09 23.37C38.89 23.37 39.57 23.3 40.13 23.23L40.18 21.95C39.46 22.08 38.77 22.16 38.1 22.16C37.03 22.16 36.73 21.83 36.73 21.39C36.73 21.17 36.79 20.84 36.87 20.56ZM35.74 15.02L34.21 14.9C34.24 15.13 34.22 15.54 34.18 15.91C34.16 16.07 34.13 16.26 34.09 16.48C33.78 16.5 33.48 16.51 33.19 16.51C32.78 16.51 32.44 16.49 31.93 16.43L31.96 17.68C32.31 17.7 32.69 17.72 33.17 17.72C33.38 17.72 33.6 17.71 33.83 17.7C33.77 17.99 33.69 18.27 33.62 18.54C33.25 19.94 32.49 22.04 31.89 23.04L33.28 23.51C33.84 22.32 34.51 20.28 34.87 18.88C34.98 18.47 35.08 18.03 35.17 17.6C35.84 17.52 36.52 17.41 37.12 17.27V16.02C36.57 16.15 36.01 16.26 35.45 16.34C35.48 16.2 35.51 16.07 35.53 15.96C35.57 15.74 35.66 15.29 35.74 15.02ZM36.33 18.04V19.21C36.96 19.14 37.58 19.11 38.26 19.11C38.87 19.11 39.48 19.17 39.98 19.23L40.01 18.03C39.42 17.97 38.82 17.94 38.25 17.94C37.61 17.94 36.89 17.99 36.33 18.04ZM44.34 14.95L44.02 16.15C44.8 16.35 47.03 16.82 48.04 16.95L48.34 15.73C47.47 15.63 45.29 15.25 44.34 14.95ZM44.4 16.96L43.06 16.77C42.99 18.01 42.76 19.97 42.56 20.95L43.71 21.24C43.8 21.04 43.9 20.88 44.08 20.66C44.71 19.9 45.73 19.48 46.86 19.48C47.73 19.48 48.35 19.96 48.35 20.61C48.35 21.88 46.76 22.61 43.76 22.2L44.14 23.51C48.3 23.86 49.74 22.46 49.74 20.64C49.74 19.43 48.72 18.35 46.97 18.35C45.92 18.35 44.93 18.64 44.02 19.3C44.09 18.73 44.27 17.51 44.4 16.96ZM18.18 27.73V29.05C18.99 29.12 19.86 29.16 20.91 29.16C21.86 29.16 23.1 29.1 23.8 29.04V27.71C23.03 27.79 21.89 27.85 20.9 27.85C19.85 27.85 18.92 27.81 18.18 27.73ZM19.02 31.97L17.71 31.85C17.63 32.22 17.51 32.71 17.51 33.29C17.51 34.66 18.66 35.43 20.95 35.43C22.35 35.43 23.55 35.3 24.42 35.09L24.41 33.68C23.53 33.93 22.25 34.08 20.9 34.08C19.46 34.08 18.85 33.62 18.85 32.98C18.85 32.64 18.92 32.33 19.02 31.97ZM28.72 27.79C28.72 27.9 28.7 28.18 28.68 28.56C28.25 28.62 27.81 28.67 27.52 28.69C27.17 28.71 26.94 28.71 26.65 28.7L26.78 29.98C27.34 29.9 28.11 29.8 28.6 29.74C28.59 29.98 28.57 30.22 28.55 30.45C27.98 31.29 26.98 32.61 26.41 33.31L27.2 34.4C27.55 33.93 28.04 33.2 28.46 32.57C28.45 33.41 28.44 33.99 28.42 34.77C28.42 34.93 28.41 35.28 28.39 35.51H29.77C29.74 35.28 29.71 34.92 29.7 34.74C29.64 33.8 29.64 32.96 29.64 32.14C29.64 31.88 29.65 31.61 29.66 31.33C30.48 30.43 31.56 29.51 32.3 29.51C32.72 29.51 32.98 29.76 32.98 30.25C32.98 31.16 32.62 32.63 32.62 33.71C32.62 34.68 33.12 35.22 33.87 35.22C34.68 35.22 35.29 34.91 35.75 34.48L35.59 33.07C35.13 33.53 34.66 33.79 34.29 33.79C34.04 33.79 33.91 33.6 33.91 33.34C33.91 32.31 34.24 30.84 34.24 29.8C34.24 28.96 33.75 28.32 32.67 28.32C31.7 28.32 30.55 29.13 29.76 29.82C29.77 29.74 29.77 29.67 29.78 29.6C29.95 29.34 30.15 29.01 30.29 28.83L29.92 28.35C29.99 27.73 30.08 27.22 30.14 26.94L28.68 26.89C28.73 27.2 28.72 27.5 28.72 27.79ZM40.49 32.43H41.51L41.78 29.01L41.83 27.52H40.17L40.22 29.01L40.49 32.43ZM41 35.09C41.5 35.09 41.88 34.73 41.88 34.21C41.88 33.68 41.5 33.32 41 33.32C40.5 33.32 40.12 33.68 40.12 34.21C40.12 34.73 40.49 35.09 41 35.09Z" fill="#333333"/>
</svg>
