<svg width="20" height="20" viewBox="0 0 20 20" fill="none" xmlns="http://www.w3.org/2000/svg">
<path d="M16.667 19.0834C16.5836 19.0834 16.5003 19.0834 16.417 19.0834C13.7503 18.7501 11.0836 17.8334 8.83363 16.4167C6.75029 15.0834 4.91696 13.2501 3.58363 11.1667C2.08363 8.91675 1.16696 6.25008 0.916961 3.58341C0.833627 2.16675 1.83363 1.00008 3.16696 0.833415C3.25029 0.833415 3.33363 0.833415 3.41696 0.833415H5.91696C7.16696 0.833415 8.25029 1.75008 8.41696 3.00008C8.50029 3.75008 8.66696 4.50008 8.91696 5.16675C9.25029 6.08341 9.00029 7.08341 8.33363 7.83341L7.75029 8.41675C8.75029 9.91675 10.0003 11.2501 11.5836 12.2501L12.167 11.6667C12.8336 11.0001 13.917 10.7501 14.8336 11.0834C15.5003 11.3334 16.2503 11.5001 17.0003 11.5834C18.2503 11.7501 19.167 12.8334 19.167 14.0834V16.5834C19.167 17.2501 18.917 17.9167 18.417 18.3334C17.917 18.7501 17.3336 19.0834 16.667 19.0834ZM5.91696 2.50008H3.41696C2.91696 2.58341 2.58363 2.91675 2.58363 3.41675C2.83363 5.83341 3.66696 8.16675 5.00029 10.2501C6.25029 12.1667 7.83363 13.8334 9.75029 15.0001C11.8336 16.3334 14.167 17.1667 16.5836 17.4167C16.8336 17.4167 17.0836 17.3334 17.2503 17.1667C17.417 17.0001 17.5003 16.8334 17.5003 16.5834V14.0834C17.5003 13.6667 17.167 13.3334 16.7503 13.2501C15.917 13.1667 15.0836 12.9167 14.2503 12.5834C13.917 12.5001 13.5836 12.5834 13.3336 12.7501L12.2503 13.8334C12.0003 14.0834 11.5836 14.1667 11.2503 14.0001C9.00029 12.7501 7.16696 10.9167 5.91696 8.66675C5.83363 8.33341 5.91696 7.91675 6.16696 7.66675L7.25029 6.58341C7.41696 6.41675 7.50029 6.00008 7.41696 5.75008C7.08363 4.91675 6.91696 4.08341 6.75029 3.25008C6.75029 2.83341 6.33363 2.50008 5.91696 2.50008ZM15.8336 8.25008C15.417 8.25008 15.0836 8.00008 15.0003 7.58342C14.7503 6.25008 13.667 5.25008 12.3336 4.91675C11.917 4.83341 11.5836 4.41675 11.667 3.91675C11.7503 3.50008 12.167 3.16675 12.667 3.25008C14.667 3.66675 16.2503 5.16675 16.5836 7.16675C16.667 7.58342 16.417 8.08342 15.917 8.16675C15.917 8.25008 15.917 8.25008 15.8336 8.25008ZM19.167 8.25008C18.7503 8.25008 18.417 7.91675 18.3336 7.50008C18.0003 4.41675 15.5836 2.00008 12.417 1.58341C12.0003 1.50008 11.667 1.08341 11.667 0.666748C11.7503 0.250081 12.167 -0.083252 12.5836 -0.083252C16.5003 0.333415 19.5003 3.33342 19.917 7.25008C20.0003 7.66675 19.667 8.08342 19.167 8.16675C19.2503 8.25008 19.167 8.25008 19.167 8.25008Z" fill="white"/>
</svg>
