<?xml version="1.0" encoding="utf-8"?>
<!-- Generator: Adobe Illustrator 25.0.1, SVG Export Plug-In . SVG Version: 6.00 Build 0)  -->
<svg version="1.1" id="Layer_1" xmlns="http://www.w3.org/2000/svg" xmlns:xlink="http://www.w3.org/1999/xlink" x="0px" y="0px"
	 viewBox="0 0 191 65" style="enable-background:new 0 0 191 65;" xml:space="preserve">
<style type="text/css">
	.st0{fill:#F5F5F5;}
	.st1{clip-path:url(#SVGID_2_);}
</style>
<path class="st0" d="M0.8,19.3L0.7,62.5c0,0,91.5-42,189.1,0.8c0.2-44.5,0.2-44.5,0.2-44.5S100.9-21.3,0.8,19.3z"/>
<g>
	<path d="M1.9,21l-1.1-1.7c0.5-0.3,1.1-0.7,1.7-1c0.2-0.1,0.5-0.3,0.7-0.5c0.3-0.2,0.6-0.4,0.9-0.6c0.2-0.1,0.4-0.3,0.5-0.4
		c0.3-0.3,0.6-0.6,1-0.8c0.3-0.2,0.6-0.3,1-0.4c0.3-0.1,0.5-0.2,0.8-0.3c0.4-0.2,0.8-0.3,1.2-0.4c0.3-0.1,0.5-0.1,0.7-0.2
		c0.2-0.1,0.4-0.2,0.6-0.4c0.3-0.3,0.6-0.6,1.1-0.7l0.6-0.3c0.4-0.2,0.8-0.3,1.1-0.5c0.5-0.2,0.9-0.2,1.3-0.2c0.2,0,0.5,0,0.6-0.1
		c0.1,0,0.3-0.2,0.5-0.4c0.3-0.3,0.7-0.6,1.2-0.8c0.5-0.2,1-0.1,1.4-0.1c0.2,0,0.5,0,0.6,0c0.2-0.1,0.5-0.2,0.7-0.3
		c0.3-0.2,0.7-0.3,1-0.5c0.2-0.1,0.5-0.2,0.7-0.3c0.3-0.2,0.7-0.3,1.1-0.4c0.2-0.1,0.4-0.2,0.6-0.3c0.3-0.2,0.7-0.4,1.1-0.5
		C24,9,24.4,8.9,24.7,8.8c0.3-0.1,0.5-0.1,0.8-0.2c0.4-0.1,0.7-0.1,1.1-0.2c0.3,0,0.6-0.1,0.8-0.1c0.2-0.1,0.4-0.2,0.7-0.3
		c0.3-0.2,0.7-0.4,1.1-0.5c0.3-0.1,0.7-0.2,1.1-0.3L31.1,7c0.4-0.1,0.8-0.1,1.2-0.1c0.3,0,0.6,0,0.8-0.1c0.3-0.1,0.6-0.2,0.9-0.2
		c0.3-0.1,0.6-0.2,1-0.3c0.3-0.1,0.5-0.2,0.8-0.2c0.3-0.1,0.7-0.2,1-0.3c0.5-0.1,0.9-0.1,1.3,0c0.3,0,0.5,0,0.7,0
		c0.4-0.1,0.7-0.1,1.1-0.2c0.3,0,0.5-0.1,0.8-0.1l0.5-0.1C41.5,5.2,42,5.1,42.5,5c0.3-0.1,0.7-0.1,1-0.1c0.3,0,0.6,0,0.9-0.1
		c0.2,0,0.5-0.1,0.7-0.2c0.3-0.1,0.7-0.3,1.1-0.4c0.3,0,0.5-0.1,0.8-0.2c0.4-0.1,0.7-0.2,1.1-0.2c0.5-0.1,0.9,0,1.3,0.1
		C49.6,3.9,49.9,4,50,4c0.2,0,0.4-0.2,0.6-0.3c0.3-0.2,0.8-0.4,1.3-0.5c0.4-0.1,0.8,0,1.2,0c0.3,0,0.5,0,0.7,0
		c0.2,0,0.5-0.1,0.7-0.2c0.3-0.1,0.7-0.3,1.2-0.3c0.4-0.1,0.8-0.1,1.1-0.1c0.3,0,0.5,0,0.8,0c0.3,0,0.7-0.1,1-0.1
		c0.3,0,0.6,0,0.9-0.1l1.9-0.2c0.3,0,0.5-0.1,0.8-0.1c0.4-0.1,0.7-0.2,1.2-0.2c0.3,0,0.6-0.1,1-0.1c0.3,0,0.6,0,0.9-0.1
		c0.2,0,0.5-0.1,0.8-0.2c0.3-0.1,0.7-0.2,1.1-0.3c0.4,0,0.7,0,1.1,0c0.3,0,0.6,0,0.9,0c0.5,0,0.9,0.1,1.3,0.2
		c0.3,0.1,0.5,0.1,0.7,0.1c0.3,0,0.7,0,1-0.1c0.3,0,0.6,0,0.9-0.1c0.3,0,0.6-0.1,0.8-0.1c0.3-0.1,0.7-0.1,1.1-0.2
		c0.2,0,0.4-0.1,0.7-0.2c0.4-0.1,0.8-0.3,1.2-0.3l1.9-0.1c0.4,0,0.8,0,1.2,0.1c0.3,0,0.5,0.1,0.8,0.1c0.2,0,0.5-0.1,0.7-0.1
		c0.4-0.1,0.8-0.2,1.2-0.2c0.5,0,1,0.2,1.3,0.3c0.2,0.1,0.4,0.2,0.6,0.2c0.3,0,0.6,0,0.9-0.1c0.3,0,0.7-0.1,1.1-0.1
		c0.3,0,0.6,0,0.9,0c0.3,0,0.7,0,1,0c0.3,0,0.5,0,0.8-0.1c0.4,0,0.8-0.1,1.2-0.1c0.2,0,0.5-0.1,0.8-0.1c0.3-0.1,0.7-0.1,1.1-0.1
		c0,0,0,0,0,0c0.4,0,0.8,0.1,1.1,0.1c0.7,0.1,1.2,0.1,1.8,0.1c0.5,0,1.1,0,1.7,0c0.7-0.1,1.5-0.1,2.2,0c0.3,0,0.5,0.1,0.8,0.1
		c0.2,0,0.4-0.1,0.7-0.1c0.4-0.1,0.8-0.2,1.2-0.2c0.4,0,0.7,0,1,0c0.3,0,0.6,0,0.9,0c0.3,0,0.6,0,0.9,0c0.3,0,0.7,0,1,0
		c0.5,0,0.9,0.2,1.3,0.3c0.2,0.1,0.5,0.2,0.6,0.2c0.2,0,0.5,0,0.8-0.1c0.3-0.1,0.7-0.1,1.1-0.1c0.6,0,1.3,0.1,1.9,0.1
		c0.3,0,0.6,0,0.9,0c0.3,0,0.7,0,1,0c0.3,0,0.6,0,0.9,0c0.3,0,0.7,0,1,0c0.3,0,0.6,0,0.9,0c0.3,0,0.7,0,1,0c0.3,0,0.6,0,0.9,0
		c0.3,0,0.7,0,1,0c0.5,0,0.9,0.2,1.3,0.4c0.2,0.1,0.4,0.2,0.6,0.2c0.4,0,0.8,0.1,1.1,0.2c0.3,0.1,0.5,0.1,0.8,0.2
		c0.3,0,0.5,0,0.8,0.1c0.4,0,0.8,0,1.1,0.1c0.1,0,0.4,0,0.7-0.1c0.4-0.1,0.8-0.2,1.2-0.1c0.4,0,0.8,0.2,1.2,0.3
		c0.3,0.1,0.5,0.2,0.7,0.2c0.3,0,0.6,0,0.9,0c0.3,0,0.7,0,1,0c0.3,0,0.6,0,0.9,0c0.4,0,0.7,0,1,0.1c0.4,0,0.8,0.1,1.1,0.2
		c0.3,0.1,0.5,0.1,0.8,0.2c0.3,0,0.6,0.1,0.9,0.1c0.3,0,0.7,0.1,1,0.1c0.4,0,0.8,0.2,1.1,0.3c0.2,0.1,0.5,0.1,0.7,0.2
		c0.3,0,0.6,0.1,0.8,0.1c0.4,0,0.7,0,1,0.1c0.4,0.1,0.7,0.2,1.1,0.3c0.3,0.1,0.5,0.2,0.8,0.2c0.1,0,0.4,0,0.6-0.1
		c0.4-0.1,0.9-0.2,1.4-0.1c0.5,0.1,0.9,0.3,1.2,0.4c0.2,0.1,0.5,0.2,0.7,0.3c0.2,0,0.5,0,0.7,0c0.4,0,0.8,0,1.2,0
		c0.3,0,0.5,0.1,0.8,0.1c0.4,0,0.7,0.1,1.1,0.1c0.4,0.1,0.8,0.3,1.2,0.5c0.2,0.1,0.4,0.2,0.6,0.3c0.3,0.1,0.6,0.1,0.9,0.1
		c0.3,0,0.7,0.1,1,0.1c0.2,0,0.5,0,0.7,0c0.4,0,0.8,0,1.2,0.1c0.5,0.1,0.9,0.4,1.3,0.6c0.2,0.1,0.4,0.3,0.5,0.3
		c0.3,0.1,0.6,0.1,0.9,0.2c0.3,0.1,0.6,0.1,0.9,0.2c0.1,0,0.4,0,0.6,0c0.4,0,0.9-0.1,1.3,0.1c0.4,0.1,0.7,0.2,1.1,0.4
		c0.2,0.1,0.5,0.2,0.7,0.3c0.4,0.1,0.8,0.3,1.1,0.5c0.2,0.1,0.5,0.3,0.6,0.3c0.3,0.1,0.6,0.1,0.8,0.2c0.4,0.1,0.7,0.1,1,0.2
		c0.2,0.1,0.5,0.1,0.8,0.2c0.4,0.1,0.7,0.1,1.1,0.2c0.4,0.1,0.7,0.3,1.1,0.5c0.2,0.1,0.5,0.2,0.7,0.3c0.2,0.1,0.5,0.1,0.8,0.2
		c0.4,0.1,0.7,0.2,1.1,0.3c0.3,0.1,0.5,0.1,0.8,0.2c0.3,0.1,0.7,0.1,1.1,0.3c0.2,0.1,0.4,0.1,0.7,0.1c0.4,0,0.8,0.1,1.2,0.2
		c0.5,0.2,0.8,0.5,1.1,0.8c0.2,0.2,0.4,0.3,0.5,0.4c0.1,0,0.4,0,0.6,0c0.4,0,0.9,0,1.4,0.2c0.5,0.2,0.8,0.5,1.1,0.7
		c0.2,0.2,0.4,0.3,0.5,0.4c0.2,0.1,0.5,0.2,0.7,0.2c0.4,0.1,0.7,0.2,1.1,0.4c0.4,0.2,0.7,0.4,1,0.6c0.2,0.1,0.4,0.3,0.6,0.4
		c0.2,0.1,0.5,0.2,0.7,0.2c0.3,0.1,0.7,0.2,1.1,0.4c0.3,0.2,0.6,0.4,0.9,0.5c0.2,0.2,0.5,0.3,0.7,0.4c0.3,0.1,0.5,0.2,0.8,0.3
		c0.3,0.1,0.7,0.3,1,0.4c0.5,0.3,0.8,0.7,1,1c0.1,0.2,0.3,0.4,0.4,0.4l-1,1.7c-0.4-0.3-0.7-0.6-0.9-0.9c-0.1-0.2-0.3-0.4-0.4-0.5
		c-0.2-0.1-0.5-0.2-0.8-0.3c-0.3-0.1-0.7-0.2-1-0.4c-0.3-0.2-0.6-0.3-0.9-0.5c-0.2-0.2-0.5-0.3-0.7-0.4c-0.2-0.1-0.4-0.2-0.7-0.2
		c-0.3-0.1-0.7-0.2-1.1-0.4c-0.3-0.1-0.6-0.3-0.9-0.5c-0.2-0.2-0.5-0.3-0.7-0.4c-0.2-0.1-0.5-0.2-0.8-0.3c-0.3-0.1-0.6-0.2-1-0.3
		c-0.4-0.2-0.8-0.5-1.1-0.7c-0.2-0.2-0.4-0.3-0.5-0.4c-0.1,0-0.4,0-0.6,0c-0.4,0-0.9,0-1.4-0.2c-0.5-0.2-0.8-0.5-1.1-0.8
		c-0.2-0.2-0.4-0.3-0.5-0.4c-0.1-0.1-0.4-0.1-0.7-0.1c-0.4,0-0.8-0.1-1.2-0.2c-0.3-0.1-0.5-0.1-0.8-0.2c-0.3-0.1-0.7-0.1-1-0.3
		c-0.3-0.1-0.6-0.2-0.9-0.2c-0.3-0.1-0.6-0.1-0.9-0.2c-0.4-0.1-0.7-0.3-1-0.5c-0.3-0.1-0.5-0.3-0.7-0.3c-0.3-0.1-0.6-0.1-0.9-0.2
		c-0.3-0.1-0.6-0.1-1-0.2c-0.3-0.1-0.6-0.1-0.8-0.2c-0.3-0.1-0.7-0.1-1-0.2c-0.4-0.1-0.8-0.3-1.1-0.5c-0.2-0.1-0.5-0.3-0.6-0.3
		c-0.3-0.1-0.7-0.2-1-0.4C160.3,9.1,160,9,159.7,9c-0.2,0-0.4,0-0.7,0c-0.4,0-0.8,0.1-1.3,0c-0.3-0.1-0.6-0.1-0.9-0.2
		c-0.3-0.1-0.6-0.1-0.9-0.2c-0.5-0.1-0.9-0.4-1.2-0.6c-0.2-0.1-0.4-0.3-0.5-0.3c-0.2,0-0.5,0-0.7,0c-0.4,0-0.8,0-1.2-0.1
		c-0.3-0.1-0.6-0.1-0.8-0.1c-0.3,0-0.7-0.1-1-0.1c-0.4-0.1-0.8-0.3-1.2-0.5c-0.2-0.1-0.4-0.2-0.6-0.3c-0.3-0.1-0.6-0.1-0.9-0.1
		c-0.3,0-0.7-0.1-1-0.1c-0.2,0-0.5,0-0.7,0c-0.4,0-0.8,0-1.2,0c-0.4-0.1-0.8-0.3-1.2-0.4c-0.2-0.1-0.5-0.2-0.7-0.3
		c-0.1,0-0.3,0.1-0.6,0.1c-0.4,0.1-0.9,0.2-1.4,0.1c-0.4-0.1-0.7-0.2-1.1-0.3c-0.3-0.1-0.5-0.2-0.8-0.2c-0.3,0-0.6-0.1-0.8-0.1
		c-0.4,0-0.7,0-1.1-0.1c-0.4-0.1-0.7-0.2-1-0.2c-0.3-0.1-0.6-0.2-0.8-0.2c-0.3,0-0.6-0.1-0.9-0.1c-0.3,0-0.7-0.1-1-0.1
		c-0.4,0-0.7-0.1-1.1-0.2c-0.3-0.1-0.6-0.2-0.8-0.2c-0.3,0-0.6,0-0.8,0c-0.4,0-0.7,0-1.1-0.1c-0.2,0-0.5,0-0.8,0c-0.4,0-0.7,0-1.1,0
		c-0.4,0-0.8-0.2-1.1-0.3c-0.3-0.1-0.5-0.2-0.7-0.2c-0.2,0-0.4,0-0.7,0.1c-0.4,0.1-0.8,0.2-1.2,0.1c-0.4,0-0.7-0.1-1-0.1
		c-0.3,0-0.6,0-0.8-0.1c-0.4,0-0.8-0.1-1.1-0.2c-0.3-0.1-0.5-0.1-0.7-0.2c-0.5,0-0.9-0.2-1.2-0.4c-0.2-0.1-0.4-0.2-0.6-0.2
		c-0.3,0-0.6,0-0.9,0c-0.3,0-0.7,0-1,0c-0.3,0-0.6,0-0.9,0c-0.3,0-0.7,0-1,0c-0.3,0-0.6,0-0.9,0c-0.3,0-0.7,0-1,0
		c-0.3,0-0.6,0-0.9,0c-0.3,0-0.7,0-1,0c-0.6,0-1.2-0.1-1.9-0.1c-0.2,0-0.5,0-0.8,0.1c-0.3,0.1-0.7,0.1-1.1,0.1
		c-0.5,0-0.9-0.2-1.3-0.3c-0.2-0.1-0.5-0.2-0.6-0.2c-0.3,0-0.6,0-0.9,0c-0.3,0-0.7,0-1,0c-0.2,0-0.5,0-0.8,0c-0.4,0-0.8,0-1.1,0
		c-0.2,0-0.4,0.1-0.7,0.1c-0.4,0.1-0.8,0.2-1.2,0.2c-0.4,0-0.7-0.1-1-0.1c-0.6-0.1-1.1-0.1-1.7,0c-0.6,0.1-1.4,0.1-2.1,0.1
		c-0.7,0-1.4-0.1-2-0.2c-0.3,0-0.6-0.1-0.8-0.1c-0.2,0-0.5,0.1-0.8,0.1c-0.3,0.1-0.7,0.1-1.1,0.1c-0.3,0-0.7,0-1,0.1
		c-0.3,0-0.6,0.1-0.9,0.1c-0.3,0-0.6,0-0.9,0c-0.3,0-0.6,0-1,0c-0.3,0-0.6,0-0.9,0.1c-0.3,0-0.7,0.1-1,0.1c-0.5,0-1-0.2-1.4-0.3
		c-0.2-0.1-0.5-0.2-0.6-0.2c-0.2,0-0.5,0.1-0.8,0.1c-0.3,0.1-0.7,0.2-1.1,0.2c-0.4,0-0.8,0-1.2-0.1c-0.3,0-0.5-0.1-0.7-0.1l-1.9,0.1
		c-0.2,0-0.4,0.1-0.7,0.2c-0.4,0.1-0.8,0.3-1.2,0.3c-0.3,0-0.5,0.1-0.8,0.1c-0.3,0.1-0.7,0.1-1.1,0.2c-0.3,0-0.6,0-1,0.1
		c-0.3,0-0.6,0-0.9,0.1c-0.5,0-0.9-0.1-1.3-0.2c-0.2-0.1-0.5-0.1-0.6-0.1c-0.3,0-0.7,0-1,0c-0.3,0-0.6,0-0.9,0
		c-0.2,0-0.4,0.1-0.7,0.2c-0.4,0.1-0.8,0.3-1.2,0.3c-0.3,0-0.7,0.1-1,0.1c-0.3,0-0.6,0-0.9,0.1c-0.3,0-0.6,0.1-0.9,0.2
		c-0.3,0.1-0.6,0.1-1,0.2l-1.9,0.2c-0.3,0-0.7,0.1-1,0.1c-0.3,0-0.6,0-0.9,0.1c-0.3,0-0.7,0-1,0c-0.3,0-0.6,0-0.9,0
		c-0.2,0-0.5,0.1-0.8,0.2c-0.3,0.1-0.7,0.2-1.1,0.3c-0.4,0.1-0.8,0-1.2,0c-0.3,0-0.5,0-0.7,0c-0.1,0-0.4,0.1-0.6,0.3
		c-0.3,0.2-0.8,0.4-1.3,0.5c-0.5,0.1-0.9,0-1.3-0.1c-0.2,0-0.5-0.1-0.6-0.1c-0.4,0.1-0.7,0.1-1,0.2c-0.3,0.1-0.6,0.1-0.9,0.2
		c-0.2,0-0.5,0.1-0.7,0.2c-0.3,0.1-0.7,0.3-1.1,0.4c-0.3,0.1-0.7,0.1-1,0.1c-0.3,0-0.6,0-0.9,0.1c-0.4,0.1-0.9,0.2-1.3,0.3L41,7.4
		c-0.3,0.1-0.6,0.1-0.9,0.1c-0.3,0-0.7,0.1-1,0.1c-0.5,0.1-0.9,0.1-1.3,0c-0.3,0-0.5,0-0.7,0c-0.3,0.1-0.6,0.2-0.8,0.3
		c-0.3,0.1-0.6,0.2-1,0.3c-0.3,0.1-0.6,0.2-0.9,0.2c-0.3,0.1-0.6,0.2-1,0.3c-0.4,0.1-0.8,0.1-1.2,0.1c-0.3,0-0.5,0-0.8,0.1l-0.8,0.2
		c-0.3,0.1-0.7,0.2-1,0.3c-0.2,0.1-0.5,0.2-0.7,0.3c-0.3,0.2-0.7,0.4-1.1,0.5c-0.4,0.1-0.7,0.1-1.1,0.2c-0.3,0-0.6,0.1-0.8,0.1
		c-0.3,0.1-0.6,0.1-0.9,0.2c-0.3,0.1-0.6,0.1-0.9,0.2c-0.2,0.1-0.4,0.2-0.7,0.3c-0.3,0.2-0.7,0.4-1,0.5c-0.3,0.1-0.6,0.2-0.9,0.3
		c-0.3,0.1-0.6,0.3-0.9,0.4c-0.3,0.1-0.5,0.2-0.8,0.3c-0.3,0.2-0.6,0.3-1,0.4c-0.5,0.2-1,0.1-1.4,0.1c-0.2,0-0.5,0-0.6,0
		c-0.1,0-0.3,0.2-0.5,0.4c-0.3,0.3-0.6,0.6-1.1,0.8c-0.4,0.2-0.9,0.2-1.3,0.2c-0.2,0-0.5,0-0.6,0.1c-0.4,0.2-0.8,0.3-1.1,0.5
		l-0.6,0.3c-0.2,0.1-0.4,0.2-0.6,0.4c-0.3,0.2-0.6,0.5-1,0.7c-0.4,0.2-0.8,0.3-1.1,0.3c-0.3,0.1-0.5,0.1-0.7,0.2
		c-0.3,0.2-0.7,0.3-1,0.4c-0.3,0.1-0.5,0.2-0.7,0.3c-0.2,0.1-0.3,0.3-0.5,0.4c-0.3,0.3-0.6,0.5-1,0.7c-0.3,0.1-0.5,0.3-0.8,0.5
		c-0.3,0.2-0.5,0.3-0.8,0.5C2.9,20.4,2.4,20.7,1.9,21z"/>
</g>
<g>
	<path d="M1.8,64.2l-1.1-1.7c0.2-0.1,0.3-0.3,0.5-0.5c0.3-0.3,0.6-0.6,1-0.8c0.2-0.1,0.4-0.3,0.6-0.4c0.3-0.2,0.7-0.4,1-0.6
		c0.3-0.2,0.7-0.3,1-0.4c0.3-0.1,0.5-0.2,0.8-0.3c0.4-0.2,0.8-0.3,1.1-0.4c0.3-0.1,0.5-0.1,0.7-0.2c0.4-0.2,0.8-0.3,1.1-0.4
		c0.2-0.1,0.5-0.1,0.7-0.2c0.1,0,0.3-0.2,0.4-0.4c0.3-0.3,0.6-0.7,1.1-0.9c0.3-0.1,0.5-0.2,0.8-0.4c0.3-0.2,0.7-0.3,1-0.4
		c0.4-0.2,0.8-0.2,1.2-0.3c0.3-0.1,0.5-0.1,0.7-0.2c0.2-0.1,0.5-0.2,0.7-0.3c0.3-0.2,0.7-0.3,1-0.5c0.3-0.1,0.7-0.2,1.1-0.3
		c0.3-0.1,0.5-0.1,0.8-0.2c0.5-0.2,0.9-0.1,1.3-0.1c0.3,0,0.5,0,0.6,0c0.1,0,0.3-0.2,0.5-0.3c0.3-0.3,0.7-0.6,1.2-0.8
		c0.3-0.1,0.7-0.2,1-0.3c0.3-0.1,0.6-0.2,0.8-0.2c0.4-0.1,0.7-0.2,1.1-0.3c0.3-0.1,0.5-0.1,0.8-0.2c0.4-0.1,0.7-0.1,1.1-0.2
		c0.3,0,0.5-0.1,0.8-0.1c0.4-0.1,0.9-0.1,1.2-0.1c0.3,0,0.5,0,0.7,0c0.6-0.2,1.2-0.3,1.9-0.5c0.1,0,0.3-0.2,0.5-0.3
		c0.3-0.2,0.7-0.5,1.2-0.6c0.3-0.1,0.7-0.1,1.1-0.2c0.3,0,0.6-0.1,0.8-0.1c0.4-0.1,0.8-0.1,1.2-0.1c0.3,0,0.5,0,0.7,0
		c0.3-0.1,0.5-0.1,0.8-0.2c0.3-0.1,0.7-0.2,1.1-0.3c0.1,0,0.3-0.2,0.5-0.3c0.3-0.2,0.7-0.5,1.2-0.6c0.4-0.1,0.8-0.1,1.2-0.1
		c0.3,0,0.5,0,0.8-0.1c0.5-0.1,0.9,0,1.3,0.1c0.2,0,0.5,0.1,0.6,0.1l1.9-0.3c0.2,0,0.5-0.1,0.7-0.2c0.3-0.1,0.7-0.3,1.1-0.3
		c0.2,0,0.4-0.1,0.7-0.2c0.3-0.1,0.7-0.3,1.1-0.4c0.3,0,0.6-0.1,0.9-0.2c0.3-0.1,0.7-0.1,1-0.2c0.5-0.1,0.9,0,1.3,0
		c0.3,0,0.5,0.1,0.7,0c0.4-0.1,0.8,0,1.1,0c0.3,0,0.6,0,0.8,0c0.6-0.1,1.3-0.2,1.9-0.2c0.2,0,0.4-0.1,0.6-0.2
		c0.4-0.2,0.8-0.4,1.2-0.4c0.5-0.1,0.9,0,1.3,0.1c0.2,0.1,0.5,0.1,0.6,0.1c0.1,0,0.3-0.2,0.5-0.3c0.4-0.2,0.8-0.5,1.3-0.5
		c0.5-0.1,1,0.1,1.4,0.2c0.2,0.1,0.5,0.1,0.6,0.1c0.1,0,0.4-0.1,0.6-0.2c0.4-0.2,0.8-0.4,1.3-0.5c0.3,0,0.6-0.1,0.9-0.1
		c0.3,0,0.7-0.1,1-0.1c0.4,0,0.8,0,1.1,0c0.3,0,0.5,0,0.8,0c0.5,0,0.9,0.1,1.3,0.2c0.2,0.1,0.5,0.1,0.6,0.1c0.3,0,0.6-0.1,0.8-0.1
		c0.3-0.1,0.7-0.1,1-0.1c0.2,0,0.4-0.1,0.6-0.2c0.4-0.1,0.8-0.3,1.2-0.3c0.5,0,1,0.1,1.4,0.3c0.2,0.1,0.5,0.2,0.6,0.2
		c0.3,0,0.5,0,0.8-0.1c0.4,0,0.8-0.1,1.2-0.1c0.1,0,0.3-0.1,0.5-0.2c0.4-0.2,0.8-0.4,1.4-0.4c0.5,0,0.9,0.1,1.3,0.2
		c0.3,0.1,0.5,0.2,0.7,0.1c0.3,0,0.6,0,0.9-0.1c0.3,0,0.7-0.1,1.1-0.1c0.4,0,0.8,0.1,1.1,0.1c0.3,0,0.5,0.1,0.8,0.1
		c0.1,0,0.4-0.1,0.6-0.2c0.4-0.2,0.8-0.3,1.3-0.4c0.5,0,1,0.2,1.4,0.4c0.2,0.1,0.4,0.2,0.5,0.2c0.3,0,0.5,0,0.8-0.1
		c0.3-0.1,0.7-0.1,1.1-0.1c0.2,0,0.4-0.1,0.6-0.2c0.4-0.1,0.8-0.3,1.3-0.3c0.5,0,0.9,0.1,1.3,0.3c0.2,0.1,0.5,0.2,0.6,0.2
		c0.2,0,0.5,0,0.7,0c0.4,0,0.8,0,1.2,0c0.2,0,0.5,0,0.7,0c0.4,0,0.8,0,1.1,0l1.9,0.1c0.3,0,0.6,0,0.9,0c0.4,0,0.7,0,1.1,0
		c0.5,0,0.9,0.1,1.2,0.3c0.3,0.1,0.5,0.2,0.7,0.2c0.2,0,0.5,0,0.8-0.1c0.3-0.1,0.7-0.1,1.2-0.1c0.2,0,0.5,0,0.8-0.1
		c0.4,0,0.8-0.1,1.2-0.1c0.3,0,0.6,0,0.9,0c0.3,0,0.7,0,1,0c0.4,0,0.7,0.1,1.1,0.2c0.3,0.1,0.5,0.1,0.8,0.1c0.5,0,0.9,0.2,1.3,0.4
		c0.2,0.1,0.5,0.2,0.6,0.2c0.1,0,0.3-0.1,0.5-0.2c0.4-0.1,0.9-0.3,1.4-0.3c0.4,0,0.8,0.1,1.1,0.2c0.2,0.1,0.5,0.1,0.7,0.1
		c0.4,0,0.8,0.2,1.2,0.3c0.3,0.1,0.5,0.2,0.7,0.2c0.1,0,0.4-0.1,0.6-0.1c0.4-0.1,0.8-0.3,1.4-0.2c0.5,0,0.8,0.2,1.2,0.3
		c0.2,0.1,0.5,0.2,0.7,0.2c0.4,0,0.8,0.1,1.2,0.1c0.2,0,0.5,0.1,0.7,0.1c0.3,0,0.6,0.1,0.9,0.1c0.3,0,0.6,0.1,1,0.1
		c0.3,0,0.7,0.1,1,0.1c0.3,0,0.6,0.1,0.9,0.1c0.4,0,0.8,0.2,1.1,0.2c0.3,0.1,0.5,0.2,0.8,0.2c0.1,0,0.4-0.1,0.5-0.1
		c0.4-0.1,0.9-0.3,1.5-0.2c0.5,0.1,1,0.4,1.3,0.6c0.1,0.1,0.4,0.3,0.5,0.3c0.1,0,0.3-0.1,0.5-0.2c0.4-0.2,0.9-0.3,1.5-0.3
		c0.4,0.1,0.8,0.2,1.1,0.3c0.3,0.1,0.5,0.2,0.7,0.2c0.4,0.1,0.8,0.2,1.2,0.4c0.2,0.1,0.5,0.2,0.7,0.2c0.2,0,0.4,0,0.7,0
		c0.4,0,0.8-0.1,1.2,0c0.3,0.1,0.7,0.1,1,0.2c0.3,0.1,0.6,0.1,0.8,0.2c0.2,0,0.5,0,0.8,0c0.4,0,0.7,0,1.2,0.1
		c0.4,0.1,0.8,0.2,1.1,0.4c0.2,0.1,0.5,0.2,0.7,0.3c0.3,0.1,0.6,0.1,0.9,0.2c0.3,0,0.7,0.1,1,0.2c0.4,0.1,0.7,0.2,1.1,0.3
		c0.3,0.1,0.5,0.2,0.8,0.2c0.3,0.1,0.6,0.1,0.9,0.1c0.3,0.1,0.7,0.1,1,0.2c0.3,0.1,0.6,0.1,0.9,0.2c0.3,0.1,0.6,0.1,1,0.2
		c0.3,0.1,0.5,0.1,0.8,0.1c0.3,0,0.7,0.1,1.1,0.2c0.4,0.1,0.7,0.2,1.1,0.4c0.2,0.1,0.5,0.2,0.7,0.3l0.6,0.2c0.4,0.1,0.8,0.2,1.2,0.3
		c0.3,0.1,0.5,0.1,0.8,0.1c0.4,0,0.7,0.1,1.1,0.2c0.5,0.1,0.9,0.4,1.2,0.6c0.2,0.1,0.4,0.3,0.6,0.3c0.3,0.1,0.6,0.2,0.8,0.2
		c0.3,0.1,0.7,0.2,1,0.3c0.2,0.1,0.5,0.1,0.7,0.2c0.4,0.1,0.7,0.1,1.1,0.3c0.2,0.1,0.4,0.1,0.7,0.1c0.4,0,0.8,0,1.2,0.2
		c0.4,0.1,0.8,0.4,1.1,0.6c0.2,0.1,0.4,0.3,0.6,0.3c0.3,0.1,0.6,0.2,0.9,0.3c0.3,0.1,0.6,0.2,0.9,0.3c0.2,0.1,0.5,0.1,0.8,0.2
		c0.4,0.1,0.7,0.1,1.1,0.3c0.4,0.2,0.8,0.4,1.1,0.7c0.2,0.2,0.4,0.3,0.6,0.4c0.4,0.2,0.7,0.4,1,0.6c0.2,0.1,0.4,0.3,0.6,0.4
		c0.4,0.2,0.8,0.4,1.2,0.5l0.5,0.3c0.1,0.1,0.4,0.1,0.6,0.1c0.4,0,0.8,0.1,1.3,0.3c0.4,0.2,0.7,0.4,1,0.5c0.2,0.1,0.5,0.3,0.7,0.4
		l0.6,0.3c0.4,0.2,0.8,0.4,1.1,0.6c0.4,0.2,0.7,0.5,1,0.8c0.2,0.2,0.4,0.4,0.5,0.4l-1,1.7c-0.4-0.2-0.6-0.5-0.9-0.7
		c-0.2-0.2-0.4-0.4-0.6-0.5c-0.3-0.2-0.7-0.4-1.1-0.6l-0.6-0.3c-0.3-0.1-0.5-0.3-0.7-0.4c-0.3-0.2-0.6-0.3-0.9-0.5
		c-0.1-0.1-0.4-0.1-0.6-0.1c-0.4,0-0.8-0.1-1.3-0.3l-0.5-0.3c-0.4-0.2-0.7-0.4-1.1-0.5c-0.4-0.2-0.7-0.4-0.9-0.5
		c-0.2-0.2-0.5-0.3-0.7-0.4c-0.4-0.2-0.7-0.4-1-0.6c-0.2-0.2-0.4-0.3-0.6-0.4c-0.2-0.1-0.5-0.1-0.8-0.2c-0.3-0.1-0.7-0.1-1.1-0.3
		c-0.3-0.1-0.6-0.2-0.9-0.3c-0.3-0.1-0.6-0.2-0.9-0.3c-0.4-0.1-0.7-0.3-1-0.5c-0.2-0.2-0.5-0.3-0.7-0.4c-0.2-0.1-0.4-0.1-0.7-0.1
		c-0.4,0-0.8,0-1.2-0.2c-0.3-0.1-0.5-0.1-0.9-0.2c-0.3-0.1-0.7-0.1-1-0.2c-0.3-0.1-0.6-0.2-0.9-0.3c-0.3-0.1-0.6-0.2-0.9-0.3
		c-0.5-0.1-0.8-0.4-1.1-0.6c-0.2-0.1-0.4-0.3-0.6-0.3c-0.2-0.1-0.5-0.1-0.8-0.1c-0.4,0-0.7-0.1-1.1-0.2c-0.4-0.1-0.8-0.2-1.2-0.3
		l-0.6-0.2c-0.3-0.1-0.7-0.2-1-0.4c-0.3-0.1-0.5-0.2-0.8-0.3c-0.3-0.1-0.5-0.1-0.8-0.1c-0.3,0-0.7-0.1-1.1-0.2
		c-0.3-0.1-0.6-0.1-0.9-0.2c-0.3-0.1-0.6-0.1-1-0.2c-0.3-0.1-0.6-0.1-0.9-0.2c-0.3-0.1-0.6-0.1-1-0.2c-0.4-0.1-0.7-0.2-1-0.3
		c-0.3-0.1-0.6-0.2-0.9-0.3c-0.3-0.1-0.6-0.1-0.9-0.2c-0.3,0-0.7-0.1-1-0.2c-0.4-0.1-0.8-0.2-1.1-0.4c-0.2-0.1-0.5-0.2-0.7-0.3
		c-0.2,0-0.5,0-0.7,0c-0.4,0-0.8,0-1.2-0.1c-0.3-0.1-0.6-0.1-0.9-0.2c-0.3-0.1-0.6-0.1-1-0.2c-0.2,0-0.4,0-0.7,0
		c-0.4,0-0.8,0.1-1.2,0c-0.4-0.1-0.8-0.2-1.1-0.4c-0.3-0.1-0.5-0.2-0.7-0.2c-0.4-0.1-0.8-0.2-1.1-0.3c-0.3-0.1-0.5-0.2-0.7-0.2
		c-0.1,0-0.3,0.1-0.5,0.2c-0.4,0.2-0.9,0.3-1.5,0.3c-0.5-0.1-1-0.4-1.3-0.6c-0.1-0.1-0.4-0.3-0.5-0.3c-0.1,0-0.4,0.1-0.6,0.1
		c-0.4,0.1-0.9,0.3-1.4,0.2c-0.4,0-0.8-0.2-1.1-0.2c-0.3-0.1-0.5-0.2-0.8-0.2c-0.3,0-0.6-0.1-0.9-0.1c-0.3,0-0.6-0.1-1-0.1
		c-0.3,0-0.6-0.1-0.9-0.1c-0.3,0-0.6-0.1-1-0.1c-0.3,0-0.5-0.1-0.8-0.1c-0.4-0.1-0.7-0.1-1.1-0.1c-0.5,0-0.8-0.2-1.2-0.3
		c-0.2-0.1-0.5-0.2-0.7-0.2c-0.1,0-0.4,0.1-0.6,0.1c-0.4,0.1-0.8,0.3-1.4,0.2c-0.4,0-0.8-0.2-1.2-0.3c-0.3-0.1-0.5-0.2-0.7-0.2
		c-0.4,0-0.7-0.1-1-0.2c-0.3-0.1-0.6-0.1-0.8-0.1c-0.1,0-0.4,0.1-0.6,0.2c-0.4,0.1-0.8,0.3-1.4,0.3c-0.5,0-0.9-0.2-1.2-0.4
		c-0.2-0.1-0.5-0.2-0.6-0.2c-0.4,0-0.7-0.1-1.1-0.2c-0.3-0.1-0.5-0.1-0.8-0.1c-0.3,0-0.6,0-0.9,0c-0.3,0-0.7,0-1,0
		c-0.2,0-0.5,0-0.8,0.1c-0.3,0-0.7,0.1-1.1,0.1c-0.2,0-0.5,0-0.8,0.1c-0.3,0.1-0.7,0.1-1.2,0.1c-0.5,0-0.9-0.1-1.2-0.3
		c-0.3-0.1-0.5-0.2-0.7-0.2c-0.3,0-0.6,0-0.9,0c-0.4,0-0.7,0-1.1,0l-1.9-0.1c-0.3,0-0.7,0-1,0c-0.3,0-0.6,0-0.8,0
		c-0.4,0-0.8,0-1.1,0c-0.3,0-0.5,0-0.8,0c-0.5,0-0.9-0.1-1.3-0.3c-0.2-0.1-0.5-0.2-0.6-0.2c-0.1,0-0.4,0.1-0.6,0.2
		c-0.4,0.1-0.8,0.3-1.3,0.3c-0.2,0-0.5,0.1-0.7,0.1c-0.4,0.1-0.8,0.1-1.2,0.1c-0.5,0-1-0.2-1.3-0.4c-0.2-0.1-0.4-0.2-0.5-0.2
		c-0.1,0-0.4,0.1-0.6,0.2c-0.4,0.2-0.8,0.3-1.3,0.4c-0.4,0-0.8,0-1.1-0.1c-0.3,0-0.5-0.1-0.8-0.1c-0.3,0-0.6,0-0.9,0.1
		c-0.3,0-0.7,0.1-1,0.1c-0.5,0-0.9-0.1-1.3-0.2c-0.2-0.1-0.5-0.2-0.6-0.1c-0.1,0-0.4,0.1-0.6,0.2c-0.4,0.2-0.8,0.4-1.3,0.4
		c-0.4,0-0.7,0.1-1,0.1c-0.3,0-0.6,0.1-0.9,0.1c-0.5,0-1-0.2-1.4-0.3c-0.2-0.1-0.4-0.2-0.5-0.2c-0.2,0-0.4,0.1-0.6,0.2
		c-0.4,0.1-0.8,0.3-1.2,0.3c-0.3,0-0.6,0.1-0.8,0.1c-0.3,0.1-0.7,0.1-1,0.1c-0.5,0-0.9-0.1-1.2-0.2c-0.2-0.1-0.5-0.1-0.7-0.1
		c-0.4,0-0.7,0-1,0c-0.3,0-0.6,0-0.9,0c-0.3,0-0.6,0.1-1,0.1c-0.3,0-0.6,0.1-0.9,0.1c-0.1,0-0.4,0.1-0.6,0.2
		c-0.4,0.2-0.8,0.4-1.3,0.5c-0.5,0.1-1-0.1-1.4-0.2c-0.2-0.1-0.5-0.1-0.6-0.1c-0.1,0-0.3,0.2-0.5,0.3c-0.4,0.2-0.8,0.5-1.3,0.5
		c-0.5,0.1-0.9,0-1.3-0.1c-0.2-0.1-0.5-0.1-0.6-0.1c-0.2,0-0.4,0.1-0.6,0.2c-0.4,0.2-0.8,0.4-1.2,0.4c-0.6,0.1-1.2,0.1-1.9,0.2
		c-0.4,0.1-0.8,0-1.2,0c-0.3,0-0.5,0-0.8,0c-0.5,0.1-0.9,0-1.3,0c-0.3,0-0.5-0.1-0.7,0c-0.3,0-0.6,0.1-0.9,0.2
		c-0.3,0.1-0.6,0.1-1,0.2c-0.2,0-0.4,0.1-0.7,0.2c-0.3,0.1-0.7,0.3-1.1,0.4c-0.2,0-0.5,0.1-0.7,0.2c-0.3,0.1-0.7,0.3-1.1,0.3
		l-1.9,0.3c-0.5,0.1-0.9,0-1.3-0.1c-0.2,0-0.5-0.1-0.6-0.1c-0.3,0.1-0.7,0.1-1,0.1c-0.3,0-0.6,0-0.8,0.1c-0.1,0-0.4,0.2-0.6,0.3
		c-0.3,0.2-0.7,0.5-1.2,0.6c-0.3,0.1-0.6,0.2-0.8,0.2c-0.3,0.1-0.7,0.2-1,0.3c-0.4,0.1-0.8,0.1-1.2,0.1c-0.3,0-0.5,0-0.7,0
		c-0.4,0.1-0.7,0.1-1,0.2c-0.3,0-0.6,0.1-0.8,0.1c-0.1,0-0.3,0.2-0.5,0.3c-0.3,0.2-0.7,0.5-1.2,0.6c-0.6,0.1-1.2,0.3-1.8,0.5
		c-0.4,0.1-0.9,0.1-1.2,0.1c-0.3,0-0.5,0-0.7,0c-0.4,0.1-0.7,0.1-1.1,0.2c-0.3,0-0.5,0.1-0.8,0.1c-0.3,0.1-0.6,0.1-0.9,0.2
		c-0.3,0.1-0.6,0.1-0.9,0.2c-0.3,0.1-0.6,0.2-0.9,0.3c-0.3,0.1-0.7,0.2-1,0.3c-0.1,0-0.3,0.2-0.5,0.4c-0.3,0.3-0.7,0.6-1.1,0.7
		c-0.5,0.2-0.9,0.1-1.3,0.1c-0.2,0-0.5,0-0.6,0c-0.3,0.1-0.6,0.2-0.8,0.3c-0.3,0.1-0.6,0.2-1,0.3c-0.3,0.1-0.5,0.2-0.8,0.4
		c-0.3,0.2-0.6,0.3-0.9,0.4c-0.4,0.1-0.7,0.2-1.1,0.3c-0.3,0.1-0.6,0.1-0.8,0.2c-0.3,0.1-0.6,0.3-0.9,0.4c-0.3,0.1-0.6,0.3-0.8,0.4
		c-0.1,0-0.3,0.3-0.4,0.4c-0.3,0.3-0.6,0.7-1.1,0.9c-0.4,0.2-0.7,0.3-1,0.3c-0.3,0.1-0.6,0.2-0.8,0.3c-0.4,0.2-0.8,0.3-1.1,0.4
		c-0.3,0.1-0.5,0.1-0.7,0.2c-0.3,0.2-0.6,0.3-1,0.4c-0.3,0.1-0.5,0.2-0.8,0.3c-0.3,0.2-0.6,0.4-0.9,0.6c-0.2,0.1-0.5,0.3-0.7,0.4
		c-0.2,0.1-0.4,0.3-0.6,0.5C2.4,63.7,2.1,64,1.8,64.2z"/>
</g>
<g>
	<defs>
		<rect id="SVGID_1_" x="18" y="17" width="153.4" height="20"/>
	</defs>
	<clipPath id="SVGID_2_">
		<use xlink:href="#SVGID_1_"  style="overflow:visible;"/>
	</clipPath>
	<g class="st1">
		<path d="M26.2,35.6l-6,1.4L18,27.6l1.7-0.4l1.9,8l4.3-1L26.2,35.6z"/>
		<path d="M26.2,32c-0.5-2.3,0.6-3.9,2.6-4.3c2-0.4,3.6,0.7,4.1,2.9c0.5,2.3-0.6,3.9-2.6,4.3C28.2,35.3,26.6,34.2,26.2,32z
			 M31.2,30.9c-0.3-1.5-1.2-2.2-2.2-2c-1,0.2-1.5,1.2-1.2,2.7c0.3,1.5,1.2,2.2,2.2,2S31.5,32.4,31.2,30.9z"/>
		<path d="M34.6,34.4l1.6-0.3c0.3,0.5,0.9,0.8,1.7,0.6c1.1-0.2,1.6-0.9,1.4-1.8l-0.2-1.2h0c-0.2,0.8-1,1.5-2,1.6
			c-1.7,0.3-3.1-0.8-3.5-3c-0.4-2.2,0.5-3.8,2.3-4.1c1-0.2,1.9,0.2,2.4,0.9h0L38.2,26l1.6-0.3l1.2,6.9c0.3,1.7-0.8,3-2.9,3.3
			C36.4,36.2,35,35.6,34.6,34.4z M38.8,29.5c-0.3-1.4-1.1-2.1-2.1-1.9c-1,0.2-1.5,1.2-1.3,2.5c0.3,1.4,1.1,2.1,2.1,1.9
			C38.5,31.8,39,30.8,38.8,29.5z"/>
		<path d="M44.2,32.2l-1.7,0.3l-1.4-9.5l3.8-0.6c2.1-0.3,3.5,0.7,3.7,2.5c0.2,1.3-0.3,2.4-1.4,3l2.7,3.5l-2,0.3l-2.4-3.3l-1.9,0.3
			L44.2,32.2z M43.5,27.3l1.9-0.3c1.1-0.2,1.6-0.9,1.5-1.9c-0.1-1-0.9-1.5-2-1.4L43,24L43.5,27.3z"/>
		<path d="M56.7,28.4c0,1.3-1.2,2.4-2.8,2.6c-2.1,0.3-3.6-1-3.8-3.2c-0.3-2.2,0.8-3.8,2.9-4.1c2-0.3,3.4,1,3.7,3.1l0.1,0.5L51.7,28
			l0,0.1c0.1,1.1,0.9,1.8,2,1.7c0.8-0.1,1.3-0.5,1.4-1.2L56.7,28.4z M51.6,26.9l3.3-0.4c-0.1-1-0.9-1.6-1.8-1.5
			C52.1,25.1,51.5,25.9,51.6,26.9z"/>
		<path d="M57.3,23.3l1.6-0.2l0.1,1.2h0c0.3-0.9,1-1.5,2.1-1.6c1.6-0.2,2.5,0.8,2.7,2.4l0.5,4.6l-1.7,0.2l-0.4-4.2
			c-0.1-1-0.6-1.5-1.6-1.4c-0.9,0.1-1.5,0.8-1.4,1.9l0.4,4.1l-1.7,0.2L57.3,23.3z"/>
		<path d="M65,26.1c-0.2-2.3,1.1-3.8,3.1-4c2.1-0.2,3.5,1.1,3.7,3.4s-1.1,3.8-3.1,4C66.7,29.7,65.2,28.4,65,26.1z M70.2,25.7
			c-0.1-1.5-0.9-2.3-1.9-2.2c-1.1,0.1-1.7,1-1.6,2.5c0.1,1.5,0.9,2.3,1.9,2.2C69.7,28.1,70.3,27.2,70.2,25.7z"/>
		<path d="M76.9,28.8l-1.8,0.1L72.2,22l1.8-0.1l2,5.4h0l1.3-5.6l1.7-0.1L76.9,28.8z"/>
		<path d="M86.3,26.3c-0.2,1.3-1.4,2.3-3,2.4c-2.1,0.1-3.5-1.3-3.6-3.5c-0.1-2.3,1.2-3.8,3.2-3.8c2-0.1,3.3,1.3,3.4,3.4l0,0.5
			l-5,0.2v0.1c0,1.1,0.8,1.9,1.9,1.8c0.8,0,1.3-0.4,1.5-1L86.3,26.3z M81.4,24.3l3.3-0.1c-0.1-1-0.7-1.7-1.7-1.6
			C82.1,22.6,81.4,23.4,81.4,24.3z"/>
		<path d="M93.2,22.5v-1c-0.8,0.5-1.6,1.1-2.4,1.5c-0.2-0.3-0.5-0.8-0.8-1.1c2.4-1.1,4.7-3.2,5.7-4.9l1.8,0.1c0,0.1-0.1,0.2-0.3,0.2
			c1.3,1.8,3.7,3.4,5.8,4.3c-0.3,0.3-0.6,0.8-0.8,1.2c-0.8-0.4-1.7-0.9-2.5-1.4v1.1L93.2,22.5z M90.8,25.2v-1.2l11.5-0.1v1.2l-6.5,0
			l0.3,0.1c-0.1,0.1-0.2,0.2-0.4,0.2c-0.3,0.8-0.8,1.8-1.3,2.7c1.6,0,3.4-0.1,5.1-0.2c-0.5-0.6-1.1-1.2-1.7-1.7l1.1-0.6
			c1.3,1.1,2.6,2.5,3.3,3.6l-1.2,0.8c-0.2-0.3-0.4-0.6-0.6-0.9c-3.2,0.2-6.6,0.4-8.7,0.5c0,0.1-0.1,0.2-0.2,0.2l-0.5-1.5
			c0.6,0,1.3,0,2-0.1c0.5-0.9,1-2,1.3-3L90.8,25.2z M99.6,21.2c-1.3-0.9-2.4-1.9-3.2-2.9c-0.7,1-1.7,2-2.9,3L99.6,21.2z"/>
		<path d="M114.6,27.9l-2.7-0.1c1.4,0.5,3.1,1.1,4.1,1.6l-1.2,0.9c-1-0.5-2.9-1.3-4.4-1.8l1.1-0.7l-4-0.1l1,0.7
			c-0.1,0-0.1,0.1-0.3,0.1c-0.9,0.5-2.7,1.2-4.1,1.5c-0.2-0.3-0.7-0.7-0.9-1c1.3-0.3,2.9-0.8,3.9-1.3l-2.4-0.1l0.2-6l9.9,0.3
			L114.6,27.9z M114.2,17.9l-0.1,3.3l-8.3-0.3l0.1-3.3L114.2,17.9z M106,25.8l0,0.8l7.3,0.3l0-0.8L106,25.8z M106.1,24.2l0,0.8
			l7.3,0.3l0-0.8L106.1,24.2z M106.2,22.5l0,0.8l7.3,0.3l0-0.8L106.2,22.5z M112.7,20l0-1.2l-5.7-0.2l0,1.2L112.7,20z"/>
		<path d="M123.7,20.8c0,0.1-0.2,0.2-0.4,0.2c-0.8,4.5-2.5,7.5-4.8,7.4c-1.3-0.1-2.3-1.4-2.1-3.6c0.2-3.4,3.1-5.9,6.6-5.6
			c3.9,0.3,5.6,2.8,5.4,5.6c-0.2,3.2-2.1,4.7-5.5,5.3c-0.2-0.3-0.5-0.8-0.8-1.2c3.2-0.4,4.7-1.8,4.9-4.2c0.1-2.2-1.2-4.1-4.1-4.3
			c-0.2,0-0.4,0-0.6,0L123.7,20.8z M122,20.5c-2.4,0.3-4.1,2.2-4.2,4.4c-0.1,1.3,0.3,2.2,1,2.2C120.2,27.2,121.4,23.9,122,20.5z"/>
		<path d="M131.6,21.8c1.1,0.6,2.3,1.4,3.5,2.2c0.9-1.1,2-2.7,2.8-4.4l1.7,0.9c-0.1,0.1-0.3,0.2-0.5,0.1c-0.8,1.3-1.8,2.9-2.8,4.1
			c0.9,0.7,1.8,1.5,2.6,2.3l-1.1,1.2c-0.6-0.7-1.5-1.5-2.5-2.3c-1.6,1.8-3.7,3.5-6.1,4.8c-0.2-0.3-0.7-0.8-1-1.1
			c2.3-1.1,4.5-2.8,6-4.5c-1.1-0.8-2.3-1.6-3.4-2.3L131.6,21.8z"/>
		<path d="M141.7,27.8l0.9-6.6l1.7,0.3c0,0.1-0.2,0.2-0.4,0.2L143,28L141.7,27.8z M150.5,21.6c0,0.1-0.1,0.2-0.4,0.2l-0.6,4.3
			c-0.4,2.9-1.7,5.4-5.8,6.4c-0.2-0.3-0.6-0.9-0.9-1.2c3.9-0.9,4.9-3,5.3-5.4l0.7-4.6L150.5,21.6z"/>
		<path d="M153.7,25.5c0.2,0.9,0.4,2.2,0.5,3.1l-1.1,0.1c0-0.9-0.2-2.1-0.4-3L153.7,25.5z M161.6,27.1c-0.1,0.1-0.2,0.1-0.3,0.1
			c-1.8,3.8-4.2,5.8-7.6,6.5c-0.1-0.3-0.4-0.7-0.6-1c3.2-0.6,5.6-2.5,7.2-6.3L161.6,27.1z M157.1,25.5c0.1,0.9,0.2,2.3,0.1,3.1
			l-1.1,0c0-0.9,0-2.2-0.1-3.1L157.1,25.5z"/>
		<path d="M170.3,32.7c-1.1-1-2.7-2.2-4-3l-1.4,6.5l-1.4-0.3l2.5-11.7l1.8,0.5c0,0.1-0.2,0.2-0.5,0.2l-0.8,3.8l0.4-0.3
			c1.4,0.9,3.3,2.2,4.5,3.2L170.3,32.7z"/>
	</g>
</g>
</svg>
