<?xml version="1.0" standalone="no"?>
<!DOCTYPE svg PUBLIC "-//W3C//DTD SVG 20010904//EN"
 "http://www.w3.org/TR/2001/REC-SVG-20010904/DTD/svg10.dtd">
<svg version="1.0" xmlns="http://www.w3.org/2000/svg"
 width="260.000000pt" height="260.000000pt" viewBox="0 0 260.000000 260.000000"
 preserveAspectRatio="xMidYMid meet">
<metadata>
Created by potrace 1.11, written by Peter Selinger 2001-2013
</metadata>
<g transform="translate(0.000000,260.000000) scale(0.100000,-0.100000)"
fill="#000000" stroke="none">
<path d="M1150 2593 c-302 -50 -515 -146 -713 -323 -290 -259 -441 -608 -432
-1000 4 -151 4 -155 35 -286 81 -344 331 -663 656 -836 57 -31 217 -94 255
-102 13 -2 47 -9 74 -16 96 -22 131 -25 285 -24 169 0 262 15 405 64 417 143
729 478 845 908 6 24 13 57 15 75 3 18 9 55 14 82 10 52 8 307 -3 360 -4 17
-11 55 -17 85 -27 137 -98 302 -185 435 -202 306 -519 510 -887 571 -41 7
-315 13 -347 7z m330 -87 c14 -3 48 -10 75 -15 134 -25 323 -109 454 -201 94
-66 222 -197 289 -292 253 -367 289 -845 91 -1241 -132 -265 -366 -481 -640
-590 -74 -29 -203 -64 -276 -74 -92 -13 -315 -7 -403 11 -413 84 -741 356
-904 750 -24 57 -65 213 -73 276 -9 72 -9 250 -1 325 42 372 286 728 629 917
113 63 294 121 414 134 28 3 51 7 53 9 5 5 266 -3 292 -9z"/>
<path d="M1160 2383 c-119 -12 -308 -79 -429 -152 -123 -74 -289 -231 -332
-313 -7 -13 -16 -25 -20 -28 -4 -3 -28 -46 -52 -95 -50 -102 -79 -185 -102
-295 -16 -77 -23 -286 -11 -329 3 -9 7 -38 11 -64 3 -27 17 -85 32 -130 183
-582 796 -899 1377 -711 43 14 111 41 149 61 l70 35 -410 410 -411 411 -72
-73 c-40 -39 -89 -82 -109 -96 -88 -58 -215 -66 -313 -22 -83 38 -167 129
-183 196 -3 10 -9 34 -14 54 -32 134 50 293 187 360 59 29 76 33 148 32 110 0
167 -29 275 -136 l82 -80 410 410 410 410 -69 35 c-184 92 -405 131 -624 110z"/>
<path d="M1741 1891 c-138 -138 -251 -255 -251 -259 0 -4 21 -15 46 -26 28
-11 80 -51 134 -103 l88 -83 231 231 231 231 -40 57 c-39 54 -109 132 -162
179 l-26 24 -251 -251z"/>
<path d="M2085 1510 l-210 -210 210 -210 c115 -115 213 -210 216 -210 10 0 57
157 70 233 21 124 16 299 -11 423 -15 67 -53 184 -60 184 -3 0 -100 -94 -215
-210z"/>
<path d="M646 1472 c-83 -10 -154 -103 -142 -188 16 -117 138 -187 240 -139
17 8 63 47 101 85 l69 70 -69 71 c-91 92 -126 110 -199 101z"/>
<path d="M1360 1470 c-59 -17 -89 -40 -114 -92 -57 -121 20 -248 150 -248 56
0 94 22 170 98 l72 71 -71 72 c-94 93 -143 117 -207 99z"/>
<path d="M1669 1095 c-53 -50 -105 -89 -133 -101 -25 -10 -46 -22 -46 -26 0
-4 113 -120 251 -258 l250 -251 37 33 c45 40 134 141 167 191 l24 35 -218 218
c-120 121 -224 224 -232 231 -11 9 -31 -5 -100 -72z"/>
</g>
</svg>
