<?xml version="1.0" standalone="no"?>
<!DOCTYPE svg PUBLIC "-//W3C//DTD SVG 20010904//EN"
 "http://www.w3.org/TR/2001/REC-SVG-20010904/DTD/svg10.dtd">
<svg version="1.0" xmlns="http://www.w3.org/2000/svg"
 width="260.000000pt" height="260.000000pt" viewBox="0 0 260.000000 260.000000"
 preserveAspectRatio="xMidYMid meet">
<metadata>
Created by potrace 1.11, written by Peter Selinger 2001-2013
</metadata>
<g transform="translate(0.000000,260.000000) scale(0.100000,-0.100000)"
fill="#000000" stroke="none">
<path d="M1041 2569 c-232 -53 -423 -148 -588 -294 -289 -254 -439 -580 -442
-965 -2 -171 15 -288 60 -424 148 -444 510 -764 978 -866 71 -15 119 -18 276
-16 105 2 204 7 220 10 130 30 239 68 348 124 356 181 605 509 687 906 20 98
26 388 10 463 -5 21 -12 54 -15 73 -25 146 -139 383 -252 525 -190 239 -442
392 -778 471 -16 4 -118 8 -225 9 -162 2 -209 -1 -279 -16z m434 -34 c539 -81
960 -481 1061 -1011 24 -128 24 -319 -1 -459 -88 -491 -506 -908 -995 -995
-36 -6 -76 -13 -90 -16 -50 -9 -237 -6 -316 5 -275 38 -507 155 -710 356 -450
447 -495 1141 -108 1647 180 234 466 409 759 464 107 20 298 25 400 9z"/>
<path d="M1158 2445 c-2 -2 -23 -6 -48 -10 -269 -38 -551 -208 -729 -439 -178
-231 -260 -535 -228 -844 16 -147 86 -340 172 -473 57 -88 115 -160 124 -155
3 3 6 239 6 525 0 416 2 521 12 521 7 0 32 -9 56 -19 64 -29 188 -72 195 -67
4 2 7 95 6 205 -1 111 1 201 3 201 2 0 30 -11 62 -25 63 -26 202 -67 208 -61
2 2 4 90 5 195 0 174 2 192 17 185 125 -52 254 -75 358 -62 52 7 149 35 216
63 16 7 17 -6 17 -189 0 -108 3 -196 8 -196 13 0 155 47 210 69 29 11 54 21
56 21 2 0 3 -91 3 -202 l0 -203 22 3 c22 3 149 48 211 75 l35 15 -1 -534 0
-534 29 27 c66 64 180 261 221 384 142 427 32 883 -289 1201 -157 156 -376
269 -600 311 -68 13 -347 22 -357 12z"/>
<path d="M1455 2044 c-71 -16 -236 -19 -285 -4 -80 23 -78 27 -76 -127 l1
-136 25 -5 c32 -7 337 -7 370 0 l25 5 1 141 c1 78 1 141 0 141 0 -1 -28 -8
-61 -15z"/>
<path d="M810 1606 l0 -152 83 -17 c122 -25 112 -32 110 83 -1 55 -2 119 -2
143 l-1 42 -63 16 c-34 10 -77 22 -94 27 l-33 11 0 -153z"/>
<path d="M1705 1730 l-90 -26 -3 -142 c-2 -124 -1 -142 13 -142 25 0 159 31
168 39 4 4 6 72 5 152 l-3 144 -90 -25z"/>
<path d="M1096 1681 c-2 -3 -3 -67 -2 -141 l1 -135 50 -6 c60 -7 349 -4 363 5
5 3 9 67 8 143 -1 132 -2 138 -21 135 -47 -8 -304 -9 -348 -3 -26 5 -49 5 -51
2z"/>
<path d="M540 930 c0 -476 1 -514 18 -527 52 -42 192 -129 256 -158 85 -40
227 -83 306 -93 30 -4 123 -7 205 -6 118 1 169 5 240 23 162 39 325 117 444
211 l51 40 0 511 c0 405 -3 510 -12 506 -7 -2 -46 -15 -85 -28 -65 -20 -73
-26 -74 -48 0 -15 -1 -221 -1 -459 l-1 -433 -46 3 -45 3 0 442 0 443 -25 -6
c-14 -3 -55 -10 -91 -16 -36 -6 -67 -13 -70 -15 -3 -3 -5 -172 -5 -377 -1
-204 -4 -377 -8 -382 -5 -9 -35 -10 -79 -5 -4 1 -7 160 -7 354 0 193 0 361 0
372 -1 19 -8 20 -211 20 l-210 1 0 -373 c0 -205 -3 -373 -7 -374 -42 -6 -76
-3 -80 8 -3 6 -6 180 -6 385 l-2 372 -60 13 c-100 20 -125 23 -126 15 0 -4 -2
-203 -2 -442 l-2 -435 -45 -3 -45 -3 0 451 c0 248 -2 455 -5 459 -3 5 -36 18
-75 31 -38 13 -76 25 -82 28 -10 3 -13 -103 -13 -508z"/>
</g>
</svg>
