<?xml version="1.0" standalone="no"?>
<!DOCTYPE svg PUBLIC "-//W3C//DTD SVG 20010904//EN"
 "http://www.w3.org/TR/2001/REC-SVG-20010904/DTD/svg10.dtd">
<svg version="1.0" xmlns="http://www.w3.org/2000/svg"
 width="255.000000pt" height="255.000000pt" viewBox="0 0 255.000000 255.000000"
 preserveAspectRatio="xMidYMid meet">
<metadata>
Created by potrace 1.11, written by Peter Selinger 2001-2013
</metadata>
<g transform="translate(0.000000,255.000000) scale(0.100000,-0.100000)"
fill="#000000" stroke="none">
<path d="M1100 2519 c-25 -4 -63 -10 -85 -14 -73 -12 -249 -75 -335 -121 -169
-90 -327 -226 -440 -379 -73 -99 -176 -312 -195 -403 -2 -9 -8 -38 -14 -64
-20 -85 -26 -152 -25 -278 4 -531 350 -1002 864 -1174 156 -52 256 -66 445
-61 129 3 179 8 260 29 365 91 661 320 832 642 44 83 106 249 117 315 3 18 9
45 12 59 10 41 14 332 4 375 -5 22 -11 54 -13 70 -24 153 -111 351 -221 499
-187 252 -483 441 -773 492 -13 2 -35 7 -50 10 -43 10 -333 12 -383 3z m403
-60 c122 -24 187 -45 292 -94 363 -168 622 -502 689 -890 17 -103 17 -298 0
-400 -77 -440 -404 -812 -834 -948 -126 -40 -229 -55 -375 -55 -541 1 -1006
341 -1169 857 -14 44 -28 101 -32 128 -3 26 -10 70 -14 97 -11 74 -4 251 15
341 51 249 157 447 335 625 185 185 404 299 662 345 106 19 324 16 431 -6z"/>
<path d="M1187 2393 c-2 -1 -25 -4 -52 -7 -169 -16 -372 -95 -522 -202 -197
-141 -354 -356 -422 -579 -88 -286 -52 -623 91 -874 38 -66 146 -211 158 -211
5 0 8 228 9 506 0 278 2 509 5 512 4 3 23 -3 44 -12 31 -15 198 -76 209 -76 2
0 3 90 3 200 l0 200 33 -14 c78 -35 229 -79 235 -69 4 6 7 92 6 191 l-1 179
60 -24 c152 -62 323 -62 465 -1 24 10 48 18 53 18 5 0 9 -79 9 -185 0 -153 2
-185 14 -185 20 0 190 56 226 75 16 8 31 12 31 8 1 -5 2 -93 3 -198 l1 -190
25 4 c13 1 70 21 125 42 55 21 103 39 107 39 5 0 7 -230 5 -510 -1 -337 1
-509 8 -507 18 6 99 113 146 193 100 172 139 307 146 512 6 163 -5 249 -49
390 -128 406 -503 715 -933 768 -57 7 -233 12 -238 7z"/>
<path d="M1070 1877 l0 -135 38 -7 c86 -18 349 -11 369 9 5 5 13 266 8 266 0
0 -34 -6 -75 -14 -69 -14 -218 -15 -265 -3 -11 3 -32 8 -47 12 l-28 7 0 -135z"/>
<path d="M799 1719 c-1 -2 -2 -68 -3 -147 -1 -119 1 -143 14 -147 41 -13 164
-35 168 -30 3 3 6 66 6 140 l1 136 -25 6 c-32 7 -131 34 -147 40 -7 3 -14 4
-14 2z"/>
<path d="M1695 1705 c-22 -8 -59 -19 -82 -25 l-43 -11 0 -139 c0 -160 -11
-148 110 -122 l75 17 3 148 c3 162 6 155 -63 132z"/>
<path d="M1074 1646 c-3 -7 -3 -70 -2 -141 l3 -128 25 -3 c41 -5 333 -4 355 0
11 3 22 5 25 5 3 1 5 63 5 139 l0 138 -45 -7 c-69 -10 -259 -11 -313 0 -36 6
-50 6 -53 -3z"/>
<path d="M530 924 l0 -494 51 -40 c384 -304 963 -312 1366 -19 l73 52 0 498 0
498 -88 -30 -87 -29 0 -438 0 -437 -42 -3 -43 -3 0 430 c0 237 -1 431 -2 431
-2 0 -43 -9 -93 -19 l-90 -18 -3 -364 c-1 -238 -6 -365 -13 -369 -8 -6 -44 -6
-69 -1 -3 1 -5 162 -5 358 l0 358 -207 0 -208 1 0 -361 0 -361 -44 0 -43 1 1
368 c1 360 1 368 -19 372 -72 16 -161 32 -165 30 -3 -2 -5 -195 -5 -429 l0
-426 -42 0 -43 0 -2 442 -3 442 -40 12 c-22 7 -61 19 -87 27 l-48 15 0 -494z"/>
</g>
</svg>
