<svg width="50" height="31" viewBox="0 0 50 31" fill="none" xmlns="http://www.w3.org/2000/svg">
<path d="M0 0V30.29H50V0H0ZM50 7.37C46.7581 7.3416 43.5374 7.89364 40.49 9C43.59 10.92 46.57 13.82 46.57 17.49C46.57 22.34 42.19 26.04 37.37 26.04C32.55 26.04 28.31 22.34 28.31 17.49C28.31 13.82 31.15 10.92 34.24 9C31.2868 7.89184 28.1541 7.33922 25 7.37C21.8459 7.34014 18.7135 7.89273 15.76 9C18.86 10.92 21.7 13.82 21.7 17.49C21.7 22.34 17.46 26.04 12.64 26.04C7.82 26.04 3.36 22.34 3.36 17.49C3.36 13.86 6.42 11 9.51 9C6.46314 7.89175 3.24202 7.33966 0 7.37L0 4.71C4.35554 4.66743 8.66833 5.57162 12.64 7.36C16.5118 5.56904 20.7343 4.66375 25 4.71C29.2689 4.66394 33.4946 5.56919 37.37 7.36C41.3386 5.57304 45.6478 4.66888 50 4.71V7.37Z" fill="#231815"/>
<path d="M31.4099 17.47C31.4099 19.1011 32.0579 20.6654 33.2112 21.8187C34.3646 22.9721 35.9288 23.62 37.5599 23.62C39.191 23.62 40.7553 22.9721 41.9086 21.8187C43.062 20.6654 43.7099 19.1011 43.7099 17.47C43.7099 14.35 40.3899 11.86 37.5599 10.37C34.7399 11.86 31.4099 14.35 31.4099 17.47Z" fill="#231815"/>
<path d="M6.41992 17.5299C6.41967 18.3307 6.57969 19.1233 6.89056 19.8612C7.20142 20.5991 7.65684 21.2674 8.22998 21.8265C8.80312 22.3857 9.48237 22.8244 10.2277 23.117C10.9731 23.4096 11.7695 23.55 12.5699 23.5299C13.3704 23.55 14.1668 23.4096 14.9121 23.117C15.6575 22.8244 16.3367 22.3857 16.9099 21.8265C17.483 21.2674 17.9384 20.5991 18.2493 19.8612C18.5601 19.1233 18.7202 18.3307 18.7199 17.5299C18.7199 14.4199 15.3899 11.9299 12.5699 10.4399C9.73992 11.9299 6.41992 14.4199 6.41992 17.5299Z" fill="#231815"/>
</svg>
