<svg id="Layer_1" data-name="Layer 1" xmlns="http://www.w3.org/2000/svg" viewBox="0 0 120 20"><defs><style>.cls-1{fill:#58595b;}.cls-2{fill:#a97f5b;}</style></defs><title>chronicle-logo</title><polygon class="cls-1" points="100.93 5.8 100.12 5.8 100.12 14.42 106.97 14.42 106.97 13.63 100.93 13.63 100.93 5.8"/><path class="cls-1" d="M65.14,14.51a3.32,3.32,0,0,1-3.43-3.19V8.9a3.44,3.44,0,0,1,6.86,0v2.42A3.32,3.32,0,0,1,65.14,14.51Zm0-8A2.5,2.5,0,0,0,62.53,8.9v2.42a2.62,2.62,0,0,0,5.22,0V8.9A2.5,2.5,0,0,0,65.14,6.53Z"/><path class="cls-1" d="M114.46,6.57H117V5.8h-2.54a4.29,4.29,0,0,0-4.28,3.93h-1v.77h1a4.3,4.3,0,0,0,4.28,3.92H117v-.77h-2.54A3.53,3.53,0,0,1,111,10.5h5.37V9.73H111A3.53,3.53,0,0,1,114.46,6.57Z"/><path class="cls-1" d="M55.76,10.51h0v0a2.38,2.38,0,0,0,1.81-1.37,2.4,2.4,0,0,0,.2-1,2.3,2.3,0,0,0-.21-1A2.39,2.39,0,0,0,56,5.86l-.21-.05h-.06a2.22,2.22,0,0,0-.37,0H50.89v4h-1v.79h1V14.4h.8V10.51h3.16c.15.24.67,1.14,2.19,3.79l.08.15.7-.35ZM51.69,6.57H55.4A1.56,1.56,0,0,1,57,8.14v0a1.45,1.45,0,0,1,0,.3h0A1.56,1.56,0,0,1,55.4,9.71H51.69Z"/><rect class="cls-1" x="84.07" y="5.8" width="0.8" height="8.63"/><polygon class="cls-1" points="45.46 5.8 45.46 9.71 40.32 9.71 40.32 5.8 39.52 5.8 39.52 9.71 38.32 9.71 38.32 10.51 39.52 10.51 39.52 14.42 40.32 14.42 40.32 10.51 45.46 10.51 45.46 14.42 46.25 14.42 46.25 5.8 45.46 5.8"/><path class="cls-1" d="M34.94,14.42H32.4a4.31,4.31,0,1,1,0-8.62h2.54v.78H32.4a3.53,3.53,0,1,0,0,7.06h2.54Z"/><path class="cls-1" d="M95.87,14.42H93.32a4.31,4.31,0,1,1,0-8.62h2.55v.78H93.32a3.53,3.53,0,1,0,0,7.06h2.55Z"/><polygon class="cls-1" points="79.65 14.42 79.65 5.8 78.85 5.8 78.85 13.18 73.59 5.8 72.7 5.8 72.7 14.42 73.5 14.42 73.5 7.04 78.76 14.42 79.65 14.42"/><path class="cls-2" d="M13.1,19.71a9.58,9.58,0,1,1,9.59-9.58A9.59,9.59,0,0,1,13.1,19.71Zm0-18.8a9.22,9.22,0,1,0,9.22,9.22A9.24,9.24,0,0,0,13.1.91Z"/><path class="cls-2" d="M13.83,16.41c-.24,0-.46,0-.46.53s.22.52.46.52.45,0,.45-.52S14.07,16.41,13.83,16.41Z"/><path class="cls-2" d="M12.26,16.41c-.24,0-.45,0-.45.53s.21.52.45.52.46,0,.46-.52S12.5,16.41,12.26,16.41Z"/><path class="cls-2" d="M13.1,1.58a8.55,8.55,0,1,0,8.55,8.55A8.54,8.54,0,0,0,13.1,1.58Zm-4.88,11a3.32,3.32,0,0,1-.54-1.86A4.39,4.39,0,0,1,8,9,6.27,6.27,0,0,1,11.2,6l.23-.1.09.85-.1.06A4,4,0,0,0,9.58,8.85a2.89,2.89,0,0,0-.15.91,2.41,2.41,0,0,0,.44,1.41A2.82,2.82,0,0,0,12,12.27l.15,0L12.27,14l0,.2h-.51A4.06,4.06,0,0,1,8.22,12.57Zm3.08,4.87v.16h-1v-.36a.35.35,0,0,1,.38-.4H11a.2.2,0,0,0,.15-.06.28.28,0,0,0,.05-.16.19.19,0,0,0-.2-.21h-.68v-.16H11A.38.38,0,0,1,11,17h-.32c-.16,0-.23.07-.23.24v.2Zm1,.18c-.28,0-.61-.08-.61-.68s.33-.69.61-.69.61.08.61.69S12.55,17.62,12.26,17.62Zm.18-11.19-.19-.8,4.4-1.11L17,4.43l-.55,1.46-1.55.93Zm1.39,11.19c-.29,0-.61-.08-.61-.68s.32-.69.61-.69.61.08.61.69S14.11,17.62,13.83,17.62Zm1.55,0h-.53v-.16h.53c.3,0,.39-.15.41-.4h-.56c-.35,0-.42-.21-.42-.39s.07-.4.57-.4.57.22.57.68S15.76,17.6,15.38,17.6Zm2.15-8.53a5.4,5.4,0,0,1-3.19,4.56l-.21.11L13.73,12l.13-.07a4,4,0,0,0,2-2.11l0-.06,1.39-.87.28-.17Z"/><path class="cls-2" d="M15.38,16.41c-.41,0-.41.18-.41.24s0,.23.26.23h.56C15.79,16.6,15.7,16.41,15.38,16.41Z"/></svg>