<svg id="Layer_1" data-name="Layer 1" xmlns="http://www.w3.org/2000/svg" viewBox="0 0 120 20"><defs><style>.cls-1{fill:#a97f5b;}.cls-2{fill:#58595b;}</style></defs><title>prostyle-logo</title><path class="cls-1" d="M14.93,9.16c.51-.08,1-.18,1.4-.28V6.64a11.25,11.25,0,0,1-1.4.4Z"/><path class="cls-1" d="M14.26,4.43a5.1,5.1,0,0,1-1.55.25,5.18,5.18,0,0,1-1.56-.25V6.49a9.46,9.46,0,0,0,1.56.13,9.34,9.34,0,0,0,1.55-.13Z"/><path class="cls-1" d="M6.45,8l.47.22a13.91,13.91,0,0,0,1.5.53V5.64l.47.21a11,11,0,0,0,1.6.51V3.44l.47.22A4.8,4.8,0,0,0,12.71,4a4.94,4.94,0,0,0,1.75-.35l.47-.21V6.36a11.1,11.1,0,0,0,1.59-.51L17,5.64V8.7a13.91,13.91,0,0,0,1.5-.53L19,8v7.92a8.55,8.55,0,1,0-12.51,0Z"/><path class="cls-1" d="M11.15,7.16V9.25a13.09,13.09,0,0,0,1.56.09,12.8,12.8,0,0,0,1.55-.09V7.16a9.34,9.34,0,0,1-1.55.13A9.46,9.46,0,0,1,11.15,7.16Z"/><path class="cls-1" d="M10.49,9.16V7a10.76,10.76,0,0,1-1.4-.4V8.88C9.51,9,10,9.08,10.49,9.16Z"/><path class="cls-1" d="M12.71,19.63a9.58,9.58,0,1,1,9.58-9.58A9.59,9.59,0,0,1,12.71,19.63Zm0-18.8a9.22,9.22,0,1,0,9.22,9.22A9.23,9.23,0,0,0,12.71.83Z"/><path class="cls-1" d="M17,9.39v6.76h-.66V9.56c-.43.1-.9.2-1.4.28v5.65h-.67V9.92a15.22,15.22,0,0,1-1.55.09,15.59,15.59,0,0,1-1.56-.09v5.57h-.66V9.84c-.51-.08-1-.18-1.4-.28v6.59H8.42V9.39c-.55-.16-1-.31-1.3-.43v7.55h0a8.53,8.53,0,0,0,11.19,0V9C18,9.08,17.54,9.23,17,9.39Z"/><polygon class="cls-2" points="73.85 6.54 76.89 6.54 76.89 14.37 77.68 14.37 77.68 6.54 80.7 6.54 80.7 5.74 73.85 5.74 73.85 6.54"/><polygon class="cls-2" points="97.19 5.74 96.37 5.74 96.37 14.37 103.23 14.37 103.23 13.57 97.19 13.57 97.19 5.74"/><path class="cls-2" d="M111.46,6.51H114V5.74h-2.54a4.29,4.29,0,0,0-4.28,3.93h-1v.77h1a4.3,4.3,0,0,0,4.28,3.93H114V13.6h-2.54A3.53,3.53,0,0,1,108,10.44h5.37V9.67H108A3.53,3.53,0,0,1,111.46,6.51Z"/><path class="cls-2" d="M90.81,5.74c-.07.07-.36.46-2.55,3.53l-.11.14L88,9.27c-2.19-3.07-2.49-3.46-2.56-3.53h-.93l3.19,4.46v4.17h.82V10.2l3.19-4.46Z"/><path class="cls-2" d="M35.24,7.13a2.39,2.39,0,0,0-1.51-1.3l-.21,0h-.06a2.22,2.22,0,0,0-.37,0H28.58V9.69h-1v.79h1v3.89h.8V10.48h3.75a2.35,2.35,0,0,0,2.32-2.37A2.3,2.3,0,0,0,35.24,7.13Zm-.59,1a1.43,1.43,0,0,1,0,.29h0a1.57,1.57,0,0,1-1.53,1.26H29.38V6.54h3.71a1.57,1.57,0,0,1,1.56,1.57Z"/><path class="cls-2" d="M44.7,10.48h0l0,0a2.41,2.41,0,0,0,1.81-1.38,2.37,2.37,0,0,0,.21-1,2.31,2.31,0,0,0-.22-1A2.39,2.39,0,0,0,45,5.83l-.21,0H44.7a2.22,2.22,0,0,0-.37,0H39.82V9.69h-1v.79h1v3.89h.8V10.48h3.16c.15.24.67,1.14,2.19,3.8l.08.14.7-.35ZM40.62,6.54h3.71A1.59,1.59,0,0,1,45.9,8.11v0a2.83,2.83,0,0,1,0,.29h0a1.56,1.56,0,0,1-1.53,1.26H40.62Z"/><path class="cls-2" d="M54.36,14.45a3.32,3.32,0,0,1-3.43-3.19V8.84a3.43,3.43,0,0,1,6.85,0v2.42A3.31,3.31,0,0,1,54.36,14.45Zm0-8a2.5,2.5,0,0,0-2.61,2.37v2.42a2.62,2.62,0,0,0,5.21,0V8.84A2.5,2.5,0,0,0,54.36,6.47Z"/><path class="cls-2" d="M65,10.45h0Z"/><path class="cls-2" d="M67.17,9.66h0Z"/><path class="cls-2" d="M65.05,6.53h4.46V5.74H65.05a2.35,2.35,0,0,0-1.78,3.92,2.42,2.42,0,0,0,1.75.79h2.13A1.58,1.58,0,0,1,68.72,12a1.6,1.6,0,0,1-1.59,1.57H62.67v.8h4.46A2.39,2.39,0,0,0,69.51,12a2.3,2.3,0,0,0-.6-1.55,2.37,2.37,0,0,0-1.74-.79H65a1.57,1.57,0,1,1,0-3.13Z"/></svg>