<?xml version="1.0" encoding="utf-8"?>
<!-- Generator: Adobe Illustrator 24.1.2, SVG Export Plug-In . SVG Version: 6.00 Build 0)  -->
<svg version="1.1" id="レイヤー_1" xmlns="http://www.w3.org/2000/svg" xmlns:xlink="http://www.w3.org/1999/xlink" x="0px"
	 y="0px" viewBox="0 0 120.3 76.9" style="enable-background:new 0 0 120.3 76.9;" xml:space="preserve">
<style type="text/css">
	.st0{fill:none;}
	.st1{fill:#568EAB;}
</style>
<path class="st0" d="M0,0h24v24H0V0z"/>
<path class="st0" d="M0,0h24v24H0V0z"/>
<path class="st1" d="M111.4,0.8H9c-4.6,0-8.4,3.8-8.4,8.4v12.5H9V9.2h102.5v58.5H82.1v8.4h29.3c4.6,0,8.4-3.8,8.4-8.4V9.2
	C119.8,4.6,116,0.8,111.4,0.8z"/>
<path class="st1" d="M0.6,63.6v12.5h12.5C13.1,69.2,7.5,63.6,0.6,63.6z"/>
<path class="st1" d="M0.6,46.8v8.4c11.5,0,20.9,9.4,20.9,20.9h8.4C29.9,59.9,16.8,46.8,0.6,46.8z"/>
<path class="st1" d="M0.6,30.1v8.4c20.8,0,37.6,16.9,37.6,37.6h8.4C46.6,50.7,26,30.1,0.6,30.1z"/>
<circle class="st1" cx="76.3" cy="30.7" r="15.2"/>
<g>
	<path class="st1" d="M112.5,70.1c0-12-24.1-18.7-36.1-18.7c-7.3,0-19.1,2.4-27.2,7.1c2,5.5,3.1,11.4,3.1,17.6l0,0h60.2V70.1z"/>
</g>
</svg>
