<svg width="110" height="106" viewBox="0 0 110 106" fill="none" xmlns="http://www.w3.org/2000/svg">
<g clip-path="url(#clip0)">
<rect x="33" y="33" width="40" height="66" fill="#1F91B3"/>
<circle cx="32.5" cy="65.5" r="22.5" fill="white"/>
<path d="M70.1386 26H37.0324C31.4706 26 26.937 30.5336 26.937 36.0954V39.2269C26.937 40.0058 27.5602 40.629 28.3392 40.629C29.1181 40.629 29.7413 40.0058 29.7413 39.2269V36.0954C29.7413 32.076 33.013 28.8043 37.0324 28.8043H70.1386C74.1581 28.8043 77.4297 32.076 77.4297 36.0954V95.9046C77.4297 99.9241 74.1581 103.196 70.1386 103.196H37.0324C33.013 103.196 29.7413 99.9241 29.7413 95.9046V91.2931C29.7413 90.5141 29.1181 89.8909 28.3392 89.8909C27.5602 89.8909 26.937 90.5141 26.937 91.2931V95.9046C26.937 101.466 31.4706 106 37.0324 106H70.1386C75.7004 106 80.234 101.466 80.234 95.9046V36.0954C80.234 30.5336 75.7004 26 70.1386 26Z" fill="black"/>
<path d="M71.9925 97.743C71.494 98.2415 70.8397 98.5063 70.1386 98.5063H47.159C46.3801 98.5063 45.7569 99.1295 45.7569 99.9085C45.7569 100.687 46.3801 101.311 47.159 101.311H70.1386C73.1298 101.311 75.5602 98.8802 75.5602 95.889V36.0954C75.5602 33.1042 73.1298 30.6738 70.1386 30.6738H61.9439C61.5076 30.6738 61.1026 30.8764 60.8377 31.2191L59.2954 33.1977H47.8601L46.3333 31.2191C46.0685 30.8764 45.6634 30.6738 45.2272 30.6738H37.0325C34.0412 30.6738 31.6108 33.1042 31.6108 36.0954V38.8063C31.6108 39.5852 32.234 40.2084 33.013 40.2084C33.792 40.2084 34.4151 39.5852 34.4151 38.8063V36.0954C34.4151 34.6466 35.5836 33.4781 37.0325 33.4781H44.5417L45.6478 34.9114C46.1775 35.5969 47.0032 36.002 47.8757 36.002H59.2954C60.1678 36.002 60.9779 35.5969 61.5232 34.9114L62.6293 33.4781H70.1386C71.5875 33.4781 72.7559 34.6466 72.7559 36.0954V95.9046C72.7559 96.5901 72.4755 97.26 71.9925 97.743Z" fill="black"/>
<path d="M42.1732 98.5062H37.032C35.5831 98.5062 34.4146 97.3378 34.4146 95.8889V91.698C34.4146 90.9191 33.7915 90.2959 33.0125 90.2959C32.2335 90.2959 31.6104 90.9191 31.6104 91.698V95.8889C31.6104 98.8801 34.0407 101.31 37.032 101.31H42.1732C42.9521 101.31 43.5753 100.687 43.5753 99.9084C43.5753 99.145 42.9521 98.5062 42.1732 98.5062Z" fill="black"/>
<path d="M54.8239 65.9769C54.0605 65.899 53.375 66.4754 53.2971 67.2388C52.2845 77.7237 43.5756 85.638 33.0284 85.638C21.7956 85.638 12.6506 76.4929 12.6506 65.2602C12.6506 54.0275 21.7956 44.8824 33.0284 44.8824C43.2173 44.8824 51.895 52.4851 53.2192 62.565C53.266 62.9389 53.4529 63.2661 53.7645 63.4997C54.0605 63.7334 54.4344 63.8269 54.7927 63.7802C55.1666 63.7334 55.4938 63.5465 55.7275 63.2505C55.9612 62.9545 56.0547 62.5806 56.0079 62.2067C54.4967 50.7402 44.6194 42.0781 33.0284 42.0781C20.2533 42.0781 9.84628 52.4696 9.84628 65.2602C9.84628 69.9652 11.2484 74.4988 13.9281 78.3624L9.92418 82.3663C9.65933 82.6312 9.51911 82.9895 9.51911 83.3634C9.51911 83.7373 9.65933 84.0957 9.92418 84.3605C10.189 84.6254 10.5473 84.7656 10.9213 84.7656C11.2952 84.7656 11.6535 84.6254 11.9183 84.3605L15.6885 80.5903C16.3273 81.3069 16.9972 81.9769 17.7139 82.6156L4.96994 95.3595C4.87646 95.453 4.76741 95.4686 4.72067 95.4686C4.67393 95.4686 4.56488 95.453 4.4714 95.3595L2.94462 93.8328C2.80441 93.6925 2.80441 93.4744 2.94462 93.3342L8.3974 87.8814C8.66225 87.6166 8.80246 87.2583 8.80246 86.8844C8.80246 86.5104 8.66225 86.1521 8.3974 85.8873C7.85212 85.342 6.9641 85.342 6.41882 85.8873L0.966046 91.3401C-0.264724 92.5708 -0.264724 94.5806 0.966046 95.8113L2.49282 97.3381C3.08484 97.9301 3.87939 98.2573 4.72067 98.2573C5.56196 98.2573 6.3565 97.9301 6.94852 97.3381L19.9417 84.3449C23.821 87.009 28.339 88.4267 33.0595 88.4267C38.855 88.4267 44.4013 86.2768 48.6856 82.3663C52.9388 78.4871 55.5717 73.2057 56.1325 67.4881C56.1637 66.7247 55.5873 66.0392 54.8239 65.9769Z" fill="black"/>
<path d="M33.0127 46.752C22.8082 46.752 14.5044 55.0557 14.5044 65.2602C14.5044 75.4647 22.8082 83.7685 33.0127 83.7685C43.2171 83.7685 51.5209 75.4647 51.5209 65.2602C51.5209 55.0557 43.2171 46.752 33.0127 46.752ZM48.7167 65.2602C48.7167 73.9223 41.6748 80.9486 33.0282 80.9486C24.3661 80.9486 17.3243 73.9068 17.3243 65.2602C17.3243 56.5981 24.3661 49.5562 33.0282 49.5562C41.6748 49.5562 48.7167 56.5981 48.7167 65.2602Z" fill="black"/>
<path d="M42.6718 63.7645L33.8694 57.0031C33.3709 56.6136 32.6698 56.6136 32.1557 57.0031L23.3534 63.7645C22.7458 64.2319 22.6211 65.1199 23.0885 65.7275C23.5559 66.3351 24.4439 66.4597 25.0515 65.9923L25.145 65.9144V71.5386C25.145 72.7849 26.1577 73.7976 27.404 73.7976H38.59C39.8363 73.7976 40.849 72.7849 40.849 71.5386V65.9144L40.9425 65.9923C41.1917 66.1793 41.4722 66.2883 41.7993 66.2883C42.2356 66.2883 42.6406 66.0858 42.9055 65.7431C43.404 65.1199 43.2794 64.2319 42.6718 63.7645ZM33.0126 68.0332C32.2336 68.0332 31.6104 68.6564 31.6104 69.4354V70.9933H27.9649V63.7645L33.0126 59.8852L38.0603 63.7645V70.9933H34.4147V69.4354C34.4147 68.6564 33.7915 68.0332 33.0126 68.0332Z" fill="black"/>
</g>
<g clip-path="url(#clip1)">
<path d="M67.7952 52.4235C67.7686 52.2504 67.7286 52.0906 67.6754 51.9308C67.3691 50.9854 66.73 50.1598 65.8245 49.6405C65.7846 49.6139 65.7446 49.6139 65.718 49.6006C65.425 49.4408 65.1188 49.3076 64.8125 49.2278C64.6927 49.2011 64.5862 49.2011 64.4663 49.1878C64.2133 49.1479 63.9736 49.1079 63.7207 49.1079C63.694 49.1079 63.6541 49.1079 63.6274 49.1212C63.2812 49.1345 62.9483 49.1878 62.6155 49.2943C62.6021 49.2943 62.5755 49.3076 62.5622 49.321C62.216 49.4275 61.8964 49.5873 61.5768 49.787C61.0176 50.1332 60.5782 50.5859 60.2453 51.1585C59.1135 53.1026 59.7926 55.6192 61.7366 56.7511C62.682 57.297 63.7872 57.4302 64.8392 57.1505C65.8911 56.8709 66.7699 56.1918 67.3025 55.2464C67.5689 54.7937 67.742 54.2877 67.8219 53.7551C67.8751 53.3423 67.8751 52.9295 67.8085 52.5433C67.8085 52.4768 67.7952 52.4501 67.7952 52.4235Z" fill="#F2F2F2"/>
<path d="M91.9227 49.7735L91.896 49.7468C91.5898 49.5471 91.2569 49.4006 90.924 49.2808C90.8974 49.2675 90.8707 49.2675 90.8574 49.2542C90.5378 49.1609 90.2049 49.1077 89.8721 49.0944C89.8321 49.0944 89.7922 49.0811 89.7522 49.0811C89.5259 49.0811 89.2995 49.121 89.0731 49.1609C88.94 49.1876 88.8068 49.1743 88.6737 49.2142C88.3274 49.3074 87.9812 49.4406 87.6484 49.627C86.197 50.4659 85.4113 52.0771 85.651 53.7282C85.7309 54.2608 85.8907 54.7535 86.157 55.2062C86.7029 56.165 87.5818 56.844 88.6337 57.1237C89.699 57.4033 90.7908 57.2701 91.7496 56.7242C93.6936 55.5924 94.3727 53.0757 93.2409 51.1317C92.8814 50.5591 92.4553 50.1064 91.9227 49.7735Z" fill="#F2F2F2"/>
<path d="M87.1158 10.0131C87.2756 10.1463 87.4487 10.2528 87.6218 10.3593C88.9533 11.1316 90.5911 11.0784 91.8827 10.2395C92.442 9.89327 92.8814 9.44054 93.2143 8.86797C94.3461 6.9239 93.667 4.40726 91.723 3.27543C91.0971 2.91591 90.3914 2.72949 89.6857 2.72949C89.3262 2.72949 88.9666 2.78275 88.6071 2.87596C87.5552 3.15559 86.6764 3.83469 86.1437 4.78009C85.8774 5.23282 85.7043 5.73881 85.6244 6.27144C85.5978 6.47117 85.5845 6.68422 85.5845 6.88395C85.5978 8.10899 86.157 9.25413 87.1158 10.0131Z" fill="#F2F2F2"/>
<path d="M79.4594 30H74V38.1758H79.4594V30Z" fill="#F2F2F2"/>
<path d="M52.8147 26.4314C52.1889 26.0852 51.5098 25.9121 50.8174 25.9121C48.567 25.9121 46.7295 27.7497 46.7295 30C46.7295 32.2503 48.567 34.0879 50.8174 34.0879C51.5098 34.0879 52.1889 33.9148 52.8147 33.5686C54.1063 32.8495 54.9053 31.478 54.9053 30C54.9053 28.522 54.1063 27.1505 52.8147 26.4314Z" fill="#F2F2F2"/>
<path d="M61.5232 10.2131C62.4953 10.8523 63.6271 11.0387 64.6923 10.7857C64.719 10.7857 64.7456 10.7857 64.7722 10.7724C65.1317 10.6792 65.4913 10.546 65.8242 10.3463C67.2756 9.50739 68.0612 7.8962 67.8215 6.24507C67.7416 5.71245 67.5818 5.21977 67.3155 4.76704L67.3022 4.75373C66.7562 3.80832 65.8774 3.12922 64.8388 2.8496C64.4793 2.75639 64.1198 2.70312 63.7602 2.70312C63.0545 2.70312 62.3488 2.88954 61.723 3.24906C59.7789 4.38089 59.0998 6.89753 60.2316 8.84161C60.5645 9.44081 61.0039 9.89354 61.5232 10.2131Z" fill="#F2F2F2"/>
<path d="M102.628 25.9121C101.936 25.9121 101.257 26.0852 100.631 26.4314C99.3395 27.1505 98.5405 28.522 98.5405 30C98.5405 31.478 99.3395 32.8495 100.631 33.5686C101.257 33.9148 101.936 34.0879 102.628 34.0879C104.879 34.0879 106.716 32.2503 106.716 30C106.716 27.7497 104.892 25.9121 102.628 25.9121Z" fill="#F2F2F2"/>
<path d="M67.1821 24.594V38.1759H71.27V27.2704H82.1755V38.1759H86.2634V24.594L76.7294 19.2012L67.1821 24.594Z" fill="#F2F2F2"/>
<path d="M95.9175 28.8948C95.9441 28.7083 95.9841 28.5086 96.0373 28.3222C96.064 28.229 96.0906 28.1358 96.1172 28.0426C96.1705 27.8695 96.2371 27.6964 96.3037 27.5233C96.3436 27.43 96.3702 27.3502 96.4102 27.2569C96.5034 27.0572 96.5966 26.8708 96.7031 26.6711C96.7298 26.6178 96.7564 26.5645 96.783 26.5113C96.9295 26.2716 97.076 26.0452 97.2491 25.8322C97.289 25.7789 97.329 25.739 97.3689 25.6857C97.5021 25.5259 97.6485 25.3661 97.795 25.2063C97.8616 25.1398 97.9282 25.0865 97.9947 25.0199C98.0746 24.9533 98.1412 24.8735 98.2211 24.8069L92.0693 13.1957C91.9894 13.2223 91.9095 13.249 91.8429 13.2756C91.7098 13.3155 91.5766 13.3688 91.4435 13.3954C91.257 13.4487 91.084 13.4753 90.8975 13.5153C90.7644 13.5419 90.6312 13.5685 90.4847 13.5818C90.2584 13.6085 90.0187 13.6218 89.7923 13.6351C89.7524 13.6351 89.7258 13.6484 89.6858 13.6484C89.6059 13.6484 89.526 13.6351 89.4328 13.6351C89.273 13.6351 89.1266 13.6218 88.9668 13.6085C88.8469 13.5952 88.7404 13.5818 88.6206 13.5552C88.4608 13.5286 88.301 13.5019 88.1412 13.462C88.0347 13.4354 87.9282 13.4087 87.8216 13.3821C87.6485 13.3288 87.4754 13.2756 87.3023 13.209C87.2091 13.1824 87.1292 13.1424 87.036 13.1158C86.783 13.0093 86.53 12.8894 86.277 12.743C85.9974 12.5832 85.7444 12.3968 85.4914 12.2103C85.4115 12.1438 85.3449 12.0772 85.265 12.0106C85.1053 11.8774 84.9455 11.731 84.799 11.5712C84.7191 11.4913 84.6392 11.4114 84.5726 11.3182C84.4395 11.1584 84.3063 10.9986 84.1865 10.8388C84.1199 10.7589 84.0666 10.6657 84.0001 10.5858C83.8669 10.3728 83.7337 10.1597 83.6272 9.94669C83.6006 9.89343 83.574 9.85348 83.5473 9.80022C83.4142 9.53391 83.3077 9.24096 83.2144 8.96134C83.1878 8.88144 83.1612 8.78823 83.1479 8.70834C83.0946 8.49529 83.0413 8.29556 83.0014 8.06919C82.9881 7.96267 82.9614 7.85614 82.9481 7.7363C82.9348 7.64309 82.9082 7.54988 82.9082 7.44336H70.578C70.5646 7.53657 70.5513 7.62978 70.538 7.7363C70.5247 7.84283 70.5114 7.96267 70.4847 8.06919C70.4448 8.28224 70.3915 8.49529 70.3383 8.70834C70.3116 8.78823 70.2983 8.88144 70.2717 8.96134C70.1785 9.25428 70.072 9.53391 69.9388 9.80022C69.9122 9.85348 69.8855 9.89343 69.8589 9.93337C69.7391 10.1597 69.6192 10.3728 69.4728 10.5858C69.4195 10.6657 69.3529 10.7456 69.2997 10.8388C69.1798 11.0119 69.0467 11.1717 68.9135 11.3315C68.8469 11.4114 68.767 11.4913 68.6871 11.5712C68.5407 11.731 68.3809 11.8774 68.2078 12.0106C68.1279 12.0772 68.0613 12.1438 67.9814 12.197C67.7284 12.3834 67.4754 12.5699 67.1958 12.7296C66.9561 12.8761 66.7031 12.996 66.4368 13.1025C66.3436 13.1424 66.2637 13.1691 66.1705 13.1957C65.9974 13.2623 65.8243 13.3155 65.6512 13.3688C65.5447 13.3954 65.4381 13.4221 65.3316 13.4487C65.1718 13.4886 64.9987 13.5153 64.8389 13.5419C64.7324 13.5552 64.6259 13.5685 64.5194 13.5818C64.3463 13.5952 64.1732 13.6085 64.0001 13.6218C63.9335 13.6218 63.8669 13.6351 63.8003 13.6351C63.7737 13.6351 63.7471 13.6351 63.7071 13.6351C63.4142 13.6351 63.1212 13.6085 62.8283 13.5685C62.8017 13.5685 62.7883 13.5552 62.7617 13.5552C62.4954 13.5153 62.2291 13.4487 61.9628 13.3821C61.8696 13.3555 61.7897 13.3288 61.6965 13.3022C61.5899 13.2623 61.4834 13.249 61.3902 13.209L55.2384 24.8202C55.3183 24.8868 55.3849 24.9667 55.4648 25.0332C55.5314 25.0865 55.5846 25.1531 55.6512 25.2063C55.811 25.3661 55.9575 25.5259 56.0906 25.699C56.1306 25.739 56.1705 25.7789 56.1971 25.8322C56.3702 26.0585 56.53 26.2849 56.6632 26.5246C56.6898 26.5645 56.7164 26.6178 56.7431 26.6577C56.8496 26.8575 56.9561 27.0439 57.036 27.2569C57.076 27.3368 57.1026 27.43 57.1425 27.5099C57.2091 27.683 57.2757 27.8561 57.329 28.0426C57.3556 28.1358 57.3822 28.229 57.4089 28.3222C57.4621 28.5086 57.4887 28.695 57.5287 28.8948C57.542 28.988 57.5553 29.0679 57.5686 29.1478C57.6086 29.4274 57.6219 29.707 57.6219 29.9866C57.6219 30.2663 57.5953 30.5459 57.5686 30.8255C57.5553 30.9187 57.542 30.9986 57.5287 31.0785C57.5021 31.2649 57.4621 31.4647 57.4089 31.6511C57.3822 31.7443 57.3556 31.8375 57.329 31.9307C57.2757 32.1038 57.2091 32.2769 57.1425 32.45C57.1026 32.5432 57.076 32.6231 57.036 32.7163C56.9428 32.9161 56.8496 33.1158 56.7431 33.3022C56.7164 33.3555 56.6898 33.4087 56.6632 33.4487C56.5167 33.6884 56.3702 33.9147 56.1971 34.1411C56.1572 34.1944 56.1172 34.2343 56.0773 34.2876C55.9441 34.4607 55.7977 34.6205 55.6512 34.7669C55.5846 34.8335 55.518 34.8868 55.4515 34.9534C55.3716 35.0199 55.305 35.0998 55.2251 35.1664L61.3769 46.7776C61.4302 46.751 61.4834 46.7376 61.55 46.7243C61.6832 46.6711 61.8296 46.6311 61.9628 46.5912C62.0959 46.5512 62.2424 46.5246 62.3756 46.498C62.5087 46.4713 62.6286 46.4447 62.7617 46.4181C62.9881 46.3781 63.2144 46.3648 63.4408 46.3515C63.5473 46.3515 63.6539 46.3515 63.7604 46.3515C63.9734 46.3515 64.1732 46.3515 64.3862 46.3781C64.4927 46.3914 64.5859 46.4048 64.6925 46.4181C64.8789 46.4447 65.052 46.4713 65.2384 46.5113C65.3449 46.5379 65.4381 46.5645 65.5447 46.5912C65.7311 46.6444 65.9175 46.6977 66.1039 46.7776C66.1971 46.8042 66.277 46.8442 66.3702 46.8708C66.6365 46.9773 66.9029 47.1105 67.1559 47.2569C67.4355 47.4167 67.6885 47.6031 67.9415 47.7896C68.0214 47.8561 68.1013 47.9227 68.1678 47.9893C68.3276 48.1225 68.4874 48.2689 68.6339 48.4154C68.7138 48.4953 68.7937 48.5752 68.8602 48.6684C68.9934 48.8149 69.1132 48.9747 69.2331 49.1344C69.2997 49.2277 69.3662 49.3075 69.4195 49.4008C69.5527 49.6005 69.6725 49.8135 69.7923 50.0266C69.819 50.0799 69.8589 50.1331 69.8855 50.1864C70.0187 50.4527 70.1252 50.7323 70.2184 51.0253C70.2451 51.1185 70.2717 51.1984 70.285 51.2916C70.3383 51.4913 70.3915 51.7043 70.4315 51.9174C70.4581 52.0239 70.4714 52.1438 70.4847 52.2503C70.4981 52.3435 70.5247 52.4367 70.5247 52.5432H82.8816C82.8949 52.45 82.9082 52.3568 82.9215 52.2503C82.9348 52.1438 82.9481 52.0239 82.9748 51.9174C83.0147 51.7043 83.068 51.5046 83.1212 51.2916C83.1479 51.1984 83.1612 51.1052 83.2011 51.0253C83.2943 50.7323 83.4009 50.4527 83.534 50.1864C83.5606 50.1331 83.5873 50.0932 83.6139 50.0399C83.7337 49.8135 83.8536 49.6005 83.9867 49.4008C84.04 49.3209 84.1066 49.2277 84.1732 49.1478C84.293 48.988 84.4262 48.8149 84.5593 48.6684C84.6259 48.5885 84.7058 48.5086 84.7857 48.4287C84.9321 48.2689 85.0919 48.1358 85.2517 47.9893C85.3316 47.9227 85.3982 47.8561 85.4781 47.8029C85.7311 47.6165 85.9841 47.43 86.2637 47.2703C86.5167 47.1238 86.783 46.9906 87.0626 46.8841C87.1425 46.8575 87.2091 46.8308 87.289 46.8042C87.4887 46.7243 87.6885 46.6577 87.8882 46.6045C87.9681 46.5779 88.0613 46.5645 88.1412 46.5379C88.3543 46.4846 88.554 46.458 88.767 46.4314C88.8469 46.4181 88.9135 46.4048 88.9934 46.4048C89.273 46.3781 89.5527 46.3648 89.8323 46.3648C90.1252 46.3781 90.4049 46.4047 90.6845 46.4447C90.7644 46.458 90.831 46.4713 90.9108 46.4846C91.1106 46.5246 91.3236 46.5645 91.5234 46.6311C91.6166 46.6577 91.7098 46.6844 91.803 46.7243C91.8829 46.751 91.9628 46.7776 92.0427 46.8042L98.1945 35.193C98.1146 35.1265 98.0347 35.0466 97.9681 34.9667C97.9015 34.9134 97.8483 34.8468 97.7817 34.7936C97.6219 34.6338 97.4754 34.4607 97.329 34.2876C97.289 34.2476 97.2624 34.2077 97.2224 34.1677C97.0493 33.9414 96.8895 33.715 96.7564 33.4753C96.7298 33.4354 96.7164 33.3821 96.6898 33.3422C96.5833 33.1424 96.4768 32.9427 96.3835 32.743C96.3436 32.6631 96.317 32.5699 96.277 32.49C96.2104 32.3169 96.1439 32.1438 96.0906 31.9573C96.064 31.8641 96.0373 31.7709 96.0107 31.6777C95.9574 31.4913 95.9308 31.3049 95.8909 31.1051C95.8776 31.0253 95.8642 30.932 95.8509 30.8521C95.811 30.5725 95.7977 30.2929 95.7977 30.0133C95.7977 29.7336 95.8243 29.454 95.8509 29.1744C95.8776 29.0679 95.9042 28.988 95.9175 28.8948ZM91.0573 27.3102L89.0067 26.1518V40.9187H64.4528V26.1384L62.4022 27.2969L61.0573 24.9267L76.7298 16.0585L92.4022 24.9267L91.0573 27.3102Z" fill="#F2F2F2"/>
<path d="M102.628 23.1824C101.936 23.1824 101.257 23.3023 100.591 23.5153L94.3728 11.7577C94.8389 11.3183 95.2383 10.8256 95.5712 10.253C97.4487 7.00403 96.3302 2.82294 93.0812 0.932126C91.4967 0.0266667 89.6591 -0.213014 87.9015 0.253031C86.1438 0.732392 84.6791 1.86422 83.7869 3.42214C83.5473 3.83492 83.3608 4.27433 83.2144 4.72706H70.245C70.0985 4.27433 69.9121 3.83492 69.6724 3.42214C68.767 1.83758 67.3023 0.719077 65.5446 0.239716C63.7869 -0.239645 61.9361 3.55735e-05 60.3515 0.91881C57.1025 2.80962 55.984 6.99071 57.8615 10.2397C58.1944 10.8123 58.6072 11.3183 59.0599 11.7444L52.8415 23.502C52.1891 23.289 51.51 23.1691 50.8043 23.1691C47.0626 23.1824 44 26.2317 44 30C44 33.755 47.0626 36.8176 50.8176 36.8176C51.51 36.8176 52.1891 36.6978 52.8549 36.498L59.0865 48.2557C58.6205 48.6951 58.221 49.1878 57.8881 49.7603C56.0107 53.0093 57.1292 57.1904 60.3782 59.0812C61.4301 59.6804 62.5885 60 63.7736 60C64.3728 60 64.972 59.9201 65.5712 59.7603C67.3289 59.281 68.7936 58.1625 69.6857 56.5912C69.9254 56.1784 70.1118 55.739 70.2583 55.2863H83.2277C83.3742 55.739 83.5606 56.1784 83.8003 56.5779C84.7057 58.1491 86.1704 59.281 87.9281 59.7603C88.5273 59.9201 89.1265 60 89.7257 60C90.9108 60 92.0692 59.6938 93.1212 59.0812C96.3702 57.1904 97.4887 53.0093 95.6112 49.7603C95.2783 49.1878 94.8655 48.7084 94.3995 48.269L100.591 36.4847C101.244 36.6978 101.923 36.8043 102.628 36.8043C106.383 36.8043 109.446 33.7417 109.446 29.9867C109.446 26.2317 106.397 23.1824 102.628 23.1824ZM85.6245 6.27167C85.7044 5.73905 85.8642 5.24637 86.1438 4.78033C86.6897 3.83492 87.5686 3.15583 88.6072 2.8762C88.9667 2.78299 89.3262 2.72973 89.6857 2.72973C90.3915 2.72973 91.0839 2.91615 91.723 3.27567C93.6804 4.40749 94.3462 6.92413 93.2144 8.86821C92.8815 9.44078 92.4554 9.89351 91.8828 10.2397C90.5912 11.0786 88.9667 11.1319 87.6218 10.3596C87.4354 10.253 87.2756 10.1332 87.1158 10.0133C86.1571 9.24104 85.5979 8.0959 85.5845 6.88419C85.5845 6.68445 85.5979 6.4714 85.6245 6.27167ZM61.723 3.27567C62.3489 2.91615 63.0546 2.72973 63.7603 2.72973C64.1198 2.72973 64.4794 2.78299 64.8389 2.8762C65.8908 3.15583 66.7696 3.83492 67.3023 4.78033L67.3156 4.79364C67.5819 5.24637 67.7417 5.73905 67.8216 6.27167C68.0612 7.9228 67.2623 9.53399 65.8242 10.3729C65.4913 10.5593 65.1318 10.7058 64.7723 10.799C64.7457 10.799 64.719 10.799 64.6924 10.8123C63.6272 11.052 62.4953 10.8655 61.5233 10.2397C60.9907 9.92014 60.5646 9.46741 60.2317 8.89484C59.0999 6.92413 59.779 4.40749 61.723 3.27567ZM52.8149 33.5686C52.1891 33.9148 51.51 34.0879 50.8176 34.0879C48.5672 34.0879 46.7297 32.2504 46.7297 30C46.7297 27.7497 48.5672 25.9121 50.8176 25.9121C51.51 25.9121 52.1891 26.0852 52.8149 26.4314C54.1065 27.1505 54.9055 28.522 54.9055 30C54.9055 31.4781 54.1065 32.8496 52.8149 33.5686ZM67.8216 53.7284C67.7417 54.261 67.5819 54.7537 67.3023 55.2197C66.7563 56.1651 65.8908 56.8442 64.8389 57.1238C63.7869 57.4035 62.6818 57.2703 61.7363 56.7244C59.779 55.5926 59.1132 53.0759 60.245 51.1318C60.5779 50.5593 61.004 50.1065 61.5766 49.7603C61.8828 49.5606 62.2157 49.4008 62.5619 49.2943C62.5752 49.2943 62.6019 49.281 62.6152 49.2677C62.9481 49.1611 63.281 49.1079 63.6272 49.0946C63.6538 49.0946 63.6937 49.0946 63.7204 49.0812C63.9734 49.0812 64.213 49.1212 64.466 49.1611C64.5859 49.1744 64.6924 49.1744 64.8122 49.2011C65.1318 49.281 65.4248 49.4141 65.7177 49.5739C65.7577 49.5872 65.7976 49.6005 65.8242 49.6139C66.7297 50.1332 67.3822 50.9587 67.6751 51.9041C67.7284 52.0639 67.7683 52.237 67.7949 52.3968C67.7949 52.4234 67.8083 52.4501 67.8083 52.4767C67.8748 52.9028 67.8748 53.3156 67.8216 53.7284ZM91.723 56.7244C90.7776 57.2703 89.6724 57.4168 88.6072 57.1238C87.5553 56.8442 86.6764 56.1651 86.1305 55.2064C85.8642 54.7537 85.7044 54.261 85.6245 53.7284C85.3981 52.0772 86.1838 50.4661 87.6218 49.6272C87.9414 49.4408 88.2876 49.3076 88.6471 49.2144C88.7803 49.1744 88.9134 49.1878 89.0466 49.1611C89.273 49.1212 89.4993 49.0812 89.7257 49.0812C89.7656 49.0812 89.8056 49.0946 89.8455 49.0946C90.1784 49.1079 90.5113 49.1611 90.8309 49.2543C90.8575 49.2677 90.8842 49.2677 90.8975 49.281C91.2304 49.3875 91.5632 49.534 91.8695 49.747L91.8961 49.7736C92.4288 50.0932 92.8549 50.5593 93.1877 51.1185C94.3462 53.0759 93.6671 55.5792 91.723 56.7244ZM95.8642 30.8389C95.8775 30.9321 95.8908 31.012 95.9041 31.0919C95.9308 31.2783 95.9707 31.4781 96.024 31.6645C96.0506 31.7577 96.0772 31.8509 96.1039 31.9441C96.1571 32.1305 96.2237 32.3036 96.2903 32.4767C96.3302 32.5566 96.3569 32.6498 96.3968 32.7297C96.49 32.9294 96.5832 33.1292 96.7031 33.3289C96.7297 33.3689 96.743 33.4221 96.7696 33.4621C96.9161 33.7018 97.0759 33.9281 97.2357 34.1545C97.2623 34.1944 97.3023 34.2344 97.3422 34.2743C97.4887 34.4474 97.6351 34.6205 97.7949 34.7803C97.8482 34.8336 97.9148 34.9002 97.9813 34.9534C98.0612 35.02 98.1278 35.0999 98.2077 35.1798L92.0559 46.791C91.976 46.7643 91.8961 46.7377 91.8162 46.7111C91.723 46.6844 91.6298 46.6445 91.5366 46.6179C91.3369 46.5646 91.1371 46.5113 90.9241 46.4714C90.8442 46.4581 90.7776 46.4448 90.6977 46.4314C90.4181 46.3915 90.1252 46.3515 89.8455 46.3515C89.5659 46.3382 89.2863 46.3649 89.0067 46.3915C88.9268 46.4048 88.8602 46.4181 88.7803 46.4181C88.5672 46.4448 88.3675 46.4847 88.1545 46.5246C88.0746 46.538 87.9814 46.5646 87.9015 46.5912C87.7017 46.6445 87.502 46.7111 87.3023 46.791C87.2224 46.8176 87.1558 46.8442 87.0759 46.8709C86.8096 46.9774 86.5433 47.1105 86.277 47.257C85.9973 47.4168 85.7443 47.6032 85.4913 47.7896C85.4114 47.8562 85.3449 47.9228 85.265 47.976C85.1052 48.1225 84.9454 48.2557 84.7989 48.4155C84.719 48.4954 84.6525 48.5752 84.5726 48.6551C84.4394 48.8149 84.3063 48.9747 84.1864 49.1345C84.1198 49.2144 84.0666 49.2943 84 49.3875C83.8668 49.6005 83.7337 49.8136 83.6272 50.0266C83.6005 50.0799 83.5739 50.1199 83.5473 50.1731C83.4141 50.4394 83.3076 50.7191 83.2144 51.012C83.1877 51.1052 83.1611 51.1851 83.1345 51.2783C83.0812 51.478 83.028 51.6911 82.988 51.9041C82.9614 52.0107 82.9481 52.1305 82.9347 52.237C82.9214 52.3302 82.8948 52.4234 82.8948 52.53H70.5646C70.5513 52.4368 70.5379 52.3436 70.5246 52.237C70.5113 52.1305 70.498 52.0107 70.4714 51.9041C70.4314 51.6911 70.3782 51.478 70.3249 51.2783C70.2983 51.1851 70.285 51.1052 70.2583 51.012C70.1651 50.7324 70.0586 50.4394 69.9254 50.1731C69.8988 50.1199 69.8589 50.0666 69.8322 50.0133C69.7257 49.8003 69.6059 49.5872 69.4594 49.3875C69.4061 49.2943 69.3395 49.2144 69.273 49.1212C69.1531 48.9614 69.0333 48.8016 68.9001 48.6551C68.8202 48.5752 68.7537 48.482 68.6738 48.4021C68.5273 48.2557 68.3675 48.1092 68.2077 47.976C68.1278 47.9095 68.0613 47.8429 67.9814 47.7763C67.7284 47.5766 67.4754 47.4035 67.1957 47.2437C66.9427 47.0972 66.6764 46.9774 66.4101 46.8575C66.3169 46.8176 66.237 46.791 66.1438 46.7643C65.9574 46.6978 65.771 46.6312 65.5846 46.5779C65.478 46.5513 65.3848 46.5247 65.2783 46.498C65.0919 46.4581 64.9188 46.4314 64.7324 46.4048C64.6258 46.3915 64.5326 46.3782 64.4261 46.3649C64.213 46.3515 64.0133 46.3382 63.8003 46.3382C63.6937 46.3382 63.5872 46.3382 63.4807 46.3382C63.2543 46.3515 63.028 46.3649 62.8016 46.4048C62.6684 46.4181 62.5486 46.4581 62.4154 46.4847C62.2823 46.5113 62.1358 46.5513 62.0027 46.5779C61.8695 46.6179 61.723 46.6578 61.5899 46.7111C61.5366 46.7244 61.4834 46.7377 61.4168 46.7643L55.265 35.1531C55.3449 35.0866 55.4115 35.0067 55.4913 34.9401C55.5579 34.8735 55.6245 34.8203 55.6911 34.7537C55.8375 34.5939 55.984 34.4341 56.1172 34.2743C56.1571 34.2211 56.1971 34.1811 56.237 34.1278C56.4101 33.9148 56.5566 33.6751 56.7031 33.4354C56.7297 33.3822 56.7563 33.3289 56.783 33.289C56.8895 33.1026 56.9827 32.9028 57.0759 32.7031C57.1158 32.6232 57.1425 32.53 57.1824 32.4368C57.249 32.2637 57.3156 32.0906 57.3688 31.9175C57.3955 31.8243 57.4221 31.731 57.4487 31.6378C57.502 31.4514 57.5286 31.265 57.5686 31.0653C57.5819 30.9854 57.5952 30.8922 57.6085 30.8123C57.6485 30.5326 57.6618 30.253 57.6618 29.9734C57.6618 29.6938 57.6352 29.4141 57.6085 29.1345C57.5952 29.0413 57.5819 28.9614 57.5686 28.8815C57.5419 28.6951 57.502 28.4954 57.4487 28.3089C57.4221 28.2157 57.3955 28.1225 57.3688 28.0293C57.3156 27.8562 57.249 27.6698 57.1824 27.4967C57.1425 27.4168 57.1158 27.3236 57.0759 27.2437C56.9827 27.044 56.8895 26.8442 56.783 26.6445C56.7563 26.6046 56.7297 26.5513 56.7031 26.5113C56.5566 26.2717 56.4101 26.0453 56.237 25.8189C56.1971 25.779 56.1704 25.739 56.1305 25.6858C55.984 25.5127 55.8375 25.3529 55.6911 25.1931C55.6245 25.1265 55.5712 25.0733 55.5047 25.02C55.4248 24.9534 55.3582 24.8735 55.2783 24.8069L61.4301 13.1958C61.5366 13.2357 61.6298 13.2623 61.7363 13.289C61.8296 13.3156 61.9095 13.3422 62.0027 13.3689C62.269 13.4488 62.5353 13.502 62.8016 13.542C62.8282 13.542 62.8415 13.5553 62.8682 13.5553C63.1611 13.5952 63.4541 13.6086 63.747 13.6219C63.7736 13.6219 63.8003 13.6219 63.8402 13.6219C63.9068 13.6219 63.9734 13.6086 64.0399 13.6086C64.213 13.6086 64.3861 13.5952 64.5593 13.5686C64.6658 13.5553 64.7723 13.542 64.8788 13.5287C65.0519 13.502 65.2117 13.4754 65.3715 13.4354C65.478 13.4088 65.5846 13.3822 65.6911 13.3556C65.8642 13.3023 66.0373 13.249 66.2104 13.1825C66.3036 13.1425 66.3968 13.1159 66.4767 13.0892C66.7297 12.9827 66.9827 12.8629 67.2357 12.7164C67.5153 12.5566 67.7683 12.3702 68.0213 12.1838C68.1012 12.1172 68.1678 12.0639 68.2477 11.9974C68.4075 11.8509 68.5672 11.7044 68.727 11.558C68.8069 11.4781 68.8735 11.3982 68.9534 11.3183C69.0865 11.1585 69.2197 10.9987 69.3395 10.8256C69.4061 10.7457 69.4594 10.6658 69.5126 10.5726C69.6591 10.3596 69.779 10.1465 69.8988 9.92014C69.9254 9.88019 69.9521 9.82693 69.9787 9.78698C70.1118 9.52067 70.2184 9.22773 70.3116 8.9481C70.3382 8.86821 70.3515 8.775 70.3782 8.69511C70.4314 8.48206 70.4847 8.28232 70.5246 8.05596C70.5379 7.94943 70.5646 7.84291 70.5779 7.72307C70.5912 7.62986 70.6178 7.53665 70.6178 7.43013H82.8815C82.8948 7.52333 82.9081 7.61654 82.9214 7.72307C82.9347 7.82959 82.9481 7.93612 82.9747 8.05596C83.0146 8.26901 83.0679 8.48206 83.1212 8.69511C83.1478 8.775 83.1611 8.86821 83.1877 8.9481C83.281 9.24104 83.3875 9.52067 83.5206 9.78698C83.5473 9.84024 83.5739 9.88019 83.6005 9.93345C83.7204 10.1598 83.8402 10.3729 83.9734 10.5726C84.0266 10.6658 84.0932 10.7457 84.1598 10.8256C84.2796 10.9854 84.4128 11.1452 84.5459 11.305C84.6258 11.3849 84.6924 11.4647 84.7723 11.558C84.9188 11.7044 85.0786 11.8509 85.2383 11.9974C85.3182 12.0639 85.3848 12.1305 85.4647 12.1971C85.7177 12.3835 85.9707 12.5699 86.2503 12.7297C86.5033 12.8762 86.7563 12.996 87.0093 13.1026C87.1025 13.1425 87.1824 13.1691 87.2756 13.1958C87.4487 13.2623 87.6218 13.3156 87.7949 13.3689C87.9015 13.3955 88.008 13.4221 88.1145 13.4488C88.2743 13.4887 88.4341 13.5153 88.5939 13.542C88.7137 13.5553 88.8202 13.5819 88.9401 13.5952C89.0999 13.6086 89.2463 13.6219 89.4061 13.6219C89.486 13.6219 89.5792 13.6352 89.6591 13.6352C89.6991 13.6352 89.7257 13.6219 89.7656 13.6219C89.992 13.6219 90.2317 13.5952 90.458 13.5686C90.5912 13.5553 90.7377 13.5287 90.8708 13.502C91.0573 13.4621 91.2304 13.4354 91.4168 13.3822C91.5499 13.3422 91.6831 13.3023 91.8162 13.2623C91.8961 13.2357 91.976 13.2224 92.0426 13.1825L98.1944 24.7936C98.1145 24.8602 98.0479 24.9401 97.968 25.0067C97.9015 25.0733 97.8349 25.1265 97.7683 25.1931C97.6218 25.3396 97.4754 25.4994 97.3422 25.6725C97.3023 25.7257 97.2623 25.7657 97.2224 25.8189C97.0493 26.032 96.9028 26.2717 96.7563 26.498C96.7297 26.5513 96.7031 26.6045 96.6764 26.6578C96.5699 26.8442 96.4767 27.044 96.3835 27.2437C96.3435 27.3236 96.3169 27.4168 96.277 27.51C96.2104 27.6831 96.1438 27.8562 96.0905 28.0293C96.0639 28.1225 96.0373 28.2157 96.0106 28.3089C95.9574 28.4954 95.9308 28.6818 95.8908 28.8815C95.8775 28.9614 95.8642 29.0546 95.8509 29.1345C95.8109 29.4141 95.7976 29.6938 95.7976 29.9734C95.8109 30.2796 95.8375 30.5593 95.8642 30.8389ZM102.628 34.0879C101.936 34.0879 101.257 33.9148 100.631 33.5686C99.3395 32.8496 98.5406 31.4781 98.5406 30C98.5406 28.522 99.3395 27.1505 100.631 26.4314C101.257 26.0852 101.936 25.9121 102.628 25.9121C104.879 25.9121 106.716 27.7497 106.716 30C106.716 32.2504 104.892 34.0879 102.628 34.0879Z" fill="black"/>
<path d="M61.0571 24.9268L62.402 27.2969L64.4526 26.1385V40.9055H88.9932V26.1385L91.0438 27.2969L92.3887 24.9268L76.7162 16.0586L61.0571 24.9268ZM79.4459 38.1758H73.9866V30H79.4459V38.1758ZM86.2635 38.1758H82.1756V27.2703H71.2702V38.1758H67.1823V24.5939L76.7296 19.2011L86.2768 24.5939V38.1758H86.2635Z" fill="black"/>
</g>
<defs>
<clipPath id="clip0">
<rect width="80.2337" height="80" fill="white" transform="translate(0 26)"/>
</clipPath>
<clipPath id="clip1">
<rect width="65.4461" height="60" fill="white" transform="translate(44)"/>
</clipPath>
</defs>
</svg>
