<svg width="73" height="73" viewBox="0 0 73 73" fill="none" xmlns="http://www.w3.org/2000/svg">
<path d="M25.5998 43.2C23.7998 45 21.3998 46 18.8998 46C16.3998 46 13.9998 45 12.1998 43.2C10.3998 41.4 9.39981 39 9.39981 36.5C9.39981 34 10.3998 31.6 12.1998 29.8C13.9998 28 16.3998 27 18.8998 27C21.3998 27 23.7998 28 25.5998 29.8L28.9998 33.2L51.9998 10.2C47.3998 7.50001 42.0998 5.89999 36.3998 5.89999C19.4998 5.89999 5.7998 19.6 5.7998 36.5C5.7998 53.4 19.4998 67.1 36.3998 67.1C42.0998 67.1 47.3998 65.5 51.9998 62.8L28.9998 39.8L25.5998 43.2Z" fill="#1F91B3"/>
<path d="M45.9001 43.2C45.1001 44 44.1001 44.7 43.0001 45.2L41.6001 45.8L55.9001 60.1C58.4001 58 60.6001 55.5 62.3001 52.8L49.3001 39.8L45.9001 43.2Z" fill="#1F91B3"/>
<path d="M64.6001 48.5C66.2001 44.8 67.0001 40.8 67.0001 36.5C67.0001 32.2 66.1001 28.2 64.6001 24.5L52.6001 36.5L64.6001 48.5Z" fill="#1F91B3"/>
<path d="M43.0001 27.8C44.1001 28.3 45.0001 28.9 45.9001 29.8L49.3001 33.2L62.3001 20.2C60.6001 17.4 58.4001 14.9 55.9001 12.9L41.6001 27.2L43.0001 27.8Z" fill="#1F91B3"/>
<path d="M39.2 31.6C37.9 31.6 36.7 32.1 35.8 33C33.9 34.9 33.9 38 35.8 39.9C36.7 40.8 37.9 41.3 39.2 41.3C40.5 41.3 41.7 40.8 42.6 39.9L46 36.5L42.6 33.1C41.7 32.1 40.5 31.6 39.2 31.6Z" fill="#1F91B3"/>
<path d="M18.9002 31.6C17.6002 31.6 16.4002 32.1 15.5002 33C13.6002 34.9 13.6002 38 15.5002 39.9C16.4002 40.8 17.6002 41.3 18.9002 41.3C20.2002 41.3 21.4002 40.8 22.3002 39.9L25.7002 36.5L22.3002 33.1C21.4002 32.1 20.2002 31.6 18.9002 31.6Z" fill="#1F91B3"/>
<path d="M36.5 73C16.3 73 0 56.6 0 36.5C0 16.4 16.4 0 36.5 0C56.6 0 73 16.4 73 36.5C73 56.6 56.6 73 36.5 73ZM36.5 2.29999C17.6 2.29999 2.3 17.6 2.3 36.5C2.3 55.4 17.6 70.7 36.5 70.7C55.4 70.7 70.7 55.4 70.7 36.5C70.7 17.6 55.3 2.29999 36.5 2.29999Z" fill="#1F91B3"/>
</svg>
