<svg width="188" height="45" viewBox="0 0 188 45" fill="none" xmlns="http://www.w3.org/2000/svg">
<path d="M16.3999 26.6C15.2999 27.7 13.8999 28.3 12.2999 28.3C10.7999 28.3 9.29991 27.7 8.19991 26.6C7.09991 25.5 6.49991 24.1 6.49991 22.5C6.49991 21 7.09991 19.5 8.19991 18.4C9.29991 17.3 10.6999 16.7 12.2999 16.7C13.7999 16.7 15.2999 17.3 16.3999 18.4L18.4999 20.5L32.3999 6.6C29.5999 5 26.3999 4 22.8999 4C12.6999 4 4.3999 12.3 4.3999 22.5C4.3999 32.7 12.6999 41 22.8999 41C26.3999 41 29.5999 40.1 32.3999 38.4L18.4999 24.5L16.3999 26.6Z" fill="#1F91B3"/>
<path d="M28.7001 26.6C28.2001 27.1 27.6001 27.5 27.0001 27.8L26.1001 28.2L34.8001 36.9C36.3001 35.6 37.6001 34.1 38.7001 32.5L30.8001 24.6L28.7001 26.6Z" fill="#1F91B3"/>
<path d="M39.9997 29.8001C40.8997 27.6001 41.4997 25.1001 41.4997 22.5001C41.4997 19.9001 40.9997 17.5001 39.9997 15.2001L32.6997 22.5001L39.9997 29.8001Z" fill="#1F91B3"/>
<path d="M27.0001 17.3C27.7001 17.6 28.2001 18 28.7001 18.5L30.8001 20.6L38.7001 12.7001C37.6001 11.0001 36.3001 9.50005 34.8001 8.30005L26.1001 17L27.0001 17.3Z" fill="#1F91B3"/>
<path d="M24.5998 19.6C23.7998 19.6 23.0998 19.9 22.4998 20.5C21.3998 21.6 21.3998 23.5 22.4998 24.7C23.0998 25.3 23.7998 25.6 24.5998 25.6C25.3998 25.6 26.0998 25.3 26.6998 24.7L28.7998 22.6L26.6998 20.5C26.1998 19.9 25.3998 19.6 24.5998 19.6Z" fill="#1F91B3"/>
<path d="M12.3 19.6C11.5 19.6 10.8 19.9 10.2 20.5C9.1 21.6 9.1 23.5 10.2 24.7C10.8 25.3 11.5 25.6 12.3 25.6C13.1 25.6 13.8 25.3 14.4 24.7L16.5 22.6L14.4 20.5C13.9 19.9 13.1 19.6 12.3 19.6Z" fill="#1F91B3"/>
<path d="M22.9999 44.6C10.7999 44.6 0.899902 34.7 0.899902 22.5C0.899902 10.3 10.7999 0.400024 22.9999 0.400024C35.1999 0.400024 45.0999 10.3 45.0999 22.5C45.0999 34.7 35.1999 44.6 22.9999 44.6ZM22.9999 1.80002C11.5999 1.80002 2.29991 11.1 2.29991 22.5C2.29991 33.9 11.5999 43.2 22.9999 43.2C34.3999 43.2 43.6999 33.9 43.6999 22.5C43.6999 11.1 34.3999 1.80002 22.9999 1.80002Z" fill="#1F91B3"/>
<path d="M57.2001 9.90002H61.6001V30.3H71.6001V34.3H57.1001V9.90002H57.2001Z" fill="#595757"/>
<path d="M77.9002 33.3C76.6002 32.5 75.5002 31.4 74.8002 30C74.1002 28.6 73.7002 27.1 73.7002 25.5C73.7002 23.9 74.1002 22.3 74.8002 20.9C75.5002 19.5 76.5002 18.4 77.9002 17.6C79.2002 16.8 80.8002 16.4 82.7002 16.4C84.5002 16.4 86.1002 16.8 87.5002 17.6C88.8002 18.4 89.9002 19.5 90.6002 20.9C91.3002 22.3 91.7002 23.8 91.7002 25.5C91.7002 27.1 91.3002 28.7 90.6002 30C89.9002 31.4 88.9002 32.5 87.5002 33.3C86.2002 34.1 84.6002 34.5 82.7002 34.5C80.8002 34.5 79.2002 34.1 77.9002 33.3ZM86.0002 29.5C86.8002 28.5 87.2002 27.2 87.2002 25.5C87.2002 23.8 86.8002 22.5 86.0002 21.5C85.2002 20.5 84.1002 20 82.7002 20C81.3002 20 80.2002 20.5 79.4002 21.5C78.6002 22.5 78.2002 23.8 78.2002 25.5C78.2002 27.1 78.6002 28.5 79.4002 29.5C80.2002 30.5 81.3002 31 82.7002 31C84.1002 31 85.2002 30.5 86.0002 29.5Z" fill="#595757"/>
<path d="M96.3001 41.6C94.8001 40.7 94.1001 39.5 94.1001 38C94.1001 36.3 95.0001 35 96.9001 33.9C95.9001 33.3 95.4001 32.5 95.4001 31.4C95.4001 30.9 95.6001 30.4 95.9001 30C96.2001 29.6 96.6001 29.2 97.2001 29C96.3001 28.4 95.7001 27.6 95.2001 26.6C94.7001 25.6 94.5001 24.6 94.5001 23.4C94.5001 22.1 94.8001 21 95.3001 19.9C95.9001 18.8 96.7001 18 97.7001 17.4C98.8001 16.8 100 16.5 101.5 16.5C103 16.5 104.3 16.9 105.5 17.6C105.9 17.4 106.4 17.2 107.1 17.1C107.8 16.9 108.5 16.9 109.2 16.9H110.3L110 19.6H108.4C108 19.6 107.7 19.6 107.4 19.6C108.1 20.7 108.4 21.9 108.4 23.4C108.4 24.7 108.1 25.8 107.6 26.9C107.1 28 106.2 28.8 105.2 29.4C104.1 30 102.9 30.3 101.4 30.3C100.9 30.3 100.3 30.2 99.6001 30.1C99.3001 30.2 99.2001 30.4 99.2001 30.7C99.2001 31 99.4001 31.2 99.7001 31.4C100.1 31.6 100.7 31.7 101.5 31.8L104.5 32.2C108.5 32.7 110.5 34.4 110.5 37.2C110.5 39 109.8 40.4 108.3 41.4C106.8 42.4 104.7 43 102.1 43C99.8001 42.9 97.8001 42.5 96.3001 41.6ZM106.8 37.5C106.8 36.9 106.5 36.4 106 36.1C105.5 35.8 104.6 35.5 103.5 35.4L99.7001 34.8C98.4001 35.3 97.7001 36.1 97.7001 37.2C97.7001 38 98.1001 38.7 98.9001 39.1C99.7001 39.5 100.9 39.7 102.3 39.7C105.3 39.7 106.8 38.9 106.8 37.5ZM103.9 26.1C104.4 25.4 104.7 24.5 104.7 23.4C104.7 22.2 104.4 21.3 103.9 20.7C103.4 20 102.6 19.7 101.6 19.7C100.6 19.7 99.8001 20 99.3001 20.7C98.8001 21.4 98.5001 22.3 98.5001 23.4C98.5001 24.6 98.8001 25.5 99.3001 26.1C99.8001 26.8 100.6 27.1 101.6 27.1C102.5 27.1 103.3 26.8 103.9 26.1Z" fill="#595757"/>
<path d="M114.6 9.90005H119V34.2H114.6V9.90005ZM119.4 21.3L128.4 9.80005H133.6L124.5 21.3L133.6 34.2H128.4L119.4 21.3Z" fill="#595757"/>
<path d="M137.3 16.8H141.3L141.4 18C142.9 17 144.4 16.5 146.1 16.5C148.3 16.5 149.9 17.2 151 18.7C152.1 20.1 152.7 22.1 152.7 24.5V34.2H148.4V24.9C148.4 23.3 148.1 22.1 147.6 21.3C147.1 20.5 146.2 20.1 145 20.1C143.7 20.1 142.6 20.6 141.7 21.6V34.2H137.4V16.8H137.3Z" fill="#595757"/>
<path d="M160.6 33.3C159.3 32.5 158.2 31.4 157.5 30C156.8 28.6 156.4 27.1 156.4 25.5C156.4 23.9 156.8 22.3 157.5 20.9C158.2 19.5 159.2 18.4 160.6 17.6C161.9 16.8 163.5 16.4 165.4 16.4C167.2 16.4 168.8 16.8 170.2 17.6C171.5 18.4 172.6 19.5 173.3 20.9C174 22.3 174.4 23.8 174.4 25.5C174.4 27.1 174 28.7 173.3 30C172.6 31.4 171.6 32.5 170.2 33.3C168.9 34.1 167.3 34.5 165.4 34.5C163.5 34.5 161.9 34.1 160.6 33.3ZM168.7 29.5C169.5 28.5 169.9 27.2 169.9 25.5C169.9 23.8 169.5 22.5 168.7 21.5C167.9 20.5 166.8 20 165.4 20C164 20 162.9 20.5 162.1 21.5C161.3 22.5 160.9 23.8 160.9 25.5C160.9 27.1 161.3 28.5 162.1 29.5C162.9 30.5 164 31 165.4 31C166.8 31 167.9 30.5 168.7 29.5Z" fill="#595757"/>
<path d="M180.1 33.2C179.3 32.3 178.9 31.2 178.9 30V20.4H176.4L176.8 16.9H178.9V13L183.2 12.5V16.8H187V20.3H183.2V28.2C183.2 29.1 183.3 29.8 183.4 30.1C183.5 30.5 183.7 30.7 184.1 30.8C184.4 30.9 185 31 185.9 31H187.1L186.7 34.5H183.6C182.1 34.5 180.9 34.1 180.1 33.2Z" fill="#595757"/>
</svg>
