<svg width="125" height="118" viewBox="0 0 125 118" fill="none" xmlns="http://www.w3.org/2000/svg">
<path d="M0 85.3H4.3V104.9H13.9V108.7H0V85.3Z" fill="#595757"/>
<path d="M19.8999 107.8C18.5999 107 17.5999 106 16.8999 104.7C16.1999 103.4 15.8999 101.9 15.8999 100.4C15.8999 98.8001 16.1999 97.4001 16.8999 96.0001C17.5999 94.7001 18.5999 93.6001 19.8999 92.8001C21.1999 92.0001 22.6999 91.6001 24.4999 91.6001C26.2999 91.6001 27.7999 92.0001 29.0999 92.8001C30.3999 93.6001 31.3999 94.6001 32.0999 96.0001C32.7999 97.3001 33.0999 98.8001 33.0999 100.4C33.0999 102 32.7999 103.4 32.0999 104.7C31.3999 106 30.3999 107.1 29.0999 107.8C27.7999 108.6 26.2999 109 24.4999 109C22.7999 109 21.1999 108.6 19.8999 107.8ZM27.6999 104.2C28.4999 103.2 28.8999 102 28.8999 100.4C28.8999 98.8001 28.4999 97.5001 27.6999 96.5001C26.8999 95.5001 25.8999 95.0001 24.4999 95.0001C23.0999 95.0001 22.0999 95.5001 21.2999 96.5001C20.4999 97.5001 20.0999 98.8001 20.0999 100.4C20.0999 102 20.4999 103.3 21.2999 104.2C22.0999 105.1 23.0999 105.6 24.4999 105.6C25.8999 105.6 26.8999 105.1 27.6999 104.2Z" fill="#595757"/>
<path d="M37.7001 115.8C36.3001 114.9 35.6001 113.8 35.6001 112.3C35.6001 110.7 36.5001 109.4 38.3001 108.4C37.3001 107.8 36.8001 107 36.8001 106C36.8001 105.5 37.0001 105 37.3001 104.6C37.6001 104.2 38.0001 103.9 38.5001 103.6C37.7001 103 37.0001 102.2 36.6001 101.3C36.2001 100.4 35.9001 99.3 35.9001 98.2C35.9001 97 36.2001 95.9 36.7001 94.8C37.2001 93.8 38.0001 93 39.0001 92.4C40.0001 91.8 41.2001 91.5 42.6001 91.5C44.1001 91.5 45.3001 91.9 46.4001 92.6C46.8001 92.4 47.3001 92.2 47.9001 92.1C48.5001 92 49.2001 91.9 50.0001 91.9H51.1001L50.8001 94.5H49.3001C48.9001 94.5 48.6001 94.5 48.4001 94.5C49.1001 95.5 49.4001 96.7 49.4001 98.2C49.4001 99.4 49.1001 100.5 48.6001 101.6C48.1001 102.6 47.3001 103.4 46.3001 104C45.3001 104.6 44.1001 104.9 42.7001 104.9C42.2001 104.9 41.6001 104.8 40.9001 104.7C40.7001 104.8 40.5001 105 40.5001 105.2C40.5001 105.5 40.7001 105.7 41.0001 105.9C41.3001 106.1 41.9001 106.2 42.8001 106.3L45.7001 106.7C49.5001 107.2 51.4001 108.8 51.4001 111.5C51.4001 113.2 50.7001 114.5 49.2001 115.5C47.8001 116.5 45.8001 117 43.2001 117C40.9001 117.1 39.1001 116.7 37.7001 115.8ZM47.8001 111.8C47.8001 111.2 47.6001 110.7 47.1001 110.4C46.6001 110.1 45.8001 109.9 44.7001 109.7L41.0001 109.2C39.7001 109.7 39.1001 110.5 39.1001 111.5C39.1001 112.3 39.5001 112.9 40.3001 113.3C41.1001 113.7 42.2001 113.9 43.6001 113.9C46.3001 113.9 47.8001 113.2 47.8001 111.8ZM44.9001 100.9C45.4001 100.3 45.7001 99.4 45.7001 98.3C45.7001 97.2 45.4001 96.3 44.9001 95.7C44.4001 95.1 43.6001 94.7 42.7001 94.7C41.7001 94.7 41.0001 95 40.4001 95.7C39.9001 96.3 39.6001 97.2 39.6001 98.3C39.6001 99.4 39.9001 100.3 40.4001 100.9C40.9001 101.5 41.7001 101.9 42.7001 101.9C43.6001 101.9 44.4001 101.5 44.9001 100.9Z" fill="#595757"/>
<path d="M55.2002 85.3H59.5002V108.7H55.2002V85.3ZM59.8002 96.3L68.5002 85.3H73.5002L64.8002 96.3L73.5002 108.7H68.5002L59.8002 96.3Z" fill="#595757"/>
<path d="M77 92H80.9L81 93.2C82.4 92.2 83.9 91.8 85.5 91.8C87.6 91.8 89.1 92.5 90.2 93.9C91.3 95.3 91.8 97.1 91.8 99.5V108.8H87.7V99.8C87.7 98.2 87.4 97.1 86.9 96.3C86.4 95.6 85.5 95.2 84.4 95.2C83.1 95.2 82.1 95.7 81.3 96.6V108.7H77V92Z" fill="#595757"/>
<path d="M99.3999 107.8C98.0999 107 97.0999 106 96.3999 104.7C95.6999 103.4 95.3999 101.9 95.3999 100.4C95.3999 98.8001 95.6999 97.4001 96.3999 96.0001C97.0999 94.7001 98.0999 93.6001 99.3999 92.8001C100.7 92.0001 102.2 91.6001 104 91.6001C105.8 91.6001 107.3 92.0001 108.6 92.8001C109.9 93.6001 110.9 94.6001 111.6 96.0001C112.3 97.3001 112.6 98.8001 112.6 100.4C112.6 102 112.3 103.4 111.6 104.7C110.9 106 109.9 107.1 108.6 107.8C107.3 108.5 105.8 109 104 109C102.3 109 100.7 108.6 99.3999 107.8ZM107.2 104.2C108 103.2 108.4 102 108.4 100.4C108.4 98.8001 108 97.5001 107.2 96.5001C106.4 95.5001 105.4 95.0001 104 95.0001C102.6 95.0001 101.6 95.5001 100.8 96.5001C99.9999 97.5001 99.5999 98.8001 99.5999 100.4C99.5999 102 99.9999 103.3 100.8 104.2C101.6 105.2 102.6 105.6 104 105.6C105.4 105.6 106.4 105.1 107.2 104.2Z" fill="#595757"/>
<path d="M118.2 107.7C117.4 106.8 117.1 105.8 117.1 104.6V95.3H114.7L115.1 91.9H117.1V88.2L121.2 87.8V92H124.9V95.4H121.2V103C121.2 103.9 121.3 104.5 121.3 104.9C121.4 105.2 121.6 105.5 121.9 105.6C122.2 105.7 122.8 105.8 123.7 105.8H124.8L124.4 109.2H121.4C120.1 109 119 108.6 118.2 107.7Z" fill="#595757"/>
<path d="M51.5998 43.2C49.7998 45 47.3998 46 44.8998 46C42.3998 46 39.9998 45 38.1998 43.2C36.3998 41.4 35.3998 39 35.3998 36.5C35.3998 34 36.3998 31.6 38.1998 29.8C39.9998 28 42.3998 27 44.8998 27C47.3998 27 49.7998 28 51.5998 29.8L54.9998 33.2L77.9998 10.2C73.3998 7.50002 68.0998 5.90002 62.3998 5.90002C45.4998 5.90002 31.7998 19.6 31.7998 36.5C31.7998 53.4 45.4998 67.1 62.3998 67.1C68.0998 67.1 73.3998 65.5 77.9998 62.8L54.9998 39.8L51.5998 43.2Z" fill="#1F91B3"/>
<path d="M71.9001 43.2001C71.1001 44.0001 70.1001 44.7001 69.0001 45.2001L67.6001 45.8L81.9001 60.1C84.4001 58 86.6001 55.5 88.3001 52.8L75.3001 39.8L71.9001 43.2001Z" fill="#1F91B3"/>
<path d="M90.6001 48.5C92.2001 44.8 93.0001 40.8 93.0001 36.5C93.0001 32.2 92.1001 28.2 90.6001 24.5L78.6001 36.5L90.6001 48.5Z" fill="#1F91B3"/>
<path d="M69.0001 27.8C70.1001 28.3 71.0001 28.9 71.9001 29.8L75.3001 33.2L88.3001 20.2C86.6001 17.4 84.4001 14.9 81.9001 12.9L67.6001 27.2L69.0001 27.8Z" fill="#1F91B3"/>
<path d="M65.2 31.6C63.9 31.6 62.7 32.1 61.8 33C59.9 34.9 59.9 38 61.8 39.9C62.7 40.8 63.9 41.3 65.2 41.3C66.5 41.3 67.7 40.8 68.6 39.9L72 36.5L68.6 33.1C67.7 32.1 66.5 31.6 65.2 31.6Z" fill="#1F91B3"/>
<path d="M44.9002 31.6C43.6002 31.6 42.4002 32.1 41.5002 33C39.6002 34.9 39.6002 38 41.5002 39.9C42.4002 40.8 43.6002 41.3 44.9002 41.3C46.2002 41.3 47.4002 40.8 48.3002 39.9L51.7002 36.5L48.3002 33.1C47.4002 32.1 46.2002 31.6 44.9002 31.6Z" fill="#1F91B3"/>
<path d="M62.5 73C42.3 73 26 56.6 26 36.5C26 16.4 42.3 0 62.5 0C82.7 0 99 16.4 99 36.5C99 56.6 82.6 73 62.5 73ZM62.5 2.3C43.6 2.3 28.3 17.6 28.3 36.5C28.3 55.4 43.6 70.7 62.5 70.7C81.4 70.7 96.7 55.4 96.7 36.5C96.7 17.6 81.3 2.3 62.5 2.3Z" fill="#1F91B3"/>
</svg>
