<svg width="30" height="30" viewBox="0 0 30 30" fill="none" xmlns="http://www.w3.org/2000/svg">
<path d="M7.15493e-08 24L0 30L6 30L6 24L7.15493e-08 24Z" fill="#040000"/>
<path d="M7.15498e-08 12L0 18L6 18L6 12L7.15498e-08 12Z" fill="#040000"/>
<path d="M7.15482e-08 9.15527e-05L0 6L6 6L6 9.16243e-05L7.15482e-08 9.15527e-05Z" fill="#040000"/>
<path d="M11.9999 24L11.9999 30L18 30L18 24L11.9999 24Z" fill="#040000"/>
<path d="M11.9999 12L11.9999 18L18 18L18 12L11.9999 12Z" fill="#040000"/>
<path d="M11.9999 9.15527e-05L11.9999 6L18 6L18 9.16243e-05L11.9999 9.15527e-05Z" fill="#040000"/>
<path d="M23.9999 24L23.9999 30L29.9998 30L29.9998 24L23.9999 24Z" fill="#040000"/>
<path d="M23.9999 12L23.9999 18L29.9998 18L29.9998 12L23.9999 12Z" fill="#040000"/>
<path d="M23.9999 9.15527e-05L23.9999 6L29.9998 6L29.9998 9.16243e-05L23.9999 9.15527e-05Z" fill="#040000"/>
</svg>
