<svg width="30" height="30" viewBox="0 0 30 30" fill="none" xmlns="http://www.w3.org/2000/svg">
<g clip-path="url(#clip0)">
<path d="M19.6324 22.1327C19.3344 21.7495 18.7822 21.6805 18.3991 21.9785L15.8203 23.9842V12.2461C15.8203 11.7607 15.4268 11.3672 14.9414 11.3672C14.456 11.3672 14.0625 11.7607 14.0625 12.2461V23.9842L11.4837 21.9785C11.1006 21.6805 10.5484 21.7495 10.2504 22.1327C9.95236 22.5158 10.0214 23.068 10.4045 23.366L14.0625 26.2111V29.1211C14.0625 29.6065 14.456 30 14.9414 30C15.4268 30 15.8203 29.6065 15.8203 29.1211V26.2111L19.4782 23.366C19.8614 23.068 19.9304 22.5158 19.6324 22.1327Z" fill="black"/>
<path d="M15.8203 29.1211V26.2111L19.4782 23.366C19.8614 23.068 19.9304 22.5158 19.6324 22.1327C19.3344 21.7495 18.7822 21.6805 18.3991 21.9785L15.8203 23.9842V12.2461C15.8203 11.7607 15.4268 11.3672 14.9414 11.3672V30C15.4268 30 15.8203 29.6065 15.8203 29.1211Z" fill="black"/>
<path d="M18.6914 30H11.1914C10.706 30 10.3125 29.6065 10.3125 29.1211C10.3125 28.6357 10.706 28.2422 11.1914 28.2422H18.6914C19.1768 28.2422 19.5703 28.6357 19.5703 29.1211C19.5703 29.6065 19.1768 30 18.6914 30Z" fill="black"/>
<path d="M18.6914 28.2422H14.9414V30H18.6914C19.1768 30 19.5703 29.6065 19.5703 29.1211C19.5703 28.6357 19.1768 28.2422 18.6914 28.2422Z" fill="black"/>
<path d="M23.3789 25.7227C19.7926 25.7227 16.875 22.805 16.875 19.2188C16.875 15.6325 19.7926 12.7148 23.3789 12.7148C26.9652 12.7148 29.8828 15.6325 29.8828 19.2188C29.8828 22.805 26.9652 25.7227 23.3789 25.7227Z" fill="#3CBCCF"/>
<path d="M6.50391 25.7227C2.91762 25.7227 0 22.805 0 19.2188C0 15.6325 2.91762 12.7148 6.50391 12.7148C10.0902 12.7148 13.0078 15.6325 13.0078 19.2188C13.0078 22.805 10.0902 25.7227 6.50391 25.7227Z" fill="#3CBCCF"/>
<path d="M14.9414 13.0078C11.3551 13.0078 8.4375 10.0902 8.4375 6.50391C8.4375 2.91762 11.3551 0 14.9414 0C18.5277 0 21.4453 2.91762 21.4453 6.50391C21.4453 10.0902 18.5277 13.0078 14.9414 13.0078Z" fill="#3CBCCF"/>
<path d="M21.4453 6.50391C21.4453 2.91762 18.5277 0 14.9414 0V13.0078C18.5277 13.0078 21.4453 10.0902 21.4453 6.50391Z" fill="#3CBCCF"/>
</g>
<defs>
<clipPath id="clip0">
<rect width="29.8828" height="30" fill="white"/>
</clipPath>
</defs>
</svg>
