<svg xmlns="http://www.w3.org/2000/svg" viewBox="0 0 252.05 42.57"><defs><style>.cls-1{fill:#fff;}</style></defs><g id="Layer_2" data-name="Layer 2"><g id="レイヤー_1" data-name="レイヤー 1"><polygon class="cls-1" points="216.36 6.38 214.55 6.38 214.55 25.53 229.77 25.53 229.77 23.76 216.36 23.76 216.36 6.38"/><path class="cls-1" d="M136.86,25.74a7.38,7.38,0,0,1-7.61-7.1V13.27a7.63,7.63,0,0,1,15.22,0v5.37A7.38,7.38,0,0,1,136.86,25.74Zm0-17.74a5.55,5.55,0,0,0-5.79,5.27v5.37a5.82,5.82,0,0,0,11.58,0V13.27A5.55,5.55,0,0,0,136.86,8Z"/><path class="cls-1" d="M246.41,8.08h5.64V6.38h-5.64a9.54,9.54,0,0,0-9.51,8.72h-2.17v1.71h2.17a9.55,9.55,0,0,0,9.51,8.72h5.64v-1.7h-5.64a7.86,7.86,0,0,1-7.8-7h11.94V15.1H238.61A7.87,7.87,0,0,1,246.41,8.08Z"/><path class="cls-1" d="M116,16.84h0l0-.06a5.26,5.26,0,0,0,4-3.05,5.25,5.25,0,0,0,0-4.34,5.25,5.25,0,0,0-3.34-2.87,4.15,4.15,0,0,0-.48-.11l-.13,0a4.47,4.47,0,0,0-.82-.08h-10v8.76H103v1.77h2.17v8.62H107V16.85h7c.34.53,1.5,2.52,4.87,8.42l.18.32,1.56-.77ZM107,8.09h8.25a3.48,3.48,0,0,1,3.47,3.48v.06a3.49,3.49,0,0,1-.06.65h0a3.49,3.49,0,0,1-3.41,2.78H107Z"/><rect class="cls-1" x="178.91" y="6.38" width="1.77" height="19.16"/><polygon class="cls-1" points="93.15 6.38 93.15 15.07 81.74 15.07 81.74 6.38 79.97 6.38 79.97 15.07 77.3 15.07 77.3 16.84 79.97 16.84 79.97 25.53 81.74 25.53 81.74 16.84 93.15 16.84 93.15 25.53 94.92 25.53 94.92 6.38 93.15 6.38"/><path class="cls-1" d="M69.8,25.53H64.14a9.58,9.58,0,0,1,0-19.15H69.8V8.11H64.14a7.84,7.84,0,0,0,0,15.68H69.8Z"/><path class="cls-1" d="M205.11,25.53h-5.65a9.58,9.58,0,1,1,0-19.15h5.65V8.11h-5.65a7.84,7.84,0,0,0,0,15.68h5.65Z"/><polygon class="cls-1" points="169.09 25.53 169.09 6.38 167.32 6.38 167.32 22.77 155.64 6.38 153.67 6.38 153.67 25.53 155.44 25.53 155.44 9.14 167.12 25.53 169.09 25.53"/><polygon class="cls-1" points="145.91 32.78 145.03 32.78 145.03 42.14 152.47 42.14 152.47 41.28 145.91 41.28 145.91 32.78"/><path class="cls-1" d="M140.73,34.28a2.53,2.53,0,0,0-1.63-1.4l-.23-.06h-.07a2.6,2.6,0,0,0-.4,0h-4.9v4.28h-1.06v.87h1.06v4.22h.87V37.93h4.08a2.56,2.56,0,0,0,2.29-1.52,2.51,2.51,0,0,0,.23-1A2.59,2.59,0,0,0,140.73,34.28Zm-.63,1.1a1.73,1.73,0,0,1,0,.32h0a1.69,1.69,0,0,1-1.66,1.36h-4V33.65h4a1.7,1.7,0,0,1,1.7,1.7Z"/><path class="cls-1" d="M162.78,32.78v6a3.73,3.73,0,0,1-7.45,0v-6h.89v6a2.85,2.85,0,0,0,5.67,0v-6Z"/><path class="cls-1" d="M169.34,33.64h4.84v-.86h-4.84a2.58,2.58,0,0,0-2.58,2.56,2.51,2.51,0,0,0,.65,1.69,2.57,2.57,0,0,0,1.89.86h2.32a1.7,1.7,0,1,1,0,3.4h-4.83v.86h4.83a2.59,2.59,0,0,0,2.59-2.57,2.49,2.49,0,0,0-.65-1.69,2.6,2.6,0,0,0-1.89-.85h-2.32a1.7,1.7,0,1,1,0-3.39Z"/><path class="cls-1" d="M21.29,42.57A21.29,21.29,0,1,1,42.57,21.29,21.31,21.31,0,0,1,21.29,42.57ZM21.29.8A20.49,20.49,0,1,0,41.77,21.29,20.51,20.51,0,0,0,21.29.8Z"/><polygon class="cls-1" points="25.46 36.85 25.46 35.24 24.36 36.85 25.46 36.85"/><path class="cls-1" d="M21.29,2.3a19,19,0,1,0,19,19A19,19,0,0,0,21.29,2.3Zm7.86,2.56a18.27,18.27,0,0,1,8.57,8.57H29.15ZM27,13.62l.52-.13-.84,2.23-2.38,1.42-3.76-.59-.28-1.23ZM13.46,4.86v8.57H4.88A18.34,18.34,0,0,1,13.46,4.86Zm0,32.84a18.34,18.34,0,0,1-8.58-8.57h8.58ZM14,26a5.1,5.1,0,0,1-.84-2.85,6.63,6.63,0,0,1,.55-2.56,9.61,9.61,0,0,1,4.86-4.72l.35-.15.14,1.3-.16.09a6,6,0,0,0-2.81,3.19,4.29,4.29,0,0,0-.24,1.4,3.68,3.68,0,0,0,.67,2.15,4.32,4.32,0,0,0,3.19,1.69l.23,0,.27,2.66,0,.29-.78,0A6.27,6.27,0,0,1,14,26Zm4.43,11.58v.34H16.13v-.81a.78.78,0,0,1,.85-.88h.72a.39.39,0,0,0,.32-.14.58.58,0,0,0,.11-.35.43.43,0,0,0-.43-.47H16.19v-.34H17.7a.77.77,0,0,1,.78.81.78.78,0,0,1-.78.84H17c-.35,0-.5.16-.5.53v.47Zm2.13.38c-.63,0-1.36-.17-1.36-1.52s.73-1.51,1.36-1.51S22,35.06,22,36.4,21.22,37.92,20.59,37.92Zm2.53,0h-.34v-3h.34Zm3.23-.68h-.54v.68h-.35V37.2H24v-.39l1.31-1.92h.53v2h.54Zm1.94-16.6c0,2.74-1.92,5.48-4.88,7l-.32.16-.61-2.64.19-.09a6.11,6.11,0,0,0,3-3.24l0-.09,2.13-1.33.42-.26Zm.86,17.1V29.13h8.57A18.27,18.27,0,0,1,29.15,37.7Z"/><path class="cls-1" d="M20.59,35.23c-.53,0-1,.09-1,1.17s.48,1.17,1,1.17,1-.08,1-1.17S21.12,35.23,20.59,35.23Z"/></g></g></svg>