<svg width="433" height="80" viewBox="0 0 433 80" fill="none" xmlns="http://www.w3.org/2000/svg">
<path d="M133.56 39.2951C133.56 39.2951 134.34 39.2951 134.463 39.5857C134.622 40.0797 134.699 40.5963 134.692 41.1152C134.692 41.1152 134.493 42.6447 134.493 42.9506C134.446 43.7244 134.328 44.4923 134.142 45.2449C134.038 45.9656 133.736 46.6434 133.27 47.2027C132.824 47.7826 132.218 48.2187 131.526 48.4569C130.823 48.5945 129.997 49.0381 129.094 49.2063C128.192 49.3746 127.412 49.3593 126.295 49.4816C125.148 49.6107 123.993 49.6669 122.839 49.6499C121.003 49.6499 118.25 49.6499 118.021 49.6499C117.791 49.6499 110.71 49.3899 109.975 49.3593C108.65 49.1299 107.364 48.7181 106.152 48.1357C105.588 47.8245 105.102 47.3909 104.729 46.8667C104.356 46.3426 104.105 45.7413 103.995 45.1073C103.842 43.9295 103.995 40.3199 103.873 39.2645C103.75 38.2092 104.056 28.6956 104.056 28.6956V20.8186L104.24 11.5498L104.439 1.08798C104.385 0.913505 104.385 0.727131 104.439 0.552654C104.546 0.292637 104.607 -0.0285599 105.31 0.00203032C106.014 0.0326205 108.981 0.00203032 109.455 0.0938009C110.427 0.166976 111.376 0.421164 112.254 0.84326C113.064 1.29582 113.784 1.89183 114.38 2.6022C115.104 3.41993 115.496 4.47783 115.482 5.56944C115.482 7.09895 115.573 15.3889 115.482 15.7101C115.471 16.1809 115.502 16.6518 115.573 17.1172C115.573 17.5761 115.665 30.4698 115.665 30.4698C115.665 30.4698 115.665 34.2019 115.665 34.6301C115.665 35.0584 115.573 37.0773 115.512 37.5209C115.518 38.0222 115.627 38.5169 115.833 38.9739C115.956 39.2339 116.308 39.3257 116.996 39.3563C117.684 39.3869 123.45 39.3563 123.45 39.3563L132.214 39.4481L133.56 39.2951Z" fill="white"/>
<path d="M170.757 31.0818C170.718 29.0969 170.461 27.1222 169.992 25.1932C169.588 23.7001 169.077 22.2382 168.463 20.8188C167.94 19.5091 167.189 18.3025 166.245 17.255C164.798 15.5723 162.929 14.3053 160.831 13.5842C156.571 11.8966 151.819 11.9515 147.6 13.7371C146.39 14.396 145.269 15.2082 144.266 16.1538C142.845 17.6009 141.569 19.1839 140.457 20.8799C137.398 24.9943 136.725 31.7853 138.27 36.6492C139.205 40.3674 141.116 43.7681 143.807 46.4992C148.029 50.3842 156.043 50.7054 161.396 49.4053C164.67 48.6099 166.627 45.2756 168.08 42.5072C169.886 38.9722 170.805 35.051 170.757 31.0818ZM159.943 31.3112C160.005 33.2472 159.8 35.1825 159.332 37.0621C158.919 38.5917 157.802 41.7424 154.116 41.7424C150.43 41.7424 149.39 37.6128 149.329 37.1539C149.267 36.6951 149.007 30.6076 148.977 29.7817C148.854 26.2944 150.002 20.9258 154.452 20.9258C155.521 20.8061 156.597 21.0803 157.479 21.6969C158.36 22.3135 158.986 23.2303 159.24 24.2754C159.671 26.5969 159.906 28.9504 159.943 31.3112Z" fill="white"/>
<path d="M207.343 29.7661C207.343 28.8025 207.144 26.4471 206.96 25.3305C205.431 15.7558 192.491 10.0354 184.171 13.9663C180.852 15.4958 178.221 19.5643 176.523 22.7303C175.792 24.651 175.409 26.6864 175.391 28.7413C174.934 33.4702 175.54 38.2416 177.166 42.7057C178.316 44.7056 179.881 46.4368 181.754 47.7837C185.348 50.4298 190.824 50.1544 194.587 48.1661C195.18 47.7098 195.728 47.1976 196.223 46.6366V47.1107C196.167 47.6274 196.07 48.1389 195.933 48.6402C195.81 49.252 195.428 51.3475 195.229 51.9899C194.823 52.8982 194.259 53.7269 193.562 54.4371C192.552 55.0765 191.469 55.5901 190.335 55.9666C188.955 56.2734 187.537 56.3714 186.128 56.2572C185.246 56.2384 184.369 56.1204 183.513 55.9054C182.52 55.6332 181.553 55.275 180.622 54.8347C180.42 54.7716 180.207 54.7513 179.996 54.775C179.785 54.7987 179.582 54.8659 179.399 54.9724C179.118 55.4063 178.882 55.8675 178.695 56.349C178.247 57.4405 177.869 58.5592 177.563 59.6986C177.411 60.5925 177.349 61.4995 177.38 62.4058C177.471 62.6505 177.471 62.7882 178.206 63.0788C180.925 63.6881 183.678 64.1375 186.45 64.4248C192.95 64.4248 199.512 65.006 203.473 58.8268C203.733 58.4138 205.003 55.6454 205.4 54.8347C205.798 54.0241 206.624 50.2462 206.777 49.4662C206.93 48.6861 207.266 42.8893 207.266 42.5834C207.266 42.2775 207.373 30.7297 207.343 29.7661ZM196.437 27.7624C196.437 29.4143 196.346 34.7217 196.346 34.9205C196.416 35.82 196.369 36.7248 196.208 37.6125C195.974 38.5496 195.426 39.3781 194.655 39.9599C193.884 40.5416 192.936 40.8414 191.971 40.8091C190.969 40.8199 189.988 40.5177 189.166 39.9447C188.343 39.3717 187.72 38.5564 187.383 37.6125C187.064 36.0302 186.829 34.4322 186.679 32.8251C186.679 32.0145 186.893 27.5177 186.863 26.7071C186.957 25.3414 187.299 24.0042 187.872 22.7609C188.307 22.1216 188.878 21.5868 189.544 21.1953C190.211 20.8038 190.956 20.5653 191.726 20.4973C192.638 20.5352 193.514 20.8559 194.235 21.415C195.005 21.963 195.669 22.6472 196.193 23.4339C196.477 24.8581 196.559 26.3153 196.437 27.7624Z" fill="white"/>
<path d="M288.499 24.6884C288.405 23.5611 288.131 22.4561 287.688 21.4153C286.882 19.717 285.796 18.166 284.476 16.8267C283.273 15.8093 281.995 14.8839 280.653 14.0583C279.995 13.7371 278.389 13.1253 277.334 12.7735C275.909 12.4302 274.454 12.2253 272.99 12.1617C272.99 12.1617 271.797 12.1617 271.154 12.1617C269.662 12.4361 268.198 12.8456 266.78 13.3854C265.486 14.0171 264.299 14.8481 263.262 15.8479C258.551 19.9317 257.389 26.5544 257.741 32.3666C257.832 33.8961 258.383 36.9551 258.735 38.7599C259.805 44.1897 264.853 49.2676 270.451 49.7724C274.632 50.0759 278.834 49.6516 282.87 48.5182C283.666 48.3193 286.205 46.9887 286.541 46.8816C286.878 46.7745 287.245 45.9792 287.275 45.5509C287.279 44.8472 287.181 44.1467 286.985 43.4708C286.737 42.6015 286.436 41.7484 286.082 40.9165C285.824 40.4444 285.415 40.0728 284.92 39.8612C284.665 39.8272 284.406 39.8812 284.186 40.0141C284.186 40.0141 283.253 40.4424 282.656 40.733C281.327 41.0664 279.97 41.2814 278.603 41.3754C277.762 41.4671 276.064 41.4671 275.544 41.4977C274.398 41.4239 273.263 41.2186 272.164 40.8859C270.91 40.5341 269.105 37.6128 268.891 37.0622C268.628 36.3319 268.57 35.544 268.722 34.7832C268.875 34.202 269.686 34.0643 269.778 34.0337C269.87 34.0031 276.324 34.202 276.446 34.1714C276.569 34.1408 280.53 34.1714 281.876 34.1714C283.222 34.1714 284.675 34.1714 285.746 34.1714C286.363 34.2291 286.985 34.1721 287.581 34.0031C287.994 33.7919 288.338 33.4685 288.575 33.0701C288.679 32.3455 288.735 31.6149 288.744 30.8829C288.788 28.815 288.706 26.7464 288.499 24.6884ZM278.358 26.6768C278.267 27.2274 277.578 27.3804 276.752 27.3192C274.443 27.1509 272.164 27.1662 269.824 27.0286C269.462 27.0535 269.099 27.0535 268.738 27.0286C268.569 27.0286 268.539 26.065 268.738 24.9331C269.232 23.4483 270.071 22.1013 271.185 21.0023C271.68 20.5238 272.283 20.1722 272.944 19.9775L274.106 19.7481C274.494 19.7034 274.887 19.7417 275.259 19.8603C275.63 19.979 275.973 20.1754 276.263 20.4364C277.126 21.3076 277.798 22.3495 278.236 23.4954C278.398 24.5477 278.439 25.6151 278.358 26.6768Z" fill="white"/>
<path d="M295.182 49.2981C295.182 49.2981 294.708 42.0329 294.708 41.1305C294.708 40.2281 295.09 31.3417 295.152 30.6075C295.213 29.8733 295.58 22.807 295.58 22.0117C295.58 21.2163 295.442 18.5091 295.35 17.4231C295.186 16.4631 294.827 15.547 294.295 14.7312C294.252 14.6791 294.222 14.6168 294.209 14.5501C294.197 14.4834 294.201 14.4146 294.223 14.3502C294.244 14.2858 294.282 14.228 294.332 14.1822C294.382 14.1365 294.443 14.1043 294.509 14.0888C295.837 13.6393 297.213 13.3467 298.608 13.217C299.644 13.3031 300.669 13.4927 301.667 13.7829C302.649 14.1213 303.561 14.6343 304.359 15.2971C304.788 15.6638 305.177 16.0739 305.522 16.5207C305.675 16.7196 306.164 16.3984 306.363 16.2913C307.457 15.4959 308.607 14.7803 309.804 14.15C311.024 13.6109 312.295 13.1958 313.598 12.9111C315.087 12.7939 316.584 12.8401 318.064 13.0487C319.484 13.5167 320.814 14.2255 321.995 15.1442C323.124 16.0548 324.016 17.225 324.595 18.555C325.165 19.8279 325.516 21.1878 325.635 22.5776C325.635 23.7706 325.727 26.6002 325.818 27.0437C325.91 27.4873 326.17 39.1116 326.17 39.1116C326.17 39.1116 326.017 44.9084 326.048 45.0614C325.91 45.8722 325.674 46.6633 325.344 47.4168C325.179 47.8676 324.887 48.2608 324.503 48.5486C323.786 48.8324 323.025 48.9927 322.255 49.0228C321.245 49.0228 319.196 49.191 318.553 49.1452C317.705 49.1541 316.881 48.8614 316.228 48.3192C313.261 45.459 314.316 39.6469 314.209 35.9302C314.209 34.8901 314.209 25.6213 314.011 24.8871C313.566 23.9484 312.817 23.1881 311.884 22.7305C311.005 22.4089 310.041 22.4089 309.162 22.7305C308.167 23.3693 307.24 24.1072 306.394 24.933C305.893 25.7667 305.614 26.7144 305.583 27.6861C305.583 28.665 305.705 30.0416 305.736 31.5864C305.766 33.1312 306.026 45.612 306.026 45.612C306.026 45.612 306.026 47.325 306.026 47.478C305.928 47.8106 305.743 48.1113 305.491 48.3498C305.066 48.7272 304.528 48.9531 303.962 48.9922C303.12 48.9922 300.903 49.1299 299.97 49.1604C299.037 49.191 297.415 49.1604 297.064 49.1604L295.182 49.2981Z" fill="white"/>
<path d="M364.011 30.1791C364.023 28.1172 363.776 26.0618 363.277 24.0611C362.557 21.684 361.338 19.4876 359.703 17.6178C358.068 15.7481 356.054 14.2478 353.794 13.2169C349.848 11.4427 344.617 12.238 340.686 13.5687C338.784 14.386 337.06 15.5652 335.608 17.0407C334.378 18.5707 333.321 20.2327 332.457 21.9963C331.972 23.4389 331.689 24.942 331.616 26.4624C331.616 27.3037 331.616 32.2593 331.616 33.2229C331.616 34.1865 332.136 36.5725 332.289 37.8114C332.852 39.6514 333.622 41.4216 334.583 43.0882C335.623 44.6711 336.939 46.0543 338.468 47.172C340.131 48.2747 341.944 49.1299 343.852 49.711C345.095 49.9224 346.354 50.0197 347.615 50.0016C349.027 50.0307 350.434 49.845 351.79 49.451C354.921 48.4806 357.707 46.6335 359.82 44.1283C361.085 42.5177 362.115 40.7359 362.879 38.8362C363.417 37.6417 363.714 36.3525 363.751 35.043C363.889 34.0182 364.088 33.0852 364.011 30.1791ZM352.525 36.0066C352.451 37.5486 351.889 39.0272 350.919 40.228C350.047 40.9622 349.389 41.987 347.936 41.9564C347.258 41.9023 346.598 41.7087 345.998 41.3876C345.397 41.0665 344.87 40.6248 344.449 40.0904C343.572 38.412 342.949 36.6132 342.598 34.7524C342.46 33.437 342.598 27.319 342.598 26.7378C342.849 25.3739 343.325 24.0611 344.005 22.8528C344.646 21.9778 345.445 21.2308 346.361 20.6503C346.855 20.4835 347.369 20.3807 347.89 20.3444C348.258 20.291 348.632 20.3109 348.991 20.4027C349.351 20.4946 349.689 20.6567 349.986 20.8797C350.811 21.3102 351.468 22.0049 351.852 22.8528C352.546 24.5699 352.919 26.4 352.953 28.252C352.922 30.3168 352.601 34.63 352.525 36.0066Z" fill="white"/>
<path d="M365.341 13.5228C365.674 13.3314 366.045 13.2165 366.427 13.1863C367.271 13.1076 368.119 13.077 368.966 13.0945C371.092 13.278 374.962 12.1003 376.369 14.3487C377.092 15.6352 377.716 16.9748 378.235 18.356C378.342 18.7996 379.535 23.4034 379.535 23.4034L382.747 36.6642L383.298 39.7233L383.68 39.815L384.965 32.7334L387.611 22.2104L390.012 13.8746C390.425 13.5708 390.885 13.3381 391.374 13.1863C392.169 13.1863 400.551 12.8192 400.214 14.3181C400.214 14.5475 399.45 17.3771 398.991 18.7843C398.532 20.1914 395.687 29.0626 395.687 29.0626L391.787 42.8282C391.787 42.8282 390.41 47.3402 390.349 47.6461C390.166 48.146 389.842 48.5818 389.416 48.9003C387.819 49.1941 386.204 49.3882 384.583 49.4815C383.742 49.4815 381.876 49.2674 380.56 49.2368C379.137 49.2545 377.747 48.8089 376.599 47.9673C375.375 47.0037 374.381 44.0212 374.121 43.5929C373.861 43.1647 369.425 26.5389 369.425 26.5389L365.54 14.5169C365.54 14.5169 365.081 13.7675 365.341 13.5228Z" fill="white"/>
<path d="M413.674 34.4618C414.256 34.4618 415.51 34.4618 416.014 34.4618C416.519 34.4618 424.488 34.8442 425.192 34.8136C425.895 34.783 428.541 34.8136 429.428 34.6607C430.251 34.556 431.043 34.2798 431.753 33.85C432.457 33.4371 432.564 32.3205 432.686 31.4334C432.808 30.5463 432.594 25.866 432.487 24.7036C432.219 23.1232 431.757 21.5821 431.111 20.115C430.153 18.281 428.856 16.6459 427.287 15.2971C424.693 13.4862 421.659 12.4083 418.505 12.1768C415.35 11.9453 412.191 12.5688 409.361 13.9817C401.714 17.9431 401.255 27.8391 401.805 35.2878C402.006 37.6443 402.705 39.9315 403.854 41.9984C405.004 44.0654 406.578 45.8652 408.474 47.2791C412.619 50.3381 417.651 50.124 422.515 49.4816C424.173 49.1356 425.793 48.6232 427.348 47.9521C428.672 47.4485 429.951 46.8345 431.172 46.1167C433.39 45.0001 430.988 40.4881 429.444 39.708C428.862 39.4174 428.113 39.708 426.905 40.121C425.268 40.6146 423.596 40.9828 421.903 41.2223C418.141 41.5435 413.277 39.8304 412.726 35.3642C412.711 34.8136 413.093 34.523 413.674 34.4618ZM412.955 26.126C413.063 25.5754 413.705 23.067 413.934 22.4246C414.325 21.5834 414.919 20.8527 415.663 20.2986C416.207 19.9808 416.794 19.7438 417.406 19.595C418.13 19.5916 418.846 19.7483 419.502 20.0539C420.36 20.5471 421.097 21.2266 421.658 22.0422C422.041 22.7764 422.301 22.8223 422.423 23.7553C422.505 24.6303 422.505 25.511 422.423 26.386C422.421 26.4684 422.403 26.5495 422.37 26.6249C422.336 26.7002 422.288 26.7682 422.229 26.825C422.169 26.8818 422.099 26.9263 422.022 26.956C421.945 26.9856 421.863 26.9999 421.781 26.9978C421.398 26.9978 417.942 27.1508 417.116 27.1202C416.29 27.0896 413.414 27.2273 413.277 27.2273C413.139 27.2273 412.803 26.6766 412.955 26.126Z" fill="white"/>
<path d="M253.886 15.7252C253.811 17.1429 253.484 18.536 252.922 19.8396C252.476 21.1762 251.842 22.4429 251.041 23.6022C250.429 24.6501 249.642 25.5862 248.716 26.3706C247.6 27.1659 246.254 27.6553 245.106 28.3895C247.658 29.7967 249.566 32.1374 250.429 34.9205L251.959 39.9832C252.663 41.9945 253.808 43.8233 255.308 45.3365C255.966 46.0859 256.41 46.2848 255.477 46.9578C254.544 47.6307 253.167 48.4873 252.983 48.579C252.397 48.8398 251.788 49.0447 251.163 49.1908C250.222 49.4199 249.257 49.5379 248.288 49.5426C246.652 49.4992 245.091 48.8444 243.913 47.7072C242.816 46.3319 242.042 44.7269 241.65 43.0116L239.095 35.5629C238.701 34.3192 238.002 33.1939 237.061 32.2898C235.928 31.4561 234.534 31.0547 233.13 31.1579C232.136 31.1579 230.071 30.6073 230.209 32.0145V35.7159L229.888 40.0597L230.209 47.9519V48.9461C229.116 49.0476 228.018 49.0834 226.921 49.0532C226.156 49.0532 225.391 49.3744 224.535 49.3744C222.646 49.5447 220.742 49.3895 218.906 48.9155C218.906 48.9155 218.906 47.8296 218.906 47.7531V37.1842L219.197 13.125L218.86 0.781877L219.365 0.292435C223.479 0.185369 225.039 0.445385 227.854 0.3995C230.668 0.353615 235.501 0.0783033 237.122 0.0783033C239.278 0.0238652 241.427 0.323554 243.485 0.965418C245.366 1.36311 247.132 2.17857 248.655 3.35145C250.248 4.84097 251.509 6.64937 252.356 8.65885C253.32 10.8927 253.84 13.2928 253.886 15.7252ZM230.393 8.64355C229.796 9.39301 230.148 11.3967 230.148 12.2226V22.3785C230.392 22.4101 230.638 22.4101 230.882 22.3785C233.589 22.3785 237 22.6692 239.264 21.3997C240.163 20.9361 240.896 20.2037 241.359 19.3042C241.902 18.0679 242.148 16.7218 242.078 15.3734C242.146 14.4166 242.023 13.4559 241.716 12.5472C241.409 11.6386 240.923 10.8003 240.289 10.0813C237.872 7.72585 234.048 8.44472 231.111 8.30706C230.972 8.292 230.832 8.31541 230.705 8.37474C230.578 8.43408 230.47 8.52706 230.393 8.64355Z" fill="white"/>
<path d="M43.8997 67.5299C44.3065 67.1264 44.8563 66.9 45.4292 66.9C46.0022 66.9 46.5519 67.1264 46.9587 67.5299L57.5429 78.007C57.9497 78.4105 58.4995 78.6369 59.0724 78.6369C59.6454 78.6369 60.1952 78.4105 60.6019 78.007L62.9574 75.6516C63.3609 75.2448 63.5873 74.695 63.5873 74.1221C63.5873 73.5491 63.3609 72.9994 62.9574 72.5926L52.4191 62.039C52.0156 61.6322 51.7892 61.0824 51.7892 60.5094C51.7892 59.9365 52.0156 59.3867 52.4191 58.9799L57.5123 53.8867C57.9229 53.4904 58.4712 53.269 59.0418 53.269C59.6124 53.269 60.1608 53.4904 60.5714 53.8867L71.1097 64.4403C71.5202 64.8365 72.0686 65.058 72.6392 65.058C73.2098 65.058 73.7581 64.8365 74.1687 64.4403L76.5394 62.0695C76.9357 61.659 77.1571 61.1106 77.1571 60.54C77.1571 59.9694 76.9357 59.4211 76.5394 59.0105L52.4497 34.7984C52.0462 34.3916 51.8198 33.8419 51.8198 33.2689C51.8198 32.6959 52.0462 32.1462 52.4497 31.7394L57.5429 26.6461C57.9535 26.2499 58.5018 26.0284 59.0724 26.0284C59.643 26.0284 60.1914 26.2499 60.6019 26.6461L84.8141 50.7971C85.2209 51.2006 85.7706 51.427 86.3436 51.427C86.9165 51.427 87.4663 51.2006 87.8731 50.7971L90.2285 48.4416C90.632 48.0348 90.8584 47.4851 90.8584 46.9121C90.8584 46.3392 90.632 45.7894 90.2285 45.3826L46.9893 2.06692C46.5787 1.67066 46.0304 1.44922 45.4598 1.44922C44.8892 1.44922 44.3409 1.67066 43.9303 2.06692L0.629903 45.352C0.226407 45.7588 0 46.3086 0 46.8815C0 47.4545 0.226407 48.0042 0.629903 48.411L3.04653 50.7971C3.45332 51.2006 4.00307 51.427 4.57604 51.427C5.149 51.427 5.69875 51.2006 6.10554 50.7971L43.8997 12.9876C44.3065 12.5841 44.8563 12.3577 45.4292 12.3577C46.0022 12.3577 46.5519 12.5841 46.9587 12.9876L52.052 18.0656C52.4482 18.4762 52.6697 19.0245 52.6697 19.5951C52.6697 20.1657 52.4482 20.714 52.052 21.1246L14.2578 58.9799C13.8616 59.3905 13.6401 59.9388 13.6401 60.5094C13.6401 61.0801 13.8616 61.6284 14.2578 62.039L16.6286 64.4097C17.0391 64.8059 17.5875 65.0274 18.1581 65.0274C18.7287 65.0274 19.277 64.8059 19.6876 64.4097L43.8997 40.2588C44.3065 39.8553 44.8563 39.6288 45.4292 39.6288C46.0022 39.6288 46.5519 39.8553 46.9587 40.2588L52.052 45.352C52.4555 45.7588 52.6819 46.3086 52.6819 46.8815C52.6819 47.4545 52.4555 48.0042 52.052 48.411L27.901 72.6232C27.4975 73.0299 27.2711 73.5797 27.2711 74.1527C27.2711 74.7256 27.4975 75.2754 27.901 75.6822L30.2565 78.007C30.6671 78.4033 31.2154 78.6247 31.786 78.6247C32.3566 78.6247 32.9049 78.4033 33.3155 78.007L43.8997 67.5299Z" fill="white"/>
<path d="M253.61 61.7331C253.761 61.7352 253.908 61.7793 254.035 61.8603C254.162 61.9414 254.264 62.0562 254.329 62.1919C254.638 62.7192 254.824 63.309 254.874 63.9178C254.925 64.5266 254.838 65.139 254.62 65.7098C254.192 66.7804 253.794 67.484 253.366 68.417C251.731 72.2634 249.089 75.5975 245.718 78.0682C244.721 78.7878 243.661 79.4174 242.552 79.9495C242.431 80.0006 242.297 80.0133 242.169 79.986C242.04 79.9586 241.923 79.8925 241.833 79.7966C241.295 79.1955 240.695 78.6521 240.044 78.1753C239.996 78.1467 239.957 78.1064 239.93 78.0581C239.902 78.0099 239.888 77.9554 239.888 77.9C239.888 77.8445 239.902 77.7901 239.93 77.7418C239.957 77.6936 239.996 77.6532 240.044 77.6247C241.599 76.9518 243.068 76.0942 244.418 75.0704C245.776 73.9279 246.988 72.6232 248.028 71.1854C249.367 69.4504 250.401 67.5006 251.087 65.4192C251.104 65.3705 251.109 65.3183 251.102 65.2672C251.095 65.2161 251.075 65.1674 251.045 65.1254C251.015 65.0834 250.976 65.0492 250.93 65.0258C250.884 65.0024 250.833 64.9904 250.781 64.9909C250.291 64.9909 249.053 64.7921 248.165 64.7921C247.018 64.7921 246.162 64.9909 245.412 64.9909C245.195 64.9915 244.981 65.043 244.787 65.1413C244.593 65.2395 244.425 65.3819 244.296 65.5568C243.29 66.9945 242.158 68.3406 240.916 69.5794C240.487 70.0115 239.912 70.2682 239.304 70.2993C238.696 70.3304 238.098 70.1337 237.627 69.7477C237.489 69.6253 237.336 69.5183 237.168 69.3959C237.117 69.3558 237.076 69.3047 237.048 69.2464C237.02 69.1881 237.005 69.1242 237.005 69.0594C237.005 68.9946 237.02 68.9307 237.048 68.8724C237.076 68.8141 237.117 68.763 237.168 68.7229C238.254 67.8926 239.277 66.9826 240.227 66.0004C241.164 64.9013 241.999 63.7186 242.72 62.4672C242.871 62.2268 243.081 62.029 243.33 61.8925C243.579 61.756 243.859 61.6853 244.143 61.6872H247.584L253.61 61.7331Z" fill="white"/>
<path d="M265.984 63.2625C265.984 64.792 265.724 66.4286 265.815 68.0193C265.815 68.9676 265.938 69.9312 265.984 70.8948C265.984 71.0205 265.934 71.1411 265.845 71.2301C265.756 71.319 265.635 71.3689 265.509 71.3689H264.148C263.755 71.3694 263.378 71.2188 263.093 70.9483C262.808 70.6778 262.638 70.3082 262.619 69.9159C262.619 69.1664 262.756 68.3864 262.726 67.6216V65.7251V63.1708V60.4788C262.725 60.4076 262.74 60.337 262.769 60.272C262.798 60.207 262.841 60.1492 262.895 60.1026C262.949 60.056 263.012 60.0217 263.081 60.0022C263.149 59.9826 263.221 59.9782 263.292 59.9894C264.049 60.141 264.73 60.5497 265.221 61.1461C265.712 61.7426 265.981 62.4903 265.984 63.2625ZM273.631 59.9129C273.63 59.8456 273.644 59.779 273.672 59.7177C273.699 59.6564 273.74 59.6019 273.791 59.5581C273.842 59.5143 273.903 59.4823 273.967 59.4643C274.032 59.4463 274.1 59.4428 274.166 59.4541C274.957 59.6191 275.667 60.0513 276.177 60.678C276.687 61.3047 276.965 62.0877 276.966 62.8955C277.08 64.5913 277.08 66.2929 276.966 67.9887C276.843 70.6007 275.984 73.1248 274.488 75.2692C273.364 76.6358 271.988 77.7731 270.434 78.6188C269.741 79.111 268.955 79.4594 268.125 79.6436C267.544 79.6436 267.222 78.8024 267.024 78.3588C266.938 78.1948 266.886 78.0152 266.871 77.8306C266.856 77.6461 266.879 77.4604 266.937 77.2848C266.996 77.1092 267.089 76.9471 267.212 76.8084C267.334 76.6697 267.484 76.5572 267.651 76.4775C268.976 75.9445 270.198 75.1835 271.26 74.2291C272.253 73.1371 272.939 71.8021 273.249 70.3595C273.556 69.0131 273.735 67.6406 273.784 66.2604C273.784 64.9603 273.57 63.599 273.57 62.2684L273.631 59.9129Z" fill="white"/>
<path d="M296.116 61.5495C294.97 65.8505 292.88 69.8423 289.998 73.2349C288.246 75.1461 286.176 76.7398 283.88 77.9458C283.544 78.1446 283.222 78.3282 282.886 78.4964C282.793 78.5659 282.681 78.6035 282.565 78.6035C282.289 78.6035 281.846 77.8999 281.647 77.7164C281.491 77.5504 281.374 77.3516 281.305 77.1346C281.235 76.9176 281.215 76.6878 281.246 76.4621C281.277 76.2363 281.358 76.0203 281.483 75.8298C281.608 75.6393 281.773 75.4791 281.968 75.3609C284.949 73.909 287.504 71.712 289.386 68.9829C290.401 67.346 291.232 65.602 291.864 63.7826C292.28 62.4467 292.567 61.074 292.721 59.6835C292.728 59.6371 292.746 59.5931 292.774 59.5549C292.801 59.5166 292.837 59.4852 292.878 59.463C292.92 59.4408 292.966 59.4285 293.012 59.4269C293.059 59.4254 293.106 59.4347 293.149 59.4541C294.063 59.8659 294.947 60.3413 295.795 60.8765C295.913 60.9395 296.009 61.0389 296.066 61.1601C296.124 61.2812 296.142 61.4177 296.116 61.5495Z" fill="white"/>
<path d="M301.378 71.4148C301.21 71.2472 301.077 71.0481 300.986 70.829C300.895 70.6098 300.848 70.3749 300.848 70.1377C300.848 69.9004 300.895 69.6655 300.986 69.4464C301.077 69.2272 301.21 69.0282 301.378 68.8605C303.305 67.0404 304.942 64.9756 306.716 63.0178C307.02 62.594 307.418 62.2456 307.878 61.9996C308.338 61.7535 308.849 61.6164 309.37 61.5986C309.892 61.5809 310.411 61.6831 310.886 61.8973C311.362 62.1115 311.783 62.4321 312.115 62.8343C313.859 64.6391 315.174 66.7498 316.811 68.6617C318.325 70.4643 319.982 72.142 321.766 73.6785C321.86 73.7534 321.924 73.8582 321.949 73.9752C321.974 74.0922 321.958 74.2143 321.904 74.3209C321.503 75.0049 321.053 75.6592 320.558 76.2787C320.513 76.3304 320.458 76.3719 320.396 76.4004C320.334 76.4288 320.267 76.4436 320.199 76.4436C320.13 76.4436 320.063 76.4288 320.001 76.4004C319.939 76.3719 319.884 76.3304 319.839 76.2787C318.692 75.1468 317.637 73.9079 316.597 72.669C315.989 71.9376 315.432 71.166 314.929 70.3595C314.157 69.3606 313.33 68.4058 312.452 67.4993C310.662 65.2662 310.326 64.9756 309.683 64.9756C308.781 64.9756 308.047 65.8015 307.496 66.5051C306.945 67.2087 306.196 68.0346 305.569 68.7994C304.544 70.0689 303.55 71.4454 302.785 72.1949C302.691 72.2864 302.565 72.3377 302.433 72.3377C302.302 72.3377 302.176 72.2864 302.082 72.1949L301.378 71.4148Z" fill="white"/>
<path d="M231.571 65.4648C231.571 63.5682 230.99 61.9316 229.093 61.9316L215.45 62.0387C215.073 62.0387 214.711 62.1886 214.444 62.4553C214.177 62.7221 214.027 63.0839 214.027 63.4612C214.027 63.6753 214.027 63.8894 214.027 64.1035C214.134 68.6921 214.15 73.2806 214.027 77.7774C214.027 77.8537 214.042 77.9293 214.072 77.9998C214.101 78.0703 214.144 78.1344 214.198 78.1883C214.252 78.2423 214.316 78.2851 214.386 78.3143C214.457 78.3435 214.532 78.3586 214.609 78.3586H230.821C231.02 78.3586 231.211 78.2796 231.351 78.1391C231.492 77.9985 231.571 77.8079 231.571 77.6091L231.372 73.6171L231.571 65.4648ZM228.145 75.3454C228.06 75.3681 227.97 75.3681 227.885 75.3454C226.156 75.4831 224.413 75.5902 222.669 75.5749C220.773 75.6295 218.876 75.486 217.01 75.1466C217.01 73.6171 217.209 72.0876 217.193 70.5581C217.193 68.7685 217.056 66.9943 217.01 65.2048C217.01 65.0628 217.066 64.9266 217.167 64.8263C217.267 64.7259 217.403 64.6695 217.545 64.6695H218.218C219.748 64.6695 220.099 64.4859 221.598 64.4859H224.55C225.086 64.4859 226.355 64.6542 226.875 64.7153C227.042 64.7113 227.208 64.7401 227.363 64.8002C227.519 64.8602 227.661 64.9504 227.782 65.0654C227.903 65.1805 228 65.3182 228.067 65.4707C228.135 65.6232 228.171 65.7875 228.175 65.9542C228.221 66.7489 228.221 67.5456 228.175 68.3403C228.175 69.1815 228.175 70.0075 228.175 70.8334C228.175 71.6593 228.175 72.3629 228.175 73.1429V74.2901C228.16 74.5348 228.359 75.1925 228.145 75.3454Z" fill="white"/>
<path d="M319.073 61.3811C319.442 61.7694 319.79 62.1779 320.113 62.6047L319.731 63.0177C319.602 63.1592 319.445 63.2722 319.27 63.3495C319.095 63.4268 318.905 63.4667 318.714 63.4667C318.522 63.4667 318.333 63.4268 318.158 63.3495C317.983 63.2722 317.826 63.1592 317.697 63.0177C317.227 62.5021 316.716 62.0263 316.167 61.5953L316.335 61.4117C316.508 61.2212 316.718 61.0683 316.953 60.9628C317.187 60.8573 317.441 60.8013 317.698 60.7985C317.955 60.7956 318.21 60.8459 318.446 60.9461C318.683 61.0464 318.897 61.1945 319.073 61.3811Z" fill="white"/>
<path d="M321.383 59.1786C321.765 59.5763 322.148 59.974 322.423 60.2952C322.283 60.4145 322.15 60.5422 322.025 60.6775C321.894 60.815 321.736 60.9243 321.561 60.9991C321.386 61.0738 321.198 61.1123 321.008 61.1123C320.818 61.1123 320.63 61.0738 320.455 60.9991C320.28 60.9243 320.122 60.815 319.991 60.6775C319.548 60.2018 319.079 59.7524 318.584 59.3316L318.691 59.2245C319.043 58.8634 319.523 58.656 320.027 58.6474C320.532 58.6388 321.019 58.8297 321.383 59.1786Z" fill="white"/>
<path d="M254.1 58.3529C254.498 58.7312 254.875 59.1293 255.232 59.5459C255.049 59.6682 254.651 59.8824 254.207 60.1883C254.007 60.3256 253.763 60.3857 253.521 60.3576C253.279 60.3295 253.056 60.2151 252.892 60.0353C252.425 59.4845 251.913 58.9729 251.363 58.5058L251.821 58.154C252.165 57.9159 252.581 57.8054 252.997 57.8417C253.413 57.8781 253.803 58.0589 254.1 58.3529Z" fill="white"/>
<path d="M258.015 57.6797C258.413 58.1079 258.765 58.5209 258.979 58.7962L257.924 59.4998C257.746 59.6201 257.529 59.6666 257.317 59.6295C257.106 59.5924 256.918 59.4746 256.792 59.301C256.308 58.6554 255.765 58.0563 255.17 57.5114L255.323 57.4044C255.725 57.1055 256.225 56.968 256.723 57.0189C257.221 57.0699 257.682 57.3056 258.015 57.6797Z" fill="white"/>
</svg>
