<?xml version="1.0" encoding="utf-8"?>
<!-- Generator: Adobe Illustrator 23.0.2, SVG Export Plug-In . SVG Version: 6.00 Build 0)  -->
<svg version="1.1" id="Layer_1" xmlns="http://www.w3.org/2000/svg" xmlns:xlink="http://www.w3.org/1999/xlink" x="0px" y="0px"
	 viewBox="0 0 38.8 30.9" style="enable-background:new 0 0 38.8 30.9;" xml:space="preserve">
<title>i_freecall</title>
<g>
	<g id="レイヤー_2">
		<path d="M28,14.5h4.2c0.3,0,0.5-0.3,0.5-0.6c0-0.3-0.2-0.4-0.5-0.5H28c-0.3,0-0.5,0.3-0.5,0.6C27.6,14.3,27.7,14.5,28,14.5"/>
		<path d="M21.5,21.2h4.2c0.3,0,0.5-0.2,0.5-0.5c0,0,0,0,0,0c0-0.3-0.2-0.5-0.5-0.5h-4.2c-0.3,0-0.5,0.2-0.5,0.5
			C21,21,21.2,21.2,21.5,21.2C21.5,21.2,21.5,21.2,21.5,21.2"/>
		<path d="M18.6,11.3h-3.6c-0.3,0-0.6,0.2-0.6,0.5c0,0,0,0,0,0c0,0.3,0.3,0.6,0.6,0.6H18c-0.1,1.7-0.9,2.7-2.7,3.4
			c-0.3,0.1-0.4,0.4-0.3,0.7c0,0,0,0,0,0c0.1,0.3,0.4,0.4,0.7,0.3c2.2-0.7,3.6-2.7,3.4-5C19.1,11.5,18.9,11.3,18.6,11.3"/>
		<path d="M18.5,18.2h-3.6c-0.3,0-0.6,0.2-0.6,0.5c0,0.3,0.2,0.6,0.5,0.6c0,0,0.1,0,0.1,0H18V22h-3.1c-0.3,0-0.6,0.2-0.6,0.5
			c0,0.3,0.2,0.6,0.5,0.6c0,0,0.1,0,0.1,0h3.6c0.3,0,0.6-0.3,0.5-0.6v-3.8C19.1,18.4,18.8,18.2,18.5,18.2"/>
		<path d="M22,14.4v-2.8c0-0.3-0.3-0.5-0.6-0.5c-0.3,0-0.4,0.2-0.5,0.5v2.8c0,0.3,0.3,0.5,0.6,0.5C21.8,14.8,22,14.6,22,14.4"/>
		<path d="M22.5,16.9c2.6-0.4,3.1-1.7,3.1-4.1v-1.2c0-0.3-0.3-0.5-0.6-0.5c-0.3,0-0.4,0.2-0.5,0.5v1.2c0,2.1-0.3,2.7-2.2,3
			c-0.3,0-0.5,0.3-0.5,0.6S22.2,16.9,22.5,16.9"/>
		<path d="M28.1,18.5c0.1,1.5-0.1,3-0.7,4.4c-0.1,0.3,0,0.6,0.2,0.8c0.3,0.1,0.6,0,0.8-0.2c0.7-1.5,1-3.2,0.9-4.9
			c0-0.3-0.3-0.5-0.6-0.5C28.4,18,28.2,18.2,28.1,18.5"/>
		<path d="M32.7,20.1c-0.3-0.1-0.6,0.1-0.7,0.4c-0.1,0.7-0.5,1.4-1.1,1.9v-4c0-0.3-0.3-0.5-0.6-0.5c-0.3,0-0.4,0.2-0.5,0.5v4.8
			c0,0.2,0.1,0.3,0.2,0.4c0.1,0.1,0.3,0.2,0.4,0.1c1.4-0.3,2.5-1.5,2.7-2.9C33.2,20.4,33,20.1,32.7,20.1"/>
		<path d="M34.7,5.9C30.5,2,25.1-0.1,19.4,0C8.7,0,0,7.1,0,15.8c0,1.9,0.5,3.7,1.5,5.2c0.3,0.4,0.8,0.5,1.2,0.2s0.5-0.8,0.2-1.2
			c-0.8-1.3-1.3-2.8-1.2-4.3c0-7.8,8-14.1,17.7-14.1c5.2-0.1,10.2,1.9,14.1,5.4c2.3,2.3,3.7,5.4,3.7,8.6c0,6.7-6.5,13.5-19,13.5
			c-2.8,0.1-5.5-0.8-7.6-2.6c-0.5-0.5-0.9-1-1.2-1.6l0.1,0.1c0.3,0,0.5,0,0.8-0.2c1-1.1,1.7-2.4,1.9-3.9c0.2-1.5-1.9-2-1.6-4.7
			c0.1-1.2,1.9-5,3.3-6.2c0.9-0.6,2-0.8,3.1-0.6C18.6,9.7,20,6.3,20.1,5c0.1-0.7-1.1-1.6-3-1.8c-1.3-0.1-2.6,0.4-3.6,1.2
			c-2.4,2-7.1,10.8-7.6,15.1c-0.2,1.5,0.3,3.1,1.4,4.2l0,0c0.2,1.5,0.9,2.9,2,4c2,2,5.1,3.1,8.8,3.1c6.1,0,11.4-1.6,15.2-4.6
			c3.4-2.5,5.4-6.4,5.5-10.6C38.8,11.9,37.3,8.4,34.7,5.9"/>
	</g>
</g>
</svg>
