<svg xmlns="http://www.w3.org/2000/svg" viewBox="0 0 38.84 30.88"><defs><style>.cls-1{fill:#fff;}</style></defs><title>i_freecall</title><g id="Layer_2" data-name="Layer 2"><g id="レイヤー_2" data-name="レイヤー 2"><path class="cls-1" d="M28,14.52h4.24a.56.56,0,0,0,0-1.11H28a.56.56,0,0,0,0,1.11"/><path class="cls-1" d="M21.55,21.24h4.23a.54.54,0,0,0,.55-.55.55.55,0,0,0-.55-.55H21.55a.55.55,0,0,0-.55.55.54.54,0,0,0,.55.55"/><path class="cls-1" d="M18.56,11.3H14.91a.55.55,0,0,0-.56.55.56.56,0,0,0,.56.55H18c-.13,1.73-.9,2.68-2.71,3.42a.55.55,0,0,0-.3.72.56.56,0,0,0,.72.31,4.83,4.83,0,0,0,3.41-5,.55.55,0,0,0-.55-.55"/><path class="cls-1" d="M18.52,18.19H14.91a.56.56,0,1,0,0,1.11H18V22H14.91a.56.56,0,1,0,0,1.11h3.61a.56.56,0,0,0,.55-.56V18.74a.55.55,0,0,0-.55-.55"/><path class="cls-1" d="M22,14.38V11.6a.56.56,0,0,0-1.11,0v2.78a.56.56,0,0,0,1.11,0"/><path class="cls-1" d="M22.47,16.88c2.65-.44,3.12-1.68,3.12-4.12V11.6a.56.56,0,0,0-1.11,0v1.16c0,2.13-.26,2.71-2.19,3a.55.55,0,0,0,.18,1.09"/><path class="cls-1" d="M28.13,18.49a8.92,8.92,0,0,1-.72,4.4.57.57,0,0,0,.23.75.56.56,0,0,0,.75-.24,10,10,0,0,0,.85-4.91.56.56,0,0,0-1.11,0"/><path class="cls-1" d="M32.68,20.07a.56.56,0,0,0-.67.41,3.08,3.08,0,0,1-1.15,1.87v-4a.56.56,0,0,0-1.11,0v4.77a.53.53,0,0,0,.2.42.54.54,0,0,0,.44.13,3.55,3.55,0,0,0,2.69-2.94.56.56,0,0,0-.4-.68"/><path class="cls-1" d="M34.67,5.86A21.86,21.86,0,0,0,19.42,0C8.71,0,0,7.07,0,15.76A9.45,9.45,0,0,0,1.53,21,.84.84,0,0,0,2.92,20a7.68,7.68,0,0,1-1.24-4.27c0-7.76,8-14.09,17.74-14.09A20.17,20.17,0,0,1,33.48,7.05a12,12,0,0,1,3.68,8.61c0,6.73-6.53,13.54-19,13.54a10.76,10.76,0,0,1-7.59-2.6A5.43,5.43,0,0,1,9.4,25l.13.08a1,1,0,0,0,.76-.2A6.94,6.94,0,0,0,12.2,21c.17-1.49-1.95-2-1.65-4.74.13-1.2,1.87-5,3.26-6.16a4,4,0,0,1,3.06-.63C18.58,9.67,20,6.32,20.09,5c.08-.71-1.08-1.59-3-1.79a5,5,0,0,0-3.56,1.2C11.11,6.37,6.4,15.25,5.94,19.53A5.31,5.31,0,0,0,7.3,23.72l0,0a6.64,6.64,0,0,0,2,4c2,2,5.1,3.09,8.77,3.09,6.14,0,11.4-1.6,15.21-4.62a13.47,13.47,0,0,0,5.49-10.6,13.65,13.65,0,0,0-4.17-9.8"/></g></g></svg>