<svg xmlns="http://www.w3.org/2000/svg" viewBox="0 0 1150 1150"><defs><style>.cls-1{fill:#1c9857;}.cls-1,.cls-2,.cls-3,.cls-4,.cls-5,.cls-6,.cls-7,.cls-8{fill-rule:evenodd;}.cls-2{fill:#d53f35;}.cls-3{fill:#3e7bef;}.cls-4{fill:#fcd53c;}.cls-5{fill:#edeeed;}.cls-6{fill:#cacbc8;}.cls-7{fill:#fcfdfc;}.cls-8{fill:#752622;}</style></defs><title>i_map</title><g id="Layer_2" data-name="Layer 2"><g id="Layer_1-2" data-name="Layer 1"><path class="cls-1" d="M.15,1056.18c0-1.58-.14-3.16-.14-4.74Q0,627.33,0,203.23c0-37.89,21.3-69.46,55.86-82.73a89.58,89.58,0,0,1,32.5-5.57Q246.19,115,404,115q111,0,222,0c2,0,4,.06,6,.1a21.11,21.11,0,0,1-1.1,1.83q-48.59,66.54-55.15,148.68c-3.63,46,4.58,89.78,24.33,131.47,6.28,13.26,13.67,25.89,20.85,38.65-1,1-2.09,2-3.11,3Q311.23,745.4,4.55,1052.09C3.14,1053.5,1.62,1054.82.15,1056.18ZM318.75,303v-.12c-23.57,0-47.14.07-70.7-.08-3.28,0-4,.89-4,4.08.16,17.24.2,34.49,0,51.73-.05,3.78.86,4.78,4.71,4.75,25.58-.19,51.16-.1,76.73-.1,4.75,0,4.75,0,3.14,4.64a81.63,81.63,0,0,1-11.47,22.07c-21.91,29.51-51.95,39.77-87.25,34.72-53.49-7.66-89.53-58.76-79.55-111.42,13.44-70.86,96.07-101.86,152.94-57.31,2.37,1.85,3.5,1.72,5.51-.33q19.38-19.65,39-39c2.23-2.18,2.58-3.26-.08-5.48-42.25-35.18-90.36-46.86-143.45-33.32-76.13,19.43-125.88,91-117.1,169.09,7,62.38,41,106,98.62,130.54,30.67,13.07,62.8,13.89,95.22,8,27.64-5.05,52.56-16.24,72-36.84,38.07-40.29,48.09-89,40.76-142.5-.41-3-2-3.09-4.34-3.09C365.88,303,342.31,303,318.75,303Z"/><path class="cls-2" d="M621,435.7c-7.18-12.76-14.57-25.39-20.85-38.65-19.75-41.69-28-85.44-24.33-131.47Q582.3,183.37,631,116.9a21.11,21.11,0,0,0,1.1-1.83c11-13.81,22.54-27.19,35.64-39.13C711.14,36.36,761.79,11.33,820,3.2c83.46-11.67,158.91,8.55,224.38,61.89,57.11,46.54,91.05,107,102.41,179.87,9.88,63.37-3.08,122.35-35.29,177.49-19.38,33.19-42.48,63.74-65.69,94.24-3.73,4.91-7.34,9.91-11,14.87-.66.75-1.37,1.45-2,2.24-14.3,18.73-28.31,37.67-41.73,57-35.26,50.91-64.33,105-84.17,163.82-12.7,37.66-21.31,76.27-27.2,115.53-1.18,7.84-2.45,15.79-10.42,20.2-.84.14-1.68.25-2.51.42-10.26,2-17-2-19.78-12-1.22-4.38-1.9-8.91-2.82-13.37a5,5,0,0,0,0-.86,635.66,635.66,0,0,0-31.3-124.18C793.66,687.72,767,639,735.2,593c-11.49-16.67-23.16-33.2-35.76-49.07-1.05-1.52-2.06-3.09-3.18-4.57Q679.13,516.7,662,494.1C647.54,475.17,634.1,455.56,621,435.7Zm241.46-249c-56,.6-100.71,44.89-100.67,100.85.05,55.59,44.18,100.67,100.8,100.54C918.78,387.94,962.9,343.7,963,287.6,963.13,231,918.08,187.33,862.46,186.68Z"/><path class="cls-3" d="M941.11,1149.85c-1.58.05-3.16.14-4.74.14H98.54c-1.57,0-3.15-.09-4.73-.14,1.16-1.26,2.26-2.58,3.48-3.79Q305.6,937.71,513.93,729.38c1.2-1.21,2.56-2.27,3.84-3.4,1,1,2,2.11,3,3.12l416,416C938.23,1146.66,939.65,1148.28,941.11,1149.85Z"/><path class="cls-4" d="M517.77,726c-1.28,1.13-2.64,2.19-3.84,3.4Q305.6,937.71,97.29,1146.06c-1.22,1.21-2.32,2.53-3.48,3.79-55.24,2.93-96.64-38.48-93.66-93.67,1.47-1.36,3-2.68,4.4-4.09Q311.22,745.4,617.89,438.69c1-1,2.07-2,3.11-3,13.1,19.86,26.54,39.47,41,58.4q17.19,22.57,34.3,45.22c1.12,1.48,2.13,3,3.18,4.57l-86.22,86.2c-.7.71-1.29,1.53-1.94,2.29-.87.74-1.79,1.43-2.59,2.24Q564.31,679,520,723.35C519.16,724.15,518.5,725.1,517.77,726Z"/><path class="cls-5" d="M517.77,726c.73-.88,1.39-1.83,2.19-2.63Q564.3,679,608.69,634.62c.8-.81,1.72-1.5,2.59-2.24,1.35,1.48,2.63,3,4.05,4.45Q727.7,749.24,840.08,861.61c1.31,1.32,2.72,2.54,4.09,3.81.92,4.46,1.6,9,2.82,13.37,2.77,10.05,9.52,14,19.78,12,.83-.17,1.67-.28,2.51-.42.94,1.08,1.81,2.23,2.82,3.24q79.24,79.29,158.53,158.55c1.2,1.19,2.19,2.72,4.09,3,3.94,55.17-38.09,97.69-93.61,94.69-1.46-1.57-2.88-3.19-4.4-4.71l-416-416C519.73,728.09,518.76,727,517.77,726Z"/><path class="cls-6" d="M1034.72,1055.16c-1.9-.26-2.89-1.79-4.09-3Q951.34,972.92,872.1,893.63c-1-1-1.88-2.16-2.82-3.24,8-4.41,9.24-12.36,10.42-20.2,5.89-39.26,14.5-77.87,27.2-115.53,19.84-58.84,48.91-112.91,84.17-163.82,13.42-19.37,27.43-38.31,41.73-57,.6-.79,1.31-1.49,2-2.24,0,1.43.14,2.87.14,4.3q0,257.51,0,515C1034.91,1052.3,1034.79,1053.73,1034.72,1055.16Z"/><path class="cls-7" d="M318.75,303c23.56,0,47.13,0,70.7,0,2.34,0,3.93.05,4.34,3.09,7.33,53.51-2.69,102.21-40.76,142.5-19.46,20.6-44.38,31.79-72,36.84-32.42,5.93-64.55,5.11-95.22-8-57.65-24.57-91.6-68.16-98.62-130.54-8.78-78.06,41-149.66,117.1-169.09,53.09-13.54,101.2-1.86,143.45,33.32,2.66,2.22,2.31,3.3.08,5.48q-19.65,19.37-39,39c-2,2-3.14,2.18-5.51.33-56.87-44.55-139.5-13.55-152.94,57.31-10,52.66,26.06,103.76,79.55,111.42,35.3,5.05,65.34-5.21,87.25-34.72a81.63,81.63,0,0,0,11.47-22.07c1.61-4.62,1.61-4.64-3.14-4.64-25.57,0-51.15-.09-76.73.1-3.85,0-4.76-1-4.71-4.75.22-17.24.18-34.49,0-51.73,0-3.19.73-4.11,4-4.08,23.56.15,47.13.08,70.7.08Z"/><path class="cls-8" d="M862.46,186.68C918.08,187.33,963.13,231,963,287.6c-.12,56.1-44.24,100.34-100.43,100.47-56.62.13-100.75-44.95-100.8-100.54C761.75,231.57,806.45,187.28,862.46,186.68Z"/><path class="cls-6" d="M844.17,865.42c-1.37-1.27-2.78-2.49-4.09-3.81Q727.69,749.23,615.33,636.83c-1.42-1.42-2.7-3-4.05-4.45.65-.76,1.24-1.58,1.94-2.29l86.22-86.2c12.6,15.87,24.27,32.4,35.76,49.07,31.75,46,58.46,94.76,77.71,147.42a635.66,635.66,0,0,1,31.3,124.18A5,5,0,0,1,844.17,865.42Z"/></g></g></svg>