<svg xmlns="http://www.w3.org/2000/svg" viewBox="0 0 10.52 10.51"><defs><style>.cls-1{fill:none;stroke:#fff;stroke-linecap:round;stroke-linejoin:round;stroke-width:0.28px;}</style></defs><title>i_tel</title><g id="Layer_2" data-name="Layer 2"><g id="Layer_1-2" data-name="Layer 1"><path class="cls-1" d="M10.38,8.21a.49.49,0,0,1-.16.44L8.78,10.08a.8.8,0,0,1-.25.18,1,1,0,0,1-.31.1H8a4.45,4.45,0,0,1-.66-.07A4.86,4.86,0,0,1,6.22,10a9.27,9.27,0,0,1-1.51-.82,11,11,0,0,1-1.8-1.52A11.85,11.85,0,0,1,1.65,6.18a10.3,10.3,0,0,1-.8-1.27A6.48,6.48,0,0,1,.39,3.86a4.73,4.73,0,0,1-.2-.81,2.37,2.37,0,0,1,0-.54c0-.13,0-.2,0-.21A1.12,1.12,0,0,1,.25,2a.73.73,0,0,1,.19-.26L1.88.29A.46.46,0,0,1,2.22.14a.41.41,0,0,1,.25.08l.19.2,1.16,2.2A.55.55,0,0,1,3.87,3a.73.73,0,0,1-.18.35l-.53.53,0,.07L3.1,4a2,2,0,0,0,.2.52,4.42,4.42,0,0,0,.4.64,8.5,8.5,0,0,0,.77.86,6.77,6.77,0,0,0,.86.77A5.32,5.32,0,0,0,6,7.23a1.23,1.23,0,0,0,.39.15l.13,0h.07l.08,0,.61-.63a.66.66,0,0,1,.46-.17A.6.6,0,0,1,8,6.62H8L10.1,7.86A.53.53,0,0,1,10.38,8.21Z"/></g></g></svg>