<svg xmlns="http://www.w3.org/2000/svg" viewBox="0 0 294.87 52.06"><defs><style>.cls-1,.cls-2{fill:#fff;}.cls-2{opacity:0.5;}</style></defs><title>logo_white</title><g id="Layer_2" data-name="Layer 2"><g id="グローバルナビ"><path class="cls-1" d="M3.39,23.38c0-5.47,0-6.44-.08-7.57s-.39-1.76-1.67-2a8.07,8.07,0,0,0-1.33-.1c-.15,0-.31-.07-.31-.22s.2-.28.62-.28c1.76,0,4.1.11,4.41.11.86,0,3.11-.11,4.91-.11,4.87,0,6.62,1.48,7.24,2a5.82,5.82,0,0,1,1.95,4.18c0,5-4.06,8.34-9.59,8.34a7.58,7.58,0,0,1-.82,0c-.18,0-.42-.08-.42-.25s.24-.32,1-.32c3.78,0,6.75-2.48,6.75-5.71A7,7,0,0,0,13.91,16a7.25,7.25,0,0,0-5.33-1.76,5.6,5.6,0,0,0-1.68.21c-.23.08-.32.32-.32.67V29.55c0,3.37,0,6.14.19,7.61.13,1,.36,1.79,1.53,1.93.55.07,1.4.13,1.75.13s.31.11.31.22-.19.28-.62.28c-2.14,0-4.6-.11-4.79-.11s-2.57.11-3.74.11c-.42,0-.61-.07-.61-.28s.07-.22.3-.22a6.65,6.65,0,0,0,1.17-.13c.78-.14,1-.92,1.13-1.93.19-1.47.19-4.24.19-7.61Z"/><path class="cls-1" d="M27,23.38c0-5.47,0-6.44-.07-7.57s-.4-1.76-1.68-2a8,8,0,0,0-1.32-.1c-.15,0-.32-.07-.32-.22s.2-.28.63-.28c1.75,0,4.2.11,4.39.11.45,0,3.4-.11,4.61-.11,2.46,0,5.06.22,7.12,1.54A6,6,0,0,1,43,19.53c0,2.59-1.21,5.18-4.71,8.09,3.2,3.68,5.85,6.81,8.11,9a8.25,8.25,0,0,0,4.75,2.53,10.77,10.77,0,0,0,1.52.1c.2,0,.35.11.35.22s-.24.28-.94.28H49.34a8.55,8.55,0,0,1-4.17-.67c-1.68-.81-3-2.52-5.26-5.14-1.64-1.93-3.48-4.29-4.24-5.2a.69.69,0,0,0-.51-.2l-4.8-.08a.24.24,0,0,0-.28.28v.84a74.67,74.67,0,0,0,.2,7.61c.12,1,.35,1.79,1.53,1.93.54.07,1.4.13,1.75.13s.31.11.31.22-.2.28-.64.28c-2.13,0-4.58-.11-4.78-.11,0,0-2.49.11-3.66.11-.43,0-.62-.07-.62-.28s.08-.22.31-.22a6.54,6.54,0,0,0,1.16-.13c.79-.14,1-.92,1.14-1.93.19-1.47.19-4.24.19-7.61Zm3.11,3.05a.45.45,0,0,0,.28.42,11.71,11.71,0,0,0,4.09.56,5.46,5.46,0,0,0,2.92-.66c1.36-.85,2.38-2.74,2.38-5.41,0-4.37-2.57-7-6.74-7a12.82,12.82,0,0,0-2.61.21.42.42,0,0,0-.32.42Z"/><path class="cls-1" d="M56.35,23.38c0-5.47,0-6.44-.08-7.57s-.39-1.76-1.68-2a8,8,0,0,0-1.32-.1c-.16,0-.31-.07-.31-.22s.2-.28.62-.28c.9,0,1.94,0,2.82,0l1.58.07c.27,0,8,0,8.93,0a12.55,12.55,0,0,0,1.67-.17c.19,0,.36-.18.55-.18s.15.14.15.32-.2.66-.31,1.65c0,.34-.11,1.89-.2,2.31,0,.17-.11.39-.27.39s-.31-.18-.31-.46A3.51,3.51,0,0,0,68,15.88c-.28-.56-.67-1-2.77-1.19-.66-.07-4.91-.11-5.34-.11-.15,0-.22.11-.22.36v9.67c0,.25,0,.35.22.35.51,0,5.31,0,6.19-.07s1.48-.14,1.84-.49.43-.46.57-.46.21.07.21.28-.21.81-.32,2c-.07.7-.15,2-.15,2.24s0,.66-.27.66-.28-.13-.28-.31a3.39,3.39,0,0,0-.15-1.16c-.16-.49-.5-1.08-2-1.22-1.06-.11-4.91-.18-5.58-.18-.19,0-.26.1-.26.25v3.08c0,1.2-.05,5.26,0,6,.1,2.41.69,2.87,4.52,2.87A12.5,12.5,0,0,0,67.88,38c1-.39,1.48-1.08,1.75-2.53.08-.39.16-.53.35-.53s.24.29.24.53a30.1,30.1,0,0,1-.51,3.4c-.27.91-.58.91-2.1.91-2.93,0-5.07-.06-6.59-.1s-2.45-.11-3-.11c-.08,0-.73,0-1.55,0s-1.68.07-2.27.07c-.43,0-.62-.07-.62-.28s.08-.22.31-.22A6.55,6.55,0,0,0,55,39.09c.78-.14,1-.92,1.14-1.93.19-1.47.19-4.24.19-7.61Z"/><path class="cls-1" d="M103.35,29.55c0,3.37,0,6.14.19,7.61.11,1,.36,1.79,1.52,1.93.55.07,1.41.13,1.75.13s.31.11.31.22-.19.28-.62.28c-2.14,0-4.59-.11-4.79-.11s-2.65.11-3.82.11c-.43,0-.62-.07-.62-.28s.08-.22.31-.22a6.54,6.54,0,0,0,1.16-.13c.78-.14,1-.92,1.13-1.93a71.13,71.13,0,0,0,.21-7.61V23.38c0-5.47,0-6.44-.09-7.57s-.47-1.79-1.33-2a5.79,5.79,0,0,0-1.2-.13c-.15,0-.3-.07-.3-.22s.19-.28.62-.28c1.28,0,3.73.11,3.93.11s2.65-.11,3.81-.11c.43,0,.62.07.62.28s-.15.22-.31.22a6.42,6.42,0,0,0-1,.1c-1,.18-1.36.77-1.44,2s-.07,2.1-.07,7.57Z"/><path class="cls-1" d="M114.11,39.27c-.55-.25-.59-.39-.59-1.34,0-1.75.17-3.15.2-3.71,0-.39.12-.57.32-.57s.27.11.27.39a6,6,0,0,0,.11,1.3c.58,2.59,3.15,3.57,5.77,3.57,3.73,0,5.56-2.41,5.56-4.66,0-2.42-1.13-3.82-4.47-6.31l-1.75-1.3c-4.14-3.05-5.06-5.22-5.06-7.61,0-3.74,3.1-6.31,8.06-6.31a16.65,16.65,0,0,1,3.61.35,7.26,7.26,0,0,0,1.37.18c.31,0,.39.07.39.24s-.16,1.33-.16,3.72c0,.56-.08.8-.27.8s-.27-.17-.32-.45a5.45,5.45,0,0,0-.49-1.75c-.24-.39-1.29-1.86-4.88-1.86C119.1,14,117,15.46,117,18c0,2,1,3.27,4.76,5.9l1.08.76c4.61,3.27,5.7,5.44,5.7,8.25a7,7,0,0,1-3.32,5.82,11.11,11.11,0,0,1-5.88,1.47A13,13,0,0,1,114.11,39.27Z"/><path class="cls-2" d="M78.73,52.06s12.83-7,3.43-25S87.39,0,87.39,0,75.12,9.46,86.08,26.83,78.73,52.06,78.73,52.06Z"/><path class="cls-1" d="M78.73,51.69s12.09-6.61,4.18-24.64,4.4-27,4.4-27S77,9.46,86.21,26.83,78.73,51.69,78.73,51.69Z"/><path class="cls-1" d="M150.48,17.16a3.24,3.24,0,0,0,1.12.28,36,36,0,0,0,5.11-.63c.42-.19.47-.22.57-.22.29,0,.51.19.93.56.61.54.69.69.69.87s-.07.25-.31.49a2.2,2.2,0,0,0-.53.85,13.74,13.74,0,0,1-7,6.31.09.09,0,0,1-.1-.08c0-.05,0-.08.18-.18a17.6,17.6,0,0,0,5.34-5.35,7.55,7.55,0,0,0,.92-2.29c0-.23-.23-.25-.29-.25a43.49,43.49,0,0,0-4.88,1,4.43,4.43,0,0,1-.67.3c-.31,0-1.4-.68-1.4-1.42,0-.26,0-.3.13-.3S150.45,17.16,150.48,17.16Zm10.9-.91a1.31,1.31,0,1,1-2.62,0A1.29,1.29,0,0,1,160.09,15,1.26,1.26,0,0,1,161.38,16.25Zm-2.17,0a.86.86,0,0,0,1.72,0,.9.9,0,0,0-.87-.85A.86.86,0,0,0,159.21,16.29Z"/><path class="cls-1" d="M169.44,18.77a13.9,13.9,0,0,0-.11,2.54c0,.4,0,.72.45.72a17.81,17.81,0,0,0,6.43-3.53c.19-.16.21-.19.31-.19a.1.1,0,0,1,.11.11,17,17,0,0,1-5.32,4.06c-1.57.81-1.68.89-2,1.24-.07.1-.1.11-.15.11s-.92-.66-.92-1a4.72,4.72,0,0,1,.12-.63,10.06,10.06,0,0,0,.07-1.75c0-1.79,0-2.15-.36-2.79a2.51,2.51,0,0,1-.29-.53c0-.05.08-.06.13-.06s1.71.27,1.71.82C169.66,18,169.47,18.62,169.44,18.77Z"/><path class="cls-1" d="M185.73,20.06c0,.27-.21.67-.53.67s-.27-.08-.48-.42a3.16,3.16,0,0,0-1.23-1.12s-.12-.08-.12-.14.77-.2.95-.2C184.9,18.85,185.73,19.39,185.73,20.06Zm-1.67,4.19c0-.07-.28-.35-.32-.42a.57.57,0,0,1-.08-.26c0-.05,0-.09.12-.09s.63.18.74.18c.58,0,4.22-2,7.46-5.7a7,7,0,0,1,.58-.61s.06,0,.06,0-1.2,3.05-6.8,7c-.16.11-.81.72-1,.72S184.4,24.87,184.06,24.25Zm3.29-6.89c0,.31-.22.61-.43.61s-.22,0-.71-.64a2.31,2.31,0,0,0-1.16-.71c-.05,0-.2-.06-.2-.1a1.61,1.61,0,0,1,1-.25C187.35,16.27,187.35,17.32,187.35,17.36Z"/><path class="cls-1" d="M204.51,17.7c-.1,0-2.94.66-3,.69a4.66,4.66,0,0,1-.61.26,2.87,2.87,0,0,1-.92-.49,2.86,2.86,0,0,1-.32-.78c0-.07,0-.11.08-.11l.35.09a2.54,2.54,0,0,0,.72.14,19.12,19.12,0,0,0,3.71-.5,4.63,4.63,0,0,1,.74-.42c.33,0,1.15.69,1.15,1,0,.12-.5.48-.58.58-.27.32-1.34,1.91-1.56,2.22a.44.44,0,0,0-.1.27c0,.12,0,.15.59.46s3,1.72,3,2.95a.58.58,0,0,1-.55.59c-.31,0-.37-.09-.84-.93A6.24,6.24,0,0,0,204,21.08c-.14,0-.18,0-.48.38a13.51,13.51,0,0,1-3.61,2.9,3.18,3.18,0,0,1-.84.31s-.1,0-.1-.08a4.33,4.33,0,0,1,.63-.5,14.82,14.82,0,0,0,5.1-6.28A.16.16,0,0,0,204.51,17.7Z"/><path class="cls-1" d="M216,21.63c-.34,0-.36.17-.39.47a.89.89,0,0,1-.8.76c-.34,0-.35-.18-.35-.36s0-.55,0-.66c0-.51,0-1.78,0-2.15,0-.85,0-1.73-.08-2.45,0-.07,0-.45,0-.47s0-.1,0-.1.22.06,1,.49a1.4,1.4,0,0,0,.73.19h2.25c.4,0,.4-.25.4-.5,0-.41,0-1.64,0-2,0-.08-.08-.42-.08-.5s.08-.08.14-.08,1.32.2,1.32.46c0,.08-.28.35-.3.42a9.28,9.28,0,0,0,0,1.77c0,.2,0,.45.38.45h2.52a.43.43,0,0,0,.42-.19c.25-.35.28-.39.4-.39a2.8,2.8,0,0,1,1.15.86c0,.08-.29.34-.33.41s-.11.35-.11,1.7c0,.27,0,1.63,0,1.94s0,.45-.14.62a.88.88,0,0,1-.66.35c-.38,0-.38-.32-.38-.66,0-.12,0-.36-.39-.36h-2.44c-.24,0-.43,0-.43.44s0,2.82,0,3.34c0,.29,0,1.07-.71,1.07-.45,0-.45-.4-.45-.54s.06-.84.06-1c0-.47,0-2.38,0-2.84s0-.47-.41-.47Zm2.45-.37c.11,0,.29,0,.36-.16a18.89,18.89,0,0,0,.08-2.21c0-1.08,0-1.19-.42-1.19h-2.52c-.39,0-.39.15-.39.64,0,.33,0,2,0,2.41s.07.51.42.51Zm4.39,0c.12,0,.31,0,.35-.2s.07-2.66.07-2.91-.12-.45-.4-.45h-2.61c-.39,0-.39.27-.39.46,0,.35,0,2.69,0,2.86s.19.24.37.24Z"/><path class="cls-1" d="M234.3,22.79c-.25,0-.5,0-.5.36v1.28c0,.24,0,.34.19.34.34,0,2.37-.37,2.6-.37,0,0,.12,0,.12,0a4.91,4.91,0,0,1-1.27.57c-.61.2-3.79,1-3.91,1.12s-.38.31-.46.31a.15.15,0,0,1-.16-.13,7.85,7.85,0,0,1-.6-1.21s.81,0,.92,0,1.48,0,1.64-.26a7.5,7.5,0,0,0,.11-1.61c0-.42-.21-.42-.56-.42-.58,0-1,0-1.13,0l-.29,0c-.05,0-.08,0-.12-.1l-.26-.3-.07-.09s0,0,.06,0l.49,0,1.36,0c.42,0,.53-.05.53-.44,0-.1,0-1.41,0-1.46,0-.34-.21-.34-.44-.34h-.34c-.26,0-.35,0-.42.2a.7.7,0,0,1-.61.49c-.3,0-.3-.35-.3-.44,0-.43,0-2.54,0-3,0-1.1,0-1.22,0-2.26,0-.06,0-.36,0-.42s0-.17.09-.17a2,2,0,0,1,.66.33c.32.19.34.19.53.19h2.52c.2,0,.22,0,.41-.19a.71.71,0,0,1,.39-.23c.15,0,.85.54.85.74s0,.15-.34.44c-.07.06-.09.09-.09.66s0,2.95,0,3.5a.61.61,0,0,1-.64.63c-.2,0-.23-.11-.28-.27s-.23-.19-.46-.19h-.3c-.14,0-.34,0-.39.16s0,1.52,0,1.72,0,.38.35.38.5,0,.63-.23.25-.42.38-.42,1,.63,1,.85-.07.15-.71.15Zm-1.69-5.35c.42,0,.45-.05.45-.58v-1.1c0-.29-.14-.32-.45-.32h-.36c-.23,0-.41,0-.45.23s0,.93,0,1.12c0,.59,0,.65.46.65Zm0,2.38c.17,0,.34,0,.41-.14a14.15,14.15,0,0,0,0-1.48c0-.35-.1-.41-.46-.41h-.32c-.32,0-.47,0-.47.4s0,.92,0,1.26.09.37.43.37Zm1.71-2c-.3,0-.46,0-.46.38v1.28c0,.37.19.37.46.37h.26c.23,0,.4,0,.44-.24,0-.07,0-.95,0-1.42s-.19-.37-.46-.37Zm0-2.35c-.28,0-.44,0-.44.37v1.25c0,.38.15.38.44.38h.26c.28,0,.45,0,.45-.36V15.81c0-.37-.17-.37-.45-.37ZM240,19.19c-.42,0-.48.11-.48.46s0,2.64,0,3.14c0,.15,0,2,0,2.44,0,.65-.05.85-.35,1a1.19,1.19,0,0,1-.79.21.14.14,0,0,1-.15-.08,1.46,1.46,0,0,0-.52-.64c-.11-.07-.71-.34-.71-.41s.06,0,.1,0l.38,0a5.83,5.83,0,0,0,.59,0c.56,0,.54-.12.56-.45s0-4.65,0-5.3c0-.23-.05-.42-.41-.42s-1,0-1.36,0l-.29,0c-.05,0-.08,0-.12-.1l-.26-.31c-.05-.05-.06-.07-.06-.08s0,0,0,0l.6.05c.39,0,1.08,0,1.85,0h2c.25,0,.3,0,.41-.17s.19-.23.27-.23c.29,0,1.12.88,1.12,1a.22.22,0,0,1-.21.2,1.48,1.48,0,0,0-.85.34,10.16,10.16,0,0,1-1.05.77s-.06,0-.06-.05.59-1.29.59-1.44-.11-.09-.19-.09Zm0-4.09c.24,0,.35,0,.46-.13.3-.37.32-.41.44-.41s1.28.81,1.28,1-.1.16-.41.16c-.59,0-.85.2-2.22,1.23-.07,0-.12.08-.12.17a1.86,1.86,0,0,0,.19.33,1,1,0,0,1,.12.42c0,.29-.24.6-.47.6s-.35-.22-.45-.42a3.46,3.46,0,0,0-.72-1,5.52,5.52,0,0,1-.48-.46s.05,0,.08,0a3.87,3.87,0,0,1,.84.17,6.64,6.64,0,0,0,.64.24c.25,0,.94-1.27.94-1.39s-.08-.13-.24-.13h-1l-1.6,0-.39,0c-.05,0-.08,0-.12-.09l-.26-.31c0-.06-.06-.07-.06-.1s0,0,.05,0l.59,0c.4,0,1.1,0,1.86,0Z"/><path class="cls-1" d="M251.43,16.6c-.44,0-.44.11-.44,1.09,0,.13,0,.43.3.43L252,18c.18,0,1.13-.23,1.22-.23s.07,0,.07,0-1.79.7-1.91.75a.51.51,0,0,0-.4.43c0,.08,0,1.16,0,1.39a1.28,1.28,0,0,1-.3,1,1.26,1.26,0,0,1-.85.44.26.26,0,0,1-.22-.12,2,2,0,0,0-.44-.5c-.07-.05-.48-.21-.48-.31H249c.18,0,1,0,1.09-.17a6.24,6.24,0,0,0,.1-1.42.22.22,0,0,0-.21-.21,4.65,4.65,0,0,0-1.23.52c-.14.25-.18.33-.3.33s-.25-.22-.38-.49a7.16,7.16,0,0,1-.41-.88s0-.05,0-.05l.65,0a5.11,5.11,0,0,0,1.61-.2c.23-.14.23-.26.23-.82,0-.82,0-.92-.43-.92l-1.23,0-.29,0c-.05,0-.08,0-.12-.08l-.25-.31s-.07-.07-.07-.1,0,0,0,0l.6,0,1.34.05a.34.34,0,0,0,.38-.34,8.77,8.77,0,0,0-.14-1.49s-.11-.16-.11-.2,0,0,.06,0,1.05.33,1.12.35.24.14.24.26-.29.38-.32.46a6,6,0,0,0,0,.69.32.32,0,0,0,.31.31c.19,0,.27,0,.38-.09s.43-.6.5-.6.86.64.86.85-.08.19-.74.19Zm5.26,5.93a.55.55,0,0,0,.43-.15c.06-.08.14-.17.19-.17s1.07.44,1.07.62,0,.13-.28.32-.14.18-.14.83c0,.3.06,1.6.06,1.85s-.11.64-.76.64c-.29,0-.3-.07-.3-.34s0-.49-.41-.49h-5.12c-.4,0-.41.1-.45.44s-.49.4-.73.4-.25,0-.29-.16,0-1.07,0-1.77a19.3,19.3,0,0,0,0-2,2.45,2.45,0,0,1-.08-.29c0-.05.07-.05.11-.05a3,3,0,0,1,.82.23,1.39,1.39,0,0,0,.6.08Zm-5.39.37c-.42,0-.42,0-.42,1.19s0,1.19.42,1.19h5.27c.17,0,.42,0,.42-.39V23.25c0-.35-.25-.35-.42-.35Zm6.54-5.21c.5,0,.53,0,.58-.1s.42-.63.53-.63,1,.73,1,.9-.21.18-.57.18H258c-.34,0-.43.12-.43.36,0,.46.12,2.45.12,2.86a.54.54,0,0,1-.6.61c-.19,0-.44-.1-.44-.35,0-.49.06-2.66.06-3.09s-.25-.39-.42-.39h-1a.55.55,0,0,0-.62.47,3.79,3.79,0,0,1-2.36,3l0,0s.4-.41.44-.45a5.29,5.29,0,0,0,1.23-3.52,17.93,17.93,0,0,0-.18-2.19s-.13-.24-.13-.28a.07.07,0,0,1,.08-.08s.49.2.67.25a1.32,1.32,0,0,0,.41.07,10.06,10.06,0,0,0,3.3-1.05,1.48,1.48,0,0,1,.27-.19,5.08,5.08,0,0,1,1.09,1c0,.08,0,.11-.14.11-.63,0-3.41.36-4,.42a.5.5,0,0,0-.52.42c0,.08-.05,1.08-.05,1.2s.21.41.5.41Z"/><path class="cls-1" d="M274.89,17.66c.53,0,.69,0,.87-.23s.18-.24.33-.24,1.28.85,1.28,1.16c0,.15-.17.22-.27.22l-.47-.07a2.27,2.27,0,0,0-1.42.68c-.11.08-.18.13-.25.13a.06.06,0,0,1,0,0c0-.15.46-.94.46-1.06S275.19,18,275,18h-8c-.25,0-.37,0-.44.27-.17.62-.33,1.31-.88,1.31a.51.51,0,0,1-.5-.52c0-.29.07-.38.49-1A2,2,0,0,0,266,17s0-.15.11-.15.23.25.38.6c.08.19.26.19.39.19Zm-4.56,4.82c.17,0,.42,0,.42-.35a4.49,4.49,0,0,0,0-.64c0-.2-.09-.47-.09-.53s0-.21.15-.21.69.17.81.17c.3,0,1.32-1,1.32-1.15s-.06-.09-.25-.09h-3.18c-.33,0-1.25,0-1.71,0l-.3,0s-.06,0-.1-.08l-.28-.31c-.05-.07-.05-.07-.05-.09s0,0,0,0l.6,0c.39,0,1.09.05,1.87.05h3c.61,0,.67,0,.87-.23s.22-.21.34-.21a2,2,0,0,1,.85.89c0,.2-.12.23-.53.33a10.57,10.57,0,0,0-2.24,1.08c-.18.11-.21.12-.21.93,0,.37.3.37.44.37h2.34c.55,0,.74,0,.86-.23.26-.46.3-.57.56-.57a2.53,2.53,0,0,1,1.24,1c0,.18-.27.18-.71.18h-4.32c-.39,0-.39.11-.39.8a19.91,19.91,0,0,1-.07,2.12,1,1,0,0,1-1.1.79c-.19,0-.2-.08-.25-.25-.11-.36-.53-.54-1.1-.78-.16-.07-.31-.12-.31-.2s.08-.07.12-.07,1.14.16,1.35.16.4,0,.41-.69c0-.3,0-1.26,0-1.46s0-.42-.42-.42h-2.6c-.33,0-1.25,0-1.72,0l-.28,0s-.07,0-.13-.08l-.25-.32c-.06-.06-.06-.06-.06-.09s0,0,0,0l.6,0c.39,0,1.09.06,1.87.06Zm-3.26-7.85c.27,0,2,.63,2,1.85a.48.48,0,0,1-.46.52c-.33,0-.39-.11-.79-1a5.4,5.4,0,0,0-.79-1.24s-.05-.1,0-.13S267,14.63,267.07,14.63Zm4.91,1.5c0,.41-.24.69-.5.69-.42,0-.5-.51-.55-.8a7.65,7.65,0,0,0-.46-1.53s-.11-.23-.07-.27A2.34,2.34,0,0,1,272,16.13Zm3.71-.81c0,.12-.05.13-.3.2s-.29.12-.82.66a7.31,7.31,0,0,1-1.5,1.28.06.06,0,0,1-.06-.06s.48-.88.53-1a7,7,0,0,0,.69-1.77c0-.26.06-.3.14-.3a.57.57,0,0,1,.25.11C275,14.67,275.69,15.1,275.69,15.32Z"/><path class="cls-1" d="M292.83,17a.42.42,0,0,0,.42-.23c.09-.15.16-.21.23-.21s1.32.84,1.32,1.19c0,.19-.13.27-.4.28a2.34,2.34,0,0,0-.91.1c-.15,0-.91.43-.91.4a4.9,4.9,0,0,0,.42-1c0-.19-.13-.19-.25-.19H285c-.23,0-.33,0-.36.32-.14,1.43-1,1.93-1.34,1.93a.48.48,0,0,1-.47-.5c0-.34.17-.49.42-.72a2.73,2.73,0,0,0,.81-1.43,4,4,0,0,1,.17-.72c.06,0,.07.06.27.5.1.22.14.27.48.27h2.94c.41,0,.41-.2.41-.82,0-.3,0-1.15-.05-1.41,0-.07-.08-.41-.08-.47s0-.1.13-.1,1.4.19,1.4.54a.28.28,0,0,1-.12.19s-.21.18-.22.2a6.57,6.57,0,0,0-.07,1.34c0,.32,0,.53.42.53Zm-2.11,6.35a2.37,2.37,0,0,0,.66,0c.14-.07.57-.7.7-.7s1,.69,1,.9-.24.21-.73.21h-2.72c-.41,0-.43.2-.43.55,0,1.08,0,1.19.4,1.19h2.59c.58,0,.69,0,.77-.09s.58-.83.74-.83,1.14.88,1.14,1.1-.23.19-.7.19h-8.92c-1.19,0-1.58,0-1.71,0a1.6,1.6,0,0,1-.29.05s-.07-.05-.11-.1l-.27-.31c-.06-.06-.06-.07-.06-.08a0,0,0,0,1,0,0l.61,0c.67,0,1.22,0,1.86,0h2.54c.41,0,.41-.21.41-.54,0-1.14,0-1.2-.39-1.2h-1c-1.19,0-1.58,0-1.72,0a1.35,1.35,0,0,1-.28,0s-.07,0-.12-.09l-.26-.31c-.05-.06-.05-.07-.05-.08s0,0,0,0l.59.05c.67,0,1.22,0,1.86,0h.95c.39,0,.39-.24.39-.5,0-1.49,0-1.6-.53-1.6h-.47c-.38,0-.41.22-.42.37a.55.55,0,0,1-.61.55c-.26,0-.42-.07-.42-.36s.06-.79.06-.91c0-.45,0-.89,0-1.11s0-.74,0-1c0-.07-.09-.38-.09-.45a.11.11,0,0,1,.12-.12,2.25,2.25,0,0,1,.69.21,1.63,1.63,0,0,0,.7.15h3.17a.55.55,0,0,0,.5-.23c.14-.17.16-.2.26-.2s.95.61.95.8-.05.15-.29.36-.11.31-.11.71c0,.17,0,1,0,1.18a.6.6,0,0,1-.64.64c-.29,0-.34-.13-.38-.33s-.23-.25-.37-.25h-1.49s-.13,0-.13.07,0,.1.4.24.43.25.43.32-.3.31-.33.37a1.76,1.76,0,0,0-.06.6c0,.32,0,.5.43.5Zm-3.89-7.24a.46.46,0,0,1-.44.53c-.22,0-.26-.08-.67-.84a3.13,3.13,0,0,0-.84-1,.8.8,0,0,1-.16-.13s.1,0,.11,0a2.88,2.88,0,0,1,1,.27A1.47,1.47,0,0,1,286.83,16.09Zm.42,2.81c-.35,0-.43.11-.43.49,0,1.19,0,1.22.05,1.33s.26.16.38.16h3.17c.39,0,.46,0,.46-1.35,0-.46,0-.63-.43-.63Zm5.63-3.49c0,.18-.17.19-.36.19s-.22,0-1,.46a4.21,4.21,0,0,1-1.09.46h0s.53-.7.61-.85a4.73,4.73,0,0,0,.57-1.05c.07-.19.08-.23.16-.23s.46.26.6.37S292.88,15.24,292.88,15.41Z"/><path class="cls-1" d="M152.5,34.66c-.08-.12-.1-.15-.1-.19s.06-.08.12-.08c.72,0,1.72.79,1.72,1.15,0,.12-.06.16-.24.28s-.28.26-.55.64a8.34,8.34,0,0,1-4.11,3.19.1.1,0,0,1-.1-.09c0-.06,0-.1.37-.37,2.09-1.73,3-3.6,3-4.09A.7.7,0,0,0,152.5,34.66Zm3.88-.1a5.43,5.43,0,0,1,1.36.71c1,.66,2.17,1.93,2.17,2.84,0,.2-.09.78-.67.78s-.72-.48-.94-1.19a5,5,0,0,0-1.4-2.41,7,7,0,0,1-.61-.61C156.29,34.62,156.31,34.56,156.38,34.56Zm4.27-1a1.3,1.3,0,1,1-2.6,0,1.27,1.27,0,0,1,1.31-1.3A1.25,1.25,0,0,1,160.65,33.53Zm-2.16,0a.85.85,0,0,0,.88.83.83.83,0,0,0,.83-.84.9.9,0,0,0-.87-.85A.87.87,0,0,0,158.49,33.57Z"/><path class="cls-1" d="M175.48,36.2h.3c.82,0,.94.5.94.59,0,.38-.55.42-1.12.42l-1.94,0c-1.87,0-5,.18-5.29.25-.16,0-.89.24-1.05.24-.59,0-1.21-.84-1.21-1.3,0-.08,0-.16.11-.16s.39.15.46.16a7.23,7.23,0,0,0,1.65.12C168.78,36.48,173.5,36.31,175.48,36.2Z"/><path class="cls-1" d="M186.54,32.38c0-.13.19-.13.3-.13a1.26,1.26,0,0,1,1.26.76c0,.16-.14.33-.41.67-.06.1-.1.15-.1.22s.16.11.21.11a7.7,7.7,0,0,0,2.06-.54,2.43,2.43,0,0,1,.64-.22c.12,0,.19,0,.74.36.08,0,.43.23.5.28a.49.49,0,0,1,.26.33c0,.19-.1.25-.54.52-.15.09-.21.17-.68.91a16.51,16.51,0,0,1-4.84,5.08,9.12,9.12,0,0,1-2.7,1.3.12.12,0,0,1-.12-.12s0-.08.46-.31a16.87,16.87,0,0,0,6.7-7.31.15.15,0,0,0-.15-.15s-1.89.42-2.22.42l-.53,0c-.25,0-.28,0-.85.68A10,10,0,0,1,184.69,37a4.39,4.39,0,0,1-1.3.72.09.09,0,0,1-.1-.09,11.14,11.14,0,0,1,1.08-1c1.09-1.1,2.38-3,2.27-3.78C186.63,32.73,186.54,32.44,186.54,32.38Z"/><path class="cls-1" d="M199.43,33.41a3.23,3.23,0,0,0,1.12.3,34.72,34.72,0,0,0,5.1-.65c.42-.19.48-.22.57-.22.3,0,.51.19.93.56.61.54.69.69.69.88s-.06.24-.31.49a2.33,2.33,0,0,0-.53.85,13.72,13.72,0,0,1-7,6.3.08.08,0,0,1-.09-.08c0-.05,0-.08.17-.17a17.55,17.55,0,0,0,5.35-5.36,7.76,7.76,0,0,0,.92-2.29c0-.23-.23-.24-.3-.24a45,45,0,0,0-4.87,1,3.59,3.59,0,0,1-.71.3c-.17,0-.27,0-1-.65a.86.86,0,0,1-.39-.76,1.25,1.25,0,0,1,0-.31A.92.92,0,0,1,199.43,33.41Z"/><path class="cls-1" d="M221.19,33.9c.46-.23.5-.26.61-.26s1.29.65,1.29,1.23c0,.17-.06.22-.3.55a12.12,12.12,0,0,0-.94,3.13c0,.19.07.25.72.71a.38.38,0,0,1,.16.28.25.25,0,0,1-.25.23c-.12,0-.71-.16-.83-.17a13.37,13.37,0,0,0-1.68-.12c-.23,0-2.61.12-2.73.37-.26.57-.3.68-.6.68s-.42-.65-.42-.81c0-2.37,0-4.37-.48-5a1.32,1.32,0,0,0-.54-.46s-.06,0-.06-.08.38-.34.57-.34a1.37,1.37,0,0,1,.93.31c.36.3.37.31.69.31A29.64,29.64,0,0,0,221.19,33.9ZM218.29,35c-1.27.21-1.27.23-1.27.63s.11,2.53.11,3,.24.46.38.46.58-.08.88-.12.61-.07,1-.09c1.5-.09,1.67-.09,1.73-.29,0,0,.45-3.25.45-3.37s0-.51-.37-.51C220.57,34.66,218.61,34.9,218.29,35Z"/><path class="cls-1" d="M234.22,39.49a10,10,0,0,0-1.33,1.11c-.26.31-.28.34-.48.34-.74,0-1.74-.87-1.74-1.41,0-.1,0-.72.14-.72a3,3,0,0,1,.4.26,2.27,2.27,0,0,0,.92.31c.67,0,4.25-2.4,6.5-4.61.22-.22.6-.6.62-.6a.08.08,0,0,1,.07.07A18.42,18.42,0,0,1,234.22,39.49ZM233.11,35c-.37,0-.5-.22-1-.9A3.07,3.07,0,0,0,230.93,33c-.05,0-.12-.07-.12-.12s.11-.12.3-.12c1.44,0,2.58.77,2.58,1.57C233.69,34.77,233.46,35,233.11,35Z"/><path class="cls-1" d="M247.49,31.72c.49,0,1.46.43,1.46.87a3.58,3.58,0,0,1-.16.56,17.13,17.13,0,0,0-.12,1.89c0,.29.05.33.44.43.83.19,2.93,1.18,2.93,2.19a.47.47,0,0,1-.49.48c-.34,0-.38-.06-1.29-1.24-.38-.5-1-1.13-1.43-1.13-.14,0-.19,0-.19,1,0,1.43,0,2.15.07,3.37,0,.15,0,.49,0,.69s0,1.23-.39,1.23-.76-.92-.76-1.27c0-.06.06-.34.06-.39a29.42,29.42,0,0,0,.12-3.14c0-3.88,0-4.31-.16-4.74a1.51,1.51,0,0,0-.46-.62l0-.06C247.12,31.72,247.48,31.72,247.49,31.72Z"/></g></g></svg>