<?xml version="1.0" encoding="utf-8"?>
<!-- Generator: Adobe Illustrator 23.0.3, SVG Export Plug-In . SVG Version: 6.00 Build 0)  -->
<svg version="1.1" id="Layer_1" xmlns="http://www.w3.org/2000/svg" xmlns:xlink="http://www.w3.org/1999/xlink" x="0px" y="0px"
	 viewBox="0 0 299.6 52.1" style="enable-background:new 0 0 299.6 52.1;" xml:space="preserve">
<style type="text/css">
	.st0{fill:#FFFFFF;}
	.st1{opacity:0.5;fill:#FFFFFF;enable-background:new    ;}
	.st2{enable-background:new    ;}
</style>
<title>logo</title>
<g>
	<g id="グローバルナビ">
		<path class="st0" d="M3.4,23.4c0-5.5,0-6.4-0.1-7.6s-0.4-1.8-1.7-2c-0.4-0.1-0.9-0.1-1.3-0.1c-0.2,0-0.3-0.1-0.3-0.2
			s0.2-0.3,0.6-0.3c1.8,0,4.1,0.1,4.4,0.1c0.9,0,3.1-0.1,4.9-0.1c4.9,0,6.6,1.5,7.2,2c1.2,1.1,1.9,2.6,2,4.2c0,5-4.1,8.3-9.6,8.3
			c-0.3,0-0.5,0-0.8,0c-0.2,0-0.4-0.1-0.4-0.2s0.2-0.3,1-0.3c3.8,0,6.8-2.5,6.8-5.7c0.1-2-0.7-4-2.1-5.5c-1.5-1.3-3.4-1.9-5.3-1.8
			c-0.6,0-1.1,0.1-1.7,0.2c-0.2,0.1-0.3,0.3-0.3,0.7v14.4c0,3.4,0,6.1,0.2,7.6c0.1,1,0.4,1.8,1.5,1.9c0.6,0.1,1.4,0.1,1.8,0.1
			s0.3,0.1,0.3,0.2s-0.2,0.3-0.6,0.3c-2.1,0-4.6-0.1-4.8-0.1s-2.6,0.1-3.7,0.1c-0.4,0-0.6-0.1-0.6-0.3s0.1-0.2,0.3-0.2
			c0.4,0,0.8-0.1,1.2-0.1c0.8-0.1,1-0.9,1.1-1.9c0.2-1.5,0.2-4.2,0.2-7.6L3.4,23.4z"/>
		<path class="st0" d="M27,23.4c0-5.5,0-6.4-0.1-7.6s-0.4-1.8-1.7-2c-0.4-0.1-0.9-0.1-1.3-0.1c-0.1,0-0.3-0.1-0.3-0.2
			s0.2-0.3,0.6-0.3c1.8,0,4.2,0.1,4.4,0.1c0.5,0,3.4-0.1,4.6-0.1c2.5,0,5.1,0.2,7.1,1.5c1.6,1.1,2.6,2.9,2.6,4.8
			c0,2.6-1.2,5.2-4.7,8.1c3.2,3.7,5.8,6.8,8.1,9c1.3,1.4,2.9,2.2,4.8,2.5c0.5,0.1,1,0.1,1.5,0.1c0.2,0,0.3,0.1,0.3,0.2
			s-0.2,0.3-0.9,0.3h-2.7c-1.4,0.1-2.9-0.1-4.2-0.7c-1.7-0.8-3-2.5-5.3-5.1c-1.6-1.9-3.5-4.3-4.2-5.2c-0.1-0.1-0.3-0.2-0.5-0.2
			l-4.8-0.1c-0.1,0-0.3,0.1-0.3,0.2c0,0,0,0.1,0,0.1v0.8c-0.1,2.5,0,5.1,0.2,7.6c0.1,1,0.4,1.8,1.5,1.9c0.5,0.1,1.4,0.1,1.8,0.1
			s0.3,0.1,0.3,0.2s-0.2,0.3-0.6,0.3c-2.1,0-4.6-0.1-4.8-0.1c0,0-2.5,0.1-3.7,0.1c-0.4,0-0.6-0.1-0.6-0.3s0.1-0.2,0.3-0.2
			c0.4,0,0.8-0.1,1.2-0.1c0.8-0.1,1-0.9,1.1-1.9C27,35.7,27,33,27,29.6L27,23.4z M30.1,26.4c0,0.2,0.1,0.4,0.3,0.4
			c1.3,0.4,2.7,0.6,4.1,0.6c1,0.1,2-0.2,2.9-0.7c1.4-0.8,2.4-2.7,2.4-5.4c0-4.4-2.6-7-6.7-7c-0.9,0-1.7,0.1-2.6,0.2
			c-0.2,0-0.3,0.2-0.3,0.4V26.4z"/>
		<path class="st0" d="M56.3,23.4c0-5.5,0-6.4-0.1-7.6s-0.4-1.8-1.7-2c-0.4-0.1-0.9-0.1-1.3-0.1c-0.2,0-0.3-0.1-0.3-0.2
			s0.2-0.3,0.6-0.3c0.9,0,1.9,0,2.8,0l1.6,0.1c0.3,0,8,0,8.9,0c0.6,0,1.1-0.1,1.7-0.2c0.2,0,0.4-0.2,0.6-0.2s0.2,0.1,0.2,0.3
			s-0.2,0.7-0.3,1.6c0,0.3-0.1,1.9-0.2,2.3c0,0.2-0.1,0.4-0.3,0.4s-0.3-0.2-0.3-0.5c0-0.4-0.1-0.9-0.2-1.3c-0.3-0.6-0.7-1-2.8-1.2
			c-0.7-0.1-4.9-0.1-5.3-0.1c-0.2,0-0.2,0.1-0.2,0.4v9.7c0,0.2,0,0.4,0.2,0.4c0.5,0,5.3,0,6.2-0.1s1.5-0.1,1.8-0.5s0.4-0.5,0.6-0.5
			s0.2,0.1,0.2,0.3s-0.2,0.8-0.3,2c-0.1,0.7-0.2,2-0.2,2.2s0,0.7-0.3,0.7s-0.3-0.1-0.3-0.3c0-0.4,0-0.8-0.2-1.2
			c-0.2-0.5-0.5-1.1-2-1.2c-1.1-0.1-4.9-0.2-5.6-0.2c-0.2,0-0.3,0.1-0.3,0.2v3.1c0,1.2,0,5.3,0,6c0.1,2.4,0.7,2.9,4.5,2.9
			c1.2,0,2.5-0.1,3.7-0.5c1-0.4,1.5-1.1,1.8-2.5c0.1-0.4,0.2-0.5,0.3-0.5s0.2,0.3,0.2,0.5c-0.1,1.1-0.3,2.3-0.5,3.4
			c-0.3,0.9-0.6,0.9-2.1,0.9c-2.9,0-5.1-0.1-6.6-0.1s-2.5-0.1-3-0.1c-0.1,0-0.7,0-1.5,0s-1.7,0.1-2.3,0.1c-0.4,0-0.6-0.1-0.6-0.3
			s0.1-0.2,0.3-0.2c0.4,0,0.7,0,1.1-0.1c0.8-0.1,1-0.9,1.1-1.9c0.2-1.5,0.2-4.2,0.2-7.6L56.3,23.4z"/>
		<path class="st0" d="M103.3,29.5c0,3.4,0,6.1,0.2,7.6c0.1,1,0.4,1.8,1.5,1.9c0.6,0.1,1.4,0.1,1.8,0.1s0.3,0.1,0.3,0.2
			s-0.2,0.3-0.6,0.3c-2.1,0-4.6-0.1-4.8-0.1s-2.7,0.1-3.8,0.1c-0.4,0-0.6-0.1-0.6-0.3s0.1-0.2,0.3-0.2c0.4,0,0.8-0.1,1.2-0.1
			c0.8-0.1,1-0.9,1.1-1.9c0.2-2.5,0.3-5.1,0.2-7.6v-6.2c0-5.5,0-6.4-0.1-7.6s-0.5-1.8-1.3-2c-0.4-0.1-0.8-0.1-1.2-0.1
			c-0.2,0-0.3-0.1-0.3-0.2s0.2-0.3,0.6-0.3c1.3,0,3.7,0.1,3.9,0.1s2.7-0.1,3.8-0.1c0.4,0,0.6,0.1,0.6,0.3s-0.2,0.2-0.3,0.2
			c-0.3,0-0.7,0-1,0.1c-1,0.2-1.4,0.8-1.4,2s-0.1,2.1-0.1,7.6L103.3,29.5z"/>
		<path class="st0" d="M114.1,39.3c-0.6-0.2-0.6-0.4-0.6-1.3c0-1.8,0.2-3.2,0.2-3.7c0-0.4,0.1-0.6,0.3-0.6s0.3,0.1,0.3,0.4
			c0,0.4,0,0.9,0.1,1.3c0.6,2.6,3.2,3.6,5.8,3.6c3.7,0,5.6-2.4,5.6-4.7c0-2.4-1.1-3.8-4.5-6.3l-1.8-1.3c-4.1-3-5.1-5.2-5.1-7.6
			c0-3.7,3.1-6.3,8.1-6.3c1.2,0,2.4,0.1,3.6,0.4c0.4,0.1,0.9,0.2,1.4,0.2c0.3,0,0.4,0.1,0.4,0.2s-0.2,1.3-0.2,3.7
			c0,0.6-0.1,0.8-0.3,0.8s-0.3-0.2-0.3-0.5c-0.1-0.6-0.2-1.2-0.5-1.8c-0.2-0.4-1.3-1.9-4.9-1.9c-2.7,0.1-4.8,1.5-4.8,4.1
			c0,2,1,3.3,4.8,5.9l1.1,0.8c4.6,3.3,5.7,5.4,5.7,8.2c0,2.4-1.3,4.6-3.3,5.8c-1.8,1-3.8,1.5-5.9,1.5
			C117.6,40.3,115.8,39.9,114.1,39.3z"/>
		<path class="st1" d="M78.7,52.1c0,0,12.8-7,3.4-25S87.4,0,87.4,0s-12.3,9.5-1.3,26.8S78.7,52.1,78.7,52.1z"/>
		<path class="st0" d="M78.7,51.7c0,0,12.1-6.6,4.2-24.6s4.4-27,4.4-27S77,9.5,86.2,26.8S78.7,51.7,78.7,51.7z"/>
		<g class="st2">
			<path class="st0" d="M149.2,17.2c0.2,0.1,0.8,0.3,1.1,0.3c0.6,0,4.5-0.4,5.1-0.6c0.4-0.2,0.5-0.2,0.6-0.2c0.3,0,0.5,0.2,0.9,0.6
				c0.6,0.5,0.7,0.7,0.7,0.9c0,0.2-0.1,0.2-0.3,0.5c-0.2,0.2-0.3,0.3-0.5,0.9c-2.1,4.4-6.8,6.3-7,6.3c-0.1,0-0.1-0.1-0.1-0.1
				c0-0.1,0-0.1,0.2-0.2c2.4-1.7,4.3-3.4,5.3-5.4c0.7-1.2,0.9-2.2,0.9-2.3c0-0.2-0.2-0.2-0.3-0.2c-0.1,0-4,0.6-4.9,1
				c-0.1,0-0.6,0.3-0.7,0.3c-0.3,0-1.4-0.7-1.4-1.4c0-0.3,0-0.3,0.1-0.3C149.1,17.1,149.2,17.2,149.2,17.2z M160.1,16.2
				c0,0.7-0.6,1.3-1.3,1.3c-0.6,0-1.3-0.5-1.3-1.3c0-0.7,0.5-1.3,1.3-1.3C159.8,15,160.1,15.8,160.1,16.2z M158,16.3
				c0,0.6,0.5,0.8,0.9,0.8c0.6,0,0.8-0.5,0.8-0.8c0-0.5-0.5-0.9-0.9-0.9C158.5,15.4,158,15.7,158,16.3z"/>
		</g>
		<g class="st2">
			<path class="st0" d="M167.2,18.8c-0.1,0.3-0.1,0.6-0.1,2.5c0,0.4,0,0.7,0.4,0.7c0.6,0,4-1.5,6.4-3.5c0.2-0.2,0.2-0.2,0.3-0.2
				c0.1,0,0.1,0.1,0.1,0.1c0,0.1-2,2.3-5.3,4.1c-1.6,0.8-1.7,0.9-2,1.2c-0.1,0.1-0.1,0.1-0.1,0.1c-0.1,0-0.9-0.7-0.9-1
				c0-0.1,0.1-0.6,0.1-0.6c0.1-0.3,0.1-0.8,0.1-1.7c0-1.8,0-2.2-0.4-2.8c-0.1-0.1-0.3-0.4-0.3-0.5c0-0.1,0.1-0.1,0.1-0.1
				c0.1,0,1.7,0.3,1.7,0.8C167.5,18,167.3,18.6,167.2,18.8z"/>
		</g>
		<g class="st2">
			<path class="st0" d="M183.8,20.1c0,0.3-0.2,0.7-0.5,0.7c-0.2,0-0.3-0.1-0.5-0.4c-0.3-0.5-0.7-0.8-1.2-1.1c0,0-0.1-0.1-0.1-0.1
				c0-0.2,0.8-0.2,0.9-0.2C183,18.8,183.8,19.4,183.8,20.1z M182.2,24.2c0-0.1-0.3-0.4-0.3-0.4c0-0.1-0.1-0.2-0.1-0.3
				c0-0.1,0-0.1,0.1-0.1c0.1,0,0.6,0.2,0.7,0.2c0.6,0,4.2-2,7.5-5.7c0.1-0.1,0.5-0.6,0.6-0.6c0,0,0.1,0,0.1,0.1c0,0.1-1.2,3-6.8,7
				c-0.2,0.1-0.8,0.7-1,0.7C182.6,25.1,182.5,24.9,182.2,24.2z M185.4,17.4c0,0.3-0.2,0.6-0.4,0.6c-0.1,0-0.2-0.1-0.7-0.6
				c-0.4-0.4-0.8-0.6-1.2-0.7c-0.1,0-0.2-0.1-0.2-0.1c0,0,0.4-0.3,1-0.3C185.4,16.3,185.4,17.3,185.4,17.4z"/>
		</g>
		<g class="st2">
			<path class="st0" d="M202.7,17.7c-0.1,0-2.9,0.7-3,0.7c-0.1,0-0.5,0.3-0.6,0.3c-0.2,0-0.8-0.4-0.9-0.5c-0.1-0.1-0.3-0.7-0.3-0.8
				c0-0.1,0-0.1,0.1-0.1c0,0,0.3,0.1,0.4,0.1c0.4,0.1,0.6,0.1,0.7,0.1c0.5,0,3-0.2,3.7-0.5c0.1-0.1,0.6-0.4,0.7-0.4
				c0.3,0,1.2,0.7,1.2,1c0,0.1-0.5,0.5-0.6,0.6c-0.3,0.3-1.3,1.9-1.6,2.2c-0.1,0.1-0.1,0.2-0.1,0.3c0,0.1,0,0.1,0.6,0.5
				c0.6,0.4,3,1.7,3,3c0,0.3-0.2,0.6-0.6,0.6c-0.3,0-0.4-0.1-0.8-0.9c-0.9-1.6-2.1-2.7-2.4-2.7c-0.1,0-0.2,0-0.5,0.4
				c-0.5,0.5-1.9,2-3.6,2.9c-0.4,0.2-0.7,0.3-0.8,0.3c0,0-0.1,0-0.1-0.1c0-0.1,0.5-0.4,0.6-0.5c3.5-2.6,5.1-6.1,5.1-6.3
				C202.8,17.7,202.7,17.7,202.7,17.7z"/>
		</g>
		<g class="st2">
			<path class="st0" d="M215.7,21.6c-0.3,0-0.4,0.2-0.4,0.5c0,0.4-0.4,0.8-0.8,0.8c-0.3,0-0.4-0.2-0.4-0.4c0-0.1,0-0.6,0.1-0.7
				c0-0.5,0-1.8,0-2.2c0-0.9,0-1.7-0.1-2.5c0-0.1,0-0.4,0-0.5c0,0,0-0.1,0-0.1c0.1,0,0.2,0.1,1,0.5c0.3,0.1,0.4,0.2,0.7,0.2h2.2
				c0.4,0,0.4-0.2,0.4-0.5c0-0.4,0-1.6,0-2c0-0.1-0.1-0.4-0.1-0.5s0.1-0.1,0.1-0.1c0.1,0,1.3,0.2,1.3,0.5c0,0.1-0.3,0.4-0.3,0.4
				c-0.1,0.2-0.1,0.3-0.1,1.8c0,0.2,0,0.4,0.4,0.4h2.5c0.1,0,0.3,0,0.4-0.2c0.3-0.4,0.3-0.4,0.4-0.4c0.2,0,1.2,0.7,1.2,0.9
				c0,0.1-0.3,0.3-0.3,0.4c-0.1,0.2-0.1,0.4-0.1,1.7c0,0.3,0,1.6,0,1.9c0,0.3,0,0.4-0.1,0.6c-0.3,0.3-0.6,0.4-0.7,0.4
				c-0.4,0-0.4-0.3-0.4-0.7c0-0.1,0-0.4-0.4-0.4H220c-0.2,0-0.4,0-0.4,0.4c0,0.5,0,2.8,0,3.3c0,0.3,0,1.1-0.7,1.1
				c-0.4,0-0.4-0.4-0.4-0.5c0-0.1,0.1-0.8,0.1-1c0-0.5,0-2.4,0-2.8c0-0.3,0-0.5-0.4-0.5H215.7z M218.2,21.3c0.1,0,0.3,0,0.4-0.2
				c0.1-0.2,0.1-1.9,0.1-2.2c0-1.1,0-1.2-0.4-1.2h-2.5c-0.4,0-0.4,0.1-0.4,0.6c0,0.3,0,2,0,2.4c0,0.4,0.1,0.5,0.4,0.5H218.2z
				 M222.6,21.3c0.1,0,0.3,0,0.4-0.2c0-0.1,0.1-2.7,0.1-2.9c0-0.3-0.1-0.4-0.4-0.4H220c-0.4,0-0.4,0.3-0.4,0.5c0,0.4,0,2.7,0,2.9
				c0,0.2,0.2,0.2,0.4,0.2H222.6z"/>
		</g>
		<g class="st2">
			<path class="st0" d="M234.3,22.8c-0.3,0-0.5,0-0.5,0.4v1.3c0,0.2,0,0.3,0.2,0.3c0.3,0,2.4-0.4,2.6-0.4c0,0,0.1,0,0.1,0
				c0,0.1-1,0.5-1.3,0.6c-0.6,0.2-3.8,1.1-3.9,1.1c-0.1,0-0.4,0.3-0.5,0.3c-0.1,0-0.1-0.1-0.2-0.1c-0.3-0.5-0.6-1.1-0.6-1.2
				c0,0,0.8,0,0.9,0c0.2,0,1.5,0,1.6-0.3c0.1-0.1,0.1-1.4,0.1-1.6c0-0.4-0.2-0.4-0.6-0.4c-0.6,0-1,0-1.1,0c0,0-0.2,0-0.3,0
				c-0.1,0-0.1,0-0.1-0.1l-0.3-0.3c-0.1-0.1-0.1-0.1-0.1-0.1c0,0,0,0,0.1,0c0.1,0,0.4,0,0.5,0c0.2,0,1.1,0,1.4,0
				c0.4,0,0.5-0.1,0.5-0.4c0-0.1,0-1.4,0-1.5c0-0.3-0.2-0.3-0.4-0.3h-0.3c-0.3,0-0.4,0-0.4,0.2c-0.1,0.3-0.4,0.5-0.6,0.5
				c-0.3,0-0.3-0.4-0.3-0.4c0-0.4,0-2.5,0-3c0-1.1,0-1.2,0-2.3c0-0.1,0-0.4,0-0.4c0-0.1,0-0.2,0.1-0.2c0.1,0,0.5,0.2,0.7,0.3
				c0.3,0.2,0.3,0.2,0.5,0.2h2.5c0.2,0,0.2,0,0.4-0.2c0.1-0.1,0.3-0.2,0.4-0.2c0.1,0,0.9,0.5,0.9,0.7c0,0.1,0,0.1-0.3,0.4
				c-0.1,0.1-0.1,0.1-0.1,0.7c0,0.5,0,3,0,3.5c0,0.4-0.4,0.6-0.6,0.6c-0.2,0-0.2-0.1-0.3-0.3c-0.1-0.2-0.2-0.2-0.5-0.2h-0.3
				c-0.1,0-0.3,0-0.4,0.2c0,0.1,0,1.5,0,1.7c0,0.2,0,0.4,0.4,0.4c0.3,0,0.5,0,0.6-0.2c0.2-0.3,0.2-0.4,0.4-0.4c0.2,0,1,0.6,1,0.9
				c0,0.1-0.1,0.1-0.7,0.1H234.3z M232.6,17.4c0.4,0,0.4-0.1,0.4-0.6v-1.1c0-0.3-0.1-0.3-0.4-0.3h-0.4c-0.2,0-0.4,0-0.4,0.2
				c0,0.1,0,0.9,0,1.1c0,0.6,0,0.6,0.5,0.6H232.6z M232.6,19.8c0.2,0,0.3,0,0.4-0.1c0.1-0.1,0.1-1.3,0.1-1.5c0-0.4-0.1-0.4-0.5-0.4
				h-0.3c-0.3,0-0.5,0-0.5,0.4c0,0.4,0,0.9,0,1.3c0,0.4,0.1,0.4,0.4,0.4H232.6z M234.3,17.8c-0.3,0-0.5,0-0.5,0.4v1.3
				c0,0.4,0.2,0.4,0.5,0.4h0.3c0.2,0,0.4,0,0.4-0.2c0-0.1,0-0.9,0-1.4c0-0.4-0.2-0.4-0.5-0.4H234.3z M234.3,15.4
				c-0.3,0-0.4,0-0.4,0.4v1.3c0,0.4,0.1,0.4,0.4,0.4h0.3c0.3,0,0.4,0,0.4-0.4v-1.3c0-0.4-0.2-0.4-0.4-0.4H234.3z M240,19.2
				c-0.4,0-0.5,0.1-0.5,0.5c0,0.4,0,2.6,0,3.1c0,0.1,0,2,0,2.4c0,0.6-0.1,0.9-0.4,1c-0.3,0.2-0.4,0.2-0.8,0.2c-0.1,0-0.1,0-0.1-0.1
				c-0.2-0.3-0.3-0.5-0.5-0.6c-0.1-0.1-0.7-0.3-0.7-0.4c0,0,0.1,0,0.1,0c0.1,0,0.3,0,0.4,0c0.2,0,0.4,0,0.6,0c0.6,0,0.5-0.1,0.6-0.4
				c0-0.3,0-4.7,0-5.3c0-0.2-0.1-0.4-0.4-0.4c-0.4,0-1,0-1.4,0c0,0-0.2,0-0.3,0c-0.1,0-0.1,0-0.1-0.1l-0.3-0.3
				c-0.1-0.1-0.1-0.1-0.1-0.1c0,0,0,0,0.1,0c0.1,0,0.5,0,0.6,0.1c0.4,0,1.1,0,1.9,0h2c0.2,0,0.3,0,0.4-0.2c0.2-0.2,0.2-0.2,0.3-0.2
				c0.3,0,1.1,0.9,1.1,1c0,0.1-0.1,0.2-0.2,0.2c-0.3,0-0.4,0.1-0.9,0.3c-0.2,0.1-0.9,0.8-1,0.8c-0.1,0-0.1,0-0.1-0.1
				c0-0.1,0.6-1.3,0.6-1.4c0-0.1-0.1-0.1-0.2-0.1H240z M239.9,15.1c0.2,0,0.4,0,0.5-0.1c0.3-0.4,0.3-0.4,0.4-0.4
				c0.2,0,1.3,0.8,1.3,1c0,0.2-0.1,0.2-0.4,0.2c-0.6,0-0.9,0.2-2.2,1.2c-0.1,0-0.1,0.1-0.1,0.2c0,0.1,0.2,0.3,0.2,0.3
				c0.1,0.1,0.1,0.3,0.1,0.4c0,0.3-0.2,0.6-0.5,0.6c-0.2,0-0.4-0.2-0.4-0.4c-0.2-0.4-0.4-0.7-0.7-1c-0.1-0.1-0.5-0.4-0.5-0.5
				c0,0,0.1,0,0.1,0c0.1,0,0.5,0.1,0.8,0.2c0.1,0,0.6,0.2,0.6,0.2c0.2,0,0.9-1.3,0.9-1.4c0-0.1-0.1-0.1-0.2-0.1h-1
				c-0.4,0-1.1,0-1.6,0c0,0-0.4,0-0.4,0c-0.1,0-0.1,0-0.1-0.1l-0.3-0.3c-0.1-0.1-0.1-0.1-0.1-0.1s0,0,0.1,0c0.1,0,0.5,0,0.6,0
				c0.4,0,1.1,0.1,1.9,0.1H239.9z"/>
		</g>
		<g class="st2">
			<path class="st0" d="M251.4,16.6c-0.4,0-0.4,0.1-0.4,1.1c0,0.1,0,0.4,0.3,0.4c0,0,0.6-0.1,0.7-0.1c0.2,0,1.1-0.2,1.2-0.2
				c0,0,0.1,0,0.1,0c0,0.1-1.8,0.7-1.9,0.7c-0.2,0.1-0.4,0.1-0.4,0.4c0,0.1,0,1.2,0,1.4c0,0.5,0,0.7-0.3,1c-0.3,0.3-0.6,0.4-0.9,0.4
				c-0.1,0-0.2-0.1-0.2-0.1c-0.3-0.4-0.3-0.4-0.4-0.5c-0.1-0.1-0.5-0.2-0.5-0.3c0,0,0.1,0,0.3,0c0.2,0,1,0,1.1-0.2
				c0.1-0.1,0.1-1.2,0.1-1.4c0-0.1-0.1-0.2-0.2-0.2c0,0-1.1,0.4-1.2,0.5c-0.1,0.2-0.2,0.3-0.3,0.3c-0.1,0-0.2-0.2-0.4-0.5
				c-0.1-0.3-0.4-0.8-0.4-0.9c0,0,0-0.1,0-0.1c0.1,0,0.5,0,0.7,0c0.8,0,1.5-0.1,1.6-0.2c0.2-0.1,0.2-0.3,0.2-0.8
				c0-0.8,0-0.9-0.4-0.9c-0.2,0-0.9,0-1.2,0c0,0-0.2,0-0.3,0c-0.1,0-0.1,0-0.1-0.1l-0.3-0.3c0,0-0.1-0.1-0.1-0.1s0,0,0.1,0
				c0.1,0,0.5,0,0.6,0c0.4,0,1.2,0.1,1.3,0.1c0.4,0,0.4-0.3,0.4-0.3c0-0.3-0.1-1.2-0.1-1.5c0,0-0.1-0.2-0.1-0.2c0,0,0,0,0.1,0
				c0.1,0,1.1,0.3,1.1,0.4s0.2,0.1,0.2,0.3c0,0.1-0.3,0.4-0.3,0.5c0,0.1,0,0.1,0,0.7c0,0.1,0.1,0.3,0.3,0.3c0.2,0,0.3,0,0.4-0.1
				c0.1-0.1,0.4-0.6,0.5-0.6c0.1,0,0.9,0.6,0.9,0.9c0,0.2-0.1,0.2-0.7,0.2H251.4z M256.7,22.5c0.1,0,0.3,0,0.4-0.1
				c0.1-0.1,0.1-0.2,0.2-0.2c0.2,0,1.1,0.4,1.1,0.6c0,0.1,0,0.1-0.3,0.3c-0.1,0.1-0.1,0.2-0.1,0.8c0,0.3,0.1,1.6,0.1,1.9
				c0,0.3-0.1,0.6-0.8,0.6c-0.3,0-0.3-0.1-0.3-0.3c0-0.3,0-0.5-0.4-0.5h-5.1c-0.4,0-0.4,0.1-0.4,0.4c-0.1,0.4-0.5,0.4-0.7,0.4
				c-0.1,0-0.2,0-0.3-0.2c0-0.1,0-1.1,0-1.8c0-1.6,0-1.8,0-2c0,0-0.1-0.2-0.1-0.3c0-0.1,0.1-0.1,0.1-0.1c0.2,0,0.5,0.1,0.8,0.2
				c0.2,0.1,0.4,0.1,0.6,0.1H256.7z M251.3,22.9c-0.4,0-0.4,0-0.4,1.2s0,1.2,0.4,1.2h5.3c0.2,0,0.4,0,0.4-0.4v-1.6
				c0-0.4-0.2-0.4-0.4-0.4H251.3z M257.8,17.7c0.5,0,0.5,0,0.6-0.1c0.1-0.1,0.4-0.6,0.5-0.6c0.1,0,1,0.7,1,0.9
				c0,0.2-0.2,0.2-0.6,0.2H258c-0.3,0-0.4,0.1-0.4,0.4c0,0.5,0.1,2.5,0.1,2.9c0,0.1,0,0.6-0.6,0.6c-0.2,0-0.4-0.1-0.4-0.4
				c0-0.5,0.1-2.7,0.1-3.1c0-0.4-0.3-0.4-0.4-0.4h-1.1c-0.3,0-0.6,0.1-0.6,0.5c-0.5,2.2-2.1,3-2.4,3c0,0,0,0,0,0
				c0,0,0.4-0.4,0.4-0.4c1.1-1.1,1.2-2.9,1.2-3.5c0-0.1-0.1-1.8-0.2-2.2c0-0.1-0.1-0.2-0.1-0.3c0,0,0-0.1,0.1-0.1
				c0,0,0.5,0.2,0.7,0.3c0.1,0,0.2,0.1,0.4,0.1c0.1,0,1.9-0.3,3.3-1.1c0,0,0.2-0.2,0.3-0.2c0.1,0,1.1,0.9,1.1,1c0,0.1,0,0.1-0.1,0.1
				c-0.6,0-3.4,0.4-4,0.4c-0.4,0-0.5,0.3-0.5,0.4c0,0.1-0.1,1.1-0.1,1.2c0,0.3,0.2,0.4,0.5,0.4H257.8z"/>
		</g>
		<g class="st2">
			<path class="st0" d="M274.9,17.7c0.5,0,0.7,0,0.9-0.2c0.1-0.2,0.2-0.2,0.3-0.2c0.3,0,1.3,0.9,1.3,1.2c0,0.1-0.2,0.2-0.3,0.2
				c0,0-0.4-0.1-0.5-0.1c-0.3,0-0.7,0.1-1.4,0.7c-0.1,0.1-0.2,0.1-0.2,0.1c0,0-0.1,0-0.1-0.1c0-0.1,0.5-0.9,0.5-1.1
				c0-0.2-0.2-0.2-0.4-0.2h-8c-0.2,0-0.4,0-0.4,0.3c-0.2,0.6-0.3,1.3-0.9,1.3c-0.3,0-0.5-0.2-0.5-0.5s0.1-0.4,0.5-1
				c0.2-0.3,0.3-0.4,0.4-1.1c0,0,0-0.1,0.1-0.1c0.1,0,0.2,0.2,0.4,0.6c0.1,0.2,0.3,0.2,0.4,0.2H274.9z M270.3,22.5
				c0.2,0,0.4,0,0.4-0.4c0-0.2,0-0.5,0-0.6c0-0.2-0.1-0.5-0.1-0.5c0,0,0-0.2,0.1-0.2c0.1,0,0.7,0.2,0.8,0.2c0.3,0,1.3-1,1.3-1.2
				c0-0.1-0.1-0.1-0.3-0.1h-3.2c-0.3,0-1.2,0-1.7,0c-0.1,0-0.2,0-0.3,0c0,0-0.1,0-0.1-0.1l-0.3-0.3c-0.1-0.1-0.1-0.1-0.1-0.1
				s0,0,0,0c0.1,0,0.5,0,0.6,0c0.4,0,1.1,0.1,1.9,0.1h3.1c0.6,0,0.7,0,0.9-0.2c0.1-0.2,0.2-0.2,0.3-0.2c0.2,0,0.9,0.7,0.9,0.9
				s-0.1,0.2-0.5,0.3c-0.6,0.1-1.6,0.7-2.2,1.1c-0.2,0.1-0.2,0.1-0.2,0.9c0,0.4,0.3,0.4,0.4,0.4h2.3c0.6,0,0.7,0,0.9-0.2
				c0.3-0.5,0.3-0.6,0.6-0.6c0.3,0,1.2,0.8,1.2,1c0,0.2-0.3,0.2-0.7,0.2h-4.3c-0.4,0-0.4,0.1-0.4,0.8c0,1,0,1.8-0.1,2.1
				c-0.1,0.6-0.6,0.8-1.1,0.8c-0.2,0-0.2-0.1-0.3-0.2c-0.1-0.4-0.5-0.5-1.1-0.8c-0.2-0.1-0.3-0.1-0.3-0.2c0-0.1,0.1-0.1,0.1-0.1
				c0,0,1.1,0.2,1.4,0.2c0.2,0,0.4,0,0.4-0.7c0-0.3,0-1.3,0-1.5c0-0.2,0-0.4-0.4-0.4h-2.6c-0.3,0-1.2,0-1.7,0c0,0-0.2,0-0.3,0
				c0,0-0.1,0-0.1-0.1l-0.3-0.3c-0.1-0.1-0.1-0.1-0.1-0.1c0,0,0,0,0,0c0.1,0,0.5,0,0.6,0c0.4,0,1.1,0.1,1.9,0.1H270.3z M267.1,14.6
				c0.3,0,2,0.6,2,1.9c0,0.3-0.2,0.5-0.5,0.5c-0.3,0-0.4-0.1-0.8-1c-0.3-0.6-0.3-0.6-0.8-1.2c0,0-0.1-0.1,0-0.1S267,14.6,267.1,14.6
				z M272,16.1c0,0.4-0.2,0.7-0.5,0.7c-0.4,0-0.5-0.5-0.6-0.8c-0.1-0.5-0.3-1.3-0.5-1.5c0,0-0.1-0.2-0.1-0.3
				C270.5,14.1,272,15,272,16.1z M275.7,15.3c0,0.1-0.1,0.1-0.3,0.2c-0.2,0.1-0.3,0.1-0.8,0.7c-0.8,0.8-1.4,1.3-1.5,1.3
				c0,0-0.1,0-0.1-0.1c0,0,0.5-0.9,0.5-1c0.1-0.3,0.6-1.2,0.7-1.8c0-0.3,0.1-0.3,0.1-0.3s0.2,0.1,0.3,0.1
				C275,14.7,275.7,15.1,275.7,15.3z"/>
		</g>
		<g class="st2">
			<path class="st0" d="M292.8,17c0.2,0,0.3,0,0.4-0.2c0.1-0.1,0.2-0.2,0.2-0.2c0.1,0,1.3,0.8,1.3,1.2c0,0.2-0.1,0.3-0.4,0.3
				c-0.6,0-0.6,0-0.9,0.1c-0.1,0-0.9,0.4-0.9,0.4c0,0,0.4-0.8,0.4-1c0-0.2-0.1-0.2-0.3-0.2H285c-0.2,0-0.3,0-0.4,0.3
				c-0.1,1.4-0.9,1.9-1.3,1.9c-0.2,0-0.5-0.2-0.5-0.5c0-0.3,0.2-0.5,0.4-0.7c0.4-0.3,0.6-0.7,0.8-1.4c0-0.1,0.1-0.7,0.2-0.7
				c0.1,0,0.1,0.1,0.3,0.5c0.1,0.2,0.1,0.3,0.5,0.3h2.9c0.4,0,0.4-0.2,0.4-0.8c0-0.3,0-1.2-0.1-1.4c0-0.1-0.1-0.4-0.1-0.5
				c0,0,0-0.1,0.1-0.1c0.2,0,1.4,0.2,1.4,0.5c0,0.1-0.1,0.1-0.1,0.2c0,0-0.2,0.2-0.2,0.2c-0.1,0.1-0.1,0.9-0.1,1.3
				c0,0.3,0,0.5,0.4,0.5H292.8z M290.7,23.3c0.4,0,0.6,0,0.7,0c0.1-0.1,0.6-0.7,0.7-0.7c0.2,0,1,0.7,1,0.9c0,0.2-0.2,0.2-0.7,0.2
				h-2.7c-0.4,0-0.4,0.2-0.4,0.6c0,1.1,0,1.2,0.4,1.2h2.6c0.6,0,0.7,0,0.8-0.1c0.1-0.1,0.6-0.8,0.7-0.8c0.1,0,1.1,0.9,1.1,1.1
				c0,0.2-0.2,0.2-0.7,0.2h-8.9c-1.2,0-1.6,0-1.7,0c-0.1,0-0.3,0-0.3,0c0,0-0.1,0-0.1-0.1l-0.3-0.3c-0.1-0.1-0.1-0.1-0.1-0.1
				c0,0,0,0,0,0c0.1,0,0.5,0.1,0.6,0.1c0.7,0,1.2,0,1.9,0h2.5c0.4,0,0.4-0.2,0.4-0.5c0-1.1,0-1.2-0.4-1.2h-1c-1.2,0-1.6,0-1.7,0
				c0,0-0.2,0-0.3,0c0,0-0.1,0-0.1-0.1l-0.3-0.3c-0.1-0.1-0.1-0.1-0.1-0.1c0,0,0,0,0,0c0.1,0,0.5,0.1,0.6,0.1c0.7,0,1.2,0,1.9,0h0.9
				c0.4,0,0.4-0.2,0.4-0.5c0-1.5,0-1.6-0.5-1.6h-0.5c-0.4,0-0.4,0.2-0.4,0.4c0,0.2-0.1,0.6-0.6,0.6c-0.3,0-0.4-0.1-0.4-0.4
				c0-0.1,0.1-0.8,0.1-0.9c0-0.4,0-0.9,0-1.1c0-0.3,0-0.7,0-1c0-0.1-0.1-0.4-0.1-0.4c0-0.1,0.1-0.1,0.1-0.1c0.2,0,0.5,0.1,0.7,0.2
				c0.4,0.1,0.6,0.1,0.7,0.1h3.2c0.1,0,0.3,0,0.5-0.2c0.1-0.2,0.2-0.2,0.3-0.2c0.2,0,0.9,0.6,0.9,0.8c0,0.1,0,0.1-0.3,0.4
				c-0.1,0.1-0.1,0.3-0.1,0.7c0,0.2,0,1,0,1.2c0,0.7-0.6,0.7-0.6,0.7c-0.3,0-0.3-0.1-0.4-0.3c-0.1-0.2-0.2-0.2-0.4-0.2h-1.5
				c0,0-0.1,0-0.1,0.1c0,0.1,0,0.1,0.4,0.2c0.4,0.2,0.4,0.2,0.4,0.3c0,0.1-0.3,0.3-0.3,0.4c0,0.1-0.1,0.2-0.1,0.6
				c0,0.3,0.1,0.5,0.4,0.5H290.7z M286.8,16.1c0,0.4-0.3,0.5-0.4,0.5c-0.2,0-0.3-0.1-0.7-0.8c0-0.1-0.4-0.7-0.8-1
				c0,0-0.2-0.1-0.2-0.1c0,0,0.1,0,0.1,0c0.2,0,0.6,0.1,1,0.3C286.2,15,286.8,15.4,286.8,16.1z M287.3,18.9c-0.4,0-0.4,0.1-0.4,0.5
				c0,1.2,0,1.2,0.1,1.3c0.1,0.2,0.3,0.2,0.4,0.2h3.2c0.4,0,0.5,0,0.5-1.4c0-0.5,0-0.6-0.4-0.6H287.3z M292.9,15.4
				c0,0.2-0.2,0.2-0.4,0.2c-0.2,0-0.2,0-1,0.5c-0.5,0.3-1,0.5-1.1,0.5c0,0,0,0,0,0s0.5-0.7,0.6-0.9c0.4-0.7,0.5-0.8,0.6-1
				c0.1-0.2,0.1-0.2,0.2-0.2c0.2,0,0.5,0.3,0.6,0.4C292.6,15,292.9,15.2,292.9,15.4z"/>
		</g>
		<g class="st2">
			<path class="st0" d="M151.9,34.7c-0.1-0.1-0.1-0.1-0.1-0.2c0-0.1,0.1-0.1,0.1-0.1c0.7,0,1.7,0.8,1.7,1.2c0,0.1-0.1,0.2-0.2,0.3
				c-0.2,0.1-0.3,0.3-0.6,0.6c-1.6,2.3-3.9,3.2-4.1,3.2c-0.1,0-0.1-0.1-0.1-0.1c0-0.1,0-0.1,0.4-0.4c2.1-1.7,3-3.6,3-4.1
				C152.1,34.9,152,34.8,151.9,34.7z M155.8,34.6c0.1,0,0.7,0.2,1.4,0.7c1,0.7,2.2,1.9,2.2,2.8c0,0.2-0.1,0.8-0.7,0.8
				c-0.5,0-0.7-0.5-0.9-1.2c-0.3-0.9-0.5-1.4-1.4-2.4c-0.1-0.1-0.6-0.6-0.6-0.6C155.7,34.6,155.8,34.6,155.8,34.6z M160.1,33.5
				c0,0.7-0.6,1.3-1.3,1.3c-0.6,0-1.3-0.5-1.3-1.3c0-0.7,0.5-1.3,1.3-1.3C159.8,32.2,160.1,33.1,160.1,33.5z M157.9,33.6
				c0,0.6,0.5,0.8,0.9,0.8c0.6,0,0.8-0.5,0.8-0.8c0-0.5-0.5-0.9-0.9-0.9C158.5,32.7,157.9,33,157.9,33.6z"/>
		</g>
		<g class="st2">
			<path class="st0" d="M175,36.2c0.1,0,0.2,0,0.3,0c0.8,0,0.9,0.5,0.9,0.6c0,0.4-0.6,0.4-1.1,0.4c-0.3,0-1.7,0-1.9,0
				c-1.9,0-5,0.2-5.3,0.2c-0.2,0-0.9,0.2-1.1,0.2c-0.6,0-1.2-0.8-1.2-1.3c0-0.1,0-0.2,0.1-0.2c0.1,0,0.4,0.1,0.5,0.2
				c0.2,0.1,0.8,0.1,1.7,0.1C168.3,36.5,173,36.3,175,36.2z"/>
		</g>
		<g class="st2">
			<path class="st0" d="M184.8,32.4c0-0.1,0.2-0.1,0.3-0.1c0.9,0,1.3,0.7,1.3,0.8c0,0.2-0.1,0.3-0.4,0.7c-0.1,0.1-0.1,0.1-0.1,0.2
				c0,0.1,0.2,0.1,0.2,0.1c0.1,0,1.1-0.1,2.1-0.5c0.2-0.1,0.5-0.2,0.6-0.2c0.1,0,0.2,0,0.7,0.4c0.1,0,0.4,0.2,0.5,0.3
				c0.1,0.1,0.3,0.2,0.3,0.3c0,0.2-0.1,0.2-0.5,0.5c-0.1,0.1-0.2,0.2-0.7,0.9c-0.7,1.1-2.2,3.3-4.8,5.1c-1.5,1-2.6,1.3-2.7,1.3
				c-0.1,0-0.1-0.1-0.1-0.1c0-0.1,0-0.1,0.5-0.3c4.1-2.3,6.7-6.9,6.7-7.3c0-0.1-0.1-0.1-0.1-0.1c0,0-1.9,0.4-2.2,0.4
				c-0.1,0-0.4,0-0.5,0c-0.3,0-0.3,0-0.9,0.7c-0.8,0.9-1.2,1.3-1.8,1.8c-0.6,0.4-1.1,0.7-1.3,0.7c-0.1,0-0.1,0-0.1-0.1
				c0-0.1,0.9-0.9,1.1-1c1.1-1.1,2.4-3,2.3-3.8C184.9,32.7,184.8,32.4,184.8,32.4z"/>
		</g>
		<g class="st2">
			<path class="st0" d="M197.6,33.4c0.3,0.1,0.8,0.3,1.1,0.3c0.6,0,4.5-0.4,5.1-0.7c0.4-0.2,0.5-0.2,0.6-0.2c0.3,0,0.5,0.2,0.9,0.6
				c0.6,0.5,0.7,0.7,0.7,0.9c0,0.2-0.1,0.2-0.3,0.5c-0.2,0.2-0.3,0.3-0.5,0.9c-2.1,4.4-6.8,6.3-7,6.3c-0.1,0-0.1-0.1-0.1-0.1
				c0-0.1,0-0.1,0.2-0.2c2.4-1.7,4.3-3.4,5.3-5.4c0.7-1.2,0.9-2.2,0.9-2.3c0-0.2-0.2-0.2-0.3-0.2c-0.1,0-4.1,0.7-4.9,1
				c-0.1,0.1-0.6,0.3-0.7,0.3c-0.2,0-0.3,0-1-0.7c-0.3-0.2-0.4-0.4-0.4-0.8c0-0.1,0-0.2,0-0.3C197.4,33.3,197.5,33.4,197.6,33.4z"/>
		</g>
		<g class="st2">
			<path class="st0" d="M219,33.9c0.5-0.2,0.5-0.3,0.6-0.3c0.2,0,1.3,0.6,1.3,1.2c0,0.2-0.1,0.2-0.3,0.5c-0.4,0.5-0.9,3-0.9,3.1
				c0,0.2,0.1,0.2,0.7,0.7c0.1,0.1,0.2,0.2,0.2,0.3c0,0.2-0.2,0.2-0.3,0.2c-0.1,0-0.7-0.2-0.8-0.2c-0.5-0.1-1.3-0.1-1.7-0.1
				c-0.2,0-2.6,0.1-2.7,0.4c-0.3,0.6-0.3,0.7-0.6,0.7c-0.4,0-0.4-0.7-0.4-0.8c0-2.4,0-4.4-0.5-5c-0.2-0.3-0.3-0.3-0.5-0.5
				c0,0-0.1-0.1-0.1-0.1c0-0.1,0.4-0.3,0.6-0.3c0.6,0,0.8,0.2,0.9,0.3c0.4,0.3,0.4,0.3,0.7,0.3C215.5,34.5,218.6,34.1,219,33.9z
				 M216.1,35c-1.3,0.2-1.3,0.2-1.3,0.6c0,0.4,0.1,2.5,0.1,3c0,0.5,0.2,0.5,0.4,0.5c0.1,0,0.6-0.1,0.9-0.1c0.2,0,0.6-0.1,1-0.1
				c1.5-0.1,1.7-0.1,1.7-0.3c0,0,0.4-3.2,0.4-3.4c0-0.1,0-0.5-0.4-0.5C218.4,34.7,216.4,34.9,216.1,35z"/>
		</g>
		<g class="st2">
			<path class="st0" d="M232,39.5c-0.4,0.3-1,0.8-1.3,1.1c-0.3,0.3-0.3,0.3-0.5,0.3c-0.7,0-1.7-0.9-1.7-1.4c0-0.1,0-0.7,0.1-0.7
				c0.1,0,0.4,0.2,0.4,0.3c0.2,0.1,0.6,0.3,0.9,0.3c0.7,0,4.2-2.4,6.5-4.6c0.2-0.2,0.6-0.6,0.6-0.6s0.1,0,0.1,0.1
				C237.1,34.4,235.5,36.9,232,39.5z M230.9,35c-0.4,0-0.5-0.2-0.9-0.9c-0.5-0.7-0.9-0.9-1.2-1.1c-0.1,0-0.1-0.1-0.1-0.1
				c0-0.1,0.1-0.1,0.3-0.1c1.4,0,2.6,0.8,2.6,1.6C231.5,34.8,231.2,35,230.9,35z"/>
		</g>
		<g class="st2">
			<path class="st0" d="M243.8,31.7c0.5,0,1.5,0.4,1.5,0.9c0,0.1-0.1,0.5-0.2,0.6c-0.1,0.3-0.1,1.5-0.1,1.9c0,0.3,0.1,0.3,0.4,0.4
				c0.8,0.2,2.9,1.2,2.9,2.2c0,0.4-0.4,0.5-0.5,0.5c-0.3,0-0.4-0.1-1.3-1.2c-0.4-0.5-1-1.1-1.4-1.1c-0.1,0-0.2,0-0.2,1
				c0,1.4,0,2.2,0.1,3.4c0,0.1,0,0.5,0,0.7c0,0.3,0,1.2-0.4,1.2c-0.4,0-0.8-0.9-0.8-1.3c0-0.1,0.1-0.3,0.1-0.4
				c0.1-1.1,0.1-1.5,0.1-3.1c0-3.9,0-4.3-0.2-4.7c-0.1-0.3-0.2-0.4-0.5-0.6l0-0.1C243.4,31.7,243.8,31.7,243.8,31.7z"/>
		</g>
	</g>
</g>
</svg>
