<?xml version="1.0" encoding="utf-8"?>
<!-- Generator: Adobe Illustrator 23.0.3, SVG Export Plug-In . SVG Version: 6.00 Build 0)  -->
<svg version="1.1" id="Layer_1" xmlns="http://www.w3.org/2000/svg" xmlns:xlink="http://www.w3.org/1999/xlink" x="0px" y="0px"
	 viewBox="0 0 249.1 43.1" style="enable-background:new 0 0 249.1 43.1;" xml:space="preserve">
<style type="text/css">
	.st0{fill:#5C5C5C;}
	.st1{fill:#B38756;}
	.st2{clip-path:url(#SVGID_2_);}
	.st3{clip-path:url(#SVGID_4_);}
	.st4{fill:#FFFFFF;}
	.st5{clip-path:url(#SVGID_6_);}
	.st6{clip-path:url(#SVGID_8_);}
	.st7{clip-path:url(#SVGID_10_);}
	.st8{clip-path:url(#SVGID_12_);}
	.st9{clip-path:url(#SVGID_14_);}
	.st10{clip-path:url(#SVGID_16_);}
</style>
<title>logo_prostyle</title>
<g>
	<polygon class="st0" points="158.9,14 165.7,14 165.7,31.6 167.5,31.6 167.5,14 174.3,14 174.3,12.2 158.9,12.2 	"/>
	<polygon class="st0" points="211.3,12.2 209.5,12.2 209.5,31.6 224.9,31.6 224.9,29.8 211.3,29.8 	"/>
	<path class="st0" d="M243.4,14h5.7v-1.8h-5.7c-5,0-9.2,3.8-9.6,8.8h-2.2v1.7h2.2c0.4,5,4.6,8.8,9.6,8.8h5.7v-1.7h-5.7
		c-4,0-7.4-3.1-7.9-7.1h12.1V21h-12.1C236,17.1,239.3,14,243.4,14"/>
	<path class="st0" d="M197,12.2c-0.2,0.1-0.8,1-5.7,7.9l-0.2,0.3l-0.2-0.3c-4.9-6.9-5.6-7.8-5.7-7.9h-2.1l7.2,10v9.4h1.9v-9.4
		l7.2-10L197,12.2z"/>
	<path class="st0" d="M72.1,15.3c-0.7-1.4-1.9-2.5-3.4-2.9c-0.2,0-0.3-0.1-0.5-0.1h-0.1c-0.3,0-0.6-0.1-0.8-0.1H57.2v8.9H55v1.8h2.2
		v8.7H59v-8.8h8.4c2.1,0,3.9-1.3,4.8-3.1c0.3-0.7,0.5-1.4,0.5-2.2C72.7,16.8,72.5,16,72.1,15.3 M70.9,17.6c0,0.2,0,0.4-0.1,0.6l0,0
		c-0.3,1.6-1.8,2.8-3.4,2.8H59V14h8.3C69.2,14,70.8,15.6,70.9,17.6L70.9,17.6"/>
	<path class="st0" d="M93.4,22.9L93.4,22.9L93.4,22.9c2.6-0.5,4.5-2.7,4.5-5.3c0-0.8-0.2-1.5-0.5-2.2c-0.7-1.4-1.9-2.5-3.4-2.9
		c-0.2,0-0.3-0.1-0.5-0.1h-0.1c-0.3,0-0.5-0.1-0.8-0.1H82.4v8.9h-2.2v1.8h2.2v8.7h1.8v-8.8h7.1c0.3,0.5,1.5,2.5,4.9,8.5l0.2,0.3
		l1.6-0.8L93.4,22.9z M84.2,14h8.3c1.9,0,3.5,1.6,3.5,3.5v0.1c0,0.2,0,0.4-0.1,0.6l0,0c-0.3,1.6-1.8,2.8-3.4,2.8h-8.4V14z"/>
	<path class="st0" d="M115.1,31.8c-4.1,0.1-7.5-3.1-7.7-7.2v-5.4c0.3-4.2,3.9-7.5,8.2-7.2c3.9,0.2,7,3.3,7.2,7.2v5.4
		C122.6,28.7,119.2,31.9,115.1,31.8 M115.1,13.9c-3.1-0.1-5.7,2.2-5.9,5.3v5.4c0.3,3.2,3.2,5.6,6.4,5.3c2.8-0.3,5.1-2.5,5.3-5.3
		v-5.4C120.8,16.1,118.2,13.7,115.1,13.9"/>
	<path class="st0" d="M139.1,14h10v-1.8h-10c-2.9,0-5.3,2.3-5.3,5.2c0,1.3,0.5,2.6,1.3,3.6c1,1.1,2.4,1.7,3.9,1.8h4.8
		c1.9,0,3.5,1.6,3.5,3.5c0,2-1.6,3.5-3.6,3.5h-10v1.8h10c2.9,0,5.3-2.4,5.4-5.3c0-1.3-0.5-2.5-1.4-3.5c-1-1.1-2.4-1.8-3.9-1.8h-4.8
		c-1.9,0.1-3.6-1.3-3.7-3.3s1.3-3.6,3.3-3.7C138.8,14,138.9,14,139.1,14"/>
</g>
<path class="st1" d="M26.5,19.5c1.1-0.2,2.2-0.4,3.1-0.6v-5c-1,0.4-2.1,0.7-3.1,0.9V19.5z"/>
<path class="st1" d="M25,8.9c-1.1,0.4-2.3,0.5-3.5,0.5c-1.2,0-2.4-0.2-3.5-0.5v4.6c1.2,0.2,2.3,0.3,3.5,0.3c1.2,0,2.3-0.1,3.5-0.3
	L25,8.9z"/>
<path class="st1" d="M7.5,16.8l1,0.5c1.1,0.5,2.2,0.9,3.4,1.2v-6.9l1,0.5c1.2,0.5,2.4,0.9,3.6,1.1V6.7l1,0.5C18.7,7.7,20,7.9,21.4,8
	c1.4,0,2.7-0.3,3.9-0.8l1-0.5v1.2v5.4c1.2-0.3,2.4-0.7,3.6-1.1l1-0.5v6.9c1.1-0.3,2.3-0.7,3.4-1.2l1.1-0.5v17.8
	c7.2-7.8,6.8-19.9-1-27.1s-19.9-6.8-27.1,1c-6.9,7.4-6.9,18.8,0,26.2L7.5,16.8z"/>
<path class="st1" d="M18,15v4.7c1.2,0.1,2.3,0.2,3.5,0.2c1.2,0,2.3-0.1,3.5-0.2V15c-1.2,0.2-2.3,0.3-3.5,0.3
	C20.3,15.3,19.2,15.2,18,15"/>
<path class="st1" d="M16.5,19.5v-4.8c-1.1-0.2-2.1-0.5-3.1-0.9v5C14.3,19.1,15.4,19.3,16.5,19.5"/>
<path class="st1" d="M21.5,43.1C9.6,43.1,0,33.4,0,21.5S9.6,0,21.5,0S43,9.6,43,21.5v0C43,33.4,33.4,43,21.5,43.1 M21.5,0.8
	c-11.4,0-20.7,9.3-20.7,20.7s9.3,20.7,20.7,20.7S42.2,33,42.2,21.5C42.2,10.1,33,0.8,21.5,0.8"/>
<path class="st1" d="M31.1,20v15.2h-1.5V20.4c-1,0.2-2,0.4-3.1,0.6v12.7H25V21.2c-1.2,0.1-2.3,0.2-3.5,0.2c-1.2,0-2.3-0.1-3.5-0.2
	v12.5h-1.5V21c-1.1-0.2-2.2-0.4-3.1-0.6v14.8h-1.5V20c-1.2-0.4-2.2-0.7-2.9-1v17h0c7.2,6.3,17.9,6.3,25.1,0V19
	C33.4,19.3,32.4,19.6,31.1,20"/>
<g>
	<defs>
		<rect id="SVGID_1_" x="24.3" y="35.3" width="2.4" height="3"/>
	</defs>
	<clipPath id="SVGID_2_">
		<use xlink:href="#SVGID_1_"  style="overflow:visible;"/>
	</clipPath>
	<g class="st2">
		<g>
			<defs>
				<rect id="SVGID_3_" x="24.3" y="35.3" width="2.4" height="3"/>
			</defs>
			<clipPath id="SVGID_4_">
				<use xlink:href="#SVGID_3_"  style="overflow:visible;"/>
			</clipPath>
			<g class="st3">
				<polygon class="st4" points="26.7,37.3 26.7,37.6 26.1,37.6 26.1,38.3 25.8,38.3 25.8,37.6 24.3,37.6 24.3,37.2 25.6,35.3 
					26.1,35.3 26.1,37.3 				"/>
			</g>
		</g>
	</g>
</g>
<g>
	<defs>
		<rect id="SVGID_5_" x="23" y="35.3" width="0.4" height="3"/>
	</defs>
	<clipPath id="SVGID_6_">
		<use xlink:href="#SVGID_5_"  style="overflow:visible;"/>
	</clipPath>
	<g class="st5">
		<g>
			<defs>
				<rect id="SVGID_7_" x="23" y="35.3" width="0.4" height="3"/>
			</defs>
			<clipPath id="SVGID_8_">
				<use xlink:href="#SVGID_7_"  style="overflow:visible;"/>
			</clipPath>
			<g class="st6">
				<rect x="23" y="35.3" class="st4" width="0.4" height="3"/>
			</g>
		</g>
	</g>
</g>
<g>
	<defs>
		<rect id="SVGID_9_" x="19.5" y="35.3" width="2.8" height="3.1"/>
	</defs>
	<clipPath id="SVGID_10_">
		<use xlink:href="#SVGID_9_"  style="overflow:visible;"/>
	</clipPath>
	<g class="st7">
		<g>
			<defs>
				<rect id="SVGID_11_" x="19.5" y="35.3" width="2.8" height="3.1"/>
			</defs>
			<clipPath id="SVGID_12_">
				<use xlink:href="#SVGID_11_"  style="overflow:visible;"/>
			</clipPath>
			<g class="st8">
				<path class="st4" d="M22.2,36.8c0,1.4-0.7,1.5-1.4,1.5s-1.4-0.2-1.4-1.5s0.7-1.5,1.4-1.5S22.2,35.5,22.2,36.8"/>
			</g>
		</g>
	</g>
</g>
<g>
	<defs>
		<rect id="SVGID_13_" x="16.3" y="35.3" width="2.4" height="3"/>
	</defs>
	<clipPath id="SVGID_14_">
		<use xlink:href="#SVGID_13_"  style="overflow:visible;"/>
	</clipPath>
	<g class="st9">
		<g>
			<defs>
				<rect id="SVGID_15_" x="16.3" y="35.3" width="2.4" height="3"/>
			</defs>
			<clipPath id="SVGID_16_">
				<use xlink:href="#SVGID_15_"  style="overflow:visible;"/>
			</clipPath>
			<g class="st10">
				<path class="st4" d="M18.7,38v0.3h-2.4v-0.8c-0.1-0.4,0.2-0.8,0.7-0.9c0.1,0,0.1,0,0.2,0h0.7c0.1,0,0.2,0,0.3-0.1
					c0.1-0.1,0.1-0.2,0.1-0.4c0-0.2-0.1-0.4-0.4-0.5c0,0,0,0-0.1,0h-1.5v-0.4h1.5c0.4,0,0.8,0.3,0.8,0.7c0,0,0,0,0,0.1
					c0,0.4-0.3,0.8-0.7,0.8c0,0,0,0-0.1,0h-0.7c-0.4,0-0.5,0.2-0.5,0.5V38H18.7z"/>
			</g>
		</g>
	</g>
</g>
<path class="st1" d="M20.8,35.6c-0.5,0-1,0.1-1,1.2s0.5,1.2,1,1.2s1-0.1,1-1.2S21.4,35.6,20.8,35.6"/>
<polygon class="st1" points="25.8,37.3 25.8,35.6 24.7,37.3 "/>
</svg>
