<svg xmlns="http://www.w3.org/2000/svg" viewBox="0 0 191.53 73.93"><defs><style>.cls-1{fill:#0080cb;}.cls-2{fill:#040000;}.cls-3{fill:#f4a400;}</style></defs><title>logo_footer</title><g id="Layer_2" data-name="Layer 2"><g id="レイヤー_2" data-name="レイヤー 2"><path class="cls-1" d="M3.94,53h2.3L4.72,56.74V73.93H2.57V62l-.27.61H0ZM15.1,70.88h6.45V73h-15V70.88H13V66.3H8.35V64.19H13V59.63H7.2V57.52H20.86v2.11H15.1v4.56h4.61V66.3H15.1Zm.35-14.75H13l-1.26-2.54h2.41Z"/><path class="cls-2" d="M29.8,63.14h4.42L36,57.39l-.46-1.07H32.31V54.23h4.58l1.29,3-1.79,5.89h7.06l-.4-2.81h2.17l.4,2.81h2v2H45.65l-1.21,4.41a4.37,4.37,0,0,1-1.82,2.76,5.57,5.57,0,0,1-3.18.72h-.19V70.88h.19c1.9,0,2.54-.4,2.94-1.9l1.07-3.85H35.8l-1.12,3.75a5.17,5.17,0,0,1-2,2.75,4.3,4.3,0,0,1-2.44.67h-1L27,70.11V65.79Zm2.89,5.09.94-3.1H30.77l-1.64,1.55v2.57l1,1h.16c.83,0,1.85-.21,2.44-2"/><path class="cls-3" d="M58.47,62.69l-2-2.41L54.3,63.47H52.1l2.62-3.94h-3V57.79h3.74V56.15H52.39V54.41h3.08v-1.9h1.85v1.9H60.4v1.74H57.32v1.64h3.73v1.74H58.26l2.6,3.16Zm-3.56,1.85H68.54v8.59H54.91Zm11.67,1.92H56.87v1.4h9.71ZM56.87,71.2h9.71V69.84H56.87ZM68.35,59.53l3.35,3.94H69.29l-2.62-3.08L64.5,63.47H62.25L65,59.53H61.9V57.79h3.78V56.15h-3V54.41h3v-1.9h1.81v1.9h3.19v1.74H67.49v1.64h4v1.74Z"/><path class="cls-2" d="M96.41,70.72v2.09H92.47a3.23,3.23,0,0,1-3.21-3.21V66H86.15l-8.4,7.23V70.45L90.36,59.58h-11V57.49H92.76v2.84L88.56,64h1.59l1.25,1.71v4a1.08,1.08,0,0,0,1.07,1.07Zm-6.8-17.27v2.14l-7.12-.32V53.13Z"/><polygon class="cls-2" points="120.13 54.6 111.22 69.97 113.22 73.37 110.6 73.37 104.76 63.41 107.39 63.41 109.9 67.72 116.25 56.8 101.82 56.8 101.82 54.6 120.13 54.6"/><polygon class="cls-2" points="126.9 54.36 143.1 54.36 136.51 63.28 144.28 73.69 141.47 73.69 135.12 65.18 128.83 73.69 126.05 73.69 138.71 56.56 126.9 56.56 126.9 54.36"/><polygon class="cls-2" points="153.89 54.26 168.4 54.26 156.89 73.64 154.32 73.64 157.13 68.93 153.41 62.31 155.87 62.31 158.39 66.81 164.57 56.4 155.17 56.4 151.82 61.99 149.25 61.99 153.89 54.26"/><rect class="cls-2" x="172.9" y="62.05" width="18.63" height="2.25"/><polygon class="cls-1" points="99.13 9.46 98.61 9.07 96.54 7.51 86.56 0 68.79 13.37 68.79 38.27 91.24 38.27 88.75 35.78 71.29 35.78 71.29 14.62 86.56 3.12 94.47 9.07 96.54 10.63 97.06 11.02 101.84 14.62 101.84 38.27 104.34 38.27 104.34 13.37 99.13 9.46"/><polygon class="cls-3" points="106.52 0 97.06 7.12 97.58 7.51 97.71 7.61 98.61 8.29 99.13 8.68 106.52 3.12 121.8 14.62 121.8 35.78 104.33 35.78 104.33 38.28 124.29 38.28 124.29 13.37 106.52 0"/><polygon class="cls-3" points="94.47 9.85 93.95 9.46 88.75 13.37 88.75 38.28 91.24 38.28 91.24 14.62 95.99 11.04 94.47 9.85"/></g></g></svg>