<svg xmlns="http://www.w3.org/2000/svg" viewBox="0 0 100.32 40.63"><defs><style>.cls-1,.cls-2{fill:#fff;}.cls-2{opacity:0.5;}</style></defs><title>logo_small</title><g id="Layer_2" data-name="Layer 2"><g id="レイヤー_2" data-name="レイヤー 2"><path class="cls-1" d="M2.65,18.25c0-4.27,0-5-.07-5.91S2.29,11,1.28,10.78a6.83,6.83,0,0,0-1-.08c-.12,0-.25-.06-.25-.17s.16-.22.49-.22c1.37,0,3.19.09,3.44.09.67,0,2.43-.09,3.83-.09,3.8,0,5.17,1.15,5.65,1.56a4.53,4.53,0,0,1,1.53,3.27c0,3.87-3.17,6.51-7.49,6.51a4.64,4.64,0,0,1-.64,0c-.14,0-.33-.06-.33-.2s.19-.24.82-.24c3,0,5.26-1.94,5.26-4.46a5.46,5.46,0,0,0-1.7-4.22,5.72,5.72,0,0,0-4.17-1.37,4,4,0,0,0-1.3.17c-.19.06-.25.24-.25.52V23.07c0,2.62,0,4.78.14,5.94.11.78.29,1.39,1.2,1.5.43,0,1.09.11,1.37.11s.24.08.24.16S7.94,31,7.6,31c-1.67,0-3.58-.08-3.73-.08S1.86,31,.94,31c-.32,0-.47-.05-.47-.22s.05-.16.24-.16a5.67,5.67,0,0,0,.9-.11c.62-.11.77-.72.89-1.5.15-1.16.15-3.32.15-5.94Z"/><path class="cls-1" d="M21.05,18.25c0-4.27,0-5-.05-5.91s-.32-1.37-1.31-1.56a6.83,6.83,0,0,0-1-.08c-.12,0-.25-.06-.25-.17s.15-.22.49-.22c1.36,0,3.28.09,3.43.09.34,0,2.65-.09,3.59-.09a10.18,10.18,0,0,1,5.56,1.21,4.67,4.67,0,0,1,2.1,3.72c0,2-.94,4-3.68,6.32,2.5,2.87,4.56,5.31,6.33,7a6.54,6.54,0,0,0,3.71,2,8.23,8.23,0,0,0,1.19.08c.16,0,.27.08.27.16s-.19.22-.74.22H38.51a6.71,6.71,0,0,1-3.26-.52c-1.31-.63-2.37-2-4.1-4-1.28-1.5-2.71-3.34-3.31-4.05a.52.52,0,0,0-.4-.16l-3.74-.06a.19.19,0,0,0-.22.22v.66A57.12,57.12,0,0,0,23.64,29c.08.78.27,1.39,1.19,1.5.42,0,1.09.11,1.36.11s.25.08.25.16-.16.22-.5.22c-1.66,0-3.57-.08-3.73-.08s-1.95.08-2.86.08c-.33,0-.48-.05-.48-.22s.06-.16.24-.16a5.79,5.79,0,0,0,.91-.11c.61-.11.76-.72.88-1.5.15-1.16.15-3.32.15-5.94Zm2.43,2.38a.35.35,0,0,0,.22.33,9.07,9.07,0,0,0,3.19.44,4.24,4.24,0,0,0,2.28-.52A4.8,4.8,0,0,0,31,16.66c0-3.41-2-5.47-5.26-5.47a9.76,9.76,0,0,0-2.05.17.32.32,0,0,0-.24.32Z"/><path class="cls-1" d="M44,18.25c0-4.27,0-5-.06-5.91s-.3-1.37-1.31-1.56a6.83,6.83,0,0,0-1-.08c-.12,0-.24-.06-.24-.17s.15-.22.48-.22c.7,0,1.52,0,2.2,0l1.23.06c.22,0,6.27,0,7,0a10.18,10.18,0,0,0,1.31-.14c.15,0,.28-.14.43-.14s.12.12.12.25-.16.52-.24,1.29c0,.27-.1,1.48-.16,1.81,0,.13-.09.29-.22.29s-.24-.13-.24-.35a2.74,2.74,0,0,0-.18-1c-.21-.44-.51-.76-2.16-.93-.51-.05-3.83-.08-4.16-.08-.12,0-.18.08-.18.28v7.55c0,.19,0,.28.18.28.4,0,4.14,0,4.83-.07s1.16-.1,1.43-.38.34-.35.45-.35.16,0,.16.22-.16.63-.25,1.53c-.05.55-.12,1.56-.12,1.75s0,.52-.21.52-.22-.11-.22-.25a2.79,2.79,0,0,0-.11-.9c-.13-.38-.4-.84-1.58-.95-.83-.09-3.83-.14-4.35-.14a.18.18,0,0,0-.21.2v2.4c0,.93,0,4.1,0,4.67.08,1.89.54,2.25,3.53,2.25a9.61,9.61,0,0,0,2.91-.3c.79-.3,1.15-.84,1.37-2,.06-.31.12-.42.27-.42s.19.23.19.42a23,23,0,0,1-.4,2.65c-.21.71-.45.71-1.64.71-2.29,0-4,0-5.14-.08s-1.92-.08-2.38-.08c-.06,0-.56,0-1.21,0s-1.31.05-1.76.05-.49-.05-.49-.22.06-.16.25-.16a5.79,5.79,0,0,0,.91-.11c.6-.11.75-.72.88-1.5.15-1.16.15-3.32.15-5.94Z"/><path class="cls-1" d="M80.66,23.07c0,2.62,0,4.78.15,5.94.09.78.28,1.39,1.19,1.5.43,0,1.1.11,1.37.11s.24.08.24.16-.15.22-.49.22c-1.66,0-3.58-.08-3.74-.08s-2.06.08-3,.08c-.33,0-.48-.05-.48-.22s.06-.16.24-.16a5.65,5.65,0,0,0,.91-.11c.61-.11.77-.72.88-1.5a57.12,57.12,0,0,0,.16-5.94V18.25c0-4.27,0-5-.07-5.91s-.36-1.4-1-1.54a5,5,0,0,0-.93-.1c-.12,0-.24-.06-.24-.17s.15-.22.49-.22c1,0,2.91.09,3.06.09s2.08-.09,3-.09c.34,0,.49.06.49.22s-.13.17-.25.17a5.92,5.92,0,0,0-.76.08c-.82.14-1.06.6-1.12,1.56s-.06,1.64-.06,5.91Z"/><path class="cls-1" d="M89.07,30.65c-.44-.19-.46-.3-.46-1,0-1.36.13-2.45.15-2.89s.09-.44.25-.44.21.08.21.3a4.94,4.94,0,0,0,.08,1c.46,2,2.47,2.79,4.51,2.79,2.91,0,4.34-1.88,4.34-3.63s-.88-3-3.49-4.93l-1.37-1c-3.23-2.39-4-4.08-4-5.94,0-2.93,2.43-4.93,6.3-4.93a12.51,12.51,0,0,1,2.81.28,6.27,6.27,0,0,0,1.07.13c.25,0,.31.06.31.19s-.13,1-.13,2.91c0,.43-.06.62-.21.62s-.21-.13-.25-.35a4.44,4.44,0,0,0-.38-1.37c-.19-.3-1-1.45-3.81-1.45-2.09,0-3.74,1.18-3.74,3.17,0,1.56.79,2.55,3.72,4.6l.84.6c3.59,2.55,4.45,4.24,4.45,6.43a5.46,5.46,0,0,1-2.59,4.54,8.6,8.6,0,0,1-4.59,1.16A10,10,0,0,1,89.07,30.65Z"/><path class="cls-2" d="M61.45,40.63s10-5.44,2.68-19.52S68.21,0,68.21,0s-9.57,7.38-1,20.94S61.45,40.63,61.45,40.63Z"/><path class="cls-1" d="M61.45,40.34s9.43-5.15,3.26-19.23S68.14,0,68.14,0s-8.06,7.38-.85,20.94S61.45,40.34,61.45,40.34Z"/></g></g></svg>