<svg xmlns="http://www.w3.org/2000/svg" viewBox="0 0 252.36 44.5"><defs><style>.cls-1,.cls-2{fill:#1e1210;}.cls-2{opacity:0.5;}</style></defs><title>logo_black</title><g id="Layer_2" data-name="Layer 2"><g id="共通"><path class="cls-1" d="M2.9,20c0-4.67,0-5.5-.07-6.47S2.5,12,1.4,11.81a6.9,6.9,0,0,0-1.13-.09c-.13,0-.27-.06-.27-.19s.17-.24.53-.24c1.51,0,3.5.09,3.77.09.73,0,2.66-.09,4.2-.09,4.16,0,5.66,1.26,6.19,1.71a5,5,0,0,1,1.67,3.57c0,4.25-3.48,7.14-8.2,7.14a5.78,5.78,0,0,1-.71,0c-.15,0-.36-.07-.36-.22s.21-.26.91-.26c3.23,0,5.76-2.13,5.76-4.89a6,6,0,0,0-1.87-4.62,6.26,6.26,0,0,0-4.56-1.5,4.44,4.44,0,0,0-1.43.18c-.2.07-.28.27-.28.57V25.26c0,2.88,0,5.25.16,6.51.12.86.32,1.52,1.31,1.64a13.33,13.33,0,0,0,1.5.12c.2,0,.26.09.26.18s-.16.24-.52.24c-1.83,0-3.93-.09-4.1-.09S2,34,1,34c-.36,0-.52-.05-.52-.24s.06-.18.26-.18a4.7,4.7,0,0,0,1-.12c.68-.12.85-.78,1-1.64a64.35,64.35,0,0,0,.17-6.51Z"/><path class="cls-1" d="M23.05,20c0-4.67,0-5.5-.06-6.47s-.34-1.5-1.43-1.7a6.81,6.81,0,0,0-1.13-.09c-.13,0-.27-.06-.27-.19s.16-.24.53-.24c1.5,0,3.6.09,3.76.09.38,0,2.91-.09,3.94-.09a11.24,11.24,0,0,1,6.09,1.32,5.16,5.16,0,0,1,2.3,4.08c0,2.22-1,4.43-4,6.92,2.73,3.15,5,5.82,6.93,7.67a7.07,7.07,0,0,0,4.06,2.16,8.84,8.84,0,0,0,1.3.09c.17,0,.3.09.3.18s-.2.24-.8.24H42.18a7.47,7.47,0,0,1-3.57-.56c-1.44-.7-2.6-2.16-4.5-4.41-1.4-1.64-3-3.65-3.62-4.44a.6.6,0,0,0-.44-.17L26,24.31a.2.2,0,0,0-.23.23v.72a64.35,64.35,0,0,0,.17,6.51c.09.86.3,1.52,1.3,1.64a13.16,13.16,0,0,0,1.5.12c.2,0,.26.09.26.18s-.17.24-.54.24c-1.82,0-3.92-.09-4.09-.09s-2.13.09-3.13.09c-.37,0-.53-.05-.53-.24s.07-.18.27-.18a4.78,4.78,0,0,0,1-.12c.67-.12.84-.78,1-1.64.16-1.26.16-3.63.16-6.51Zm2.67,2.61A.38.38,0,0,0,26,23a9.86,9.86,0,0,0,3.5.48,4.62,4.62,0,0,0,2.49-.56c1.17-.73,2-2.35,2-4.62,0-3.74-2.19-6-5.76-6a10.43,10.43,0,0,0-2.24.19.35.35,0,0,0-.26.36Z"/><path class="cls-1" d="M48.17,20c0-4.67,0-5.5-.07-6.47s-.33-1.5-1.43-1.7a6.81,6.81,0,0,0-1.13-.09c-.14,0-.26-.06-.26-.19s.16-.24.52-.24c.77,0,1.66,0,2.41,0l1.35.06c.24,0,6.87,0,7.64,0a9.71,9.71,0,0,0,1.42-.15c.17,0,.31-.15.48-.15s.13.12.13.27-.17.57-.27,1.42c0,.29-.1,1.62-.17,2,0,.15-.1.33-.23.33s-.27-.15-.27-.39a2.89,2.89,0,0,0-.2-1.08c-.23-.48-.56-.83-2.36-1-.56-.06-4.2-.08-4.56-.08-.14,0-.19.08-.19.3V21c0,.21,0,.3.19.3.43,0,4.53,0,5.29-.06s1.26-.12,1.57-.42.36-.39.48-.39.18.05.18.23-.18.7-.27,1.68c-.06.6-.13,1.71-.13,1.93s0,.56-.23.56-.24-.12-.24-.27a3.09,3.09,0,0,0-.12-1c-.14-.41-.44-.92-1.74-1-.9-.09-4.19-.15-4.76-.15-.17,0-.22.08-.22.21v2.63c0,1,0,4.5,0,5.13.08,2.06.59,2.46,3.86,2.46A10.54,10.54,0,0,0,58,32.52c.86-.33,1.26-.93,1.49-2.16.07-.34.14-.46.31-.46s.2.25.2.46a26.38,26.38,0,0,1-.44,2.91c-.23.77-.49.77-1.79.77-2.51,0-4.34,0-5.64-.09s-2.09-.09-2.6-.09c-.06,0-.62,0-1.33,0S46.8,34,46.3,34s-.53-.05-.53-.24.07-.18.27-.18a4.88,4.88,0,0,0,1-.12c.66-.12.83-.78,1-1.64.16-1.26.16-3.63.16-6.51Z"/><path class="cls-1" d="M88.35,25.26c0,2.88,0,5.25.16,6.51.09.86.3,1.52,1.3,1.64a13.33,13.33,0,0,0,1.5.12c.19,0,.26.09.26.18S91.41,34,91,34c-1.82,0-3.93-.09-4.1-.09s-2.26.09-3.26.09c-.36,0-.53-.05-.53-.24s.07-.18.27-.18a4.87,4.87,0,0,0,1-.12c.67-.12.84-.78,1-1.64a64.35,64.35,0,0,0,.17-6.51V20c0-4.67,0-5.5-.07-6.47s-.4-1.53-1.14-1.68a5.39,5.39,0,0,0-1-.11c-.14,0-.27-.06-.27-.19s.17-.24.54-.24c1.09,0,3.19.09,3.35.09s2.28-.09,3.26-.09c.37,0,.54.06.54.24s-.13.19-.27.19a5.62,5.62,0,0,0-.83.09c-.9.14-1.16.66-1.23,1.7s-.06,1.8-.06,6.47Z"/><path class="cls-1" d="M97.55,33.57c-.47-.21-.5-.33-.5-1.15,0-1.49.14-2.69.16-3.17,0-.33.11-.48.28-.48s.23.09.23.33a5.33,5.33,0,0,0,.09,1.11c.5,2.21,2.7,3.06,4.94,3.06,3.19,0,4.75-2.07,4.75-4,0-2.07-1-3.27-3.83-5.39l-1.49-1.11c-3.54-2.61-4.33-4.47-4.33-6.51,0-3.2,2.66-5.39,6.89-5.39a14.92,14.92,0,0,1,3.09.29,6.08,6.08,0,0,0,1.17.15c.27,0,.33.06.33.21s-.13,1.14-.13,3.18c0,.48-.07.69-.23.69s-.23-.15-.28-.39a4.49,4.49,0,0,0-.42-1.5c-.2-.33-1.1-1.58-4.17-1.58-2.29,0-4.09,1.29-4.09,3.47,0,1.71.86,2.79,4.07,5l.92.65c3.94,2.8,4.87,4.65,4.87,7.05a6,6,0,0,1-2.83,5,9.49,9.49,0,0,1-5,1.27A11,11,0,0,1,97.55,33.57Z"/><path class="cls-2" d="M67.3,44.5s11-6,2.94-21.38S74.71,0,74.71,0,64.22,8.08,73.59,22.93,67.3,44.5,67.3,44.5Z"/><path class="cls-1" d="M67.3,44.18s10.33-5.64,3.57-21.06S74.63,0,74.63,0,65.8,8.08,73.7,22.93,67.3,44.18,67.3,44.18Z"/><path class="cls-1" d="M128.64,14.67a2.82,2.82,0,0,0,1,.24,30,30,0,0,0,4.36-.54c.36-.16.41-.19.49-.19.25,0,.44.17.79.48.52.46.59.59.59.75s-.05.21-.26.42a1.8,1.8,0,0,0-.45.72,11.76,11.76,0,0,1-6,5.39.07.07,0,0,1-.08-.07s0-.06.15-.15a15,15,0,0,0,4.57-4.58,6.53,6.53,0,0,0,.78-2c0-.2-.19-.21-.25-.21a39.2,39.2,0,0,0-4.16.83,4.16,4.16,0,0,1-.58.26c-.27,0-1.19-.58-1.19-1.22,0-.22,0-.25.1-.25Zm9.31-.78a1.12,1.12,0,1,1-2.23,0,1.1,1.1,0,0,1,1.13-1.09A1.07,1.07,0,0,1,138,13.89Zm-1.85,0a.72.72,0,0,0,.75.69.71.71,0,0,0,.72-.7.78.78,0,0,0-.74-.73A.74.74,0,0,0,136.1,13.93Z"/><path class="cls-1" d="M144.89,16.05a10.68,10.68,0,0,0-.1,2.17c0,.34,0,.61.38.61a15.25,15.25,0,0,0,5.5-3c.16-.13.18-.16.26-.16a.1.1,0,0,1,.1.1,14.64,14.64,0,0,1-4.55,3.46c-1.34.7-1.43.77-1.68,1.07-.05.08-.08.09-.12.09s-.79-.57-.79-.88A3.67,3.67,0,0,1,144,19a10.26,10.26,0,0,0,.05-1.49c0-1.53,0-1.84-.3-2.39a2.53,2.53,0,0,1-.25-.45s.07,0,.11,0,1.46.23,1.46.7C145.07,15.36,144.91,15.92,144.89,16.05Z"/><path class="cls-1" d="M158.85,17.14c0,.24-.17.58-.45.58s-.23-.07-.41-.36a2.86,2.86,0,0,0-1.05-1s-.1-.07-.1-.11.66-.17.81-.17C158.14,16.12,158.85,16.58,158.85,17.14Zm-1.42,3.59c0-.06-.25-.3-.28-.36a.44.44,0,0,1-.07-.22s0-.08.1-.08.55.15.64.15c.5,0,3.61-1.73,6.37-4.87a6.42,6.42,0,0,1,.5-.52,0,0,0,0,1,.05.05c0,.12-1,2.6-5.81,5.95-.14.1-.69.62-.84.62S157.72,21.26,157.43,20.73Zm2.81-5.89c0,.27-.19.52-.37.52s-.19,0-.6-.54a2,2,0,0,0-1-.61c-.05,0-.17-.05-.17-.08a1.33,1.33,0,0,1,.89-.22C160.24,13.91,160.24,14.81,160.24,14.84Z"/><path class="cls-1" d="M175,15.13c-.08,0-2.51.57-2.57.59a3.85,3.85,0,0,1-.52.22,2.67,2.67,0,0,1-.79-.41,2.45,2.45,0,0,1-.28-.68s0-.09.07-.09l.3.08a2,2,0,0,0,.62.12,16.26,16.26,0,0,0,3.17-.43,4,4,0,0,1,.63-.36c.28,0,1,.59,1,.88,0,.11-.43.42-.5.5-.23.28-1.15,1.63-1.33,1.9a.32.32,0,0,0-.09.23c0,.1,0,.12.5.39s2.6,1.47,2.6,2.52a.5.5,0,0,1-.48.51c-.26,0-.31-.08-.72-.8A5.23,5.23,0,0,0,174.48,18c-.11,0-.15,0-.4.33A11.72,11.72,0,0,1,171,20.82a2.79,2.79,0,0,1-.72.27.07.07,0,0,1-.08-.07,3.64,3.64,0,0,1,.54-.43,12.67,12.67,0,0,0,4.36-5.37A.14.14,0,0,0,175,15.13Z"/><path class="cls-1" d="M184.79,18.49c-.29,0-.31.15-.33.4a.77.77,0,0,1-.68.65c-.29,0-.3-.15-.3-.3s0-.48,0-.57c0-.44,0-1.53,0-1.84,0-.73,0-1.48-.06-2.09,0-.06,0-.38,0-.41s0-.08,0-.08.18.05.87.42a1.12,1.12,0,0,0,.63.16h1.92c.35,0,.35-.21.35-.43s0-1.4,0-1.72c0-.07-.07-.36-.07-.43s.07-.07.12-.07,1.13.18,1.13.4c0,.07-.24.3-.25.35a6.86,6.86,0,0,0,0,1.52c0,.17,0,.38.32.38h2.15a.36.36,0,0,0,.36-.16c.22-.3.25-.34.35-.34s1,.59,1,.74-.25.29-.29.35-.09.3-.09,1.46c0,.23,0,1.39,0,1.65s0,.38-.12.53a.8.8,0,0,1-.57.31c-.32,0-.32-.28-.32-.57,0-.11,0-.31-.34-.31h-2.08c-.21,0-.37,0-.37.38s0,2.4,0,2.85c0,.25,0,.92-.62.92-.38,0-.38-.35-.38-.46s.05-.72.05-.86c0-.41,0-2,0-2.43s0-.4-.34-.4Zm2.1-.32c.09,0,.24,0,.3-.13a15.75,15.75,0,0,0,.07-1.89c0-.93,0-1-.36-1h-2.15c-.34,0-.34.13-.34.55s0,1.72,0,2.05.05.44.35.44Zm3.74,0c.11,0,.27,0,.31-.17s.05-2.27.05-2.49-.1-.38-.33-.38h-2.23c-.34,0-.34.23-.34.4s0,2.3,0,2.44.17.2.32.2Z"/><path class="cls-1" d="M200.5,19.48c-.22,0-.43,0-.43.31v1.09c0,.21,0,.29.16.29s2-.31,2.22-.31c0,0,.11,0,.11,0a4.32,4.32,0,0,1-1.09.49c-.52.17-3.24.9-3.34,1s-.33.26-.4.26-.11-.05-.13-.11a7.49,7.49,0,0,1-.51-1s.69,0,.78,0,1.26,0,1.4-.22a6.06,6.06,0,0,0,.1-1.38c0-.36-.18-.36-.48-.36a7.81,7.81,0,0,0-1,0l-.24,0c-.05,0-.07,0-.11-.08l-.22-.26c0-.05,0-.07,0-.08s0,0,0,0l.42,0,1.17,0c.35,0,.45-.05.45-.38,0-.08,0-1.21,0-1.25,0-.29-.19-.29-.38-.29h-.29c-.22,0-.3,0-.36.17a.58.58,0,0,1-.52.42c-.26,0-.26-.3-.26-.37,0-.37,0-2.18,0-2.58,0-.94,0-1,0-1.93,0-.05,0-.3,0-.36s0-.14.08-.14a1.87,1.87,0,0,1,.57.28c.27.16.29.16.45.16h2.15c.17,0,.19,0,.35-.16a.63.63,0,0,1,.33-.2c.13,0,.73.46.73.64s0,.12-.29.37c-.05.06-.08.08-.08.56s0,2.53,0,3a.52.52,0,0,1-.55.53c-.17,0-.19-.09-.24-.23s-.2-.16-.39-.16h-.26c-.11,0-.29,0-.33.14s0,1.29,0,1.47,0,.32.3.32.43,0,.55-.2.21-.36.32-.36.87.55.87.73-.06.13-.6.13Zm-1.45-4.57c.36,0,.39,0,.39-.5v-.93c0-.26-.12-.28-.39-.28h-.31c-.2,0-.35,0-.38.2s0,.8,0,1c0,.49,0,.55.39.55Zm0,2c.14,0,.29,0,.35-.13s0-1.1,0-1.26-.09-.35-.39-.35h-.28c-.27,0-.4,0-.4.34s0,.78,0,1.07.08.33.37.33Zm1.46-1.74c-.26,0-.4,0-.4.33v1.08c0,.33.17.33.4.33h.22c.19,0,.34,0,.38-.21,0-.06,0-.81,0-1.21s-.16-.32-.39-.32Zm0-2c-.24,0-.38,0-.38.31v1.08c0,.32.12.32.38.32h.22c.24,0,.38,0,.38-.31V13.51c0-.31-.14-.31-.38-.31Zm4.86,3.2c-.36,0-.41.1-.41.4s0,2.25,0,2.68c0,.13,0,1.75,0,2.08,0,.56-.05.73-.3.88a1,1,0,0,1-.67.18.12.12,0,0,1-.13-.07,1.24,1.24,0,0,0-.45-.55,4.41,4.41,0,0,1-.6-.34s.05,0,.08,0l.32,0,.51,0c.48,0,.47-.11.48-.38s0-4,0-4.54c0-.19-.05-.36-.35-.36s-.88,0-1.17,0l-.24,0c-.05,0-.07,0-.1-.08l-.22-.26-.06-.07s0,0,0,0l.5,0c.34,0,.93,0,1.59,0h1.75c.2,0,.25,0,.34-.15s.16-.19.23-.19c.25,0,1,.75,1,.89a.18.18,0,0,1-.18.17,1.25,1.25,0,0,0-.73.29,9.14,9.14,0,0,1-.89.66s-.06,0-.06-.05.51-1.1.51-1.22-.09-.09-.16-.09Zm0-3.49c.21,0,.3,0,.4-.11.25-.32.27-.35.38-.35s1.08.69,1.08.88-.08.14-.34.14c-.51,0-.73.17-1.9,1a.15.15,0,0,0-.1.14A2.88,2.88,0,0,0,205,15a.9.9,0,0,1,.1.36c0,.24-.21.5-.4.5s-.3-.18-.38-.35a3,3,0,0,0-.62-.87c-.07-.06-.41-.38-.41-.39s0,0,.07,0a3.36,3.36,0,0,1,.71.14c.12,0,.48.21.56.21s.8-1.09.8-1.19-.07-.11-.21-.11h-.83c-.33,0-.91,0-1.37,0l-.33,0c-.05,0-.07,0-.11-.08l-.22-.27c-.05,0-.06,0-.06-.08s0,0,0,0l.51,0c.33,0,.94,0,1.58,0Z"/><path class="cls-1" d="M215.17,14.2c-.38,0-.38.09-.38.92,0,.12,0,.37.26.37l.64-.12c.15,0,1-.19,1-.19s.05,0,.05,0-1.52.6-1.63.64-.3.11-.34.37c0,.07,0,1,0,1.19a1.11,1.11,0,0,1-.26.87,1.09,1.09,0,0,1-.73.38c-.09,0-.13,0-.18-.11a1.47,1.47,0,0,0-.38-.42c-.06-.05-.41-.19-.41-.27a.77.77,0,0,1,.23,0c.16,0,.85,0,.93-.14a5.14,5.14,0,0,0,.09-1.21.19.19,0,0,0-.18-.19,3.86,3.86,0,0,0-1.05.45c-.12.21-.16.28-.26.28s-.21-.19-.32-.42a6,6,0,0,1-.35-.75s0,0,0,0l.56,0a4.4,4.4,0,0,0,1.38-.17c.19-.12.19-.22.19-.7,0-.7,0-.78-.37-.78-.17,0-.78,0-1.05,0l-.24,0s-.07,0-.11-.07l-.22-.26s-.06-.06-.06-.08,0,0,.05,0l.51,0,1.15,0a.28.28,0,0,0,.32-.28,7.32,7.32,0,0,0-.12-1.28,1.4,1.4,0,0,1-.09-.17s0,0,.05,0a9.78,9.78,0,0,1,1,.31c.06,0,.21.11.21.22s-.26.32-.28.39a4.3,4.3,0,0,0,0,.59.26.26,0,0,0,.26.26.43.43,0,0,0,.33-.08,5,5,0,0,1,.42-.51c.07,0,.74.55.74.73s-.06.17-.63.17Zm4.49,5.06a.46.46,0,0,0,.37-.13c.05-.07.12-.15.17-.15s.91.39.91.54,0,.11-.24.27-.12.15-.12.71c0,.25.05,1.36.05,1.58s-.09.55-.65.55c-.24,0-.25-.06-.25-.29s0-.42-.35-.42h-4.38c-.34,0-.35.08-.39.37s-.41.35-.62.35-.21,0-.24-.14,0-.91,0-1.52c0-1.35,0-1.5,0-1.7a1.68,1.68,0,0,1-.07-.24s.06,0,.09,0a2.61,2.61,0,0,1,.71.19,1.26,1.26,0,0,0,.51.07Zm-4.6.31c-.36,0-.36,0-.36,1s0,1,.36,1h4.5c.15,0,.36,0,.36-.34v-1.4c0-.3-.21-.3-.36-.3Zm5.59-4.45c.43,0,.45,0,.49-.08s.36-.54.46-.54.85.62.85.77-.18.15-.48.15h-1.2c-.28,0-.37.11-.37.31,0,.4.11,2.1.11,2.44a.46.46,0,0,1-.51.52c-.16,0-.38-.08-.38-.3,0-.41.06-2.26.06-2.63s-.22-.34-.36-.34h-.9a.49.49,0,0,0-.54.41,3.22,3.22,0,0,1-2,2.6,0,0,0,0,1,0,0s.33-.35.37-.39a4.48,4.48,0,0,0,1.05-3,16.13,16.13,0,0,0-.15-1.88s-.12-.21-.12-.24a.08.08,0,0,1,.07-.07s.42.17.58.22a1.31,1.31,0,0,0,.35.06,8.7,8.7,0,0,0,2.82-.9,1.5,1.5,0,0,1,.23-.17,4.59,4.59,0,0,1,.93.89c0,.07,0,.1-.12.1-.54,0-2.91.31-3.39.36a.44.44,0,0,0-.44.35c0,.07,0,.93,0,1s.18.35.43.35Z"/><path class="cls-1" d="M235.26,15.1c.45,0,.59,0,.74-.2s.15-.21.27-.21,1.1.73,1.1,1-.15.18-.23.18l-.4-.06a2,2,0,0,0-1.22.58c-.09.07-.15.12-.21.12a0,0,0,0,1,0-.05c0-.13.39-.8.39-.9s-.15-.16-.31-.16h-6.86c-.21,0-.31,0-.37.23-.15.53-.29,1.12-.75,1.12a.44.44,0,0,1-.43-.45c0-.24.06-.32.42-.82a1.78,1.78,0,0,0,.33-.93s0-.12.09-.12.2.2.33.51a.31.31,0,0,0,.33.16Zm-3.9,4.11c.14,0,.36,0,.36-.3a5.09,5.09,0,0,0,0-.54c0-.17-.08-.4-.08-.45s0-.19.13-.19.59.15.69.15a2.85,2.85,0,0,0,1.14-1c0-.08-.06-.08-.22-.08h-2.72c-.28,0-1.07,0-1.46,0l-.25,0s-.06,0-.1-.07l-.23-.27c0-.05,0-.05,0-.08s0,0,0,0l.51,0c.33,0,.94.05,1.59.05h2.62c.52,0,.57,0,.74-.2s.18-.18.29-.18a1.68,1.68,0,0,1,.73.76c0,.18-.11.2-.45.28a9,9,0,0,0-1.92.92c-.15.1-.18.11-.18.8,0,.31.26.31.37.31h2c.48,0,.64,0,.74-.19.22-.4.26-.49.48-.49a2.16,2.16,0,0,1,1.06.84c0,.15-.23.15-.61.15h-3.69c-.34,0-.34.09-.34.68,0,.87,0,1.5,0,1.81a.85.85,0,0,1-.94.68c-.16,0-.17-.07-.22-.21-.09-.32-.45-.47-.94-.67-.14-.06-.26-.11-.26-.18s.07-.06.1-.06,1,.14,1.16.14.33,0,.34-.59c0-.25,0-1.07,0-1.25s0-.35-.36-.35h-2.22c-.28,0-1.07,0-1.47,0l-.24,0s-.06,0-.11-.07l-.22-.26c0-.06,0-.06,0-.08s0,0,0,0l.51,0c.34,0,.94,0,1.6,0Zm-2.79-6.7c.23,0,1.68.54,1.68,1.58a.41.41,0,0,1-.4.44c-.29,0-.33-.09-.68-.83a4.21,4.21,0,0,0-.67-1.07s-.05-.08,0-.1S228.55,12.51,228.57,12.51Zm4.2,1.28c0,.35-.21.59-.43.59s-.43-.44-.47-.68a6,6,0,0,0-.4-1.31s-.09-.2-.05-.23S232.77,12.84,232.77,13.79Zm3.17-.69c0,.1-.05.11-.26.17s-.25.1-.7.57a6.11,6.11,0,0,1-1.29,1.08,0,0,0,0,1,0,0s.4-.75.45-.85a5.94,5.94,0,0,0,.59-1.51c0-.22,0-.26.11-.26a.44.44,0,0,1,.22.1C235.32,12.54,235.94,12.91,235.94,13.1Z"/><path class="cls-1" d="M250.62,14.52a.36.36,0,0,0,.36-.2c.08-.12.13-.18.19-.18s1.14.71,1.14,1c0,.16-.12.23-.35.24a2.22,2.22,0,0,0-.78.08c-.12,0-.77.37-.77.35a4.93,4.93,0,0,0,.36-.85c0-.16-.12-.16-.22-.16H243.9c-.2,0-.29,0-.32.27-.11,1.22-.8,1.65-1.14,1.65a.41.41,0,0,1-.4-.43c0-.29.15-.41.35-.61a2.25,2.25,0,0,0,.7-1.23,3.19,3.19,0,0,1,.15-.61s.06.05.23.43c.08.18.11.23.4.23h2.51c.36,0,.36-.17.36-.71,0-.25,0-1,0-1.2a3.06,3.06,0,0,1-.07-.4s0-.09.11-.09,1.19.17,1.19.47a.21.21,0,0,1-.1.16l-.19.17a6.76,6.76,0,0,0,0,1.15c0,.26,0,.45.36.45Zm-1.81,5.42a2.31,2.31,0,0,0,.57,0c.12-.06.49-.6.6-.6s.88.59.88.77-.21.18-.62.18h-2.33c-.35,0-.37.17-.37.47,0,.93,0,1,.35,1h2.21c.49,0,.59,0,.66-.08s.49-.71.63-.71,1,.75,1,.94-.19.16-.6.16h-7.62c-1,0-1.35,0-1.46,0l-.25,0s-.06,0-.09-.08l-.24-.27c0-.05,0-.06,0-.07a0,0,0,0,1,0,0l.52,0c.57,0,1,0,1.59,0h2.17c.35,0,.35-.19.35-.46,0-1,0-1-.34-1h-.85c-1,0-1.36,0-1.47,0l-.24,0s-.06,0-.11-.08l-.22-.26s0-.06,0-.07,0,0,0,0l.51.05c.57,0,1,0,1.58,0h.81c.34,0,.34-.2.34-.42,0-1.28,0-1.37-.45-1.37h-.41c-.32,0-.34.19-.36.31a.46.46,0,0,1-.52.48c-.22,0-.35-.06-.35-.32s.05-.67.05-.77c0-.38,0-.76,0-1a8.44,8.44,0,0,0,0-.87c0-.05-.08-.32-.08-.38a.1.1,0,0,1,.11-.1,1.88,1.88,0,0,1,.59.18,1.37,1.37,0,0,0,.6.13h2.7a.46.46,0,0,0,.43-.2c.12-.15.14-.17.22-.17s.81.52.81.68,0,.13-.24.32-.1.26-.1.6c0,.15,0,.85,0,1a.52.52,0,0,1-.55.56c-.25,0-.28-.12-.32-.29s-.2-.21-.32-.21h-1.28s-.1,0-.1.06,0,.08.34.21.37.2.37.26-.26.27-.28.33a1.23,1.23,0,0,0-.06.51c0,.27.05.42.37.42Zm-3.32-6.18a.39.39,0,0,1-.38.45c-.18,0-.22-.07-.57-.72a2.67,2.67,0,0,0-.71-.87.61.61,0,0,1-.14-.11s.08,0,.09,0a2.47,2.47,0,0,1,.88.23A1.26,1.26,0,0,1,245.49,13.76Zm.36,2.4c-.3,0-.37.09-.37.42,0,1,0,1,.05,1.13s.22.14.32.14h2.71c.33,0,.39,0,.39-1.16,0-.39,0-.53-.37-.53Zm4.81-3c0,.15-.15.16-.31.16s-.18,0-.85.39a3.81,3.81,0,0,1-.93.4s0,0,0,0,.45-.6.52-.72a4.24,4.24,0,0,0,.48-.89c.06-.17.07-.2.14-.2s.39.22.51.31S250.66,13,250.66,13.18Z"/><path class="cls-1" d="M130.36,29.63c-.07-.11-.08-.13-.08-.16s.05-.07.11-.07c.61,0,1.47.68,1.47,1,0,.1-.06.14-.21.24s-.25.22-.48.55a7.14,7.14,0,0,1-3.5,2.73.09.09,0,0,1-.09-.09s0-.08.32-.31A7.22,7.22,0,0,0,130.49,30,.57.57,0,0,0,130.36,29.63Zm3.32-.08a4.6,4.6,0,0,1,1.16.6c.82.57,1.86,1.65,1.86,2.43,0,.17-.08.67-.58.67s-.61-.42-.79-1a4.36,4.36,0,0,0-1.21-2.06,6.33,6.33,0,0,1-.52-.52C133.6,29.59,133.63,29.55,133.68,29.55Zm3.65-.88a1.11,1.11,0,1,1-2.22,0,1.08,1.08,0,0,1,1.12-1.11A1.07,1.07,0,0,1,137.33,28.67Zm-1.84,0a.72.72,0,0,0,.75.71.71.71,0,0,0,.7-.72.76.76,0,0,0-.74-.73A.74.74,0,0,0,135.49,28.7Z"/><path class="cls-1" d="M150,31h.26c.7,0,.81.42.81.5,0,.33-.48.36-1,.36l-1.66,0c-1.59,0-4.24.15-4.52.21s-.76.21-.9.21c-.5,0-1-.72-1-1.11,0-.07,0-.14.09-.14a3.17,3.17,0,0,1,.4.14,6.89,6.89,0,0,0,1.41.1C144.32,31.19,148.36,31,150,31Z"/><path class="cls-1" d="M159.55,27.69c0-.12.16-.12.25-.12a1.08,1.08,0,0,1,1.08.65c0,.14-.12.29-.35.58-.06.08-.09.12-.09.18s.14.09.18.09a6.32,6.32,0,0,0,1.76-.46,2.14,2.14,0,0,1,.54-.18c.11,0,.17,0,.64.31L164,29a.42.42,0,0,1,.22.29c0,.16-.08.21-.46.44-.13.08-.18.15-.58.77A14.15,14.15,0,0,1,159,34.82a8.23,8.23,0,0,1-2.3,1.11.1.1,0,0,1-.11-.1s0-.07.39-.27a14.48,14.48,0,0,0,5.73-6.24.12.12,0,0,0-.13-.13s-1.62.36-1.89.36l-.46,0c-.22,0-.24,0-.72.58a8.41,8.41,0,0,1-1.58,1.5,3.48,3.48,0,0,1-1.11.62.07.07,0,0,1-.08-.07,10.1,10.1,0,0,1,.92-.87c.93-.94,2-2.53,1.94-3.23C159.62,28,159.55,27.73,159.55,27.69Z"/><path class="cls-1" d="M170.6,28.56a2.82,2.82,0,0,0,1,.26,29.73,29.73,0,0,0,4.36-.56c.36-.16.41-.18.49-.18.25,0,.44.16.8.47.52.47.59.59.59.75s-.06.21-.27.42a2,2,0,0,0-.45.73,11.77,11.77,0,0,1-6,5.39.08.08,0,0,1-.08-.07c0-.05,0-.07.15-.15A15.16,15.16,0,0,0,175.75,31a6.51,6.51,0,0,0,.79-2c0-.19-.2-.2-.26-.2a37.33,37.33,0,0,0-4.16.83,3.33,3.33,0,0,1-.6.25c-.15,0-.24,0-.84-.55a.73.73,0,0,1-.33-.65,1.48,1.48,0,0,1,0-.27A.9.9,0,0,1,170.6,28.56Z"/><path class="cls-1" d="M189.25,29c.39-.2.43-.22.52-.22s1.1.56,1.1,1c0,.14-.05.19-.25.47a10.38,10.38,0,0,0-.8,2.68c0,.16.06.21.61.6a.35.35,0,0,1,.14.24c0,.14-.15.2-.22.2s-.6-.14-.71-.15a11,11,0,0,0-1.43-.1,8.12,8.12,0,0,0-2.34.32c-.22.49-.25.58-.51.58s-.35-.56-.35-.7c0-2,0-3.73-.42-4.28a1.09,1.09,0,0,0-.46-.39.08.08,0,0,1,0-.07c0-.11.32-.29.49-.29a1.13,1.13,0,0,1,.79.27c.31.25.32.26.6.26A24.59,24.59,0,0,0,189.25,29Zm-2.47.9c-1.09.18-1.09.2-1.09.53s.09,2.17.09,2.57.21.4.33.4.49-.07.75-.11.52-.06.85-.08c1.29-.07,1.43-.07,1.48-.24s.39-2.78.39-2.88,0-.44-.32-.44C188.72,29.63,187,29.84,186.78,29.88Z"/><path class="cls-1" d="M200.44,33.76a7.9,7.9,0,0,0-1.13,1c-.22.26-.25.28-.42.28-.63,0-1.48-.74-1.48-1.2,0-.08,0-.61.11-.61a3.37,3.37,0,0,1,.35.22,1.94,1.94,0,0,0,.79.26c.56,0,3.63-2,5.55-3.94.18-.18.51-.51.53-.51a.09.09,0,0,1,.06.06A15.72,15.72,0,0,1,200.44,33.76ZM199.49,30c-.31,0-.43-.18-.81-.76a2.65,2.65,0,0,0-1.05-1s-.11-.06-.11-.1.1-.11.26-.11c1.24,0,2.21.66,2.21,1.34A.51.51,0,0,1,199.49,30Z"/><path class="cls-1" d="M211.84,27.12c.41,0,1.25.37,1.25.74a3.79,3.79,0,0,1-.14.48,14.51,14.51,0,0,0-.11,1.61c0,.26,0,.29.39.37.7.16,2.49,1,2.49,1.88a.39.39,0,0,1-.41.4c-.29,0-.33-.05-1.1-1.05-.33-.43-.87-1-1.23-1-.11,0-.16,0-.16.85,0,1.23,0,1.84.06,2.88,0,.13,0,.42,0,.59s0,1.05-.33,1.05-.65-.78-.65-1.08c0,0,0-.29,0-.34a21.71,21.71,0,0,0,.11-2.68c0-3.31,0-3.68-.14-4.05a1.29,1.29,0,0,0-.39-.53l0-.05C211.53,27.12,211.83,27.12,211.84,27.12Z"/></g></g></svg>