<svg width="381" height="119" viewBox="0 0 381 119" fill="none" xmlns="http://www.w3.org/2000/svg">
<path d="M98.3416 7.64696C98.3416 7.74372 98.3416 7.84048 98.3416 7.84048C98.3416 7.93725 98.4382 7.93725 98.5348 7.93725H112.251C113.024 7.93725 113.603 8.22754 114.183 8.71135C114.666 9.19516 114.956 9.8725 114.956 10.6466V42.3848C114.956 42.7719 114.763 43.1589 114.473 43.546C114.183 43.8363 113.797 44.0298 113.314 44.0298C112.927 44.0298 112.541 43.8363 112.154 43.546C111.865 43.2557 111.672 42.8686 111.672 42.3848V41.8043C111.672 41.6107 111.575 41.514 111.382 41.514H86.8469C86.6537 41.514 86.5571 41.6107 86.5571 41.8043V42.5784C86.5571 42.9654 86.3639 43.3525 86.0742 43.6427C85.7844 43.933 85.398 44.1266 84.915 44.1266C84.4321 44.1266 84.1423 43.933 83.7559 43.6427C83.4661 43.3525 83.2729 42.9654 83.2729 42.5784V10.6466C83.2729 9.8725 83.5627 9.29193 84.0457 8.71135C84.5287 8.22754 85.2048 7.93725 85.9776 7.93725H94.5744C94.7676 7.93725 94.9608 7.84048 95.0574 7.64696C95.637 6.19552 96.1199 4.74407 96.5063 3.29263C96.6029 2.80882 96.8927 2.42176 97.2791 2.13148C97.5688 1.93795 97.9552 1.84119 98.3416 1.84119C98.4382 1.84119 98.5348 1.84119 98.6314 1.84119C99.1143 1.93795 99.4041 2.13148 99.6939 2.51853C99.9837 2.90558 99.9837 3.29263 99.7905 3.77644C99.4041 5.03436 98.8246 6.29228 98.3416 7.64696ZM111.768 11.2272C111.768 11.0337 111.672 10.9369 111.478 10.9369H86.8469C86.5571 10.9369 86.4605 11.0337 86.4605 11.2272V18.0006C86.4605 18.1941 86.5571 18.2909 86.8469 18.2909H111.382C111.575 18.2909 111.672 18.1941 111.672 18.0006V11.2272H111.768ZM111.768 21.5808C111.768 21.2905 111.672 21.1938 111.478 21.1938H86.8469C86.5571 21.1938 86.4605 21.2905 86.4605 21.5808V28.0639C86.4605 28.3542 86.5571 28.451 86.8469 28.451H111.382C111.575 28.451 111.672 28.3542 111.672 28.0639V21.5808H111.768ZM86.5571 38.224C86.5571 38.4176 86.6537 38.5143 86.9435 38.5143H111.478C111.672 38.5143 111.768 38.4176 111.768 38.224V31.5474C111.768 31.3539 111.672 31.2571 111.478 31.2571H86.8469C86.5571 31.2571 86.4605 31.3539 86.4605 31.5474V38.224H86.5571Z" fill="#AE8148" stroke="#AE8148" stroke-width="2" stroke-miterlimit="10" stroke-linecap="round" stroke-linejoin="round"/>
<path d="M145.383 41.9011H155.718C156.974 41.9011 157.747 41.514 158.133 40.8367C158.52 40.1594 158.809 38.6111 159.003 36.3856C159.003 35.9985 159.196 35.7083 159.582 35.6115C159.872 35.418 160.258 35.418 160.645 35.6115C161.128 35.805 161.417 36.0953 161.707 36.4824C161.997 36.8694 162.094 37.2565 161.997 37.7403C161.707 40.5464 161.128 42.4817 160.355 43.4493C159.486 44.4169 158.037 44.9975 155.815 44.9975H145.093C142.485 44.9975 140.746 44.6104 139.877 43.9331C138.911 43.159 138.525 41.8043 138.525 39.6755V30.8701C138.525 30.5798 138.428 30.4831 138.235 30.5798L123.553 32.0313C123.166 32.128 122.78 32.0313 122.49 31.741C122.104 31.4507 121.911 31.0636 121.911 30.4831C121.911 30.1928 122.007 29.9025 122.2 29.6122C122.49 29.3219 122.78 29.1284 123.166 29.0316L138.332 27.2899C138.525 27.2899 138.621 27.0964 138.621 26.9028V20.2262C138.621 20.0327 138.525 19.9359 138.332 19.9359C135.047 20.6133 131.763 21.1938 128.479 21.6776C128.093 21.7744 127.803 21.6776 127.416 21.4841C127.127 21.2906 126.837 21.0003 126.644 20.6133C126.547 20.323 126.547 19.9359 126.74 19.6456C126.934 19.3553 127.127 19.1618 127.513 19.065C137.559 17.3233 145.19 15.4848 150.213 13.5496C150.599 13.356 150.985 13.356 151.372 13.356C152.048 13.356 152.627 13.6463 153.11 14.1301C153.4 14.4204 153.497 14.7107 153.497 15.1945C153.4 15.5816 153.207 15.8719 152.821 16.0654C150.116 17.1298 146.639 18.0974 142.292 19.1618C142.099 19.2586 142.002 19.3553 142.002 19.5489V26.5158C142.002 26.7093 142.099 26.8061 142.292 26.8061L161.031 24.5805C161.418 24.4838 161.804 24.5805 162.094 24.8708C162.48 25.1611 162.673 25.5482 162.673 26.032C162.673 26.3223 162.577 26.6125 162.383 26.9028C162.094 27.1931 161.804 27.3867 161.417 27.3867L142.292 29.709C142.099 29.709 142.002 29.9025 142.002 30.096V39.482C142.002 40.4496 142.195 41.127 142.678 41.4173C142.968 41.7076 143.934 41.9011 145.383 41.9011ZM126.451 10.5499C126.257 10.5499 126.161 10.6467 126.161 10.937V15.8719C126.161 16.2589 125.968 16.646 125.678 17.033C125.388 17.3233 125.002 17.5168 124.519 17.5168C124.036 17.5168 123.746 17.3233 123.36 17.033C123.07 16.7427 122.877 16.3557 122.877 15.8719V10.3564C122.877 9.58228 123.166 9.00171 123.649 8.42113C124.132 7.93731 124.808 7.64703 125.581 7.64703H140.263C140.457 7.64703 140.553 7.55026 140.553 7.25997V4.26033C140.553 3.77651 140.746 3.38946 141.036 3.09917C141.326 2.80888 141.712 2.61536 142.195 2.61536C142.582 2.61536 142.968 2.80888 143.354 3.09917C143.644 3.38946 143.837 3.77651 143.837 4.26033V7.35674C143.837 7.64703 143.934 7.74379 144.127 7.74379H159.099C159.872 7.74379 160.452 8.03408 161.031 8.51789C161.514 9.00171 161.804 9.67905 161.804 10.4531V15.8719C161.804 16.2589 161.611 16.646 161.321 17.033C161.031 17.3233 160.645 17.5168 160.162 17.5168C159.679 17.5168 159.389 17.3233 159.003 17.033C158.713 16.7427 158.52 16.3557 158.52 15.8719V10.937C158.52 10.6467 158.423 10.5499 158.23 10.5499H126.451Z" fill="#AE8148" stroke="#AE8148" stroke-width="2" stroke-miterlimit="10" stroke-linecap="round" stroke-linejoin="round"/>
<path d="M171.656 8.32413C171.753 7.84032 171.946 7.3565 172.332 7.06621C172.719 6.77592 173.105 6.5824 173.491 6.5824C173.588 6.5824 173.588 6.5824 173.685 6.5824C174.168 6.67916 174.554 6.87269 174.844 7.25974C175.134 7.64679 175.23 8.1306 175.037 8.61442C174.94 9.00147 174.844 9.38852 174.747 9.67881C173.202 17.0328 172.429 23.0321 172.429 27.4832C172.429 29.8055 172.525 32.031 172.815 34.0631C172.815 34.0631 172.815 34.1598 172.912 34.1598C172.912 34.1598 173.008 34.1598 173.008 34.0631C173.781 31.8375 174.554 29.9023 175.134 28.4508C175.23 28.1605 175.423 27.967 175.713 27.967C176.003 27.8702 176.196 27.967 176.486 28.1605C176.872 28.4508 177.162 28.8379 177.162 29.3217C177.162 29.5152 177.162 29.7087 177.065 29.9023C175.423 34.6436 174.457 37.6433 174.168 39.0947C173.974 39.6753 173.974 40.1591 173.974 40.6429C173.974 40.7397 173.974 40.9332 173.974 41.03C173.974 41.417 173.878 41.8041 173.588 42.1911C173.298 42.5782 173.008 42.6749 172.525 42.6749H172.429C172.043 42.6749 171.656 42.5782 171.366 42.3847C170.98 42.0944 170.787 41.8041 170.69 41.3203C169.821 37.4498 169.338 33.0954 169.338 27.967C169.338 26.7091 169.434 25.3544 169.531 23.903C169.628 22.4515 169.821 21.0001 170.014 19.5486C170.207 18.0972 170.4 16.8393 170.497 15.7749C170.69 14.7105 170.883 13.5493 171.077 12.0979C171.27 10.6464 171.463 9.77557 171.463 9.38852C171.56 9.00147 171.56 8.61442 171.656 8.32413ZM182.668 30.2893C182.764 29.9023 182.958 29.5152 183.344 29.2249C183.73 28.9346 184.117 28.8379 184.503 28.8379C184.889 28.9346 185.179 29.1281 185.469 29.4184C185.662 29.7087 185.759 30.0958 185.759 30.4828C185.469 31.5472 185.372 32.4181 185.372 33.2889C185.372 36.0951 188.077 37.5465 193.39 37.5465C196.867 37.5465 200.055 37.2562 203.049 36.6757C203.532 36.5789 203.918 36.6757 204.305 36.9659C204.691 37.2562 204.884 37.6433 204.884 38.1271C204.884 38.6109 204.691 39.0947 204.401 39.385C204.112 39.7721 203.725 40.0624 203.146 40.1591C200.344 40.5462 197.06 40.8365 193.486 40.8365C189.719 40.8365 186.918 40.2559 185.083 39.0947C183.247 37.9336 182.378 36.1918 182.378 34.0631C182.281 32.9987 182.475 31.7407 182.668 30.2893ZM186.242 13.9364C185.759 13.9364 185.372 13.7429 185.083 13.3558C184.793 12.9687 184.6 12.5817 184.6 12.0979C184.6 11.7108 184.793 11.3238 185.083 11.0335C185.372 10.7432 185.855 10.6464 186.242 10.6464C188.367 10.84 190.685 10.9367 193.293 10.9367C193.583 10.9367 193.776 10.9367 193.969 10.9367C196.771 10.9367 199.379 10.7432 201.6 10.5497C202.083 10.4529 202.47 10.6464 202.759 10.9367C203.146 11.227 203.242 11.6141 203.242 12.0979C203.242 12.5817 203.049 12.9687 202.759 13.3558C202.47 13.7429 201.987 13.9364 201.504 13.9364C198.992 14.1299 196.384 14.2267 193.873 14.2267C191.361 14.2267 188.85 14.1299 186.242 13.9364Z" fill="#AE8148" stroke="#AE8148" stroke-width="2" stroke-miterlimit="10" stroke-linecap="round" stroke-linejoin="round"/>
<path d="M211.646 11.0337C211.646 10.5499 211.84 10.1628 212.129 9.77577C212.419 9.38872 212.902 9.19519 213.385 9.19519C213.868 9.19519 214.351 9.48548 214.737 9.87253C215.027 10.2596 215.22 10.6466 215.22 11.1304C215.22 11.2272 215.22 11.2272 215.22 11.324C215.124 12.0981 215.124 12.8722 215.124 13.6463C215.124 14.3236 215.124 15.001 215.124 15.7751C215.124 19.065 215.22 22.0647 215.51 24.774C215.897 28.8381 216.669 32.0312 217.828 34.3535C218.988 36.6758 220.34 37.837 222.079 37.837C223.044 37.837 224.01 37.1597 224.88 35.7082C225.846 34.2568 226.618 32.515 227.295 30.2895C227.391 29.9024 227.681 29.6122 228.067 29.5154C228.454 29.4186 228.84 29.5154 229.13 29.8057C229.516 30.2895 229.806 30.7733 229.903 31.3539C229.903 31.5474 229.903 31.7409 229.903 32.0312C229.903 32.4183 229.806 32.8053 229.709 33.1924C228.454 36.192 227.198 38.4176 225.942 39.7723C224.687 41.1269 223.238 41.8043 221.789 41.8043C219.47 41.8043 217.442 40.4496 215.607 37.837C213.868 35.2244 212.709 31.1604 212.129 25.5481C211.743 22.2582 211.55 18.1941 211.55 13.2592L211.646 11.0337ZM237.437 13.0657C237.244 12.7754 237.244 12.5819 237.244 12.2916C237.244 12.1948 237.244 12.0013 237.244 11.9046C237.34 11.5175 237.63 11.2272 238.016 11.1304C238.306 11.0337 238.499 11.0337 238.789 11.0337C239.079 11.0337 239.272 11.0337 239.465 11.1304C239.948 11.324 240.335 11.5175 240.625 11.9046C242.267 14.4204 243.716 17.42 244.971 20.9035C246.227 24.387 247.096 27.7737 247.483 31.2571C247.483 31.3539 247.483 31.4506 247.483 31.5474C247.483 31.9345 247.386 32.3215 247.193 32.7086C246.903 33.1924 246.517 33.4827 246.034 33.6762C245.841 33.773 245.647 33.773 245.551 33.773C245.261 33.773 245.068 33.6762 244.778 33.5794C244.392 33.2891 244.198 32.9989 244.102 32.515C243.619 28.8381 242.75 25.2578 241.59 21.7744C240.528 18.4844 239.079 15.4848 237.437 13.0657Z" fill="#AE8148" stroke="#AE8148" stroke-width="2" stroke-miterlimit="10" stroke-linecap="round" stroke-linejoin="round"/>
<path d="M273.756 10.8402C274.143 10.7434 274.529 10.8402 274.819 11.0337C275.109 11.2273 275.302 11.6143 275.302 12.0014C275.302 12.4852 275.205 12.8722 274.915 13.2593C274.626 13.6463 274.239 13.8399 273.853 13.9366C271.824 14.4204 269.699 14.8075 267.381 15.1945C267.091 15.1945 266.995 15.3881 266.898 15.5816C265.836 18.4845 264.483 21.5809 262.938 24.8708C261.296 28.064 259.654 30.8701 258.011 33.386C257.722 33.773 257.335 34.0633 256.756 34.1601C256.563 34.1601 256.369 34.1601 256.273 34.1601C255.983 34.1601 255.597 34.0633 255.307 33.9665C254.92 33.773 254.631 33.386 254.534 32.9989C254.437 32.5151 254.534 32.128 254.824 31.741C256.466 29.6122 258.108 27.0964 259.654 24.1935C261.199 21.2906 262.551 18.5812 263.517 16.0654C263.517 15.9686 263.517 15.8719 263.517 15.8719C263.517 15.7751 263.421 15.7751 263.324 15.7751C261.972 15.8719 260.619 15.8719 259.364 15.8719C258.108 15.8719 256.852 15.8719 255.597 15.7751C255.114 15.7751 254.727 15.5816 254.437 15.2913C254.051 15.001 253.858 14.5172 253.858 14.0334C253.858 13.6463 253.954 13.356 254.244 13.1625C254.534 12.8722 254.92 12.6787 255.307 12.7755C256.563 12.8722 257.818 12.8722 259.267 12.8722C260.716 12.8722 262.358 12.7755 264.29 12.6787C264.483 12.6787 264.676 12.4852 264.676 12.2916C265.256 10.1629 265.739 8.2276 265.932 6.48587C266.029 6.00206 266.222 5.51824 266.608 5.22796C266.995 4.93767 267.381 4.74414 267.767 4.74414C267.864 4.74414 267.864 4.74414 267.961 4.74414C268.444 4.8409 268.83 5.03443 269.12 5.42148C269.41 5.80853 269.506 6.29235 269.41 6.77616C268.927 9.00171 268.444 10.7434 268.154 11.9046C268.154 12.0014 268.154 12.0014 268.154 12.0981C268.25 12.1949 268.25 12.1949 268.347 12.1949C270.182 11.7111 272.018 11.324 273.756 10.8402ZM277.33 20.71C277.33 20.2262 277.427 19.8392 277.717 19.5489C278.006 19.2586 278.393 19.065 278.876 19.065C279.359 19.065 279.745 19.2586 280.035 19.5489C280.325 19.8392 280.518 20.323 280.518 20.8068C280.518 21.1938 280.518 22.2582 280.518 23.9032C280.518 24.4838 280.614 25.5482 280.711 27.3867C280.808 29.1284 280.808 30.4831 280.904 31.4507C280.904 31.741 281.097 31.8377 281.291 31.9345C283.995 32.9021 286.603 34.4504 289.211 36.4824C289.598 36.7727 289.791 37.1597 289.887 37.6435C289.887 37.7403 289.887 37.8371 289.887 37.9338C289.887 38.3209 289.791 38.6112 289.598 38.9014C289.404 39.2885 289.018 39.482 288.632 39.5788C288.149 39.6755 287.762 39.5788 287.473 39.2885C285.444 37.5468 283.416 36.1921 281.387 35.2244C281.291 35.2244 281.291 35.2244 281.194 35.2244C281.097 35.2244 281.097 35.3212 281.097 35.418C281.097 35.805 281.097 36.4824 281.097 37.1597C281.097 39.095 280.421 40.6432 279.069 41.8043C277.717 43.0622 275.785 43.6428 273.08 43.6428C270.375 43.6428 268.25 43.0622 266.512 41.9979C264.773 40.9335 264 39.2885 264 37.1597C264 35.1277 264.87 33.4827 266.608 32.2248C268.347 30.9669 270.472 30.3863 273.08 30.3863C274.432 30.3863 275.881 30.4831 277.427 30.7734C277.523 30.7734 277.523 30.7734 277.62 30.7734C277.717 30.6766 277.717 30.6766 277.717 30.5798C277.523 25.7417 277.427 22.4517 277.33 20.71ZM277.91 36.1921C277.91 35.3212 277.91 34.6439 277.91 34.1601C277.91 33.8698 277.813 33.773 277.62 33.6762C276.074 33.2892 274.529 33.0957 273.08 33.0957C271.341 33.0957 269.989 33.4827 268.83 34.1601C267.767 34.8374 267.188 35.805 267.188 36.9662C267.188 38.1273 267.671 38.9982 268.637 39.6755C269.603 40.3529 270.955 40.6432 272.79 40.6432C274.626 40.6432 275.978 40.2561 276.751 39.3853C277.523 38.5144 277.91 37.45 277.91 36.1921ZM290.564 16.3557C290.95 16.646 291.24 17.033 291.336 17.4201C291.336 17.5168 291.336 17.6136 291.336 17.7104C291.336 18.0007 291.24 18.3877 291.047 18.678C290.757 19.065 290.467 19.2586 289.984 19.3553C289.501 19.4521 289.115 19.3553 288.728 19.065C286.603 17.5168 283.995 15.9686 281.001 14.4204C280.614 14.2269 280.421 13.9366 280.325 13.5496C280.228 13.1625 280.228 12.7755 280.518 12.4852C280.808 12.0981 281.097 11.8078 281.484 11.7111C281.87 11.6143 282.353 11.6143 282.739 11.8078C285.541 13.356 288.245 14.8075 290.564 16.3557Z" fill="#AE8148" stroke="#AE8148" stroke-width="2" stroke-miterlimit="10" stroke-linecap="round" stroke-linejoin="round"/>
<path d="M309.206 7.16321C309.206 6.6794 309.496 6.19558 309.882 5.80853C310.172 5.51824 310.558 5.32472 311.041 5.32472C311.138 5.32472 311.138 5.32472 311.234 5.32472C311.717 5.42148 312.2 5.61501 312.49 6.09882C312.683 6.38911 312.876 6.77616 312.876 7.06645C312.876 7.16321 312.876 7.35674 312.876 7.4535C312.78 7.64703 312.78 7.84055 312.78 8.13084C312.49 10.1629 312.104 12.3884 311.621 14.7107C311.621 14.8075 311.621 14.9042 311.621 14.9042C311.717 15.001 311.717 15.001 311.814 15.001C314.229 14.8075 315.967 14.7107 316.837 14.7107C317.899 14.7107 318.865 14.8075 319.638 15.0978C320.507 15.2913 321.28 15.6783 321.956 16.2589C322.632 16.8395 323.212 17.6136 323.598 18.5812C323.985 19.6456 324.178 20.9035 324.178 22.355C324.178 25.4514 323.985 28.5478 323.502 31.6442C323.019 34.7406 322.343 37.1597 321.473 38.9982C320.797 40.4496 319.928 41.4173 318.865 41.9978C317.803 42.5784 316.45 42.7719 314.905 42.7719C313.842 42.7719 312.587 42.6752 311.234 42.3849C310.655 42.2881 310.268 42.0946 309.882 41.7076C309.496 41.3205 309.302 40.8367 309.206 40.2561C309.109 39.8691 309.302 39.482 309.592 39.2885C309.882 38.9982 310.268 38.9014 310.655 38.9982C312.2 39.3852 313.553 39.5788 314.615 39.5788C315.581 39.5788 316.354 39.3852 317.03 39.095C317.706 38.8047 318.286 38.1273 318.769 37.1597C319.541 35.6115 320.024 33.5795 320.411 30.9669C320.797 28.3543 320.99 25.6449 320.99 22.8388C320.99 20.8068 320.604 19.4521 319.831 18.7748C319.058 18.0974 317.803 17.7104 316.161 17.7104C315.195 17.7104 313.553 17.8071 311.234 18.0007C311.041 18.0007 310.848 18.1942 310.848 18.3877C308.53 27.5802 305.535 35.2244 302.154 41.3205C301.865 41.8043 301.575 42.0946 300.995 42.2881C300.802 42.3849 300.512 42.3849 300.319 42.3849C300.029 42.3849 299.74 42.3849 299.546 42.2881C299.16 42.0946 298.87 41.8043 298.774 41.3205C298.677 40.8367 298.677 40.4496 298.967 40.0626C300.802 37.2565 302.444 33.8698 303.99 29.9025C305.535 26.032 306.694 22.2582 307.564 18.7748C307.564 18.678 307.564 18.678 307.564 18.5812C307.467 18.4845 307.467 18.4845 307.371 18.4845C306.694 18.5812 305.632 18.678 304.28 18.7748C302.927 18.8715 301.961 18.9683 301.575 19.065C300.802 19.1618 300.126 19.2586 299.45 19.3553C298.967 19.4521 298.484 19.2586 298.098 18.9683C297.615 18.5812 297.421 18.0974 297.421 17.5168C297.421 17.1298 297.518 16.7427 297.808 16.4524C298.098 16.0654 298.581 15.8719 299.063 15.8719C299.45 15.8719 300.126 15.8719 301.189 15.8719C302.058 15.8719 304.376 15.6783 308.047 15.3881C308.24 15.3881 308.433 15.1945 308.433 15.001C308.723 11.9046 309.109 9.29199 309.206 7.16321ZM326.979 13.6463C326.786 13.356 326.689 13.1625 326.689 12.8722C326.689 12.7755 326.689 12.6787 326.689 12.5819C326.786 12.1949 326.979 11.9046 327.462 11.7111C327.752 11.5175 328.042 11.5175 328.331 11.5175C328.525 11.5175 328.621 11.5175 328.814 11.6143C329.297 11.7111 329.684 12.0014 329.974 12.3884C331.133 14.0334 332.292 16.1622 333.548 18.678C334.803 21.1938 335.962 23.5161 336.832 25.6449C336.928 25.9352 336.928 26.1287 336.928 26.3223C336.928 26.5158 336.928 26.8061 336.832 26.9996C336.639 27.4834 336.349 27.7737 335.866 28.064C335.673 28.1608 335.479 28.1608 335.19 28.1608C334.996 28.1608 334.803 28.1608 334.513 28.064C334.127 27.8705 333.837 27.5802 333.644 27.0964C332.871 24.8708 331.809 22.5485 330.553 20.0327C329.491 17.5168 328.235 15.3881 326.979 13.6463ZM333.161 9.38876C333.354 9.67905 333.354 9.96933 333.258 10.3564C333.161 10.6467 332.968 10.937 332.582 11.0337C332.292 11.2273 331.905 11.2273 331.616 11.0337C331.326 10.937 331.036 10.7434 330.843 10.3564C329.974 8.71142 329.104 7.25997 328.331 6.00206C328.138 5.71177 328.138 5.42148 328.235 5.13119C328.331 4.8409 328.525 4.64738 328.814 4.45385C329.008 4.35709 329.201 4.35709 329.394 4.35709C329.491 4.35709 329.684 4.35709 329.78 4.35709C330.07 4.45385 330.36 4.64738 330.553 4.93767C331.519 6.58263 332.388 7.93731 333.161 9.38876ZM338.281 7.55026C338.377 7.74379 338.377 7.93731 338.377 8.13084C338.377 8.2276 338.377 8.42113 338.377 8.51789C338.281 8.80818 338.087 9.09847 337.701 9.19523C337.411 9.38876 337.025 9.38876 336.735 9.19523C336.445 9.09847 336.156 8.90494 335.962 8.51789C335.093 6.77616 334.224 5.42148 333.451 4.16356C333.258 3.87327 333.258 3.67975 333.258 3.38946C333.354 3.09917 333.548 2.90565 333.741 2.71212C333.934 2.61536 334.127 2.61536 334.32 2.61536C334.513 2.61536 334.61 2.61536 334.803 2.61536C335.093 2.71212 335.383 2.90565 335.576 3.19593C336.542 4.64738 337.411 6.09882 338.281 7.55026Z" fill="#AE8148" stroke="#AE8148" stroke-width="2" stroke-miterlimit="10" stroke-linecap="round" stroke-linejoin="round"/>
<path d="M346.588 14.9043C346.588 14.4205 346.877 14.0334 347.264 13.7431C347.554 13.4528 347.94 13.3561 348.326 13.3561C348.423 13.3561 348.423 13.3561 348.52 13.3561C349.002 13.4528 349.389 13.6463 349.679 14.1302C349.968 14.5172 350.065 15.001 350.065 15.4848C349.872 16.646 349.582 18.4845 349.292 21.1939C348.906 23.9032 348.713 25.6449 348.52 26.5158C348.52 26.6126 348.52 26.6126 348.52 26.6126C348.616 26.6126 348.616 26.6126 348.616 26.6126C352.866 22.9356 357.793 21.0971 363.492 21.0971C366.872 21.0971 369.674 21.968 371.895 23.8064C374.117 25.6449 375.179 27.8705 375.179 30.6766C375.179 34.8374 373.344 38.0306 369.577 40.3529C366.389 42.2882 361.946 43.2558 356.15 43.2558C355.088 43.2558 353.929 43.2558 352.77 43.159C352.19 43.159 351.707 42.9655 351.321 42.5784C350.934 42.2882 350.645 41.8043 350.451 41.3205C350.355 40.9335 350.355 40.5464 350.645 40.2561C350.934 39.9658 351.224 39.7723 351.707 39.8691C353.349 40.0626 354.895 40.0626 356.344 40.0626C360.594 40.0626 363.975 39.3853 366.583 38.1274C369.963 36.3856 371.702 33.8698 371.702 30.6766C371.702 28.8381 370.929 27.2899 369.384 26.032C367.838 24.8708 365.81 24.1935 363.395 24.1935C357.213 24.1935 352.383 26.2255 348.906 30.3863C348.616 30.6766 348.423 30.9669 348.23 31.1604C347.94 31.5475 347.65 31.9345 347.264 32.1281C346.877 32.3216 346.394 32.4183 346.008 32.2248C345.622 32.0313 345.235 31.8378 344.946 31.4507C344.752 31.1604 344.656 30.8701 344.656 30.5798C344.656 30.4831 344.656 30.3863 344.656 30.2896C345.525 25.3547 346.105 20.323 346.588 14.9043ZM352.287 8.90497C351.804 8.8082 351.514 8.51792 351.224 8.13086C351.031 7.74381 350.934 7.35676 351.031 6.87295C351.128 6.4859 351.417 6.09884 351.804 5.90532C351.997 5.71179 352.287 5.71179 352.576 5.71179C352.77 5.71179 352.866 5.71179 353.059 5.71179C357.599 6.96971 362.429 7.93734 367.549 8.61468C367.935 8.71144 368.321 8.90497 368.611 9.19526C368.901 9.58231 368.997 9.96936 368.901 10.3564C368.804 10.8402 368.514 11.1305 368.128 11.4208C367.742 11.7111 367.355 11.8079 366.872 11.7111C361.946 11.1305 357.116 10.1629 352.287 8.90497Z" fill="#AE8148" stroke="#AE8148" stroke-width="2" stroke-miterlimit="10" stroke-linecap="round" stroke-linejoin="round"/>
<path d="M27.0552 85.928C27.0552 86.2183 27.1518 86.3151 27.345 86.3151H34.6861C35.1691 86.3151 35.8452 86.3151 36.7146 86.2183C37.1976 86.2183 37.5839 86.3151 37.9703 86.6053C38.3567 86.8956 38.5499 87.2827 38.5499 87.7665C38.5499 88.2503 38.3567 88.6374 38.0669 89.0244C37.6805 89.3147 37.2942 89.5082 36.8112 89.5082C35.9418 89.4115 35.2657 89.4115 34.8793 89.4115H27.5382C27.345 89.4115 27.2484 89.5082 27.2484 89.7985C27.4416 102.281 27.5382 109.538 27.5382 111.764C27.5382 114.086 26.1859 115.344 23.4812 115.344C21.5494 115.344 19.7141 115.247 17.8788 115.15C17.3958 115.15 16.9129 114.957 16.6231 114.57C16.2367 114.183 16.0435 113.796 16.0435 113.312C16.0435 112.828 16.1401 112.441 16.4299 112.151C16.7197 111.86 17.1061 111.764 17.589 111.764C19.3277 111.957 20.9698 112.054 22.5153 112.054C23.1915 112.054 23.6744 111.957 23.8676 111.667C24.1574 111.377 24.254 110.893 24.254 110.215C24.254 105.087 24.254 99.2813 24.1574 92.8949C24.1574 92.8949 24.1574 92.7982 24.0608 92.7982H23.9642C22.0323 95.5075 19.3277 98.4104 15.8503 101.507C12.373 104.603 8.79899 107.216 5.03183 109.345C4.74205 109.538 4.35568 109.635 3.9693 109.635C3.77611 109.635 3.67952 109.635 3.58293 109.635C3.09996 109.538 2.61699 109.345 2.23061 108.861C1.94083 108.861 1.84424 108.571 1.84424 108.183C1.84424 108.087 1.84424 107.99 1.84424 107.893C1.94083 107.506 2.13402 107.119 2.61699 106.926C6.77052 104.7 10.6343 101.991 14.2082 98.7975C17.7822 95.6043 20.5834 92.6046 22.5153 89.7018C22.6119 89.7018 22.6119 89.605 22.5153 89.5082C22.5153 89.4115 22.4187 89.4115 22.3221 89.4115H6.77052C5.90118 89.4115 5.03183 89.4115 4.35568 89.4115C3.87271 89.4115 3.48633 89.3147 3.09996 88.9277C2.71358 88.6374 2.61699 88.1536 2.61699 87.7665C2.61699 87.3795 2.81018 86.8956 3.09996 86.6053C3.48633 86.3151 3.87271 86.1215 4.35568 86.2183C5.12843 86.3151 5.99777 86.3151 6.67393 86.3151H23.5778C23.8676 86.3151 23.9642 86.2183 23.9642 85.928C23.8676 83.896 23.8676 82.4445 23.8676 81.5737C23.8676 80.8963 23.771 80.3158 23.771 79.7352C23.771 79.2514 23.8676 78.7676 24.254 78.3805C24.5438 77.9935 25.0267 77.7999 25.5097 77.7999C25.9927 77.7999 26.3791 77.9935 26.7654 78.3805C27.0552 78.6708 27.2484 79.1546 27.2484 79.6384V80.8963C27.2484 81.0899 27.2484 81.2834 27.2484 81.5737L27.0552 85.928Z" fill="#AE8148" stroke="#AE8148" stroke-width="2" stroke-miterlimit="10" stroke-linecap="round" stroke-linejoin="round"/>
<path d="M47.7266 114.57C47.5334 114.57 47.3402 114.57 47.0504 114.57C46.664 114.57 46.2777 114.473 45.9879 114.376C45.4083 114.086 45.0219 113.796 44.6356 113.215C44.4424 113.022 44.4424 112.731 44.4424 112.538C44.4424 112.344 44.4424 112.151 44.539 111.957C44.7322 111.57 45.1185 111.28 45.5049 111.183C51.5903 110.022 57.1928 107.796 62.2156 104.603C65.2101 102.668 68.0113 100.346 70.5227 97.6363C73.0341 94.9269 75.0626 92.1208 76.6081 89.4115C76.8013 89.0244 77.0911 88.8309 77.5741 88.8309C77.9604 88.8309 78.2502 89.0244 78.4434 89.4115C78.7332 89.992 78.9264 90.5726 78.9264 91.1532C78.9264 91.7338 78.7332 92.3143 78.4434 92.8949C76.7047 95.701 74.6762 98.3136 72.1648 100.926C69.75 103.539 67.0453 105.668 64.0509 107.603C59.028 110.893 53.5222 113.215 47.7266 114.57ZM46.2777 83.7024C45.8913 83.4122 45.6981 83.0251 45.6981 82.6381C45.6981 82.1542 45.7947 81.7672 46.0845 81.4769C46.4709 81.0899 46.8572 80.8963 47.3402 80.7996C47.4368 80.7996 47.4368 80.7996 47.5334 80.7996C47.9198 80.7996 48.3061 80.8963 48.6925 81.1866C51.8801 83.5089 54.8745 86.0248 57.6757 88.5406C58.0621 88.8309 58.2553 89.3147 58.2553 89.7985C58.2553 90.2823 58.0621 90.7661 57.7723 91.0564C57.386 91.4435 56.9996 91.637 56.5166 91.637C56.0336 91.637 55.5507 91.4435 55.1643 91.1532C52.1699 88.3471 49.2721 85.8312 46.2777 83.7024Z" fill="#AE8148" stroke="#AE8148" stroke-width="2" stroke-miterlimit="10" stroke-linecap="round" stroke-linejoin="round"/>
<path d="M116.791 90.4759C116.984 90.4759 117.177 90.4759 117.371 90.4759C118.143 90.4759 118.819 90.6694 119.399 90.9597C119.882 91.25 120.172 91.7338 120.172 92.3144C120.172 92.5079 120.172 92.7982 120.075 93.0885C118.626 98.604 116.308 103.055 113.217 106.345C111.189 108.571 108.87 110.409 106.455 111.861C104.041 113.312 101.336 114.473 98.4382 115.441C98.1484 115.537 97.8586 115.537 97.5688 115.537C97.279 115.537 96.9893 115.537 96.6995 115.441C96.1199 115.247 95.6369 114.957 95.2506 114.473C94.9608 114.183 94.8642 113.796 95.0574 113.312C95.2506 112.828 95.4438 112.635 95.9267 112.538C101.916 110.99 106.745 108.28 110.416 104.41C111.768 103.055 112.927 101.41 113.893 99.5716C114.859 97.7331 115.535 95.8946 116.018 94.0561C116.018 93.9594 116.018 93.8626 116.018 93.7658C115.922 93.6691 115.922 93.6691 115.825 93.6691H91.0004C90.2277 93.6691 89.3584 93.6691 88.2958 93.7658C87.8129 93.7658 87.4265 93.5723 87.0401 93.282C86.6537 92.9917 86.5571 92.6047 86.5571 92.1209C86.5571 91.6371 86.7503 91.25 87.0401 90.9597C87.4265 90.6694 87.8129 90.4759 88.2958 90.5727C89.3584 90.6694 90.2277 90.6694 91.0004 90.6694H115.728C116.115 90.5727 116.405 90.4759 116.791 90.4759ZM92.4494 83.0252C91.9664 83.0252 91.58 82.8316 91.2902 82.5414C91.0004 82.2511 90.8073 81.7673 90.8073 81.3802C90.8073 80.9932 91.0004 80.5093 91.2902 80.219C91.58 79.9288 91.9664 79.7352 92.3528 79.7352H92.4494C93.1255 79.7352 93.8983 79.7352 94.7676 79.7352H113.217C114.086 79.7352 114.859 79.7352 115.535 79.7352C116.018 79.7352 116.405 79.9288 116.694 80.219C116.984 80.5093 117.177 80.8964 117.177 81.3802C117.177 81.864 116.984 82.2511 116.694 82.5414C116.405 82.8316 115.922 83.0252 115.535 83.0252C114.763 83.0252 113.99 83.0252 113.12 83.0252H94.7676C93.8983 82.9284 93.1255 83.0252 92.4494 83.0252Z" fill="#AE8148" stroke="#AE8148" stroke-width="2" stroke-miterlimit="10" stroke-linecap="round" stroke-linejoin="round"/>
<path d="M157.94 79.3482C158.327 78.9612 158.713 78.7677 159.293 78.6709H159.389C159.776 78.6709 160.162 78.8644 160.548 79.1547C160.935 79.445 161.128 79.9288 161.128 80.5094C161.128 80.9932 160.935 81.3803 160.548 81.7673C157.071 85.0572 153.4 87.9601 149.73 90.2824C149.537 90.3792 149.44 90.5727 149.44 90.7663V110.603L149.537 113.506C149.537 113.989 149.343 114.376 149.054 114.763C148.667 115.151 148.281 115.441 147.701 115.441C147.122 115.441 146.735 115.247 146.349 114.763C146.059 114.376 145.866 113.989 145.866 113.506L145.963 110.603V92.9918C145.963 92.895 145.963 92.895 145.866 92.7983C145.769 92.7983 145.769 92.7983 145.673 92.7983C140.65 95.5076 135.434 97.7332 129.928 99.4749C129.735 99.5717 129.445 99.5717 129.252 99.5717C128.962 99.5717 128.672 99.5717 128.383 99.4749C127.9 99.2814 127.513 98.8943 127.223 98.4105C127.127 98.217 127.03 97.9267 127.03 97.7332C127.03 97.5397 127.03 97.3461 127.127 97.1526C127.32 96.7656 127.61 96.4753 128.093 96.3785C131.474 95.4109 134.951 94.2497 138.235 92.7983C141.519 91.3468 144.514 89.7986 147.025 88.2504C151.372 85.5411 155.042 82.5414 157.94 79.3482Z" fill="#AE8148" stroke="#AE8148" stroke-width="2" stroke-miterlimit="10" stroke-linecap="round" stroke-linejoin="round"/>
<path d="M173.009 114.57C172.816 114.57 172.622 114.57 172.333 114.57C171.946 114.57 171.56 114.473 171.27 114.376C170.691 114.086 170.304 113.796 169.918 113.215C169.725 113.022 169.725 112.731 169.725 112.538C169.725 112.344 169.725 112.151 169.821 111.957C170.014 111.57 170.401 111.28 170.787 111.183C176.873 110.022 182.475 107.796 187.498 104.603C190.492 102.668 193.294 100.346 195.805 97.6363C198.316 94.9269 200.345 92.1208 201.89 89.4115C202.084 89.0244 202.373 88.8309 202.856 88.8309C203.243 88.8309 203.532 89.0244 203.726 89.4115C204.015 89.992 204.209 90.5726 204.209 91.1532C204.209 91.7338 204.015 92.3143 203.726 92.8949C201.987 95.701 199.958 98.3136 197.447 100.926C195.032 103.539 192.328 105.668 189.333 107.603C184.31 110.893 178.804 113.215 173.009 114.57ZM171.656 83.7024C171.27 83.4122 171.077 83.0251 171.077 82.6381C171.077 82.1542 171.174 81.7672 171.463 81.4769C171.85 81.0899 172.236 80.8963 172.719 80.7996C172.816 80.7996 172.816 80.7996 172.912 80.7996C173.299 80.7996 173.685 80.8963 174.071 81.1866C177.259 83.5089 180.253 86.0248 183.055 88.5406C183.441 88.8309 183.634 89.3147 183.634 89.7985C183.634 90.2823 183.441 90.7661 183.151 91.0564C182.765 91.4435 182.378 91.637 181.895 91.637C181.412 91.637 180.929 91.4435 180.543 91.1532C177.549 88.3471 174.554 85.8312 171.656 83.7024Z" fill="#AE8148" stroke="#AE8148" stroke-width="2" stroke-miterlimit="10" stroke-linecap="round" stroke-linejoin="round"/>
<path d="M211.357 87.0891C210.874 87.1859 210.391 87.0892 210.004 86.7989C209.521 86.4118 209.231 85.928 209.231 85.3474C209.231 84.9604 209.425 84.5733 209.714 84.1863C210.004 83.7992 210.391 83.6057 210.97 83.6057C211.839 83.5089 212.516 83.5089 213.192 83.4122C221.306 82.6381 228.067 81.9607 233.476 81.5737C237.244 81.2834 240.818 80.9931 244.102 80.7996C244.488 80.7996 244.875 80.9931 245.164 81.2834C245.454 81.5737 245.647 81.9607 245.647 82.4445C245.647 82.8316 245.454 83.2186 245.164 83.6057C244.875 83.896 244.488 84.0895 244.005 84.0895C240.624 84.0895 238.113 84.3798 236.664 84.8636C234.539 85.5409 232.607 86.7989 230.965 88.4438C229.323 90.1856 228.067 92.0241 227.198 93.9593C226.425 95.8946 225.942 97.8298 225.942 99.7651C225.942 101.41 226.232 102.861 226.715 104.216C227.294 105.571 227.971 106.635 228.84 107.603C229.709 108.474 230.772 109.248 232.028 109.925C233.283 110.603 234.539 111.086 235.891 111.377C237.147 111.667 238.596 111.957 240.045 112.054C240.528 112.151 240.818 112.344 241.107 112.731C241.397 113.118 241.397 113.505 241.301 113.892C241.107 114.376 240.818 114.86 240.335 115.15C239.948 115.441 239.562 115.537 239.079 115.537C238.982 115.537 238.886 115.537 238.789 115.537C237.147 115.344 235.602 115.054 234.056 114.57C232.511 114.086 231.062 113.505 229.613 112.635C228.164 111.764 227.005 110.796 225.942 109.732C224.88 108.667 224.01 107.313 223.431 105.668C222.755 104.119 222.465 102.378 222.465 100.539C222.465 97.1525 223.334 94.0561 224.976 91.25C226.618 88.4438 228.647 86.315 231.062 84.8636V84.7668C231.062 84.7668 231.062 84.7668 230.965 84.7668C230.482 84.8636 229.226 84.9604 227.101 85.1539C225.073 85.3474 223.141 85.5409 221.595 85.7345C219.953 85.928 218.118 86.1215 216.09 86.4118C214.254 86.7021 212.612 86.8956 211.357 87.0891ZM237.727 91.8305C237.533 91.5402 237.533 91.3467 237.63 91.0564C237.727 90.7661 237.92 90.5726 238.113 90.4758C238.403 90.2823 238.693 90.2823 239.079 90.3791C239.369 90.4758 239.658 90.6694 239.852 90.9597C240.818 92.5079 241.687 93.9593 242.46 95.4108C242.653 95.701 242.653 95.9913 242.556 96.3784C242.46 96.6687 242.267 96.959 241.977 97.0557C241.687 97.1525 241.397 97.1525 241.107 97.0557C240.818 96.959 240.624 96.7654 240.431 96.4751C239.465 94.7334 238.596 93.1852 237.727 91.8305ZM242.846 89.992C242.653 89.7017 242.653 89.5082 242.653 89.2179C242.749 88.9276 242.943 88.7341 243.136 88.5406C243.426 88.3471 243.715 88.3471 244.102 88.4438C244.392 88.5406 244.681 88.7341 244.875 89.0244C245.937 90.5726 246.903 92.0241 247.676 93.4755C247.772 93.669 247.869 93.8626 247.869 94.0561C247.869 94.1528 247.869 94.3464 247.772 94.4431C247.676 94.7334 247.483 95.0237 247.193 95.2172C246.903 95.4108 246.613 95.4108 246.227 95.314C245.937 95.2172 245.647 95.0237 245.551 94.7334C244.585 92.7982 243.715 91.25 242.846 89.992Z" fill="#AE8148" stroke="#AE8148" stroke-width="2" stroke-miterlimit="10" stroke-linecap="round" stroke-linejoin="round"/>
<path d="M253.375 102.088C253.471 101.604 253.761 101.217 254.148 100.926C254.437 100.636 254.824 100.539 255.21 100.539C255.307 100.539 255.403 100.539 255.403 100.539C255.79 100.636 256.176 100.83 256.369 101.217C256.659 101.604 256.659 101.991 256.562 102.378C256.273 103.636 256.08 104.894 256.08 106.055C256.08 107.893 257.045 109.345 258.881 110.506C260.716 111.57 263.517 112.151 267.188 112.151C272.79 112.151 277.427 111.667 281.194 110.796C281.58 110.699 281.967 110.796 282.353 111.087C282.739 111.377 282.933 111.764 282.933 112.151C282.933 112.635 282.739 113.119 282.45 113.506C282.16 113.893 281.677 114.183 281.194 114.28C277.427 115.054 272.79 115.538 267.284 115.538C262.648 115.538 259.074 114.764 256.562 113.312C253.954 111.764 252.699 109.635 252.699 106.829C252.892 105.378 253.085 103.829 253.375 102.088ZM257.335 85.7347C256.852 85.7347 256.466 85.5411 256.176 85.1541C255.886 84.767 255.693 84.38 255.693 83.8962C255.693 83.5091 255.886 83.1221 256.176 82.8318C256.466 82.5415 256.949 82.348 257.335 82.4447C260.33 82.735 263.807 82.8318 267.767 82.8318C271.341 82.8318 274.915 82.6382 278.393 82.348C278.489 82.348 278.489 82.348 278.489 82.348C278.876 82.348 279.262 82.4447 279.552 82.735C279.842 83.0253 280.035 83.4123 280.035 83.8962C280.035 84.38 279.842 84.767 279.552 85.1541C279.262 85.5411 278.779 85.7347 278.393 85.7347C274.143 86.0249 270.665 86.2185 267.864 86.2185C264.097 86.1217 260.619 85.9282 257.335 85.7347ZM279.938 78.9613C279.745 78.671 279.745 78.3807 279.842 78.0904C279.938 77.8001 280.131 77.6066 280.421 77.413C280.711 77.2195 281.097 77.2195 281.387 77.3163C281.773 77.413 282.063 77.6066 282.16 77.8969C282.933 79.1548 283.802 80.5095 284.671 82.1544C284.864 82.4447 284.864 82.735 284.768 83.1221C284.671 83.4123 284.478 83.7026 284.092 83.8962C283.802 84.0897 283.416 84.0897 283.126 83.8962C282.836 83.7994 282.546 83.6059 282.353 83.2188C281.58 81.5738 280.711 80.1224 279.938 78.9613ZM285.058 77.026C284.864 76.7357 284.864 76.5422 284.961 76.2519C285.058 75.9616 285.251 75.7681 285.541 75.5746C285.734 75.4778 285.927 75.4778 286.12 75.4778C286.313 75.4778 286.41 75.4778 286.603 75.4778C286.893 75.5745 287.183 75.7681 287.376 76.0584C288.245 77.413 289.115 78.7677 289.984 80.3159C290.081 80.5095 290.177 80.703 290.177 80.8965C290.177 80.9933 290.177 81.1868 290.177 81.2836C290.081 81.5738 289.887 81.8641 289.501 82.0577C289.211 82.2512 288.825 82.2512 288.535 82.0577C288.245 81.9609 287.955 81.7674 287.762 81.3803C286.7 79.7354 285.83 78.2839 285.058 77.026Z" fill="#AE8148" stroke="#AE8148" stroke-width="2" stroke-miterlimit="10" stroke-linecap="round" stroke-linejoin="round"/>
<path d="M303.41 88.1536C303.217 88.1536 303.121 88.2504 303.121 88.4439V92.1209C303.121 92.4112 303.217 92.6047 303.314 92.7015C304.763 94.1529 306.598 96.3784 309.013 99.1846C309.303 99.5716 309.496 99.9587 309.496 100.442C309.496 100.926 309.399 101.313 309.109 101.7C308.82 101.991 308.53 102.184 308.143 102.087C307.757 102.087 307.467 101.894 307.274 101.604C306.212 100.055 304.956 98.3137 303.314 96.2817C303.314 96.1849 303.217 96.1849 303.217 96.1849L303.121 96.2817V115.925C303.121 116.312 303.024 116.699 302.734 116.989C302.444 117.279 302.058 117.376 301.672 117.376C301.285 117.376 300.899 117.279 300.609 116.989C300.319 116.699 300.223 116.312 300.223 115.925V94.927C298.387 100.152 296.456 104.41 294.234 107.603C294.041 107.893 293.751 108.087 293.365 108.087C292.978 108.087 292.688 107.893 292.495 107.506C292.205 107.119 292.109 106.635 292.109 106.248C292.109 105.764 292.302 105.281 292.592 104.797C294.041 102.765 295.393 100.346 296.649 97.3461C297.905 94.3464 298.967 91.4435 299.74 88.4439C299.74 88.3471 299.74 88.2504 299.74 88.2504C299.643 88.1536 299.643 88.1536 299.547 88.1536H294.041C293.654 88.1536 293.268 88.0568 292.978 87.7666C292.688 87.4763 292.592 87.0892 292.592 86.7022C292.592 86.3151 292.688 85.9281 292.978 85.6378C293.268 85.3475 293.654 85.2507 294.041 85.2507H299.933C300.126 85.2507 300.223 85.154 300.223 84.9604V76.6388C300.223 76.2518 300.319 75.8647 300.609 75.5744C300.899 75.2841 301.285 75.1874 301.672 75.1874C302.058 75.1874 302.444 75.2841 302.734 75.5744C303.024 75.8647 303.121 76.2518 303.121 76.6388V84.9604C303.121 85.154 303.217 85.2507 303.41 85.2507H308.433C308.82 85.2507 309.206 85.3475 309.399 85.6378C309.689 85.9281 309.786 86.3151 309.786 86.7022C309.786 87.0892 309.689 87.4763 309.399 87.7666C309.109 88.0568 308.82 88.1536 308.433 88.1536H303.41ZM312.007 80.6061C312.007 79.832 312.297 79.2514 312.78 78.6708C313.263 78.187 313.939 77.8967 314.712 77.8967H330.07C330.843 77.8967 331.423 78.187 332.002 78.6708C332.485 79.1547 332.775 79.832 332.775 80.6061V115.634C332.775 116.021 332.678 116.408 332.389 116.699C332.099 116.989 331.712 117.182 331.326 117.182C330.94 117.182 330.553 116.989 330.263 116.699C329.974 116.408 329.877 116.021 329.877 115.634V114.763C329.877 114.57 329.78 114.473 329.587 114.473H315.485C315.291 114.473 315.195 114.57 315.195 114.763V115.828C315.195 116.215 315.098 116.602 314.808 116.892C314.519 117.182 314.132 117.376 313.746 117.376C313.36 117.376 312.973 117.182 312.683 116.892C312.394 116.602 312.2 116.215 312.2 115.828V80.6061H312.007ZM329.684 81.2834C329.684 81.0899 329.587 80.9932 329.297 80.9932H315.291C315.098 80.9932 315.002 81.0899 315.002 81.2834V88.8309C315.002 89.0245 315.098 89.1212 315.291 89.1212H329.297C329.587 89.1212 329.684 89.0245 329.684 88.8309V81.2834ZM315.291 91.9274C315.098 91.9274 315.002 92.0241 315.002 92.2176V99.9587C315.002 100.249 315.098 100.346 315.291 100.346H329.297C329.587 100.346 329.684 100.249 329.684 99.9587V92.2176C329.684 92.0241 329.587 91.9274 329.297 91.9274H315.291ZM315.002 111.28C315.002 111.57 315.098 111.667 315.291 111.667H329.297C329.587 111.667 329.684 111.57 329.684 111.28V103.539C329.684 103.249 329.587 103.152 329.297 103.152H315.291C315.098 103.152 315.002 103.249 315.002 103.539V111.28Z" fill="#AE8148" stroke="#AE8148" stroke-width="2" stroke-miterlimit="10" stroke-linecap="round" stroke-linejoin="round"/>
<path d="M353.736 82.9285C354.122 82.9285 354.412 83.0253 354.605 83.3155C354.895 83.6058 354.992 83.8961 354.992 84.1864C354.992 84.5735 354.895 84.8637 354.605 85.0573C354.315 85.2508 354.026 85.4443 353.736 85.4443H339.054C338.667 85.4443 338.377 85.3476 338.184 85.0573C337.894 84.767 337.798 84.4767 337.798 84.1864C337.798 83.7993 337.894 83.5091 338.184 83.3155C338.474 83.122 338.764 82.9285 339.054 82.9285H353.736ZM350.741 101.604C351.514 101.604 352.094 101.894 352.673 102.378C353.156 102.862 353.446 103.539 353.446 104.313V112.248C353.446 113.022 353.156 113.602 352.673 114.183C352.19 114.667 351.514 114.957 350.741 114.957H342.821C342.628 114.957 342.628 115.054 342.628 115.247V115.925C342.628 116.312 342.531 116.602 342.241 116.892C341.951 117.183 341.662 117.279 341.275 117.279C340.889 117.279 340.599 117.183 340.309 116.892C340.02 116.602 339.923 116.312 339.923 115.925V104.313C339.923 103.539 340.213 102.958 340.696 102.378C341.179 101.894 341.855 101.604 342.628 101.604H350.741ZM352.094 89.1213C352.48 89.1213 352.77 89.2181 352.963 89.5084C353.156 89.7986 353.349 90.0889 353.349 90.3792C353.349 90.6695 353.253 91.0566 352.963 91.2501C352.673 91.5404 352.384 91.6371 352.094 91.6371H341.179C340.792 91.6371 340.502 91.5404 340.309 91.2501C340.02 91.0566 339.923 90.6695 339.923 90.3792C339.923 90.0889 340.02 89.7019 340.309 89.5084C340.502 89.2181 340.889 89.1213 341.179 89.1213H352.094ZM341.179 97.9267C340.792 97.9267 340.502 97.83 340.309 97.5397C340.02 97.2494 339.923 96.9591 339.923 96.6688C339.923 96.3785 340.02 95.9915 340.309 95.7979C340.502 95.5077 340.889 95.4109 341.179 95.4109H352.094C352.48 95.4109 352.77 95.5077 352.963 95.7979C353.156 96.0882 353.349 96.3785 353.349 96.6688C353.349 96.9591 353.253 97.3462 352.963 97.5397C352.673 97.83 352.384 97.9267 352.094 97.9267H341.179ZM351.997 76.8324C352.384 76.8324 352.673 76.9292 352.866 77.2195C353.06 77.5098 353.253 77.8001 353.253 78.0903C353.253 78.3806 353.156 78.7677 352.866 78.9612C352.577 79.2515 352.287 79.3483 351.997 79.3483H341.372C340.985 79.3483 340.696 79.2515 340.502 78.9612C340.213 78.7677 340.116 78.3806 340.116 78.0903C340.116 77.8001 340.213 77.413 340.502 77.2195C340.792 77.026 341.082 76.8324 341.372 76.8324H351.997ZM350.741 104.507C350.741 104.313 350.645 104.216 350.355 104.216H342.917C342.724 104.216 342.628 104.313 342.628 104.507V112.151C342.628 112.344 342.724 112.441 342.917 112.441H350.355C350.548 112.441 350.741 112.344 350.741 112.151V104.507ZM366.679 94.8303C366.969 94.54 367.356 94.3465 367.742 94.3465C368.128 94.3465 368.515 94.54 368.804 94.8303C369.094 95.1206 369.287 95.5077 369.287 95.8947V100.926C369.287 101.507 369.384 102.184 369.481 102.862C369.577 103.539 369.867 104.507 370.35 105.571C370.736 106.635 371.316 107.7 371.992 108.667C372.668 109.635 373.634 110.699 374.89 111.764C376.146 112.828 377.594 113.699 379.237 114.473C379.623 114.667 379.816 114.86 379.913 115.247C379.913 115.344 379.913 115.538 379.913 115.634C379.913 115.925 379.816 116.118 379.72 116.312C379.43 116.699 379.043 116.989 378.657 117.086C378.464 117.086 378.271 117.086 378.077 117.086C377.788 117.086 377.594 117.086 377.305 116.989C375.856 116.312 374.6 115.441 373.441 114.473C372.282 113.506 371.316 112.441 370.543 111.474C369.77 110.409 369.191 109.442 368.804 108.571C368.321 107.7 368.032 106.829 367.839 106.152C367.839 106.152 367.838 106.152 367.742 106.152C367.645 106.152 367.645 106.152 367.645 106.152C367.356 106.926 367.066 107.797 366.583 108.667C366.1 109.538 365.424 110.506 364.651 111.474C363.782 112.538 362.719 113.506 361.367 114.57C360.014 115.538 358.469 116.408 356.827 117.183C356.634 117.279 356.344 117.279 356.151 117.279C355.957 117.279 355.764 117.279 355.571 117.183C355.185 116.989 354.798 116.795 354.509 116.408C354.315 116.215 354.315 116.021 354.315 115.731C354.315 115.634 354.315 115.538 354.315 115.441C354.412 115.054 354.605 114.86 354.992 114.667C356.827 113.893 358.566 113.022 359.918 111.957C361.367 110.893 362.429 109.829 363.202 108.861C363.975 107.893 364.554 106.829 365.037 105.668C365.52 104.603 365.81 103.636 366.003 102.958C366.1 102.184 366.196 101.604 366.196 100.926V95.8947C366.196 95.5077 366.39 95.1206 366.679 94.8303ZM358.276 106.926C357.986 107.216 357.6 107.409 357.213 107.409C356.73 107.409 356.344 107.313 356.054 107.119C355.764 106.926 355.668 106.635 355.668 106.345C355.668 105.958 355.764 105.668 356.054 105.377C357.406 104.023 358.372 102.088 359.048 99.5717C359.145 99.1846 359.435 98.8944 359.725 98.7008C360.014 98.5073 360.401 98.4105 360.787 98.5073C361.174 98.6041 361.463 98.7976 361.657 99.1846C361.85 99.4749 361.946 99.862 361.85 100.249C360.98 103.055 359.821 105.281 358.276 106.926ZM378.947 92.4112C379.237 92.7015 379.43 93.0886 379.526 93.4756C379.526 93.9595 379.43 94.2497 379.14 94.6368C378.85 94.9271 378.464 95.1206 378.077 95.1206C377.691 95.1206 377.305 95.0238 376.918 94.7336C374.793 92.8951 371.606 90.6695 367.452 88.0569C367.259 87.9602 367.066 87.9602 366.969 88.1537C365.327 91.4436 362.429 93.9595 358.179 95.6044C357.793 95.7979 357.406 95.7979 357.02 95.6044C356.634 95.4109 356.247 95.2174 356.054 94.8303C355.861 94.54 355.764 94.2497 355.861 93.9595C355.957 93.6692 356.151 93.3789 356.44 93.2821C357.986 92.7015 359.338 92.0242 360.497 91.2501C361.56 90.476 362.526 89.6051 363.202 88.7343C363.878 87.8634 364.458 86.7022 364.941 85.4443C365.424 84.1864 365.713 82.8317 365.907 81.5738C366.1 80.2191 366.293 78.6709 366.39 76.8324C366.39 76.4454 366.583 76.0583 366.873 75.768C367.162 75.4777 367.549 75.381 367.935 75.381C368.321 75.381 368.708 75.4777 368.901 75.768C369.191 76.0583 369.287 76.4454 369.287 76.8324C369.094 80.2191 368.708 83.0252 368.128 85.0573C368.032 85.2508 368.128 85.4443 368.321 85.5411C372.765 87.9602 376.242 90.2825 378.947 92.4112ZM359.338 79.7353C359.435 79.445 359.628 79.1547 359.918 78.9612C360.208 78.7677 360.497 78.6709 360.884 78.7677C361.27 78.8644 361.56 79.058 361.753 79.3483C361.946 79.6385 362.043 80.0256 361.946 80.3159C361.367 82.8317 360.497 84.8637 359.145 86.4119C358.855 86.7022 358.566 86.8958 358.179 86.8958C357.793 86.9925 357.406 86.8958 357.02 86.7022C356.73 86.5087 356.634 86.3152 356.537 86.0249C356.537 85.7346 356.537 85.4443 356.827 85.154C358.083 83.7026 358.855 81.9609 359.338 79.7353ZM375.566 79.5418C375.759 79.1547 376.049 78.8644 376.435 78.7677C376.822 78.5742 377.208 78.5742 377.691 78.7677C378.077 78.9612 378.271 79.1547 378.464 79.5418C378.56 79.9288 378.56 80.3159 378.367 80.6062C377.208 82.6382 376.146 84.3799 375.276 85.7346C375.083 86.0249 374.793 86.2184 374.407 86.3152C374.021 86.412 373.731 86.412 373.344 86.2184C373.055 86.1217 372.861 85.9281 372.765 85.5411C372.668 85.2508 372.765 84.9605 372.861 84.6702C373.827 83.0252 374.793 81.2835 375.566 79.5418ZM375.373 106.055C375.18 106.345 374.89 106.539 374.503 106.635C374.117 106.732 373.731 106.732 373.441 106.539C373.151 106.442 372.958 106.152 372.861 105.861C372.765 105.571 372.861 105.281 372.958 104.99C374.117 103.152 375.18 101.217 376.049 99.3782C376.242 98.9911 376.532 98.7008 376.918 98.5073C377.305 98.3138 377.788 98.3138 378.174 98.5073C378.56 98.7008 378.85 98.8944 378.947 99.2814C379.14 99.6685 379.043 100.056 378.85 100.443C377.498 102.862 376.339 104.7 375.373 106.055Z" fill="#AE8148" stroke="#AE8148" stroke-width="2" stroke-miterlimit="10" stroke-linecap="round" stroke-linejoin="round"/>
</svg>
