<svg width="300" height="87" viewBox="0 0 300 87" fill="none" xmlns="http://www.w3.org/2000/svg">
<path d="M47.3203 6.312C47.3203 6.38879 47.3203 6.46557 47.3203 6.46557C47.3203 6.54235 47.396 6.54235 47.4718 6.54235H58.2327C58.8389 6.54235 59.2936 6.7727 59.7483 7.15661C60.1272 7.54052 60.3545 8.07799 60.3545 8.69225V33.8768C60.3545 34.1839 60.203 34.491 59.9756 34.7982C59.7483 35.0285 59.4452 35.1821 59.0663 35.1821C58.7631 35.1821 58.46 35.0285 58.1569 34.7982C57.9295 34.5678 57.778 34.2607 57.778 33.8768V33.4161C57.778 33.2625 57.7022 33.1857 57.5506 33.1857H38.3024C38.1508 33.1857 38.075 33.2625 38.075 33.4161V34.0303C38.075 34.3375 37.9235 34.6446 37.6961 34.8749C37.4688 35.1053 37.1656 35.2589 36.7867 35.2589C36.4078 35.2589 36.1805 35.1053 35.8774 34.8749C35.65 34.6446 35.4985 34.3375 35.4985 34.0303V8.69225C35.4985 8.07799 35.7258 7.6173 36.1047 7.15661C36.4836 6.7727 37.0141 6.54235 37.6203 6.54235H44.3648C44.5164 6.54235 44.6679 6.46557 44.7437 6.312C45.1984 5.16027 45.5773 4.00854 45.8804 2.85681C45.9562 2.4729 46.1835 2.16577 46.4867 1.93542C46.714 1.78186 47.0171 1.70508 47.3203 1.70508C47.396 1.70508 47.4718 1.70508 47.5476 1.70508C47.9265 1.78186 48.1538 1.93542 48.3812 2.24255C48.6085 2.54968 48.6085 2.85681 48.457 3.24072C48.1538 4.23889 47.6992 5.23705 47.3203 6.312ZM57.8538 9.15294C57.8538 8.99938 57.778 8.92259 57.6264 8.92259H38.3024C38.075 8.92259 37.9992 8.99938 37.9992 9.15294V14.5277C37.9992 14.6812 38.075 14.758 38.3024 14.758H57.5506C57.7022 14.758 57.778 14.6812 57.778 14.5277V9.15294H57.8538ZM57.8538 17.3686C57.8538 17.1383 57.778 17.0615 57.6264 17.0615H38.3024C38.075 17.0615 37.9992 17.1383 37.9992 17.3686V22.513C37.9992 22.7434 38.075 22.8202 38.3024 22.8202H57.5506C57.7022 22.8202 57.778 22.7434 57.778 22.513V17.3686H57.8538ZM38.075 30.5751C38.075 30.7287 38.1508 30.8055 38.3781 30.8055H57.6264C57.778 30.8055 57.8538 30.7287 57.8538 30.5751V25.2772C57.8538 25.1236 57.778 25.0468 57.6264 25.0468H38.3024C38.075 25.0468 37.9992 25.1236 37.9992 25.2772V30.5751H38.075Z" fill="#AE8148" stroke="#AE8148" stroke-width="2" stroke-miterlimit="10" stroke-linecap="round" stroke-linejoin="round"/>
<path d="M84.2254 33.4929H92.334C93.3191 33.4929 93.9253 33.1857 94.2285 32.6483C94.5316 32.1108 94.7589 30.8823 94.9105 29.1163C94.9105 28.8092 95.0621 28.5788 95.3652 28.502C95.5925 28.3485 95.8956 28.3485 96.1988 28.502C96.5777 28.6556 96.805 28.8859 97.0323 29.1931C97.2597 29.5002 97.3355 29.8073 97.2597 30.1912C97.0323 32.4179 96.5777 33.9536 95.9714 34.7214C95.2894 35.4892 94.1527 35.9499 92.4097 35.9499H83.9981C81.952 35.9499 80.5879 35.6428 79.9059 35.1053C79.1481 34.491 78.845 33.4161 78.845 31.7269V24.7397C78.845 24.5094 78.7692 24.4326 78.6177 24.5094L67.099 25.6611C66.7959 25.7379 66.4928 25.6611 66.2654 25.4307C65.9623 25.2004 65.8107 24.8933 65.8107 24.4326C65.8107 24.2022 65.8865 23.9719 66.0381 23.7415C66.2654 23.5112 66.4928 23.3576 66.7959 23.2808L78.6934 21.8988C78.845 21.8988 78.9208 21.7452 78.9208 21.5916V16.2937C78.9208 16.1401 78.845 16.0633 78.6934 16.0633C76.1169 16.6008 73.5404 17.0615 70.9638 17.4454C70.6607 17.5222 70.4333 17.4454 70.1302 17.2918C69.9029 17.1383 69.6755 16.9079 69.524 16.6008C69.4482 16.3705 69.4482 16.0633 69.5998 15.833C69.7513 15.6026 69.9029 15.4491 70.206 15.3723C78.0872 13.9902 84.0739 12.5314 88.0145 10.9957C88.3176 10.8421 88.6207 10.8421 88.9238 10.8421C89.4543 10.8421 89.909 11.0725 90.2879 11.4564C90.5152 11.6868 90.591 11.9171 90.591 12.301C90.5152 12.6081 90.3637 12.8385 90.0605 12.992C87.9387 13.8366 85.2106 14.6045 81.8004 15.4491C81.6489 15.5259 81.5731 15.6026 81.5731 15.7562V21.2845C81.5731 21.4381 81.6489 21.5149 81.8004 21.5149L96.5019 19.7489C96.805 19.6721 97.1081 19.7489 97.3355 19.9792C97.6386 20.2096 97.7902 20.5167 97.7902 20.9006C97.7902 21.1309 97.7144 21.3613 97.5628 21.5916C97.3355 21.822 97.1081 21.9756 96.805 21.9756L81.8004 23.8183C81.6489 23.8183 81.5731 23.9719 81.5731 24.1254V31.5733C81.5731 32.3411 81.7247 32.8786 82.1036 33.109C82.3309 33.3393 83.0887 33.4929 84.2254 33.4929ZM69.3724 8.61547C69.2209 8.61547 69.1451 8.69225 69.1451 8.9226V12.8385C69.1451 13.1456 68.9935 13.4527 68.7662 13.7599C68.5388 13.9902 68.2357 14.1438 67.8568 14.1438C67.4779 14.1438 67.2506 13.9902 66.9474 13.7599C66.7201 13.5295 66.5685 13.2224 66.5685 12.8385V8.4619C66.5685 7.84765 66.7959 7.38695 67.1748 6.92626C67.5537 6.54235 68.0842 6.312 68.6904 6.312H80.209C80.3606 6.312 80.4364 6.23522 80.4364 6.00488V3.62463C80.4364 3.24072 80.588 2.93359 80.8153 2.70325C81.0426 2.4729 81.3458 2.31934 81.7247 2.31934C82.0278 2.31934 82.3309 2.4729 82.634 2.70325C82.8614 2.93359 83.0129 3.24072 83.0129 3.62463V6.08166C83.0129 6.312 83.0887 6.38879 83.2403 6.38879H94.9863C95.5925 6.38879 96.0472 6.61913 96.5019 7.00304C96.8808 7.38695 97.1081 7.92443 97.1081 8.53869V12.8385C97.1081 13.1456 96.9566 13.4527 96.7292 13.7599C96.5019 13.9902 96.1988 14.1438 95.8199 14.1438C95.4409 14.1438 95.2136 13.9902 94.9105 13.7599C94.6831 13.5295 94.5316 13.2224 94.5316 12.8385V8.9226C94.5316 8.69225 94.4558 8.61547 94.3042 8.61547H69.3724Z" fill="#AE8148" stroke="#AE8148" stroke-width="2" stroke-miterlimit="10" stroke-linecap="round" stroke-linejoin="round"/>
<path d="M104.838 6.84936C104.914 6.46545 105.065 6.08154 105.368 5.8512C105.671 5.62085 105.974 5.46729 106.278 5.46729C106.353 5.46729 106.353 5.46729 106.429 5.46729C106.808 5.54407 107.111 5.69763 107.338 6.00476C107.566 6.31189 107.642 6.6958 107.49 7.07971C107.414 7.38684 107.338 7.69397 107.263 7.92431C106.05 13.7598 105.444 18.5202 105.444 22.0522C105.444 23.895 105.52 25.661 105.747 27.2734C105.747 27.2734 105.747 27.3502 105.823 27.3502C105.823 27.3502 105.899 27.3502 105.899 27.2734C106.505 25.5074 107.111 23.9718 107.566 22.82C107.642 22.5897 107.793 22.4361 108.021 22.4361C108.248 22.3593 108.399 22.4361 108.627 22.5897C108.93 22.82 109.157 23.1272 109.157 23.5111C109.157 23.6646 109.157 23.8182 109.081 23.9718C107.793 27.7341 107.035 30.1143 106.808 31.2661C106.656 31.7268 106.656 32.1107 106.656 32.4946C106.656 32.5714 106.656 32.7249 106.656 32.8017C106.656 33.1088 106.581 33.416 106.353 33.7231C106.126 34.0302 105.899 34.107 105.52 34.107H105.444C105.141 34.107 104.838 34.0302 104.61 33.8767C104.307 33.6463 104.156 33.416 104.08 33.0321C103.398 29.9608 103.019 26.5056 103.019 22.4361C103.019 21.438 103.095 20.363 103.171 19.2113C103.246 18.0595 103.398 16.9078 103.549 15.7561C103.701 14.6044 103.853 13.6062 103.928 12.7616C104.08 11.917 104.231 10.9956 104.383 9.84386C104.535 8.69213 104.686 8.00109 104.686 7.69397C104.762 7.38684 104.762 7.07971 104.838 6.84936ZM113.477 24.2789C113.553 23.9718 113.704 23.6646 114.007 23.4343C114.31 23.2039 114.613 23.1272 114.917 23.1272C115.22 23.2039 115.447 23.3575 115.674 23.5879C115.826 23.8182 115.902 24.1253 115.902 24.4325C115.674 25.2771 115.599 25.9681 115.599 26.6591C115.599 28.8858 117.72 30.0376 121.888 30.0376C124.616 30.0376 127.117 29.8072 129.466 29.3465C129.845 29.2697 130.148 29.3465 130.452 29.5769C130.755 29.8072 130.906 30.1143 130.906 30.4982C130.906 30.8822 130.755 31.2661 130.527 31.4964C130.3 31.8035 129.997 32.0339 129.542 32.1107C127.345 32.4178 124.768 32.6481 121.964 32.6481C119.009 32.6481 116.811 32.1875 115.371 31.2661C113.931 30.3447 113.249 28.9626 113.249 27.2734C113.174 26.4288 113.325 25.4306 113.477 24.2789ZM116.281 11.3027C115.902 11.3027 115.599 11.1492 115.371 10.842C115.144 10.5349 114.992 10.2278 114.992 9.84386C114.992 9.53674 115.144 9.22961 115.371 8.99926C115.599 8.76892 115.977 8.69213 116.281 8.69213C117.948 8.8457 119.767 8.92248 121.813 8.92248C122.04 8.92248 122.192 8.92248 122.343 8.92248C124.541 8.92248 126.587 8.76892 128.33 8.61535C128.709 8.53857 129.012 8.69213 129.239 8.92248C129.542 9.15283 129.618 9.45995 129.618 9.84386C129.618 10.2278 129.466 10.5349 129.239 10.842C129.012 11.1492 128.633 11.3027 128.254 11.3027C126.284 11.4563 124.238 11.5331 122.267 11.5331C120.297 11.5331 118.327 11.4563 116.281 11.3027Z" fill="#AE8148" stroke="#AE8148" stroke-width="2" stroke-miterlimit="10" stroke-linecap="round" stroke-linejoin="round"/>
<path d="M136.211 8.99939C136.211 8.61548 136.362 8.30835 136.59 8.00122C136.817 7.69409 137.196 7.54053 137.575 7.54053C137.954 7.54053 138.333 7.77087 138.636 8.078C138.863 8.38513 139.015 8.69226 139.015 9.07617C139.015 9.15295 139.015 9.15295 139.015 9.22973C138.939 9.84399 138.939 10.4582 138.939 11.0725C138.939 11.61 138.939 12.1475 138.939 12.7617C138.939 15.3723 139.015 17.7525 139.242 19.9024C139.545 23.1273 140.152 25.6611 141.061 27.5039C141.97 29.3466 143.031 30.268 144.395 30.268C145.153 30.268 145.911 29.7305 146.593 28.5788C147.351 27.4271 147.957 26.045 148.487 24.279C148.563 23.9719 148.79 23.7415 149.094 23.6648C149.397 23.588 149.7 23.6648 149.927 23.8951C150.23 24.279 150.458 24.6629 150.533 25.1236C150.533 25.2772 150.533 25.4307 150.533 25.6611C150.533 25.9682 150.458 26.2754 150.382 26.5825C149.397 28.9627 148.412 30.7287 147.426 31.8037C146.441 32.8786 145.305 33.4161 144.168 33.4161C142.349 33.4161 140.758 32.3411 139.318 30.268C137.954 28.1949 137.044 24.9701 136.59 20.5167C136.287 17.9061 136.135 14.6813 136.135 10.7654L136.211 8.99939ZM156.444 10.6118C156.293 10.3815 156.293 10.2279 156.293 9.99755C156.293 9.92077 156.293 9.76721 156.293 9.69043C156.369 9.3833 156.596 9.15295 156.899 9.07617C157.126 8.99939 157.278 8.99939 157.505 8.99939C157.733 8.99939 157.884 8.99939 158.036 9.07617C158.415 9.22973 158.718 9.3833 158.945 9.69043C160.233 11.6868 161.37 14.067 162.355 16.8312C163.34 19.5953 164.022 22.2827 164.326 25.0468C164.326 25.1236 164.326 25.2004 164.326 25.2772C164.326 25.5843 164.25 25.8914 164.098 26.1986C163.871 26.5825 163.568 26.8128 163.189 26.9664C163.037 27.0432 162.886 27.0432 162.81 27.0432C162.583 27.0432 162.431 26.9664 162.204 26.8896C161.901 26.6593 161.749 26.4289 161.673 26.045C161.294 23.1273 160.612 20.2864 159.703 17.5222C158.869 14.9116 157.733 12.5314 156.444 10.6118Z" fill="#AE8148" stroke="#AE8148" stroke-width="2" stroke-miterlimit="10" stroke-linecap="round" stroke-linejoin="round"/>
<path d="M184.938 8.84582C185.241 8.76903 185.544 8.84582 185.771 8.99938C185.999 9.15295 186.15 9.46007 186.15 9.7672C186.15 10.1511 186.075 10.4582 185.847 10.7654C185.62 11.0725 185.317 11.2261 185.014 11.3028C183.422 11.6868 181.755 11.9939 179.936 12.301C179.709 12.301 179.633 12.4546 179.557 12.6081C178.724 14.9116 177.663 17.3686 176.45 19.9792C175.162 22.513 173.874 24.7397 172.586 26.736C172.358 27.0432 172.055 27.2735 171.601 27.3503C171.449 27.3503 171.297 27.3503 171.222 27.3503C170.994 27.3503 170.691 27.2735 170.464 27.1967C170.161 27.0432 169.933 26.736 169.858 26.4289C169.782 26.045 169.858 25.7379 170.085 25.4307C171.373 23.7415 172.661 21.7452 173.874 19.4417C175.086 17.1383 176.147 14.9884 176.905 12.9921C176.905 12.9153 176.905 12.8385 176.905 12.8385C176.905 12.7617 176.829 12.7617 176.754 12.7617C175.693 12.8385 174.632 12.8385 173.647 12.8385C172.661 12.8385 171.676 12.8385 170.691 12.7617C170.312 12.7617 170.009 12.6081 169.782 12.3778C169.479 12.1474 169.327 11.7635 169.327 11.3796C169.327 11.0725 169.403 10.8422 169.63 10.6886C169.858 10.4582 170.161 10.3047 170.464 10.3815C171.449 10.4582 172.434 10.4582 173.571 10.4582C174.708 10.4582 175.996 10.3815 177.511 10.3047C177.663 10.3047 177.815 10.1511 177.815 9.99755C178.269 8.30834 178.648 6.7727 178.8 5.39062C178.875 5.00671 179.027 4.6228 179.33 4.39246C179.633 4.16211 179.936 4.00854 180.239 4.00854C180.315 4.00854 180.315 4.00854 180.391 4.00854C180.77 4.08533 181.073 4.23889 181.3 4.54602C181.528 4.85315 181.604 5.23706 181.528 5.62097C181.149 7.38696 180.77 8.76903 180.543 9.69042C180.543 9.7672 180.543 9.7672 180.543 9.84398C180.618 9.92077 180.618 9.92077 180.694 9.92077C182.134 9.53686 183.574 9.22973 184.938 8.84582ZM187.742 16.6776C187.742 16.2937 187.818 15.9866 188.045 15.7562C188.272 15.5259 188.575 15.3723 188.954 15.3723C189.333 15.3723 189.636 15.5259 189.864 15.7562C190.091 15.9866 190.243 16.3705 190.243 16.7544C190.243 17.0615 190.243 17.9061 190.243 19.2114C190.243 19.6721 190.318 20.5167 190.394 21.9756C190.47 23.3576 190.47 24.4326 190.546 25.2004C190.546 25.4307 190.697 25.5075 190.849 25.5843C192.971 26.3521 195.017 27.5806 197.063 29.1931C197.366 29.4234 197.517 29.7305 197.593 30.1145C197.593 30.1912 197.593 30.268 197.593 30.3448C197.593 30.6519 197.517 30.8823 197.366 31.1126C197.214 31.4198 196.911 31.5733 196.608 31.6501C196.229 31.7269 195.926 31.6501 195.699 31.4198C194.107 30.0377 192.516 28.9627 190.925 28.1949C190.849 28.1949 190.849 28.1949 190.773 28.1949C190.697 28.1949 190.697 28.2717 190.697 28.3485C190.697 28.6556 190.697 29.1931 190.697 29.7305C190.697 31.2662 190.167 32.4947 189.106 33.4161C188.045 34.4143 186.529 34.8749 184.407 34.8749C182.286 34.8749 180.618 34.4143 179.254 33.5696C177.89 32.725 177.284 31.4198 177.284 29.7305C177.284 28.1181 177.966 26.8128 179.33 25.8147C180.694 24.8165 182.361 24.3558 184.407 24.3558C185.468 24.3558 186.605 24.4326 187.818 24.6629C187.893 24.6629 187.893 24.6629 187.969 24.6629C188.045 24.5861 188.045 24.5861 188.045 24.5094C187.893 20.6703 187.818 18.0597 187.742 16.6776ZM188.196 28.9627C188.196 28.2717 188.196 27.7342 188.196 27.3503C188.196 27.12 188.121 27.0432 187.969 26.9664C186.757 26.6593 185.544 26.5057 184.407 26.5057C183.043 26.5057 181.982 26.8128 181.073 27.3503C180.239 27.8878 179.785 28.6556 179.785 29.577C179.785 30.4984 180.164 31.1894 180.922 31.7269C181.679 32.2644 182.74 32.4947 184.18 32.4947C185.62 32.4947 186.681 32.1876 187.287 31.4965C187.893 30.8055 188.196 29.9609 188.196 28.9627ZM198.124 13.2224C198.427 13.4527 198.654 13.7599 198.73 14.067C198.73 14.1438 198.73 14.2206 198.73 14.2973C198.73 14.5277 198.654 14.8348 198.503 15.0652C198.275 15.3723 198.048 15.5259 197.669 15.6026C197.29 15.6794 196.987 15.6026 196.684 15.3723C195.017 14.1438 192.971 12.9153 190.621 11.6868C190.318 11.5332 190.167 11.3028 190.091 10.9957C190.015 10.6886 190.015 10.3815 190.243 10.1511C190.47 9.84398 190.697 9.61364 191 9.53686C191.303 9.46007 191.682 9.46007 191.985 9.61364C194.183 10.8422 196.305 11.9939 198.124 13.2224Z" fill="#AE8148" stroke="#AE8148" stroke-width="2" stroke-miterlimit="10" stroke-linecap="round" stroke-linejoin="round"/>
<path d="M212.749 5.92809C212.749 5.54418 212.977 5.16027 213.28 4.85314C213.507 4.6228 213.81 4.46923 214.189 4.46923C214.265 4.46923 214.265 4.46923 214.341 4.46923C214.72 4.54602 215.099 4.69958 215.326 5.08349C215.477 5.31384 215.629 5.62097 215.629 5.85131C215.629 5.92809 215.629 6.08166 215.629 6.15844C215.553 6.312 215.553 6.46557 215.553 6.69591C215.326 8.30834 215.023 10.0743 214.644 11.9171C214.644 11.9939 214.644 12.0707 214.644 12.0707C214.72 12.1474 214.72 12.1474 214.795 12.1474C216.69 11.9939 218.054 11.9171 218.736 11.9171C219.57 11.9171 220.327 11.9939 220.934 12.2242C221.616 12.3778 222.222 12.6849 222.752 13.1456C223.283 13.6063 223.738 14.2206 224.041 14.9884C224.344 15.833 224.495 16.8311 224.495 17.9829C224.495 20.4399 224.344 22.8969 223.965 25.354C223.586 27.811 223.056 29.7305 222.373 31.1894C221.843 32.3411 221.161 33.1089 220.327 33.5696C219.494 34.0303 218.433 34.1839 217.22 34.1839C216.387 34.1839 215.402 34.1071 214.341 33.8768C213.886 33.8 213.583 33.6464 213.28 33.3393C212.977 33.0322 212.825 32.6483 212.749 32.1876C212.674 31.8804 212.825 31.5733 213.052 31.4197C213.28 31.1894 213.583 31.1126 213.886 31.1894C215.099 31.4965 216.159 31.6501 216.993 31.6501C217.751 31.6501 218.357 31.4965 218.888 31.2662C219.418 31.0358 219.873 30.4984 220.252 29.7305C220.858 28.502 221.237 26.8896 221.54 24.8165C221.843 22.7434 221.995 20.5935 221.995 18.3668C221.995 16.7544 221.691 15.6794 221.085 15.1419C220.479 14.6045 219.494 14.2973 218.206 14.2973C217.448 14.2973 216.159 14.3741 214.341 14.5277C214.189 14.5277 214.038 14.6813 214.038 14.8348C212.219 22.1291 209.87 28.1949 207.217 33.0322C206.99 33.4161 206.763 33.6464 206.308 33.8C206.156 33.8768 205.929 33.8768 205.778 33.8768C205.55 33.8768 205.323 33.8768 205.171 33.8C204.868 33.6464 204.641 33.4161 204.565 33.0322C204.489 32.6483 204.489 32.3411 204.717 32.034C206.156 29.8073 207.445 27.1199 208.657 23.9719C209.87 20.9006 210.779 17.9061 211.461 15.1419C211.461 15.0652 211.461 15.0652 211.461 14.9884C211.385 14.9116 211.385 14.9116 211.309 14.9116C210.779 14.9884 209.945 15.0652 208.885 15.1419C207.824 15.2187 207.066 15.2955 206.763 15.3723C206.156 15.4491 205.626 15.5259 205.095 15.6026C204.717 15.6794 204.338 15.5259 204.035 15.2955C203.656 14.9884 203.504 14.6045 203.504 14.1438C203.504 13.8366 203.58 13.5295 203.807 13.2992C204.035 12.992 204.413 12.8385 204.792 12.8385C205.095 12.8385 205.626 12.8385 206.46 12.8385C207.142 12.8385 208.96 12.6849 211.84 12.4546C211.992 12.4546 212.143 12.301 212.143 12.1474C212.37 9.69042 212.674 7.6173 212.749 5.92809ZM226.693 11.0725C226.541 10.8421 226.466 10.6886 226.466 10.4582C226.466 10.3815 226.466 10.3047 226.466 10.2279C226.541 9.92076 226.693 9.69042 227.072 9.53685C227.299 9.38329 227.527 9.38329 227.754 9.38329C227.905 9.38329 227.981 9.38329 228.133 9.46007C228.512 9.53685 228.815 9.7672 229.042 10.0743C229.952 11.3796 230.861 13.0688 231.846 15.0652C232.831 17.0615 233.741 18.9043 234.423 20.5935C234.498 20.8238 234.498 20.9774 234.498 21.1309C234.498 21.2845 234.498 21.5149 234.423 21.6684C234.271 22.0523 234.044 22.2827 233.665 22.513C233.513 22.5898 233.362 22.5898 233.134 22.5898C232.983 22.5898 232.831 22.5898 232.604 22.513C232.301 22.3595 232.073 22.1291 231.922 21.7452C231.316 19.9792 230.482 18.1364 229.497 16.1401C228.663 14.1438 227.678 12.4546 226.693 11.0725ZM231.543 7.69408C231.695 7.92443 231.695 8.15477 231.619 8.4619C231.543 8.69225 231.391 8.9226 231.088 8.99938C230.861 9.15294 230.558 9.15294 230.33 8.99938C230.103 8.9226 229.876 8.76903 229.724 8.4619C229.042 7.15661 228.36 6.00488 227.754 5.00671C227.602 4.77636 227.602 4.54602 227.678 4.31567C227.754 4.08532 227.905 3.93176 228.133 3.7782C228.284 3.70141 228.436 3.70141 228.588 3.70141C228.663 3.70141 228.815 3.70141 228.891 3.70141C229.118 3.7782 229.345 3.93176 229.497 4.16211C230.255 5.4674 230.937 6.54235 231.543 7.69408ZM235.559 6.23522C235.635 6.38879 235.635 6.54235 235.635 6.69591C235.635 6.7727 235.635 6.92626 235.635 7.00304C235.559 7.23339 235.408 7.46374 235.105 7.54052C234.877 7.69408 234.574 7.69408 234.347 7.54052C234.12 7.46374 233.892 7.31017 233.741 7.00304C233.059 5.62097 232.377 4.54602 231.77 3.54785C231.619 3.3175 231.619 3.16394 231.619 2.93359C231.695 2.70325 231.846 2.54968 231.998 2.39612C232.149 2.31934 232.301 2.31934 232.452 2.31934C232.604 2.31934 232.68 2.31934 232.831 2.31934C233.059 2.39612 233.286 2.54968 233.437 2.78003C234.195 3.93176 234.877 5.08349 235.559 6.23522Z" fill="#AE8148" stroke="#AE8148" stroke-width="2" stroke-miterlimit="10" stroke-linecap="round" stroke-linejoin="round"/>
<path d="M242.076 12.0707C242.076 11.6868 242.304 11.3796 242.607 11.1493C242.834 10.9189 243.137 10.8422 243.44 10.8422C243.516 10.8422 243.516 10.8422 243.592 10.8422C243.971 10.9189 244.274 11.0725 244.501 11.4564C244.729 11.7635 244.805 12.1474 244.805 12.5314C244.653 13.4527 244.426 14.9116 244.198 17.0615C243.895 19.2114 243.744 20.5935 243.592 21.2845C243.592 21.3613 243.592 21.3613 243.592 21.3613C243.668 21.3613 243.668 21.3613 243.668 21.3613C247.002 18.4436 250.867 16.9847 255.338 16.9847C257.99 16.9847 260.188 17.6758 261.931 19.1346C263.674 20.5935 264.508 22.3595 264.508 24.5861C264.508 27.8878 263.068 30.4216 260.112 32.2644C257.611 33.8 254.126 34.5678 249.579 34.5678C248.745 34.5678 247.836 34.5678 246.926 34.491C246.472 34.491 246.093 34.3375 245.79 34.0303C245.487 33.8 245.259 33.4161 245.108 33.0322C245.032 32.725 245.032 32.4179 245.259 32.1876C245.487 31.9572 245.714 31.8037 246.093 31.8804C247.381 32.034 248.594 32.034 249.73 32.034C253.065 32.034 255.717 31.4965 257.763 30.4984C260.415 29.1163 261.779 27.12 261.779 24.5861C261.779 23.1273 261.173 21.8988 259.961 20.9006C258.748 19.9792 257.157 19.4417 255.262 19.4417C250.412 19.4417 246.623 21.0542 243.895 24.3558C243.668 24.5861 243.516 24.8165 243.365 24.9701C243.137 25.2772 242.91 25.5843 242.607 25.7379C242.304 25.8914 241.925 25.9682 241.622 25.8147C241.319 25.6611 241.015 25.5075 240.788 25.2004C240.637 24.9701 240.561 24.7397 240.561 24.5094C240.561 24.4326 240.561 24.3558 240.561 24.279C241.243 20.3631 241.698 16.3705 242.076 12.0707ZM246.547 7.31018C246.169 7.23339 245.941 7.00305 245.714 6.69592C245.562 6.38879 245.487 6.08166 245.562 5.69775C245.638 5.39062 245.865 5.0835 246.169 4.92993C246.32 4.77637 246.547 4.77637 246.775 4.77637C246.926 4.77637 247.002 4.77637 247.154 4.77637C250.715 5.77453 254.504 6.54236 258.521 7.07983C258.824 7.15661 259.127 7.31018 259.354 7.54052C259.582 7.84765 259.658 8.15478 259.582 8.46191C259.506 8.84582 259.279 9.07616 258.976 9.30651C258.672 9.53686 258.369 9.61364 257.99 9.53686C254.126 9.07616 250.337 8.30834 246.547 7.31018Z" fill="#AE8148" stroke="#AE8148" stroke-width="2" stroke-miterlimit="10" stroke-linecap="round" stroke-linejoin="round"/>
<path d="M21.4761 59.8672C21.4761 60.0975 21.5519 60.1743 21.7034 60.1743H27.4627C27.8416 60.1743 28.3721 60.1743 29.0541 60.0975C29.433 60.0975 29.7362 60.1743 30.0393 60.4046C30.3424 60.635 30.494 60.9421 30.494 61.326C30.494 61.7099 30.3424 62.0171 30.1151 62.3242C29.8119 62.5545 29.5088 62.7081 29.1299 62.7081C28.4479 62.6313 27.9174 62.6313 27.6143 62.6313H21.855C21.7034 62.6313 21.6276 62.7081 21.6276 62.9385C21.7792 72.8433 21.855 78.602 21.855 80.368C21.855 82.2108 20.794 83.2089 18.6722 83.2089C17.1566 83.2089 15.7167 83.1321 14.2769 83.0554C13.898 83.0554 13.5191 82.9018 13.2918 82.5947C12.9886 82.2875 12.8371 81.9804 12.8371 81.5965C12.8371 81.2126 12.9129 80.9055 13.1402 80.6751C13.3675 80.4448 13.6707 80.368 14.0496 80.368C15.4136 80.5216 16.7019 80.5983 17.9144 80.5983C18.4448 80.5983 18.8237 80.5216 18.9753 80.2912C19.2027 80.0609 19.2784 79.6769 19.2784 79.1395C19.2784 75.07 19.2784 70.4631 19.2027 65.3955C19.2027 65.3955 19.2027 65.3187 19.1269 65.3187H19.0511C17.5355 67.4686 15.4136 69.7721 12.6855 72.2291C9.95742 74.6861 7.15353 76.7592 4.19809 78.4484C3.97075 78.602 3.66762 78.6788 3.3645 78.6788C3.21294 78.6788 3.13716 78.6788 3.06138 78.6788C2.68247 78.602 2.30357 78.4484 2.00045 78.0645C1.77311 78.0645 1.69733 77.8342 1.69733 77.5271C1.69733 77.4503 1.69733 77.3735 1.69733 77.2967C1.77311 76.9896 1.92467 76.6824 2.30357 76.5289C5.56214 74.7629 8.59336 72.613 11.3972 70.0792C14.2011 67.5454 16.3988 65.1651 17.9144 62.8617C17.9902 62.8617 17.9902 62.7849 17.9144 62.7081C17.9144 62.6313 17.8386 62.6313 17.7628 62.6313H5.56214C4.88011 62.6313 4.19809 62.6313 3.66762 62.6313C3.28872 62.6313 2.9856 62.5545 2.68247 62.2474C2.37935 62.0171 2.30357 61.6332 2.30357 61.326C2.30357 61.0189 2.45513 60.635 2.68247 60.4046C2.9856 60.1743 3.28872 60.0207 3.66762 60.0975C4.27387 60.1743 4.95589 60.1743 5.48636 60.1743H18.748C18.9753 60.1743 19.0511 60.0975 19.0511 59.8672C18.9753 58.2548 18.9753 57.103 18.9753 56.412C18.9753 55.8745 18.8995 55.4138 18.8995 54.9531C18.8995 54.5692 18.9753 54.1853 19.2784 53.8782C19.5058 53.571 19.8847 53.4175 20.2636 53.4175C20.6425 53.4175 20.9456 53.571 21.2487 53.8782C21.4761 54.1085 21.6276 54.4924 21.6276 54.8763V55.8745C21.6276 56.0281 21.6276 56.1816 21.6276 56.412L21.4761 59.8672Z" fill="#AE8148" stroke="#AE8148" stroke-width="2" stroke-miterlimit="10" stroke-linecap="round" stroke-linejoin="round"/>
<path d="M37.6931 82.5948C37.5416 82.5948 37.39 82.5948 37.1627 82.5948C36.8595 82.5948 36.5564 82.518 36.3291 82.4412C35.8744 82.2109 35.5713 81.9805 35.2681 81.5198C35.1166 81.3663 35.1166 81.1359 35.1166 80.9824C35.1166 80.8288 35.1166 80.6752 35.1924 80.5217C35.3439 80.2145 35.647 79.9842 35.9502 79.9074C40.7243 78.986 45.1196 77.22 49.0602 74.6862C51.4094 73.1506 53.6071 71.3078 55.5773 69.1579C57.5476 67.008 59.139 64.7814 60.3515 62.6315C60.5031 62.3243 60.7304 62.1708 61.1093 62.1708C61.4125 62.1708 61.6398 62.3243 61.7914 62.6315C62.0187 63.0921 62.1703 63.5528 62.1703 64.0135C62.1703 64.4742 62.0187 64.9349 61.7914 65.3956C60.4273 67.6223 58.8359 69.6954 56.8656 71.7685C54.9711 73.8416 52.8492 75.5308 50.5 77.0665C46.5595 79.6771 42.24 81.5198 37.6931 82.5948ZM36.5564 58.1013C36.2533 57.871 36.1017 57.5638 36.1017 57.2567C36.1017 56.8728 36.1775 56.5657 36.4048 56.3353C36.708 56.0282 37.0111 55.8746 37.39 55.7979C37.4658 55.7979 37.4658 55.7979 37.5416 55.7979C37.8447 55.7979 38.1478 55.8746 38.4509 56.105C40.9517 57.9478 43.3009 59.9441 45.4985 61.9404C45.8016 62.1708 45.9532 62.5547 45.9532 62.9386C45.9532 63.3225 45.8016 63.7064 45.5743 63.9368C45.2712 64.2439 44.9681 64.3974 44.5892 64.3974C44.2103 64.3974 43.8314 64.2439 43.5282 64.0135C41.179 61.7869 38.9056 59.7905 36.5564 58.1013Z" fill="#AE8148" stroke="#AE8148" stroke-width="2" stroke-miterlimit="10" stroke-linecap="round" stroke-linejoin="round"/>
<path d="M91.8763 63.4759C92.0278 63.4759 92.1794 63.4759 92.331 63.4759C92.9372 63.4759 93.4677 63.6295 93.9224 63.8598C94.3013 64.0902 94.5286 64.4741 94.5286 64.9348C94.5286 65.0884 94.5286 65.3187 94.4528 65.5491C93.3161 69.9256 91.4974 73.4576 89.0724 76.0682C87.481 77.8342 85.6623 79.293 83.7678 80.4448C81.8732 81.5965 79.7514 82.5179 77.478 83.2857C77.2506 83.3625 77.0233 83.3625 76.7959 83.3625C76.5686 83.3625 76.3413 83.3625 76.1139 83.2857C75.6592 83.1322 75.2803 82.9018 74.9772 82.5179C74.7499 82.2875 74.6741 81.9804 74.8256 81.5965C74.9772 81.2126 75.1288 81.059 75.5077 80.9823C80.2061 79.7537 83.9951 77.6038 86.8748 74.5326C87.9357 73.4576 88.8451 72.1523 89.6029 70.6935C90.3607 69.2346 90.8911 67.7757 91.27 66.3169C91.27 66.2401 91.27 66.1633 91.27 66.0865C91.1943 66.0097 91.1943 66.0097 91.1185 66.0097H71.6429C71.0366 66.0097 70.3546 66.0097 69.521 66.0865C69.1421 66.0865 68.839 65.933 68.5359 65.7026C68.2327 65.4723 68.157 65.1651 68.157 64.7812C68.157 64.3973 68.3085 64.0902 68.5359 63.8598C68.839 63.6295 69.1421 63.4759 69.521 63.5527C70.3546 63.6295 71.0366 63.6295 71.6429 63.6295H91.0427C91.3458 63.5527 91.5732 63.4759 91.8763 63.4759ZM72.7796 57.5637C72.4007 57.5637 72.0975 57.4102 71.8702 57.1798C71.6429 56.9495 71.4913 56.5656 71.4913 56.2584C71.4913 55.9513 71.6429 55.5674 71.8702 55.337C72.0975 55.1067 72.4007 54.9531 72.7038 54.9531H72.7796C73.31 54.9531 73.9163 54.9531 74.5983 54.9531H89.0724C89.7544 54.9531 90.3607 54.9531 90.8911 54.9531C91.27 54.9531 91.5732 55.1067 91.8005 55.337C92.0278 55.5674 92.1794 55.8745 92.1794 56.2584C92.1794 56.6423 92.0278 56.9495 91.8005 57.1798C91.5732 57.4102 91.1943 57.5637 90.8911 57.5637C90.2849 57.5637 89.6786 57.5637 88.9966 57.5637H74.5983C73.9163 57.4869 73.31 57.5637 72.7796 57.5637Z" fill="#AE8148" stroke="#AE8148" stroke-width="2" stroke-miterlimit="10" stroke-linecap="round" stroke-linejoin="round"/>
<path d="M124.159 54.6461C124.462 54.339 124.765 54.1854 125.22 54.1086H125.296C125.599 54.1086 125.902 54.2622 126.205 54.4926C126.508 54.7229 126.66 55.1068 126.66 55.5675C126.66 55.9514 126.508 56.2585 126.205 56.5657C123.477 59.1763 120.597 61.4797 117.717 63.3225C117.566 63.3993 117.49 63.5528 117.49 63.7064V79.4467L117.566 81.7502C117.566 82.1341 117.414 82.4412 117.187 82.7484C116.884 83.0555 116.581 83.2858 116.126 83.2858C115.671 83.2858 115.368 83.1323 115.065 82.7484C114.838 82.4412 114.686 82.1341 114.686 81.7502L114.762 79.4467V65.4724C114.762 65.3956 114.762 65.3956 114.686 65.3188C114.61 65.3188 114.61 65.3188 114.535 65.3188C110.594 67.4687 106.502 69.2347 102.182 70.6168C102.031 70.6936 101.804 70.6936 101.652 70.6936C101.425 70.6936 101.197 70.6936 100.97 70.6168C100.591 70.4632 100.288 70.1561 100.061 69.7722C99.9848 69.6186 99.9091 69.3883 99.9091 69.2347C99.9091 69.0811 99.9091 68.9276 99.9848 68.774C100.136 68.4669 100.364 68.2365 100.743 68.1598C103.395 67.3919 106.123 66.4706 108.7 65.3188C111.276 64.1671 113.625 62.9386 115.596 61.7101C119.006 59.5602 121.885 57.1799 124.159 54.6461Z" fill="#AE8148" stroke="#AE8148" stroke-width="2" stroke-miterlimit="10" stroke-linecap="round" stroke-linejoin="round"/>
<path d="M135.981 82.5948C135.829 82.5948 135.677 82.5948 135.45 82.5948C135.147 82.5948 134.844 82.518 134.617 82.4412C134.162 82.2109 133.859 81.9805 133.556 81.5198C133.404 81.3663 133.404 81.1359 133.404 80.9824C133.404 80.8288 133.404 80.6752 133.48 80.5217C133.631 80.2145 133.935 79.9842 134.238 79.9074C139.012 78.986 143.407 77.22 147.348 74.6862C149.697 73.1506 151.895 71.3078 153.865 69.1579C155.835 67.008 157.427 64.7814 158.639 62.6315C158.791 62.3243 159.018 62.1708 159.397 62.1708C159.7 62.1708 159.927 62.3243 160.079 62.6315C160.306 63.0921 160.458 63.5528 160.458 64.0135C160.458 64.4742 160.306 64.9349 160.079 65.3956C158.715 67.6223 157.123 69.6954 155.153 71.7685C153.259 73.8416 151.137 75.5308 148.788 77.0665C144.847 79.6771 140.527 81.5198 135.981 82.5948ZM134.92 58.1013C134.617 57.871 134.465 57.5638 134.465 57.2567C134.465 56.8728 134.541 56.5657 134.768 56.3353C135.071 56.0282 135.374 55.8746 135.753 55.7979C135.829 55.7979 135.829 55.7979 135.905 55.7979C136.208 55.7979 136.511 55.8746 136.814 56.105C139.315 57.9478 141.664 59.9441 143.862 61.9404C144.165 62.1708 144.316 62.5547 144.316 62.9386C144.316 63.3225 144.165 63.7064 143.938 63.9368C143.634 64.2439 143.331 64.3974 142.952 64.3974C142.574 64.3974 142.195 64.2439 141.891 64.0135C139.542 61.7869 137.193 59.7905 134.92 58.1013Z" fill="#AE8148" stroke="#AE8148" stroke-width="2" stroke-miterlimit="10" stroke-linecap="round" stroke-linejoin="round"/>
<path d="M166.065 60.7887C165.687 60.8655 165.308 60.7887 165.005 60.5583C164.626 60.2512 164.398 59.8673 164.398 59.4066C164.398 59.0995 164.55 58.7924 164.777 58.4852C165.005 58.1781 165.308 58.0245 165.762 58.0245C166.444 57.9478 166.975 57.9478 167.505 57.871C173.871 57.2567 179.176 56.7192 183.419 56.4121C186.375 56.1818 189.179 55.9514 191.755 55.7979C192.058 55.7979 192.361 55.9514 192.589 56.1818C192.816 56.4121 192.968 56.7192 192.968 57.1032C192.968 57.4103 192.816 57.7174 192.589 58.0245C192.361 58.2549 192.058 58.4084 191.679 58.4084C189.027 58.4084 187.057 58.6388 185.92 59.0227C184.253 59.5602 182.737 60.5583 181.449 61.8636C180.161 63.2457 179.176 64.7046 178.494 66.2402C177.887 67.7759 177.508 69.3115 177.508 70.8471C177.508 72.1524 177.736 73.3042 178.115 74.3791C178.569 75.4541 179.1 76.2987 179.782 77.0665C180.464 77.7575 181.297 78.3718 182.283 78.9093C183.268 79.4467 184.253 79.8306 185.314 80.061C186.299 80.2913 187.436 80.5217 188.572 80.5985C188.951 80.6752 189.179 80.8288 189.406 81.1359C189.633 81.4431 189.633 81.7502 189.557 82.0573C189.406 82.4412 189.179 82.8251 188.8 83.0555C188.497 83.2858 188.193 83.3626 187.815 83.3626C187.739 83.3626 187.663 83.3626 187.587 83.3626C186.299 83.209 185.086 82.9787 183.874 82.5948C182.661 82.2109 181.525 81.7502 180.388 81.0591C179.251 80.3681 178.342 79.6003 177.508 78.7557C176.675 77.9111 175.993 76.8361 175.538 75.5308C175.008 74.3023 174.78 72.9202 174.78 71.4614C174.78 68.774 175.462 66.317 176.751 64.0903C178.039 61.8636 179.63 60.1744 181.525 59.0227V58.9459C181.525 58.9459 181.525 58.9459 181.449 58.9459C181.07 59.0227 180.085 59.0995 178.418 59.253C176.826 59.4066 175.311 59.5602 174.098 59.7137C172.81 59.8673 171.37 60.0209 169.779 60.2512C168.339 60.4816 167.051 60.6351 166.065 60.7887ZM186.754 64.551C186.602 64.3207 186.602 64.1671 186.678 63.9368C186.754 63.7064 186.905 63.5528 187.057 63.4761C187.284 63.3225 187.511 63.3225 187.815 63.3993C188.042 63.4761 188.269 63.6296 188.421 63.86C189.179 65.0885 189.861 66.2402 190.467 67.3919C190.618 67.6223 190.618 67.8526 190.543 68.1598C190.467 68.3901 190.315 68.6205 190.088 68.6972C189.861 68.774 189.633 68.774 189.406 68.6972C189.179 68.6205 189.027 68.4669 188.875 68.2365C188.118 66.8545 187.436 65.626 186.754 64.551ZM190.77 63.0921C190.618 62.8618 190.618 62.7082 190.618 62.4779C190.694 62.2475 190.846 62.094 190.997 61.9404C191.225 61.7869 191.452 61.7869 191.755 61.8636C191.982 61.9404 192.21 62.094 192.361 62.3243C193.195 63.5528 193.953 64.7046 194.559 65.8563C194.635 66.0099 194.711 66.1634 194.711 66.317C194.711 66.3938 194.711 66.5473 194.635 66.6241C194.559 66.8545 194.407 67.0848 194.18 67.2384C193.953 67.3919 193.725 67.3919 193.422 67.3152C193.195 67.2384 192.968 67.0848 192.892 66.8545C192.134 65.3188 191.452 64.0903 190.77 63.0921Z" fill="#AE8148" stroke="#AE8148" stroke-width="2" stroke-miterlimit="10" stroke-linecap="round" stroke-linejoin="round"/>
<path d="M199.03 72.69C199.106 72.3061 199.333 71.999 199.636 71.7686C199.864 71.5383 200.167 71.4615 200.47 71.4615C200.546 71.4615 200.621 71.4615 200.621 71.4615C200.925 71.5383 201.228 71.6919 201.379 71.999C201.607 72.3061 201.607 72.6132 201.531 72.9204C201.304 73.9185 201.152 74.9167 201.152 75.8381C201.152 77.2969 201.91 78.4487 203.35 79.3701C204.789 80.2147 206.987 80.6754 209.867 80.6754C214.262 80.6754 217.899 80.2914 220.855 79.6004C221.158 79.5236 221.461 79.6004 221.764 79.8308C222.067 80.0611 222.219 80.3682 222.219 80.6754C222.219 81.0593 222.067 81.4432 221.84 81.7503C221.613 82.0574 221.234 82.2878 220.855 82.3646C217.899 82.9788 214.262 83.3627 209.942 83.3627C206.305 83.3627 203.501 82.7485 201.531 81.5967C199.485 80.3682 198.5 78.679 198.5 76.4523C198.651 75.3006 198.803 74.0721 199.03 72.69ZM202.137 59.7139C201.758 59.7139 201.455 59.5603 201.228 59.2532C201 58.946 200.849 58.6389 200.849 58.255C200.849 57.9479 201 57.6407 201.228 57.4104C201.455 57.18 201.834 57.0265 202.137 57.1033C204.486 57.3336 207.214 57.4104 210.321 57.4104C213.125 57.4104 215.929 57.2568 218.657 57.0265C218.733 57.0265 218.733 57.0265 218.733 57.0265C219.036 57.0265 219.339 57.1033 219.567 57.3336C219.794 57.564 219.946 57.8711 219.946 58.255C219.946 58.6389 219.794 58.946 219.567 59.2532C219.339 59.5603 218.96 59.7139 218.657 59.7139C215.323 59.9442 212.595 60.0978 210.397 60.0978C207.442 60.021 204.714 59.8674 202.137 59.7139ZM219.87 54.3391C219.718 54.1088 219.718 53.8784 219.794 53.6481C219.87 53.4177 220.021 53.2642 220.249 53.1106C220.476 52.957 220.779 52.957 221.006 53.0338C221.31 53.1106 221.537 53.2642 221.613 53.4945C222.219 54.4927 222.901 55.5676 223.583 56.8729C223.735 57.1033 223.735 57.3336 223.659 57.6407C223.583 57.8711 223.431 58.1014 223.128 58.255C222.901 58.4086 222.598 58.4086 222.371 58.255C222.143 58.1782 221.916 58.0246 221.764 57.7175C221.158 56.4122 220.476 55.2605 219.87 54.3391ZM223.886 52.8035C223.735 52.5731 223.735 52.4196 223.81 52.1892C223.886 51.9589 224.038 51.8053 224.265 51.6517C224.417 51.575 224.568 51.575 224.72 51.575C224.871 51.575 224.947 51.575 225.099 51.575C225.326 51.6517 225.553 51.8053 225.705 52.0356C226.387 53.1106 227.069 54.1855 227.751 55.4141C227.827 55.5676 227.902 55.7212 227.902 55.8748C227.902 55.9515 227.902 56.1051 227.902 56.1819C227.827 56.4122 227.675 56.6426 227.372 56.7961C227.145 56.9497 226.842 56.9497 226.614 56.7961C226.387 56.7194 226.16 56.5658 226.008 56.2587C225.174 54.9534 224.492 53.8016 223.886 52.8035Z" fill="#AE8148" stroke="#AE8148" stroke-width="2" stroke-miterlimit="10" stroke-linecap="round" stroke-linejoin="round"/>
<path d="M238.285 61.6333C238.133 61.6333 238.057 61.7101 238.057 61.8636V64.7814C238.057 65.0117 238.133 65.1653 238.209 65.242C239.345 66.3938 240.785 68.1598 242.68 70.3864C242.907 70.6936 243.059 71.0007 243.059 71.3846C243.059 71.7685 242.983 72.0757 242.756 72.3828C242.528 72.6131 242.301 72.7667 241.998 72.6899C241.695 72.6899 241.467 72.5363 241.316 72.306C240.482 71.0775 239.497 69.6954 238.209 68.083C238.209 68.0062 238.133 68.0062 238.133 68.0062L238.057 68.083V83.6698C238.057 83.9769 237.981 84.284 237.754 84.5144C237.527 84.7447 237.224 84.8215 236.92 84.8215C236.617 84.8215 236.314 84.7447 236.087 84.5144C235.86 84.284 235.784 83.9769 235.784 83.6698V67.008C234.344 71.1543 232.828 74.5327 231.085 77.0665C230.934 77.2968 230.706 77.4504 230.403 77.4504C230.1 77.4504 229.873 77.2968 229.721 76.9897C229.494 76.6826 229.418 76.2987 229.418 75.9915C229.418 75.6076 229.57 75.2237 229.797 74.8398C230.934 73.2274 231.995 71.3078 232.98 68.9276C233.965 66.5473 234.799 64.2439 235.405 61.8636C235.405 61.7868 235.405 61.7101 235.405 61.7101C235.329 61.6333 235.329 61.6333 235.253 61.6333H230.934C230.631 61.6333 230.328 61.5565 230.1 61.3262C229.873 61.0958 229.797 60.7887 229.797 60.4816C229.797 60.1744 229.873 59.8673 230.1 59.6369C230.328 59.4066 230.631 59.3298 230.934 59.3298H235.556C235.708 59.3298 235.784 59.253 235.784 59.0995V52.4962C235.784 52.1891 235.86 51.882 236.087 51.6516C236.314 51.4213 236.617 51.3445 236.92 51.3445C237.224 51.3445 237.527 51.4213 237.754 51.6516C237.981 51.882 238.057 52.1891 238.057 52.4962V59.0995C238.057 59.253 238.133 59.3298 238.285 59.3298H242.225C242.528 59.3298 242.831 59.4066 242.983 59.6369C243.21 59.8673 243.286 60.1744 243.286 60.4816C243.286 60.7887 243.21 61.0958 242.983 61.3262C242.756 61.5565 242.528 61.6333 242.225 61.6333H238.285ZM245.029 55.6443C245.029 55.03 245.256 54.5693 245.635 54.1086C246.014 53.7247 246.545 53.4944 247.151 53.4944H259.2C259.806 53.4944 260.261 53.7247 260.716 54.1086C261.094 54.4925 261.322 55.03 261.322 55.6443V83.4394C261.322 83.7465 261.246 84.0537 261.019 84.284C260.791 84.5144 260.488 84.6679 260.185 84.6679C259.882 84.6679 259.579 84.5144 259.352 84.284C259.124 84.0537 259.048 83.7465 259.048 83.4394V82.7484C259.048 82.5948 258.973 82.518 258.821 82.518H247.757C247.606 82.518 247.53 82.5948 247.53 82.7484V83.593C247.53 83.9001 247.454 84.2072 247.227 84.4376C246.999 84.6679 246.696 84.8215 246.393 84.8215C246.09 84.8215 245.787 84.6679 245.559 84.4376C245.332 84.2072 245.181 83.9001 245.181 83.593V55.6443H245.029ZM258.897 56.1818C258.897 56.0282 258.821 55.9514 258.594 55.9514H247.606C247.454 55.9514 247.378 56.0282 247.378 56.1818V62.1708C247.378 62.3243 247.454 62.4011 247.606 62.4011H258.594C258.821 62.4011 258.897 62.3243 258.897 62.1708V56.1818ZM247.606 64.6278C247.454 64.6278 247.378 64.7046 247.378 64.8581V71.0007C247.378 71.231 247.454 71.3078 247.606 71.3078H258.594C258.821 71.3078 258.897 71.231 258.897 71.0007V64.8581C258.897 64.7046 258.821 64.6278 258.594 64.6278H247.606ZM247.378 79.9842C247.378 80.2146 247.454 80.2913 247.606 80.2913H258.594C258.821 80.2913 258.897 80.2146 258.897 79.9842V73.8416C258.897 73.6113 258.821 73.5345 258.594 73.5345H247.606C247.454 73.5345 247.378 73.6113 247.378 73.8416V79.9842Z" fill="#AE8148" stroke="#AE8148" stroke-width="2" stroke-miterlimit="10" stroke-linecap="round" stroke-linejoin="round"/>
<path d="M277.766 57.4873C278.069 57.4873 278.297 57.5641 278.448 57.7944C278.676 58.0248 278.751 58.2551 278.751 58.4855C278.751 58.7926 278.676 59.0229 278.448 59.1765C278.221 59.3301 277.994 59.4836 277.766 59.4836H266.247C265.944 59.4836 265.717 59.4068 265.565 59.1765C265.338 58.9462 265.262 58.7158 265.262 58.4855C265.262 58.1783 265.338 57.948 265.565 57.7944C265.793 57.6409 266.02 57.4873 266.247 57.4873H277.766ZM275.417 72.3062C276.023 72.3062 276.478 72.5366 276.933 72.9205C277.311 73.3044 277.539 73.8419 277.539 74.4561V80.7523C277.539 81.3665 277.311 81.8272 276.933 82.2879C276.554 82.6718 276.023 82.9022 275.417 82.9022H269.203C269.051 82.9022 269.051 82.979 269.051 83.1325V83.67C269.051 83.9771 268.976 84.2075 268.748 84.4378C268.521 84.6682 268.294 84.7449 267.99 84.7449C267.687 84.7449 267.46 84.6682 267.233 84.4378C267.005 84.2075 266.93 83.9771 266.93 83.67V74.4561C266.93 73.8419 267.157 73.3812 267.536 72.9205C267.915 72.5366 268.445 72.3062 269.051 72.3062H275.417ZM276.478 62.4014C276.781 62.4014 277.008 62.4781 277.16 62.7085C277.311 62.9388 277.463 63.1692 277.463 63.3995C277.463 63.6299 277.387 63.937 277.16 64.0906C276.933 64.3209 276.705 64.3977 276.478 64.3977H267.915C267.612 64.3977 267.384 64.3209 267.233 64.0906C267.005 63.937 266.93 63.6299 266.93 63.3995C266.93 63.1692 267.005 62.862 267.233 62.7085C267.384 62.4781 267.687 62.4014 267.915 62.4014H276.478ZM267.915 69.3885C267.612 69.3885 267.384 69.3117 267.233 69.0814C267.005 68.851 266.93 68.6207 266.93 68.3904C266.93 68.16 267.005 67.8529 267.233 67.6993C267.384 67.469 267.687 67.3922 267.915 67.3922H276.478C276.781 67.3922 277.008 67.469 277.16 67.6993C277.311 67.9297 277.463 68.16 277.463 68.3904C277.463 68.6207 277.387 68.9278 277.16 69.0814C276.933 69.3117 276.705 69.3885 276.478 69.3885H267.915ZM276.402 52.65C276.705 52.65 276.933 52.7268 277.084 52.9572C277.236 53.1875 277.387 53.4178 277.387 53.6482C277.387 53.8785 277.311 54.1857 277.084 54.3392C276.857 54.5696 276.629 54.6464 276.402 54.6464H268.066C267.763 54.6464 267.536 54.5696 267.384 54.3392C267.157 54.1857 267.081 53.8785 267.081 53.6482C267.081 53.4178 267.157 53.1107 267.384 52.9572C267.612 52.8036 267.839 52.65 268.066 52.65H276.402ZM275.417 74.6097C275.417 74.4561 275.341 74.3794 275.114 74.3794H269.279C269.127 74.3794 269.051 74.4561 269.051 74.6097V80.6755C269.051 80.8291 269.127 80.9058 269.279 80.9058H275.114C275.265 80.9058 275.417 80.8291 275.417 80.6755V74.6097ZM287.921 66.9315C288.148 66.7011 288.451 66.5476 288.754 66.5476C289.058 66.5476 289.361 66.7011 289.588 66.9315C289.815 67.1618 289.967 67.469 289.967 67.7761V71.7688C289.967 72.2295 290.043 72.7669 290.118 73.3044C290.194 73.8419 290.422 74.6097 290.8 75.4543C291.104 76.2989 291.558 77.1435 292.089 77.9113C292.619 78.6792 293.377 79.5238 294.362 80.3684C295.347 81.213 296.484 81.904 297.772 82.5183C298.075 82.6718 298.227 82.8254 298.303 83.1325C298.303 83.2093 298.303 83.3629 298.303 83.4396C298.303 83.67 298.227 83.8236 298.151 83.9771C297.924 84.2843 297.621 84.5146 297.318 84.5914C297.166 84.5914 297.014 84.5914 296.863 84.5914C296.636 84.5914 296.484 84.5914 296.257 84.5146C295.12 83.9771 294.135 83.2861 293.225 82.5183C292.316 81.7504 291.558 80.9058 290.952 80.138C290.346 79.2934 289.891 78.5256 289.588 77.8346C289.209 77.1435 288.982 76.4525 288.83 75.915C288.83 75.915 288.83 75.915 288.754 75.915C288.679 75.915 288.679 75.915 288.679 75.915C288.451 76.5293 288.224 77.2203 287.845 77.9113C287.466 78.6024 286.936 79.3702 286.329 80.138C285.647 80.9826 284.814 81.7504 283.753 82.595C282.692 83.3629 281.479 84.0539 280.191 84.6682C280.04 84.7449 279.812 84.7449 279.661 84.7449C279.509 84.7449 279.358 84.7449 279.206 84.6682C278.903 84.5146 278.6 84.361 278.372 84.0539C278.221 83.9003 278.221 83.7468 278.221 83.5164C278.221 83.4397 278.221 83.3629 278.221 83.2861C278.297 82.979 278.448 82.8254 278.751 82.6718C280.191 82.0576 281.555 81.3665 282.616 80.5219C283.753 79.6773 284.586 78.8327 285.193 78.0649C285.799 77.2971 286.254 76.4525 286.633 75.5311C287.011 74.6865 287.239 73.9187 287.39 73.3812C287.466 72.7669 287.542 72.3062 287.542 71.7688V67.7761C287.542 67.469 287.693 67.1618 287.921 66.9315ZM281.328 76.5293C281.101 76.7596 280.797 76.9132 280.494 76.9132C280.115 76.9132 279.812 76.8364 279.585 76.6828C279.358 76.5293 279.282 76.2989 279.282 76.0686C279.282 75.7614 279.358 75.5311 279.585 75.3007C280.646 74.2258 281.404 72.6902 281.934 70.6938C282.01 70.3867 282.237 70.1563 282.465 70.0028C282.692 69.8492 282.995 69.7724 283.298 69.8492C283.601 69.926 283.829 70.0796 283.98 70.3867C284.132 70.617 284.208 70.9242 284.132 71.2313C283.45 73.458 282.54 75.224 281.328 76.5293ZM297.545 65.0119C297.772 65.2423 297.924 65.5494 298 65.8565C298 66.2405 297.924 66.4708 297.697 66.7779C297.469 67.0083 297.166 67.1618 296.863 67.1618C296.56 67.1618 296.257 67.0851 295.954 66.8547C294.286 65.3959 291.786 63.6299 288.527 61.5567C288.375 61.48 288.224 61.48 288.148 61.6335C286.86 64.2441 284.586 66.2405 281.252 67.5458C280.949 67.6993 280.646 67.6993 280.343 67.5458C280.04 67.3922 279.736 67.2386 279.585 66.9315C279.433 66.7011 279.358 66.4708 279.433 66.2405C279.509 66.0101 279.661 65.7798 279.888 65.703C281.101 65.2423 282.161 64.7048 283.071 64.0906C283.904 63.4763 284.662 62.7853 285.193 62.0942C285.723 61.4032 286.178 60.4818 286.557 59.4836C286.936 58.4855 287.163 57.4105 287.315 56.4123C287.466 55.3374 287.618 54.1089 287.693 52.65C287.693 52.3429 287.845 52.0358 288.072 51.8054C288.3 51.5751 288.603 51.4983 288.906 51.4983C289.209 51.4983 289.512 51.5751 289.664 51.8054C289.891 52.0358 289.967 52.3429 289.967 52.65C289.815 55.3374 289.512 57.5641 289.058 59.1765C288.982 59.3301 289.058 59.4836 289.209 59.5604C292.695 61.48 295.423 63.3227 297.545 65.0119ZM282.161 54.9535C282.237 54.7231 282.389 54.4928 282.616 54.3392C282.843 54.1857 283.071 54.1089 283.374 54.1857C283.677 54.2624 283.904 54.416 284.056 54.6464C284.208 54.8767 284.283 55.1838 284.208 55.4142C283.753 57.4105 283.071 59.0229 282.01 60.2515C281.783 60.4818 281.555 60.6354 281.252 60.6354C280.949 60.7121 280.646 60.6354 280.343 60.4818C280.115 60.3282 280.04 60.1747 279.964 59.9443C279.964 59.714 279.964 59.4836 280.191 59.2533C281.176 58.1016 281.783 56.7195 282.161 54.9535ZM294.893 54.7999C295.044 54.4928 295.272 54.2624 295.575 54.1857C295.878 54.0321 296.181 54.0321 296.56 54.1857C296.863 54.3392 297.014 54.4928 297.166 54.7999C297.242 55.1071 297.242 55.4142 297.09 55.6445C296.181 57.257 295.347 58.639 294.665 59.714C294.514 59.9443 294.286 60.0979 293.983 60.1747C293.68 60.2515 293.453 60.2515 293.15 60.0979C292.922 60.0211 292.771 59.8675 292.695 59.5604C292.619 59.3301 292.695 59.0997 292.771 58.8694C293.529 57.5641 294.286 56.182 294.893 54.7999ZM294.741 75.8382C294.59 76.0686 294.362 76.2221 294.059 76.2989C293.756 76.3757 293.453 76.3757 293.225 76.2221C292.998 76.1454 292.847 75.915 292.771 75.6847C292.695 75.4543 292.771 75.224 292.847 74.9936C293.756 73.5348 294.59 71.9991 295.272 70.5403C295.423 70.2331 295.65 70.0028 295.954 69.8492C296.257 69.6957 296.636 69.6957 296.939 69.8492C297.242 70.0028 297.469 70.1563 297.545 70.4635C297.697 70.7706 297.621 71.0777 297.469 71.3849C296.408 73.3044 295.499 74.7633 294.741 75.8382Z" fill="#AE8148" stroke="#AE8148" stroke-width="2" stroke-miterlimit="10" stroke-linecap="round" stroke-linejoin="round"/>
</svg>
