<?xml version="1.0" encoding="utf-8"?>
<!-- Generator: Adobe Illustrator 22.1.0, SVG Export Plug-In . SVG Version: 6.00 Build 0)  -->
<svg version="1.1" id="Layer_1" xmlns="http://www.w3.org/2000/svg" xmlns:xlink="http://www.w3.org/1999/xlink" x="0px" y="0px"
	 viewBox="0 0 425.2 361.1" style="enable-background:new 0 0 425.2 361.1;" xml:space="preserve">
<style type="text/css">
	.st0{fill:#FFFFFF;}
</style>
<g>
	<path class="st0" d="M70.1,339.2c0.3,0.1,0.5,0.4,0.6,0.6c0.1,0.3,0.2,0.7,0,1.2c-0.1,0.3-0.1,0.6-0.2,0.8
		c-0.1,0.3-0.1,0.5-0.2,0.8c0.5,0,1,0.1,1.6,0.2c0.5,0.1,1.1,0.1,1.6,0.2c0.6,0.1,1,0.3,1.3,0.7c0.3,0.4,0.2,1-0.1,1.9
		c-0.4,1-0.7,1.9-1.1,2.6c-0.3,0.7-0.7,1.3-1,1.9c-0.3,0.5-0.7,1-1.1,1.4c-0.4,0.4-0.8,0.8-1.2,1.2c-0.4,0.3-0.7,0.5-1,0.4
		s-0.5-0.2-0.6-0.5c-0.1-0.2-0.1-0.5,0-0.7c0.1-0.2,0.3-0.5,0.7-0.8c1-0.7,1.8-1.5,2.4-2.4c0.6-0.9,1.1-2,1.4-3.4
		c0.1-0.6,0.1-1-0.2-1.3c-0.2-0.2-0.6-0.3-1-0.3c-0.4,0-0.7,0.1-1.1,0.1c-0.4,0-0.7,0.1-1.1,0.2c-0.3,0.9-0.5,1.7-0.8,2.4
		c-0.3,0.7-0.6,1.4-1,2c-0.4,0.6-0.8,1.2-1.3,1.8c-0.5,0.6-1.1,1.2-1.7,1.9c-0.4,0.4-0.7,0.6-1,0.7c-0.3,0.1-0.6,0-0.9-0.3
		c-0.2-0.2-0.3-0.5-0.2-0.8c0.1-0.3,0.4-0.7,1-1.2c0.7-0.5,1.3-1,1.8-1.5c0.5-0.4,0.9-0.9,1.3-1.4s0.7-1,1-1.5
		c0.3-0.5,0.6-1.2,0.8-1.9c0.1-0.3,0.2-0.7,0.3-1.1c0.1-0.4,0.2-0.8,0.2-1.2c0.1-0.4,0.1-0.8,0.1-1.1c0-0.3,0-0.6,0-0.7
		c-0.1-0.5-0.1-0.9,0.1-1C69.6,339.1,69.8,339,70.1,339.2 M69.3,333c0.6,0,0.9,0.1,1.1,0.3c0.2,0.2,0.3,0.6,0.3,1.2
		c0,0.6,0,1.1,0,1.5c0,0.4,0.1,0.8,0.1,1.3c0.7,0,1.4,0,2.1,0c0.7,0,1.3,0.1,1.9,0.2c0.4,0,0.6,0.1,0.7,0.3c0.1,0.2,0.1,0.3,0,0.6
		c-0.2,0.3-0.3,0.5-0.5,0.6c-0.2,0.1-0.4,0-0.7,0c-0.6-0.1-1.2-0.2-2-0.3c-0.8,0-1.5,0-2.3,0s-1.5,0.1-2.2,0.2
		c-0.7,0.1-1.2,0.2-1.6,0.4c-0.8,0.3-1.3,0.3-1.6-0.1c-0.2-0.2-0.2-0.5,0-0.8c0.2-0.3,0.6-0.5,1.2-0.6c1.6-0.2,3.1-0.3,4.6-0.4
		c-0.3-0.6-0.5-1.1-0.8-1.5c-0.2-0.4-0.5-0.8-0.7-1.1c-0.4-0.5-0.6-1-0.5-1.3C68.5,333.2,68.8,333,69.3,333 M80.9,334.6
		c-0.2,0.2-0.3,0.5-0.4,0.8c-0.1,0.3-0.3,0.7-0.5,1.2c0.7-0.1,1.4-0.1,2.1-0.1c0.7,0,1.4-0.1,2-0.1c0.6,0,1.1,0,1.6,0
		c0.5,0,0.8,0,1.1,0c0.7,0.1,1.4,0.1,2,0c0.6-0.1,0.6,0.3-0.1,1.1c-0.4,0.4-0.7,0.7-1,0.8c-0.3,0.1-0.7,0-1.1-0.1
		c-0.4-0.1-0.8-0.3-1.3-0.4c-0.5-0.1-1.1-0.2-1.8-0.2c-0.6,0-1.3,0-2,0c-0.7,0.1-1.4,0.2-2.1,0.4c-0.3,0.6-0.8,1.2-1.2,1.9
		c-0.5,0.6-1,1.2-1.4,1.7c-0.2,0.3-0.4,0.4-0.5,0.4c-0.1,0-0.2,0-0.3-0.1c-0.1-0.1-0.1-0.3,0-0.5s0.2-0.5,0.4-0.7
		c0.4-0.6,0.8-1.1,1.1-1.6c0.3-0.5,0.6-0.9,0.8-1.3c0.2-0.4,0.3-0.7,0.5-1.1s0.2-0.7,0.3-1c0.1-0.5,0.2-0.8,0.2-1.1
		c0-0.3,0-0.6-0.1-0.9c-0.1-0.3-0.1-0.5,0.1-0.7c0.1-0.2,0.5-0.1,0.9,0c0.7,0.3,1.1,0.6,1.3,0.8C81.2,334,81.2,334.3,80.9,334.6
		 M82.8,350.7c-0.7,0.3-1.4,0.5-2.2,0.8c-0.8,0.3-1.5,0.5-2.1,0.8c-0.4,0.2-0.7,0.3-0.9,0.3c-0.2,0-0.5-0.1-0.7-0.3
		c-0.3-0.2-0.4-0.5-0.3-0.8c0-0.3,0.2-0.5,0.5-0.6c0.3-0.1,0.4-0.3,0.5-0.5c0.1-0.3,0.1-0.6,0.1-1.1c0-0.3,0-0.7,0-1.2
		c0-0.5,0-1,0-1.5c0-0.5,0-1-0.1-1.4c0-0.4,0-0.8-0.1-1c0-0.5-0.1-0.8-0.1-1.1c0-0.3,0-0.5,0.1-0.7c0.1-0.2,0.1-0.3,0.2-0.3
		c0.1-0.1,0.3-0.1,0.4-0.2c0.6-0.1,1.1-0.2,1.7-0.4c0.6-0.1,1.2-0.3,1.7-0.5c0.5-0.2,1-0.3,1.4-0.5c0.4-0.2,0.6-0.4,0.8-0.5
		c0.3-0.4,0.6-0.7,0.8-0.7c0.2,0,0.5,0.1,0.7,0.4c0.4,0.5,0.6,0.9,0.5,1.3c-0.1,0.3-0.3,0.5-0.8,0.7c-1,0.2-2,0.4-2.8,0.6
		c-0.8,0.2-1.5,0.3-2,0.4c-0.3,0.1-0.6,0.2-0.7,0.4c-0.1,0.2-0.2,0.4-0.3,0.8c0,0.3-0.1,0.6-0.1,1.1c0,0.5-0.1,1-0.1,1.5
		c0,0.5-0.1,1-0.1,1.5c0,0.5,0,0.9,0,1.2c0,0.3,0,0.5,0.1,0.6c0.1,0.2,0.2,0.3,0.3,0.3c0.2,0.1,0.4,0.1,0.8,0c0.3,0,0.8-0.1,1.4-0.2
		c0.3,0,0.5-0.1,0.7-0.1c0.2,0,0.4-0.1,0.5-0.1c0.4,0,0.6,0.1,0.6,0.3C83.4,350.3,83.2,350.5,82.8,350.7 M90.8,351.6
		c0.4,0.1,0.6,0.3,0.6,0.4c0,0.1-0.4,0.3-1,0.6c-0.7,0.3-1.3,0.5-1.8,0.5c-0.5,0-1-0.2-1.3-0.6c-0.8-0.9-1.5-1.6-2-2.2
		c-0.5-0.5-0.9-1-1.2-1.3c-0.3-0.3-0.6-0.6-0.8-0.8c-0.2-0.2-0.5-0.4-0.8-0.6c-0.3-0.2-0.6-0.4-0.8-0.4c-0.2-0.1-0.4-0.1-0.7-0.1
		c-0.3,0-0.4-0.1-0.4-0.4c0-0.2,0.2-0.4,0.5-0.6c0.4-0.2,0.8-0.3,1.1-0.5c0.3-0.1,0.6-0.3,0.9-0.5c0.3-0.2,0.5-0.4,0.8-0.6
		c0.2-0.2,0.5-0.5,0.8-0.8c0.3-0.3,0.5-0.4,0.8-0.4c0.2,0,0.4,0.1,0.5,0.4c0.2,0.4,0.3,0.7,0.3,1c0,0.3-0.2,0.5-0.6,0.6
		c-0.3,0.1-0.6,0.2-1,0.3c-0.4,0.1-0.7,0.3-1,0.4c-0.3,0.1-0.5,0.3-0.5,0.4c0,0.1,0.1,0.4,0.5,0.6c1,0.8,1.9,1.4,2.7,1.9
		c0.8,0.5,1.5,1,2,1.3c0.6,0.3,1.1,0.6,1.5,0.8C90.2,351.3,90.5,351.5,90.8,351.6"/>
	<path class="st0" d="M102.8,332.5c0.1,0.1,0.2,0.3,0.3,0.5c0,0.2-0.1,0.5-0.3,0.8c0,0-0.1,0.1-0.1,0.1c0,0,0,0.1-0.1,0.1
		c0.8,0.4,1.5,0.8,2.2,1.2c0.7,0.3,1.2,0.7,1.5,1c0.4,0.4,0.7,0.7,0.8,0.9c0.1,0.2,0.1,0.5,0,0.9c-0.2,0.3-0.4,0.4-0.7,0.4
		c-0.3,0-0.6-0.2-1-0.6c-0.4-0.6-0.9-1-1.5-1.5c-0.5-0.4-1.2-0.9-1.9-1.4c-0.3,0.4-0.6,0.8-1,1.2c-0.3,0.4-0.7,0.9-1.1,1.3
		c-0.4,0.4-0.8,0.8-1.2,1.2c-0.4,0.4-0.8,0.7-1.2,1c-0.5,0.4-0.9,0.5-1.2,0.4c-0.3-0.1-0.5-0.2-0.5-0.5c0-0.4,0-0.6,0.1-0.8
		c0.1-0.2,0.4-0.4,0.9-0.8c0.5-0.3,1-0.7,1.5-1.1c0.5-0.4,0.9-0.8,1.4-1.2c0.4-0.4,0.8-0.9,1.2-1.3c0.4-0.4,0.6-0.9,0.8-1.3
		c0.1-0.3,0.3-0.5,0.5-0.6C102.5,332.3,102.7,332.4,102.8,332.5 M106.2,348.8c-0.1,0.4-0.2,0.8-0.2,1.2c0,0.3-0.1,0.8-0.1,1.3
		c0,0.8-0.2,1.4-0.5,1.7c-0.3,0.3-0.8,0.5-1.5,0.4c-0.9-0.1-1.6-0.1-2.3-0.1c-0.6,0-1.3,0.2-1.9,0.4c-0.4,0.1-0.6,0.2-0.9,0.1
		c-0.2-0.1-0.3-0.5-0.4-1.1c0-0.7-0.1-1.4-0.1-2.1c0-0.7-0.1-1.3-0.2-1.6c-0.2-0.7-0.1-1.2,0.1-1.4c0.2-0.3,0.6-0.3,1.1-0.2
		c0.6,0.1,1.2,0.2,2,0.2c0-0.5,0-1,0-1.6c0-0.5,0-1,0-1.5c-0.6,0-1.1,0.1-1.6,0.1c-0.5,0.1-1,0.1-1.3,0.2c-0.7,0.1-1.1,0.1-1.3,0
		c-0.2-0.1-0.2-0.4,0-0.8c0.2-0.4,0.4-0.6,0.7-0.7c0.3-0.1,0.8-0.1,1.3-0.1c0.2,0,0.5,0,0.9,0c0.4,0,0.8,0,1.2,0c0-0.5,0-1,0-1.4
		c0-0.4,0-0.9,0-1.3c-0.3,0-0.6,0-0.9,0.1c-0.3,0-0.5,0.1-0.8,0.1c-0.6,0.1-1.1,0.1-1.3,0c-0.2-0.1-0.3-0.3-0.2-0.6
		c0.1-0.4,0.3-0.6,0.6-0.8c0.3-0.1,0.7-0.2,1.3-0.2c0.3,0,0.6,0,0.9,0c0.3,0,0.6,0,1,0c0.4,0,0.8,0,1.2,0c0.4,0,1,0,1.5,0
		c0.5,0,0.8,0,0.9,0.1c0.1,0.1,0.2,0.3,0.1,0.5c0,0.2-0.1,0.4-0.3,0.5c-0.2,0.1-0.5,0.1-0.9,0.1c-0.3,0-0.6,0-0.9,0h-0.9
		c0,0.4,0,0.9-0.1,1.4c0,0.5,0,0.9-0.1,1.4c0.4,0,0.9,0,1.2,0c0.4,0,0.7,0,0.9-0.1c1.1-0.1,1.6,0.1,1.5,0.6
		c-0.1,0.3-0.2,0.5-0.5,0.6c-0.2,0.1-0.6,0.1-1.3,0c-0.3,0-0.6-0.1-0.9-0.1c-0.3,0-0.7,0-1.1,0l-0.1,1.5c0,0.5,0,1,0,1.5
		c0.2,0,0.4,0,0.6,0c0.2,0,0.4,0,0.7-0.1c1-0.1,1.6,0,1.9,0.4C106.2,347.9,106.3,348.3,106.2,348.8 M104.6,350.4
		c0.1-0.8,0-1.4-0.1-1.6c-0.1-0.3-0.4-0.4-0.9-0.4c-0.5,0-1-0.1-1.4,0c-0.4,0-0.8,0-1.1,0.1c-0.5,0.1-0.8,0.3-1,0.6
		c-0.2,0.3-0.3,0.7-0.3,1.3c0,0.7,0.1,1.2,0.2,1.5c0.1,0.2,0.5,0.4,1,0.4c0.9,0,1.8,0,2.5-0.1c0.4,0,0.7-0.2,0.8-0.4
		C104.5,351.5,104.6,351.1,104.6,350.4 M121.9,340.2c0,0.3,0,0.6-0.1,0.8c-0.1,0.2-0.2,0.3-0.4,0.4c-0.2,0-0.3,0-0.4-0.2
		c-0.1-0.1-0.2-0.4-0.4-0.7c0-0.2-0.1-0.5-0.1-1c-0.1-0.4-0.1-0.9-0.1-1.2c-0.1-0.4-0.4-0.6-0.9-0.7c-0.1,0-0.3,0-0.6,0
		c-0.3,0-0.7,0-1.3,0c-0.6,0-1.4,0-2.5,0c-1,0-2.4,0-4.1,0.1c-0.4,0-0.7,0.1-0.8,0.3c-0.2,0.2-0.3,0.4-0.3,0.7
		c-0.1,0.7-0.2,1.3-0.2,1.7c-0.1,0.4-0.1,0.7-0.2,0.9c-0.1,0.2-0.2,0.3-0.2,0.4c-0.1,0-0.2,0.1-0.3,0.1c-0.2,0-0.4-0.1-0.5-0.2
		c-0.1-0.2-0.1-0.4-0.1-0.9c0-0.1,0-0.4,0-0.6c0-0.3,0-0.6,0-0.9c0-0.3,0-0.6,0-0.9c0-0.3,0-0.5,0.1-0.7c0-0.3,0.1-0.6,0.4-0.8
		c0.2-0.2,0.6-0.2,1.1-0.3c2.5-0.1,4.8-0.1,6.7-0.1c1.9,0,3.2,0,4,0.1c0.5,0,0.9,0.1,1.1,0.3c0.2,0.2,0.3,0.4,0.4,0.8
		c0,0.5,0.1,1,0.1,1.5C121.9,339.5,121.9,339.9,121.9,340.2 M120,348.4c0,0.1,0,0.4,0,0.7c0,0.3,0,0.7,0,1c0,0.4,0,0.7-0.1,1.1
		c0,0.4,0,0.7-0.1,0.9c-0.1,0.4-0.2,0.6-0.3,0.8c-0.2,0.1-0.4,0.2-0.8,0.3c-0.1,0-0.3,0-0.5,0c-0.3,0-0.6,0-1.1,0c-0.5,0-1,0-1.8,0
		c-0.7,0-1.6,0-2.6,0c-0.3,0-0.6,0.1-0.8,0.2c-0.2,0.1-0.3,0.4-0.6,0.8c-0.2,0.3-0.4,0.4-0.7,0.3c-0.2-0.1-0.4-0.4-0.5-0.8
		c0-0.1,0-0.3,0-0.4c0-0.2,0-0.5,0-1c0-0.4,0-1.1,0-1.9c0-0.8,0-1.9,0-3.2v-5.7c0-0.6,0.1-0.9,0.3-1.1c0.2-0.1,0.5-0.1,1,0
		c0.1,0,0.3,0.1,0.5,0.1c0.2,0,0.5,0,0.9,0c0.4,0,0.9,0,1.6,0c0.7,0,1.6,0,2.7-0.1c0.4,0,0.7,0,1-0.1c0.3-0.1,0.6,0,0.8,0.3
		c0.2,0.3,0.3,0.6,0.2,1.1c0,0.1,0,0.3,0,0.6c0,0.3-0.1,0.6-0.1,0.9c0,0.3-0.1,0.6-0.1,0.9c0,0.3-0.1,0.4-0.1,0.5
		c0,0.3-0.1,0.5-0.3,0.7c-0.2,0.1-0.4,0.2-0.8,0.2c-0.1,0-0.3,0-0.6,0c-0.3,0-0.6,0-1,0c-0.4,0-0.8,0-1.3,0c-0.5,0-0.9,0-1.3,0
		c-0.4,0-0.7,0-1,0c-0.3,0-0.5,0-0.6,0c-0.1,0-0.2,0.1-0.2,0.1c0,0.1-0.1,0.2-0.1,0.3c0,0.3,0,0.5,0,0.7c0,0.2,0,0.4,0,0.5
		c0,0.2,0,0.3,0.1,0.4c0.1,0.1,0.2,0.1,0.3,0.1c0.1,0,0.4,0,0.9,0c0.5,0,1,0,1.5,0c0.5,0,1,0,1.5,0c0.5,0,0.8,0,0.9,0
		c0.3,0,0.7,0,1.2,0c0.4,0,0.7-0.1,0.8-0.2c0.3-0.2,0.6-0.2,0.9,0C119.9,347.6,120,347.9,120,348.4 M118.4,351.2
		c0-0.2,0.1-0.5,0-0.8c0-0.3,0-0.6,0-0.9c0-0.3,0-0.4-0.1-0.5c-0.1-0.1-0.2-0.1-0.4-0.1h-0.6h-1h-1.2h-1.1c-0.2,0-0.5,0-0.8,0
		c-0.3,0-0.7,0-1,0.1c-0.2,0-0.3,0.1-0.4,0.2c0,0.1,0,0.3,0,0.5c0,0.2,0,0.5,0,0.8c0,0.3,0,0.6,0,0.9c0,0.3,0,0.5,0.1,0.6
		c0.1,0.1,0.3,0.1,0.5,0.1c1.2,0,2.1,0,2.9,0c0.8,0,1.5,0,2.3,0c0.3,0,0.5-0.1,0.7-0.2C118.2,351.8,118.3,351.5,118.4,351.2
		 M117.7,342.3c0-0.2,0-0.4-0.1-0.5c-0.1-0.1-0.3-0.1-0.6-0.2c-0.2,0-0.5,0-0.9,0c-0.4,0-0.9,0-1.4,0c-0.5,0-1,0-1.4,0
		c-0.5,0-0.8,0-1.1,0c-0.2,0-0.3,0-0.3,0.1c-0.1,0-0.1,0.2-0.1,0.4c0,0.2,0,0.5,0,0.8c0,0.3,0,0.6,0,0.8c0,0.3,0,0.4,0.1,0.5
		c0.1,0.1,0.3,0.1,0.7,0c0.2,0,0.7,0,1.4,0c0.7,0,1.7,0,2.9-0.1c0.3,0,0.4,0,0.5-0.1c0.1-0.1,0.2-0.2,0.2-0.5c0-0.2,0-0.4,0.1-0.6
		C117.7,342.8,117.7,342.5,117.7,342.3 M115.8,335.6c0.1,0.4,0,0.6-0.1,0.6c-0.2,0.1-0.4,0-0.5-0.2c-0.2-0.2-0.5-0.5-0.9-0.8
		c-0.4-0.3-0.6-0.6-0.8-0.7c-0.4-0.3-0.6-0.7-0.6-1c0-0.3,0.2-0.6,0.6-0.8c0.3-0.2,0.7-0.2,1-0.1c0.3,0.1,0.6,0.3,0.7,0.6
		c0.1,0.1,0.1,0.3,0.2,0.5c0.1,0.2,0.1,0.4,0.2,0.7c0.1,0.2,0.1,0.4,0.2,0.6C115.7,335.3,115.7,335.4,115.8,335.6"/>
	<path class="st0" d="M148.4,349.3c0.1,2.8,0,4.9,0,6.2c-0.1,1.3-0.2,2.2-0.4,2.6c-0.4,0.8-0.8,1.1-1.1,0.8s-0.6-1.2-0.6-2.7
		c0-1.9,0-3.9,0-6s0-4.2,0-6.3c-0.4,0.7-0.7,1.4-1.1,1.9c-0.4,0.5-0.7,1-1.1,1.5c-0.4,0.4-0.8,0.9-1.3,1.3c-0.5,0.4-1,0.8-1.5,1.2
		c-0.6,0.4-1.1,0.6-1.6,0.6c-0.5-0.1-0.8-0.3-0.8-0.8c-0.1-0.3,0-0.6,0.1-0.9c0.1-0.3,0.5-0.5,1-0.9c0.8-0.5,1.5-0.9,2.1-1.4
		c0.6-0.5,1.1-1,1.6-1.6c0.5-0.6,0.9-1.3,1.4-2.1c0.4-0.8,0.8-1.8,1.2-3v-2.3c-0.8,0-1.6,0.1-2.4,0.1c-0.8,0.1-1.5,0.1-2.2,0.2
		c-0.8,0.1-1.4,0.1-1.7,0c-0.3-0.1-0.4-0.3-0.5-0.5c0-0.2,0.1-0.4,0.2-0.6c0.2-0.2,0.5-0.4,0.8-0.5c0.4-0.2,0.8-0.3,1.3-0.3
		c0.5-0.1,1-0.1,1.6-0.1c0.6,0.1,1.1,0.1,1.5,0.1h1.3c0-0.8,0-1.5,0-2.1c0-0.6,0-1.1-0.1-1.5c-0.1-1,0.1-1.9,0.3-2.5
		c0.3-0.7,0.7-0.9,1.1-0.5c0.4,0.4,0.6,0.9,0.7,1.4c0.1,0.6,0.1,1.4,0,2.3c0,0.2,0,0.6-0.1,1.1c0,0.5,0,1.1,0,1.8c0.9,0,1.7,0,2.4,0
		c0.7,0,1.1,0.1,1.3,0.1c0.3,0.1,0.6,0.3,0.7,0.4s0.1,0.3,0,0.5c-0.1,0.2-0.3,0.3-0.6,0.4c-0.3,0.1-0.8,0.1-1.4,0.1h-2.4v3.1
		c0,1.1,0,2.2,0,3.3c0,1.1,0,2.1,0,3C148.3,347.8,148.4,348.6,148.4,349.3 M152.4,346.1c-0.1,0.3-0.3,0.6-0.5,0.7
		c-0.2,0.1-0.4,0.1-0.6,0.1c-0.2,0-0.4-0.2-0.6-0.3c-0.2-0.2-0.3-0.4-0.4-0.6c-0.2-0.5-0.4-1-0.6-1.4c-0.2-0.5-0.4-0.9-0.6-1.4
		c-0.2-0.5-0.3-0.8-0.2-0.9c0.1-0.1,0.4-0.1,0.8,0.1c1.1,0.6,1.9,1.2,2.4,1.9C152.5,344.8,152.6,345.5,152.4,346.1 M175.9,341.1
		c0.4,0.1,0.6,0.2,0.6,0.5c0,0.3-0.2,0.6-0.8,1c-0.6,0.5-1.2,0.8-1.8,0.8c-0.5,0-1.3-0.2-2.1-0.6c-0.8-0.4-1.5-0.7-2.2-0.9
		c-0.7-0.2-1.3-0.4-2-0.5c-0.7-0.1-1.4-0.2-2.1-0.2c-0.7,0-1.5,0-2.4,0c-2.2,0.1-4,0.3-5.3,0.6c-1.4,0.3-2.5,0.8-3.3,1.3
		c-0.6,0.4-1.1,0.5-1.5,0.4c-0.4-0.1-0.6-0.4-0.7-0.8c-0.1-0.4-0.1-0.8,0.2-1.1c0.2-0.3,0.6-0.5,1.2-0.6c0.6-0.1,1.2-0.2,1.7-0.3
		c0.5-0.1,1.2-0.2,2-0.4c1.1-0.2,2.3-0.3,3.5-0.4c1.2-0.1,2.5-0.1,3.7-0.1s2.3,0,3.4,0.1c1.1,0.1,1.9,0.2,2.6,0.4
		c1.3,0.3,2.3,0.5,3.2,0.6C174.6,340.9,175.3,341,175.9,341.1 M161.1,353.9c-0.1,0.3-0.2,0.7-0.5,1.1c-0.2,0.4-0.5,0.8-0.8,1.3
		c-0.3,0.4-0.7,0.8-1.1,1.2c-0.4,0.4-0.8,0.6-1.2,0.8c-0.9,0.4-1.5,0.6-1.8,0.6c-0.3,0-0.6-0.2-0.9-0.5c-0.2-0.2-0.2-0.5-0.1-0.8
		c0.1-0.3,0.4-0.6,1-0.9c0.7-0.4,1.3-0.7,1.8-1c0.5-0.3,0.8-0.5,1.1-0.7c0.3-0.2,0.6-0.4,0.8-0.6c0.2-0.2,0.4-0.4,0.7-0.6
		C160.9,352.9,161.3,352.9,161.1,353.9 M168.6,331.9c-0.1,0.3-0.2,0.6-0.3,1c0.3,0,0.5,0,0.7,0c0.2,0,0.4,0,0.5,0
		c0.3,0,0.6,0,0.9,0.1c0.3,0.1,0.5,0.2,0.7,0.5c0.3,0.4,0.4,0.7,0.2,1s-0.8,0.3-1.7,0.1c-0.2-0.1-0.4-0.1-0.7-0.1
		c-0.3,0-0.5,0-0.9-0.1c-0.1,0.4-0.1,0.8-0.3,1.3c-0.1,0.4-0.2,0.9-0.3,1.2c-0.2,0.7-0.4,1.1-0.6,1.3c-0.2,0.2-0.7,0.2-1.6,0.1
		c-0.5-0.1-1.2-0.1-1.9,0c-0.7,0-1.5,0.1-2.4,0.2c-0.5,0.1-0.9,0-1-0.2c-0.2-0.2-0.3-0.6-0.3-1.2c-0.1-0.4-0.1-0.9-0.2-1.3
		c0-0.4-0.1-0.8-0.2-1.3c-0.4,0-0.8,0.1-1.2,0.1c-0.4,0-0.7,0.1-0.9,0.1c-1.2,0.2-1.9,0.2-2.1-0.1c-0.2-0.3-0.1-0.6,0.4-1
		c0.6-0.4,1.3-0.6,2.3-0.5c0.1,0,0.3,0,0.5,0h0.8c-0.1-0.3-0.1-0.7-0.2-0.9c0-0.3-0.1-0.5-0.2-0.7c-0.1-0.5,0-0.9,0.2-1.2
		c0.3-0.3,0.6-0.4,1-0.2c0.4,0.2,0.7,0.5,0.8,0.8c0.1,0.3,0.2,0.8,0.2,1.6v0.6c0.8,0,1.7,0,2.7,0c1,0,1.9-0.1,2.8-0.1
		c0-0.4,0-0.8,0.1-1.2c0-0.4,0-0.8,0.1-1.1c0-1.1,0.4-1.5,1.1-1.1c0.4,0.2,0.7,0.6,0.9,1.1C168.8,331,168.7,331.5,168.6,331.9
		 M172.2,346.9c-0.1,0.2-0.3,0.3-0.3,0.5c-0.1,0.2-0.2,0.4-0.3,0.7c-0.1,0.3-0.2,0.6-0.3,1.1c-0.1,0.4-0.3,1-0.5,1.8
		c-0.1,0.5-0.2,0.8-0.4,1.1c-0.1,0.3-0.3,0.4-0.5,0.6c-0.2,0.1-0.5,0.2-0.8,0.2c-0.3,0-0.7,0-1.2-0.1c-2.1-0.2-3.8-0.3-5.2-0.2
		c-1.4,0.1-2.4,0.3-3,0.6c-0.3,0.2-0.7,0.3-1.1,0.3c-0.4,0-0.7,0-1-0.2c-0.3-0.2-0.5-0.4-0.8-0.8c-0.2-0.4-0.4-1-0.5-1.6
		c-0.1-1.1-0.3-2-0.4-2.8c-0.1-0.7-0.2-1.5-0.4-2.2c-0.1-0.7-0.1-1.1,0.1-1.4c0.2-0.2,0.8-0.4,1.7-0.5c1.3-0.1,2.6-0.2,4-0.3
		c1.4-0.1,2.6-0.1,3.8-0.1c1.2,0,2.3,0.1,3.2,0.1c0.9,0.1,1.6,0.1,2,0.2c0.6,0.1,1.1,0.3,1.3,0.6c0.3,0.3,0.5,0.5,0.6,0.8
		c0.1,0.3,0.1,0.6,0,0.9C172.5,346.5,172.4,346.7,172.2,346.9 M163,347.3v-1.2c0-0.4,0-0.8,0-1.3c-1.3,0-2.6,0.1-4,0.3
		c-0.6,0.1-1,0.2-1.1,0.3c-0.1,0.1-0.2,0.5-0.1,1c0,0.3,0.1,0.5,0.1,0.8c0,0.2,0.1,0.4,0.1,0.6c0.9-0.1,1.8-0.2,2.6-0.3
		C161.3,347.3,162.1,347.3,163,347.3 M162.8,351.5l0.1-3c-0.8,0.1-1.7,0.1-2.5,0.2c-0.8,0.1-1.6,0.2-2.4,0.2c0,0.2,0,0.4,0,0.6
		c0,0.2,0,0.5,0.1,0.7c0.1,0.7,0.2,1.1,0.4,1.3c0.2,0.2,0.5,0.3,1.1,0.2c0.3,0,0.7-0.1,1.3-0.1C161.5,351.6,162.1,351.6,162.8,351.5
		 M166.3,334.3c-0.8,0-1.7,0-2.6,0s-1.8,0.1-2.6,0.1c0,0.2,0,0.5,0.1,0.8c0,0.3,0,0.5,0.1,0.8c0.1,0.5,0.2,0.8,0.3,0.9
		c0.1,0.1,0.5,0.1,1,0.1c0.5-0.1,1-0.1,1.4-0.1c0.4,0,0.8,0,1.2,0c0.4,0,0.7-0.1,0.8-0.2c0.1-0.1,0.2-0.4,0.3-0.9
		c0-0.2,0.1-0.5,0.1-0.7C166.3,334.8,166.3,334.5,166.3,334.3 M170.2,346.5c0.3-0.9-0.2-1.4-1.3-1.6c-0.5-0.1-1.1-0.1-1.8-0.2
		c-0.8,0-1.6,0-2.5,0v2.5c1.6,0,3.4,0,5.5,0.1c0-0.1,0-0.3,0.1-0.4C170.1,346.8,170.1,346.6,170.2,346.5 M164.5,348.5
		c0,0.4,0,0.9,0,1.4c0,0.5,0,1,0,1.5c0.8,0,1.5,0,2.2-0.1c0.7,0,1.2,0,1.5,0c0.4,0,0.7,0,0.8-0.1c0.1-0.1,0.2-0.4,0.3-0.8
		c0.1-0.2,0.1-0.5,0.2-0.8c0-0.3,0.1-0.7,0.2-1c-0.9-0.1-1.8-0.1-2.7-0.1C166.2,348.4,165.3,348.4,164.5,348.5 M172.1,356.2
		c0.3,0.1,0.5,0.4,0.6,0.6c0.1,0.3,0.1,0.6,0.1,0.9c-0.1,0.3-0.2,0.5-0.5,0.7c-0.3,0.2-0.6,0.3-1.1,0.2c-0.3,0-0.6-0.1-0.8-0.3
		c-0.2-0.2-0.6-0.5-1-1c-0.5-0.6-1-1.1-1.4-1.7c-0.4-0.6-0.7-1-1-1.4c-0.2-0.3-0.3-0.6-0.2-0.7c0.1-0.1,0.3-0.1,0.7,0.1
		c0.6,0.3,1.1,0.6,1.5,0.9c0.4,0.2,0.8,0.5,1.1,0.6c0.3,0.2,0.7,0.4,1,0.5C171.4,355.8,171.7,356,172.1,356.2"/>
	<path class="st0" d="M189.1,343.3c0.4,0.5,0.6,0.8,0.4,1c-0.2,0.2-0.5,0.2-1.1,0c-0.8-0.2-1.5-0.4-2.1-0.6
		c-0.6-0.2-1.1-0.3-1.6-0.4c-1-0.2-1.5-0.5-1.5-0.9c-0.1-0.4,0.2-0.8,0.9-1.2c0.4-0.2,0.7-0.4,0.9-0.5c0.3-0.1,0.5-0.1,0.7-0.1
		c0.2,0,0.4,0.1,0.6,0.2c0.2,0.1,0.5,0.4,0.8,0.6C188,342.2,188.7,342.8,189.1,343.3 M191.7,352.1c-0.6,0.9-1.2,1.8-1.8,2.5
		c-0.6,0.8-1.4,1.6-2.2,2.5c-0.7,0.7-1.2,1-1.7,1c-0.5,0-0.9-0.3-1.3-1c-0.4-0.6-0.6-1.1-0.5-1.4c0.1-0.3,0.5-0.6,1.2-1
		c0.7-0.4,1.6-0.8,2.5-1.4c0.9-0.6,2-1.3,3-2.2c0.2-0.2,0.4-0.3,0.6-0.4c0.2-0.1,0.4-0.1,0.5,0c0.1,0.1,0.1,0.2,0.1,0.4
		C192.1,351.4,192,351.7,191.7,352.1 M192.3,333.9c0.2,0.2,0.3,0.3,0.4,0.5c0.1,0.2,0.1,0.3,0,0.4c-0.1,0.1-0.2,0.2-0.4,0.2
		c-0.2,0-0.5-0.1-0.9-0.2c-0.3-0.1-0.6-0.2-0.9-0.3c-0.3-0.1-0.7-0.2-1-0.3c-0.3-0.1-0.7-0.2-1-0.3c-0.3-0.1-0.5-0.2-0.7-0.2
		c-0.9-0.3-1.4-0.7-1.4-1.1c0-0.4,0.3-0.8,0.9-1.1c0.7-0.3,1.3-0.5,1.6-0.5c0.4,0,0.8,0.3,1.3,0.8c0.5,0.6,0.9,1,1.3,1.4
		C191.8,333.4,192.1,333.7,192.3,333.9 M200.2,333c0.6,0,1.3-0.1,2.1-0.3c0.8-0.2,1.6-0.4,2.4-0.6c0.8-0.2,1.5-0.5,2.2-0.8
		c0.7-0.3,1.3-0.5,1.7-0.8c0.5-0.3,0.9-0.4,1.1-0.4c0.2,0,0.6,0.4,0.9,1c0.5,0.8,0.6,1.4,0.4,1.8c-0.2,0.4-0.8,0.6-1.8,0.6
		c-1.4,0-2.5,0.1-3.6,0.2c-1,0.1-2,0.2-2.9,0.3c-0.6,0.1-1,0.3-1.2,0.6c-0.2,0.3-0.3,0.9-0.3,1.8c0,0.4,0,0.8,0,1.3v1.3
		c3-0.1,5.5-0.1,7.5-0.1c2,0,3.6,0,4.6,0c0.6,0,1.1,0.1,1.3,0.2c0.2,0.2,0.4,0.4,0.5,0.6c0.1,0.5,0,0.8-0.3,1
		c-0.2,0.2-0.8,0.2-1.7,0.2c-0.5,0-1-0.1-1.5-0.1c-0.5,0-1.1,0-1.7,0c-0.1,0.6-0.1,1.4-0.1,2.4c0,1,0,2.4,0,4.1
		c1.1,0,2.3,0.1,3.6,0.1c1.3,0,2.8,0,4.5,0.1c1,0,1.5,0.1,1.7,0.3c0.1,0.2,0,0.6-0.4,1.3c-0.3,0.6-0.8,1-1.3,1.1
		c-0.5,0.2-1.3,0.1-2.4-0.3c-1.3-0.4-2.8-0.7-4.7-0.8c-1.9-0.1-4-0.1-6.3,0c-1.6,0.1-3.2,0.2-4.7,0.4c-1.5,0.2-2.9,0.4-4.2,0.6
		c-1.4,0.2-2.3,0.2-2.7,0s-0.7-0.5-0.6-1c0-0.3,0.2-0.6,0.6-0.9c0.4-0.2,0.9-0.4,1.5-0.3h1c0.5,0,1,0,1.3,0c0.3,0,0.7,0,1-0.1
		c0.3,0,0.7,0,1-0.1c0.1-1.2,0.2-2.4,0.2-3.6c0-1.2,0.1-2.3,0-3.3c0-1-0.1-2-0.2-2.8c-0.1-0.8-0.2-1.5-0.4-2
		c-0.3-1.1-0.2-1.8,0.1-2.2C198.8,333.3,199.4,333,200.2,333 M202.6,353c-0.8,1.2-1.5,2.2-2.3,2.9c-0.8,0.8-1.8,1.4-3,2
		c-1.6,0.8-2.4,0.5-2.7-0.7c-0.1-0.5,0-0.9,0.1-1.2c0.2-0.3,0.6-0.6,1.3-0.9c1.5-0.6,2.6-1.1,3.4-1.6c0.8-0.5,1.4-1,1.9-1.4
		c0.7-0.6,1.2-0.8,1.5-0.5C203.1,351.8,203.1,352.3,202.6,353 M207.8,340.7c-0.9,0-1.9,0.1-3,0.1s-2.2,0.1-3.5,0.2c0,1,0,2,0,3.1
		c0,1.1,0,2.2,0,3.4c1-0.1,2-0.1,3-0.1c1.1,0,2.2-0.1,3.4-0.1c0.1-0.9,0.1-2,0.2-3.1C207.9,343,207.9,341.8,207.8,340.7
		 M214.7,357.8c-0.4,0.3-0.8,0.5-1.2,0.5c-0.4,0-0.7-0.3-1-0.8c-0.5-0.9-1.1-1.7-1.8-2.5c-0.6-0.8-1.1-1.3-1.5-1.6
		c-0.6-0.5-0.8-1-0.7-1.3c0.1-0.3,0.4-0.4,1-0.1c0.4,0.2,0.9,0.5,1.4,0.8c0.5,0.3,1,0.6,1.4,0.9c0.5,0.3,0.9,0.6,1.3,0.9
		c0.4,0.3,0.8,0.6,1.1,0.8c0.4,0.4,0.7,0.8,0.7,1.1C215.4,357,215.2,357.4,214.7,357.8"/>
	<path class="st0" d="M233.5,351.8c0.4,0.4,0.6,0.9,0.6,1.4c-0.1,0.6-0.3,1-0.6,1.3c-0.2,0.1-0.4,0.4-0.8,0.7
		c-0.4,0.4-0.8,0.8-1.2,1.2c-0.5,0.4-0.9,0.9-1.4,1.4c-0.5,0.5-0.9,1-1.2,1.4c-0.3,0.4-0.6,0.5-1,0.5s-0.3-0.3,0-0.8
		c0.7-1.2,1.4-2.4,2-3.6c0.6-1.2,1.1-2.2,1.5-3.1c0.2-0.5,0.5-0.8,0.9-0.8C232.7,351.3,233.1,351.4,233.5,351.8 M265.4,349.5
		c-0.4,0.6-0.7,1.7-0.9,3.2c-0.1,1-0.3,1.9-0.5,2.7c-0.2,0.8-0.4,1.4-0.7,2c-0.3,0.6-0.6,1.2-1,1.7c-0.4,0.5-0.8,1-1.4,1.5
		c-0.3,0.3-0.5,0.4-0.7,0.5s-0.4,0-0.6,0c-0.1-0.1-0.2-0.2-0.2-0.5c0-0.2,0.1-0.5,0.3-0.8c0.2-0.3,0.5-0.7,0.7-1.2
		c0.2-0.5,0.5-1.1,0.7-1.8c0.2-0.6,0.4-1.3,0.5-2c0.1-0.7,0.2-1.3,0.3-1.9c0.1-1.3-0.2-2.4-0.8-3.2c-0.6-0.8-1.7-1.4-3.5-1.7
		c-1.4-0.2-3.6-0.3-6.5-0.1c-2.9,0.1-6.5,0.5-10.7,1.2c-0.9,0.1-1.5,0.3-1.9,0.5c-0.4,0.2-0.7,0.5-0.9,0.9c-0.2,0.3-0.5,0.4-0.9,0.4
		c-0.4,0-0.7-0.1-1-0.5c-0.4-0.4-0.7-1-0.9-1.8c-0.3-0.9-0.4-2-0.4-3.3c0-1.1,0-2.3,0.1-3.6c0.1-1.3,0.2-2.6,0.3-3.8
		c0.1-1.2,0.2-2.4,0.4-3.5c0.1-1.1,0.3-1.9,0.4-2.4c0.2-1,0.4-1.5,0.8-1.7c0.4-0.2,1-0.2,1.9-0.1c0.6,0.1,1.5,0.2,2.6,0.3
		c1.1,0.1,2.3,0.1,3.7,0.2c1.3,0,2.7,0.1,4.1,0.1c1.4,0,2.7,0,3.8-0.1c1.2-0.1,2.3-0.1,3.1,0c0.8,0,1.4,0.1,1.9,0.2
		c0.4,0.1,0.8,0.2,0.9,0.3c0.2,0.1,0.2,0.3,0.2,0.5c0,0.4-0.3,0.6-0.9,0.7c-0.6,0.1-1.7,0.1-3.5,0c-0.6-0.1-1.3-0.1-2.1-0.1
		c-0.8,0-1.7,0-2.6-0.1c-0.1,0.7-0.2,1.4-0.2,1.9c0,0.6-0.1,1.2-0.1,1.9c1.4,0,2.7,0,3.7,0c1,0,1.8,0,2.2,0c0.8,0,1.4,0,1.9,0
		c0.5,0,0.8,0.1,1.1,0.2c0.2,0.1,0.4,0.2,0.4,0.3c0,0.1,0.1,0.3,0,0.5c-0.1,0.4-0.3,0.6-0.8,0.8c-0.5,0.2-1.4,0.2-2.8,0.2
		c-0.6,0-1.5-0.1-2.4-0.1c-1,0-2.1,0-3.3,0c0,0.6-0.1,1.2-0.1,1.8c0,0.5,0,1,0,1.5c1.7-0.1,3.2-0.1,4.4-0.1c1.2,0,2.1-0.1,2.5-0.1
		c0.8,0,1.4,0,1.9,0c0.5,0,0.8,0,1.1,0.1c0.2,0.1,0.4,0.2,0.4,0.3c0,0.1,0.1,0.3,0,0.6c-0.1,0.4-0.3,0.7-0.8,0.9
		c-0.5,0.3-1.4,0.4-2.9,0.3c-0.7,0-1.6,0-2.8,0c-1.2,0-2.5,0.1-3.9,0.1v3.6c1.3-0.1,2.4-0.2,3.5-0.2c1-0.1,1.9-0.1,2.5-0.1
		c1.5,0,2.7,0,3.8,0c1.1,0,2,0.1,2.7,0.3c0.8,0.1,1.4,0.3,1.9,0.5c0.5,0.2,1,0.5,1.3,0.7c0.5,0.3,0.8,0.6,0.9,1
		C265.7,348.8,265.6,349.2,265.4,349.5 M246.7,337.5H242c-1.6,0-3.3,0-5,0.1c-0.1,0.5-0.1,1.1-0.1,1.7c0,0.6,0,1.2-0.1,1.8
		c1.5-0.1,3.2-0.1,4.8-0.2c1.7,0,3.4-0.1,5-0.2c0-0.6,0-1.1,0-1.7C246.7,338.6,246.7,338.1,246.7,337.5 M246.5,346.6
		c0-1.3,0.1-2.6,0.1-3.7c-1.5,0.1-3.1,0.1-4.8,0.2c-1.7,0.1-3.3,0.2-5,0.3c0,1.1,0,2.1,0.1,2.9c0.1,0.6,0.2,1,0.4,1.1
		c0.2,0.1,0.6,0.1,1.4,0c1-0.1,2.2-0.3,3.6-0.4C243.6,346.9,245,346.7,246.5,346.6 M246.7,335.7c0-0.7,0-1.4,0-1.9
		c0-0.6,0-1.2,0-1.9c-1.2,0-2.3,0-3.4,0c-1,0-1.8,0.1-2.4,0.1c-1.2,0.2-2,0.4-2.5,0.7c-0.5,0.3-0.8,0.9-1,1.7
		c-0.1,0.3-0.2,0.7-0.3,1.3H246.7z M240.6,354.7c-0.3,0.5-0.6,1.2-1,1.9c-0.4,0.7-0.8,1.3-1.1,1.8c-0.2,0.4-0.4,0.5-0.6,0.5
		c-0.2-0.1-0.3-0.3-0.3-0.7c0-0.3,0-0.6,0-1c0-0.4,0-0.8,0.1-1.3c0-0.4,0.1-0.9,0.1-1.3c0-0.4,0.1-0.8,0.1-1.2
		c0.1-0.6,0.3-0.9,0.6-1.1c0.4-0.2,0.8-0.1,1.2,0c0.5,0.3,0.8,0.6,1,0.9C240.9,353.6,240.9,354.1,240.6,354.7 M247.8,353.6
		c0,0.5-0.1,1.2-0.1,1.9c0,0.7-0.1,1.3-0.2,1.8c-0.1,0.3-0.2,0.4-0.5,0.5c-0.2,0.1-0.4,0-0.6-0.4c-0.1-0.3-0.3-0.6-0.4-1
		c-0.2-0.4-0.3-0.7-0.5-1.1c-0.2-0.4-0.4-0.7-0.5-1.1c-0.2-0.3-0.3-0.6-0.4-0.7c-0.2-0.3-0.3-0.6-0.1-1.1c0.1-0.4,0.5-0.7,1.1-0.7
		c1-0.1,1.7,0.1,1.9,0.5C247.7,352.6,247.8,353,247.8,353.6 M256,357.2c0,0.4,0,0.6-0.2,0.7c-0.2,0-0.4-0.1-0.6-0.3
		c-0.7-0.9-1.3-1.7-1.7-2.4c-0.4-0.6-0.9-1.4-1.4-2.2c-0.2-0.4-0.3-0.8-0.1-1.2c0.1-0.4,0.5-0.7,1-0.8c0.8-0.2,1.4-0.1,1.9,0.3
		c0.5,0.3,0.8,0.9,0.8,1.6c0,0.2,0.1,0.5,0.1,0.9c0,0.4,0,0.8,0.1,1.2c0,0.4,0.1,0.8,0.1,1.2C255.9,356.6,255.9,357,256,357.2"/>
	<path class="st0" d="M295.6,330.3c0,0.3,0,0.5,0,0.7c0,0.2,0,0.5,0,0.7c1.9,0,4,0,6.1,0c2.1,0,4.3,0,6.6,0c1,0,1.5,0.2,1.5,0.6
		c0,0.3-0.2,0.6-0.5,0.9c-0.4,0.3-0.9,0.4-1.5,0.3c-2.3-0.1-4.4-0.1-6.5-0.1c-2,0-3.9-0.1-5.7-0.1v2.8c1,0,1.9,0,2.8,0
		c0.9,0,1.7,0,2.5,0.1c0.8,0,1.4,0.1,1.9,0.1c0.5,0,0.9,0,1.2,0.1c1.1,0.1,1.9,0.4,2.4,1c0.5,0.6,0.6,1.3,0.2,2
		c-0.2,0.4-0.3,0.8-0.4,1.2c-0.1,0.4-0.3,0.8-0.4,1.3c-0.1,0.5-0.2,1-0.4,1.6c-0.1,0.6-0.2,1.3-0.4,2.2c-0.1,0.6-0.2,1.1-0.4,1.5
		c-0.1,0.4-0.3,0.6-0.6,0.8c-0.3,0.2-0.6,0.3-1.1,0.3c-0.4,0-1,0-1.7,0c-1.1,0-2.1,0-3.1,0c-0.9,0-1.8,0-2.6,0v3.2
		c1.4,0,2.8,0.1,4.4,0.2c1.6,0.1,3.3,0.2,5.1,0.3c0.8,0.1,1.5,0.1,2.2,0.2c0.6,0,1.3,0.1,1.8,0.1c0.6,0,1.2,0.1,1.8,0.1
		c0.6,0,1.3,0.1,2,0.2c0.4,0.1,0.7,0.2,0.8,0.3c0.1,0.1,0,0.3-0.2,0.7c-0.3,0.4-0.6,0.8-0.9,1.1c-0.4,0.3-0.8,0.6-1.2,0.9
		c-0.4,0.2-0.8,0.3-1.2,0.3c-0.5,0-1.2-0.2-2.1-0.6c-1.5-0.6-3.3-1.1-5.3-1.4c-2-0.3-4.4-0.5-7.1-0.5c0,0.7,0,1.3,0,2
		c0,0.7,0,1.3,0,2c0,1.1-0.2,1.9-0.5,2.4c-0.3,0.5-0.6,0.8-1,0.8c-0.4,0-0.7-0.2-0.9-0.6s-0.2-1.3-0.2-2.4c0-0.7,0-1.4,0-2.1
		c0-0.7,0-1.4,0-2.1c-2.3,0.1-4.2,0.1-5.8,0.2c-1.5,0.1-2.8,0.2-3.9,0.4c-1.1,0.2-2,0.4-2.8,0.6c-0.8,0.3-1.6,0.6-2.4,1
		c-0.8,0.4-1.5,0.4-2,0.1c-0.5-0.3-0.6-0.9-0.5-1.6c0.2-0.7,0.6-1.2,1.2-1.6c0.7-0.4,1.2-0.5,1.7-0.3c0.2,0.1,0.4,0.1,0.7,0.1
		c0.3,0,0.6,0,1,0c0.4,0,0.9,0,1.5-0.1c0.6,0,1.3-0.1,2.1-0.2c1.3-0.2,2.8-0.3,4.3-0.3c1.5-0.1,3.2-0.1,5-0.1v-3.2
		c-2.1,0-3.6,0.1-4.7,0.2c-1,0.1-1.7,0.3-2.1,0.5c-0.8,0.4-1.4,0.5-1.9,0.3c-0.5-0.2-0.7-0.9-0.8-2c-0.1-1.1-0.2-2.1-0.3-2.9
		c-0.1-0.8-0.2-1.6-0.3-2.2c-0.1-0.6-0.2-1.2-0.3-1.6c-0.1-0.5-0.2-0.9-0.3-1.3c-0.3-1-0.3-1.7,0-2.2c0.3-0.4,0.9-0.7,2.1-0.8
		c0.3,0,0.8-0.1,1.3-0.1c0.6,0,1.2,0,2,0h2.4h2.7v-2.8c-2,0-3.6,0-4.9,0.1c-1.3,0-2.3,0.1-2.9,0.2c-0.6,0.1-1.1,0.2-1.5,0.2
		c-0.4,0-0.8,0-1.1,0s-0.6,0-0.9-0.1c-0.3,0-0.6-0.1-1-0.3c-0.7-0.2-1-0.5-1.1-0.8c0-0.3,0.4-0.6,1.2-0.9c0.4-0.1,0.7-0.2,0.9-0.3
		c0.3-0.1,0.6-0.1,0.9-0.2c0.3,0,0.7,0,1.1,0c0.4,0,0.9,0.1,1.6,0.1c0.6,0.1,1.6,0.1,3,0.2c1.4,0,3,0.1,4.9,0.1v-1.3
		c0-1,0.1-1.6,0.3-2c0.2-0.4,0.5-0.6,0.8-0.6c0.4,0,0.7,0.2,0.9,0.7S295.6,329.6,295.6,330.3 M293.2,337.7c-0.9,0-1.7,0.1-2.6,0.2
		c-0.9,0.1-1.9,0.2-3,0.4c-0.9,0.2-1.5,0.4-1.8,0.8c-0.3,0.4-0.4,1-0.4,2v0.4h7.8V337.7z M293.2,343c-1,0-2.1,0.1-3.3,0.1
		c-1.2,0-2.7,0.1-4.4,0.1c0,0.3,0,0.5,0,0.8c0,0.3,0,0.6,0.1,0.9c0,0.4,0.1,0.6,0.1,0.9c0.1,0.2,0.2,0.4,0.4,0.5
		c0.2,0.1,0.5,0.2,0.9,0.3c0.4,0.1,0.9,0.1,1.5,0.1c0.4,0.1,1.1,0.1,1.9,0.1h2.8V343z M303.2,340.2c0.1-0.7,0-1.2-0.2-1.5
		c-0.2-0.3-0.6-0.5-1.2-0.6c-1.3-0.1-2.4-0.2-3.4-0.3c-1-0.1-2-0.1-2.9-0.2v3.7h3.4c1.2,0,2.6,0,4.3,0c0-0.2,0-0.4,0-0.6
		C303.2,340.6,303.2,340.4,303.2,340.2 M303,343.1c-1.7-0.1-3.1-0.1-4.2-0.1c-1.1,0-2.2,0-3.2,0v3.9c0.9,0,1.8-0.1,2.7-0.1
		c0.9,0,1.7-0.1,2.5-0.1c0.8-0.1,1.4-0.2,1.6-0.4c0.3-0.2,0.4-0.7,0.5-1.4c0-0.2,0.1-0.5,0.1-0.7C302.9,343.7,303,343.4,303,343.1"
		/>
	<path class="st0" d="M361.4,359c-0.7,0.4-1.3,0.7-1.8,1c-0.5,0.2-1.1,0.4-1.8,0.6c-0.8,0.2-1.6,0.3-2.3,0.1
		c-0.7-0.2-1.4-0.4-2.2-0.7c-1.1-0.4-2.4-0.8-3.9-1.3c-1.5-0.4-3-0.9-4.5-1.3c-2.3-0.7-4.4-1.2-6.4-1.4c-2-0.3-4.2-0.4-6.6-0.5
		c-1.2,0-2.3,0.1-3.3,0.2c-1,0.1-2.2,0.5-3.5,1.1c-0.5,0.2-1,0.3-1.3,0.1c-0.3-0.1-0.5-0.4-0.5-0.9c0-0.7,0.4-1.3,1.3-1.7
		c0.9-0.3,1.6-0.7,2.1-1c0.4-0.4,0.9-0.8,1.4-1.3c0.7-0.8,1.2-1.4,1.5-2c0.3-0.6,0.4-1,0.4-1.4c-0.1-0.4-0.3-0.7-0.8-0.9
		c-0.5-0.1-1-0.2-1.5-0.1c-1.1,0.2-1.7,0.2-2,0c-0.3-0.1-0.4-0.4-0.4-0.7c0-0.3,0.1-0.5,0.3-0.8c0.2-0.3,0.6-0.8,1.1-1.4
		c0.3-0.4,0.6-0.7,0.9-1c0.3-0.3,0.5-0.6,0.7-0.8c0.2-0.3,0.5-0.5,0.7-0.8c0.2-0.3,0.5-0.6,0.8-0.9c0.3-0.3,0.3-0.5,0.1-0.8
		c-0.2-0.2-0.6-0.4-1.3-0.6c-0.8-0.1-1.5-0.2-1.9-0.1c-0.5,0.1-0.9,0.2-1.4,0.2c-0.7,0.1-1.2,0-1.5-0.2c-0.3-0.2-0.3-0.5,0-1
		c0.3-0.5,0.8-0.9,1.3-1.1c0.6-0.2,1.4-0.2,2.4,0c0.7,0.2,1.4,0.4,1.9,0.5c0.5,0.1,1.1,0.2,1.7,0.3c0.7,0.1,1.3,0.3,1.7,0.6
		c0.4,0.3,0.6,0.6,0.6,0.8c0.1,0.4-0.1,0.7-0.4,1.1c-0.3,0.4-0.9,0.9-1.7,1.6c-0.7,0.7-1.3,1.2-1.7,1.6c-0.4,0.4-0.6,0.7-0.7,1
		c-0.1,0.2-0.1,0.4,0.1,0.5c0.1,0.1,0.3,0.1,0.5,0.2c1.2,0.2,2,0.5,2.4,1c0.4,0.5,0.6,1.1,0.6,1.8c0,0.5-0.2,1-0.5,1.6
		c-0.3,0.6-0.9,1.5-1.8,2.5c-0.2,0.3-0.3,0.4-0.3,0.6c0,0.1,0.3,0.2,0.9,0.2c0.4,0,1.2,0.1,2.4,0.2c1.2,0.1,2.4,0.2,3.9,0.4
		c1.4,0.2,2.9,0.4,4.5,0.6c1.6,0.2,3,0.5,4.3,0.8c2,0.4,3.7,0.7,5.1,1c1.4,0.3,2.4,0.5,2.9,0.6c0.8,0.2,1.9,0.4,3.1,0.5
		c1.2,0.1,2.6,0.2,4.2,0.2c0.7,0.1,1.1,0.2,1.2,0.4C362.5,358.2,362.2,358.5,361.4,359 M332.3,334.1c0.3,0.3,0.4,0.5,0.3,0.7
		c-0.1,0.2-0.4,0.3-1,0.2c-1.3-0.4-2.5-0.8-3.6-1.2c-1-0.4-1.9-0.6-2.6-0.9c-0.5-0.2-0.8-0.4-1-0.7c-0.1-0.2,0-0.5,0.5-1
		c0.5-0.4,1.1-0.7,1.8-0.7c0.7,0,1.3,0.1,1.8,0.5c0.8,0.5,1.5,1.1,2.1,1.5C331.3,333.2,331.8,333.7,332.3,334.1 M355.6,340
		c-0.1,0.4-0.2,0.9-0.2,1.7c-0.1,0.8-0.1,1.6-0.2,2.5c0,0.9-0.1,1.9-0.1,3c0,1-0.1,2-0.1,3c-0.1,1.6-0.3,2.7-0.6,3.3
		c-0.4,0.5-1,0.6-2.1,0.3c-0.7-0.2-1.5-0.3-2.6-0.4c-1.1,0-2.1,0-3.2,0c-1.1,0-2.1,0.1-3,0.2c-0.9,0.1-1.5,0.2-1.8,0.4
		c-0.4,0.2-0.7,0.3-1.1,0.3c-0.4,0-0.7,0-1-0.1c-0.3-0.1-0.5-0.4-0.7-0.7c-0.2-0.4-0.2-0.9-0.2-1.6c0.1-0.8,0.1-1.8,0.1-2.9
		c0-1.1,0.1-2.2,0.1-3.2c0-1.1,0-2.1,0-3c0-0.9,0-1.7-0.1-2.2c-0.1-1.1,0-1.8,0.4-2.1c0.4-0.3,1.1-0.5,2-0.5
		c0.7-0.1,1.4-0.1,2.1-0.1c0.7,0,1.4-0.1,2.2-0.1c0-0.5,0-1,0-1.5c0-0.4,0-0.9-0.1-1.4c-2,0.1-3.6,0.2-4.9,0.4
		c-1.3,0.2-2.5,0.5-3.5,0.8c-1.2,0.4-2,0.5-2.3,0.2s-0.1-0.9,0.5-1.6c0.5-0.6,0.9-0.9,1.1-1.1c0.2-0.1,0.5-0.1,0.8,0
		c0.2,0.1,0.5,0.1,0.9,0.1c0.4,0,0.9-0.1,1.7-0.1c0.8-0.1,2-0.1,3.6-0.2c1.6-0.1,3.5-0.1,5.5-0.1c0.1-0.6,0.2-1.1,0.3-1.5
		c0.1-0.3,0.3-0.7,0.6-1.2c0.3-0.5,0.6-0.9,0.8-1.2c0.2-0.3,0.5-0.7,0.8-1c0.4-0.4,0.7-0.6,1.1-0.6c0.4,0,0.6,0.3,0.8,0.8
		c0.2,0.6,0.2,1.1,0,1.5c-0.2,0.4-0.5,0.6-1,0.9c-0.8,0.4-1.4,0.7-1.8,1.1c-0.4,0.4-0.6,0.8-0.8,1.2c1.4,0,2.8,0,4.2,0h3.8
		c0.9,0,1.4,0.1,1.5,0.2c0.1,0.2-0.1,0.5-0.6,1.2c-0.4,0.6-0.9,1-1.4,1.1c-0.5,0.1-1.2,0-2.2-0.2c-1.3-0.3-2.5-0.5-3.6-0.7
		c-1.1-0.1-2.2-0.2-3.5-0.1c-0.2,0.6-0.3,1.2-0.4,1.6c0,0.4-0.1,0.9-0.2,1.4c0.5,0,1.1,0,1.6,0c0.5,0,1,0,1.5,0
		C354.5,337.4,356.1,338.3,355.6,340 M343.8,332c0,0.5-0.1,0.8-0.3,0.8c-0.3,0-0.5-0.2-0.7-0.6c-0.3-0.5-0.6-0.9-0.8-1.2
		c-0.2-0.3-0.5-0.6-0.9-0.9c-0.4-0.4-0.6-0.7-0.5-1.1c0.1-0.4,0.4-0.7,0.8-0.8c0.6-0.2,1.1-0.2,1.4,0s0.6,0.6,0.7,1.2
		c0.1,0.4,0.2,0.9,0.2,1.2C343.7,331,343.8,331.5,343.8,332 M352.8,343.3c-2.1,0-4,0.1-5.8,0.2c-1.8,0.1-3.7,0.2-5.8,0.4v1.4
		c0,0.5,0,1,0,1.4c2.1-0.1,4.1-0.2,5.9-0.3c1.8-0.1,3.7-0.1,5.8-0.2c0-0.5,0-1,0-1.5C352.9,344.3,352.9,343.8,352.8,343.3
		 M352.8,349.2c0-0.2,0-0.4,0-0.6c0-0.2,0-0.4,0-0.7c-2.1,0-4.1,0-5.9,0.1c-1.8,0.1-3.7,0.2-5.8,0.4v1.4c0,0.5,0,0.8,0.1,1.1
		c0,0.3,0.1,0.4,0.3,0.6c0.1,0.1,0.4,0.2,0.6,0.2c0.3,0,0.7,0,1.2,0c0.5,0,1.1,0,1.8,0c0.7,0,1.3,0,1.9-0.1c0.6,0,1.2-0.1,1.8-0.1
		c0.6,0,1.1-0.1,1.4-0.1c0.6,0,1-0.1,1.3-0.1c0.3,0,0.6-0.1,0.7-0.3c0.2-0.1,0.3-0.4,0.3-0.6C352.7,350.1,352.7,349.7,352.8,349.2
		 M341.3,342c2-0.1,3.9-0.2,5.8-0.3c1.8-0.1,3.7-0.1,5.7-0.1v0c0-0.5-0.1-1-0.2-1.3c-0.1-0.3-0.2-0.6-0.4-0.7
		c-0.2-0.2-0.5-0.3-0.8-0.4c-0.3-0.1-0.8-0.1-1.3-0.1c-1-0.1-2-0.1-3.2,0c-1.2,0-2.3,0.1-3.2,0.3c-0.5,0.1-0.9,0.1-1.2,0.2
		c-0.3,0.1-0.5,0.2-0.7,0.4c-0.2,0.2-0.3,0.5-0.3,0.8C341.4,341,341.3,341.5,341.3,342"/>
	<polygon class="st0" points="223.2,273.8 238.3,273.8 238.3,312.8 242.3,312.8 242.3,273.8 257.3,273.8 257.3,269.8 223.2,269.8 	
		"/>
	<polygon class="st0" points="342,269.8 337.9,269.8 337.9,312.8 371.9,312.8 371.9,308.8 342,308.8 	"/>
	<path class="st0" d="M412.6,273.6h12.6v-3.8h-12.6c-11.1,0-20.3,8.5-21.3,19.6h-4.9v3.8h4.9c1,11.1,10.1,19.6,21.3,19.6h12.6V309
		h-12.6c-9,0-16.5-6.8-17.4-15.8h26.7v-3.8h-26.7C396.1,280.5,403.6,273.6,412.6,273.6"/>
	<path class="st0" d="M308.7,269.8c-0.3,0.3-1.8,2.3-12.7,17.6l-0.5,0.7l-0.5-0.7c-10.9-15.3-12.4-17.2-12.7-17.6h-4.7l15.8,22.3
		v20.8h2h2.1V292l15.8-22.3H308.7z"/>
	<path class="st0" d="M37.9,276.7c-1.4-3.1-4.1-5.5-7.5-6.5c-0.4-0.1-0.7-0.2-1.1-0.2c-0.1,0-0.2,0-0.3,0c-0.6-0.1-1.2-0.2-1.8-0.2
		h-0.2v0H4.9v19.7H0v4h4.9v19.4h4v-19.4h18.2v0h0.2c0.1,0,0.2,0,0.2,0c4.7-0.1,8.7-2.9,10.5-7c0.7-1.5,1-3.1,1-4.8
		C39,279.9,38.6,278.2,37.9,276.7 M35,281.7c0,0.5,0,1-0.1,1.5l0,0c-0.7,3.6-3.9,6.2-7.6,6.2h-0.2v0H8.8v-15.7h18.2h0.2
		c4.3,0,7.8,3.5,7.8,7.8C35,281.6,35,281.7,35,281.7"/>
	<path class="st0" d="M84.1,293.4L84.1,293.4l-0.1-0.1c4-0.6,7.4-3.2,9-6.9c0.7-1.5,1-3.1,1-4.8c0-1.8-0.4-3.4-1.1-4.9
		c-1.4-3.1-4.1-5.5-7.5-6.5c-0.4-0.1-0.7-0.2-1.1-0.2c-0.1,0-0.2,0-0.3,0c-0.6-0.1-1.2-0.2-1.8-0.2h-0.2v0H59.9v19.7H55v4h4.9v19.4
		h4v-19.4h15.7c0.7,1.2,3.3,5.7,10.9,18.9l0.4,0.7l3.5-1.8L84.1,293.4z M63.9,273.8h18.2h0.2c4.3,0,7.8,3.5,7.8,7.8c0,0,0,0.1,0,0.1
		c0,0.5,0,1-0.1,1.5l0,0c-0.7,3.6-3.9,6.2-7.6,6.2h-0.2v0H63.9V273.8z"/>
	<path class="st0" d="M129.9,313.2c-9.4,0-17-7.2-17-15.9v-12.1c0-8.8,7.6-15.9,17-15.9c9.4,0,17,7.2,17,15.9v12.1
		C146.9,306.1,139.3,313.2,129.9,313.2 M129.9,273.4c-7.1,0-12.9,5.3-12.9,11.8v12.1c0,6.5,5.8,11.8,12.9,11.8
		c7.1,0,12.9-5.3,12.9-11.8v-12.1C142.8,278.7,137,273.4,129.9,273.4"/>
	<path class="st0" d="M179.9,273.7H202v-4h-22.1c-6.5,0-11.8,5.3-11.8,11.8c0,3,1.1,5.7,3,7.8c2.1,2.4,5.2,3.9,8.7,4h10.5
		c0,0,0.1,0,0.1,0c4.3,0.1,7.8,3.5,7.8,7.7c0,4.3-3.5,7.9-7.9,7.9h-22.1v4h22.1c6.5,0,11.8-5.4,11.8-11.8c0-3-1.1-5.7-3-7.7
		c-2.1-2.4-5.2-3.9-8.7-4h-10.5c0,0-0.1,0-0.1,0c-4.3-0.1-7.8-3.6-7.8-7.8C172,277.2,175.6,273.7,179.9,273.7"/>
	<path class="st0" d="M212.6,0C142.2,0,85,57.1,85,127.6c0,70.4,57.1,127.6,127.6,127.6c70.4,0,127.6-57.1,127.6-127.6
		C340.2,57.1,283,0,212.6,0 M212.6,248c-66.5,0-120.5-53.9-120.5-120.5S146.1,7.1,212.6,7.1S333.1,61,333.1,127.6
		S279.1,248,212.6,248"/>
	<g>
		<rect x="176.6" y="115.7" class="st0" width="11" height="23.8"/>
		<path class="st0" d="M237.6,72.7v2.9h5.6C241.4,74.6,239.5,73.6,237.6,72.7z"/>
		<rect x="176.6" y="90.2" class="st0" width="11" height="23.8"/>
		<path class="st0" d="M176.6,88.4h11V72.7c-3.9,1.8-7.6,4-11,6.5V88.4z"/>
		<path class="st0" d="M189.4,72v111.2c7.1,3,15,4.6,23.2,4.6c8.2,0,16.1-1.7,23.2-4.6V72c-7.1-3-15-4.6-23.2-4.6
			C204.4,67.3,196.5,69,189.4,72z"/>
		<rect x="237.6" y="141.2" class="st0" width="11" height="11"/>
		<rect x="237.6" y="153.9" class="st0" width="11" height="11"/>
		<path class="st0" d="M237.6,182.4c1.9-0.9,3.8-1.8,5.6-2.9h-5.6V182.4z"/>
		<rect x="237.6" y="128.4" class="st0" width="11" height="11"/>
		<path class="st0" d="M237.6,177.7h8.4c0.9-0.6,1.8-1.2,2.6-1.8v-9.2h-11V177.7z"/>
		<path class="st0" d="M162.1,113.9V94.7c-3.8,5.8-6.6,12.3-8.2,19.2H162.1z"/>
		<path class="st0" d="M174.9,174.5v-7.8h-8C169.3,169.5,172,172.2,174.9,174.5z"/>
		<path class="st0" d="M162.1,160.4v-19.2h-8.2C155.5,148.1,158.3,154.6,162.1,160.4z"/>
		<path class="st0" d="M163.9,162.9c0.5,0.7,1,1.3,1.5,2h9.5v-23.8h-11V162.9z"/>
		<path class="st0" d="M152.4,127.6c0,4.1,0.4,8,1.2,11.9h8.6v-23.8h-8.6C152.8,119.5,152.4,123.5,152.4,127.6z"/>
		<rect x="176.6" y="141.2" class="st0" width="11" height="23.8"/>
		<path class="st0" d="M166.8,88.4h8v-7.8C172,83,169.3,85.6,166.8,88.4z"/>
		<rect x="163.9" y="115.7" class="st0" width="11" height="23.8"/>
		<path class="st0" d="M176.6,175.9c3.4,2.5,7.1,4.7,11,6.5v-15.7h-11V175.9z"/>
		<path class="st0" d="M163.9,92.2v21.8h11V90.2h-9.5C164.9,90.8,164.4,91.5,163.9,92.2z"/>
		<path class="st0" d="M237.6,77.4v11h11v-9.2c-0.8-0.6-1.7-1.2-2.6-1.8H237.6z"/>
		<path class="st0" d="M263.1,139.4h8.6c0.7-3.6,1.1-7.2,1.2-11h-9.7V139.4z"/>
		<path class="st0" d="M263.1,160.4c1.4-2.1,2.6-4.2,3.7-6.5h-3.7V160.4z"/>
		<path class="st0" d="M263.1,152.2h4.5c1.6-3.5,2.8-7.2,3.7-11h-8.2V152.2z"/>
		<rect x="250.3" y="102.9" class="st0" width="11" height="11"/>
		<path class="st0" d="M250.3,90.2v11h11v-9c-0.5-0.7-1-1.3-1.5-2H250.3z"/>
		<path class="st0" d="M263.1,101.2h3.7c-1.1-2.2-2.3-4.4-3.7-6.5V101.2z"/>
		<path class="st0" d="M263.1,126.7h9.7c-0.1-3.8-0.4-7.4-1.2-11h-8.6V126.7z"/>
		<rect x="237.6" y="115.7" class="st0" width="11" height="11"/>
		<path class="st0" d="M263.1,113.9h8.2c-0.9-3.8-2.1-7.5-3.7-11h-4.5V113.9z"/>
		<path class="st0" d="M250.3,165h9.5c0.5-0.7,1-1.3,1.5-2v-9h-11V165z"/>
		<rect x="237.6" y="90.2" class="st0" width="11" height="11"/>
		<rect x="250.3" y="115.7" class="st0" width="11" height="11"/>
		<rect x="237.6" y="102.9" class="st0" width="11" height="11"/>
		<path class="st0" d="M250.3,174.5c2.9-2.3,5.6-5,8-7.8h-8V174.5z"/>
		<path class="st0" d="M250.3,80.6v7.8h8C255.9,85.6,253.2,83,250.3,80.6z"/>
		<path class="st0" d="M212.6,14.2C150,14.2,99.2,64.9,99.2,127.6S150,240.9,212.6,240.9c62.6,0,113.4-50.8,113.4-113.4
			S275.2,14.2,212.6,14.2z M276.4,75.7v1.8v11v1.8v11v1.8v11v1.8v11v1.8v11v1.8v11v1.8v11v1.8v11v1.8v11.9H148.8v-24.6V165v-23.8
			v-1.8v-23.8v-1.8V90.2v-1.8V63.8h13.3h1.8h11h1.8h11h1.8h46.4h1.8h11h1.8h11h1.8h13.3V75.7z"/>
		<rect x="250.3" y="128.4" class="st0" width="11" height="11"/>
		<rect x="250.3" y="141.2" class="st0" width="11" height="11"/>
	</g>
</g>
</svg>
