<?xml version="1.0" encoding="utf-8"?>
<!-- Generator: Adobe Illustrator 22.1.0, SVG Export Plug-In . SVG Version: 6.00 Build 0)  -->
<svg version="1.1" id="Layer_1" xmlns="http://www.w3.org/2000/svg" xmlns:xlink="http://www.w3.org/1999/xlink" x="0px" y="0px"
	 viewBox="0 0 200 200" style="enable-background:new 0 0 200 200;" xml:space="preserve">
<style type="text/css">
	.st0{fill:#FFFFFF;}
</style>
<g>
	<path class="st0" d="M100,0C44.8,0,0,44.8,0,100c0,55.2,44.8,100,100,100c55.2,0,100-44.8,100-100C200,44.8,155.2,0,100,0z
		 M100,194.4c-52.2,0-94.4-42.3-94.4-94.4C5.6,47.8,47.8,5.6,100,5.6s94.4,42.3,94.4,94.4C194.4,152.2,152.2,194.4,100,194.4z"/>
	<path class="st0" d="M81.8,56.4v87.2c5.6,2.3,11.8,3.6,18.2,3.6c6.5,0,12.6-1.3,18.2-3.6V56.4c-5.6-2.3-11.7-3.6-18.2-3.6
		C93.5,52.8,87.4,54.1,81.8,56.4z"/>
	<path class="st0" d="M71.8,69.3h8.6V57c-3.1,1.4-6,3.1-8.6,5.1V69.3z"/>
	<rect x="71.8" y="110.7" class="st0" width="8.6" height="18.6"/>
	<rect x="71.8" y="90.7" class="st0" width="8.6" height="18.6"/>
	<rect x="71.8" y="70.7" class="st0" width="8.6" height="18.6"/>
	<rect x="119.6" y="100.7" class="st0" width="8.6" height="8.6"/>
	<rect x="119.6" y="110.7" class="st0" width="8.6" height="8.6"/>
	<path class="st0" d="M119.6,143c1.5-0.7,3-1.5,4.4-2.3h-4.4V143z"/>
	<path class="st0" d="M119.6,57v2.3h4.4C122.5,58.5,121.1,57.7,119.6,57z"/>
	<path class="st0" d="M119.6,139.3h6.6c0.7-0.5,1.4-0.9,2-1.4v-7.2h-8.6V139.3z"/>
	<path class="st0" d="M60.4,89.3V74.2c-3,4.5-5.2,9.6-6.4,15.1H60.4z"/>
	<path class="st0" d="M52.8,100c0,3.2,0.3,6.3,0.9,9.3h6.7V90.7h-6.7C53.1,93.7,52.8,96.8,52.8,100z"/>
	<path class="st0" d="M70.4,136.8v-6.1h-6.3C66,132.9,68.1,135,70.4,136.8z"/>
	<path class="st0" d="M60.4,125.8v-15.1H54C55.3,116.1,57.5,121.2,60.4,125.8z"/>
	<path class="st0" d="M61.8,72.3v17.1h8.6V70.7H63C62.6,71.2,62.2,71.7,61.8,72.3z"/>
	<path class="st0" d="M61.8,127.7c0.4,0.5,0.8,1.1,1.2,1.6h7.4v-18.6h-8.6V127.7z"/>
	<path class="st0" d="M64.1,69.3h6.3v-6.1C68.1,65,66,67.1,64.1,69.3z"/>
	<path class="st0" d="M71.8,137.9c2.7,2,5.6,3.7,8.6,5.1v-12.3h-8.6V137.9z"/>
	<rect x="61.8" y="90.7" class="st0" width="8.6" height="18.6"/>
	<rect x="119.6" y="120.7" class="st0" width="8.6" height="8.6"/>
	<path class="st0" d="M139.6,119.3h3.5c1.2-2.7,2.2-5.6,2.9-8.6h-6.4V119.3z"/>
	<path class="st0" d="M139.6,125.8c1.1-1.6,2-3.3,2.9-5.1h-2.9V125.8z"/>
	<rect x="119.6" y="90.7" class="st0" width="8.6" height="8.6"/>
	<rect x="129.6" y="80.7" class="st0" width="8.6" height="8.6"/>
	<path class="st0" d="M129.6,70.7v8.6h8.6v-7.1c-0.4-0.5-0.8-1.1-1.2-1.6H129.6z"/>
	<path class="st0" d="M139.6,79.3h2.9c-0.9-1.8-1.8-3.4-2.9-5.1V79.3z"/>
	<path class="st0" d="M139.6,99.3h7.6c0-2.9-0.3-5.8-0.9-8.6h-6.7V99.3z"/>
	<path class="st0" d="M100,11.1c-49.1,0-88.9,39.8-88.9,88.9c0,49.1,39.8,88.9,88.9,88.9c49.1,0,88.9-39.8,88.9-88.9
		C188.9,50.9,149.1,11.1,100,11.1z M150,59.3v1.4v8.6v1.4v8.6v1.4v8.6v1.4v8.6v1.4v8.6v1.4v8.6v1.4v8.6v1.4v8.6v1.4v9.3H50v-19.3
		v-1.4v-18.6v-1.4V90.7v-1.4V70.7v-1.4V50h10.4h1.4h8.6h1.4h8.6h1.4h36.4h1.4h8.6h1.4h8.6h1.4H150V59.3z"/>
	<path class="st0" d="M139.6,89.3h6.4c-0.7-3-1.7-5.9-2.9-8.6h-3.5V89.3z"/>
	<path class="st0" d="M139.6,109.3h6.7c0.6-2.8,0.9-5.7,0.9-8.6h-7.6V109.3z"/>
	<rect x="129.6" y="90.7" class="st0" width="8.6" height="8.6"/>
	<path class="st0" d="M119.6,60.7v8.6h8.6v-7.2c-0.7-0.5-1.4-1-2-1.4H119.6z"/>
	<rect x="119.6" y="70.7" class="st0" width="8.6" height="8.6"/>
	<rect x="119.6" y="80.7" class="st0" width="8.6" height="8.6"/>
	<path class="st0" d="M129.6,63.2v6.1h6.3C134,67.1,131.9,65,129.6,63.2z"/>
	<path class="st0" d="M129.6,136.8c2.3-1.8,4.4-3.9,6.3-6.1h-6.3V136.8z"/>
	<rect x="129.6" y="110.7" class="st0" width="8.6" height="8.6"/>
	<rect x="129.6" y="100.7" class="st0" width="8.6" height="8.6"/>
	<path class="st0" d="M129.6,129.3h7.4c0.4-0.5,0.8-1,1.2-1.6v-7.1h-8.6V129.3z"/>
</g>
</svg>
