<?xml version="1.0" standalone="no"?>
<!DOCTYPE svg PUBLIC "-//W3C//DTD SVG 20010904//EN"
 "http://www.w3.org/TR/2001/REC-SVG-20010904/DTD/svg10.dtd">
<svg version="1.0" xmlns="http://www.w3.org/2000/svg"
 width="260.000000pt" height="260.000000pt" viewBox="0 0 260.000000 260.000000"
 preserveAspectRatio="xMidYMid meet">
<metadata>
Created by potrace 1.11, written by Peter Selinger 2001-2013
</metadata>
<g transform="translate(0.000000,260.000000) scale(0.100000,-0.100000)"
fill="#000000" stroke="none">
<path d="M1168 2595 c-2 -1 -25 -5 -51 -8 -123 -15 -318 -79 -432 -142 -214
-118 -413 -316 -527 -525 -52 -96 -121 -285 -134 -370 -2 -14 -8 -52 -13 -85
-10 -61 -7 -316 4 -370 19 -90 28 -128 53 -205 124 -395 478 -733 880 -840
149 -40 219 -48 376 -45 211 4 368 41 547 130 138 68 226 132 345 250 204 204
322 433 369 720 12 76 13 320 1 392 -47 283 -166 513 -371 718 -118 119 -203
180 -342 249 -182 90 -337 127 -555 131 -80 2 -148 2 -150 0z m447 -115 c288
-74 558 -273 718 -527 94 -149 159 -333 182 -513 6 -52 7 -236 1 -265 -2 -11
-7 -47 -11 -79 -13 -121 -95 -329 -183 -466 -79 -124 -219 -264 -352 -351 -79
-53 -201 -114 -246 -125 -16 -4 -33 -10 -39 -14 -14 -10 -178 -47 -245 -55
-66 -7 -229 -8 -273 -1 -18 3 -48 8 -67 11 -159 23 -362 105 -495 200 -175
125 -306 275 -395 454 -40 81 -93 228 -106 296 -4 22 -9 47 -10 55 -19 88 -18
311 1 410 16 79 40 163 65 230 170 440 589 750 1050 776 58 4 106 7 107 8 8 7
231 -26 298 -44z"/>
<path d="M1165 2459 c-112 -16 -135 -21 -211 -44 -107 -34 -264 -114 -347
-176 -85 -64 -183 -162 -248 -248 -97 -129 -188 -348 -214 -516 -13 -81 -13
-253 1 -335 17 -113 19 -122 50 -215 92 -282 310 -531 579 -665 176 -87 317
-122 508 -125 336 -5 635 123 871 372 306 325 397 814 228 1230 -176 432 -589
717 -1052 727 -63 1 -137 -1 -165 -5z"/>
</g>
</svg>
