<?xml version="1.0" standalone="no"?>
<!DOCTYPE svg PUBLIC "-//W3C//DTD SVG 20010904//EN"
 "http://www.w3.org/TR/2001/REC-SVG-20010904/DTD/svg10.dtd">
<svg version="1.0" xmlns="http://www.w3.org/2000/svg"
 width="260.000000pt" height="260.000000pt" viewBox="0 0 260.000000 260.000000"
 preserveAspectRatio="xMidYMid meet">
<metadata>
Created by potrace 1.11, written by Peter Selinger 2001-2013
</metadata>
<g transform="translate(0.000000,260.000000) scale(0.100000,-0.100000)"
fill="#000000" stroke="none">
<path d="M1227 2594 c-1 -1 -29 -4 -62 -7 -33 -3 -73 -9 -90 -12 -16 -3 -41
-8 -55 -10 -46 -7 -68 -13 -89 -25 -12 -6 -21 -8 -21 -6 0 3 -20 -3 -45 -14
-25 -11 -46 -20 -48 -20 -36 -9 -47 -14 -47 -21 0 -5 -3 -8 -7 -7 -15 4 -58
-15 -90 -38 -17 -13 -36 -24 -41 -24 -5 0 -15 -7 -22 -15 -7 -9 -15 -13 -18
-10 -3 2 -13 -5 -23 -17 -11 -11 -19 -18 -19 -15 0 7 -30 -15 -66 -49 -13 -12
-24 -21 -26 -19 -2 1 -38 -33 -80 -76 -42 -44 -74 -79 -71 -79 3 0 -4 -8 -15
-19 -12 -10 -19 -21 -15 -24 3 -4 -1 -9 -10 -13 -9 -3 -31 -31 -49 -63 -17
-31 -34 -58 -37 -61 -12 -10 -84 -162 -84 -176 0 -8 -5 -14 -10 -14 -5 0 -7
-7 -3 -15 3 -8 2 -15 -2 -15 -6 0 -46 -135 -57 -195 -2 -11 -4 -20 -5 -20 -5
0 -11 -91 -12 -200 -1 -116 5 -214 16 -245 3 -8 8 -31 11 -50 11 -60 12 -64
24 -93 6 -16 11 -37 11 -47 0 -10 4 -20 9 -22 6 -2 12 -16 15 -32 3 -16 11
-33 18 -38 7 -4 10 -8 5 -8 -4 0 0 -15 10 -32 9 -18 17 -36 18 -40 0 -4 9 -18
20 -30 10 -13 18 -23 17 -23 -1 0 1 -10 4 -22 4 -13 10 -20 15 -17 5 3 9 -1 9
-8 0 -14 59 -100 72 -106 5 -2 8 -8 8 -13 0 -15 207 -217 230 -224 11 -3 20
-11 20 -16 0 -5 7 -9 15 -9 8 0 15 -5 15 -10 0 -6 10 -15 23 -20 12 -5 35 -18
51 -29 17 -11 33 -18 38 -15 4 3 8 1 8 -4 0 -12 187 -97 204 -93 6 1 19 -2 30
-8 12 -5 35 -13 51 -17 17 -4 35 -8 40 -10 23 -6 83 -16 125 -21 54 -6 282 -7
325 0 17 3 43 5 58 6 20 1 26 5 21 14 -5 8 -2 8 9 -2 9 -7 17 -9 17 -4 0 5 8
10 18 11 17 2 53 9 62 12 3 1 10 3 15 4 6 1 19 6 30 10 11 4 45 16 75 27 30
11 62 24 70 30 29 17 85 42 93 41 4 -1 7 2 7 8 0 5 7 10 15 10 8 0 15 5 15 10
0 6 6 10 13 10 12 0 27 10 75 50 6 6 12 8 12 4 0 -4 11 5 25 20 13 14 27 26
30 26 4 0 24 18 45 39 21 21 40 38 42 37 2 -2 11 6 20 16 10 10 16 18 13 18
-2 0 10 15 28 33 17 19 41 46 52 62 11 15 27 36 35 45 23 25 39 52 51 83 6 15
15 27 21 27 5 0 6 5 3 10 -3 6 -2 10 3 10 8 0 19 23 21 46 0 2 7 12 16 20 8 9
13 19 10 24 -3 5 -1 11 5 15 6 4 8 11 5 16 -4 5 -1 9 4 9 6 0 11 9 11 21 0 11
4 17 10 14 6 -3 7 1 4 10 -4 8 -1 21 4 28 6 7 14 28 17 47 3 19 9 44 14 55 11
22 25 107 24 143 0 12 5 22 11 22 6 0 4 5 -4 10 -8 5 -10 10 -4 10 11 0 17
226 6 244 -3 5 -6 30 -8 55 -4 67 -42 232 -56 242 -5 3 -8 10 -6 15 1 5 -3 19
-10 32 -7 12 -10 22 -7 22 6 0 -94 201 -104 210 -4 3 -20 25 -36 50 -17 25
-41 58 -55 75 -39 47 -172 178 -204 200 -15 11 -34 26 -42 33 -8 7 -14 11 -14
8 0 -3 -12 6 -26 19 -14 13 -36 27 -47 31 -12 4 -27 13 -35 20 -7 8 -18 12
-23 9 -5 -4 -9 -2 -9 2 0 15 -187 94 -253 108 -10 2 -27 7 -37 10 -26 8 -61
16 -90 19 -14 2 -41 7 -60 10 -31 6 -238 15 -243 10z m-26 -53 c7 11 9 11 9 1
0 -8 5 -10 12 -6 17 11 138 12 138 1 0 -4 6 -5 13 0 17 11 37 13 37 3 0 -4 8
-7 18 -7 49 2 151 -16 145 -26 -3 -6 -1 -7 6 -3 7 4 20 5 29 1 9 -4 30 -9 46
-11 17 -3 33 -9 37 -15 3 -6 9 -10 13 -10 20 2 66 -13 66 -22 0 -6 3 -8 6 -4
9 8 209 -97 234 -123 14 -15 71 -50 80 -50 6 0 9 -4 6 -9 -3 -5 5 -16 17 -24
36 -24 185 -177 172 -177 -3 0 6 -12 20 -27 14 -15 25 -33 25 -40 0 -7 5 -13
10 -13 6 0 10 -7 10 -15 0 -8 4 -15 9 -15 5 0 14 -13 21 -30 7 -16 16 -30 21
-30 5 0 9 -6 9 -14 0 -7 12 -40 27 -72 15 -33 28 -61 28 -64 1 -3 11 -36 23
-74 12 -37 22 -79 22 -92 0 -13 4 -24 9 -24 5 0 8 -11 6 -25 -1 -14 1 -27 4
-30 17 -10 18 -385 1 -385 -3 0 -6 -15 -7 -32 0 -18 -3 -40 -6 -48 -3 -8 -9
-28 -13 -45 -4 -16 -8 -32 -9 -35 -1 -3 -5 -18 -10 -35 -4 -16 -10 -34 -14
-40 -3 -5 -6 -12 -7 -15 -5 -28 -58 -137 -85 -178 -16 -24 -29 -47 -29 -51 0
-4 -8 -17 -17 -29 -10 -11 -25 -30 -33 -42 -8 -12 -23 -32 -34 -43 -10 -12
-25 -32 -33 -44 -8 -13 -19 -20 -24 -17 -5 3 -9 0 -9 -7 0 -17 -122 -129 -141
-129 -5 0 -7 -4 -4 -10 3 -5 1 -10 -5 -10 -10 0 -69 -38 -80 -51 -6 -8 -112
-63 -122 -64 -4 0 -15 -7 -25 -15 -10 -8 -27 -16 -37 -18 -10 -2 -30 -8 -45
-13 -14 -6 -28 -10 -30 -9 -2 1 -7 -3 -10 -9 -4 -6 -21 -11 -39 -13 -18 -1
-32 -7 -32 -12 0 -5 -3 -7 -6 -3 -3 3 -17 2 -30 -3 -13 -5 -39 -10 -59 -12
-19 -1 -35 -5 -35 -8 0 -3 -19 -5 -42 -5 -24 0 -49 -4 -57 -10 -12 -8 -13 -7
-6 4 6 10 4 12 -6 5 -20 -12 -159 -14 -159 -2 0 6 -7 5 -16 -3 -10 -8 -18 -9
-22 -3 -4 5 -28 10 -54 9 -25 0 -44 3 -41 8 2 4 -14 7 -36 7 -23 0 -41 4 -41
9 0 4 -11 6 -25 3 -15 -2 -25 0 -25 7 0 6 -13 11 -28 11 -16 0 -32 3 -35 7
-13 12 -106 41 -113 35 -4 -4 -4 -1 0 5 5 9 0 13 -13 13 -11 0 -23 5 -26 10
-4 6 -21 17 -39 24 -43 18 -176 105 -176 116 0 4 -12 11 -26 14 -15 4 -24 9
-21 12 3 3 -13 22 -35 42 -56 50 -97 92 -92 92 3 0 -7 12 -21 27 -14 16 -32
35 -40 44 -8 9 -15 21 -15 27 0 7 -4 12 -8 12 -5 0 -15 12 -23 28 -8 15 -17
29 -20 32 -13 10 -109 216 -109 232 0 10 -4 18 -9 18 -6 0 -8 9 -6 20 2 11 -1
20 -6 20 -6 0 -9 6 -6 13 2 6 -2 27 -10 44 -7 18 -10 33 -7 33 4 0 0 8 -7 17
-12 15 -12 16 1 8 12 -7 13 -6 3 6 -30 37 -33 417 -4 453 6 7 6 18 1 25 -4 8
-4 21 1 30 7 13 29 87 33 111 1 3 4 10 7 15 4 6 10 25 14 43 4 19 11 30 17 26
6 -4 8 -3 5 3 -7 10 47 129 71 156 8 9 12 17 9 17 -4 0 1 9 11 20 9 12 16 23
15 25 -2 3 5 13 15 24 27 30 52 64 52 74 0 4 5 5 10 2 6 -3 10 0 10 7 0 12
106 128 117 128 2 0 17 12 33 28 15 15 38 34 50 42 12 8 28 20 34 26 17 16
136 84 147 84 5 0 9 4 9 9 0 5 14 12 30 16 17 4 30 11 30 17 0 6 3 9 6 5 3 -3
26 3 51 14 25 10 50 16 55 12 6 -3 8 -1 5 4 -6 10 7 14 79 26 11 2 25 6 30 9
10 6 97 20 132 21 12 1 22 6 23 12 0 5 3 4 6 -4 5 -11 7 -11 14 0z"/>
<path d="M1226 2453 c-3 -3 -34 -6 -68 -7 -35 -1 -68 -5 -74 -9 -6 -3 -25 -8
-43 -9 -17 -1 -31 -6 -31 -11 0 -5 -7 -7 -15 -3 -8 3 -15 1 -15 -4 0 -6 -3 -9
-7 -8 -17 3 -83 -15 -83 -23 0 -5 -7 -9 -15 -9 -18 0 -108 -42 -117 -55 -4 -5
-8 -6 -8 -2 0 5 -13 -1 -30 -13 -16 -12 -30 -18 -30 -15 0 4 -7 -1 -16 -10 -9
-9 -29 -24 -43 -33 -38 -24 -46 -31 -112 -93 -32 -30 -60 -54 -62 -53 -1 1
-31 -38 -67 -87 -36 -49 -70 -96 -77 -103 -7 -8 -9 -16 -6 -20 4 -3 1 -6 -5
-6 -6 0 -13 -14 -17 -30 -4 -17 -11 -28 -16 -24 -5 3 -9 -1 -9 -8 0 -7 -6 -24
-13 -38 -7 -14 -24 -56 -36 -95 -13 -38 -26 -77 -29 -85 -7 -21 -7 -19 -17
-75 -4 -27 -9 -61 -9 -75 -1 -14 -5 -28 -11 -32 -6 -5 -5 -8 4 -8 9 0 10 -4 4
-12 -17 -22 -3 -295 17 -348 1 -3 3 -9 4 -15 4 -19 18 -70 23 -85 4 -8 7 -17
7 -20 1 -3 5 -11 9 -17 5 -7 6 -13 2 -13 -3 0 0 -10 7 -22 7 -13 13 -25 13
-28 1 -3 7 -18 13 -33 7 -16 12 -33 12 -38 0 -5 4 -9 9 -9 5 0 13 -10 17 -22
4 -13 20 -42 35 -65 16 -23 29 -44 29 -46 0 -6 41 -55 113 -133 31 -35 57 -61
57 -57 0 3 8 -3 17 -14 26 -28 123 -103 135 -103 5 0 16 -6 23 -12 30 -27 45
-38 47 -36 2 1 38 -15 81 -35 43 -20 85 -37 93 -37 9 0 12 -5 8 -12 -4 -7 -3
-8 5 -4 6 4 28 2 49 -5 20 -7 48 -14 62 -16 14 -2 31 -4 38 -5 6 -1 12 -6 12
-12 0 -6 5 -4 10 4 6 9 10 10 10 3 0 -6 8 -12 18 -12 9 0 76 -2 147 -4 72 -2
135 -2 140 2 6 3 21 6 35 7 14 1 25 2 25 3 0 1 16 4 35 6 19 3 46 7 60 11 14
3 37 7 52 7 14 1 24 5 21 9 -2 5 -1 8 4 9 4 0 16 2 26 5 9 2 23 5 30 7 6 2 22
8 34 15 12 7 29 12 37 12 9 0 16 4 16 9 0 5 14 12 30 16 17 4 30 11 30 16 0 6
5 7 10 4 6 -3 10 -1 10 4 0 6 4 11 10 11 14 0 130 81 130 91 0 5 4 8 8 7 11
-4 128 103 125 113 -2 4 6 11 17 14 11 4 20 11 20 16 0 6 6 16 13 23 6 7 21
25 32 41 11 15 28 36 38 47 9 10 15 18 12 18 -3 0 6 17 20 37 14 21 25 43 25
50 0 7 5 13 11 13 5 0 7 5 4 10 -3 6 -2 10 4 10 5 0 12 14 16 30 4 16 11 30
16 30 5 0 8 3 8 8 -4 18 15 72 24 72 6 0 8 3 4 6 -3 3 0 26 8 50 7 24 11 44 9
44 -3 0 0 8 5 18 16 30 36 242 27 287 -2 11 2 26 8 34 7 10 8 13 0 8 -7 -4
-11 6 -12 26 -2 63 -12 120 -23 134 -9 10 -8 13 1 13 9 0 9 4 2 13 -5 6 -13
28 -17 47 -4 19 -10 40 -13 45 -4 6 -7 15 -8 22 -1 7 -9 26 -17 43 -10 19 -11
28 -4 23 7 -4 6 1 -2 10 -12 16 -57 105 -62 125 -1 4 -9 12 -18 19 -9 7 -11
13 -6 13 7 0 7 3 0 8 -14 10 -67 82 -61 82 3 0 -5 10 -17 23 -12 13 -43 45
-68 73 -60 64 -116 114 -128 114 -5 0 -11 4 -13 9 -2 5 -32 27 -68 50 -36 23
-73 47 -83 54 -10 6 -21 12 -26 12 -4 0 -23 7 -42 16 -54 27 -128 55 -169 64
-49 12 -88 19 -97 17 -7 -2 -13 1 -13 5 0 5 -29 9 -64 8 -35 0 -62 3 -60 6 4
8 -142 10 -150 2z"/>
</g>
</svg>
