<?xml version="1.0" standalone="no"?>
<!DOCTYPE svg PUBLIC "-//W3C//DTD SVG 20010904//EN"
 "http://www.w3.org/TR/2001/REC-SVG-20010904/DTD/svg10.dtd">
<svg version="1.0" xmlns="http://www.w3.org/2000/svg"
 width="261.000000pt" height="261.000000pt" viewBox="0 0 261.000000 261.000000"
 preserveAspectRatio="xMidYMid meet">
<metadata>
Created by potrace 1.11, written by Peter Selinger 2001-2013
</metadata>
<g transform="translate(0.000000,261.000000) scale(0.100000,-0.100000)"
fill="#000000" stroke="none">
<path d="M1288 2605 c-2 -1 -41 -5 -88 -8 -532 -37 -1006 -425 -1149 -941 -21
-74 -27 -105 -41 -196 -9 -59 -6 -305 4 -355 19 -90 27 -135 27 -140 0 -16 66
-182 99 -248 143 -284 389 -510 680 -625 65 -25 160 -53 275 -78 61 -13 339
-12 420 2 528 93 951 497 1060 1014 99 469 -70 960 -436 1265 -209 176 -453
277 -719 301 -36 3 -80 7 -97 8 -18 2 -34 2 -35 1z m212 -69 c14 -3 50 -11 80
-17 30 -6 98 -27 150 -46 298 -110 542 -327 684 -607 93 -184 126 -319 132
-536 3 -134 1 -170 -20 -270 -54 -261 -172 -478 -359 -656 -253 -242 -548
-357 -897 -349 -279 6 -534 98 -747 272 -96 78 -122 104 -190 188 -190 238
-287 520 -278 810 2 61 6 125 9 143 53 343 220 628 485 827 125 95 322 192
430 212 14 2 28 6 32 8 4 3 24 7 45 11 22 3 57 9 79 14 44 8 326 6 365 -4z"/>
<path d="M1159 2456 c-2 -3 -24 -7 -49 -11 -111 -16 -278 -74 -380 -133 -260
-150 -463 -409 -544 -692 -32 -114 -37 -154 -41 -295 -5 -243 53 -450 183
-655 39 -61 110 -150 121 -150 3 0 6 239 6 530 0 469 2 530 15 524 59 -25 219
-83 234 -86 19 -3 19 5 19 200 -1 111 0 202 2 202 1 0 34 -12 71 -26 83 -32
197 -64 203 -58 3 2 4 90 4 194 0 105 1 190 3 190 1 0 23 -9 49 -20 150 -64
346 -65 491 0 26 11 49 18 52 15 3 -2 5 -90 5 -195 -1 -171 1 -190 16 -186 9
3 43 13 76 22 33 9 86 28 118 42 32 14 60 22 63 19 4 -3 6 -95 7 -205 l0 -199
41 13 c77 24 153 52 184 68 17 9 33 16 36 16 3 0 7 -242 8 -537 l3 -537 57 75
c166 218 249 454 249 714 0 117 -8 179 -36 290 -43 167 -103 290 -211 432
-164 214 -425 372 -704 428 -39 8 -345 17 -351 11z"/>
<path d="M1090 1922 l0 -141 73 -7 c119 -13 328 -6 346 11 11 11 7 275 -4 275
-5 -1 -38 -7 -72 -14 -58 -12 -211 -14 -258 -2 -11 2 -35 8 -52 12 l-33 7 0
-141z"/>
<path d="M810 1611 c0 -160 -1 -156 50 -165 14 -3 49 -9 79 -15 30 -6 56 -9
59 -7 2 3 5 68 6 145 l1 139 -80 22 c-44 13 -88 25 -97 27 -17 5 -18 -7 -18
-146z"/>
<path d="M1725 1745 c-22 -8 -58 -19 -81 -24 l-41 -11 0 -145 c0 -98 4 -145
11 -145 6 0 40 7 76 15 36 8 74 17 85 20 19 4 20 12 20 155 0 167 4 160 -70
135z"/>
<path d="M1090 1548 c0 -122 2 -137 18 -141 48 -14 380 -12 399 2 5 3 8 67 8
141 l0 135 -212 0 -213 0 0 -137z"/>
<path d="M543 934 l0 -513 36 -29 c135 -107 333 -200 484 -228 153 -28 287
-31 418 -10 171 28 321 87 465 183 130 86 117 19 116 585 0 271 -1 500 -1 509
-1 15 -12 13 -88 -11 l-88 -28 -1 -450 c0 -247 -4 -453 -7 -459 -4 -6 -24 -10
-44 -9 l-38 2 -1 440 c-1 241 -2 442 -3 446 0 3 -28 0 -61 -8 -33 -7 -73 -15
-90 -16 -17 -1 -32 -9 -34 -18 -2 -8 -4 -178 -4 -377 0 -199 -2 -366 -6 -371
-4 -7 -49 -9 -76 -3 -3 0 -5 164 -4 364 0 199 -2 368 -4 375 -3 10 -16 12 -46
7 -51 -7 -253 -7 -323 0 l-53 6 -2 -378 -3 -378 -40 0 -40 0 -2 370 c-1 204
-2 377 -2 385 -1 9 -9 16 -18 16 -28 1 -97 14 -134 24 -19 6 -35 10 -36 10 -2
0 -3 -200 -3 -445 0 -245 -3 -446 -7 -446 -5 -1 -24 -2 -44 -3 l-36 -2 0 454
c0 257 -4 456 -9 461 -5 4 -46 19 -90 33 l-82 25 1 -513z"/>
</g>
</svg>
