<svg width="440" height="82" viewBox="0 0 440 82" fill="none" xmlns="http://www.w3.org/2000/svg">
<path d="M135.806 39.8636C135.806 39.8636 136.599 39.8636 136.723 40.1584C136.885 40.6595 136.964 41.1836 136.957 41.71C136.957 41.71 136.755 43.2617 136.755 43.572C136.706 44.357 136.586 45.136 136.397 45.8994C136.291 46.6306 135.984 47.3182 135.51 47.8855C135.057 48.4738 134.441 48.9163 133.737 49.1579C133.022 49.2975 132.182 49.7475 131.265 49.9182C130.347 50.0889 129.554 50.0733 128.418 50.1975C127.252 50.3284 126.078 50.3854 124.904 50.3682C123.037 50.3682 120.238 50.3682 120.005 50.3682C119.771 50.3682 112.571 50.1044 111.824 50.0733C110.477 49.8407 109.168 49.4229 107.936 48.832C107.363 48.5164 106.869 48.0765 106.489 47.5447C106.11 47.013 105.855 46.403 105.743 45.7598C105.588 44.565 105.743 40.9032 105.619 39.8326C105.494 38.7619 105.805 29.1107 105.805 29.1107V21.1198L105.992 11.7169L106.194 1.10372C106.14 0.92672 106.14 0.73765 106.194 0.560649C106.303 0.29687 106.365 -0.028973 107.081 0.00205969C107.796 0.0330924 110.813 0.00205969 111.295 0.0951578C112.283 0.169392 113.249 0.427256 114.141 0.855459C114.964 1.31456 115.697 1.9192 116.303 2.63984C117.039 3.4694 117.438 4.54261 117.423 5.65001C117.423 7.20165 117.516 15.6115 117.423 15.9374C117.412 16.415 117.444 16.8927 117.516 17.3649C117.516 17.8304 117.61 30.9106 117.61 30.9106C117.61 30.9106 117.61 34.6966 117.61 35.1311C117.61 35.5656 117.516 37.6137 117.454 38.0637C117.46 38.5722 117.571 39.0741 117.781 39.5377C117.905 39.8015 118.263 39.8946 118.963 39.9256C119.662 39.9567 125.526 39.9256 125.526 39.9256L134.437 40.0187L135.806 39.8636Z" fill="#514736"/>
<path d="M173.629 31.5312C173.589 29.5176 173.328 27.5144 172.852 25.5574C172.441 24.0428 171.921 22.5597 171.296 21.1198C170.765 19.7912 170.001 18.5671 169.041 17.5044C167.57 15.7974 165.67 14.5121 163.536 13.7805C159.205 12.0685 154.373 12.1243 150.083 13.9357C148.852 14.604 147.712 15.428 146.692 16.3873C145.248 17.8554 143.951 19.4612 142.82 21.1818C139.709 25.3557 139.025 32.245 140.596 37.1792C141.546 40.9512 143.49 44.4011 146.226 47.1717C150.518 51.1129 158.668 51.4387 164.111 50.1198C167.439 49.313 169.43 45.9304 170.907 43.122C172.743 39.5358 173.678 35.5578 173.629 31.5312ZM162.634 31.764C162.697 33.728 162.487 35.6913 162.012 37.5981C161.592 39.1498 160.456 42.3461 156.708 42.3461C152.96 42.3461 151.903 38.1567 151.84 37.6912C151.778 37.2257 151.514 31.0502 151.483 30.2123C151.358 26.6746 152.525 21.2284 157.05 21.2284C158.137 21.1069 159.231 21.385 160.127 22.0106C161.023 22.6361 161.66 23.5661 161.918 24.6265C162.356 26.9815 162.596 29.369 162.634 31.764Z" fill="#514736"/>
<path d="M210.83 30.1969C210.83 29.2194 210.628 26.8298 210.441 25.6971C208.886 15.9839 195.729 10.1808 187.269 14.1685C183.894 15.7201 181.219 19.8475 179.492 23.0594C178.749 25.0078 178.36 27.0727 178.341 29.1573C177.876 33.9546 178.492 38.795 180.146 43.3237C181.316 45.3525 182.906 47.1088 184.811 48.4752C188.466 51.1595 194.034 50.8802 197.86 48.8631C198.463 48.4001 199.02 47.8806 199.524 47.3114V47.7924C199.467 48.3166 199.368 48.8355 199.228 49.3441C199.104 49.9647 198.715 52.0905 198.513 52.7422C198.1 53.6637 197.526 54.5044 196.818 55.2248C195.791 55.8734 194.689 56.3945 193.536 56.7764C192.133 57.0877 190.692 57.1871 189.259 57.0712C188.362 57.0522 187.47 56.9325 186.6 56.7143C185.59 56.4382 184.607 56.0748 183.66 55.6282C183.455 55.5642 183.238 55.5436 183.024 55.5676C182.809 55.5916 182.603 55.6598 182.416 55.7678C182.131 56.208 181.891 56.6759 181.701 57.1643C181.246 58.2716 180.861 59.4066 180.55 60.5624C180.395 61.4693 180.333 62.3894 180.363 63.3088C180.457 63.5571 180.457 63.6967 181.203 63.9915C183.968 64.6096 186.767 65.0656 189.586 65.3569C196.196 65.3569 202.867 65.9466 206.896 59.678C207.16 59.259 208.451 56.4506 208.855 55.6282C209.26 54.8058 210.099 50.9733 210.255 50.182C210.41 49.3906 210.753 43.5099 210.753 43.1996C210.753 42.8893 210.861 31.1744 210.83 30.1969ZM199.741 28.1642C199.741 29.84 199.648 35.2242 199.648 35.4259C199.719 36.3384 199.672 37.2563 199.508 38.1568C199.27 39.1075 198.713 39.948 197.929 40.5382C197.145 41.1283 196.182 41.4324 195.2 41.3997C194.181 41.4106 193.184 41.104 192.347 40.5227C191.511 39.9414 190.877 39.1144 190.534 38.1568C190.21 36.5516 189.971 34.9305 189.819 33.3002C189.819 32.4778 190.037 27.916 190.006 27.0936C190.102 25.7082 190.45 24.3517 191.032 23.0904C191.474 22.4418 192.055 21.8992 192.733 21.5021C193.411 21.1049 194.168 20.863 194.951 20.794C195.878 20.8324 196.769 21.1578 197.502 21.725C198.285 22.2809 198.96 22.9751 199.493 23.7731C199.782 25.2179 199.866 26.6961 199.741 28.1642Z" fill="#514736"/>
<path d="M293.351 25.0458C293.256 23.9022 292.977 22.7811 292.527 21.7253C291.706 20.0025 290.602 18.4291 289.261 17.0704C288.037 16.0382 286.737 15.0994 285.373 14.2619C284.704 13.9361 283.071 13.3154 281.998 12.9585C280.549 12.6103 279.07 12.4024 277.581 12.3379C277.581 12.3379 276.368 12.3379 275.715 12.3379C274.197 12.6162 272.708 13.0317 271.267 13.5792C269.951 14.2201 268.744 15.0631 267.69 16.0773C262.899 20.2202 261.717 26.9388 262.075 32.835C262.168 34.3866 262.728 37.4899 263.086 39.3208C264.175 44.8291 269.307 49.9806 274.999 50.4926C279.251 50.8006 283.524 50.3701 287.628 49.2203C288.436 49.0186 291.018 47.6686 291.36 47.56C291.702 47.4514 292.076 46.6446 292.107 46.2101C292.11 45.4962 292.011 44.7855 291.811 44.0999C291.56 43.218 291.253 42.3526 290.894 41.5086C290.631 41.0297 290.215 40.6527 289.712 40.438C289.452 40.4036 289.189 40.4583 288.965 40.5932C288.965 40.5932 288.016 41.0276 287.41 41.3224C286.058 41.6607 284.679 41.8788 283.289 41.9741C282.433 42.0672 280.707 42.0672 280.178 42.0983C279.012 42.0233 277.859 41.8151 276.741 41.4776C275.466 41.1207 273.631 38.1571 273.413 37.5985C273.146 36.8577 273.087 36.0584 273.242 35.2866C273.397 34.697 274.222 34.5573 274.315 34.5263C274.408 34.4952 280.971 34.697 281.096 34.6659C281.22 34.6349 285.248 34.6659 286.617 34.6659C287.985 34.6659 289.463 34.6659 290.551 34.6659C291.179 34.7245 291.812 34.6666 292.418 34.4952C292.837 34.281 293.188 33.9529 293.429 33.5488C293.534 32.8136 293.591 32.0724 293.6 31.3299C293.645 29.2321 293.562 27.1335 293.351 25.0458ZM283.04 27.0629C282.946 27.6215 282.247 27.7767 281.407 27.7146C279.058 27.5439 276.741 27.5594 274.362 27.4198C273.994 27.445 273.625 27.445 273.257 27.4198C273.086 27.4198 273.055 26.4423 273.257 25.294C273.76 23.7877 274.613 22.4213 275.746 21.3063C276.249 20.8209 276.863 20.4643 277.534 20.2668L278.716 20.034C279.11 19.9887 279.51 20.0275 279.888 20.1479C280.266 20.2682 280.614 20.4674 280.909 20.7322C281.787 21.616 282.47 22.673 282.915 23.8355C283.08 24.903 283.122 25.9859 283.04 27.0629Z" fill="#514736"/>
<path d="M300.147 50.0116C300.147 50.0116 299.665 42.6413 299.665 41.7258C299.665 40.8104 300.054 31.7954 300.116 31.0506C300.178 30.3058 300.552 23.1372 300.552 22.3304C300.552 21.5235 300.412 18.7771 300.318 17.6755C300.151 16.7016 299.786 15.7722 299.245 14.9446C299.201 14.8918 299.171 14.8286 299.158 14.7609C299.145 14.6932 299.15 14.6234 299.172 14.5581C299.194 14.4928 299.232 14.4341 299.283 14.3877C299.334 14.3413 299.396 14.3086 299.463 14.2929C300.813 13.8369 302.212 13.5401 303.631 13.4085C304.684 13.4959 305.726 13.6882 306.741 13.9826C307.739 14.3259 308.666 14.8463 309.479 15.5187C309.914 15.8907 310.311 16.3067 310.661 16.76C310.816 16.9617 311.314 16.6359 311.516 16.5273C312.629 15.7204 313.798 14.9944 315.015 14.355C316.255 13.8081 317.548 13.387 318.872 13.0982C320.387 12.9793 321.909 13.0261 323.414 13.2378C324.858 13.7125 326.21 14.4316 327.41 15.3635C328.559 16.2873 329.466 17.4745 330.054 18.8237C330.634 20.1151 330.992 21.4946 331.112 22.9045C331.112 24.1148 331.205 26.9853 331.299 27.4353C331.392 27.8852 331.656 39.6777 331.656 39.6777C331.656 39.6777 331.501 45.5584 331.532 45.7135C331.392 46.5361 331.152 47.3386 330.816 48.1031C330.649 48.5604 330.352 48.9593 329.961 49.2513C329.232 49.5391 328.459 49.7018 327.675 49.7323C326.648 49.7323 324.564 49.903 323.911 49.8564C323.049 49.8655 322.211 49.5685 321.547 49.0185C318.53 46.117 319.603 40.2207 319.494 36.4503C319.494 35.3952 319.494 25.9922 319.292 25.2475C318.84 24.2951 318.078 23.5238 317.13 23.0597C316.237 22.7334 315.256 22.7334 314.362 23.0597C313.351 23.7076 312.407 24.4563 311.547 25.294C311.038 26.1397 310.755 27.1011 310.723 28.087C310.723 29.08 310.847 30.4765 310.878 32.0436C310.909 33.6108 311.174 46.2721 311.174 46.2721C311.174 46.2721 311.174 48.01 311.174 48.1651C311.073 48.5026 310.886 48.8076 310.63 49.0496C310.198 49.4324 309.651 49.6615 309.074 49.7012C308.219 49.7012 305.964 49.8409 305.015 49.8719C304.066 49.903 302.418 49.8719 302.06 49.8719L300.147 50.0116Z" fill="#514736"/>
<path d="M370.133 30.6159C370.144 28.5241 369.894 26.439 369.386 24.4094C368.654 21.9979 367.415 19.7697 365.752 17.8729C364.09 15.976 362.042 14.4541 359.744 13.4083C355.731 11.6084 350.412 12.4152 346.415 13.7651C344.482 14.5942 342.728 15.7905 341.252 17.2873C340.001 18.8395 338.926 20.5256 338.048 22.3146C337.554 23.7781 337.266 25.3029 337.193 26.8454C337.193 27.6988 337.193 32.7261 337.193 33.7036C337.193 34.6812 337.722 37.1017 337.877 38.3586C338.449 40.2252 339.232 42.021 340.21 43.7117C341.267 45.3175 342.606 46.7207 344.16 47.8546C345.85 48.9732 347.694 49.8408 349.635 50.4303C350.898 50.6448 352.179 50.7435 353.461 50.7251C354.896 50.7546 356.328 50.5663 357.706 50.1665C360.889 49.1821 363.723 47.3082 365.871 44.7668C367.157 43.133 368.205 41.3254 368.982 39.3982C369.529 38.1864 369.83 36.8786 369.868 35.5501C370.008 34.5105 370.21 33.564 370.133 30.6159ZM358.453 36.5276C358.378 38.092 357.806 39.592 356.82 40.8101C355.933 41.5549 355.265 42.5945 353.787 42.5635C353.097 42.5087 352.426 42.3122 351.816 41.9865C351.206 41.6607 350.67 41.2127 350.241 40.6705C349.35 38.9678 348.716 37.143 348.359 35.2553C348.219 33.9209 348.359 27.7143 348.359 27.1247C348.615 25.7411 349.098 24.4093 349.79 23.1836C350.442 22.2959 351.254 21.538 352.185 20.9492C352.688 20.78 353.211 20.6757 353.741 20.6389C354.114 20.5847 354.495 20.6049 354.86 20.6981C355.226 20.7913 355.57 20.9557 355.871 21.1819C356.71 21.6186 357.378 22.3234 357.769 23.1836C358.475 24.9255 358.854 26.7821 358.888 28.6608C358.857 30.7555 358.531 35.1312 358.453 36.5276Z" fill="#514736"/>
<path d="M371.486 13.7184C371.824 13.5242 372.201 13.4076 372.59 13.377C373.448 13.2972 374.31 13.2661 375.172 13.2839C377.334 13.4701 381.268 12.2753 382.699 14.5562C383.434 15.8613 384.068 17.2203 384.596 18.6215C384.705 19.0715 385.918 23.7419 385.918 23.7419L389.184 37.1946L389.744 40.2979L390.133 40.391L391.439 33.2069L394.13 22.5316L396.572 14.0752C396.991 13.7671 397.459 13.5311 397.956 13.377C398.765 13.377 407.287 13.0046 406.945 14.5252C406.945 14.7579 406.168 17.6285 405.701 19.056C405.234 20.4835 402.342 29.483 402.342 29.483L398.376 43.4477C398.376 43.4477 396.976 48.025 396.914 48.3353C396.728 48.8424 396.399 49.2846 395.965 49.6077C394.341 49.9057 392.7 50.1026 391.051 50.1973C390.195 50.1973 388.298 49.9801 386.96 49.949C385.513 49.967 384.099 49.515 382.932 48.6612C381.688 47.6837 380.677 44.658 380.413 44.2235C380.148 43.7891 375.638 26.9228 375.638 26.9228L371.688 14.7269C371.688 14.7269 371.221 13.9666 371.486 13.7184Z" fill="#514736"/>
<path d="M420.631 34.9604C421.222 34.9604 422.497 34.9604 423.011 34.9604C423.524 34.9604 431.627 35.3483 432.342 35.3173C433.058 35.2863 435.748 35.3173 436.65 35.1622C437.487 35.0559 438.292 34.7758 439.014 34.3398C439.729 33.9208 439.838 32.7881 439.963 31.8882C440.087 30.9883 439.869 26.2402 439.761 25.061C439.488 23.4578 439.018 21.8943 438.361 20.4061C437.387 18.5455 436.068 16.8868 434.473 15.5184C431.836 13.6814 428.751 12.5879 425.543 12.353C422.335 12.1182 419.123 12.7507 416.245 14.184C408.469 18.2028 408.003 28.2419 408.563 35.7983C408.767 38.1889 409.477 40.5092 410.646 42.606C411.815 44.7029 413.416 46.5287 415.343 47.9631C419.558 51.0664 424.675 50.8492 429.62 50.1975C431.307 49.8465 432.953 49.3266 434.535 48.6459C435.881 48.135 437.182 47.5121 438.423 46.7839C440.678 45.6512 438.236 41.0739 436.666 40.2825C436.075 39.9877 435.313 40.2825 434.084 40.7015C432.42 41.2022 430.72 41.5757 428.998 41.8187C425.172 42.1445 420.227 40.4067 419.667 35.8759C419.651 35.3173 420.04 35.0225 420.631 34.9604ZM419.9 26.504C420.009 25.9454 420.662 23.4008 420.896 22.7491C421.293 21.8957 421.897 21.1544 422.653 20.5923C423.206 20.2699 423.803 20.0295 424.426 19.8785C425.162 19.8751 425.889 20.0341 426.557 20.344C427.43 20.8444 428.179 21.5337 428.75 22.3612C429.138 23.1059 429.403 23.1525 429.527 24.099C429.61 24.9867 429.61 25.8801 429.527 26.7678C429.525 26.8514 429.507 26.9337 429.473 27.0101C429.439 27.0865 429.39 27.1555 429.329 27.2132C429.269 27.2708 429.197 27.3159 429.119 27.346C429.041 27.3761 428.958 27.3905 428.874 27.3885C428.485 27.3885 424.97 27.5436 424.13 27.5126C423.291 27.4816 420.367 27.6212 420.227 27.6212C420.087 27.6212 419.745 27.0626 419.9 26.504Z" fill="#514736"/>
<path d="M258.156 15.9528C258.08 17.391 257.748 18.8043 257.176 20.1267C256.722 21.4827 256.078 22.7678 255.263 23.9438C254.641 25.0068 253.841 25.9565 252.899 26.7522C251.764 27.5591 250.395 28.0556 249.229 28.8004C251.824 30.2279 253.763 32.6025 254.641 35.4259L256.196 40.5618C256.913 42.6022 258.076 44.4574 259.602 45.9925C260.271 46.7528 260.722 46.9545 259.773 47.6372C258.825 48.32 257.425 49.1889 257.238 49.282C256.642 49.5465 256.023 49.7543 255.388 49.9026C254.43 50.135 253.449 50.2547 252.464 50.2595C250.8 50.2155 249.213 49.5512 248.016 48.3975C246.9 47.0023 246.113 45.3742 245.714 43.634L243.117 36.0776C242.716 34.8158 242.005 33.6743 241.048 32.7571C239.896 31.9114 238.478 31.5042 237.051 31.6089C236.041 31.6089 233.941 31.0503 234.081 32.4778V36.2327L233.754 40.6394L234.081 48.6458V49.6544C232.97 49.7573 231.853 49.7936 230.737 49.763C229.96 49.763 229.182 50.0888 228.311 50.0888C226.391 50.2616 224.455 50.1042 222.588 49.6233C222.588 49.6233 222.588 48.5217 222.588 48.4441V37.7223L222.883 13.3151L222.541 0.793367L223.054 0.296844C227.238 0.188229 228.824 0.452007 231.686 0.405458C234.548 0.358909 239.462 0.0796149 241.111 0.0796149C243.302 0.0243892 245.488 0.328414 247.58 0.979563C249.492 1.383 251.289 2.21026 252.837 3.40012C254.457 4.91118 255.739 6.74575 256.601 8.78429C257.581 11.0504 258.109 13.4853 258.156 15.9528ZM234.268 8.76877C233.661 9.52908 234.019 11.5617 234.019 12.3996V22.7025C234.267 22.7345 234.517 22.7345 234.765 22.7025C237.518 22.7025 240.986 22.9973 243.288 21.7094C244.203 21.2392 244.947 20.4961 245.419 19.5837C245.971 18.3295 246.221 16.9639 246.15 15.596C246.219 14.6254 246.094 13.6507 245.781 12.7289C245.469 11.8071 244.976 10.9567 244.33 10.2273C241.873 7.83779 237.985 8.56706 234.999 8.42741C234.857 8.41214 234.714 8.43589 234.585 8.49608C234.456 8.55627 234.346 8.65059 234.268 8.76877Z" fill="#514736"/>
<path d="M44.638 68.5069C45.0517 68.0975 45.6107 67.8678 46.1933 67.8678C46.7759 67.8678 47.3349 68.0975 47.7485 68.5069L58.5107 79.1356C58.9244 79.5449 59.4833 79.7746 60.066 79.7746C60.6486 79.7746 61.2076 79.5449 61.6212 79.1356L64.0162 76.746C64.4265 76.3334 64.6567 75.7757 64.6567 75.1944C64.6567 74.6131 64.4265 74.0554 64.0162 73.6428L53.3007 62.9365C52.8904 62.5238 52.6602 61.9661 52.6602 61.3848C52.6602 60.8036 52.8904 60.2459 53.3007 59.8332L58.4796 54.6663C58.8971 54.2643 59.4546 54.0396 60.0348 54.0396C60.615 54.0396 61.1726 54.2643 61.5901 54.6663L72.3056 65.3725C72.7231 65.7745 73.2807 65.9992 73.8609 65.9992C74.4411 65.9992 74.9986 65.7745 75.4161 65.3725L77.8267 62.9675C78.2296 62.551 78.4548 61.9947 78.4548 61.4159C78.4548 60.837 78.2296 60.2808 77.8267 59.8642L53.3318 35.3019C52.9215 34.8892 52.6913 34.3315 52.6913 33.7502C52.6913 33.169 52.9215 32.6113 53.3318 32.1986L58.5107 27.0316C58.9282 26.6297 59.4858 26.405 60.066 26.405C60.6461 26.405 61.2037 26.6297 61.6212 27.0316L86.2405 51.532C86.6542 51.9413 87.2132 52.171 87.7958 52.171C88.3783 52.171 88.9374 51.9413 89.351 51.532L91.746 49.1424C92.1563 48.7298 92.3865 48.1721 92.3865 47.5908C92.3865 47.0096 92.1563 46.4518 91.746 46.0392L47.7796 2.09685C47.3621 1.69486 46.8046 1.47021 46.2244 1.47021C45.6442 1.47021 45.0866 1.69486 44.6691 2.09685L0.640497 46.0081C0.230215 46.4208 0 46.9785 0 47.5598C0 48.141 0.230215 48.6987 0.640497 49.1114L3.09776 51.532C3.5114 51.9413 4.0704 52.171 4.653 52.171C5.2356 52.171 5.7946 51.9413 6.20823 51.532L44.638 13.1755C45.0517 12.7662 45.6107 12.5365 46.1933 12.5365C46.7759 12.5365 47.3349 12.7662 47.7485 13.1755L52.9274 18.327C53.3303 18.7435 53.5555 19.2997 53.5555 19.8786C53.5555 20.4574 53.3303 21.0137 52.9274 21.4302L14.4976 59.8332C14.0947 60.2497 13.8695 60.806 13.8695 61.3848C13.8695 61.9637 14.0947 62.52 14.4976 62.9365L16.9082 65.3415C17.3257 65.7435 17.8833 65.9681 18.4635 65.9681C19.0437 65.9681 19.6012 65.7435 20.0187 65.3415L44.638 40.8412C45.0517 40.4319 45.6107 40.2022 46.1933 40.2022C46.7759 40.2022 47.3349 40.4319 47.7485 40.8412L52.9274 46.0081C53.3377 46.4208 53.5679 46.9785 53.5679 47.5598C53.5679 48.141 53.3377 48.6987 52.9274 49.1114L28.3703 73.6738C27.96 74.0865 27.7298 74.6442 27.7298 75.2254C27.7298 75.8067 27.96 76.3644 28.3703 76.7771L30.7654 79.1356C31.1828 79.5375 31.7404 79.7622 32.3206 79.7622C32.9008 79.7622 33.4583 79.5375 33.8758 79.1356L44.638 68.5069Z" fill="#8C7D5E"/>
<path d="M257.876 62.6262C258.029 62.6283 258.179 62.673 258.308 62.7553C258.437 62.8375 258.541 62.954 258.607 63.0917C258.921 63.6266 259.11 64.2249 259.161 64.8425C259.212 65.4602 259.124 66.0814 258.903 66.6604C258.467 67.7466 258.063 68.4603 257.627 69.4068C255.965 73.3088 253.279 76.6912 249.851 79.1976C248.837 79.9277 247.759 80.5663 246.632 81.1062C246.509 81.158 246.372 81.1709 246.242 81.1432C246.111 81.1154 245.992 81.0483 245.901 80.951C245.353 80.3412 244.743 79.79 244.081 79.3063C244.033 79.2773 243.993 79.2364 243.965 79.1874C243.937 79.1385 243.923 79.0832 243.923 79.027C243.923 78.9707 243.937 78.9155 243.965 78.8665C243.993 78.8176 244.033 78.7766 244.081 78.7477C245.663 78.0651 247.156 77.1951 248.529 76.1564C249.91 74.9975 251.142 73.6738 252.199 72.2153C253.561 70.4552 254.613 68.4772 255.31 66.3656C255.327 66.3162 255.333 66.2633 255.325 66.2115C255.318 66.1596 255.298 66.1102 255.268 66.0676C255.237 66.025 255.197 65.9903 255.15 65.9665C255.103 65.9428 255.051 65.9307 254.999 65.9312C254.501 65.9312 253.241 65.7294 252.339 65.7294C251.173 65.7294 250.302 65.9312 249.54 65.9312C249.319 65.9318 249.101 65.984 248.904 66.0837C248.707 66.1834 248.536 66.3278 248.405 66.5053C247.382 67.9638 246.231 69.3293 244.968 70.5861C244.531 71.0244 243.947 71.2848 243.329 71.3164C242.71 71.3479 242.103 71.1484 241.624 70.7567C241.484 70.6326 241.328 70.524 241.157 70.3999C241.106 70.3592 241.064 70.3074 241.035 70.2482C241.006 70.1891 240.991 70.1242 240.991 70.0585C240.991 69.9928 241.006 69.9279 241.035 69.8688C241.064 69.8097 241.106 69.7578 241.157 69.7171C242.261 68.8748 243.301 67.9516 244.268 66.9552C245.221 65.8402 246.069 64.6405 246.803 63.371C246.956 63.1271 247.17 62.9264 247.423 62.7879C247.676 62.6494 247.96 62.5777 248.249 62.5796H251.748L257.876 62.6262Z" fill="#514736"/>
<path d="M270.458 64.1777C270.458 65.7293 270.193 67.3896 270.287 69.0033C270.287 69.9653 270.411 70.9428 270.458 71.9204C270.458 72.0479 270.407 72.1703 270.317 72.2605C270.226 72.3507 270.104 72.4014 269.976 72.4014H268.592C268.192 72.4019 267.808 72.2491 267.518 71.9747C267.229 71.7003 267.056 71.3252 267.036 70.9273C267.036 70.167 267.176 69.3757 267.145 68.5999V66.6758V64.0846V61.3537C267.144 61.2815 267.159 61.2099 267.189 61.1439C267.219 61.078 267.263 61.0194 267.317 60.9721C267.372 60.9248 267.437 60.89 267.506 60.8702C267.576 60.8503 267.649 60.8459 267.721 60.8572C268.491 61.011 269.184 61.4256 269.683 62.0307C270.181 62.6358 270.455 63.3943 270.458 64.1777ZM278.234 60.7796C278.233 60.7114 278.247 60.6438 278.275 60.5816C278.303 60.5194 278.345 60.4641 278.397 60.4197C278.449 60.3753 278.51 60.3428 278.576 60.3246C278.642 60.3063 278.711 60.3028 278.778 60.3141C279.582 60.4816 280.304 60.92 280.822 61.5558C281.341 62.1915 281.624 62.9858 281.624 63.8053C281.741 65.5257 281.741 67.2519 281.624 68.9723C281.5 71.622 280.626 74.1826 279.105 76.358C277.963 77.7444 276.563 78.8982 274.984 79.7561C274.278 80.2554 273.48 80.6089 272.635 80.7957C272.044 80.7957 271.718 79.9423 271.515 79.4924C271.428 79.326 271.375 79.1437 271.36 78.9565C271.345 78.7693 271.368 78.581 271.427 78.4028C271.487 78.2246 271.582 78.0603 271.707 77.9196C271.831 77.7788 271.983 77.6647 272.153 77.5838C273.501 77.0431 274.743 76.2711 275.823 75.3029C276.833 74.1952 277.53 72.8408 277.845 71.3773C278.158 70.0114 278.34 68.6191 278.39 67.2189C278.39 65.9 278.172 64.5191 278.172 63.1691L278.234 60.7796Z" fill="#514736"/>
<path d="M301.096 62.4401C299.93 66.8033 297.805 70.8528 294.875 74.2946C293.093 76.2333 290.988 77.8501 288.654 79.0736C288.312 79.2753 287.985 79.4615 287.643 79.6322C287.549 79.7027 287.434 79.7408 287.317 79.7408C287.037 79.7408 286.586 79.0271 286.383 78.8409C286.225 78.6725 286.106 78.4708 286.035 78.2507C285.965 78.0305 285.944 77.7974 285.976 77.5684C286.007 77.3394 286.089 77.1202 286.216 76.927C286.343 76.7337 286.512 76.5712 286.71 76.4513C289.741 74.9783 292.339 72.7496 294.253 69.981C295.285 68.3204 296.13 66.5512 296.772 64.7055C297.195 63.3502 297.487 61.9577 297.643 60.5471C297.651 60.5 297.669 60.4554 297.697 60.4166C297.725 60.3778 297.761 60.3459 297.803 60.3234C297.846 60.3009 297.892 60.2884 297.94 60.2868C297.988 60.2852 298.035 60.2946 298.079 60.3143C299.008 60.7322 299.907 61.2143 300.769 61.7573C300.89 61.8213 300.987 61.9221 301.045 62.045C301.104 62.1679 301.122 62.3064 301.096 62.4401Z" fill="#514736"/>
<path d="M306.446 72.448C306.275 72.2779 306.14 72.076 306.047 71.8536C305.955 71.6313 305.908 71.393 305.908 71.1523C305.908 70.9117 305.955 70.6734 306.047 70.4511C306.14 70.2287 306.275 70.0268 306.446 69.8567C308.406 68.0103 310.07 65.9156 311.874 63.9295C312.183 63.4995 312.588 63.1461 313.056 62.8965C313.523 62.6469 314.043 62.5078 314.573 62.4898C315.103 62.4718 315.631 62.5755 316.114 62.7928C316.598 63.0101 317.026 63.3353 317.364 63.7433C319.137 65.5742 320.474 67.7155 322.138 69.655C323.678 71.4837 325.363 73.1856 327.177 74.7444C327.272 74.8203 327.338 74.9267 327.363 75.0454C327.389 75.1641 327.373 75.288 327.317 75.3961C326.909 76.09 326.452 76.7537 325.949 77.3822C325.903 77.4346 325.847 77.4768 325.784 77.5056C325.721 77.5345 325.653 77.5495 325.583 77.5495C325.514 77.5495 325.445 77.5345 325.382 77.5056C325.319 77.4768 325.263 77.4346 325.218 77.3822C324.051 76.234 322.978 74.9771 321.921 73.7203C321.303 72.9783 320.737 72.1955 320.225 71.3773C319.44 70.3641 318.599 69.3954 317.706 68.4758C315.886 66.2104 315.544 65.9156 314.891 65.9156C313.973 65.9156 313.227 66.7535 312.667 67.4672C312.107 68.181 311.345 69.0188 310.707 69.7947C309.665 71.0825 308.654 72.479 307.877 73.2393C307.781 73.3322 307.653 73.3842 307.519 73.3842C307.386 73.3842 307.257 73.3322 307.161 73.2393L306.446 72.448Z" fill="#514736"/>
<path d="M235.465 66.4119C235.465 64.4879 234.874 62.8276 232.946 62.8276L219.073 62.9363C218.689 62.9363 218.321 63.0883 218.05 63.3589C217.779 63.6295 217.627 63.9966 217.627 64.3793C217.627 64.5965 217.627 64.8137 217.627 65.031C217.735 69.6859 217.751 74.3408 217.627 78.9026C217.627 78.98 217.642 79.0567 217.672 79.1282C217.701 79.1997 217.745 79.2647 217.8 79.3195C217.855 79.3743 217.92 79.4177 217.991 79.4473C218.063 79.4769 218.14 79.4922 218.218 79.4922H234.703C234.905 79.4922 235.099 79.4121 235.242 79.2695C235.385 79.1269 235.465 78.9335 235.465 78.7319L235.263 74.6821L235.465 66.4119ZM231.981 76.4355C231.895 76.4585 231.804 76.4585 231.717 76.4355C229.96 76.5751 228.187 76.6837 226.414 76.6682C224.486 76.7237 222.557 76.5781 220.659 76.2338C220.659 74.6821 220.861 73.1305 220.846 71.5789C220.846 69.7634 220.706 67.9635 220.659 66.1481C220.659 66.0041 220.717 65.866 220.819 65.7641C220.921 65.6623 221.059 65.6051 221.204 65.6051H221.888C223.443 65.6051 223.801 65.4189 225.325 65.4189H228.327C228.871 65.4189 230.162 65.5895 230.691 65.6516C230.86 65.6475 231.029 65.6767 231.187 65.7377C231.345 65.7986 231.49 65.89 231.613 66.0068C231.735 66.1235 231.834 66.2632 231.902 66.4179C231.971 66.5726 232.008 66.7393 232.012 66.9084C232.059 67.7146 232.059 68.5228 232.012 69.329C232.012 70.1824 232.012 71.0203 232.012 71.8582C232.012 72.696 232.012 73.4098 232.012 74.2011V75.3648C231.997 75.6131 232.199 76.2803 231.981 76.4355Z" fill="#514736"/>
<path d="M324.44 62.269C324.815 62.6629 325.168 63.0773 325.498 63.5103L325.109 63.9292C324.978 64.0727 324.818 64.1873 324.64 64.2658C324.462 64.3442 324.269 64.3847 324.075 64.3847C323.88 64.3847 323.687 64.3442 323.509 64.2658C323.331 64.1873 323.172 64.0727 323.04 63.9292C322.563 63.4061 322.043 62.9234 321.485 62.4862L321.656 62.3C321.832 62.1067 322.045 61.9516 322.284 61.8446C322.522 61.7375 322.78 61.6808 323.041 61.6779C323.303 61.6749 323.562 61.7259 323.803 61.8277C324.043 61.9294 324.26 62.0796 324.44 62.269Z" fill="#514736"/>
<path d="M326.788 60.0348C327.177 60.4382 327.566 60.8417 327.846 61.1675C327.704 61.2886 327.568 61.4181 327.442 61.5554C327.308 61.6948 327.148 61.8058 326.97 61.8816C326.792 61.9574 326.601 61.9965 326.407 61.9965C326.214 61.9965 326.023 61.9574 325.845 61.8816C325.667 61.8058 325.507 61.6948 325.373 61.5554C324.923 61.0728 324.446 60.6169 323.942 60.19L324.051 60.0814C324.409 59.715 324.898 59.5046 325.41 59.4959C325.923 59.4872 326.418 59.6809 326.788 60.0348Z" fill="#514736"/>
<path d="M258.374 59.1968C258.778 59.5806 259.162 59.9845 259.525 60.407C259.338 60.5312 258.934 60.7484 258.483 61.0587C258.278 61.198 258.031 61.259 257.785 61.2305C257.539 61.202 257.312 61.0859 257.145 60.9036C256.67 60.3448 256.15 59.8258 255.59 59.3519L256.056 58.9951C256.406 58.7535 256.828 58.6414 257.252 58.6783C257.675 58.7151 258.072 58.8985 258.374 59.1968Z" fill="#514736"/>
<path d="M262.355 58.5143C262.759 58.9488 263.117 59.3677 263.335 59.647L262.262 60.3608C262.081 60.4828 261.86 60.53 261.645 60.4924C261.431 60.4547 261.239 60.3352 261.111 60.1591C260.619 59.5042 260.067 58.8964 259.462 58.3437L259.618 58.235C260.027 57.9318 260.534 57.7924 261.041 57.844C261.548 57.8957 262.016 58.1349 262.355 58.5143Z" fill="#514736"/>
</svg>
