<svg width="744" height="201" viewBox="0 0 744 201" fill="none" xmlns="http://www.w3.org/2000/svg">
<path d="M673.061 136.061C673.646 135.475 673.646 134.525 673.061 133.939L663.515 124.393C662.929 123.808 661.979 123.808 661.393 124.393C660.808 124.979 660.808 125.929 661.393 126.515L669.879 135L661.393 143.485C660.808 144.071 660.808 145.021 661.393 145.607C661.979 146.192 662.929 146.192 663.515 145.607L673.061 136.061ZM57 136.5H672V133.5H57V136.5Z" fill="#514736"/>
<rect x="674.5" y="124.5" width="19" height="20" fill="#F9DA62" stroke="#514736" stroke-width="3"/>
<path d="M641.507 176.522L640.401 175.486C640.135 175.57 639.365 175.612 638.973 175.612H631.427C630.839 175.612 630.251 175.556 629.719 175.472V177.418C630.377 177.362 630.839 177.32 631.427 177.32H638.721C638.357 178.006 637.265 179.238 636.145 179.924L637.601 181.086C638.973 180.106 640.303 178.342 640.961 177.25C641.087 177.04 641.353 176.704 641.507 176.522ZM635.795 178.412H633.765C633.835 178.86 633.863 179.238 633.863 179.672C633.863 181.968 633.527 183.452 631.749 184.684C631.231 185.062 630.727 185.3 630.279 185.454L631.917 186.784C635.725 184.74 635.795 181.884 635.795 178.412ZM654.583 176.676L653.211 175.794C652.833 175.892 652.385 175.906 652.105 175.906H645.637C645.175 175.906 644.377 175.836 643.957 175.794V177.768C644.321 177.74 644.993 177.712 645.623 177.712H652.147C651.965 178.902 651.433 180.498 650.509 181.66C649.375 183.074 647.793 184.292 645.021 184.95L646.547 186.616C649.039 185.818 650.901 184.432 652.175 182.752C653.337 181.198 653.953 179.028 654.275 177.656C654.345 177.362 654.457 176.956 654.583 176.676ZM664.103 174.912L662.073 174.282C661.947 174.758 661.653 175.402 661.429 175.738C660.729 176.956 659.427 178.874 656.977 180.4L658.489 181.562C659.903 180.582 661.205 179.238 662.185 177.936H666.189C665.979 178.804 665.377 180.022 664.649 181.03C663.767 180.442 662.885 179.868 662.143 179.448L660.897 180.722C661.611 181.17 662.535 181.8 663.445 182.472C662.283 183.634 660.729 184.768 658.307 185.51L659.931 186.924C662.115 186.098 663.711 184.908 664.943 183.606C665.517 184.068 666.035 184.502 666.413 184.852L667.743 183.27C667.337 182.934 666.791 182.528 666.189 182.094C667.183 180.694 667.883 179.196 668.261 178.062C668.387 177.712 668.569 177.334 668.723 177.068L667.295 176.186C666.987 176.284 666.511 176.34 666.077 176.34H663.235C663.403 176.032 663.753 175.402 664.103 174.912ZM671.425 179.518V181.716C671.943 181.674 672.881 181.646 673.679 181.646H681.197C681.785 181.646 682.499 181.702 682.835 181.716V179.518C682.471 179.546 681.855 179.602 681.197 179.602H673.679C672.951 179.602 671.929 179.56 671.425 179.518ZM694.335 179.812V179.35H695.371C696.113 179.35 696.603 179.364 696.911 179.392V177.53C696.533 177.6 696.113 177.628 695.371 177.628H694.335V176.158C694.335 175.598 694.391 175.136 694.433 174.856H692.431C692.473 175.136 692.515 175.598 692.515 176.158V177.628H689.197V176.242C689.197 175.696 689.239 175.248 689.281 174.982H687.293C687.335 175.402 687.377 175.836 687.377 176.242V177.628H686.187C685.487 177.628 684.913 177.544 684.675 177.502V179.406C684.983 179.378 685.487 179.35 686.187 179.35H687.377V181.254C687.377 181.884 687.335 182.444 687.293 182.724H689.253C689.239 182.444 689.197 181.87 689.197 181.254V179.35H692.515V179.882C692.515 183.326 691.325 184.53 688.623 185.468L690.121 186.882C693.495 185.398 694.335 183.284 694.335 179.812ZM699.151 179.518V181.716C699.669 181.674 700.607 181.646 701.405 181.646H708.923C709.511 181.646 710.225 181.702 710.561 181.716V179.518C710.197 179.546 709.581 179.602 708.923 179.602H701.405C700.677 179.602 699.655 179.56 699.151 179.518ZM722.195 174.66L721.089 175.108C721.467 175.654 721.901 176.48 722.181 177.054L723.315 176.578C723.049 176.06 722.545 175.178 722.195 174.66ZM723.847 174.03L722.741 174.478C723.133 175.01 723.581 175.822 723.875 176.41L724.981 175.934C724.743 175.444 724.225 174.548 723.847 174.03ZM716.161 175.262H714.089C714.159 175.682 714.201 176.41 714.201 176.718V184.348C714.201 185.552 714.901 186.224 716.119 186.448C716.721 186.546 717.561 186.602 718.471 186.602C720.011 186.602 722.139 186.504 723.455 186.308V184.264C722.307 184.572 720.039 184.754 718.583 184.754C717.953 184.754 717.379 184.726 716.959 184.67C716.329 184.544 716.049 184.39 716.049 183.788V181.198C717.869 180.75 720.123 180.05 721.537 179.49C721.999 179.322 722.629 179.056 723.175 178.832L722.419 177.054C721.873 177.39 721.397 177.614 720.893 177.81C719.647 178.342 717.701 178.958 716.049 179.364V176.718C716.049 176.326 716.091 175.682 716.161 175.262ZM737.539 176.508L736.391 175.654C736.111 175.752 735.551 175.836 734.949 175.836H730.007C729.587 175.836 728.733 175.794 728.355 175.738V177.726C728.649 177.712 729.419 177.628 730.007 177.628H734.753C734.445 178.622 733.591 180.008 732.667 181.058C731.351 182.528 729.181 184.236 726.927 185.076L728.369 186.588C730.287 185.678 732.149 184.222 733.633 182.654C734.949 183.928 736.251 185.356 737.161 186.616L738.757 185.23C737.931 184.222 736.237 182.43 734.851 181.226C735.789 179.966 736.573 178.468 737.049 177.376C737.175 177.096 737.427 176.662 737.539 176.508Z" fill="black"/>
<rect x="630.5" y="1.5" width="107" height="107" fill="#F9DA62" stroke="#514736" stroke-width="3"/>
<path d="M707.108 75.5928L698.062 72.5781H669.937L660.892 75.5928C651.598 78.6918 645.328 88.4441 645.328 98.2422H722.672C722.672 88.4441 716.402 78.6918 707.108 75.5928Z" fill="#F2994A"/>
<path d="M701.517 38.3676L697.359 37.7734C690.97 36.8611 685.048 33.8992 680.484 29.3359C676.058 29.3359 671.89 31.4207 669.234 34.9609L666.492 38.6172C666.635 42.7217 667.007 46.9615 667.607 50.957C668.353 55.8961 668.978 60.5462 673.871 64.7875L673.784 64.8859C672.495 67.4638 671.213 70.0274 669.938 72.5781C672.217 79.4121 675.61 85.9974 680.124 92.0195L684 98.2422L687.876 92.0195C689.621 89.6922 691.214 87.2594 692.645 84.7387C694.839 80.8768 696.653 76.8039 698.062 72.5781L694.216 64.8859L694.129 64.7875C697.078 62.2229 699.135 58.5789 699.787 54.6678C700.13 52.5988 700.249 51.9391 700.404 50.8867C701.01 46.8314 701.381 42.5266 701.518 38.3676H701.517Z" fill="white"/>
<path d="M701.517 38.3676L697.359 37.7734C690.97 36.8611 685.048 33.8992 680.484 29.3359C676.058 29.3359 671.89 31.4207 669.234 34.9609L666.492 38.6172C666.635 42.7217 667.007 46.9615 667.607 50.957C668.353 55.8961 668.978 60.5462 673.871 64.7875L673.784 64.8859C672.495 67.4638 684.176 75.2148 684.176 75.2148L694.216 64.8859L694.129 64.7875C697.078 62.2229 699.135 58.5789 699.787 54.6678C700.13 52.5988 700.249 51.9391 700.404 50.8867C701.01 46.8314 701.379 42.5266 701.517 38.3676Z" fill="white"/>
<path d="M708.61 36.3672V47.4414C708.61 49.3838 707.036 50.957 705.094 50.957H700.875L700.404 50.8867C701.01 46.8314 701.381 42.5266 701.519 38.3676C701.541 37.6961 701.557 37.0299 701.564 36.3672H701.578H708.61Z" fill="#3CBCCF"/>
<path d="M685.573 18.7891C694.41 18.7891 701.583 26.0207 701.578 34.8572C701.578 35.746 701.56 37.1603 701.518 38.3676C696.882 37.7052 697.399 37.7791 697.359 37.7734C690.97 36.8611 685.048 33.8992 680.484 29.3359C676.058 29.3359 671.89 31.4207 669.234 34.9609L666.492 38.6172C666.446 37.3906 666.422 35.9573 666.422 34.8572C666.417 26.0207 673.59 18.7891 682.427 18.7891H684H685.573Z" fill="#D3A06C"/>
<path d="M684 54.4727C685.942 54.4727 687.516 56.0459 687.516 57.9883C687.516 59.9289 685.941 61.5039 684 61.5039H680.484C678.542 61.5039 676.969 59.9307 676.969 57.9883C676.969 56.0477 678.544 54.4727 680.484 54.4727H684Z" fill="#3CBCCF"/>
<path d="M667.607 50.957H662.906C660.964 50.957 659.391 49.3838 659.391 47.4414V36.3672H666.422H666.436C666.445 37.1107 666.464 37.8613 666.492 38.6172C666.635 42.7217 667.007 46.9615 667.607 50.957Z" fill="#3CBCCF"/>
<path d="M703.336 83.125C704.306 83.125 705.094 82.3375 705.094 81.3672C705.094 80.3969 704.306 79.6094 703.336 79.6094C702.366 79.6094 701.578 80.3969 701.578 81.3672C701.578 82.3375 702.366 83.125 703.336 83.125Z" fill="black"/>
<path d="M645.328 100H722.672C723.643 100 724.43 99.213 724.43 98.2422C724.43 87.3914 717.379 77.1646 707.664 73.9251L699.309 71.1408L696.31 65.1419C699.012 62.3916 700.888 58.7526 701.521 54.9569L701.895 52.7148H705.094C708.002 52.7148 710.367 50.3492 710.367 47.4414V36.3672C710.367 21.8283 698.539 10 684 10C669.424 10 657.633 21.7944 657.633 36.3672V47.4414C657.633 49.7329 659.103 51.6869 661.148 52.4125V54.4727C661.148 57.3804 663.514 59.7461 666.422 59.7461H667.966C668.728 61.4014 669.714 62.9346 670.914 64.3118C671.163 64.598 671.423 64.8754 671.689 65.1452L668.691 71.1408L660.336 73.9253C650.621 77.1646 643.57 87.3914 643.57 98.2422C643.57 99.213 644.357 100 645.328 100ZM684 94.9175L681.616 91.0902C681.589 91.0473 681.561 91.0056 681.531 90.9652C680.107 89.0664 678.779 87.0806 677.57 85.048L683.839 78.4186L690.444 85.0241C689.227 87.0715 687.894 89.0655 686.47 90.9648C686.384 91.0796 686.506 90.8988 684 94.9175ZM692.223 81.8305L686.255 75.8631L693.767 67.9189L696.159 72.7017C695.075 75.8373 693.756 78.896 692.223 81.8305ZM683.768 73.3763L680.337 69.9442C681.542 70.1982 682.771 70.3281 684 70.3281C684.962 70.3281 685.924 70.2476 686.875 70.0915L683.768 73.3763ZM673.935 68.5144L681.352 75.9319L675.776 81.8279C674.242 78.8899 672.923 75.8322 671.841 72.7019L673.935 68.5144ZM720.844 96.4844H687.166L689.328 93.013C691.091 90.6576 692.721 88.1661 694.173 85.607C694.182 85.5916 694.19 85.5757 694.199 85.5603C694.2 85.5583 694.201 85.5566 694.202 85.5546C696.146 82.1269 697.807 78.5151 699.153 74.7946L706.552 77.2604C714.352 79.8613 720.147 87.7763 720.844 96.4844ZM662.906 49.1992C661.937 49.1992 661.148 48.4107 661.148 47.4414V38.125H664.716C664.722 38.3083 664.728 38.4926 664.735 38.678C664.735 38.6843 664.736 38.6905 664.736 38.6968C664.736 38.6973 664.736 38.6979 664.736 38.6984C664.859 42.2267 665.153 45.8142 665.59 49.199H662.906V49.1992ZM699.807 36.3303C699.807 36.3359 699.806 36.3417 699.806 36.3475L697.608 36.0334C691.635 35.1805 685.995 32.3606 681.727 28.093C681.398 27.7634 680.951 27.5781 680.484 27.5781C675.764 27.5781 671.245 29.729 668.257 33.3627C668.994 26.2051 675.044 20.5469 682.427 20.5469H685.573C693.45 20.5469 699.825 26.9894 699.82 34.8572C699.82 35.4104 699.816 35.892 699.807 36.3303ZM706.852 47.4414C706.852 48.4107 706.063 49.1992 705.094 49.1992H702.411C702.858 45.7381 703.156 42.0549 703.275 38.4273C703.279 38.325 703.282 38.2255 703.285 38.125H706.852V47.4414ZM684 13.5156C696.009 13.5156 705.884 22.8271 706.785 34.6094H703.333C703.207 24.9015 695.301 17.0312 685.573 17.0312H682.427C672.699 17.0312 664.793 24.9015 664.667 34.6094H661.215C662.106 22.8283 671.937 13.5156 684 13.5156ZM664.664 54.4727V52.7148H666.105L666.479 54.9576C666.551 55.3839 666.638 55.8086 666.74 56.2305H666.422C665.453 56.2305 664.664 55.4419 664.664 54.4727ZM675.513 59.7461C676.239 61.792 678.193 63.2617 680.484 63.2617H684C686.914 63.2617 689.273 60.902 689.273 57.9883C689.273 55.0805 686.908 52.7148 684 52.7148H680.484C678.142 52.7148 676.217 54.228 675.51 56.2305H670.384C669.504 53.3032 668.497 44.6899 668.275 39.1704L670.64 36.0158C672.813 33.1196 676.194 31.3202 679.79 31.1136C684.521 35.6164 690.642 38.5899 697.111 39.5135L699.698 39.8833C699.526 43.5545 699.172 47.2386 698.666 50.6267C698.665 50.6278 698.665 50.629 698.665 50.6303C698.504 51.7196 698.377 52.4206 698.053 54.3786C697.122 59.9623 692.956 65.0116 687.456 66.3868C685.192 66.9519 682.807 66.9517 680.545 66.3868C677.111 65.5282 673.962 63.152 671.93 59.7461H675.513ZM678.727 57.9883C678.727 57.0178 679.514 56.2305 680.484 56.2305H684C684.969 56.2305 685.758 57.019 685.758 57.9883C685.758 58.9589 684.97 59.7461 684 59.7461H680.484C679.515 59.7461 678.727 58.9575 678.727 57.9883ZM661.448 77.2604L668.847 74.7946C670.203 78.5431 671.882 82.1865 673.85 85.6473C673.854 85.6533 673.857 85.6592 673.86 85.665C673.86 85.6652 673.86 85.6652 673.86 85.6654C675.298 88.1947 676.917 90.6664 678.672 93.0129L680.834 96.4844H647.156C647.853 87.7763 653.648 79.8613 661.448 77.2604Z" fill="black"/>
<path d="M708.441 86.116C710.103 87.3944 711.477 89.0631 712.416 90.9417C712.85 91.8116 713.907 92.1618 714.774 91.7287C715.642 91.2948 715.994 90.2391 715.561 89.3706C714.386 87.0191 712.665 84.9302 710.585 83.3295C709.815 82.7373 708.711 82.8813 708.12 83.6508C707.528 84.4204 707.672 85.5239 708.441 86.116Z" fill="black"/>
<rect x="518.5" y="124.5" width="19" height="20" fill="#F9DA62" stroke="#514736" stroke-width="3"/>
<path d="M519.936 181.338L519.964 179.938V179.308H517.444C517.458 178.818 517.472 178.314 517.486 177.81H520.16C520.02 177.992 519.866 178.16 519.712 178.314C520.076 178.566 520.692 179.182 520.958 179.49L521.084 179.35V180.806L519.936 181.338ZM523.352 185.79C522.652 185.79 522.554 185.706 522.554 185.132V181.758L523.31 181.408V184.67H524.696V180.764L525.592 180.344C525.578 181.674 525.578 182.444 525.55 182.57C525.536 182.752 525.466 182.78 525.354 182.78C525.242 182.78 525.046 182.78 524.878 182.766C525.032 183.074 525.144 183.606 525.172 183.984C525.55 183.984 525.998 183.97 526.334 183.83C526.712 183.676 526.908 183.368 526.936 182.864C526.978 182.444 526.978 181.016 526.992 179.028L527.048 178.804L526.012 178.44L525.76 178.622L525.704 178.664L524.696 179.126V177.768H523.31V179.77L522.554 180.12V178.776H521.532C521.826 178.37 522.092 177.908 522.33 177.418H527.356V175.906H522.96C523.114 175.43 523.268 174.94 523.38 174.45L521.742 174.142C521.49 175.29 521.07 176.41 520.496 177.32V176.27H518.312V174.156H516.716V176.27H514.574V177.81H515.918C515.876 181.044 515.75 184.124 514.364 186.042C514.77 186.308 515.288 186.812 515.554 187.204C516.716 185.608 517.164 183.34 517.36 180.82H518.452C518.396 184.11 518.312 185.286 518.13 185.566C518.018 185.748 517.906 185.79 517.724 185.79C517.542 185.79 517.15 185.79 516.716 185.734C516.94 186.14 517.094 186.756 517.122 187.218C517.682 187.218 518.214 187.232 518.564 187.148C518.942 187.078 519.208 186.938 519.46 186.574C519.782 186.126 519.88 184.782 519.936 181.352L520.51 182.71L521.084 182.444V185.132C521.084 186.728 521.532 187.176 523.184 187.176H525.634C526.992 187.176 527.412 186.644 527.594 184.894C527.188 184.796 526.586 184.558 526.25 184.32C526.166 185.552 526.054 185.79 525.508 185.79H523.352ZM535.91 184.572V177.334H540.614V175.598H529.428V177.334H534.006V184.572H528.672V186.252H541.398V184.572H535.91Z" fill="black"/>
<rect x="474.5" y="1.5" width="107" height="107" fill="#F9DA62" stroke="#514736" stroke-width="3"/>
<path d="M531.628 38.125H513.938H488.625V67.3609C490.059 64.9844 491.972 62.9312 494.25 61.3422V43.75H508.312V58.0094C510.295 58.2906 512.18 58.8812 513.938 59.7109C518.93 62.0875 522.769 66.4891 524.372 71.875H531.628C532.922 67.5578 535.636 63.8594 539.25 61.3422V48.6578C535.636 46.1406 532.922 42.4422 531.628 38.125Z" fill="white"/>
<path d="M550.5 12.8125C561.37 12.8125 570.188 21.6297 570.188 32.5C570.188 43.3703 561.37 52.1875 550.5 52.1875C546.323 52.1875 542.442 50.8797 539.25 48.6578C535.636 46.1406 532.922 42.4422 531.628 38.125C531.094 36.3391 530.812 34.4547 530.812 32.5C530.812 29.9266 531.305 27.4797 532.205 25.2297C535.102 17.9453 542.203 12.8125 550.5 12.8125Z" fill="white"/>
<path d="M550.5 57.8125C561.37 57.8125 570.188 66.6297 570.188 77.5C570.188 88.3703 561.37 97.1875 550.5 97.1875C539.63 97.1875 530.812 88.3703 530.812 77.5C530.812 75.5453 531.094 73.6609 531.628 71.875C532.922 67.5578 535.636 63.8594 539.25 61.3422C542.442 59.1203 546.323 57.8125 550.5 57.8125Z" fill="white"/>
<path d="M559.514 38.9547C560.048 39.475 560.344 40.1922 560.344 40.9375C560.344 41.6828 560.048 42.4 559.514 42.9203C558.994 43.4547 558.277 43.75 557.531 43.75C556.786 43.75 556.069 43.4547 555.548 42.9203L547.434 34.8203C546.633 35.1297 545.775 35.3125 544.875 35.3125C540.994 35.3125 537.844 32.1625 537.844 28.2812L539.25 26.875L542.062 29.6875C544.397 29.6875 546.281 27.8031 546.281 25.4688L543.469 22.6562L544.875 21.25C548.756 21.25 551.906 24.4 551.906 28.2812C551.906 29.1813 551.723 30.0391 551.414 30.8406L559.514 38.9547Z" fill="#FCD770"/>
<path d="M560.344 67.6562C560.344 72.2969 559.458 76.9094 557.728 81.2125L557.531 81.7188L551.906 76.0938L546.281 70.4688L546.788 70.2719C551.091 68.5422 555.703 67.6562 560.344 67.6562Z" fill="#FCD770"/>
<path d="M546.858 81.1422C547.392 81.6625 547.688 82.3797 547.688 83.125C547.688 83.8703 547.392 84.5875 546.858 85.1078L544.045 87.9203C543.525 88.4547 542.808 88.75 542.062 88.75C541.317 88.75 540.6 88.4547 540.08 87.9203C539.545 87.4 539.25 86.6828 539.25 85.9375C539.25 85.1922 539.545 84.475 540.08 83.9547L542.892 81.1422C543.413 80.6078 544.13 80.3125 544.875 80.3125C545.62 80.3125 546.337 80.6078 546.858 81.1422Z" fill="white"/>
<path d="M519.562 46.5625H533.625V57.8125H519.562V46.5625Z" fill="#3CBCCF"/>
<path d="M524.372 71.875C524.906 73.6609 525.188 75.5453 525.188 77.5C525.188 88.3703 516.37 97.1875 505.5 97.1875C494.63 97.1875 485.812 88.3703 485.812 77.5C485.812 73.8016 486.839 70.3281 488.625 67.3609C490.059 64.9844 491.972 62.9312 494.25 61.3422C497.442 59.1203 501.323 57.8125 505.5 57.8125C506.456 57.8125 507.398 57.8828 508.312 58.0094C510.295 58.2906 512.18 58.8812 513.938 59.7109C518.93 62.0875 522.769 66.4891 524.372 71.875Z" fill="white"/>
<path d="M513.938 66.25C515.484 66.25 516.75 67.5156 516.75 69.0625C516.75 69.8359 516.441 70.5391 515.92 71.0453C515.414 71.5656 514.711 71.875 513.938 71.875H502.688C501.141 71.875 499.875 70.6094 499.875 69.0625C499.875 68.2891 500.184 67.5859 500.705 67.0797C501.211 66.5594 501.914 66.25 502.688 66.25H513.938Z" fill="#FCD770"/>
<path d="M530.812 32.5H485.812V38.125H531.628C531.094 36.3391 530.812 34.4547 530.812 32.5Z" fill="#F2994A"/>
<path d="M523.767 19.0141L516.483 13.6422C515.737 13.1078 514.852 12.8125 513.938 12.8125C513.023 12.8125 512.138 13.1078 511.392 13.6422L500.93 21.3625L485.812 32.5H530.812C530.812 29.9266 531.305 27.4797 532.205 25.2297L523.767 19.0141Z" fill="#F2994A"/>
<path d="M508.312 85.9375V88.75C508.312 90.2969 507.047 91.5625 505.5 91.5625C503.953 91.5625 502.688 90.2969 502.688 88.75V85.9375C502.688 84.3906 503.953 83.125 505.5 83.125C506.273 83.125 506.977 83.4344 507.483 83.9547C508.003 84.4609 508.312 85.1641 508.312 85.9375Z" fill="white"/>
<path d="M508.312 43.75V58.0094C507.398 57.8828 506.456 57.8125 505.5 57.8125C501.323 57.8125 497.442 59.1203 494.25 61.3422V43.75H508.312Z" fill="#AAB2BD"/>
<path d="M550.5 56.4062C546.945 56.4062 543.598 57.2992 540.656 58.8587V51.1427C543.598 52.7008 546.945 53.5938 550.5 53.5938C562.131 53.5938 571.594 44.1311 571.594 32.5C571.594 20.8689 562.131 11.4062 550.5 11.4062C542.255 11.4062 535.12 16.172 531.652 23.0823L517.31 12.513C515.369 11.0842 512.506 11.0828 510.565 12.5144L484.406 31.7898V39.5312H487.219V67.0206C485.44 70.113 484.406 73.6848 484.406 77.5C484.406 89.1311 493.869 98.5938 505.5 98.5938C517.131 98.5938 526.594 89.1311 526.594 77.5C526.594 76.0558 526.446 74.6453 526.169 73.2812H529.832C529.554 74.6453 529.406 76.0558 529.406 77.5C529.406 89.1311 538.869 98.5938 550.5 98.5938C562.131 98.5938 571.594 89.1311 571.594 77.5C571.594 65.8689 562.131 56.4062 550.5 56.4062ZM550.5 14.2188C560.58 14.2188 568.781 22.42 568.781 32.5C568.781 42.58 560.58 50.7812 550.5 50.7812C540.42 50.7812 532.219 42.58 532.219 32.5C532.219 22.42 540.42 14.2188 550.5 14.2188ZM529.478 33.9062C529.541 34.8597 529.645 35.8033 529.832 36.7188H515.344V33.9062H529.478ZM521.731 19.2644L518.156 23.5534V28.2812H520.969V26.3378L524.559 28.1322L525.818 25.6164L521.782 23.5984L524.001 20.935L530.535 25.75C529.96 27.4459 529.603 29.2361 529.479 31.0923H515.344V14.628C515.441 14.6814 515.552 14.7109 515.642 14.777L521.731 19.2644ZM512.233 14.7784C512.323 14.7123 512.433 14.6828 512.531 14.6294V31.0938H490.09L500.333 23.5464L501.686 26.702L509.443 28.2545L509.996 25.4969L503.69 24.2369L502.659 21.8336L512.233 14.7784ZM487.219 33.9062H512.531V36.7188H487.219V33.9062ZM490.031 39.5312H512.531V57.6367C511.617 57.3119 510.685 57.0278 509.719 56.8309V42.3438H492.844V60.6644C491.831 61.428 490.89 62.2773 490.031 63.2069V39.5312ZM506.906 56.478C506.439 56.447 505.975 56.4062 505.5 56.4062C501.945 56.4062 498.598 57.2992 495.656 58.8587V45.1562H506.906V56.478ZM505.5 95.7812C495.42 95.7812 487.219 87.58 487.219 77.5C487.219 67.42 495.42 59.2188 505.5 59.2188C515.58 59.2188 523.781 67.42 523.781 77.5C523.781 87.58 515.58 95.7812 505.5 95.7812ZM525.363 70.4688C523.586 65.4625 519.984 61.3183 515.344 58.8587V39.5312H530.637C531.361 41.5689 532.386 43.4603 533.664 45.1562H518.156V59.2188H535.031V46.7931C535.89 47.7227 536.831 48.572 537.844 49.3356V60.6658C534.566 63.1352 532.036 66.5312 530.637 70.4688H525.363ZM532.219 47.9688V56.4062H520.969V47.9688H532.219ZM550.5 95.7812C540.42 95.7812 532.219 87.58 532.219 77.5C532.219 67.42 540.42 59.2188 550.5 59.2188C560.58 59.2188 568.781 67.42 568.781 77.5C568.781 87.58 560.58 95.7812 550.5 95.7812Z" fill="black"/>
<path d="M513.938 64.8438H502.688C500.857 64.8438 499.31 66.0236 498.727 67.6562H492.844V75.7858L504.094 78.5983V81.9775C502.461 82.5597 501.281 84.1066 501.281 85.9375V88.75C501.281 91.0759 503.174 92.9688 505.5 92.9688C507.826 92.9688 509.719 91.0759 509.719 88.75V85.9375C509.719 84.1066 508.539 82.5597 506.906 81.9775V76.4003L495.656 73.5878V70.4688H498.727C499.31 72.1014 500.857 73.2812 502.688 73.2812H513.938C516.263 73.2812 518.156 71.3884 518.156 69.0625C518.156 66.7366 516.263 64.8438 513.938 64.8438ZM506.906 88.75C506.906 89.5263 506.275 90.1562 505.5 90.1562C504.725 90.1562 504.094 89.5263 504.094 88.75V85.9375C504.094 85.1612 504.725 84.5312 505.5 84.5312C506.275 84.5312 506.906 85.1612 506.906 85.9375V88.75ZM513.938 70.4688H502.688C501.913 70.4688 501.281 69.8387 501.281 69.0625C501.281 68.2863 501.913 67.6562 502.688 67.6562H513.938C514.712 67.6562 515.344 68.2863 515.344 69.0625C515.344 69.8387 514.712 70.4688 513.938 70.4688Z" fill="black"/>
<path d="M544.875 36.7188C545.603 36.7188 546.332 36.6203 547.05 36.422L554.549 43.9202C555.345 44.7175 556.405 45.1562 557.531 45.1562C558.658 45.1562 559.718 44.7161 560.514 43.9202C561.311 43.1242 561.75 42.0639 561.75 40.9375C561.75 39.8111 561.311 38.7508 560.514 37.9548L553.016 30.4567C553.213 29.7381 553.312 29.0111 553.312 28.2812C553.312 23.628 549.528 19.8438 544.875 19.8438H544.293L541.48 22.6562L544.824 26.0003C544.609 27.1267 543.719 28.0155 542.595 28.2306L539.25 24.8866L536.438 27.6991V28.2812C536.438 32.9345 540.222 36.7188 544.875 36.7188ZM541.48 31.0938H542.062C545.165 31.0938 547.688 28.5709 547.688 25.4688V24.8866L545.491 22.6886C548.303 22.9966 550.5 25.3872 550.5 28.2812C550.5 28.9605 550.365 29.6495 550.101 30.3245L549.763 31.1809L558.525 39.9419C558.794 40.2119 558.938 40.5564 558.938 40.9375C558.938 41.3186 558.794 41.6631 558.525 41.9317C557.985 42.4703 557.077 42.4703 556.537 41.9317L547.776 33.1708L546.92 33.5069C546.242 33.7712 545.554 33.9062 544.875 33.9062C541.981 33.9062 539.592 31.7097 539.284 28.8972L541.48 31.0938Z" fill="black"/>
<path d="M546.263 68.9627L543.777 69.9541L549.918 76.0938L546.669 79.3436C545.107 78.6391 543.14 78.895 541.894 80.1423L539.081 82.9548C538.283 83.7508 537.844 84.8111 537.844 85.9375C537.844 87.0639 538.283 88.1242 539.08 88.9202C539.876 89.7175 540.936 90.1562 542.062 90.1562C543.189 90.1562 544.249 89.7161 545.045 88.9202L547.858 86.1077C548.655 85.3117 549.094 84.2514 549.094 83.125C549.094 82.4866 548.939 81.8777 548.672 81.318L551.906 78.0836L558.045 84.2219L559.039 81.7384C560.837 77.237 561.75 72.4994 561.75 67.6562V66.25H560.344C555.496 66.25 550.759 67.1627 546.263 68.9627ZM545.869 84.1192L543.057 86.9317C542.517 87.4703 541.608 87.4703 541.068 86.9317C540.8 86.6631 540.656 86.3186 540.656 85.9375C540.656 85.5564 540.8 85.2119 541.068 84.9433L543.881 82.1308C544.151 81.8622 544.494 81.7188 544.875 81.7188C545.256 81.7188 545.599 81.8622 545.869 82.1308C546.138 82.3994 546.281 82.7439 546.281 83.125C546.281 83.5061 546.138 83.8506 545.869 84.1192ZM556.99 79.1875L548.812 71.0102C552.072 69.8739 555.457 69.2312 558.909 69.092C558.769 72.543 558.126 75.9278 556.99 79.1875Z" fill="black"/>
<rect x="362.5" y="124.5" width="19" height="20" fill="#F9DA62" stroke="#514736" stroke-width="3"/>
<path d="M362.116 177.278H360.618V176.004H362.116V177.278ZM362.116 179.812H360.618V178.51H362.116V179.812ZM362.116 182.346H360.618V181.044H362.116V182.346ZM363.656 174.688H359.134V183.676H363.656V174.688ZM359.82 183.788C359.526 184.754 358.966 185.734 358.308 186.378C358.672 186.588 359.302 187.008 359.61 187.274C360.296 186.518 360.954 185.314 361.346 184.138L359.82 183.788ZM365.364 185.776C365.91 184.292 366.078 182.556 366.12 181.03C366.47 182.178 366.904 183.228 367.45 184.152C366.862 184.852 366.162 185.398 365.364 185.776ZM369.354 179.784C369.144 180.904 368.808 181.898 368.374 182.752C367.87 181.87 367.492 180.862 367.212 179.784H369.354ZM370.096 178.314L369.83 178.342H366.134V176.368H371.16V174.87H364.608V180.12C364.608 181.744 364.538 183.76 363.838 185.384C363.586 184.894 363.18 184.236 362.802 183.746L361.514 184.292C361.92 184.894 362.382 185.706 362.564 186.238L363.698 185.678C363.572 185.93 363.432 186.182 363.264 186.406C363.642 186.574 364.314 187.008 364.594 187.26C364.888 186.854 365.126 186.378 365.322 185.888C365.658 186.224 366.022 186.798 366.218 187.19C367.058 186.742 367.8 186.182 368.43 185.496C369.046 186.196 369.774 186.798 370.628 187.246C370.852 186.826 371.342 186.224 371.692 185.916C370.796 185.51 370.026 184.922 369.396 184.194C370.25 182.752 370.81 180.89 371.076 178.524L370.096 178.314ZM378.076 177.684H374.17V179.14H383.886V177.684H379.798V176.774H385.174V175.262H379.798V174.156H378.076V175.262H372.84V176.774H378.076V177.684ZM384.992 182.808V179.826H373.022V182.808H374.632V181.324H383.312V182.808H384.992ZM376.298 181.758C376.13 183.914 375.78 185.174 372.462 185.818C372.798 186.168 373.218 186.826 373.372 187.26C377.194 186.35 377.81 184.572 378.034 181.758H376.298ZM381.996 185.552C381.492 185.552 381.408 185.496 381.408 185.062V181.758H379.728V185.076C379.728 186.574 380.134 187.05 381.758 187.05H383.564C384.88 187.05 385.314 186.532 385.496 184.516C385.048 184.404 384.334 184.152 383.998 183.886C383.942 185.314 383.858 185.552 383.396 185.552H381.996Z" fill="black"/>
<rect x="318.5" y="1.5" width="107" height="107" fill="#F9DA62" stroke="#514736" stroke-width="3"/>
<path d="M407.562 63.4519L396.961 60.625L393.094 58.7499V49.375H379.031V58.7499L375.164 60.625L369.188 62.0886L365.599 63.2605C364.189 63.7209 362.961 64.6152 362.09 65.8157C361.219 67.0161 360.75 68.4612 360.75 69.9442V84.5313H345.281V95.7813H405.75C407.615 95.7813 409.403 95.0405 410.722 93.7218C412.04 92.4032 412.781 90.6148 412.781 88.75V70.2457C412.781 68.6964 412.27 67.1906 411.326 65.9621C410.382 64.7335 409.059 63.8511 407.562 63.4519Z" fill="white"/>
<path d="M393.094 53.2981V49.375H379.031V53.2981C381.206 54.4165 383.617 55 386.062 55C388.508 55 390.919 54.4165 393.094 53.2981Z" fill="white"/>
<path d="M407.562 63.4519L396.961 60.625L394.5 57.8125L386.062 63.4375L377.625 57.8125L375.164 60.625L369.891 62.0312H369.188V88.75H384.656V95.7812H405.75C407.615 95.7812 409.403 95.0404 410.722 93.7218C412.04 92.4032 412.781 90.6148 412.781 88.75V70.2457C412.781 68.6964 412.27 67.1906 411.326 65.962C410.382 64.7335 409.059 63.8511 407.562 63.4519Z" fill="#C7C7C5"/>
<path d="M378.619 69.9287L386.062 63.4375L377.625 57.8125L375.164 60.625H375.196L378.619 69.9287Z" fill="#E0E0DE"/>
<path d="M393.506 69.9287L386.062 63.4375L394.5 57.8125L396.961 60.625H396.929L393.506 69.9287Z" fill="#E0E0DE"/>
<path d="M386.062 63.4375L383.25 65.8903V82.5129L386.062 90.1562L388.875 82.5129V65.8903L386.062 63.4375Z" fill="#348FD9"/>
<path d="M398.719 31.0938H400.125C401.244 31.0938 402.317 31.5382 403.108 32.3294C403.899 33.1206 404.344 34.1936 404.344 35.3125C404.344 36.4314 403.899 37.5044 403.108 38.2956C402.317 39.0868 401.244 39.5312 400.125 39.5312H398.719V31.0938Z" fill="white"/>
<path d="M373.406 31.0938H372C370.882 31.097 369.811 31.5426 369.021 32.333C368.23 33.1235 367.785 34.1946 367.781 35.3125C367.784 36.4304 368.23 37.5016 369.02 38.292C369.811 39.0825 370.882 39.528 372 39.5312H373.491" fill="white"/>
<path d="M398.719 29.6875V39.5312C398.718 42.8878 397.385 46.1068 395.012 48.4803C392.638 50.8537 389.419 52.1872 386.062 52.1875C385.483 52.1878 384.905 52.1479 384.331 52.068H384.329C381.302 51.6492 378.528 50.1492 376.52 47.8448C374.513 45.5405 373.407 42.5875 373.406 39.5312V29.6875C373.407 26.3309 374.74 23.1119 377.113 20.7385C379.487 18.365 382.706 17.0315 386.062 17.0312C386.219 17.0312 386.377 17.0348 386.532 17.04C389.805 17.1617 392.903 18.5474 395.176 20.906C397.449 23.2645 398.719 26.4122 398.719 29.6875Z" fill="white"/>
<path d="M398.719 29.6875V39.5313C398.718 42.8878 397.385 46.1068 395.012 48.4803C392.638 50.8537 389.419 52.1873 386.063 52.1875C385.483 52.1878 384.905 52.1479 384.331 52.068C386.956 50.805 389.172 48.8262 390.722 46.3595C392.272 43.8928 393.094 41.0384 393.094 38.125V29.6875C393.092 27.2081 392.495 24.7653 391.353 22.5645C390.211 20.3637 388.558 18.4691 386.532 17.0401C389.805 17.1617 392.903 18.5475 395.176 20.906C397.449 23.2645 398.719 26.4122 398.719 29.6875Z" fill="white"/>
<path d="M373.406 31.0938V25.4688C373.406 20.8088 376.554 17.0312 380.438 17.0312L380.19 17.9221C378.812 22.8848 376.489 27.3946 373.406 31.0938Z" fill="#F27900"/>
<path d="M398.719 31.0937V21.4231C398.719 20.7352 398.562 20.0563 398.26 19.438C397.959 18.8197 397.52 18.2783 396.978 17.8549C396.435 17.4315 395.804 17.1373 395.131 16.9946C394.458 16.8519 393.761 16.8644 393.094 17.0312V21.25C393.094 21.25 395.636 27.3946 398.719 31.0937Z" fill="#F27900"/>
<path d="M393.094 17.0312V21.25H373.406C373.404 19.4979 374.059 17.8087 375.241 16.5162C375.313 16.4353 375.389 16.3562 375.466 16.2789C376.119 15.6252 376.894 15.1067 377.747 14.7532C378.6 14.3997 379.514 14.218 380.438 14.2187H386.303C388.85 14.2189 391.293 15.2305 393.094 17.0312Z" fill="#F98500"/>
<path d="M369.188 62.0312V62.0885L369.422 62.0312H369.188Z" fill="#C7C7C5"/>
<path d="M407.562 63.4519L396.961 60.625H396.929L386.062 90.1562L375.196 60.625H375.164L369.891 62.0312H369.422L369.188 62.0885V84.5312H345.281V95.7812H405.75C407.615 95.7812 409.403 95.0404 410.722 93.7218C412.04 92.4032 412.781 90.6148 412.781 88.75V70.2457C412.781 68.6964 412.27 67.1906 411.326 65.962C410.382 64.7335 409.059 63.8511 407.562 63.4519Z" fill="#3D4D63"/>
<path d="M369.188 73.2812L374.812 74.6875L372 80.3125L386.062 90.1562L375.797 62.2576L375.164 60.625L371.301 61.655L369.188 73.2812Z" fill="#49648E"/>
<path d="M402.938 73.2812L397.312 74.6875L400.125 80.3125L386.062 90.1562L396.328 62.2576L396.961 60.625L400.824 61.655L402.938 73.2812Z" fill="#49648E"/>
<path d="M384.656 88.75H387.469V95.7812H384.656V88.75Z" fill="#334562"/>
<path d="M384.656 85.9375H390.281V95.7812H384.656V85.9375Z" fill="#E0E0DE"/>
<path d="M367.781 59.2187H334.031C332.478 59.2187 331.219 60.4779 331.219 62.0312V87.3437C331.219 88.897 332.478 90.1562 334.031 90.1562H367.781C369.335 90.1562 370.594 88.897 370.594 87.3437V62.0312C370.594 60.4779 369.335 59.2187 367.781 59.2187Z" fill="#E0E0DE"/>
<path d="M369.513 59.8306L339.188 90.1564H367.781C368.527 90.1564 369.243 89.8601 369.77 89.3326C370.297 88.8052 370.594 88.0898 370.594 87.3439V62.0314C370.593 61.6066 370.495 61.1876 370.308 60.8063C370.12 60.4249 369.849 60.0913 369.513 59.8306Z" fill="#D6D6D4"/>
<path d="M336.844 67.6562H342.469V73.2812H336.844V67.6562Z" fill="#348FD9"/>
<path d="M348.094 67.6562H353.719V73.2812H348.094V67.6562Z" fill="#60D1E0"/>
<path d="M359.344 67.6562H364.969V73.2812H359.344V67.6562Z" fill="#348FD9"/>
<path d="M336.844 78.9062H342.469V84.5312H336.844V78.9062Z" fill="#60D1E0"/>
<path d="M348.094 78.9062H353.719V84.5312H348.094V78.9062Z" fill="#348FD9"/>
<path d="M359.344 78.9062H364.969V84.5312H359.344V78.9062Z" fill="#4DB7E5"/>
<path d="M339.656 84.5312H348.094C348.84 84.5312 349.555 84.8276 350.082 85.355C350.61 85.8825 350.906 86.5978 350.906 87.3438V95.7812H339.656C338.91 95.7812 338.195 95.4849 337.668 94.9575C337.14 94.43 336.844 93.7147 336.844 92.9688V87.3438C336.844 86.5978 337.14 85.8825 337.668 85.355C338.195 84.8276 338.91 84.5312 339.656 84.5312Z" fill="white"/>
<path d="M336.844 90.1562V92.9688C336.844 93.7147 337.14 94.43 337.668 94.9575C338.195 95.4849 338.91 95.7812 339.656 95.7812H350.906V92.9688H339.656C338.91 92.9688 338.195 92.6724 337.668 92.145C337.14 91.6175 336.844 90.9022 336.844 90.1562Z" fill="white"/>
<path d="M384.656 95.7814H364.969C364.223 95.7814 363.507 95.4851 362.98 94.9576C362.453 94.4302 362.156 93.7148 362.156 92.9689C362.156 92.223 362.453 91.5076 362.98 90.9802C363.507 90.4527 364.223 90.1564 364.969 90.1564H370.594C369.848 90.1564 369.132 89.8601 368.605 89.3326C368.078 88.8052 367.781 88.0898 367.781 87.3439C367.781 86.598 368.078 85.8826 368.605 85.3552C369.132 84.8277 369.848 84.5314 370.594 84.5314H374.812C376.046 83.709 377.504 83.2895 378.987 83.3306C380.469 83.3718 381.901 83.8716 383.088 84.7612L384.656 85.9377V95.7814Z" fill="white"/>
<path d="M390.281 85.9375H402.938V95.7812H390.281V85.9375Z" fill="#3D4D63"/>
<path d="M381.844 43.7501H384.82C386.808 43.753 388.786 43.4627 390.689 42.8887L389.874 40.197C388.235 40.6909 386.532 40.9404 384.82 40.9376H381.844V43.7501Z" fill="black"/>
<path d="M379.734 35.3125C380.152 35.3125 380.559 35.1888 380.906 34.957C381.253 34.7252 381.524 34.3958 381.683 34.0103C381.843 33.6249 381.885 33.2008 381.803 32.7916C381.722 32.3824 381.521 32.0065 381.226 31.7115C380.931 31.4165 380.555 31.2156 380.146 31.1343C379.737 31.0529 379.313 31.0946 378.927 31.2543C378.542 31.4139 378.212 31.6843 377.98 32.0312C377.749 32.3781 377.625 32.7859 377.625 33.2031C377.626 33.7624 377.848 34.2985 378.243 34.694C378.639 35.0894 379.175 35.3119 379.734 35.3125Z" fill="black"/>
<path d="M392.391 35.3125C392.808 35.3125 393.216 35.1888 393.563 34.957C393.909 34.7252 394.18 34.3958 394.339 34.0103C394.499 33.6249 394.541 33.2008 394.459 32.7916C394.378 32.3824 394.177 32.0065 393.882 31.7115C393.587 31.4165 393.211 31.2156 392.802 31.1343C392.393 31.0529 391.969 31.0946 391.583 31.2543C391.198 31.4139 390.869 31.6843 390.637 32.0312C390.405 32.3781 390.281 32.7859 390.281 33.2031C390.282 33.7624 390.504 34.2985 390.9 34.694C391.295 35.0894 391.831 35.3119 392.391 35.3125Z" fill="black"/>
<path d="M336.844 74.6875H342.469C342.842 74.6875 343.199 74.5393 343.463 74.2756C343.727 74.0119 343.875 73.6542 343.875 73.2812V67.6562C343.875 67.2833 343.727 66.9256 343.463 66.6618C343.199 66.3981 342.842 66.25 342.469 66.25H336.844C336.471 66.25 336.113 66.3981 335.849 66.6618C335.586 66.9256 335.438 67.2833 335.438 67.6562V73.2812C335.438 73.6542 335.586 74.0119 335.849 74.2756C336.113 74.5393 336.471 74.6875 336.844 74.6875ZM338.25 69.0625H341.062V71.875H338.25V69.0625Z" fill="black"/>
<path d="M348.094 74.6875H353.719C354.092 74.6875 354.449 74.5393 354.713 74.2756C354.977 74.0119 355.125 73.6542 355.125 73.2812V67.6562C355.125 67.2833 354.977 66.9256 354.713 66.6618C354.449 66.3981 354.092 66.25 353.719 66.25H348.094C347.721 66.25 347.363 66.3981 347.099 66.6618C346.836 66.9256 346.688 67.2833 346.688 67.6562V73.2812C346.688 73.6542 346.836 74.0119 347.099 74.2756C347.363 74.5393 347.721 74.6875 348.094 74.6875ZM349.5 69.0625H352.312V71.875H349.5V69.0625Z" fill="black"/>
<path d="M359.344 74.6875H364.969C365.342 74.6875 365.699 74.5393 365.963 74.2756C366.227 74.0119 366.375 73.6542 366.375 73.2812V67.6562C366.375 67.2833 366.227 66.9256 365.963 66.6618C365.699 66.3981 365.342 66.25 364.969 66.25H359.344C358.971 66.25 358.613 66.3981 358.349 66.6618C358.086 66.9256 357.938 67.2833 357.938 67.6562V73.2812C357.938 73.6542 358.086 74.0119 358.349 74.2756C358.613 74.5393 358.971 74.6875 359.344 74.6875ZM360.75 69.0625H363.562V71.875H360.75V69.0625Z" fill="black"/>
<path d="M359.344 85.9375H364.969C365.342 85.9375 365.699 85.7893 365.963 85.5256C366.227 85.2619 366.375 84.9042 366.375 84.5312V78.9062C366.375 78.5333 366.227 78.1756 365.963 77.9119C365.699 77.6482 365.342 77.5 364.969 77.5H359.344C358.971 77.5 358.613 77.6482 358.349 77.9119C358.086 78.1756 357.938 78.5333 357.938 78.9062V84.5312C357.938 84.9042 358.086 85.2619 358.349 85.5256C358.613 85.7893 358.971 85.9375 359.344 85.9375ZM360.75 80.3125H363.562V83.125H360.75V80.3125Z" fill="black"/>
<path d="M407.928 62.0931H407.926L407.901 62.0864L397.737 59.3763L395.558 56.8868C395.417 56.7254 395.241 56.5984 395.043 56.5158C395.041 56.5145 395.038 56.5137 395.035 56.5126C395 56.4978 394.963 56.4845 394.926 56.4727C394.913 56.4685 394.899 56.4657 394.885 56.4616C394.859 56.4542 394.833 56.4463 394.806 56.4404C394.787 56.4361 394.768 56.4337 394.749 56.4302C394.729 56.4266 394.706 56.4216 394.684 56.4187C394.658 56.4152 394.632 56.4138 394.604 56.4117C394.59 56.4106 394.575 56.4085 394.561 56.408C394.541 56.408 394.52 56.408 394.5 56.408V50.7753C396.058 49.6104 397.356 48.1342 398.312 46.4406C399.268 44.7469 399.862 42.8729 400.055 40.9375H400.125C401.617 40.9375 403.048 40.3449 404.102 39.29C405.157 38.2351 405.75 36.8043 405.75 35.3125C405.75 33.8207 405.157 32.3899 404.102 31.335C403.048 30.2801 401.617 29.6875 400.125 29.6875V21.423C400.125 20.5887 399.949 19.7638 399.609 19.0022C399.269 18.2405 398.771 17.5592 398.15 17.0028C397.528 16.4464 396.796 16.0273 396.002 15.773C395.207 15.5187 394.368 15.4349 393.539 15.5271C391.538 13.7711 388.966 12.8058 386.304 12.8125H380.438C378.2 12.815 376.056 13.7047 374.474 15.2865C372.892 16.8683 372.002 19.013 372 21.25C372 21.4437 372.04 21.6353 372.118 21.8126C372.196 21.99 372.309 22.1494 372.452 22.2806C372.151 23.3166 371.999 24.39 372 25.4688V29.6875C371.261 29.6875 370.53 29.833 369.847 30.1157C369.165 30.3984 368.545 30.8127 368.023 31.335C367.5 31.8574 367.086 32.4775 366.803 33.1599C366.52 33.8424 366.375 34.5738 366.375 35.3125C366.375 36.0512 366.52 36.7826 366.803 37.4651C367.086 38.1476 367.5 38.7676 368.023 39.29C368.545 39.8123 369.165 40.2266 369.847 40.5093C370.53 40.792 371.261 40.9375 372 40.9375H372.07C372.263 42.873 372.857 44.7472 373.813 46.441C374.769 48.1348 376.067 49.6111 377.625 50.776V56.408C377.617 56.408 377.609 56.408 377.601 56.408C377.589 56.408 377.577 56.408 377.565 56.408C377.53 56.4096 377.495 56.4131 377.459 56.4172C377.453 56.4172 377.447 56.4172 377.441 56.4189C377.401 56.424 377.362 56.431 377.323 56.4397H377.318C377.026 56.5045 376.763 56.661 376.566 56.8863L374.397 59.3648L371.52 60.0711C371.163 59.3882 370.626 58.8164 369.967 58.4181C369.308 58.0198 368.552 57.8103 367.781 57.8125H366.375V55H363.562V57.8125H360.75V55H357.938V57.8125H355.125V55H352.312V57.8125H349.5V55H346.688V57.8125H343.875V55H341.062V57.8125H338.25V55H335.438V57.8125H334.031C332.913 57.8138 331.84 58.2587 331.05 59.0496C330.259 59.8405 329.814 60.9128 329.812 62.0312V87.3438C329.814 88.4622 330.259 89.5345 331.05 90.3254C331.84 91.1163 332.913 91.5612 334.031 91.5625H335.438V92.9688C335.439 94.0872 335.884 95.1595 336.675 95.9504C337.465 96.7413 338.538 97.1862 339.656 97.1875H405.75C407.987 97.185 410.132 96.2953 411.713 94.7135C413.295 93.1317 414.185 90.987 414.188 88.75C414.188 88.75 414.147 69.2954 414.07 68.8359C413.8 67.2414 413.078 65.7579 411.989 64.5624C410.9 63.3669 409.49 62.5097 407.928 62.0931ZM401.318 72.2357L396.971 73.3226C396.767 73.3736 396.576 73.4699 396.414 73.6044C396.252 73.7388 396.122 73.9079 396.034 74.0992C395.946 74.2905 395.903 74.4992 395.906 74.7097C395.909 74.9203 395.96 75.1274 396.054 75.3157L398.324 79.8558L391.652 84.5312H389.627L397.652 62.7319L397.765 62.445C397.768 62.4366 397.771 62.4275 397.774 62.4196L397.818 62.3086L399.605 62.7852L401.318 72.2357ZM377.869 59.6682L383.749 63.5853L379.235 67.5248L377.869 59.6682ZM386.062 53.5938C387.999 53.5955 389.914 53.1955 391.688 52.419V57.9974L386.062 61.7474L380.438 57.9974V52.4188C382.211 53.1954 384.126 53.5955 386.062 53.5938ZM390.281 68.9827L391.85 70.3512L390.281 74.6142V68.9827ZM395.331 60.8968L395.024 61.7305L395.019 61.7437C395.015 61.7525 395.012 61.7613 395.009 61.7702L392.89 67.5262L389.859 64.8833C389.839 64.8631 389.819 64.8423 389.798 64.8235L388.376 63.5864L393.876 59.9231L394.255 59.6689L395.234 60.7878L395.331 60.8968ZM381.844 68.9827V74.6093L380.276 70.3504L381.844 68.9827ZM372 75.4339L372.771 75.6272L372 77.1681V75.4339ZM372 82.0292L373.564 83.125H372V82.0292ZM377.017 82.109L373.8 79.8563L376.07 75.3164C376.164 75.1281 376.215 74.921 376.218 74.7104C376.222 74.4999 376.178 74.2913 376.09 74.0999C376.002 73.9086 375.872 73.7395 375.71 73.6051C375.548 73.4706 375.357 73.3743 375.153 73.3233L372 72.5349V62.8516L374.351 62.4203L377.3 70.4143C377.302 70.4202 377.305 70.4257 377.307 70.4318L381.728 82.4437C380.22 81.8949 378.588 81.779 377.017 82.109ZM385.497 84.5312L384.656 82.2477V66.5298L386.062 65.3034L387.469 66.5298V82.2552L386.629 84.5312H385.497ZM400.125 82.0294V84.5312H396.554L400.125 82.0294ZM402.938 35.3125C402.937 36.0582 402.64 36.773 402.113 37.3003C401.586 37.8275 400.871 38.1241 400.125 38.125V32.5C400.871 32.5009 401.586 32.7975 402.113 33.3247C402.64 33.852 402.937 34.5669 402.938 35.3125ZM397.312 21.423V26.5472C396.271 24.7401 395.332 22.8757 394.5 20.963V18.3157C395.27 18.3931 395.985 18.7539 396.504 19.328C397.024 19.9021 397.312 20.6486 397.312 21.423ZM391.688 17.6405V19.8438H389.551L386.176 15.625H386.304C388.284 15.6193 390.198 16.3359 391.688 17.6405ZM382.574 15.625L385.949 19.8438H382.426L378.539 15.9556C379.132 15.7421 382.574 15.625 382.574 15.625ZM374.812 25.4688C374.809 24.5114 374.969 23.5604 375.283 22.6563H376.983C376.354 24.0712 375.629 25.4413 374.812 26.7569V25.4688ZM376.182 17.5762L378.449 19.8438H374.991C375.208 19.0062 375.615 18.2302 376.182 17.5762ZM369.188 35.3125C369.188 34.5669 369.485 33.852 370.012 33.3247C370.539 32.7975 371.254 32.5009 372 32.5V38.125C371.254 38.1241 370.539 37.8275 370.012 37.3003C369.485 36.773 369.188 36.0582 369.188 35.3125ZM374.812 39.5313V31.5916C375.082 31.2558 375.353 30.9097 375.634 30.5418L375.646 30.5262C377.434 28.0969 378.911 25.453 380.041 22.6563H392.171C392.968 24.4432 394.943 28.5938 397.312 31.5914V39.5313C397.312 42.5149 396.127 45.3764 394.017 47.4862C391.908 49.596 389.046 50.7813 386.062 50.7813C383.079 50.7813 380.217 49.596 378.108 47.4862C375.998 45.3764 374.812 42.5149 374.812 39.5313ZM334.031 88.75C333.658 88.7496 333.301 88.6013 333.037 88.3377C332.774 88.074 332.625 87.7166 332.625 87.3438V62.0312C332.625 61.6584 332.774 61.301 333.037 61.0373C333.301 60.7737 333.658 60.6254 334.031 60.625H335.438V63.4375H338.25V60.625H341.062V63.4375H343.875V60.625H346.688V63.4375H349.5V60.625H352.312V63.4375H355.125V60.625H357.938V63.4375H360.75V60.625H363.562V63.4375H366.375V60.625H367.781C368.119 60.6273 368.445 60.7501 368.7 60.9713C368.955 61.1925 369.123 61.4976 369.173 61.8316V61.8491C369.173 61.9155 369.178 61.9819 369.188 62.0476V83.3669C368.133 83.7398 367.269 84.5164 366.787 85.5259C366.305 86.5354 366.243 87.6952 366.616 88.75H352.312V87.3438C352.313 86.8646 352.231 86.389 352.071 85.9375H353.719C354.092 85.9375 354.449 85.7893 354.713 85.5256C354.977 85.2619 355.125 84.9042 355.125 84.5312V78.9062C355.125 78.5333 354.977 78.1756 354.713 77.9119C354.449 77.6482 354.092 77.5 353.719 77.5H348.094C347.721 77.5 347.363 77.6482 347.099 77.9119C346.836 78.1756 346.688 78.5333 346.688 78.9062V83.125H343.875V78.9062C343.875 78.5333 343.727 78.1756 343.463 77.9119C343.199 77.6482 342.842 77.5 342.469 77.5H336.844C336.471 77.5 336.113 77.6482 335.849 77.9119C335.586 78.1756 335.438 78.5333 335.438 78.9062V84.5312C335.437 84.7161 335.474 84.8991 335.544 85.0698C335.615 85.2405 335.719 85.3956 335.85 85.526C335.578 86.0933 335.437 86.7146 335.438 87.3438V88.75H334.031ZM349.5 83.125V80.3125H352.312V83.125H349.5ZM352.312 91.5625H360.992C360.669 92.4723 360.669 93.4652 360.992 94.375H352.312V91.5625ZM338.25 83.125V80.3125H341.062V83.125H338.25ZM349.5 94.375H339.656C339.283 94.3746 338.926 94.2263 338.662 93.9627C338.399 93.699 338.25 93.3416 338.25 92.9688V87.3438C338.25 86.9709 338.399 86.6135 338.662 86.3498C338.926 86.0862 339.283 85.9379 339.656 85.9375H348.094C348.467 85.9379 348.824 86.0862 349.088 86.3498C349.351 86.6135 349.5 86.9709 349.5 87.3438V94.375ZM363.562 92.9688C363.563 92.5959 363.711 92.2385 363.975 91.9748C364.238 91.7112 364.596 91.5629 364.969 91.5625H373.406C373.779 91.5625 374.137 91.4143 374.401 91.1506C374.664 90.8869 374.812 90.5292 374.812 90.1562C374.812 89.7833 374.664 89.4256 374.401 89.1619C374.137 88.8982 373.779 88.75 373.406 88.75H370.594C370.221 88.75 369.863 88.6018 369.599 88.3381C369.336 88.0744 369.188 87.7167 369.188 87.3438C369.188 86.9708 369.336 86.6131 369.599 86.3494C369.863 86.0857 370.221 85.9375 370.594 85.9375H374.812C375.09 85.9374 375.362 85.8552 375.593 85.7013C376.585 85.0415 377.757 84.7051 378.947 84.7382C380.138 84.7713 381.29 85.1722 382.244 85.886L383.25 86.6406V94.375H364.969C364.596 94.3746 364.238 94.2263 363.975 93.9627C363.711 93.699 363.563 93.3416 363.562 92.9688ZM386.062 87.3438H388.875V94.375H386.062V87.3438ZM411.375 88.75C411.373 90.2413 410.78 91.6711 409.726 92.7256C408.671 93.7802 407.241 94.3733 405.75 94.375H391.688V87.3438H401.531C401.904 87.3438 402.262 87.1956 402.526 86.9319C402.789 86.6682 402.938 86.3105 402.938 85.9375V78.9062H400.994L399.354 75.6267L403.279 74.6455C403.625 74.5589 403.925 74.3439 404.119 74.0439C404.313 73.7439 404.385 73.3815 404.321 73.0302L402.608 63.5859L407.204 64.8109C408.401 65.1303 409.458 65.8361 410.213 66.8186C410.967 67.801 411.376 69.0051 411.375 70.2438V88.75Z" fill="black"/>
<rect x="206.5" y="124.5" width="20" height="20" fill="#F9DA62" stroke="#514736" stroke-width="3"/>
<path d="M191.724 175.964V174.508H198.374V175.964H191.724ZM198.374 171.526V172.968H191.724V171.526H198.374ZM198.374 168.544V169.986H191.724V168.544H198.374ZM195.35 166.948C195.574 166.444 195.798 165.898 196.008 165.338L193.992 165.114C193.922 165.674 193.768 166.346 193.614 166.948H190.03V178.204H191.724V177.504H198.374V178.19H200.152V166.948H195.35ZM208.65 173.052C208.356 172.772 207.278 171.806 206.606 171.26C207.278 170.336 207.838 169.328 208.258 168.264L207.32 167.662L207.026 167.732H206.396V165.156H204.744V167.732H202.756V169.244H206.13C205.22 170.854 203.75 172.324 202.224 173.15C202.476 173.472 202.868 174.284 203.008 174.732C203.596 174.368 204.184 173.906 204.744 173.388V178.218H206.396V172.94C206.872 173.458 207.348 174.018 207.642 174.41L208.65 173.052ZM212.682 176.188V171.064H215.328V169.454H212.682V165.268H210.974V169.454H208.314V171.064H210.974V176.188H207.74V177.812H215.664V176.188H212.682ZM220.508 169.104H225.394V168.558C225.954 168.936 226.556 169.3 227.144 169.622H218.884C219.444 169.314 219.99 168.964 220.508 168.614V169.104ZM221.418 167.942C222.02 167.466 222.538 166.976 222.944 166.514C223.364 166.99 223.91 167.466 224.526 167.942H221.418ZM220.34 170.7H225.618V171.204H220.34V170.7ZM220.284 172.73C220.298 172.548 220.312 172.366 220.326 172.184H225.618V172.73H220.284ZM226.08 175.558V176.594H221.474V175.558H226.08ZM227.242 173.808V169.678C227.718 169.93 228.208 170.154 228.67 170.35C228.922 169.888 229.286 169.314 229.664 168.922C227.494 168.208 225.226 166.822 223.7 165.058H222.062C220.942 166.5 218.688 168.152 216.364 169.062C216.7 169.398 217.092 170.014 217.302 170.406C217.75 170.21 218.198 169.986 218.646 169.748V171.512C218.646 173.164 218.45 175.418 216.574 177C216.91 177.21 217.61 177.826 217.862 178.148C218.884 177.28 219.5 176.132 219.864 174.956V178.204H221.474V177.826H226.08V178.204H227.76V174.354H220.032C220.074 174.172 220.116 173.99 220.144 173.808H227.242ZM235.53 173.682V172.996H237.322V173.682H235.53ZM235.53 171.358H237.322V172.044H235.53V171.358ZM240.808 171.358V172.044H238.918V171.358H240.808ZM240.808 173.682H238.918V172.996H240.808V173.682ZM243.454 175.376H238.918V174.718H242.334V170.336H238.918V169.706H242.978V168.46H238.918V167.69H243.342V166.234H238.302V165.156H236.566V166.234H231.554V170.756C231.554 172.744 231.47 175.418 230.322 177.266C230.7 177.434 231.372 177.91 231.652 178.204C232.94 176.202 233.15 172.982 233.15 170.756V167.69H237.322V168.46H233.668V169.706H237.322V170.336H234.074V174.718H237.322V175.376H233.094V176.72H237.322V178.232H238.918V176.72H243.454V175.376ZM187.23 189.68C187.23 192.41 188.336 194.636 190.016 196.344L190.856 195.91C189.246 194.244 188.252 192.172 188.252 189.68C188.252 187.188 189.246 185.116 190.856 183.45L190.016 183.016C188.336 184.724 187.23 186.95 187.23 189.68ZM196.302 191.22H198.612V190.338H196.302V188.63H198.99V187.692H196.302V185.662H198.78V184.752H194.594C194.762 184.332 194.916 183.884 195.042 183.45L194.076 183.24C193.712 184.626 193.068 185.956 192.228 186.852C192.466 186.978 192.872 187.258 193.04 187.426C193.446 186.936 193.838 186.334 194.174 185.662H195.322V187.692H192.2V188.63H195.322V193.782L193.978 194.006V189.708H193.082V194.146L191.976 194.328L192.158 195.336C193.978 195.014 196.61 194.552 199.074 194.104L199.018 193.152C198.122 193.306 197.198 193.474 196.302 193.614V191.22ZM204.408 184.122H199.508V196.05H200.502V185.088H203.414V192.55C203.414 192.76 203.358 192.816 203.162 192.816C202.952 192.83 202.308 192.83 201.594 192.802C201.748 193.11 201.902 193.586 201.944 193.88C202.868 193.88 203.526 193.866 203.904 193.684C204.324 193.488 204.408 193.166 204.408 192.564V184.122ZM208.986 188.504C208.342 188.504 207.824 189.036 207.824 189.68C207.824 190.324 208.342 190.856 208.986 190.856C209.63 190.856 210.162 190.324 210.162 189.68C210.162 189.036 209.63 188.504 208.986 188.504ZM217.204 189.316C219.08 189.232 221.754 189.092 224.316 188.966C224.596 189.316 224.82 189.652 224.988 189.932L225.842 189.428C225.338 188.574 224.218 187.37 223.238 186.516L222.426 186.978C222.804 187.314 223.21 187.706 223.574 188.112C222.272 188.154 220.956 188.21 219.766 188.252C220.186 187.58 220.634 186.768 221.012 186.04H225.772V185.102H221.67V183.296H220.62V185.102H216.924V186.04H219.822C219.528 186.768 219.108 187.636 218.702 188.294C218.114 188.308 217.568 188.322 217.092 188.336L217.204 189.316ZM216.896 184.906C216.364 184.402 215.258 183.786 214.376 183.408L213.816 184.164C214.698 184.57 215.776 185.242 216.294 185.732L216.896 184.906ZM216.21 188.546C215.65 188.084 214.53 187.496 213.648 187.146L213.074 187.93C213.984 188.308 215.076 188.938 215.622 189.414L216.21 188.546ZM215.972 190.688C215.216 192.284 214.194 194.118 213.494 195.21L214.376 195.868C215.146 194.566 216.07 192.816 216.756 191.332L215.972 190.688ZM218.184 191.304C218.184 192.592 218.002 194.174 216.294 195.35C216.518 195.518 216.882 195.84 217.036 196.036C218.898 194.692 219.136 192.872 219.136 191.332V189.862H218.184V191.304ZM220.62 195.462H221.544V189.946H220.62V195.462ZM224.358 195.014C224.26 195.014 224.176 195 224.12 194.958C224.05 194.888 224.05 194.748 224.05 194.468V189.862H223.084V194.37C223.084 195.21 223.154 195.42 223.35 195.616C223.546 195.784 223.854 195.854 224.12 195.854H224.806C225.044 195.854 225.324 195.798 225.464 195.7C225.66 195.588 225.772 195.42 225.842 195.154C225.926 194.902 225.968 194.174 225.982 193.558C225.73 193.474 225.422 193.32 225.254 193.18C225.24 193.838 225.226 194.342 225.198 194.566C225.17 194.79 225.114 194.902 225.058 194.944C224.988 195 224.876 195.014 224.75 195.014H224.358ZM234.928 187.58V188.812H232.576V187.58H234.928ZM238.302 188.812H235.866V187.58H238.302V188.812ZM235.866 190.856V189.582H238.302V190.856H235.866ZM232.576 190.856V189.582H234.928V190.856H232.576ZM232.576 191.654H234.928V193.922H235.866V191.654H238.302V192.928C238.302 193.11 238.246 193.166 238.064 193.166C237.896 193.166 237.294 193.18 236.636 193.152C236.762 193.39 236.888 193.754 236.93 194.006C237.868 194.006 238.456 193.992 238.82 193.852C239.184 193.698 239.296 193.446 239.296 192.942V186.782H237.532C237.224 186.614 236.86 186.418 236.454 186.222C237.49 185.704 238.54 185.004 239.282 184.304L238.638 183.814L238.442 183.87H231.61V184.696H237.448C236.888 185.102 236.202 185.508 235.53 185.802C234.872 185.522 234.186 185.242 233.584 185.032L232.926 185.62C233.766 185.928 234.76 186.376 235.586 186.782H231.596V193.978H232.576V191.654ZM230.462 185.858C230.014 185.172 228.978 184.234 228.096 183.604L227.368 184.248C228.25 184.906 229.258 185.886 229.692 186.572L230.462 185.858ZM230.154 188.77H227.13V189.75H229.146V193.348C228.432 193.922 227.634 194.51 226.962 194.93L227.466 195.938C228.264 195.35 229.006 194.748 229.72 194.132C230.574 195.238 231.834 195.728 233.668 195.798C235.208 195.868 238.176 195.84 239.73 195.77C239.786 195.462 239.94 194.986 240.052 194.748C238.386 194.86 235.194 194.902 233.668 194.832C232.03 194.776 230.826 194.314 230.154 193.264V188.77ZM244.77 189.68C244.77 186.95 243.664 184.724 241.984 183.016L241.144 183.45C242.754 185.116 243.748 187.188 243.748 189.68C243.748 192.172 242.754 194.244 241.144 195.91L241.984 196.344C243.664 194.636 244.77 192.41 244.77 189.68Z" fill="black"/>
<rect x="162.5" y="3.5" width="107" height="107" fill="#F9DA62" stroke="#514736" stroke-width="3"/>
<path d="M254.623 25.2788V100.525H177.902V25.2788L216.262 16.4264L254.623 25.2788Z" fill="#3CBCCF"/>
<path d="M189.705 41.5082H242.82V100.525H189.705V41.5082Z" fill="white"/>
<path d="M254.623 25.2788V31.6729L216.262 22.4129L177.902 31.6729V25.2788L216.262 16.4264L254.623 25.2788Z" fill="#3CBCCF"/>
<path d="M213.312 34.1314H219.213C220.843 34.1314 222.164 32.8103 222.164 31.1806C222.164 29.5509 220.843 28.2297 219.213 28.2297H213.312C211.682 28.2297 210.361 29.5509 210.361 31.1806C210.361 32.8103 211.682 34.1314 213.312 34.1314Z" fill="#3CBCCF"/>
<path d="M259.049 23.8034L216.262 13.4755L173.476 23.8034V29.705L216.262 19.3772L259.049 29.705V23.8034Z" fill="white"/>
<path d="M189.705 41.5082H242.82V66.5901H189.705V41.5082Z" fill="#C9C9C8"/>
<path d="M226.59 100.524V76.9179H200.033V53.3114H173.476V100.524H226.59Z" fill="#F8BC1E"/>
<path d="M208.885 76.9182H217.738V85.7707H208.885V76.9182Z" fill="#F9DA62"/>
<path d="M226.59 78.3936H224.377C223.79 78.3936 223.228 78.6268 222.812 79.0419C222.397 79.4569 222.164 80.0198 222.164 80.6068V84.3515C222.164 87.467 220.926 90.4547 218.723 92.6577C216.52 94.8606 213.533 96.0983 210.417 96.0986H203.722C203.135 96.0986 202.572 96.3317 202.157 96.7468C201.742 97.1618 201.509 97.7247 201.509 98.3117V100.525H226.59V78.3936Z" fill="#F5A922"/>
<path d="M182.328 76.9182H191.181V85.7707H182.328V76.9182Z" fill="#F9DA62"/>
<path d="M200.033 78.3936H197.82C197.233 78.3936 196.67 78.6268 196.255 79.0419C195.84 79.4569 195.607 80.0198 195.607 80.6068V84.3515C195.606 87.467 194.369 90.4547 192.166 92.6577C189.963 94.8606 186.975 96.0983 183.86 96.0986H177.164C176.577 96.0986 176.014 96.3317 175.599 96.7468C175.184 97.1618 174.951 97.7247 174.951 98.3117V100.525H200.033V78.3936Z" fill="#F5A922"/>
<path d="M182.328 53.3114H191.181V62.1639H182.328V53.3114Z" fill="#F9DA62"/>
<path d="M200.033 54.7868H197.82C197.233 54.7868 196.67 55.02 196.255 55.435C195.84 55.8501 195.607 56.413 195.607 56.9999V60.7447C195.606 63.8601 194.369 66.8479 192.166 69.0509C189.963 71.2538 186.975 72.4915 183.86 72.4917H177.164C176.577 72.4917 176.014 72.7249 175.599 73.1399C175.184 73.555 174.951 74.1179 174.951 74.7049V76.918H200.033V54.7868Z" fill="#F5A922"/>
<path d="M192.656 93.1477H195.607V96.0985H192.656V93.1477Z" fill="black"/>
<path d="M226.59 75.4427H201.508V53.3115C201.508 52.9202 201.353 52.5449 201.076 52.2683C200.8 51.9916 200.424 51.8361 200.033 51.8361H173.476C173.084 51.8361 172.709 51.9916 172.432 52.2683C172.156 52.5449 172 52.9202 172 53.3115V100.525C172 100.916 172.156 101.291 172.432 101.568C172.709 101.845 173.084 102 173.476 102H226.59C226.982 102 227.357 101.845 227.634 101.568C227.91 101.291 228.066 100.916 228.066 100.525V76.9181C228.066 76.5268 227.91 76.1515 227.634 75.8748C227.357 75.5981 226.982 75.4427 226.59 75.4427ZM210.361 78.3935H216.263V84.2951H210.361V78.3935ZM183.804 54.7869H189.705V60.6886H183.804V54.7869ZM174.951 54.7869H180.853V62.164C180.853 62.5553 181.008 62.9306 181.285 63.2073C181.562 63.484 181.937 63.6394 182.328 63.6394H191.181C191.572 63.6394 191.947 63.484 192.224 63.2073C192.501 62.9306 192.656 62.5553 192.656 62.164V54.7869H198.558V75.4427H174.951V54.7869ZM183.804 78.3935H189.705V84.2951H183.804V78.3935ZM174.951 78.3935H180.853V85.7705C180.853 86.1618 181.008 86.5371 181.285 86.8138C181.562 87.0905 181.937 87.2459 182.328 87.2459H191.181C191.572 87.2459 191.947 87.0905 192.224 86.8138C192.501 86.5371 192.656 86.1618 192.656 85.7705V78.3935H198.558V99.0492H174.951V78.3935ZM225.115 99.0492H201.508V78.3935H207.41V85.7705C207.41 86.1618 207.566 86.5371 207.842 86.8138C208.119 87.0905 208.494 87.2459 208.885 87.2459H217.738C218.129 87.2459 218.505 87.0905 218.781 86.8138C219.058 86.5371 219.213 86.1618 219.213 85.7705V78.3935H225.115V99.0492Z" fill="black"/>
<path d="M219.213 93.1477H222.164V96.0985H219.213V93.1477Z" fill="black"/>
<path d="M192.656 69.5412H195.607V72.492H192.656V69.5412Z" fill="black"/>
<path d="M258.703 31.1391C258.816 31.1666 258.933 31.1804 259.049 31.1804C259.308 31.1802 259.562 31.1122 259.786 30.9833C260.01 30.8544 260.196 30.669 260.327 30.4456C260.461 30.2097 260.529 29.9423 260.525 29.671V23.8033C260.525 23.4722 260.413 23.1508 260.208 22.8907C260.004 22.6306 259.717 22.4469 259.395 22.3692L216.609 12.0414C216.381 11.9862 216.144 11.9862 215.916 12.0414L173.129 22.3692C172.808 22.4469 172.521 22.6306 172.316 22.8907C172.112 23.1508 172 23.4722 172 23.8033V29.6631C171.995 29.972 172.083 30.2753 172.254 30.5332C172.422 30.7815 172.663 30.9724 172.943 31.0807C173.223 31.1889 173.529 31.2093 173.821 31.1391L176.426 30.5103V48.8853H179.377V29.7981L216.262 20.8947L253.148 29.7981V99.0492H244.295V41.5082C244.295 41.1169 244.14 40.7416 243.863 40.465C243.586 40.1883 243.211 40.0328 242.82 40.0328H189.705C189.314 40.0328 188.939 40.1883 188.662 40.465C188.385 40.7416 188.23 41.1169 188.23 41.5082V47.4099C188.23 47.8012 188.385 48.1764 188.662 48.4531C188.939 48.7298 189.314 48.8853 189.705 48.8853H241.344V51.8361H204.459V54.7869H241.344V57.7377H204.459V60.6885H241.344V63.6394H204.459V66.5902H241.344V99.0492H231.017V102H260.525V99.0492H256.098V30.5103L258.703 31.1391ZM191.181 45.9345V42.9836H241.344V45.9345H191.181ZM216.262 17.9017C216.146 17.9016 216.03 17.9155 215.916 17.943L174.951 27.831V24.9652L216.262 14.9933L257.574 24.9652V27.8312L216.609 17.943C216.495 17.9155 216.379 17.9016 216.262 17.9017Z" fill="black"/>
<path d="M219.213 35.6068C220.387 35.6068 221.513 35.1405 222.343 34.3104C223.173 33.4803 223.64 32.3545 223.64 31.1806C223.64 30.0067 223.173 28.8808 222.343 28.0507C221.513 27.2207 220.387 26.7543 219.213 26.7543H213.312C212.138 26.7543 211.012 27.2207 210.182 28.0507C209.352 28.8808 208.885 30.0067 208.885 31.1806C208.885 32.3545 209.352 33.4803 210.182 34.3104C211.012 35.1405 212.138 35.6068 213.312 35.6068H219.213ZM211.836 31.1806C211.837 30.7894 211.992 30.4144 212.269 30.1378C212.546 29.8612 212.921 29.7056 213.312 29.7052H219.213C219.605 29.7052 219.98 29.8606 220.257 30.1373C220.533 30.414 220.689 30.7893 220.689 31.1806C220.689 31.5719 220.533 31.9471 220.257 32.2238C219.98 32.5005 219.605 32.656 219.213 32.656H213.312C212.921 32.6555 212.546 32.4999 212.269 32.2233C211.992 31.9467 211.837 31.5717 211.836 31.1806Z" fill="black"/>
<rect x="50.5" y="124.5" width="20" height="20" fill="#F9DA62" stroke="#514736" stroke-width="3"/>
<path d="M44.782 174.24H43.27V179.812C43.27 179.98 43.214 180.036 43.004 180.036C42.808 180.05 42.136 180.05 41.506 180.022C41.702 180.386 41.926 180.946 41.996 181.338C42.962 181.338 43.648 181.324 44.138 181.114C44.642 180.904 44.782 180.554 44.782 179.84V174.24ZM41.744 174.702H40.26V179.364H41.744V174.702ZM43.382 182.99C42.822 183.396 42.052 183.858 41.394 184.194C41.002 183.844 40.666 183.438 40.4 182.99H43.382ZM33.89 176.662C34.016 176.494 34.128 176.298 34.24 176.102H35.57V176.662H33.89ZM43.886 182.99H45.286V181.674H39.826V180.946H38.342C38.594 180.932 38.818 180.89 39 180.806C39.364 180.638 39.462 180.386 39.462 179.854V178.272H36.984V177.782H39.686V176.662H36.984V176.102H39.308V175.038H36.984V174.142H35.57V175.038H34.772C34.856 174.842 34.926 174.66 34.996 174.464L33.778 174.156C33.54 174.884 33.148 175.64 32.686 176.172C32.91 176.284 33.274 176.494 33.554 176.662H32.7V177.782H35.57V178.272H33.26V181.016H34.52V179.28H35.57V181.324H36.984V179.28H38.132V179.854C38.132 179.966 38.09 180.008 37.964 180.008C37.866 180.008 37.53 180.008 37.208 179.994C37.348 180.26 37.544 180.638 37.614 180.96C37.824 180.96 38.006 180.96 38.174 180.96V181.674H32.728V182.99H36.816C35.612 183.55 34.03 183.956 32.49 184.166C32.784 184.474 33.176 185.02 33.372 185.37C34.156 185.23 34.94 185.034 35.682 184.782V185.566C35.178 185.622 34.702 185.678 34.296 185.72L34.534 187.078C36.074 186.854 38.16 186.574 40.134 186.294L40.078 184.992C39.14 185.118 38.188 185.244 37.278 185.356V184.138C37.88 183.844 38.44 183.508 38.93 183.144C39.98 185.37 41.73 186.686 44.642 187.246C44.838 186.84 45.23 186.238 45.552 185.916C44.362 185.734 43.354 185.426 42.514 184.978C43.256 184.628 44.11 184.166 44.824 183.69L43.886 182.99ZM52.664 181.142C52.356 180.792 51.068 179.448 50.508 178.986V178.608H52.272V177.026H50.508V174.142H48.828V177.026H46.672V178.608H48.618C48.142 180.288 47.26 182.136 46.266 183.256C46.56 183.704 46.952 184.404 47.12 184.922C47.764 184.138 48.338 183.004 48.828 181.786V187.204H50.508V180.876C50.97 181.478 51.418 182.108 51.698 182.556L52.664 181.142ZM59.496 177.026H58.166V174.17H56.388V177.026H52.664V178.608H55.884C54.876 180.638 53.196 182.682 51.46 183.774C51.894 184.124 52.384 184.712 52.664 185.146C54.008 184.124 55.352 182.57 56.388 180.904V185.16C56.388 185.412 56.29 185.482 56.038 185.496C55.8 185.496 54.932 185.496 54.162 185.468C54.4 185.93 54.652 186.672 54.722 187.148C55.926 187.148 56.822 187.106 57.382 186.826C57.956 186.56 58.166 186.126 58.166 185.16V178.608H59.496V177.026ZM67.91 184.572V177.334H72.614V175.598H61.428V177.334H66.006V184.572H60.672V186.252H73.398V184.572H67.91ZM85.046 176.312H81.434V175.64H85.046V176.312ZM85.046 178.076H81.434V177.404H85.046V178.076ZM86.586 174.492H79.964V179.224H86.586V174.492ZM87.538 181.156V179.756H78.732V181.156H80.314C79.964 181.702 79.53 182.206 79.026 182.64L78.732 181.45L77.612 181.94V178.636H78.928V177.068H77.612V174.31H76.072V177.068H74.672V178.636H76.072V182.584C75.414 182.85 74.826 183.088 74.35 183.27L74.966 184.95C75.82 184.53 76.828 184.026 77.836 183.522C78.186 183.746 78.718 184.236 78.928 184.502C79.502 184.138 80.048 183.676 80.566 183.13H81.392C80.65 184.166 79.572 185.146 78.536 185.664C78.928 185.902 79.362 186.322 79.628 186.644C80.846 185.874 82.148 184.474 82.904 183.13H83.73C83.128 184.432 82.19 185.678 81.126 186.35C81.546 186.574 82.022 186.952 82.302 187.274C83.436 186.392 84.528 184.698 85.102 183.13H85.648C85.494 184.824 85.326 185.538 85.13 185.748C85.018 185.874 84.906 185.902 84.71 185.902C84.528 185.902 84.164 185.902 83.716 185.86C83.926 186.21 84.066 186.77 84.094 187.162C84.654 187.19 85.186 187.176 85.508 187.134C85.858 187.092 86.166 186.98 86.432 186.658C86.81 186.252 87.034 185.132 87.23 182.402C87.244 182.206 87.258 181.828 87.258 181.828H81.574C81.714 181.604 81.854 181.38 81.966 181.156H87.538Z" fill="black"/>
<rect x="6.5" y="3.5" width="107" height="107" fill="#F9DA62" stroke="#514736" stroke-width="3"/>
<path d="M94.896 41.4579H86.2766C81.6664 41.4579 77.9297 45.1946 77.9297 49.804V64.1384C77.9297 66.92 80.1846 69.1743 82.9655 69.1743H98.2063C100.988 69.1743 103.242 66.92 103.242 64.1384V49.804C103.242 45.1946 99.5055 41.4579 94.896 41.4579Z" fill="white"/>
<path d="M20.6292 37.1677H32.8302V78.6912H20.6292V37.1677Z" fill="#3CBCCF"/>
<path d="M26.7293 63.6C21.2224 63.6 16.7578 68.0639 16.7578 73.5715V100.236H36.7014V73.5715C36.7014 68.0639 32.2369 63.6 26.7293 63.6Z" fill="#3CBCCF"/>
<path d="M84.2578 69.1742H96.9141V100.236H84.2578V69.1742Z" fill="#FFB954"/>
<path d="M48.6881 15.1284L61.446 27.8862C62.8776 29.3179 62.8776 31.6387 61.446 33.0711C60.0136 34.5027 57.6928 34.5027 56.2611 33.0711L46.8403 23.6503L48.6881 15.1284Z" fill="#3CBCCF"/>
<path d="M26.4209 30.7441L42.0311 15.1339C43.8706 13.2943 46.8541 13.2943 48.6936 15.1339C50.5338 16.9741 50.5338 19.9569 48.6936 21.7971L33.1425 37.3482L26.4209 30.7441Z" fill="#3CBCCF"/>
<path d="M50.071 18.4462C50.071 21.0396 47.9692 23.1414 45.3757 23.1414C42.783 23.1414 40.6812 21.0396 40.6812 18.4462C40.6812 15.8534 42.783 13.7516 45.3757 13.7516C47.9692 13.7516 50.071 15.8534 50.071 18.4462Z" fill="white"/>
<path d="M32.8302 37.1676C32.8302 40.5363 30.0987 43.2678 26.7293 43.2678C23.3606 43.2678 20.6292 40.5363 20.6292 37.1676C20.6292 33.7982 23.3606 31.0668 26.7293 31.0668C30.0987 31.0668 32.8302 33.7982 32.8302 37.1676Z" fill="white"/>
<path d="M30.948 73.3928C30.948 75.7233 29.0597 77.6116 26.7292 77.6116C24.3995 77.6116 22.5105 75.7233 22.5105 73.3928C22.5105 71.063 24.3995 69.1741 26.7292 69.1741C29.0597 69.1741 30.948 71.063 30.948 73.3928Z" fill="white"/>
<path d="M87.5977 75.9047H34.1602C30.7626 75.9047 28.0078 73.1499 28.0078 69.7524C28.0078 66.3542 30.7626 63.6 34.1602 63.6H87.5977C90.9952 63.6 93.75 66.3542 93.75 69.7524C93.75 73.1499 90.9952 75.9047 87.5977 75.9047Z" fill="#2E9DE3"/>
<path d="M90.5859 41.4598C87.2852 41.4598 84.6094 38.7847 84.6094 35.4833V31.5419H96.5625V35.4833C96.5625 38.784 93.8866 41.4598 90.5859 41.4598Z" fill="#FEDA9B"/>
<path d="M90.586 23.8645C86.6474 23.8645 83.4539 27.0581 83.4539 30.9967V31.5419H97.7182V30.9967C97.7182 27.0581 94.5246 23.8645 90.586 23.8645Z" fill="#FFC66C"/>
<path d="M42.6738 50.9438H55.3301V63.6H42.6738V50.9438Z" fill="#FFB954"/>
<path d="M65.9766 50.9438H78.6328V63.6H65.9766V50.9438Z" fill="#FFB954"/>
<path d="M36.7014 75.9047H84.2578V100.236H36.7014V75.9047Z" fill="white"/>
<path d="M96.9264 39.9057C97.8033 38.6511 98.3203 37.1268 98.3203 35.4837V33.1916C98.9939 32.9451 99.4759 32.3004 99.4759 31.5416V30.9971C99.4759 26.0952 95.4879 22.1071 90.5859 22.1071C85.684 22.1071 81.6959 26.0952 81.6959 30.9971V31.5416C81.6959 32.3004 82.178 32.9451 82.8516 33.1916V35.4837C82.8516 37.1268 83.3679 38.6511 84.2455 39.9057C79.8399 40.8079 76.4719 44.5865 76.1925 49.1864H65.9766C65.0056 49.1864 64.2188 49.9732 64.2188 50.9442V61.8426H57.0879V50.9442C57.0879 49.9732 56.3004 49.1864 55.3301 49.1864H42.6739C41.703 49.1864 40.9161 49.9732 40.9161 50.9442V61.8426H34.5879V38.3895L46.8404 26.137L55.0184 34.3143C55.67 34.9666 56.4487 35.417 57.2754 35.667V38.6354L53.6012 42.3096C53.2716 42.6392 53.0862 43.0862 53.0862 43.5524V46.7989C53.0862 47.7691 53.8737 48.5567 54.844 48.5567C55.8149 48.5567 56.6018 47.7691 56.6018 46.7989V44.281L59.0332 41.8495L61.4646 44.281V46.5352C61.4646 47.5061 62.2522 48.293 63.2224 48.293C64.1933 48.293 64.9802 47.5061 64.9802 46.5352V43.5524C64.9802 43.0862 64.7948 42.6392 64.4653 42.3096L60.791 38.6354V35.5427C61.4832 35.279 62.132 34.8705 62.6889 34.3143C63.7134 33.2898 64.2778 31.9275 64.2778 30.4787C64.2778 29.0299 63.7134 27.6683 62.6889 26.6438L49.9317 13.8859C49.9283 13.8832 49.9249 13.8804 49.9221 13.8777C47.3987 11.37 43.3056 11.3748 40.7877 13.8914L25.2235 29.4556C21.609 30.1608 18.8713 33.3496 18.8713 37.168V46.2715C18.8713 47.2418 19.6589 48.0294 20.6291 48.0294C21.6 48.0294 22.3869 47.2418 22.3869 46.2715V43.7124C23.6318 44.5419 25.1253 45.026 26.7293 45.026C28.334 45.026 29.8274 44.5419 31.0723 43.7124V62.4709C30.9892 62.5059 30.9082 62.5437 30.8265 62.5814C29.5171 62.0932 28.141 61.8426 26.7293 61.8426C25.1953 61.8426 23.7307 62.1413 22.3869 62.6789V59.2787C22.3869 58.3084 21.6 57.5209 20.6291 57.5209C19.6582 57.5209 18.8713 58.3084 18.8713 59.2787V64.8714C16.4955 67.0199 15 70.1242 15 73.5719V100.236C15 101.207 15.7869 101.994 16.7578 101.994H96.9141C97.8843 101.994 98.6719 101.207 98.6719 100.236V70.9146C102.201 70.6749 105 67.7285 105 64.1387V49.8043C105 44.9285 101.528 40.8477 96.9264 39.9057ZM90.4912 39.7003C88.2088 39.6495 86.3672 37.7784 86.3672 35.4837V33.2994H94.8047V35.4837C94.8047 37.7784 92.9631 39.6495 90.6807 39.7003H90.4912ZM95.8223 29.7838H92.3438V25.9187C94.0727 26.5195 95.4041 27.9786 95.8223 29.7838ZM88.8281 25.9187V29.7838H85.3496C85.7677 27.9786 87.0992 26.5195 88.8281 25.9187ZM87.5977 65.3582C90.0208 65.3582 91.9922 67.3296 91.9922 69.7528C91.9922 72.1759 90.0208 74.1473 87.5977 74.1473H34.1602C31.737 74.1473 29.7656 72.1759 29.7656 69.7528C29.7656 67.3296 31.737 65.3582 34.1602 65.3582H87.5977ZM86.0156 77.6629H87.5977C88.0165 77.6629 88.4271 77.6293 88.8281 77.5668V98.4786H86.0156V77.6629ZM26.3434 70.9661C26.5933 72.5865 27.339 74.045 28.4177 75.1841C27.9687 75.6085 27.3692 75.8543 26.7293 75.8543C25.3725 75.8543 24.2683 74.7509 24.2683 73.3934C24.2683 72.1684 25.1692 71.1521 26.3434 70.9661ZM67.7344 52.702H76.875V61.8426H67.7344V52.702ZM44.4317 52.702H53.5723V61.8426H44.4317V52.702ZM40.8131 23.0101C41.5533 23.7496 42.4411 24.2865 43.4106 24.5948L33.9459 34.0596C33.1371 32.1898 31.6237 30.6943 29.7409 29.9102L39.2345 20.4173C39.5366 21.3655 40.0619 22.2582 40.8131 23.0101ZM60.7622 30.4787C60.7622 30.9882 60.563 31.4675 60.2026 31.828C59.4589 32.5723 58.2477 32.5723 57.504 31.828L49.3261 23.6507L49.9372 23.0403C50.6754 22.3014 51.2116 21.415 51.522 20.4482L60.2026 29.1294C60.563 29.4899 60.7622 29.9692 60.7622 30.4787ZM47.4509 16.3777C48.0091 16.9353 48.316 17.6769 48.316 18.4658C48.316 19.1848 48.0585 19.8625 47.5916 20.3994C47.5443 20.4379 47.4976 20.4791 47.4529 20.5237C46.3076 21.669 44.444 21.669 43.2987 20.5237C42.1541 19.3784 42.1541 17.5155 43.2987 16.3702C43.3255 16.3434 43.3495 16.3153 43.3743 16.2871C44.5319 15.2304 46.3316 15.2578 47.4509 16.3777ZM26.7293 41.5103C24.3349 41.5103 22.3869 39.5623 22.3869 37.168C22.3869 34.773 24.3349 32.825 26.7293 32.825C29.1243 32.825 31.0723 34.773 31.0723 37.168C31.0723 39.5623 29.1243 41.5103 26.7293 41.5103ZM18.5156 73.5719C18.5156 69.0428 22.2002 65.3582 26.7293 65.3582C27.0087 65.3582 27.2855 65.3726 27.5594 65.4001C27.1502 66.0188 26.8247 66.6972 26.6016 67.4202C23.3647 67.4889 20.7527 70.1407 20.7527 73.3934C20.7527 76.6892 23.4341 79.3699 26.7293 79.3699C28.5599 79.3699 30.2531 78.5432 31.3744 77.1548C32.2417 77.4823 33.1803 77.6629 34.1602 77.6629H34.9436V98.4779H18.5156V73.5719ZM82.5 98.4786H38.4592V86.1004H59.0332C60.0041 86.1004 60.791 85.3128 60.791 84.3426C60.791 83.3717 60.0041 82.5848 59.0332 82.5848H38.4592V77.6629H82.5V98.4786ZM92.3438 98.4786V76.0768C93.66 75.0859 94.6584 73.6955 95.1562 72.0867V98.4786H92.3438ZM101.484 64.1387C101.484 65.7881 100.259 67.1531 98.6719 67.3804V52.4349C98.6719 51.464 97.885 50.6771 96.9141 50.6771C95.9431 50.6771 95.1562 51.464 95.1562 52.4349V63.3477V63.3512V67.4188C94.1579 64.193 91.1469 61.8426 87.5977 61.8426H86.0156V52.4349C86.0156 51.464 85.2287 50.6771 84.2578 50.6771C83.2869 50.6771 82.5 51.464 82.5 52.4349V61.8426H80.3906V50.9442C80.3906 50.3729 80.1167 49.8661 79.6944 49.5455C79.831 46.0319 82.73 43.216 86.2766 43.216H90.4912C90.5228 43.216 90.5544 43.218 90.5859 43.218C90.6182 43.218 90.6491 43.2167 90.6807 43.216H94.896C98.5291 43.216 101.484 46.1713 101.484 49.8043V64.1387Z" fill="black"/>
<path d="M20.6284 55.0602C21.0905 55.0602 21.5444 54.872 21.8712 54.5445C22.2001 54.2176 22.3862 53.7645 22.3862 53.3023C22.3862 52.8395 22.2001 52.3864 21.8712 52.0595C21.5444 51.732 21.0926 51.5445 20.6284 51.5445C20.1663 51.5445 19.7124 51.732 19.3856 52.0595C19.0587 52.3864 18.8706 52.8395 18.8706 53.3023C18.8706 53.7645 19.0587 54.2176 19.3856 54.5445C19.7124 54.872 20.1663 55.0602 20.6284 55.0602Z" fill="black"/>
<path d="M26.73 35.4091C26.2658 35.4091 25.814 35.5973 25.4872 35.9241C25.1603 36.2516 24.9722 36.7048 24.9722 37.1669C24.9722 37.6311 25.1603 38.0829 25.4872 38.4098C25.814 38.7366 26.2658 38.9247 26.73 38.9247C27.1921 38.9247 27.6453 38.7366 27.9728 38.4098C28.2997 38.0829 28.4878 37.6297 28.4878 37.1669C28.4878 36.7048 28.2997 36.2516 27.9728 35.9241C27.6453 35.5973 27.1921 35.4091 26.73 35.4091Z" fill="black"/>
<path d="M44.1323 19.6891C44.4605 20.0159 44.9123 20.204 45.3751 20.204C45.8386 20.204 46.2904 20.0159 46.6193 19.6891C46.9461 19.3622 47.1343 18.909 47.1343 18.4462C47.1343 17.9841 46.9461 17.5309 46.6193 17.2034C46.2904 16.8772 45.8386 16.6884 45.3751 16.6884C44.9123 16.6884 44.4605 16.8766 44.1323 17.2034C43.8054 17.5309 43.6187 17.9841 43.6187 18.4462C43.6187 18.909 43.8054 19.3622 44.1323 19.6891Z" fill="black"/>
<path d="M50.5078 67.9938C50.0457 67.9938 49.5918 68.1819 49.265 68.5088C48.9381 68.8363 48.75 69.2895 48.75 69.7516C48.75 70.2137 48.9381 70.6676 49.265 70.9944C49.5918 71.3227 50.0457 71.5094 50.5078 71.5094C50.9699 71.5094 51.4238 71.3227 51.7506 70.9944C52.0775 70.6676 52.2656 70.2137 52.2656 69.7516C52.2656 69.2895 52.0775 68.8356 51.7506 68.5088C51.4238 68.1819 50.9699 67.9938 50.5078 67.9938Z" fill="black"/>
<path d="M39.2578 67.9938C38.7957 67.9938 38.3418 68.1819 38.015 68.5088C37.6881 68.8363 37.5 69.2895 37.5 69.7516C37.5 70.2158 37.6881 70.6676 38.015 70.9944C38.3418 71.3213 38.7936 71.5094 39.2578 71.5094C39.7199 71.5094 40.1738 71.3213 40.5006 70.9944C40.8275 70.6676 41.0156 70.2158 41.0156 69.7516C41.0156 69.2895 40.8275 68.8356 40.5006 68.5088C40.1738 68.1819 39.7199 67.9938 39.2578 67.9938Z" fill="black"/>
<path d="M84.2578 71.5094C84.7199 71.5094 85.1738 71.3227 85.5006 70.9944C85.8275 70.6676 86.0156 70.2158 86.0156 69.7516C86.0156 69.2895 85.8275 68.8356 85.5006 68.5088C85.1738 68.1819 84.7199 67.9938 84.2578 67.9938C83.7957 67.9938 83.3418 68.1819 83.015 68.5088C82.6881 68.8363 82.5 69.2895 82.5 69.7516C82.5 70.2158 82.6881 70.6676 83.015 70.9944C83.3418 71.3233 83.7957 71.5094 84.2578 71.5094Z" fill="black"/>
<path d="M61.7578 67.9938C61.2957 67.9938 60.8418 68.1819 60.515 68.5088C60.1881 68.8363 60 69.2895 60 69.7516C60 70.2137 60.1881 70.6676 60.515 70.9944C60.8418 71.3227 61.2957 71.5094 61.7578 71.5094C62.2199 71.5094 62.6738 71.3227 63.0006 70.9944C63.3275 70.6676 63.5156 70.2158 63.5156 69.7516C63.5156 69.2895 63.3275 68.8356 63.0006 68.5088C62.6738 68.1819 62.2199 67.9938 61.7578 67.9938Z" fill="black"/>
<path d="M73.0078 67.9938C72.5457 67.9938 72.0918 68.1819 71.765 68.5088C71.4381 68.8363 71.25 69.2895 71.25 69.7516C71.25 70.2137 71.4381 70.6676 71.765 70.9944C72.0918 71.3227 72.5457 71.5094 73.0078 71.5094C73.4699 71.5094 73.9238 71.3227 74.2506 70.9944C74.5775 70.6676 74.7656 70.2137 74.7656 69.7516C74.7656 69.2895 74.5775 68.8356 74.2506 68.5088C73.9238 68.1819 73.4699 67.9938 73.0078 67.9938Z" fill="black"/>
<path d="M65.783 86.0993C66.2458 86.0993 66.6989 85.9125 67.0258 85.5843C67.3526 85.2574 67.5408 84.8056 67.5408 84.3415C67.5408 83.8793 67.3526 83.4255 67.0258 83.0986C66.6989 82.7718 66.2471 82.5836 65.783 82.5836C65.3208 82.5836 64.867 82.7718 64.5401 83.0986C64.2133 83.4255 64.0251 83.8793 64.0251 84.3415C64.0251 84.8056 64.2133 85.2574 64.5401 85.5843C64.867 85.9132 65.3208 86.0993 65.783 86.0993Z" fill="black"/>
</svg>
