<svg xmlns="http://www.w3.org/2000/svg" viewBox="0 0 282.88 52.3"><defs><style>.cls-1{fill:#514736;}.cls-2{fill:#8c7d5e;}</style></defs><title>アセット 4</title><g id="レイヤー_2" data-name="レイヤー 2"><g id="process"><path class="cls-1" d="M87.33,25.69s.51,0,.59.19a3.12,3.12,0,0,1,.15,1s-.13,1-.13,1.2a8.4,8.4,0,0,1-.23,1.5,2.57,2.57,0,0,1-.57,1.28,2.44,2.44,0,0,1-1.14.82c-.46.09-1,.38-1.59.49s-1.1.1-1.83.18a17.86,17.86,0,0,1-2.26.11c-1.2,0-3,0-3.15,0s-4.78-.17-5.26-.19a9.52,9.52,0,0,1-2.5-.8A2.81,2.81,0,0,1,68,29.49c-.1-.77,0-3.13-.08-3.82s.12-6.91.12-6.91l0-5.15.12-6.06L68.29.71a.6.6,0,0,1,0-.35c.07-.17.11-.38.57-.36s2.4,0,2.71.06a5.11,5.11,0,0,1,1.83.49A5,5,0,0,1,74.79,1.7a2.87,2.87,0,0,1,.72,1.94c0,1,.06,6.42,0,6.63a5.28,5.28,0,0,0,.06.92c0,.3.06,8.73.06,8.73s0,2.44,0,2.72-.06,1.6-.1,1.89a2.38,2.38,0,0,0,.21.95c.08.17.31.23.76.25s4.22,0,4.22,0l5.73.06Z"/><path class="cls-1" d="M111.65,20.32a17.78,17.78,0,0,0-.5-3.85,21,21,0,0,0-1-2.86,7.8,7.8,0,0,0-1.45-2.33,8.17,8.17,0,0,0-3.54-2.4,11.41,11.41,0,0,0-8.65.1,10.48,10.48,0,0,0-2.18,1.58,20.29,20.29,0,0,0-2.49,3.09c-2,2.69-2.44,7.13-1.43,10.31a14.06,14.06,0,0,0,3.62,6.44c2.76,2.54,8,2.75,11.5,1.9,2.14-.52,3.42-2.7,4.37-4.51A16,16,0,0,0,111.65,20.32Zm-7.07.15a13.74,13.74,0,0,1-.4,3.76c-.27,1-1,3.06-3.41,3.06s-3.09-2.7-3.13-3-.21-4.28-.23-4.82c-.08-2.28.67-5.79,3.58-5.79a2.89,2.89,0,0,1,3.13,2.19A27.61,27.61,0,0,1,104.58,20.47Z"/><path class="cls-1" d="M135.57,19.46c0-.63-.13-2.17-.25-2.9-1-6.26-9.46-10-14.9-7.43-2.17,1-3.89,3.66-5,5.73a11.33,11.33,0,0,0-.74,3.93,20.82,20.82,0,0,0,1.16,9.13,10.6,10.6,0,0,0,3,3.32c2.35,1.73,5.93,1.55,8.39.25a7.65,7.65,0,0,0,1.07-1v.31a6.43,6.43,0,0,1-.19,1c-.08.4-.33,1.77-.46,2.19a5.47,5.47,0,0,1-1.09,1.6,9.59,9.59,0,0,1-2.11,1,9.23,9.23,0,0,1-2.75.19,7.69,7.69,0,0,1-1.71-.23,11.58,11.58,0,0,1-1.89-.7,1,1,0,0,0-.8.09,5,5,0,0,0-.46.9,18.25,18.25,0,0,0-.74,2.19,8.8,8.8,0,0,0-.12,1.77c.06.16.06.25.54.44a46.64,46.64,0,0,0,5.39.88c4.25,0,8.54.38,11.13-3.66.17-.27,1-2.08,1.26-2.61s.8-3,.9-3.51.32-4.3.32-4.5S135.59,20.09,135.57,19.46Zm-7.13-1.31c0,1.08-.06,4.55-.06,4.68a6.86,6.86,0,0,1-.09,1.76,2.76,2.76,0,0,1-2.77,2.09,3.15,3.15,0,0,1-3-2.09,29.88,29.88,0,0,1-.46-3.13c0-.53.14-3.47.12-4a7.38,7.38,0,0,1,.66-2.58,3.41,3.41,0,0,1,2.52-1.48A2.87,2.87,0,0,1,127,14a5.07,5.07,0,0,1,1.28,1.32A10.11,10.11,0,0,1,128.44,18.15Z"/><path class="cls-1" d="M188.63,16.14A6.93,6.93,0,0,0,188.1,14,11,11,0,0,0,186,11a20.53,20.53,0,0,0-2.5-1.81c-.43-.21-1.48-.61-2.17-.84a14.88,14.88,0,0,0-2.84-.4s-.78,0-1.2,0a16.35,16.35,0,0,0-2.86.8,9,9,0,0,0-2.3,1.61c-3.08,2.67-3.84,7-3.61,10.8.06,1,.42,3,.65,4.18.7,3.55,4,6.87,7.66,7.2a23.69,23.69,0,0,0,8.12-.82c.52-.13,2.18-1,2.4-1.07s.46-.59.48-.87a4.8,4.8,0,0,0-.19-1.36,14.24,14.24,0,0,0-.59-1.67,1.57,1.57,0,0,0-.76-.69.74.74,0,0,0-.48.1s-.61.28-1,.47a15.17,15.17,0,0,1-2.65.42c-.55.06-1.66.06-2,.08a9.81,9.81,0,0,1-2.21-.4c-.82-.23-2-2.14-2.14-2.5a2.79,2.79,0,0,1-.11-1.49c.1-.38.63-.47.69-.49s4.28.11,4.36.09,2.67,0,3.55,0,1.83,0,2.53,0a3.28,3.28,0,0,0,1.2-.11,1.61,1.61,0,0,0,.65-.61,11.11,11.11,0,0,0,.11-1.43A33.25,33.25,0,0,0,188.63,16.14ZM182,17.44c-.06.36-.51.46-1.05.42-1.51-.11-3-.1-4.53-.19a5.17,5.17,0,0,1-.71,0c-.11,0-.13-.63,0-1.37a6.49,6.49,0,0,1,1.6-2.57,2.79,2.79,0,0,1,1.15-.67l.76-.15a1.8,1.8,0,0,1,1.41.45,5.76,5.76,0,0,1,1.29,2A9.11,9.11,0,0,1,182,17.44Z"/><path class="cls-1" d="M193,32.23s-.31-4.75-.31-5.34.25-6.4.29-6.88.28-5.1.28-5.62-.09-2.29-.15-3a4.66,4.66,0,0,0-.69-1.76.26.26,0,0,1,.14-.42,11.75,11.75,0,0,1,2.68-.57,10.19,10.19,0,0,1,2,.37A5.63,5.63,0,0,1,199,10a5.35,5.35,0,0,1,.76.8c.1.13.42-.08.55-.15a18.44,18.44,0,0,1,2.25-1.4,13,13,0,0,1,2.48-.81,13.39,13.39,0,0,1,2.92.09,8.53,8.53,0,0,1,2.57,1.37,5.88,5.88,0,0,1,1.7,2.23,8.12,8.12,0,0,1,.68,2.63c0,.78.06,2.63.12,2.92s.23,7.89.23,7.89-.1,3.79-.08,3.89a6.6,6.6,0,0,1-.46,1.54,1.62,1.62,0,0,1-.55.74,4.47,4.47,0,0,1-1.47.31c-.66,0-2,.11-2.42.08a2.34,2.34,0,0,1-1.52-.54c-1.94-1.87-1.25-5.67-1.32-8.1,0-.68,0-6.74-.13-7.22a3,3,0,0,0-1.39-1.41,2.59,2.59,0,0,0-1.78,0,11.44,11.44,0,0,0-1.81,1.44,3.73,3.73,0,0,0-.53,1.8c0,.64.08,1.54.1,2.55s.19,9.17.19,9.17,0,1.12,0,1.22a1.29,1.29,0,0,1-.35.57,1.68,1.68,0,0,1-1,.42c-.55,0-2,.09-2.61.11s-1.67,0-1.9,0Z"/><path class="cls-1" d="M238,19.73a16.15,16.15,0,0,0-.48-4,11.44,11.44,0,0,0-6.2-7.09c-2.58-1.16-6-.64-8.57.23a10.44,10.44,0,0,0-3.32,2.27,17.32,17.32,0,0,0-2.06,3.24,10.75,10.75,0,0,0-.55,2.92c0,.55,0,3.79,0,4.42s.34,2.19.44,3a16.64,16.64,0,0,0,1.5,3.45,10.34,10.34,0,0,0,2.54,2.67,13.46,13.46,0,0,0,3.52,1.66,13.51,13.51,0,0,0,2.46.19,9.11,9.11,0,0,0,2.73-.36,11.21,11.21,0,0,0,5.25-3.48,14.16,14.16,0,0,0,2-3.46,6.49,6.49,0,0,0,.57-2.48C237.92,22.24,238.05,21.63,238,19.73Zm-7.51,3.81a4.75,4.75,0,0,1-1.05,2.76c-.57.48-1,1.15-1.95,1.13a3.23,3.23,0,0,1-2.28-1.22A12.56,12.56,0,0,1,224,22.72c-.09-.86,0-4.86,0-5.24a8.2,8.2,0,0,1,.92-2.54,5.67,5.67,0,0,1,1.54-1.44,4,4,0,0,1,1-.2,1.84,1.84,0,0,1,1.37.35,2.72,2.72,0,0,1,1.22,1.29,9.89,9.89,0,0,1,.72,3.53C230.75,19.82,230.54,22.64,230.49,23.54Z"/><path class="cls-1" d="M238.87,8.84a1.69,1.69,0,0,1,.71-.22,14.63,14.63,0,0,1,1.66-.06c1.39.12,3.92-.65,4.84.82A19,19,0,0,1,247.3,12c.07.29.85,3.3.85,3.3l2.1,8.67.36,2,.25.06.84-4.63,1.73-6.88L255,9.07a3,3,0,0,1,.89-.45c.52,0,6-.24,5.78.74,0,.15-.5,2-.8,2.92S258.71,19,258.71,19l-2.55,9s-.9,2.95-.94,3.15a1.79,1.79,0,0,1-.61.82,25.61,25.61,0,0,1-3.16.38c-.55,0-1.77-.14-2.63-.16a4.29,4.29,0,0,1-2.59-.83c-.8-.63-1.45-2.58-1.62-2.86s-3.07-11.15-3.07-11.15L239,9.49S238.7,9,238.87,8.84Z"/><path class="cls-1" d="M270.47,22.53c.38,0,1.2,0,1.53,0s5.54.25,6,.23,2.19,0,2.77-.1a3.88,3.88,0,0,0,1.52-.53c.46-.27.53-1,.61-1.58s-.06-3.64-.13-4.4a12.73,12.73,0,0,0-.9-3A10.66,10.66,0,0,0,279.37,10a11.5,11.5,0,0,0-11.72-.86c-5,2.59-5.3,9.06-4.94,13.93a10.94,10.94,0,0,0,4.36,7.84c2.71,2,6,1.86,9.18,1.44a16.47,16.47,0,0,0,3.16-1,16.53,16.53,0,0,0,2.5-1.2c1.45-.73-.12-3.68-1.13-4.19-.38-.19-.87,0-1.66.27a22,22,0,0,1-3.27.72c-2.46.21-5.64-.91-6-3.83C269.84,22.76,270.09,22.57,270.47,22.53ZM270,17.08c.07-.36.49-2,.64-2.42a3.65,3.65,0,0,1,1.13-1.39,4.25,4.25,0,0,1,1.14-.46,3.21,3.21,0,0,1,1.37.3,4.33,4.33,0,0,1,1.41,1.3c.25.48.42.51.5,1.12a9.26,9.26,0,0,1,0,1.72.41.41,0,0,1-.42.4c-.25,0-2.51.1-3.05.08s-2.42.07-2.51.07S269.9,17.44,270,17.08Z"/><path class="cls-1" d="M166,10.28a7.84,7.84,0,0,1-.63,2.69,9.77,9.77,0,0,1-1.23,2.46,7,7,0,0,1-1.52,1.81c-.73.52-1.61.84-2.36,1.32a7.37,7.37,0,0,1,3.48,4.27l1,3.31a9.37,9.37,0,0,0,2.19,3.5c.43.49.72.62.11,1.06s-1.51,1-1.63,1.06a6.66,6.66,0,0,1-1.19.4,8.12,8.12,0,0,1-1.88.23,4.28,4.28,0,0,1-2.86-1.2A7.66,7.66,0,0,1,158,28.12l-1.67-4.87A5.11,5.11,0,0,0,155,21.11a3.86,3.86,0,0,0-2.57-.74c-.65,0-2-.36-1.91.56v2.42l-.21,2.84.21,5.16V32a17.92,17.92,0,0,1-2.15.07c-.5,0-1,.21-1.56.21a10.83,10.83,0,0,1-3.68-.3s0-.71,0-.76V24.31l.19-15.73L143.1.51l.33-.32c2.69-.07,3.71.1,5.55.07s5-.21,6.06-.21a12.88,12.88,0,0,1,4.16.58,8.38,8.38,0,0,1,3.38,1.56A10.15,10.15,0,0,1,165,5.66,12.25,12.25,0,0,1,166,10.28ZM150.64,5.65c-.39.49-.16,1.8-.16,2.34v6.64a1.87,1.87,0,0,0,.48,0c1.77,0,4,.19,5.48-.64a3.18,3.18,0,0,0,1.37-1.37,5.66,5.66,0,0,0,.47-2.57,4.72,4.72,0,0,0-1.17-3.46c-1.58-1.54-4.08-1.07-6-1.16A.5.5,0,0,0,150.64,5.65Z"/><path class="cls-2" d="M28.71,44.15a1.42,1.42,0,0,1,2,0L37.63,51a1.42,1.42,0,0,0,2,0l1.54-1.54a1.42,1.42,0,0,0,0-2l-6.89-6.9a1.42,1.42,0,0,1,0-2l3.33-3.33a1.44,1.44,0,0,1,2,0l6.89,6.9a1.44,1.44,0,0,0,2,0l1.55-1.55a1.44,1.44,0,0,0,0-2L34.3,22.75a1.42,1.42,0,0,1,0-2l3.33-3.33a1.44,1.44,0,0,1,2,0L55.46,33.21a1.42,1.42,0,0,0,2,0L59,31.67a1.42,1.42,0,0,0,0-2L30.73,1.35a1.44,1.44,0,0,0-2,0L.42,29.65a1.42,1.42,0,0,0,0,2L2,33.21a1.42,1.42,0,0,0,2,0L28.71,8.49a1.42,1.42,0,0,1,2,0l3.33,3.32a1.44,1.44,0,0,1,0,2L9.33,38.56a1.44,1.44,0,0,0,0,2l1.55,1.55a1.44,1.44,0,0,0,2,0L28.71,26.32a1.42,1.42,0,0,1,2,0l3.33,3.33a1.42,1.42,0,0,1,0,2L18.25,47.48a1.42,1.42,0,0,0,0,2L19.79,51a1.44,1.44,0,0,0,2,0Z"/><path class="cls-1" d="M165.82,40.36a.53.53,0,0,1,.47.3,2.67,2.67,0,0,1,.19,2.3c-.28.7-.54,1.16-.82,1.77a15.19,15.19,0,0,1-5,6.31,13.58,13.58,0,0,1-2.07,1.23.42.42,0,0,1-.47-.1,7.6,7.6,0,0,0-1.17-1.06.21.21,0,0,1,0-.36,13.81,13.81,0,0,0,2.86-1.67,14.18,14.18,0,0,0,2.36-2.54,12.65,12.65,0,0,0,2-3.77.21.21,0,0,0-.2-.28c-.32,0-1.13-.13-1.71-.13-.75,0-1.31.13-1.8.13a.91.91,0,0,0-.73.37,19.5,19.5,0,0,1-2.21,2.63,1.6,1.6,0,0,1-2.15.11c-.09-.08-.19-.15-.3-.23a.28.28,0,0,1,0-.44,18,18,0,0,0,2-1.78,15.46,15.46,0,0,0,1.63-2.31,1.09,1.09,0,0,1,.93-.51h2.25Z"/><path class="cls-1" d="M173.91,41.36c0,1-.17,2.07-.11,3.11,0,.62.08,1.25.11,1.88a.31.31,0,0,1-.31.31h-.89a1,1,0,0,1-1-.95c0-.49.09-1,.07-1.5l0-1.24,0-1.67V39.54a.32.32,0,0,1,.37-.32A2.19,2.19,0,0,1,173.91,41.36Zm5-2.19a.3.3,0,0,1,.35-.3,2.3,2.3,0,0,1,1.83,2.25,24.67,24.67,0,0,1,0,3.33,9.06,9.06,0,0,1-1.62,4.76,9,9,0,0,1-2.65,2.19,4.17,4.17,0,0,1-1.51.67c-.38,0-.59-.55-.72-.84A.9.9,0,0,1,175,50a8,8,0,0,0,2.36-1.47A5.47,5.47,0,0,0,178.66,46a14.3,14.3,0,0,0,.35-2.68c0-.85-.14-1.74-.14-2.61Z"/><path class="cls-1" d="M193.61,40.24a19.6,19.6,0,0,1-4,7.64,14.71,14.71,0,0,1-4,3.08c-.22.13-.43.25-.65.36a.35.35,0,0,1-.21.07c-.18,0-.47-.46-.6-.58a1,1,0,0,1,.21-1.54,12.59,12.59,0,0,0,4.85-4.17,17.1,17.1,0,0,0,1.62-3.4,14.34,14.34,0,0,0,.56-2.68.2.2,0,0,1,.28-.15,14.06,14.06,0,0,1,1.73.93A.41.41,0,0,1,193.61,40.24Z"/><path class="cls-1" d="M197.05,46.69a1.18,1.18,0,0,1,0-1.67c1.26-1.19,2.33-2.54,3.49-3.82a2.23,2.23,0,0,1,3.53-.12c1.14,1.18,2,2.56,3.07,3.81a28.67,28.67,0,0,0,3.24,3.28.34.34,0,0,1,.09.42,10.81,10.81,0,0,1-.88,1.28.31.31,0,0,1-.47,0c-.75-.74-1.44-1.55-2.12-2.36A13.8,13.8,0,0,1,205.91,46a22.15,22.15,0,0,0-1.62-1.87c-1.17-1.46-1.39-1.65-1.81-1.65-.59,0-1.07.54-1.43,1s-.85,1-1.26,1.5c-.67.83-1.32,1.73-1.82,2.22a.33.33,0,0,1-.46,0Z"/><path class="cls-1" d="M151.41,42.8c0-1.24-.38-2.31-1.62-2.31l-8.92.07a.93.93,0,0,0-.93.93c0,.14,0,.28,0,.42.07,3,.08,6,0,8.94a.38.38,0,0,0,.38.38h10.6a.49.49,0,0,0,.49-.49l-.13-2.61Zm-2.24,6.46a.33.33,0,0,1-.17,0c-1.13.09-2.27.16-3.41.15a17.81,17.81,0,0,1-3.7-.28c0-1,.13-2,.12-3,0-1.17-.09-2.33-.12-3.5a.35.35,0,0,1,.35-.35h.44c1,0,1.23-.12,2.21-.12l1.93,0c.35,0,1.18.11,1.52.15a.83.83,0,0,1,.85.81,13.54,13.54,0,0,1,0,1.56c0,.55,0,1.09,0,1.63s0,1,0,1.51v.75C149.18,48.73,149.31,49.16,149.17,49.26Z"/><path class="cls-1" d="M208.62,40.13a9.45,9.45,0,0,1,.68.8l-.25.27a.9.9,0,0,1-1.33,0,8.24,8.24,0,0,0-1-.93l.11-.12A1.22,1.22,0,0,1,208.62,40.13Z"/><path class="cls-1" d="M210.13,38.69c.25.26.5.52.68.73a3,3,0,0,0-.26.25.92.92,0,0,1-1.33,0,10.89,10.89,0,0,0-.92-.88l.07-.07A1.25,1.25,0,0,1,210.13,38.69Z"/><path class="cls-1" d="M166.14,38.15a10.62,10.62,0,0,1,.74.78c-.12.08-.38.22-.67.42a.66.66,0,0,1-.86-.1,8.63,8.63,0,0,0-1-1l.3-.23A1.17,1.17,0,0,1,166.14,38.15Z"/><path class="cls-1" d="M168.7,37.71c.26.28.49.55.63.73l-.69.46a.54.54,0,0,1-.74-.13,8.49,8.49,0,0,0-1.06-1.17l.1-.07A1.31,1.31,0,0,1,168.7,37.71Z"/></g></g></svg>