<svg width="163" height="30" viewBox="0 0 163 30" fill="none" xmlns="http://www.w3.org/2000/svg">
<path d="M50.0848 14.7357C50.0848 14.7357 50.3773 14.7357 50.4232 14.8446C50.4829 15.0299 50.5119 15.2236 50.5092 15.4182C50.5092 15.4182 50.4347 15.9918 50.4347 16.1065C50.4167 16.3967 50.3726 16.6846 50.3027 16.9668C50.2639 17.2371 50.1507 17.4913 49.9758 17.701C49.8086 17.9185 49.5813 18.082 49.3219 18.1713C49.0581 18.2229 48.7484 18.3893 48.41 18.4524C48.0716 18.5155 47.7791 18.5097 47.3603 18.5556C46.93 18.604 46.4971 18.6251 46.0641 18.6187C45.3758 18.6187 44.3434 18.6187 44.2574 18.6187C44.1713 18.6187 41.5157 18.5212 41.2404 18.5097C40.7435 18.4237 40.261 18.2693 39.8065 18.0509C39.5953 17.9342 39.4129 17.7716 39.273 17.575C39.133 17.3785 39.0389 17.153 38.9978 16.9152C38.9404 16.4736 38.9978 15.12 38.9519 14.7242C38.906 14.3284 39.0207 10.7609 39.0207 10.7609V7.80699L39.0895 4.33118L39.1641 0.407993C39.1441 0.342564 39.1441 0.272674 39.1641 0.207245C39.2042 0.109739 39.2272 -0.0107099 39.491 0.000761371C39.7549 0.0122327 40.8676 0.00076137 41.0454 0.0351753C41.4097 0.0626161 41.7657 0.157936 42.095 0.316223C42.3986 0.485931 42.6687 0.709435 42.8923 0.975823C43.1635 1.28247 43.3107 1.67919 43.3052 2.08854C43.3052 2.66211 43.3397 5.77083 43.3052 5.89128C43.3013 6.06784 43.3128 6.24441 43.3397 6.41896C43.3397 6.59103 43.3741 11.4262 43.3741 11.4262C43.3741 11.4262 43.3741 12.8257 43.3741 12.9863C43.3741 13.1469 43.3397 13.904 43.3167 14.0703C43.3189 14.2583 43.3599 14.4438 43.4372 14.6152C43.483 14.7127 43.615 14.7471 43.8731 14.7586C44.1312 14.7701 46.2935 14.7586 46.2935 14.7586L49.58 14.793L50.0848 14.7357Z" fill="#CECECE"/>
<path d="M64.034 11.6557C64.0192 10.9113 63.9231 10.1708 63.7472 9.44745C63.5957 8.88755 63.404 8.33932 63.1736 7.80705C62.9775 7.31593 62.696 6.86346 62.3419 6.47064C61.7994 5.83964 61.0985 5.3645 60.3115 5.09408C58.7143 4.46124 56.9323 4.48185 55.3502 5.15144C54.8961 5.3985 54.4759 5.70309 54.0998 6.05767C53.567 6.60036 53.0886 7.19397 52.6716 7.82999C51.5245 9.37288 51.2721 11.9195 51.8514 13.7435C52.2019 15.1378 52.9187 16.4131 53.9277 17.4372C55.5108 18.8941 58.5162 19.0145 60.5237 18.527C61.7512 18.2287 62.4853 16.9784 63.0302 15.9402C63.7073 14.6146 64.0518 13.1441 64.034 11.6557ZM59.9788 11.7417C60.0021 12.4677 59.9249 13.1935 59.7494 13.8983C59.5946 14.4719 59.1758 15.6534 57.7936 15.6534C56.4113 15.6534 56.0212 14.1048 55.9983 13.9327C55.9754 13.7607 55.8778 11.4779 55.8664 11.1681C55.8205 9.86041 56.2507 7.8472 57.9197 7.8472C58.3206 7.80231 58.724 7.90511 59.0545 8.13634C59.385 8.36757 59.6198 8.71136 59.715 9.10331C59.8766 9.97385 59.9648 10.8564 59.9788 11.7417Z" fill="#CECECE"/>
<path d="M77.7536 11.1623C77.7536 10.8009 77.6791 9.91764 77.6102 9.49894C77.0367 5.90842 72.1843 3.76328 69.0641 5.23735C67.8195 5.81091 66.8329 7.3366 66.1963 8.52388C65.9223 9.24414 65.7786 10.0074 65.7719 10.778C65.6002 12.5513 65.8275 14.3406 66.4372 16.0146C66.8687 16.7646 67.4554 17.4138 68.1579 17.9189C69.5058 18.9112 71.5591 18.8079 72.9701 18.0623C73.1925 17.8912 73.3981 17.6991 73.5838 17.4887V17.6665C73.5627 17.8603 73.5263 18.0521 73.4748 18.2401C73.429 18.4695 73.2856 19.2553 73.211 19.4962C73.0588 19.8368 72.8471 20.1476 72.5858 20.4139C72.2073 20.6537 71.8008 20.8463 71.3756 20.9875C70.8582 21.1025 70.3265 21.1393 69.7983 21.0964C69.4674 21.0894 69.1384 21.0451 68.8175 20.9645C68.4452 20.8624 68.0824 20.7281 67.7334 20.563C67.6576 20.5394 67.5776 20.5317 67.4986 20.5406C67.4196 20.5495 67.3433 20.5747 67.2746 20.6146C67.1694 20.7774 67.081 20.9503 67.0108 21.1309C66.8429 21.5402 66.7011 21.9597 66.5863 22.387C66.5292 22.7222 66.5062 23.0623 66.5175 23.4022C66.5519 23.4939 66.5519 23.5456 66.8272 23.6545C67.847 23.883 68.8793 24.0516 69.9187 24.1593C72.3564 24.1593 74.817 24.3772 76.3025 22.06C76.4 21.9052 76.8761 20.867 77.0252 20.563C77.1743 20.259 77.4841 18.8423 77.5414 18.5498C77.5988 18.2573 77.725 16.0835 77.725 15.9688C77.725 15.8541 77.7651 11.5236 77.7536 11.1623ZM73.6641 10.4109C73.6641 11.0304 73.6297 13.0206 73.6297 13.0952C73.656 13.4325 73.6386 13.7718 73.5781 14.1047C73.4904 14.4561 73.2848 14.7668 72.9956 14.985C72.7065 15.2031 72.3513 15.3155 71.9893 15.3034C71.6134 15.3074 71.2457 15.1941 70.9372 14.9792C70.6288 14.7644 70.3951 14.4587 70.2686 14.1047C70.149 13.5113 70.0609 12.9121 70.0048 12.3094C70.0048 12.0054 70.0851 10.3191 70.0736 10.0152C70.109 9.50301 70.2373 9.00158 70.4521 8.53535C70.6151 8.29558 70.8293 8.09504 71.0793 7.94822C71.3293 7.80141 71.6088 7.712 71.8975 7.68647C72.2392 7.70069 72.568 7.82098 72.8382 8.03061C73.127 8.23613 73.3758 8.49271 73.5723 8.78772C73.679 9.32179 73.7099 9.86822 73.6641 10.4109Z" fill="#CECECE"/>
<path d="M108.187 9.25817C108.152 8.83543 108.049 8.42104 107.883 8.03074C107.581 7.39391 107.173 6.81228 106.679 6.31005C106.227 5.9285 105.748 5.58147 105.245 5.27189C104.998 5.15144 104.396 4.92202 104 4.7901C103.466 4.66135 102.92 4.58452 102.371 4.56067C102.371 4.56067 101.924 4.56067 101.683 4.56067C101.123 4.66354 100.574 4.81712 100.042 5.01952C99.5571 5.25643 99.1119 5.56804 98.7232 5.94296C96.9566 7.47438 96.5207 9.95792 96.6526 12.1375C96.6871 12.711 96.8935 13.8582 97.0255 14.535C97.427 16.5711 99.3197 18.4754 101.419 18.6647C102.987 18.7785 104.563 18.6194 106.076 18.1943C106.375 18.1198 107.327 17.6208 107.453 17.5806C107.579 17.5405 107.717 17.2422 107.728 17.0816C107.729 16.8177 107.693 16.555 107.619 16.3016C107.526 15.9756 107.413 15.6557 107.281 15.3437C107.184 15.1667 107.03 15.0273 106.845 14.9479C106.749 14.9352 106.652 14.9555 106.57 15.0053C106.57 15.0053 106.22 15.1659 105.996 15.2749C105.498 15.3999 104.989 15.4805 104.476 15.5158C104.161 15.5502 103.524 15.5502 103.329 15.5617C102.899 15.534 102.474 15.457 102.061 15.3322C101.591 15.2003 100.914 14.1048 100.834 13.8983C100.736 13.6245 100.714 13.329 100.771 13.0437C100.828 12.8258 101.132 12.7741 101.167 12.7627C101.201 12.7512 103.621 12.8258 103.667 12.8143C103.713 12.8028 105.199 12.8143 105.704 12.8143C106.208 12.8143 106.753 12.8143 107.155 12.8143C107.386 12.8359 107.619 12.8145 107.843 12.7512C107.998 12.672 108.127 12.5507 108.216 12.4013C108.254 12.1296 108.275 11.8556 108.279 11.5811C108.296 10.8057 108.265 10.0299 108.187 9.25817ZM104.384 10.0038C104.35 10.2103 104.092 10.2677 103.782 10.2447C102.916 10.1816 102.061 10.1874 101.184 10.1357C101.048 10.1451 100.912 10.1451 100.777 10.1357C100.714 10.1357 100.702 9.77438 100.777 9.34994C100.962 8.79312 101.276 8.28802 101.694 7.87588C101.88 7.69645 102.106 7.5646 102.354 7.49159L102.79 7.40556C102.935 7.3888 103.082 7.40314 103.222 7.44764C103.361 7.49214 103.49 7.56577 103.599 7.66366C103.922 7.99036 104.174 8.38108 104.338 8.81079C104.399 9.20541 104.415 9.60569 104.384 10.0038Z" fill="#CECECE"/>
<path d="M110.693 18.4868C110.693 18.4868 110.516 15.7624 110.516 15.424C110.516 15.0856 110.659 11.7532 110.682 11.4779C110.705 11.2025 110.843 8.55267 110.843 8.25442C110.843 7.95616 110.791 6.94095 110.757 6.53372C110.695 6.17372 110.56 5.83016 110.361 5.52425C110.344 5.50472 110.333 5.48135 110.329 5.45634C110.324 5.43133 110.326 5.40552 110.334 5.38137C110.342 5.35723 110.356 5.33554 110.375 5.31838C110.393 5.30122 110.416 5.28916 110.441 5.28335C110.939 5.1148 111.455 5.00507 111.978 4.95642C112.367 4.98872 112.751 5.05981 113.125 5.16863C113.493 5.29553 113.835 5.4879 114.135 5.73646C114.296 5.87398 114.442 6.02775 114.571 6.19532C114.628 6.26988 114.812 6.14943 114.886 6.10928C115.297 5.81101 115.728 5.54266 116.177 5.30629C116.634 5.10412 117.111 4.94847 117.599 4.8417C118.158 4.79777 118.719 4.81508 119.274 4.89332C119.807 5.06881 120.305 5.33462 120.748 5.67911C121.172 6.02059 121.506 6.45942 121.723 6.95816C121.937 7.43552 122.069 7.94548 122.113 8.46664C122.113 8.91402 122.148 9.97512 122.182 10.1415C122.216 10.3078 122.314 14.6669 122.314 14.6669C122.314 14.6669 122.257 16.8407 122.268 16.8981C122.216 17.2021 122.128 17.4988 122.004 17.7813C121.942 17.9504 121.833 18.0978 121.689 18.2058C121.42 18.3122 121.135 18.3723 120.846 18.3836C120.467 18.3836 119.698 18.4467 119.458 18.4295C119.139 18.4328 118.83 18.3231 118.586 18.1198C117.473 17.0472 117.869 14.8676 117.829 13.4739C117.829 13.0838 117.829 9.60803 117.754 9.33272C117.588 8.98069 117.306 8.69558 116.957 8.52399C116.627 8.40338 116.266 8.40338 115.936 8.52399C115.563 8.76353 115.215 9.04025 114.898 9.34993C114.71 9.66254 114.605 10.0179 114.594 10.3823C114.594 10.7494 114.64 11.2656 114.651 11.8449C114.663 12.4242 114.76 17.1045 114.76 17.1045C114.76 17.1045 114.76 17.7469 114.76 17.8043C114.723 17.929 114.654 18.0418 114.559 18.1312C114.4 18.2727 114.198 18.3574 113.986 18.3721C113.67 18.3721 112.839 18.4237 112.489 18.4352C112.139 18.4467 111.531 18.4352 111.399 18.4352L110.693 18.4868Z" fill="#CECECE"/>
<path d="M136.504 11.3171C136.508 10.5439 136.416 9.77315 136.229 9.02288C135.958 8.13148 135.502 7.30782 134.889 6.60665C134.275 5.90549 133.52 5.3429 132.673 4.9563C131.193 4.29097 129.231 4.58922 127.757 5.08822C127.044 5.3947 126.397 5.8369 125.853 6.39022C125.391 6.96397 124.995 7.58725 124.671 8.24857C124.489 8.78955 124.383 9.3532 124.356 9.92338C124.356 10.2388 124.356 12.0972 124.356 12.4585C124.356 12.8199 124.551 13.7147 124.608 14.1792C124.819 14.8692 125.108 15.5331 125.469 16.158C125.859 16.7516 126.352 17.2703 126.925 17.6895C127.549 18.103 128.229 18.4237 128.944 18.6416C129.41 18.7209 129.883 18.7573 130.355 18.7506C130.885 18.7615 131.413 18.6918 131.921 18.5441C133.095 18.1802 134.14 17.4875 134.932 16.5481C135.407 15.9441 135.793 15.2759 136.08 14.5635C136.281 14.1156 136.392 13.6322 136.406 13.1411C136.458 12.7568 136.533 12.4069 136.504 11.3171ZM132.196 13.5024C132.169 14.0807 131.958 14.6352 131.594 15.0855C131.267 15.3608 131.021 15.7451 130.476 15.7336C130.221 15.7133 129.974 15.6407 129.749 15.5203C129.524 15.3999 129.326 15.2343 129.168 15.0339C128.839 14.4045 128.605 13.7299 128.474 13.0321C128.422 12.5388 128.474 10.2446 128.474 10.0266C128.568 9.51517 128.746 9.02287 129.002 8.56977C129.242 8.24165 129.542 7.9615 129.885 7.74383C130.071 7.68128 130.263 7.64273 130.459 7.62912C130.596 7.60911 130.737 7.61655 130.872 7.651C131.006 7.68545 131.133 7.74624 131.244 7.82987C131.554 7.99129 131.8 8.25181 131.944 8.56977C132.205 9.21369 132.345 9.89997 132.357 10.5945C132.346 11.3688 132.225 12.9862 132.196 13.5024Z" fill="#CECECE"/>
<path d="M137.003 5.07107C137.128 4.99931 137.267 4.9562 137.41 4.94488C137.727 4.91539 138.045 4.9039 138.362 4.91047C139.16 4.9793 140.611 4.53765 141.138 5.38079C141.409 5.86322 141.643 6.36558 141.838 6.88354C141.878 7.04987 142.326 8.7763 142.326 8.7763L143.53 13.7491L143.737 14.8963L143.88 14.9307L144.362 12.2751L145.354 8.32892L146.255 5.20299C146.409 5.08908 146.582 5.00184 146.765 4.94488C147.063 4.94488 150.206 4.80723 150.08 5.36932C150.08 5.45536 149.793 6.51645 149.621 7.04413C149.449 7.57182 148.383 10.8985 148.383 10.8985L146.92 16.0606C146.92 16.0606 146.404 17.7526 146.381 17.8673C146.312 18.0548 146.191 18.2182 146.031 18.3376C145.432 18.4478 144.827 18.5206 144.218 18.5556C143.903 18.5556 143.203 18.4753 142.71 18.4638C142.176 18.4705 141.655 18.3034 141.224 17.9878C140.766 17.6264 140.393 16.508 140.295 16.3474C140.198 16.1868 138.534 9.95211 138.534 9.95211L137.078 5.44389C137.078 5.44389 136.905 5.16284 137.003 5.07107Z" fill="#CECECE"/>
<path d="M155.128 12.9232C155.346 12.9232 155.816 12.9232 156.005 12.9232C156.195 12.9232 159.183 13.0666 159.447 13.0551C159.71 13.0437 160.703 13.0551 161.035 12.9978C161.344 12.9585 161.641 12.855 161.907 12.6938C162.171 12.5389 162.211 12.1202 162.257 11.7876C162.303 11.4549 162.223 9.69978 162.183 9.26387C162.082 8.67124 161.909 8.0933 161.666 7.54317C161.307 6.85541 160.821 6.24225 160.232 5.73644C159.26 5.05737 158.122 4.65314 156.939 4.56633C155.756 4.47953 154.572 4.71335 153.51 5.24317C150.642 6.72871 150.47 10.4397 150.677 13.2329C150.752 14.1166 151.014 14.9743 151.445 15.7494C151.876 16.5245 152.467 17.1995 153.178 17.7297C154.732 18.8768 156.619 18.7965 158.443 18.5556C159.065 18.4259 159.672 18.2337 160.255 17.9821C160.752 17.7932 161.231 17.563 161.689 17.2938C162.521 16.8751 161.62 15.1831 161.041 14.8905C160.823 14.7816 160.542 14.8905 160.089 15.0454C159.475 15.2305 158.848 15.3686 158.213 15.4584C156.803 15.5788 154.979 14.9364 154.772 13.2616C154.766 13.0551 154.91 12.9462 155.128 12.9232ZM154.858 9.79728C154.898 9.5908 155.139 8.65015 155.225 8.40925C155.372 8.09379 155.594 7.81979 155.873 7.612C156.077 7.49283 156.298 7.40395 156.527 7.34816C156.799 7.34689 157.067 7.40565 157.313 7.52023C157.635 7.7052 157.911 7.95999 158.122 8.26586C158.265 8.54117 158.363 8.55838 158.408 8.90826C158.439 9.23639 158.439 9.56666 158.408 9.89479C158.408 9.92567 158.401 9.95611 158.388 9.98436C158.376 10.0126 158.358 10.0381 158.336 10.0594C158.313 10.0807 158.287 10.0974 158.258 10.1085C158.229 10.1196 158.198 10.125 158.168 10.1242C158.024 10.1242 156.728 10.1816 156.418 10.1701C156.108 10.1586 155.03 10.2103 154.979 10.2103C154.927 10.2103 154.801 10.0038 154.858 9.79728Z" fill="#CECECE"/>
<path d="M95.2073 5.89697C95.1791 6.42861 95.0568 6.95101 94.8459 7.43987C94.6785 7.9411 94.441 8.41613 94.1405 8.85084C93.9108 9.2438 93.616 9.59486 93.2686 9.88899C92.8499 10.1872 92.3452 10.3708 91.915 10.6461C92.8719 11.1738 93.5873 12.0515 93.911 13.0952L94.4846 14.9937C94.7488 15.748 95.1779 16.4338 95.7407 17.0012C95.9873 17.2823 96.1537 17.3568 95.8038 17.6092C95.4539 17.8616 94.9377 18.1828 94.8689 18.2172C94.6491 18.315 94.4206 18.3918 94.1863 18.4466C93.8333 18.5325 93.4714 18.5768 93.108 18.5785C92.4944 18.5622 91.9091 18.3167 91.4676 17.8902C91.056 17.3745 90.7659 16.7726 90.6188 16.1294L89.6609 13.3361C89.5131 12.8697 89.2508 12.4477 88.8981 12.1087C88.473 11.7961 87.9502 11.6456 87.424 11.6843C87.0512 11.6843 86.2769 11.4778 86.3285 12.0054V13.3935L86.208 15.0224L86.3285 17.982V18.3548C85.9186 18.3929 85.5068 18.4063 85.0953 18.395C84.8085 18.395 84.5218 18.5154 84.2006 18.5154C83.4923 18.5793 82.7784 18.5211 82.0898 18.3434C82.0898 18.3434 82.0898 17.9361 82.0898 17.9074V13.9441L82.1988 4.92191L82.0726 0.293235L82.2619 0.109693C83.8048 0.0695439 84.3898 0.16705 85.4452 0.149843C86.5006 0.132636 88.313 0.0293943 88.921 0.0293943C89.7292 0.00897995 90.5353 0.121363 91.307 0.362062C92.0122 0.511195 92.6747 0.816994 93.2457 1.25683C93.843 1.81539 94.316 2.49355 94.6337 3.2471C94.9951 4.08478 95.1899 4.98482 95.2073 5.89697ZM86.3973 3.24136C86.1736 3.52241 86.3055 4.27378 86.3055 4.58351V8.39198C86.3969 8.40381 86.4895 8.40381 86.5809 8.39198C87.5961 8.39198 88.8751 8.50096 89.724 8.0249C90.0613 7.85108 90.336 7.5764 90.5098 7.23912C90.7134 6.77551 90.8057 6.27071 90.7794 5.76505C90.8049 5.40627 90.7588 5.04598 90.6436 4.70524C90.5283 4.3645 90.3464 4.05014 90.1083 3.78051C89.2021 2.89722 87.7681 3.1668 86.6669 3.11518C86.6147 3.10953 86.562 3.11831 86.5144 3.14056C86.4669 3.16281 86.4264 3.19768 86.3973 3.24136Z" fill="#CECECE"/>
<path d="M16.4624 25.3237C16.6149 25.1724 16.8211 25.0875 17.036 25.0875C17.2508 25.0875 17.457 25.1724 17.6095 25.3237L21.5786 29.2526C21.7311 29.4039 21.9373 29.4889 22.1522 29.4889C22.367 29.4889 22.5732 29.4039 22.7257 29.2526L23.609 28.3693C23.7603 28.2168 23.8452 28.0106 23.8452 27.7958C23.8452 27.5809 23.7603 27.3748 23.609 27.2222L19.6572 23.2646C19.5058 23.1121 19.4209 22.9059 19.4209 22.691C19.4209 22.4762 19.5058 22.27 19.6572 22.1175L21.5671 20.2075C21.7211 20.0589 21.9267 19.9759 22.1407 19.9759C22.3547 19.9759 22.5603 20.0589 22.7143 20.2075L26.6661 24.1651C26.8201 24.3137 27.0257 24.3967 27.2397 24.3967C27.4537 24.3967 27.6593 24.3137 27.8133 24.1651L28.7023 23.2761C28.8509 23.1221 28.9339 22.9165 28.9339 22.7025C28.9339 22.4885 28.8509 22.2829 28.7023 22.129L19.6686 13.0494C19.5173 12.8969 19.4324 12.6907 19.4324 12.4758C19.4324 12.261 19.5173 12.0548 19.6686 11.9023L21.5786 9.9923C21.7326 9.8437 21.9382 9.76066 22.1522 9.76066C22.3661 9.76066 22.5718 9.8437 22.7257 9.9923L31.8053 19.0489C31.9578 19.2002 32.164 19.2851 32.3788 19.2851C32.5937 19.2851 32.7999 19.2002 32.9524 19.0489L33.8357 18.1656C33.987 18.0131 34.0719 17.8069 34.0719 17.592C34.0719 17.3772 33.987 17.171 33.8357 17.0185L17.621 0.775093C17.467 0.626499 17.2614 0.543457 17.0474 0.543457C16.8335 0.543457 16.6278 0.626499 16.4739 0.775093L0.236214 17.007C0.0849025 17.1596 0 17.3657 0 17.5806C0 17.7954 0.0849025 18.0016 0.236214 18.1541L1.14245 19.0489C1.29499 19.2002 1.50115 19.2851 1.71601 19.2851C1.93088 19.2851 2.13703 19.2002 2.28958 19.0489L16.4624 4.87035C16.6149 4.71904 16.8211 4.63414 17.036 4.63414C17.2508 4.63414 17.457 4.71904 17.6095 4.87035L19.5195 6.77459C19.6681 6.92856 19.7511 7.13418 19.7511 7.34816C19.7511 7.56213 19.6681 7.76776 19.5195 7.92172L5.34669 22.1175C5.19809 22.2714 5.11505 22.4771 5.11505 22.691C5.11505 22.905 5.19809 23.1106 5.34669 23.2646L6.23571 24.1536C6.38968 24.3022 6.5953 24.3853 6.80928 24.3853C7.02325 24.3853 7.22888 24.3022 7.38284 24.1536L16.4624 15.097C16.6149 14.9457 16.8211 14.8608 17.036 14.8608C17.2508 14.8608 17.457 14.9457 17.6095 15.097L19.5195 17.007C19.6708 17.1596 19.7557 17.3657 19.7557 17.5806C19.7557 17.7954 19.6708 18.0016 19.5195 18.1541L10.4629 27.2337C10.3116 27.3862 10.2267 27.5924 10.2267 27.8073C10.2267 28.0221 10.3116 28.2283 10.4629 28.3808L11.3462 29.2526C11.5001 29.4012 11.7058 29.4843 11.9198 29.4843C12.1337 29.4843 12.3394 29.4012 12.4933 29.2526L16.4624 25.3237Z" fill="#CECECE"/>
<path d="M95.104 23.1498C95.1605 23.1507 95.2157 23.1672 95.2633 23.1976C95.3109 23.228 95.3491 23.271 95.3736 23.3219C95.4893 23.5197 95.5591 23.7408 95.578 23.9691C95.5969 24.1974 95.5643 24.4271 95.4826 24.6411C95.322 25.0426 95.1729 25.3065 95.0123 25.6563C94.3993 27.0987 93.4085 28.349 92.1444 29.2755C91.7704 29.5454 91.373 29.7815 90.9572 29.981C90.9117 30.0002 90.8616 30.005 90.8134 29.9947C90.7651 29.9844 90.7212 29.9596 90.6876 29.9237C90.4856 29.6983 90.2607 29.4945 90.0165 29.3157C89.9987 29.305 89.984 29.2898 89.9737 29.2718C89.9635 29.2537 89.9581 29.2332 89.9581 29.2124C89.9581 29.1917 89.9635 29.1712 89.9737 29.1531C89.984 29.135 89.9987 29.1199 90.0165 29.1092C90.5998 28.8569 91.1505 28.5353 91.6569 28.1513C92.166 27.7229 92.6206 27.2336 93.0105 26.6945C93.5126 26.0439 93.9005 25.3127 94.1577 24.5321C94.1641 24.5139 94.1661 24.4943 94.1634 24.4752C94.1607 24.456 94.1534 24.4377 94.1421 24.422C94.1309 24.4062 94.116 24.3934 94.0987 24.3846C94.0814 24.3758 94.0623 24.3714 94.0429 24.3715C93.8594 24.3715 93.3948 24.297 93.0621 24.297C92.632 24.297 92.3108 24.3715 92.0297 24.3715C91.9482 24.3718 91.8679 24.3911 91.7952 24.4279C91.7225 24.4648 91.6594 24.5182 91.611 24.5838C91.2337 25.1229 90.8095 25.6277 90.3434 26.0922C90.1826 26.2543 89.9671 26.3505 89.7391 26.3622C89.511 26.3739 89.2868 26.3001 89.1103 26.1553C89.0586 26.1094 89.0013 26.0693 88.9382 26.0234C88.9191 26.0084 88.9037 25.9892 88.8931 25.9674C88.8825 25.9455 88.877 25.9215 88.877 25.8972C88.877 25.8729 88.8825 25.849 88.8931 25.8271C88.9037 25.8052 88.9191 25.7861 88.9382 25.771C89.3454 25.4597 89.7288 25.1184 90.0853 24.7501C90.4368 24.3379 90.7497 23.8944 91.0202 23.4252C91.0769 23.335 91.1556 23.2608 91.249 23.2096C91.3423 23.1585 91.4472 23.1319 91.5537 23.1326H92.8442L95.104 23.1498Z" fill="#CECECE"/>
<path d="M99.7441 23.7235C99.7441 24.2971 99.6466 24.9108 99.6811 25.5073C99.6811 25.8629 99.7269 26.2242 99.7441 26.5856C99.7441 26.6327 99.7254 26.678 99.6921 26.7113C99.6587 26.7447 99.6135 26.7634 99.5663 26.7634H99.0559C98.9086 26.7636 98.7669 26.7071 98.6601 26.6057C98.5533 26.5042 98.4897 26.3656 98.4823 26.2185C98.4823 25.9375 98.5339 25.6449 98.5224 25.3582V24.6469V23.6891V22.6796C98.5221 22.6529 98.5276 22.6264 98.5386 22.6021C98.5495 22.5777 98.5657 22.556 98.5859 22.5385C98.6061 22.521 98.6299 22.5082 98.6556 22.5009C98.6813 22.4935 98.7083 22.4919 98.7347 22.4961C99.0186 22.5529 99.2742 22.7062 99.4582 22.9298C99.6422 23.1535 99.7432 23.4339 99.7441 23.7235ZM102.612 22.4674C102.612 22.4422 102.617 22.4172 102.627 22.3942C102.638 22.3712 102.653 22.3508 102.672 22.3343C102.691 22.3179 102.714 22.3059 102.738 22.2992C102.762 22.2924 102.788 22.2911 102.813 22.2953C103.109 22.3572 103.375 22.5193 103.567 22.7543C103.758 22.9893 103.862 23.2829 103.862 23.5858C103.905 24.2218 103.905 24.8599 103.862 25.4958C103.816 26.4753 103.494 27.4218 102.933 28.226C102.512 28.7385 101.996 29.1649 101.413 29.4821C101.153 29.6667 100.859 29.7973 100.547 29.8664C100.329 29.8664 100.209 29.5509 100.134 29.3846C100.102 29.3231 100.082 29.2557 100.077 29.1865C100.071 29.1173 100.08 29.0477 100.102 28.9818C100.124 28.916 100.159 28.8552 100.205 28.8032C100.251 28.7512 100.307 28.709 100.369 28.6791C100.866 28.4792 101.324 28.1939 101.723 27.836C102.095 27.4265 102.352 26.9258 102.469 26.3848C102.584 25.8799 102.651 25.3653 102.669 24.8477C102.669 24.3602 102.589 23.8497 102.589 23.3507L102.612 22.4674Z" fill="#CECECE"/>
<path d="M111.043 23.0811C110.613 24.694 109.83 26.1909 108.749 27.4631C108.092 28.1798 107.316 28.7774 106.455 29.2297C106.329 29.3042 106.208 29.3731 106.082 29.4362C106.047 29.4622 106.005 29.4763 105.962 29.4763C105.858 29.4763 105.692 29.2125 105.617 29.1436C105.559 29.0814 105.515 29.0069 105.489 28.9255C105.463 28.8441 105.456 28.7579 105.467 28.6733C105.479 28.5886 105.509 28.5076 105.556 28.4362C105.603 28.3647 105.665 28.3047 105.738 28.2604C106.856 27.7159 107.814 26.892 108.52 25.8686C108.9 25.2547 109.212 24.6007 109.449 23.9185C109.605 23.4175 109.712 22.9028 109.77 22.3813C109.773 22.3639 109.78 22.3474 109.79 22.3331C109.8 22.3187 109.814 22.3069 109.829 22.2986C109.845 22.2903 109.862 22.2857 109.88 22.2851C109.897 22.2845 109.915 22.288 109.931 22.2953C110.273 22.4497 110.605 22.628 110.923 22.8287C110.967 22.8523 111.003 22.8896 111.025 22.935C111.046 22.9805 111.053 23.0316 111.043 23.0811Z" fill="#CECECE"/>
<path d="M113.016 26.7806C112.954 26.7177 112.904 26.643 112.869 26.5609C112.835 26.4787 112.818 26.3906 112.818 26.3016C112.818 26.2127 112.835 26.1246 112.869 26.0424C112.904 25.9602 112.954 25.8856 113.016 25.8227C113.739 25.1402 114.353 24.3658 115.018 23.6317C115.132 23.4727 115.281 23.3421 115.454 23.2498C115.627 23.1576 115.818 23.1061 116.014 23.0995C116.209 23.0928 116.404 23.1312 116.582 23.2115C116.761 23.2918 116.918 23.412 117.043 23.5629C117.697 24.2397 118.19 25.0312 118.804 25.7481C119.372 26.4241 119.993 27.0532 120.662 27.6294C120.697 27.6575 120.721 27.6968 120.731 27.7407C120.74 27.7846 120.734 27.8304 120.714 27.8703C120.563 28.1268 120.395 28.3722 120.209 28.6045C120.192 28.6239 120.172 28.6395 120.148 28.6501C120.125 28.6608 120.1 28.6663 120.074 28.6663C120.049 28.6663 120.023 28.6608 120 28.6501C119.977 28.6395 119.956 28.6239 119.939 28.6045C119.509 28.1801 119.113 27.7155 118.723 27.2509C118.496 26.9766 118.287 26.6872 118.098 26.3848C117.809 26.0102 117.499 25.6522 117.169 25.3122C116.498 24.4748 116.372 24.3658 116.131 24.3658C115.793 24.3658 115.517 24.6756 115.311 24.9394C115.104 25.2032 114.823 25.513 114.588 25.7998C114.204 26.2758 113.831 26.792 113.544 27.0731C113.509 27.1074 113.461 27.1266 113.412 27.1266C113.363 27.1266 113.316 27.1074 113.28 27.0731L113.016 26.7806Z" fill="#CECECE"/>
<path d="M86.8389 24.5493C86.8389 23.8381 86.621 23.2244 85.9098 23.2244L80.7935 23.2645C80.6521 23.2645 80.5164 23.3207 80.4164 23.4207C80.3163 23.5208 80.2601 23.6565 80.2601 23.7979C80.2601 23.8782 80.2601 23.9585 80.2601 24.0388C80.3003 25.7595 80.306 27.4802 80.2601 29.1665C80.2601 29.1951 80.2658 29.2235 80.2767 29.2499C80.2877 29.2764 80.3037 29.3004 80.324 29.3206C80.3442 29.3409 80.3682 29.3569 80.3947 29.3679C80.4211 29.3788 80.4495 29.3845 80.4781 29.3845H86.5579C86.6324 29.3845 86.7039 29.3549 86.7566 29.3021C86.8093 29.2494 86.8389 29.178 86.8389 29.1034L86.7644 27.6064L86.8389 24.5493ZM85.5541 28.2545C85.5222 28.2631 85.4886 28.2631 85.4566 28.2545C84.8085 28.3062 84.1546 28.3463 83.5008 28.3406C82.7897 28.3611 82.0785 28.3073 81.3786 28.18C81.3786 27.6064 81.4531 27.0328 81.4474 26.4593C81.4474 25.7882 81.3958 25.1229 81.3786 24.4518C81.3786 24.3986 81.3997 24.3475 81.4374 24.3098C81.475 24.2722 81.5261 24.251 81.5793 24.251H81.8317C82.4053 24.251 82.5372 24.1822 83.0993 24.1822H84.2063C84.407 24.1822 84.8831 24.2453 85.0781 24.2683C85.1406 24.2667 85.2028 24.2775 85.2612 24.3001C85.3195 24.3226 85.3728 24.3564 85.4181 24.3995C85.4634 24.4427 85.4997 24.4943 85.525 24.5515C85.5503 24.6087 85.5641 24.6703 85.5656 24.7328C85.5828 25.0308 85.5828 25.3296 85.5656 25.6276C85.5656 25.9431 85.5656 26.2528 85.5656 26.5625C85.5656 26.8722 85.5656 27.1361 85.5656 27.4286V27.8588C85.5599 27.9505 85.6344 28.1972 85.5541 28.2545Z" fill="#CECECE"/>
<path d="M119.653 23.0179C119.791 23.1635 119.921 23.3167 120.043 23.4768L119.899 23.6316C119.851 23.6847 119.792 23.7271 119.726 23.756C119.661 23.785 119.59 23.8 119.518 23.8C119.446 23.8 119.375 23.785 119.309 23.756C119.244 23.7271 119.185 23.6847 119.136 23.6316C118.96 23.4383 118.768 23.2599 118.563 23.0982L118.626 23.0294C118.691 22.9579 118.769 22.9006 118.857 22.8611C118.945 22.8215 119.04 22.8005 119.137 22.7994C119.233 22.7983 119.329 22.8172 119.418 22.8548C119.506 22.8924 119.586 22.9479 119.653 23.0179Z" fill="#CECECE"/>
<path d="M120.519 22.192C120.662 22.3411 120.806 22.4902 120.909 22.6107C120.856 22.6555 120.806 22.7033 120.76 22.7541C120.71 22.8056 120.651 22.8466 120.586 22.8747C120.52 22.9027 120.45 22.9171 120.378 22.9171C120.307 22.9171 120.236 22.9027 120.171 22.8747C120.105 22.8466 120.046 22.8056 119.997 22.7541C119.831 22.5757 119.655 22.4072 119.469 22.2494L119.509 22.2092C119.641 22.0738 119.821 21.996 120.01 21.9928C120.2 21.9896 120.382 22.0612 120.519 22.192Z" fill="#CECECE"/>
<path d="M95.2875 21.8823C95.4365 22.0242 95.5781 22.1735 95.712 22.3297C95.6432 22.3756 95.494 22.4559 95.3277 22.5706C95.2524 22.6221 95.161 22.6446 95.0703 22.6341C94.9797 22.6236 94.8959 22.5806 94.8344 22.5132C94.6593 22.3067 94.4674 22.1149 94.2609 21.9397L94.4329 21.8078C94.5617 21.7185 94.7176 21.677 94.8737 21.6907C95.0298 21.7043 95.1762 21.7721 95.2875 21.8823Z" fill="#CECECE"/>
<path d="M96.7559 21.6299C96.905 21.7905 97.037 21.9454 97.1173 22.0486L96.7215 22.3125C96.6549 22.3576 96.5734 22.375 96.4942 22.3611C96.415 22.3472 96.3443 22.303 96.2971 22.2379C96.1157 21.9958 95.9121 21.7711 95.6891 21.5668L95.7464 21.5267C95.8972 21.4146 96.0844 21.363 96.2712 21.3821C96.4581 21.4012 96.631 21.4896 96.7559 21.6299Z" fill="#CECECE"/>
</svg>
